<?xml version="1.0" encoding="utf-8"?>
<!-- Generator: Adobe Illustrator 19.0.0, SVG Export Plug-In . SVG Version: 6.00 Build 0)  -->
<svg version="1.1" id="Ebene_1" xmlns="http://www.w3.org/2000/svg" xmlns:xlink="http://www.w3.org/1999/xlink" x="0px" y="0px"
	 viewBox="0 0 838.6 255.1" style="enable-background:new 0 0 838.6 255.1;" xml:space="preserve">
<style type="text/css">
	.st0{fill:#FFFFFF;}
	.st1{fill:#FFFFFF;stroke:#010202;stroke-width:2;stroke-miterlimit:10;}
	.st2{fill:#010202;}
</style>
<g id="XMLID_7_">
	<path id="XMLID_35_" d="M744.3,246.1H94.6L8.5,166.7V94.4L93.9,15h651.3l85.3,79.3v72.3L744.3,246.1z M99.5,235.1h640l79.2-73V98.9
		L740.3,26H98.7L20.3,99v63.1L99.5,235.1z"/>
</g>
<g id="XMLID_6_">
	<polygon id="XMLID_34_" points="51,65.9 51,54.9 660,54.9 703.7,18.4 711.6,26.6 664.6,65.8 	"/>
</g>
<g id="XMLID_89_">
	<g id="XMLID_90_">
		<polygon id="XMLID_42_" points="254.6,20.3 273.5,1.4 282.7,10.6 273,20.3 282.7,30 273.5,39.2 		"/>
		<path id="XMLID_39_" class="st0" d="M273.5,2.8l7.8,7.8l-9.7,9.7l9.7,9.7l-7.8,7.8L256,20.3L273.5,2.8 M273.5,0l-1.4,1.4
			l-17.5,17.5l-1.4,1.4l1.4,1.4l17.5,17.5l1.4,1.4l1.4-1.4l7.8-7.8l1.4-1.4l-1.4-1.4l-8.3-8.3l8.3-8.3l1.4-1.4l-1.4-1.4l-7.8-7.8
			L273.5,0L273.5,0z"/>
	</g>
</g>
<circle id="XMLID_144_" class="st1" cx="514.9" cy="19.5" r="13.5"/>
<circle id="XMLID_143_" class="st1" cx="373.2" cy="19.6" r="13.5"/>
<circle id="XMLID_138_" class="st1" cx="463" cy="19.6" r="13.5"/>
<circle id="XMLID_11_" class="st1" cx="321.3" cy="17.2" r="13.5"/>
<circle id="XMLID_2_" class="st1" cx="321.7" cy="60.6" r="13.5"/>
<circle id="XMLID_9_" class="st1" cx="373.6" cy="240.6" r="13.5"/>
<circle id="XMLID_10_" class="st1" cx="373.6" cy="60.4" r="13.5"/>
<circle id="XMLID_12_" class="st1" cx="463.4" cy="240.6" r="13.5"/>
<circle id="XMLID_52_" class="st1" cx="463.4" cy="60.4" r="13.5"/>
<circle id="XMLID_68_" class="st1" cx="515.3" cy="60.6" r="13.5"/>
<g id="XMLID_83_">
	<g id="XMLID_88_">
		<polygon id="XMLID_33_" points="254.6,60 273.5,41.1 282.7,50.3 273,60 282.7,69.7 273.5,78.8 		"/>
		<path id="XMLID_30_" class="st0" d="M273.5,42.5l7.8,7.8l-9.7,9.7l9.7,9.7l-7.8,7.8L256,60L273.5,42.5 M273.5,39.7l-1.4,1.4
			l-17.5,17.5l-1.4,1.4l1.4,1.4l17.5,17.5l1.4,1.4l1.4-1.4l7.8-7.8l1.4-1.4l-1.4-1.4l-8.3-8.3l8.3-8.3l1.4-1.4l-1.4-1.4l-7.8-7.8
			L273.5,39.7L273.5,39.7z"/>
	</g>
</g>
<g id="XMLID_54_">
	<circle id="XMLID_61_" class="st0" cx="14.5" cy="130.6" r="13.5"/>
	<path id="XMLID_58_" class="st2" d="M14.5,145c-8,0-14.5-6.5-14.5-14.5c0-8,6.5-14.5,14.5-14.5c8,0,14.5,6.5,14.5,14.5
		C28.9,138.5,22.4,145,14.5,145z M14.5,118.1c-6.9,0-12.5,5.6-12.5,12.5S7.6,143,14.5,143s12.5-5.6,12.5-12.5S21.3,118.1,14.5,118.1
		z"/>
</g>
<g id="XMLID_62_">
	<circle id="XMLID_130_" class="st0" cx="824.2" cy="130.6" r="13.5"/>
	<path id="XMLID_69_" class="st2" d="M824.2,145c-8,0-14.5-6.5-14.5-14.5c0-8,6.5-14.5,14.5-14.5c8,0,14.5,6.5,14.5,14.5
		C838.6,138.5,832.1,145,824.2,145z M824.2,118.1c-6.9,0-12.5,5.6-12.5,12.5s5.6,12.5,12.5,12.5s12.5-5.6,12.5-12.5
		S831,118.1,824.2,118.1z"/>
</g>
<g id="XMLID_75_">
	<g id="XMLID_77_">
		<polygon id="XMLID_28_" points="554.5,30.3 564.2,20.6 554.5,10.9 563.7,1.7 582.6,20.6 563.7,39.4 		"/>
		<path id="XMLID_25_" class="st0" d="M563.7,3.1l17.5,17.5L563.7,38l-7.8-7.8l9.7-9.7l-9.7-9.7L563.7,3.1 M563.7,0.3l-1.4,1.4
			l-7.8,7.8l-1.4,1.4l1.4,1.4l8.3,8.3l-8.3,8.3l-1.4,1.4l1.4,1.4l7.8,7.8l1.4,1.4l1.4-1.4L582.6,22l1.4-1.4l-1.4-1.4L565.1,1.7
			L563.7,0.3L563.7,0.3z"/>
	</g>
</g>
<g id="XMLID_72_">
	<g id="XMLID_74_">
		<polygon id="XMLID_23_" points="554.5,69.9 564.2,60.2 554.5,50.5 563.7,41.3 582.6,60.2 563.7,79.1 		"/>
		<path id="XMLID_20_" class="st0" d="M563.7,42.8l17.5,17.5l-17.5,17.5l-7.8-7.8l9.7-9.7l-9.7-9.7L563.7,42.8 M563.7,39.9l-1.4,1.4
			l-7.8,7.8l-1.4,1.4l1.4,1.4l8.3,8.3l-8.3,8.3l-1.4,1.4l1.4,1.4l7.8,7.8l1.4,1.4l1.4-1.4l17.5-17.5l1.4-1.4l-1.4-1.4l-17.5-17.5
			L563.7,39.9L563.7,39.9z"/>
	</g>
</g>
</svg>
