<?xml version="1.0" encoding="utf-8"?>
<!-- Generator: Adobe Illustrator 16.0.3, SVG Export Plug-In . SVG Version: 6.00 Build 0)  -->
<!DOCTYPE svg PUBLIC "-//W3C//DTD SVG 1.1//EN" "http://www.w3.org/Graphics/SVG/1.1/DTD/svg11.dtd">
<svg version="1.1" id="Ebene_1" xmlns="http://www.w3.org/2000/svg" xmlns:xlink="http://www.w3.org/1999/xlink" x="0px" y="0px"
	 width="185.442px" height="243.654px" viewBox="761.275 307.269 185.442 243.654"
	 enable-background="new 761.275 307.269 185.442 243.654" xml:space="preserve">
<g id="XMLID_83_">
	<g id="XMLID_88_">
		<polygon id="XMLID_16_" points="769.677,429.096 883.102,315.671 938.315,370.883 880.102,429.096 938.315,487.309 
			883.102,541.921 		"/>
		<path id="XMLID_13_" fill="#FFFFFF" d="M883.102,324.072l46.811,46.811L871.7,429.096l58.213,58.213l-46.811,46.811
			L778.079,429.096L883.102,324.072 M883.102,307.269l-8.402,8.402L769.677,420.094l-8.401,9.002l8.401,8.402L874.7,542.521
			l8.402,8.401l8.402-8.401l46.811-46.811l8.402-8.402l-8.402-8.401l-49.811-49.812l49.811-49.811l8.402-8.402l-8.402-8.401
			l-46.811-46.811L883.102,307.269L883.102,307.269z"/>
	</g>
</g>
</svg>
