<?xml version="1.0" encoding="utf-8"?>
<!-- Generator: Adobe Illustrator 19.0.0, SVG Export Plug-In . SVG Version: 6.00 Build 0)  -->
<svg version="1.1" id="Ebene_1" xmlns="http://www.w3.org/2000/svg" xmlns:xlink="http://www.w3.org/1999/xlink" x="0px" y="0px"
	 viewBox="0 0 141.7 141.7" style="enable-background:new 0 0 141.7 141.7;" xml:space="preserve">
<style type="text/css">
	.st0{fill:#FFFFFF;}
</style>
<g id="XMLID_83_">
	<g id="XMLID_88_">
		<polygon id="XMLID_16_" points="57.4,71.5 76.3,52.6 85.5,61.8 75.8,71.5 85.5,81.2 76.3,90.3 		"/>
		<path id="XMLID_13_" class="st0" d="M76.3,54l7.8,7.8l-9.7,9.7l9.7,9.7l-7.8,7.8L58.8,71.5L76.3,54 M76.3,51.2l-1.4,1.4L57.4,70
			L56,71.5l1.4,1.4l17.5,17.5l1.4,1.4l1.4-1.4l7.8-7.8l1.4-1.4l-1.4-1.4l-8.3-8.3l8.3-8.3l1.4-1.4l-1.4-1.4l-7.8-7.8L76.3,51.2
			L76.3,51.2z"/>
	</g>
</g>
</svg>
