<?xml version="1.0" encoding="utf-8"?>
<!-- Generator: Adobe Illustrator 16.0.3, SVG Export Plug-In . SVG Version: 6.00 Build 0)  -->
<!DOCTYPE svg PUBLIC "-//W3C//DTD SVG 1.1//EN" "http://www.w3.org/Graphics/SVG/1.1/DTD/svg11.dtd">
<svg version="1.1"
	 id="svg5121" xmlns:rdf="http://www.w3.org/1999/02/22-rdf-syntax-ns#" xmlns:svg="http://www.w3.org/2000/svg" xmlns:cc="http://creativecommons.org/ns#" xmlns:dc="http://purl.org/dc/elements/1.1/"
	 xmlns="http://www.w3.org/2000/svg" xmlns:xlink="http://www.w3.org/1999/xlink" x="0px" y="0px" width="1067.331px"
	 height="242.219px" viewBox="46.224 701.445 1067.331 242.219" enable-background="new 46.224 701.445 1067.331 242.219"
	 xml:space="preserve">
<g>
	<path fill="#009B87" d="M46.224,823.781c0-34.702,9.114-61.693,26.991-81.323s42.064-29.094,71.859-29.094
		c29.795,0,53.631,9.814,71.859,29.094c17.877,19.63,26.991,46.621,26.991,81.323c0,34.703-9.114,62.395-26.991,82.375
		c-18.228,20.331-42.064,30.146-71.509,30.146c-29.795,0-53.631-10.166-71.508-30.146C55.338,886.177,46.224,858.484,46.224,823.781
		z M190.994,823.781c0-20.681-4.207-36.806-12.269-48.724c-8.063-11.918-19.279-17.526-33.651-17.526
		c-14.372,0-25.238,5.959-33.651,17.526c-8.063,11.918-12.269,28.043-12.269,48.724c0,21.032,4.206,37.857,12.269,50.126
		s19.279,18.229,33.651,18.229c14.372,0,25.589-6.31,33.651-18.579C186.787,861.289,190.994,844.463,190.994,823.781z"/>
	<path fill="#009B87" d="M338.567,936.303c-15.423,0-29.444-7.011-42.063-21.032c-0.351-0.351-0.701-0.351-1.052-0.351
		s-0.701,0.351-0.701,0.701l-0.351,1.052c-1.052,4.557-3.505,8.412-7.361,11.567c-3.505,2.804-7.711,4.557-12.619,4.557h-3.855
		c-5.609,0-10.516-2.104-14.372-5.959s-5.959-8.764-5.959-14.021V726.334c0-6.66,2.454-12.619,7.361-17.527
		c4.907-4.907,10.516-7.361,17.526-7.361h2.104c6.66,0,12.619,2.454,17.526,7.361c4.907,4.908,7.361,10.517,7.361,17.527v30.847
		l-1.052,21.732c0,0.701,0.351,1.052,0.701,1.402s1.052,0.351,1.402,0c12.619-10.516,25.939-15.774,40.312-15.774
		c19.629,0,35.403,7.712,47.322,22.785c11.567,15.072,17.526,35.403,17.526,60.642c0,13.671-2.103,26.29-5.959,37.857
		s-9.114,21.032-15.423,28.394c-6.66,7.361-14.021,12.97-22.083,17.176C355.744,934.55,347.331,936.303,338.567,936.303z
		 M326.299,894.238c8.413,0,15.423-3.855,20.331-11.217c5.258-7.361,7.711-19.279,7.711-34.703c0-14.371-2.103-25.238-6.66-32.248
		c-4.206-7.011-10.866-10.517-19.98-10.517c-8.413,0-16.475,3.856-24.187,11.918c-1.402,1.402-2.103,3.155-2.103,5.259v59.239
		c0,1.753,0.701,3.505,2.103,4.557C310.525,891.785,317.886,894.238,326.299,894.238z"/>
	<path fill="#009B87" d="M486.142,936.303c-24.187,0-44.167-7.712-59.941-23.136c-15.773-15.423-23.485-36.455-23.485-63.096
		c0-12.97,2.103-24.888,6.66-36.104c4.557-10.866,10.166-20.331,17.526-27.342c7.361-7.361,15.424-12.97,24.888-16.825
		c9.465-3.855,18.929-5.959,29.095-5.959c22.784,0,39.96,7.011,51.878,21.383c12.269,14.722,18.579,33.3,18.579,56.085
		c0,6.66-2.805,12.269-8.063,16.825s-11.567,6.66-18.929,6.66h-69.405c-0.701,0-1.402,0.351-1.753,1.052s-0.701,1.402-0.351,1.752
		c5.258,19.279,18.578,29.095,40.312,29.095c6.31,0,12.619-1.052,18.929-3.155c2.103-0.701,4.557-1.051,7.361-1.051
		c2.103,0,4.206,0.35,6.66,0.701c4.557,1.401,8.412,4.206,10.866,8.412c1.402,3.155,2.103,5.959,2.103,9.465
		c0,3.154-0.701,5.959-2.103,8.763c-1.753,2.805-3.856,4.907-6.66,6.31C515.586,933.147,500.864,936.303,486.142,936.303z
		 M452.14,829.74c0,0.352,0.351,0.701,0.701,1.402s1.052,0.701,1.753,0.701h50.126c0.701,0,1.402-0.351,2.104-0.701
		c0.35-0.701,0.7-1.051,0.7-2.104c-0.351-8.062-2.804-14.371-7.011-18.928c-4.206-4.558-10.516-7.011-18.928-7.011
		c-7.011,0-13.32,2.103-18.579,6.66C455.646,815.72,452.14,822.38,452.14,829.74z"/>
	<path fill="#009B87" d="M579.733,932.446c-6.66,0-12.619-2.454-17.526-7.361s-7.361-10.516-7.361-17.526v-118.83
		c0-5.959,2.104-10.866,5.959-15.073c4.206-4.206,9.114-6.31,14.723-6.31h2.103c5.608,0,10.166,1.753,14.372,5.259
		c4.206,3.505,6.66,8.062,7.361,13.319l0.351,1.402c0,0.351,0.351,0.701,0.701,0.701s0.701,0,1.051-0.351
		c16.476-16.124,34.002-24.187,52.229-24.187c17.177,0,30.146,5.959,38.559,17.526s12.619,28.043,12.619,49.425v77.117
		c0,6.66-2.453,12.619-7.361,17.527c-4.907,4.907-10.516,7.36-17.526,7.36h-2.104c-6.66,0-12.619-2.453-17.526-7.36
		c-4.907-4.908-7.361-10.517-7.361-17.527v-70.808c0-10.866-1.401-18.578-4.557-22.784c-3.154-4.206-8.063-6.31-14.723-6.31
		c-5.258,0-9.464,1.052-13.319,2.804c-3.856,2.104-8.413,5.259-13.32,9.815c-1.402,1.402-2.104,2.804-2.104,4.907v82.375
		c0,6.66-2.454,12.619-7.361,17.526s-10.516,7.361-17.526,7.361H579.733z"/>
	<path fill="#009B87" d="M762.36,797.842c8.063-3.855,18.929-7.36,32.249-10.165c13.32-3.154,27.692-4.907,42.765-4.907
		c15.423,0,29.445,2.104,42.414,6.66c12.971,4.557,23.486,11.918,30.848,22.434c7.711,10.517,11.568,22.785,11.568,36.807
		c-0.352,18.928-5.609,35.754-15.424,50.477c-9.814,14.722-26.291,25.938-48.725,33.3c-22.433,7.361-42.764,11.218-61.342,11.218
		c-11.567,0-17.527-6.66-17.527-19.98c0.351-13.32,6.31-20.331,18.579-21.032c14.371,0,29.094-2.454,43.816-7.712
		c14.722-5.258,24.888-11.567,30.146-19.63s7.361-17.176,7.01-27.691c0-7.712-2.805-13.671-8.412-18.229
		c-5.609-4.557-16.826-6.659-33.652-7.011c-9.113,0.352-18.578,1.402-28.743,3.856s-22.784,5.608-38.208,10.165
		c-10.516,4.207-17.526-0.351-21.383-13.67C746.587,811.513,751.144,803.101,762.36,797.842z M787.248,721.777
		c18.578-0.701,34.002-1.052,45.92-0.701s28.042,1.401,47.321,3.154c13.672,1.753,20.682,9.465,21.033,22.785
		c-0.352,14.021-7.361,19.629-21.033,16.825c-19.629-2.104-35.403-3.506-47.321-3.856c-18.578,0-30.847,0-36.104,0.351
		c-5.609,0.351-8.413,0.351-8.413,0.701c-11.918,0.351-18.228-5.959-18.228-19.63C770.423,729.138,776.382,722.478,787.248,721.777z
		"/>
	<path fill="#009B87" d="M1054.354,776.46c13.32,0,21.732,5.258,25.238,16.124c3.504,10.517,0.35,19.98-10.166,28.043
		l-21.031,21.032c6.66,2.103,10.865,5.959,11.918,10.866c1.051,4.907,1.752,9.814,1.402,14.723c0,3.855,0,8.062,0,12.619
		c0,4.557,0.701,8.763,2.453,12.97c1.752,4.206,4.908,6.31,10.166,6.659c4.906,0.352,10.865-0.35,17.525-2.103
		c12.619-2.805,19.631,2.804,21.383,15.773c1.752,13.671-3.855,22.435-16.826,25.939c-7.01,2.104-16.475,3.155-28.393,3.155
		c-13.67-0.351-24.887-4.207-33.65-12.269c-8.414-8.063-12.619-19.279-12.619-34.002c0-7.361,0-12.97,0-16.124
		c0-3.155,0-4.908,0-4.908c0-0.351,0-1.051,0-2.103c0-1.402-0.352-2.454-1.053-3.506s-1.402-1.052-2.803,0l-53.982,50.477
		c-12.27,11.218-23.486,11.218-32.951,0c-7.01-11.217-6.66-21.382,2.104-30.496l83.777-73.962h-60.992
		c-12.971,0-19.629-6.66-19.629-19.63s6.658-19.63,19.629-19.63h98.5V776.46z M973.381,719.323c18.578-0.701,34-1.052,45.918-0.701
		c11.92,0.351,25.59,1.402,40.662,3.155c13.672,1.752,20.682,9.464,21.033,22.784c-0.352,13.32-7.361,18.578-21.033,15.773
		c-15.072-1.401-30.145-2.453-45.568-2.453c-15.424-0.351-25.939-0.351-31.197-0.701c-5.609-0.351-8.414-0.351-8.414,0
		c-11.918,0.351-18.227-5.608-18.227-18.228C956.555,727.035,962.514,720.375,973.381,719.323z"/>
</g>
</svg>
