<?xml version="1.0" encoding="utf-8"?>
<!-- Generator: Adobe Illustrator 16.0.3, SVG Export Plug-In . SVG Version: 6.00 Build 0)  -->
<!DOCTYPE svg PUBLIC "-//W3C//DTD SVG 1.1//EN" "http://www.w3.org/Graphics/SVG/1.1/DTD/svg11.dtd">
<svg version="1.1" id="Ebene_1" xmlns="http://www.w3.org/2000/svg" xmlns:xlink="http://www.w3.org/1999/xlink" x="0px" y="0px"
	 width="44.142px" height="57.998px" viewBox="828.896 396.268 44.142 57.998"
	 enable-background="new 828.896 396.268 44.142 57.998" xml:space="preserve">
<g id="XMLID_48_">
	<g id="XMLID_49_">
		<polygon id="XMLID_5_" points="871.038,411.41 857.18,425.267 871.038,439.123 857.895,452.266 831.039,425.267 857.895,398.268 
					"/>
		<path id="XMLID_2_" fill="#FFFFFF" d="M857.895,450.266l-25-24.999l25-24.999l11.143,11.143l-13.857,13.856l13.857,13.856
			L857.895,450.266 M857.895,454.266l2-2l11.143-11.143l2-2l-2-2l-11.857-11.856l11.857-11.856l2-2l-2-2l-11.143-11.143l-2-2l-2,2
			l-25,24.999l-2,2l2,2l25,24.999L857.895,454.266L857.895,454.266z"/>
	</g>
</g>
</svg>
