<?xml version="1.0" encoding="utf-8"?>
<!-- Generator: Adobe Illustrator 16.0.3, SVG Export Plug-In . SVG Version: 6.00 Build 0)  -->
<!DOCTYPE svg PUBLIC "-//W3C//DTD SVG 1.1//EN" "http://www.w3.org/Graphics/SVG/1.1/DTD/svg11.dtd">
<svg version="1.1" id="Ebene_1" xmlns="http://www.w3.org/2000/svg" xmlns:xlink="http://www.w3.org/1999/xlink" x="0px" y="0px"
	 width="44.141px" height="57.997px" viewBox="829.039 396.268 44.141 57.997"
	 enable-background="new 829.039 396.268 44.141 57.997" xml:space="preserve">
<g id="XMLID_48_">
	<g id="XMLID_49_">
		<polygon id="XMLID_5_" points="831.039,439.123 844.896,425.267 831.039,411.41 844.181,398.268 871.038,425.267 844.181,452.266 
					"/>
		<path id="XMLID_2_" fill="#FFFFFF" d="M844.181,400.268l25,24.999l-25,24.999l-11.142-11.143l13.856-13.856l-13.856-13.856
			L844.181,400.268 M844.181,396.268l-2,2l-11.142,11.143l-2,2l2,2l11.856,11.856l-11.856,11.856l-2,2l2,2l11.142,11.143l2,1.999
			l2-1.999l25-24.999l2-2l-2-2l-25-24.999L844.181,396.268L844.181,396.268z"/>
	</g>
</g>
</svg>
