<?xml version="1.0" encoding="utf-8"?>
<!-- Generator: Adobe Illustrator 16.0.3, SVG Export Plug-In . SVG Version: 6.00 Build 0)  -->
<!DOCTYPE svg PUBLIC "-//W3C//DTD SVG 1.1//EN" "http://www.w3.org/Graphics/SVG/1.1/DTD/svg11.dtd">
<svg version="1.1" id="Ebene_1" xmlns="http://www.w3.org/2000/svg" xmlns:xlink="http://www.w3.org/1999/xlink" x="0px" y="0px"
	 width="110.853px" height="186.706px" viewBox="849.467 373.555 110.853 186.706"
	 enable-background="new 849.467 373.555 110.853 186.706" xml:space="preserve">
<g id="XMLID_14_">
	<path id="XMLID_6_" fill="#FFFFFF" stroke="#010202" stroke-width="2" stroke-miterlimit="10" d="M918.891,559.261h-27.998
		c-22.285,0-40.426-18.285-40.426-40.427V414.981c0-22.285,18.284-40.427,40.426-40.427h27.998
		c22.285,0,40.428,18.285,40.428,40.427v103.853C959.461,540.976,941.176,559.261,918.891,559.261z"/>
	
		<line id="XMLID_8_" fill="none" stroke="#010202" stroke-width="3" stroke-miterlimit="10" x1="864.323" y1="466.551" x2="943.176" y2="466.551"/>
	<path id="XMLID_7_" fill="none" stroke="#010202" stroke-width="3" stroke-miterlimit="10" d="M864.323,434.838
		c0,0,11.143,4.714,40.713,4.714s38.283-4.714,38.283-4.714"/>
	<path id="XMLID_11_" fill="none" stroke="#010202" stroke-width="3" stroke-miterlimit="10" d="M944.461,498.406
		c0,0-11.143-4.714-40.711-4.714c-29.57,0-38.285,4.714-38.285,4.714"/>
</g>
</svg>
