<?xml version="1.0" encoding="utf-8"?>
<!-- Generator: Adobe Illustrator 16.0.3, SVG Export Plug-In . SVG Version: 6.00 Build 0)  -->
<!DOCTYPE svg PUBLIC "-//W3C//DTD SVG 1.1//EN" "http://www.w3.org/Graphics/SVG/1.1/DTD/svg11.dtd">
<svg version="1.1" id="Ebene_1" xmlns="http://www.w3.org/2000/svg" xmlns:xlink="http://www.w3.org/1999/xlink" x="0px" y="0px"
	 width="186.706px" height="110.853px" viewBox="737.043 381.125 186.706 110.853"
	 enable-background="new 737.043 381.125 186.706 110.853" xml:space="preserve">
<g id="XMLID_14_">
	<path id="XMLID_6_" fill="#FFFFFF" stroke="#010202" stroke-width="2" stroke-miterlimit="10" d="M922.749,422.553v27.998
		c0,22.285-18.285,40.427-40.426,40.427H778.47c-22.285,0-40.427-18.284-40.427-40.427v-27.998
		c0-22.285,18.285-40.427,40.427-40.427h103.853C904.463,381.982,922.749,400.268,922.749,422.553z"/>
	
		<line id="XMLID_8_" fill="none" stroke="#010202" stroke-width="3" stroke-miterlimit="10" x1="830.039" y1="477.121" x2="830.039" y2="398.268"/>
	<path id="XMLID_7_" fill="none" stroke="#010202" stroke-width="3" stroke-miterlimit="10" d="M798.183,477.121
		c0,0,4.715-11.143,4.715-40.712c0-29.57-4.715-38.284-4.715-38.284"/>
	<path id="XMLID_11_" fill="none" stroke="#010202" stroke-width="3" stroke-miterlimit="10" d="M861.752,396.982
		c0,0-4.715,11.142-4.715,40.712s4.715,38.284,4.715,38.284"/>
</g>
</svg>
