<?xml version="1.0" encoding="utf-8"?>
<!-- Generator: Adobe Illustrator 16.0.3, SVG Export Plug-In . SVG Version: 6.00 Build 0)  -->
<!DOCTYPE svg PUBLIC "-//W3C//DTD SVG 1.1//EN" "http://www.w3.org/Graphics/SVG/1.1/DTD/svg11.dtd">
<svg version="1.1" id="Ebene_1" xmlns="http://www.w3.org/2000/svg" xmlns:xlink="http://www.w3.org/1999/xlink" x="0px" y="0px"
	 width="1117.808px" height="847.477px" viewBox="0 0 1117.808 847.477" enable-background="new 0 0 1117.808 847.477"
	 xml:space="preserve">
<g id="XMLID_1_">
	<polygon id="XMLID_33_" fill="none" stroke="#020304" stroke-miterlimit="10" points="130.281,422.002 987.67,422.002 
		1097.523,530.854 1097.523,656.133 988.67,764.986 129.138,764.986 20.285,656.277 20.285,530.854 	"/>
	<path id="XMLID_41_" fill="#020304" d="M991.958,772.842H125.995L12.572,659.562V527.711l114.566-113.424h863.819l114.422,113.424
		V659.42L991.958,772.842z M132.423,757.129h852.961l104.281-104.281V534.139L984.384,429.858H133.567L28.142,534.139v118.853
		L132.423,757.129z"/>
</g>
<g id="XMLID_4_">
	
		<rect id="XMLID_40_" x="552.21" y="224.061" transform="matrix(0.003 1 -1 0.003 1267.8662 147.2906)" fill="#010202" width="15.715" height="970.822"/>
</g>
<g id="XMLID_5_">
	<polygon id="XMLID_39_" fill="#010202" points="183.85,827.269 180.708,827.269 123.709,770.557 134.709,759.415 187.135,811.555 
		930.959,811.555 983.099,759.415 994.243,770.557 937.529,827.269 	"/>
</g>
<g id="XMLID_3_">
	<rect id="XMLID_38_" x="20.285" y="648.277" fill="#010202" width="1077.238" height="15.714"/>
</g>
<g id="XMLID_7_">
	<path id="XMLID_35_" fill="#010202" d="M991.812,345.557h-863.96L13.429,232.133V128.995L126.852,15.572h865.96l113.424,113.28
		v103.281L991.812,345.557z M134.423,329.842h850.961l105.424-104.28v-90.281L986.527,31.143H133.423L29.142,135.424v90.139
		L134.423,329.842z"/>
</g>
<g id="XMLID_6_">
	<polygon id="XMLID_34_" fill="#010202" points="73.426,88.139 73.283,72.426 734.54,72.426 792.538,20.286 802.965,32 
		740.681,87.997 	"/>
</g>
<circle id="SGN001" fill="#FFFFFF" stroke="#020304" stroke-width="2" stroke-miterlimit="10" cx="460.068" cy="335.406" r="19.285"/>
<circle id="SGN002" fill="#FFFFFF" stroke="#020304" stroke-width="2" stroke-miterlimit="10" cx="660.068" cy="335.406" r="19.285"/>
<circle id="SGN003" fill="#FFFFFF" stroke="#020304" stroke-width="2" stroke-miterlimit="10" cx="390.068" cy="335.406" r="19.285"/>
<circle id="SGN004" fill="#FFFFFF" stroke="#020304" stroke-width="2" stroke-miterlimit="10" cx="730.068" cy="335.406" r="19.285"/>
<g id="XMLID_48_" class="arrow left">
	<g id="XMLID_49_">
		<polygon id="XMLID_11_" fill="#010202" points="786.619,349.264 800.476,335.409 786.619,321.551 799.761,308.409 
			826.619,335.409 799.761,362.406 		"/>
		<path id="XMLID_10_" fill="#FFFFFF" d="M799.761,310.409l25,25l-25,24.998l-11.143-11.142l13.855-13.855l-13.855-13.857
			L799.761,310.409 M799.761,306.409l-2,2l-11.143,11.143l-2,2l2,2l11.855,11.857l-11.855,11.855l-2,2l2,2l11.143,11.143l2,1.998
			l2-1.998l25-24.998l2-2l-2-2l-25-25L799.761,306.409L799.761,306.409z"/>
	</g>
</g>
<g id="XMLID_12_" class="arrow right">
	<g id="XMLID_13_">
		<polygon id="XMLID_15_" fill="#010202" points="335.496,321.549 321.638,335.404 335.496,349.262 322.353,362.404 
			295.496,335.404 322.353,308.406 		"/>
		<path id="XMLID_14_" fill="#FFFFFF" d="M322.353,360.404l-25-25l25-24.998l11.143,11.143l-13.855,13.855l13.855,13.857
			L322.353,360.404 M322.353,364.404l2-2l11.143-11.143l2-2l-2-2l-11.855-11.857l11.855-11.855l2-2l-2-2l-11.143-11.143l-2-1.998
			l-2,1.998l-25,24.998l-2,2l2,2l25,25L322.353,364.404L322.353,364.404z"/>
	</g>
</g>
<circle id="SGN005" fill="#FFFFFF" stroke="#020304" stroke-width="2" stroke-miterlimit="10" cx="660.068" cy="80.924" r="19.285"/>
<circle id="SGN006" fill="#FFFFFF" stroke="#020304" stroke-width="2" stroke-miterlimit="10" cx="660.068" cy="20.285" r="19.285"/>
<circle id="SGN007" fill="#FFFFFF" stroke="#020304" stroke-width="2" stroke-miterlimit="10" cx="460.068" cy="80.923" r="19.285"/>
<circle id="SGN008" fill="#FFFFFF" stroke="#020304" stroke-width="2" stroke-miterlimit="10" cx="437.997" cy="656.133" r="19.285"/>
<circle id="SGN009" fill="#FFFFFF" stroke="#020304" stroke-width="2" stroke-miterlimit="10" cx="637.998" cy="656.133" r="19.285"/>
<circle id="SGN010" fill="#FFFFFF" stroke="#020304" stroke-width="2" stroke-miterlimit="10" cx="367.997" cy="656.133" r="19.285"/>
<circle id="SGN011" fill="#FFFFFF" stroke="#020304" stroke-width="2" stroke-miterlimit="10" cx="707.998" cy="656.133" r="19.285"/>
<g id="XMLID_24_" class="arrow left">
	<g id="XMLID_25_">
		<polygon id="XMLID_27_" fill="#010202" points="764.548,669.991 778.406,656.135 764.548,642.278 777.691,629.135 
			804.548,656.135 777.691,683.133 		"/>
		<path id="XMLID_26_" fill="#FFFFFF" d="M777.691,631.135l25,25l-25,24.998l-11.143-11.143l13.855-13.855l-13.855-13.857
			L777.691,631.135 M777.691,627.135l-2,2l-11.143,11.143l-2,2l2,2l11.855,11.857l-11.855,11.855l-2,2l2,2l11.143,11.143l2,1.998
			l2-1.998l25-24.998l2-2l-2-2l-25-25L777.691,627.135L777.691,627.135z"/>
	</g>
</g>
<g id="XMLID_20_" class="arrow left">
	<g id="XMLID_21_">
		<polygon id="XMLID_23_" fill="#010202" points="313.425,642.276 299.567,656.131 313.425,669.989 300.282,683.131 
			273.425,656.131 300.282,629.133 		"/>
		<path id="XMLID_22_" fill="#FFFFFF" d="M300.282,681.131l-25-25l25-24.998l11.143,11.143l-13.855,13.855l13.855,13.857
			L300.282,681.131 M300.282,685.131l2-2l11.143-11.143l2-2l-2-2l-11.855-11.857l11.855-11.855l2-2l-2-2l-11.143-11.143l-2-1.998
			l-2,1.998l-25,24.998l-2,2l2,2l25,25L300.282,685.131L300.282,685.131z"/>
	</g>
</g>
<circle id="SGN012" fill="#FFFFFF" stroke="#020304" stroke-width="2" stroke-miterlimit="10" cx="437.997" cy="709.472" r="19.285"/>
<circle id="SGN013" fill="#FFFFFF" stroke="#020304" stroke-width="2" stroke-miterlimit="10" cx="637.998" cy="709.472" r="19.285"/>
<circle id="SGN014" fill="#FFFFFF" stroke="#020304" stroke-width="2" stroke-miterlimit="10" cx="367.997" cy="709.472" r="19.285"/>
<circle id="SGN015" fill="#FFFFFF" stroke="#020304" stroke-width="2" stroke-miterlimit="10" cx="707.998" cy="709.472" r="19.285"/>
<g id="XMLID_43_" class="arrow left">
	<g id="XMLID_44_">
		<polygon id="XMLID_46_" fill="#010202" points="764.548,723.33 778.406,709.474 764.548,695.617 777.691,682.474 804.548,709.474 
			777.691,736.472 		"/>
		<path id="XMLID_45_" fill="#FFFFFF" d="M777.691,684.474l25,25l-25,24.998l-11.143-11.143l13.855-13.855l-13.855-13.857
			L777.691,684.474 M777.691,680.474l-2,2l-11.143,11.143l-2,2l2,2l11.855,11.857l-11.855,11.855l-2,2l2,2l11.143,11.143l2,1.998
			l2-1.998l25-24.998l2-2l-2-2l-25-25L777.691,680.474L777.691,680.474z"/>
	</g>
</g>
<g id="XMLID_32_" class="arrow left">
	<g id="XMLID_36_">
		<polygon id="XMLID_42_" fill="#010202" points="313.425,695.615 299.567,709.47 313.425,723.328 300.282,736.47 273.425,709.47 
			300.282,682.472 		"/>
		<path id="XMLID_37_" fill="#FFFFFF" d="M300.282,734.47l-25-25l25-24.998l11.143,11.143l-13.855,13.855l13.855,13.857
			L300.282,734.47 M300.282,738.47l2-2l11.143-11.143l2-2l-2-2l-11.855-11.857l11.855-11.855l2-2l-2-2l-11.143-11.143l-2-1.998
			l-2,1.998l-25,24.998l-2,2l2,2l25,25L300.282,738.47L300.282,738.47z"/>
	</g>
</g>
<circle id="SGN016" fill="#FFFFFF" stroke="#020304" stroke-width="2" stroke-miterlimit="10" cx="437.997" cy="765.14" r="19.285"/>
<circle id="SGN017" fill="#FFFFFF" stroke="#020304" stroke-width="2" stroke-miterlimit="10" cx="637.998" cy="765.14" r="19.285"/>
<circle id="SGN018" fill="#FFFFFF" stroke="#020304" stroke-width="2" stroke-miterlimit="10" cx="367.997" cy="765.14" r="19.285"/>
<circle id="SGN019" fill="#FFFFFF" stroke="#020304" stroke-width="2" stroke-miterlimit="10" cx="707.998" cy="765.14" r="19.285"/>
<g id="XMLID_69_" class="arrow right">
	<g id="XMLID_70_">
		<polygon id="XMLID_72_" fill="#010202" points="764.548,778.998 778.406,765.142 764.548,751.285 777.691,738.142 
			804.548,765.142 777.691,792.14 		"/>
		<path id="XMLID_71_" fill="#FFFFFF" d="M777.691,740.142l25,25l-25,24.998l-11.143-11.143l13.855-13.855l-13.855-13.857
			L777.691,740.142 M777.691,736.142l-2,2l-11.143,11.143l-2,2l2,2l11.855,11.857l-11.855,11.855l-2,2l2,2l11.143,11.143l2,1.998
			l2-1.998l25-24.998l2-2l-2-2l-25-25L777.691,736.142L777.691,736.142z"/>
	</g>
</g>
<g id="XMLID_65_" class="arrow right">
	<g id="XMLID_66_">
		<polygon id="XMLID_68_" fill="#010202" points="313.425,751.283 299.567,765.138 313.425,778.996 300.282,792.138 
			273.425,765.138 300.282,738.14 		"/>
		<path id="XMLID_67_" fill="#FFFFFF" d="M300.282,790.138l-25-25l25-24.998l11.143,11.143l-13.855,13.855l13.855,13.857
			L300.282,790.138 M300.282,794.138l2-2l11.143-11.143l2-2l-2-2l-11.855-11.857l11.855-11.855l2-2l-2-2l-11.143-11.143l-2-1.998
			l-2,1.998l-25,24.998l-2,2l2,2l25,25L300.282,794.138L300.282,794.138z"/>
	</g>
</g>
<circle id="SGN020" fill="#FFFFFF" stroke="#020304" stroke-width="2" stroke-miterlimit="10" cx="437.997" cy="818.479" r="19.285"/>
<circle id="SGN021" fill="#FFFFFF" stroke="#020304" stroke-width="2" stroke-miterlimit="10" cx="637.998" cy="818.479" r="19.285"/>
<circle id="SGN022" fill="#FFFFFF" stroke="#020304" stroke-width="2" stroke-miterlimit="10" cx="367.997" cy="818.479" r="19.285"/>
<circle id="SGN023" fill="#FFFFFF" stroke="#020304" stroke-width="2" stroke-miterlimit="10" cx="707.998" cy="818.479" r="19.285"/>
<g id="XMLID_57_" class="arrow right">
	<g id="XMLID_58_">
		<polygon id="XMLID_60_" fill="#010202" points="764.548,832.336 778.406,818.481 764.548,804.624 777.691,791.481 
			804.548,818.481 777.691,845.479 		"/>
		<path id="XMLID_59_" fill="#FFFFFF" d="M777.691,793.481l25,25l-25,24.998l-11.143-11.143l13.855-13.855l-13.855-13.857
			L777.691,793.481 M777.691,789.481l-2,2l-11.143,11.143l-2,2l2,2l11.855,11.857l-11.855,11.855l-2,2l2,2l11.143,11.143l2,1.998
			l2-1.998l25-24.998l2-2l-2-2l-25-25L777.691,789.481L777.691,789.481z"/>
	</g>
</g>
<g id="XMLID_53_" class="arrow right">
	<g id="XMLID_54_">
		<polygon id="XMLID_56_" fill="#010202" points="313.425,804.622 299.567,818.477 313.425,832.334 300.282,845.477 
			273.425,818.477 300.282,791.479 		"/>
		<path id="XMLID_55_" fill="#FFFFFF" d="M300.282,843.477l-25-25l25-24.998l11.143,11.143l-13.855,13.855l13.855,13.857
			L300.282,843.477 M300.282,847.477l2-2l11.143-11.143l2-2l-2-2l-11.855-11.857l11.855-11.855l2-2l-2-2l-11.143-11.143l-2-1.998
			l-2,1.998l-25,24.998l-2,2l2,2l25,25L300.282,847.477L300.282,847.477z"/>
	</g>
</g>
<circle id="SGN024" fill="#FFFFFF" stroke="#020304" stroke-width="2" stroke-miterlimit="10" cx="20.285" cy="590.133" r="19.285"/>
<circle id="SGN025" fill="#FFFFFF" stroke="#020304" stroke-width="2" stroke-miterlimit="10" cx="1097.523" cy="590.133" r="19.285"/>
<circle id="SGN026" fill="#FFFFFF" stroke="#020304" stroke-width="2" stroke-miterlimit="10" cx="558.903" cy="422.002" r="19.285"/>
<g>
	<path fill="#039C88" d="M345.179,199.26c0-15.146,3.978-26.929,11.781-35.496c7.803-8.569,18.36-12.7,31.365-12.7
		c13.005,0,23.41,4.284,31.366,12.7c7.803,8.567,11.781,20.35,11.781,35.496c0,15.147-3.978,27.234-11.781,35.955
		c-7.957,8.875-18.361,13.158-31.213,13.158c-13.005,0-23.41-4.438-31.213-13.158C349.157,226.495,345.179,214.408,345.179,199.26z
		 M408.37,199.26c0-9.027-1.836-16.065-5.355-21.268c-3.52-5.202-8.415-7.65-14.688-7.65c-6.273,0-11.016,2.602-14.688,7.65
		c-3.52,5.202-5.355,12.24-5.355,21.268c0,9.18,1.836,16.523,5.355,21.879c3.519,5.355,8.415,7.957,14.688,7.957
		c6.273,0,11.17-2.754,14.688-8.109C406.533,215.631,408.37,208.288,408.37,199.26z"/>
	<path fill="#039C88" d="M472.783,248.375c-6.732,0-12.852-3.06-18.36-9.18c-0.153-0.153-0.306-0.153-0.459-0.153
		s-0.306,0.153-0.306,0.306l-0.153,0.459c-0.459,1.989-1.53,3.672-3.213,5.049c-1.53,1.224-3.366,1.989-5.508,1.989h-1.683
		c-2.448,0-4.59-0.918-6.273-2.602c-1.683-1.683-2.601-3.824-2.601-6.119v-81.398c0-2.907,1.071-5.508,3.213-7.65
		c2.142-2.142,4.59-3.213,7.65-3.213h0.918c2.907,0,5.508,1.071,7.65,3.213c2.142,2.142,3.213,4.591,3.213,7.65v13.464l-0.459,9.486
		c0,0.306,0.153,0.459,0.306,0.611s0.459,0.153,0.612,0c5.508-4.59,11.322-6.885,17.596-6.885c8.568,0,15.453,3.365,20.656,9.945
		c5.049,6.578,7.65,15.453,7.65,26.469c0,5.968-0.918,11.476-2.601,16.524s-3.978,9.181-6.732,12.394
		c-2.907,3.213-6.12,5.662-9.639,7.497C480.281,247.61,476.609,248.375,472.783,248.375z M467.428,230.014
		c3.672,0,6.732-1.684,8.874-4.896c2.296-3.213,3.366-8.415,3.366-15.147c0-6.272-0.918-11.017-2.907-14.075
		c-1.836-3.061-4.743-4.592-8.721-4.592c-3.672,0-7.191,1.684-10.558,5.203c-0.612,0.611-0.918,1.377-0.918,2.295v25.857
		c0,0.765,0.306,1.529,0.918,1.988C460.543,228.943,463.756,230.014,467.428,230.014z"/>
	<path fill="#039C88" d="M537.198,248.375c-10.557,0-19.278-3.366-26.163-10.099s-10.251-15.912-10.251-27.541
		c0-5.66,0.918-10.862,2.907-15.759c1.989-4.742,4.438-8.874,7.65-11.935c3.213-3.213,6.732-5.66,10.863-7.344
		c4.131-1.682,8.262-2.601,12.7-2.601c9.945,0,17.442,3.06,22.644,9.333c5.355,6.426,8.109,14.535,8.109,24.48
		c0,2.907-1.224,5.355-3.519,7.344s-5.05,2.907-8.263,2.907h-30.294c-0.306,0-0.612,0.153-0.765,0.459
		c-0.153,0.306-0.306,0.612-0.153,0.765c2.295,8.416,8.109,12.7,17.596,12.7c2.754,0,5.508-0.46,8.262-1.378
		c0.917-0.306,1.989-0.459,3.213-0.459c0.917,0,1.835,0.153,2.906,0.307c1.989,0.611,3.672,1.836,4.743,3.672
		c0.612,1.377,0.918,2.602,0.918,4.131c0,1.377-0.306,2.602-0.918,3.826c-0.765,1.224-1.683,2.141-2.907,2.754
		C550.05,246.997,543.624,248.375,537.198,248.375z M522.356,201.862c0,0.152,0.153,0.306,0.306,0.611s0.459,0.306,0.765,0.306
		h21.88c0.306,0,0.612-0.153,0.918-0.306c0.153-0.306,0.305-0.459,0.305-0.918c-0.153-3.52-1.224-6.273-3.061-8.263
		c-1.835-1.989-4.59-3.06-8.262-3.06c-3.06,0-5.813,0.918-8.109,2.906C523.887,195.742,522.356,198.649,522.356,201.862z"/>
	<path fill="#039C88" d="M578.049,246.691c-2.907,0-5.508-1.071-7.649-3.213c-2.143-2.142-3.214-4.591-3.214-7.649v-51.869
		c0-2.601,0.919-4.742,2.602-6.578c1.836-1.836,3.978-2.755,6.427-2.755h0.917c2.448,0,4.438,0.766,6.273,2.296
		c1.836,1.529,2.907,3.52,3.214,5.813l0.152,0.612c0,0.152,0.153,0.306,0.307,0.306c0.152,0,0.306,0,0.458-0.153
		c7.192-7.038,14.842-10.558,22.798-10.558c7.497,0,13.158,2.601,16.83,7.65c3.672,5.049,5.508,12.24,5.508,21.573v33.66
		c0,2.907-1.07,5.509-3.213,7.65c-2.142,2.143-4.59,3.213-7.649,3.213h-0.919c-2.906,0-5.508-1.07-7.649-3.213
		c-2.142-2.142-3.213-4.59-3.213-7.65V204.92c0-4.743-0.612-8.109-1.989-9.945s-3.52-2.754-6.427-2.754
		c-2.295,0-4.131,0.459-5.813,1.225c-1.683,0.918-3.672,2.295-5.813,4.283c-0.612,0.612-0.919,1.225-0.919,2.143v35.955
		c0,2.907-1.071,5.508-3.213,7.65c-2.142,2.141-4.59,3.213-7.649,3.213L578.049,246.691L578.049,246.691z"/>
	<path fill="#039C88" d="M657.764,187.938c3.519-1.683,8.262-3.213,14.076-4.438c5.813-1.376,12.087-2.142,18.666-2.142
		c6.731,0,12.853,0.919,18.513,2.907c5.662,1.989,10.252,5.202,13.465,9.793c3.366,4.59,5.05,9.944,5.05,16.064
		c-0.153,8.263-2.448,15.607-6.732,22.033s-11.476,11.322-21.269,14.535c-9.791,3.213-18.665,4.896-26.774,4.896
		c-5.049,0-7.65-2.907-7.65-8.721c0.153-5.814,2.755-8.875,8.109-9.181c6.272,0,12.7-1.071,19.126-3.366s10.862-5.049,13.157-8.568
		c2.296-3.52,3.214-7.497,3.061-12.086c0-3.367-1.225-5.968-3.672-7.957c-2.448-1.989-7.345-2.906-14.688-3.061
		c-3.978,0.154-8.109,0.612-12.547,1.684c-4.436,1.07-9.944,2.447-16.677,4.437c-4.59,1.837-7.649-0.153-9.333-5.967
		C650.878,193.905,652.868,190.234,657.764,187.938z M668.626,154.737c8.109-0.306,14.842-0.459,20.044-0.306
		c5.202,0.153,12.24,0.611,20.655,1.377c5.968,0.765,9.027,4.131,9.18,9.945c-0.152,6.12-3.212,8.568-9.18,7.344
		c-8.568-0.918-15.453-1.53-20.655-1.683c-8.109,0-13.464,0-15.759,0.153c-2.448,0.152-3.672,0.152-3.672,0.306
		c-5.203,0.153-7.957-2.601-7.957-8.568C661.283,157.95,663.884,155.042,668.626,154.737z"/>
	<path fill="#039C88" d="M785.215,178.605c5.814,0,9.485,2.295,11.017,7.038c1.529,4.591,0.152,8.721-4.438,12.24l-9.18,9.181
		c2.906,0.917,4.742,2.601,5.201,4.743c0.459,2.141,0.766,4.283,0.612,6.426c0,1.683,0,3.52,0,5.508
		c0,1.989,0.306,3.825,1.071,5.661c0.765,1.836,2.143,2.755,4.438,2.907c2.141,0.153,4.742-0.152,7.649-0.918
		c5.508-1.225,8.568,1.224,9.333,6.885c0.765,5.967-1.683,9.793-7.345,11.322c-3.06,0.918-7.19,1.377-12.393,1.377
		c-5.967-0.153-10.863-1.837-14.688-5.355c-3.672-3.52-5.508-8.415-5.508-14.842c0-3.213,0-5.661,0-7.037c0-1.378,0-2.143,0-2.143
		c0-0.154,0-0.459,0-0.918c0-0.612-0.153-1.071-0.459-1.531c-0.307-0.459-0.612-0.459-1.224,0l-23.563,22.033
		c-5.355,4.896-10.252,4.896-14.383,0c-3.06-4.896-2.907-9.333,0.918-13.311l36.567-32.284h-26.621
		c-5.662,0-8.568-2.907-8.568-8.568s2.906-8.567,8.568-8.567h42.993V178.605z M749.872,153.666
		c8.109-0.306,14.841-0.459,20.043-0.306s11.169,0.612,17.748,1.377c5.968,0.765,9.027,4.131,9.181,9.944
		c-0.153,5.814-3.213,8.109-9.181,6.885c-6.579-0.61-13.157-1.07-19.89-1.07c-6.732-0.153-11.322-0.153-13.617-0.306
		c-2.448-0.153-3.672-0.153-3.672,0c-5.203,0.152-7.957-2.448-7.957-7.957C742.527,157.032,745.128,154.125,749.872,153.666z"/>
</g>
<g>
	<path fill="#039C88" d="M361.078,577.957c-12.699,0-22.186-3.672-28.611-11.169c-6.427-7.497-9.639-18.973-9.639-34.731v-39.169
		c0-2.907,1.071-5.508,3.213-7.649c2.142-2.143,4.59-3.213,7.65-3.213h0.918c2.907,0,5.508,1.071,7.651,3.213
		c2.142,2.142,3.213,4.59,3.213,7.649v41.617c0,8.721,1.224,14.994,3.826,18.667c2.601,3.672,6.426,5.507,11.781,5.507
		s9.333-1.835,11.934-5.661s3.979-9.945,3.979-18.513v-41.464c0-2.907,1.071-5.508,3.213-7.65c2.142-2.142,4.59-3.213,7.65-3.213
		h0.306c2.907,0,5.508,1.071,7.65,3.213c2.142,2.142,3.213,4.59,3.213,7.65v39.169c0,15.758-3.061,27.234-9.333,34.731
		C383.263,574.285,373.777,577.957,361.078,577.957z"/>
	<path fill="#039C88" d="M416.159,576.274c-2.907,0-5.508-1.071-7.65-3.213c-2.143-2.141-3.213-4.59-3.213-7.649v-51.868
		c0-2.601,0.917-4.743,2.601-6.579c1.836-1.836,3.978-2.754,6.426-2.754h0.918c2.448,0,4.438,0.765,6.273,2.295
		c1.836,1.53,2.907,3.519,3.213,5.814l0.153,0.612c0,0.153,0.153,0.306,0.306,0.306s0.306,0,0.458-0.154
		c7.191-7.038,14.841-10.557,22.797-10.557c7.498,0,13.159,2.601,16.83,7.65c3.672,5.049,5.508,12.24,5.508,21.573v33.661
		c0,2.907-1.071,5.508-3.213,7.65c-2.143,2.142-4.59,3.213-7.65,3.213H459c-2.907,0-5.508-1.071-7.65-3.213
		c-2.142-2.142-3.213-4.59-3.213-7.65v-30.907c0-4.744-0.612-8.109-1.989-9.945s-3.519-2.754-6.426-2.754
		c-2.295,0-4.131,0.459-5.814,1.224c-1.683,0.918-3.672,2.295-5.813,4.284c-0.612,0.611-0.918,1.224-0.918,2.141v35.956
		c0,2.907-1.071,5.508-3.213,7.651c-2.142,2.141-4.59,3.213-7.65,3.213L416.159,576.274L416.159,576.274z"/>
	<path fill="#039C88" d="M504.135,577.957c-8.721,0-15.147-2.447-19.278-7.497c-4.131-5.049-6.12-11.934-6.12-20.96v-26.623
		c0-0.612-0.306-0.919-0.918-0.919h-0.306c-2.295,0-4.284-0.765-5.967-2.447c-1.683-1.683-2.448-3.672-2.448-5.967
		c0-2.448,0.765-4.438,2.448-6.12c1.53-1.684,3.672-2.602,5.967-2.907l1.53-0.153c0.765-0.153,1.224-0.459,1.377-1.225l1.071-8.568
		c0.306-2.601,1.53-4.896,3.52-6.578c1.989-1.836,4.437-2.601,7.039-2.601c2.601,0,4.743,0.917,6.579,2.754s2.754,3.978,2.754,6.732
		v8.262c0,0.766,0.459,1.225,1.224,1.225h6.886c2.447,0,4.437,0.918,6.12,2.602c1.683,1.682,2.601,3.825,2.601,6.273
		c0,2.448-0.918,4.438-2.601,6.273c-1.683,1.836-3.825,2.601-6.12,2.601h-6.886c-0.765,0-1.224,0.459-1.224,1.224v26.164
		c0,6.732,2.448,10.25,7.497,11.015c2.448,0.306,4.59,1.072,6.426,2.296c1.836,1.224,2.907,2.753,3.367,4.743
		c0.153,0.765,0.306,1.376,0.306,2.142c0,1.529-0.46,3.06-1.377,4.437c-1.224,1.99-2.907,3.213-5.202,3.52
		C509.643,577.804,506.889,577.957,504.135,577.957z"/>
	<path fill="#039C88" d="M551.872,577.957c-10.557,0-19.278-3.366-26.164-10.098c-6.885-6.732-10.251-15.913-10.251-27.541
		c0-5.661,0.918-10.864,2.907-15.76c1.989-4.743,4.437-8.874,7.649-11.933c3.213-3.213,6.733-5.662,10.864-7.345
		c4.131-1.836,8.262-2.601,12.699-2.601c9.945,0,17.441,3.061,22.645,9.333c5.355,6.426,8.109,14.535,8.109,24.481
		c0,2.906-1.225,5.354-3.52,7.343c-2.295,1.99-5.049,2.907-8.263,2.907h-30.294c-0.306,0-0.612,0.153-0.765,0.458
		c-0.153,0.306-0.306,0.612-0.153,0.766c2.295,8.415,8.109,12.699,17.596,12.699c2.755,0,5.508-0.459,8.263-1.376
		c0.918-0.306,1.988-0.459,3.213-0.459c0.918,0,1.836,0.153,2.906,0.306c1.99,0.611,3.672,1.835,4.744,3.672
		c0.611,1.377,0.918,2.601,0.918,4.131c0,1.376-0.306,2.601-0.918,3.825c-0.766,1.223-1.684,2.142-2.908,2.753
		C564.571,576.58,558.298,577.957,551.872,577.957z M536.877,531.444c0,0.153,0.153,0.306,0.306,0.611
		c0.153,0.306,0.459,0.306,0.765,0.306h22.032c0.307,0,0.612-0.152,0.919-0.306c0.152-0.305,0.305-0.458,0.305-0.918
		c-0.152-3.519-1.224-6.273-3.06-8.262c-1.836-1.99-4.59-3.061-8.262-3.061c-3.061,0-5.814,0.918-8.109,2.907
		C538.561,525.324,536.877,528.231,536.877,531.444z"/>
	<path fill="#039C88" d="M592.724,576.274c-2.907,0-5.508-1.071-7.65-3.213c-2.142-2.141-3.213-4.59-3.213-7.649v-51.868
		c0-2.601,0.919-4.743,2.602-6.579c1.836-1.836,3.978-2.754,6.426-2.754h0.918c2.449,0,4.438,0.765,6.273,2.295
		s2.907,3.519,3.213,5.814l0.153,0.612c0,0.153,0.153,0.306,0.306,0.306c0.153,0,0.307,0,0.459-0.154
		c7.191-7.038,14.842-10.557,22.798-10.557c7.497,0,13.158,2.601,16.83,7.65c3.673,5.049,5.508,12.24,5.508,21.573v33.661
		c0,2.907-1.07,5.508-3.213,7.65c-2.142,2.142-4.59,3.213-7.649,3.213h-0.919c-2.907,0-5.508-1.071-7.649-3.213
		c-2.142-2.142-3.213-4.59-3.213-7.65v-30.907c0-4.744-0.611-8.109-1.989-9.945c-1.377-1.836-3.52-2.754-6.426-2.754
		c-2.296,0-4.132,0.459-5.813,1.224c-1.684,0.918-3.673,2.295-5.814,4.284c-0.612,0.611-0.919,1.224-0.919,2.141v35.956
		c0,2.907-1.071,5.508-3.213,7.651c-2.142,2.141-4.59,3.213-7.649,3.213L592.724,576.274L592.724,576.274z"/>
	<path fill="#039C88" d="M690.187,548.581c0,4.896,0.765,8.415,2.447,10.71c1.53,2.295,4.131,3.519,7.497,3.824
		c4.284,0,8.874-1.071,13.771-3.212c4.743-2.142,11.016-5.508,18.667-10.251c4.437-3.213,8.415-2.753,11.78,1.53
		c3.061,4.896,2.448,9.486-1.989,13.771c-3.825,2.907-7.803,5.661-12.086,8.262c-4.284,2.448-9.028,4.743-14.383,6.578
		c-5.355,1.836-11.017,2.907-16.831,3.061c-9.639-0.153-16.523-2.907-20.808-8.415c-4.284-5.508-6.427-13.005-6.427-22.797v-62.732
		c0-6.12,3.061-9.18,9.181-9.18s9.18,3.061,9.18,9.18L690.187,548.581L690.187,548.581z"/>
	<path fill="#039C88" d="M756.284,494.265h8.263c0.458-4.437,0.765-6.732,0.765-6.732c0.612-5.354,3.825-8.108,9.485-7.956
		c5.355,0.611,7.804,3.213,7.497,7.956l-0.612,6.732h8.722c5.813,0,8.721,2.907,8.721,8.721c0,5.814-2.907,8.721-8.721,8.721
		h-10.558c-1.836,14.076-3.672,26.316-5.813,36.567c-1.989,10.251-3.978,18.819-5.661,26.01c-1.53,5.202-5.203,7.344-10.863,6.427
		c-6.12-1.225-8.263-4.744-6.426-10.864c1.529-5.202,3.519-13.771,5.813-25.705c2.295-11.933,4.131-22.797,5.508-32.437h-6.12
		c-5.813,0-8.721-2.907-8.721-8.721C747.41,497.172,750.317,494.265,756.284,494.265z M783.06,544.755
		c1.988-4.131,5.354-5.661,9.944-4.437c4.896,2.295,6.273,5.202,4.438,8.875c-0.765,1.682-0.919,4.283-0.765,7.649
		c0.306,3.52,4.131,5.355,11.628,5.355c4.591,0,10.099-0.153,16.677-0.459c5.356,0.154,8.109,3.367,8.568,9.64
		c-0.153,5.967-3.061,9.18-8.568,9.333c-9.027,0.306-16.371,0.306-22.032,0c-5.968-0.306-10.71-1.53-14.229-3.673
		c-3.52-2.142-5.814-4.896-7.344-7.957c-1.377-3.212-2.143-6.426-2.143-9.945C779.386,554.242,780.611,549.499,783.06,544.755z
		 M822.84,509.871c5.048,0.153,7.649,2.907,7.649,8.569c-0.152,5.661-2.602,8.415-7.345,8.568
		c-10.862,0.306-18.972,0.458-24.174,0.612c-5.049,0.458-7.497-2.448-7.345-8.415c0.307-5.202,2.296-8.109,6.274-8.569
		C804.326,510.331,812.589,510.024,822.84,509.871z"/>
</g>
</svg>
