<?xml version="1.0" encoding="utf-8"?>
<!-- Generator: Adobe Illustrator 16.0.3, SVG Export Plug-In . SVG Version: 6.00 Build 0)  -->
<!DOCTYPE svg PUBLIC "-//W3C//DTD SVG 1.1//EN" "http://www.w3.org/Graphics/SVG/1.1/DTD/svg11.dtd">
<svg version="1.1" id="Ebene_1" xmlns="http://www.w3.org/2000/svg" xmlns:xlink="http://www.w3.org/1999/xlink" x="0px" y="0px"
	 width="1092.807px" height="412.981px" viewBox="304.063 218.133 1092.807 412.981"
	 enable-background="new 304.063 218.133 1092.807 412.981" xml:space="preserve">
<g id="XMLID_1_">
	<polygon id="XMLID_33_" fill="none" stroke="#010202" stroke-miterlimit="10" points="421.771,225.847 1279.161,225.847 
		1389.014,334.699 1389.014,459.979 1280.161,568.831 420.629,568.831 311.776,460.122 311.776,334.699 	"/>
	<path id="XMLID_41_" fill="#010202" d="M1283.448,576.688H417.486L304.063,463.407V331.557l114.566-113.424h863.819
		l114.422,113.424v131.708L1283.448,576.688z M423.914,560.975h852.961l104.281-104.281V337.984l-105.281-104.281H425.058
		L319.633,337.984v118.853L423.914,560.975z"/>
</g>
<g id="XMLID_4_">
	
		<rect id="XMLID_40_" x="843.714" y="27.921" transform="matrix(-0.003 -1 1 -0.003 340.7831 1366.4281)" width="15.714" height="970.817"/>
</g>
<g id="XMLID_5_">
	<polygon id="XMLID_39_" points="475.341,631.114 472.198,631.114 415.2,574.402 426.2,563.26 478.626,615.4 1222.45,615.4 
		1274.59,563.26 1285.733,574.402 1229.02,631.114 	"/>
</g>
<g id="XMLID_3_">
	<rect id="XMLID_38_" x="311.776" y="452.122" width="1077.238" height="15.714"/>
</g>
</svg>
