<?xml version="1.0" encoding="utf-8"?>
<!-- Generator: Adobe Illustrator 16.0.3, SVG Export Plug-In . SVG Version: 6.00 Build 0)  -->
<!DOCTYPE svg PUBLIC "-//W3C//DTD SVG 1.1//EN" "http://www.w3.org/Graphics/SVG/1.1/DTD/svg11.dtd">
<svg version="1.1"
	 id="svg5121" xmlns:rdf="http://www.w3.org/1999/02/22-rdf-syntax-ns#" xmlns:svg="http://www.w3.org/2000/svg" xmlns:cc="http://creativecommons.org/ns#" xmlns:dc="http://purl.org/dc/elements/1.1/"
	 xmlns="http://www.w3.org/2000/svg" xmlns:xlink="http://www.w3.org/1999/xlink" x="0px" y="0px" width="1189.288px"
	 height="373.698px" viewBox="1.386 0 1189.288 373.698" enable-background="new 1.386 0 1189.288 373.698" xml:space="preserve">
<g>
	<g id="layer1" transform="translate(-305.15304,-478.05534)">
		<path id="path3364_2_" fill="#009B87" d="M432.029,742.005v-85.529V539.399h-125.49v-61.343h378.925
			c45.219,0,53.631,64.849,53.631,81.323c0,15.774-7.361,86.932-49.775,86.932h-26.29l76.065,95.695h-85.529L529.827,586.37h128.645
			c14.723,0,15.424-20.331,15.424-24.888c0-4.207-0.701-22.435-15.073-22.435H499.331v116.728v85.88"/>
	</g>
	<line fill="none" x1="425.365" y1="365.448" x2="565.928" y2="365.448"/>
	<g enable-background="new    ">
		<path fill="#009B87" d="M513.08,136.161c-2.934,0-5.392-1.011-7.372-3.032c-1.982-2.021-2.973-4.459-2.973-7.313V64.818
			c0-0.792-0.397-1.189-1.189-1.189h-14.387c-2.458,0-4.56-0.892-6.303-2.675c-1.744-1.783-2.615-3.903-2.615-6.361
			c0-2.456,0.871-4.578,2.615-6.361c1.743-1.784,3.845-2.675,6.303-2.675h52.912c2.456,0,4.578,0.892,6.361,2.675
			c1.784,1.784,2.676,3.905,2.676,6.361c0,2.458-0.892,4.578-2.676,6.361c-1.783,1.784-3.905,2.675-6.361,2.675h-14.388
			c-0.793,0-1.188,0.398-1.188,1.189v60.998c0,2.854-1.011,5.291-3.032,7.313s-4.459,3.032-7.313,3.032H513.08z"/>
		<path fill="#009B87" d="M568.767,57.208c-3.646,0-6.64-1.029-8.978-3.092c-2.339-2.061-3.507-4.715-3.507-7.967
			c0-3.249,1.168-5.925,3.507-8.026c2.338-2.1,5.331-3.151,8.978-3.151c3.567,0,6.499,1.051,8.799,3.151
			c2.299,2.101,3.448,4.777,3.448,8.026c0,3.251-1.149,5.906-3.448,7.967C575.266,56.179,572.334,57.208,568.767,57.208z
			 M568.291,136.161c-2.854,0-5.291-1.011-7.313-3.032s-3.032-4.459-3.032-7.313V77.184c0-2.854,1.011-5.291,3.032-7.313
			s4.459-3.032,7.313-3.032h0.832c2.854,0,5.292,1.011,7.313,3.032s3.031,4.459,3.031,7.313v48.632c0,2.854-1.01,5.291-3.031,7.313
			s-4.459,3.032-7.313,3.032H568.291z"/>
		<path fill="#009B87" d="M613.276,137.826c-7.057,0-12.109-2.1-15.16-6.303c-3.053-4.2-4.578-10.146-4.578-17.835V49.242
			c0-2.854,1.011-5.292,3.032-7.313c2.021-2.021,4.459-3.032,7.313-3.032h0.832c2.854,0,5.292,1.011,7.313,3.032
			c2.021,2.021,3.031,4.458,3.031,7.313v65.279c0,2.695,0.753,4.479,2.26,5.351c0.078,0.08,0.455,0.297,1.13,0.654
			c0.672,0.356,1.108,0.614,1.308,0.772c0.197,0.16,0.515,0.397,0.951,0.714c0.435,0.317,0.752,0.653,0.951,1.011
			c0.197,0.356,0.336,0.772,0.416,1.248l0.595,3.805c0.078,0.556,0.119,1.111,0.119,1.665c0,1.744-0.476,3.37-1.427,4.875
			c-1.27,1.902-3.014,2.932-5.232,3.092C615.179,137.785,614.228,137.826,613.276,137.826z"/>
		<path fill="#009B87" d="M660.521,137.826c-4.44,0-8.7-0.833-12.782-2.497c-4.084-1.665-7.71-4.002-10.88-7.016
			c-3.171-3.012-5.688-6.837-7.551-11.475c-1.863-4.637-2.794-9.729-2.794-15.279c0-5.547,0.931-10.66,2.794-15.338
			c1.862-4.676,4.38-8.521,7.551-11.534c3.17-3.012,6.796-5.351,10.88-7.016c4.082-1.665,8.342-2.497,12.782-2.497
			c4.358,0,8.562,0.833,12.604,2.497c4.043,1.665,7.649,4.004,10.821,7.016c3.169,3.013,5.687,6.857,7.55,11.534
			c1.861,4.678,2.795,9.791,2.795,15.338c0,5.55-0.934,10.643-2.795,15.279c-1.863,4.638-4.381,8.463-7.55,11.475
			c-3.172,3.014-6.778,5.351-10.821,7.016C669.082,136.993,664.879,137.826,660.521,137.826z M660.521,120.347
			c3.883,0,6.796-1.645,8.739-4.935c1.941-3.288,2.913-7.907,2.913-13.853c0-5.945-0.972-10.583-2.913-13.912
			c-1.943-3.33-4.856-4.994-8.739-4.994c-3.965,0-6.938,1.665-8.918,4.994c-1.982,3.329-2.973,7.967-2.973,13.912
			c0,5.945,0.99,10.564,2.973,13.853C653.583,118.702,656.556,120.347,660.521,120.347z"/>
		<path fill="#009B87" d="M798.885,127.124c0.554,1.031,0.833,2.021,0.833,2.973c0,1.031-0.318,2.063-0.952,3.092
			c-1.11,1.982-2.814,2.973-5.112,2.973h-3.687c-3.171,0-6.123-0.832-8.858-2.497c-2.734-1.665-4.856-3.883-6.361-6.658
			l-11.296-21.641c-0.397-0.714-0.992-1.07-1.783-1.07h-8.086c-0.793,0-1.188,0.397-1.188,1.188v20.333
			c0,2.854-1.011,5.291-3.032,7.313s-4.459,3.032-7.313,3.032h-1.07c-2.854,0-5.291-1.011-7.313-3.032s-3.032-4.459-3.032-7.313
			V55.9c0-2.854,1.011-5.292,3.032-7.313c2.021-2.021,4.459-3.032,7.313-3.032h22.948c23.621,0,35.434,9.512,35.434,28.537
			c0,12.128-4.875,20.689-14.625,25.684c-0.636,0.317-0.793,0.832-0.476,1.546L798.885,127.124z M753.582,62.797
			c-0.793,0-1.188,0.397-1.188,1.189v21.878c0,0.793,0.396,1.189,1.188,1.189h8.562c5.231,0,9.174-1.088,11.831-3.27
			c2.654-2.18,3.983-5.41,3.983-9.691c0-4.121-1.29-7.034-3.864-8.74c-2.577-1.704-6.561-2.556-11.95-2.556H753.582z"/>
		<path fill="#009B87" d="M829.126,137.826c-6.184,0-11.159-2.021-14.923-6.064c-3.766-4.043-5.648-9.037-5.648-14.982
			c0-7.212,2.973-12.86,8.918-16.943c5.945-4.082,15.417-6.876,28.419-8.383c0.791-0.078,1.108-0.515,0.951-1.308
			c-0.794-5.152-4.203-7.729-10.227-7.729c-3.329,0-6.976,0.833-10.938,2.497c-1.189,0.556-2.379,0.833-3.567,0.833
			c-0.873,0-1.783-0.158-2.735-0.476c-2.14-0.634-3.727-1.903-4.756-3.805c-0.636-1.267-0.951-2.575-0.951-3.924
			c0-0.792,0.119-1.585,0.356-2.378c0.634-2.141,1.941-3.686,3.924-4.638c7.688-3.567,15.259-5.351,22.711-5.351
			c18.707,0,28.061,10.543,28.061,31.629v30.559c0,2.458-0.873,4.539-2.615,6.242c-1.744,1.706-3.806,2.557-6.183,2.557h-2.498
			c-1.824,0-3.469-0.574-4.934-1.725c-1.469-1.147-2.399-2.634-2.794-4.458l-0.119-0.476c-0.08-0.158-0.198-0.238-0.356-0.238
			c-0.16,0-0.279,0.041-0.356,0.119C842.443,135.013,835.862,137.826,829.126,137.826z M836.616,121.061
			c3.33,0,6.54-1.546,9.632-4.638c0.554-0.554,0.832-1.228,0.832-2.021v-8.68c0-0.316-0.119-0.595-0.356-0.833
			c-0.238-0.157-0.476-0.237-0.714-0.237h-0.118c-11.178,1.665-16.766,5.153-16.766,10.464c0,1.982,0.653,3.469,1.962,4.459
			C832.396,120.566,834.238,121.061,836.616,121.061z"/>
		<path fill="#009B87" d="M892.779,57.208c-3.646,0-6.641-1.029-8.979-3.092c-2.338-2.061-3.506-4.715-3.506-7.967
			c0-3.249,1.168-5.925,3.506-8.026c2.338-2.1,5.332-3.151,8.979-3.151c3.566,0,6.498,1.051,8.799,3.151
			c2.299,2.101,3.447,4.777,3.447,8.026c0,3.251-1.148,5.906-3.447,7.967C899.277,56.179,896.345,57.208,892.779,57.208z
			 M892.302,136.161c-2.854,0-5.291-1.011-7.313-3.032s-3.031-4.459-3.031-7.313V77.184c0-2.854,1.01-5.291,3.031-7.313
			s4.459-3.032,7.313-3.032h0.832c2.855,0,5.293,1.011,7.314,3.032s3.031,4.459,3.031,7.313v48.632c0,2.854-1.01,5.291-3.031,7.313
			s-4.459,3.032-7.314,3.032H892.302z"/>
		<path fill="#009B87" d="M937.289,137.826c-7.057,0-12.109-2.1-15.16-6.303c-3.053-4.2-4.578-10.146-4.578-17.835V49.242
			c0-2.854,1.01-5.292,3.031-7.313c2.021-2.021,4.459-3.032,7.313-3.032h0.832c2.855,0,5.293,1.011,7.314,3.032
			c2.021,2.021,3.031,4.458,3.031,7.313v65.279c0,2.695,0.752,4.479,2.26,5.351c0.078,0.08,0.455,0.297,1.129,0.654
			c0.672,0.356,1.109,0.614,1.309,0.772c0.197,0.16,0.514,0.397,0.951,0.714c0.434,0.317,0.752,0.653,0.951,1.011
			c0.197,0.356,0.336,0.772,0.416,1.248l0.594,3.805c0.078,0.556,0.119,1.111,0.119,1.665c0,1.744-0.475,3.37-1.426,4.875
			c-1.27,1.902-3.014,2.932-5.232,3.092C939.191,137.785,938.24,137.826,937.289,137.826z"/>
		<path fill="#009B87" d="M976.447,136.161c-3.014,0-5.729-0.931-8.145-2.794c-2.42-1.862-3.984-4.261-4.697-7.194l-12.129-49.227
			c-0.158-0.713-0.236-1.427-0.236-2.14c0-1.743,0.594-3.368,1.783-4.875c1.584-2.061,3.725-3.092,6.42-3.092h0.715
			c3.01,0,5.686,0.972,8.025,2.914c2.338,1.943,3.785,4.381,4.34,7.313l4.162,20.809c0.395,2.378,0.891,5.826,1.486,10.345
			c0.594,4.519,1.049,7.889,1.367,10.106c0.078,0.238,0.217,0.356,0.416,0.356c0.197,0,0.297-0.118,0.297-0.356
			c1.822-10.226,3.17-17.042,4.043-20.451l4.994-21.879c0.553-2.616,1.902-4.795,4.043-6.54c2.141-1.743,4.578-2.616,7.313-2.616
			s5.191,0.853,7.371,2.557c2.18,1.706,3.586,3.905,4.223,6.599l5.23,21.879c0.635,2.615,1.428,6.382,2.379,11.296
			c0.951,4.916,1.545,7.967,1.783,9.155c0.078,0.238,0.217,0.356,0.416,0.356c0.197,0,0.336-0.118,0.416-0.356
			c0.158-1.347,0.555-4.438,1.189-9.274c0.633-4.834,1.229-8.562,1.783-11.177l4.043-21.166c0.555-2.854,1.963-5.211,4.221-7.075
			c2.26-1.861,4.816-2.794,7.67-2.794c2.615,0,4.715,1.031,6.303,3.092c1.109,1.427,1.664,3.014,1.664,4.756
			c0,0.635-0.08,1.308-0.238,2.021l-11.533,49.346c-0.713,2.934-2.26,5.351-4.637,7.253c-2.379,1.902-5.074,2.854-8.086,2.854
			h-4.637c-3.014,0-5.709-0.951-8.086-2.854c-2.379-1.902-3.885-4.319-4.52-7.253l-3.686-16.29
			c-1.031-5.311-2.221-12.01-3.566-20.095c0-0.158-0.102-0.238-0.297-0.238c-0.199,0-0.34,0.08-0.418,0.238
			c-1.188,8.246-2.258,14.943-3.209,20.095l-3.449,16.29c-0.635,2.934-2.121,5.351-4.459,7.253s-5.014,2.854-8.025,2.854H976.447z"
			/>
		<path fill="#009B87" d="M1077.673,137.826c-6.184,0-11.158-2.021-14.922-6.064c-3.766-4.043-5.648-9.037-5.648-14.982
			c0-7.212,2.973-12.86,8.918-16.943c5.945-4.082,15.416-6.876,28.418-8.383c0.791-0.078,1.109-0.515,0.951-1.308
			c-0.793-5.152-4.203-7.729-10.227-7.729c-3.328,0-6.975,0.833-10.938,2.497c-1.189,0.556-2.379,0.833-3.568,0.833
			c-0.873,0-1.783-0.158-2.734-0.476c-2.141-0.634-3.727-1.903-4.756-3.805c-0.637-1.267-0.951-2.575-0.951-3.924
			c0-0.792,0.119-1.585,0.355-2.378c0.635-2.141,1.941-3.686,3.924-4.638c7.689-3.567,15.26-5.351,22.711-5.351
			c18.707,0,28.063,10.543,28.063,31.629v30.559c0,2.458-0.873,4.539-2.615,6.242c-1.746,1.706-3.807,2.557-6.184,2.557h-2.498
			c-1.824,0-3.469-0.574-4.934-1.725c-1.469-1.147-2.398-2.634-2.795-4.458l-0.119-0.476c-0.08-0.158-0.197-0.238-0.355-0.238
			c-0.16,0-0.279,0.041-0.357,0.119C1090.992,135.013,1084.41,137.826,1077.673,137.826z M1085.164,121.061
			c3.33,0,6.541-1.546,9.633-4.638c0.553-0.554,0.832-1.228,0.832-2.021v-8.68c0-0.316-0.119-0.595-0.357-0.833
			c-0.238-0.157-0.475-0.237-0.713-0.237h-0.119c-11.178,1.665-16.766,5.153-16.766,10.464c0,1.982,0.654,3.469,1.963,4.459
			C1080.943,120.566,1082.787,121.061,1085.164,121.061z"/>
		<path fill="#009B87" d="M1139.068,163.152c-0.635,0-1.27-0.041-1.902-0.119c-2.221-0.079-3.965-1.069-5.232-2.973
			c-0.873-1.427-1.307-2.895-1.307-4.399c0-0.713,0.078-1.427,0.236-2.14c0.873-3.647,4.281-6.225,10.227-7.729
			c3.883-0.951,6.5-3.566,7.848-7.848l0.713-2.378c0.238-0.791,0.197-1.546-0.117-2.259l-22.355-56.48
			c-0.316-0.951-0.475-1.862-0.475-2.735c0-1.347,0.395-2.616,1.188-3.805c1.428-2.06,3.369-3.091,5.828-3.091h1.188
			c3.012,0,5.768,0.912,8.264,2.735c2.498,1.824,4.223,4.203,5.174,7.134l6.064,18.787c0.475,1.427,2.258,7.889,5.35,19.381
			c0.078,0.16,0.217,0.238,0.416,0.238c0.197,0,0.297-0.078,0.297-0.238c0.793-3.805,2.299-10.265,4.52-19.381l5.232-18.787
			c0.791-2.932,2.396-5.31,4.814-7.134c2.418-1.823,5.172-2.735,8.264-2.735c2.457,0,4.439,1.031,5.945,3.091
			c0.951,1.269,1.428,2.657,1.428,4.162c0,0.793-0.16,1.625-0.477,2.497l-20.451,59.571c-3.566,9.433-7.592,16.23-12.068,20.393
			C1153.197,161.071,1146.994,163.152,1139.068,163.152z"/>
	</g>
	<g enable-background="new    ">
		<path fill="#009B87" d="M523.544,264.367c-5.867,0-11.337-0.992-16.409-2.973c-5.074-1.98-9.571-4.875-13.496-8.681
			c-3.924-3.805-7.015-8.698-9.274-14.685c-2.259-5.984-3.389-12.702-3.389-20.154c0-7.292,1.169-13.972,3.508-20.035
			c2.337-6.064,5.509-11.077,9.513-15.042c4.002-3.963,8.6-7.016,13.793-9.155c5.19-2.141,10.681-3.211,16.468-3.211
			c7.372,0,14.229,2.021,20.571,6.064c2.06,1.349,3.21,3.329,3.448,5.945c0,0.237,0,0.517,0,0.832c0,2.221-0.755,4.203-2.26,5.945
			c-1.507,1.745-3.528,2.735-6.064,2.973c-0.397,0.08-0.832,0.119-1.308,0.119c-2.063,0-3.965-0.476-5.707-1.427
			c-2.616-1.268-5.392-1.902-8.323-1.902c-6.025,0-11.079,2.556-15.161,7.669c-4.083,5.113-6.123,11.95-6.123,20.511
			c0,8.959,1.882,15.954,5.647,20.987c3.765,5.035,8.897,7.551,15.398,7.551c3.567,0,7.016-0.911,10.345-2.735
			c1.822-1.109,3.765-1.665,5.826-1.665c0.316,0,0.634,0,0.951,0c2.456,0.16,4.399,1.111,5.827,2.854
			c1.584,1.824,2.378,3.965,2.378,6.421c0,2.775-1.031,4.955-3.092,6.539C540.03,261.949,532.343,264.367,523.544,264.367z"/>
		<path fill="#009B87" d="M591.358,264.367c-4.44,0-8.7-0.833-12.782-2.497c-4.084-1.665-7.71-4.002-10.88-7.016
			c-3.171-3.012-5.688-6.837-7.551-11.475c-1.863-4.637-2.794-9.729-2.794-15.279c0-5.548,0.931-10.66,2.794-15.339
			c1.862-4.676,4.38-8.52,7.551-11.533c3.17-3.012,6.796-5.351,10.88-7.016c4.082-1.665,8.342-2.497,12.782-2.497
			c4.358,0,8.562,0.832,12.604,2.497c4.043,1.665,7.649,4.004,10.821,7.016c3.169,3.014,5.687,6.857,7.55,11.533
			c1.861,4.679,2.795,9.791,2.795,15.339c0,5.55-0.934,10.643-2.795,15.279c-1.863,4.638-4.381,8.463-7.55,11.475
			c-3.172,3.014-6.778,5.351-10.821,7.016C599.92,263.534,595.717,264.367,591.358,264.367z M591.358,246.888
			c3.883,0,6.796-1.645,8.739-4.935c1.941-3.288,2.913-7.907,2.913-13.853s-0.972-10.582-2.913-13.912
			c-1.943-3.329-4.856-4.993-8.739-4.993c-3.965,0-6.938,1.664-8.918,4.993c-1.982,3.33-2.973,7.967-2.973,13.912
			s0.99,10.564,2.973,13.853C584.421,245.243,587.394,246.888,591.358,246.888z"/>
		<path fill="#009B87" d="M645.737,262.702c-2.854,0-5.291-1.011-7.313-3.032s-3.032-4.459-3.032-7.313v-50.059
			c0-2.456,0.851-4.558,2.557-6.303c1.704-1.742,3.784-2.615,6.242-2.615h0.833c2.298,0,4.319,0.754,6.063,2.259
			c1.743,1.507,2.813,3.37,3.211,5.589l0.119,0.713c0,0.16,0.098,0.238,0.297,0.238c0.197,0,0.336-0.039,0.416-0.119
			c3.329-3.329,6.579-5.886,9.75-7.669c3.17-1.784,6.896-2.676,11.178-2.676c8.639,0,14.783,3.448,18.43,10.345
			c0.158,0.317,0.375,0.496,0.654,0.535c0.276,0.041,0.535-0.06,0.772-0.297c3.33-3.33,6.618-5.925,9.869-7.789
			c3.25-1.861,6.896-2.794,10.939-2.794c7.292,0,12.723,2.458,16.29,7.372c3.567,4.916,5.351,11.852,5.351,20.809v32.461
			c0,2.854-1.011,5.291-3.032,7.313s-4.459,3.032-7.313,3.032h-0.951c-2.854,0-5.291-1.011-7.313-3.032s-3.032-4.459-3.032-7.313
			v-29.845c0-4.597-0.615-7.789-1.843-9.572c-1.23-1.783-3.271-2.676-6.124-2.676c-3.092,0-6.501,1.784-10.226,5.352
			c-0.556,0.555-0.832,1.229-0.832,2.021v34.721c0,2.854-1.011,5.291-3.032,7.313s-4.459,3.032-7.313,3.032h-1.07
			c-2.854,0-5.291-1.011-7.313-3.032s-3.032-4.459-3.032-7.313v-29.845c0-4.597-0.615-7.789-1.843-9.572
			c-1.23-1.783-3.271-2.676-6.124-2.676c-3.092,0-6.501,1.784-10.226,5.352c-0.556,0.555-0.833,1.229-0.833,2.021v34.721
			c0,2.854-1.01,5.291-3.031,7.313s-4.459,3.032-7.313,3.032H645.737z"/>
		<path fill="#009B87" d="M764.086,288.147c-2.854,0-5.291-1.011-7.313-3.031c-2.021-2.021-3.032-4.459-3.032-7.313v-75.267
			c0-2.456,0.851-4.558,2.557-6.302c1.704-1.743,3.784-2.616,6.242-2.616h2.735c1.742,0,3.309,0.576,4.696,1.725
			c1.386,1.149,2.278,2.597,2.676,4.34l0.119,0.476c0,0.16,0.098,0.237,0.297,0.237c0.197,0,0.336-0.077,0.416-0.237
			c6.261-5.47,12.682-8.204,19.263-8.204c8.323,0,14.923,3.191,19.798,9.571c4.875,6.382,7.313,14.923,7.313,25.624
			c0,5.787-0.813,11.079-2.438,15.874c-1.626,4.797-3.805,8.76-6.54,11.891c-2.734,3.132-5.847,5.529-9.334,7.193
			c-3.489,1.665-7.095,2.497-10.82,2.497c-5.55,0-10.623-2.1-15.22-6.302c-0.16-0.158-0.338-0.197-0.535-0.119
			c-0.199,0.08-0.297,0.238-0.297,0.476l0.594,9.632v9.512c0,2.854-1.01,5.292-3.031,7.313c-2.021,2.021-4.459,3.031-7.313,3.031
			H764.086z M785.607,246.888c3.567,0,6.439-1.585,8.621-4.756c2.18-3.17,3.27-8.045,3.27-14.626c0-6.103-0.912-10.601-2.734-13.495
			c-1.824-2.893-4.638-4.34-8.442-4.34c-3.489,0-6.896,1.664-10.226,4.994c-0.556,0.476-0.833,1.149-0.833,2.021v24.971
			c0,0.873,0.316,1.507,0.952,1.902C778.988,245.778,782.119,246.888,785.607,246.888z"/>
		<path fill="#009B87" d="M847.835,264.367c-6.184,0-11.159-2.021-14.923-6.064c-3.766-4.043-5.648-9.037-5.648-14.982
			c0-7.212,2.973-12.86,8.918-16.943c5.945-4.082,15.417-6.876,28.419-8.383c0.791-0.078,1.107-0.515,0.951-1.309
			c-0.795-5.151-4.204-7.729-10.228-7.729c-3.328,0-6.975,0.832-10.938,2.497c-1.189,0.556-2.379,0.832-3.567,0.832
			c-0.873,0-1.783-0.157-2.735-0.476c-2.14-0.633-3.727-1.902-4.756-3.805c-0.636-1.267-0.951-2.575-0.951-3.924
			c0-0.791,0.119-1.585,0.356-2.378c0.634-2.141,1.941-3.687,3.924-4.638c7.688-3.567,15.259-5.351,22.71-5.351
			c18.708,0,28.062,10.544,28.062,31.629v30.559c0,2.458-0.873,4.539-2.615,6.242c-1.744,1.706-3.805,2.557-6.184,2.557h-2.496
			c-1.824,0-3.469-0.574-4.936-1.725c-1.467-1.147-2.398-2.634-2.793-4.458l-0.119-0.476c-0.08-0.158-0.199-0.238-0.357-0.238
			c-0.16,0-0.279,0.041-0.355,0.119C861.153,261.554,854.571,264.367,847.835,264.367z M855.325,247.602
			c3.33,0,6.541-1.546,9.632-4.638c0.555-0.554,0.832-1.228,0.832-2.021v-8.68c0-0.316-0.119-0.595-0.355-0.833
			c-0.238-0.157-0.477-0.237-0.715-0.237h-0.117c-11.179,1.665-16.766,5.153-16.766,10.464c0,1.982,0.653,3.469,1.962,4.459
			C851.104,247.107,852.948,247.602,855.325,247.602z"/>
		<path fill="#009B87" d="M911.011,262.702c-2.854,0-5.291-1.011-7.313-3.032s-3.031-4.459-3.031-7.313v-50.059
			c0-2.456,0.85-4.558,2.557-6.303c1.703-1.742,3.783-2.615,6.242-2.615h0.951c2.299,0,4.299,0.733,6.004,2.199
			c1.705,1.468,2.754,3.35,3.152,5.648l0.119,0.595c0,0.159,0.098,0.237,0.297,0.237c0.197,0,0.336-0.039,0.416-0.119
			c6.975-6.816,14.307-10.226,21.996-10.226c7.293,0,12.703,2.458,16.23,7.372c3.527,4.916,5.293,11.852,5.293,20.809v32.461
			c0,2.854-1.012,5.291-3.033,7.313s-4.459,3.032-7.313,3.032h-0.951c-2.854,0-5.291-1.011-7.313-3.032s-3.031-4.459-3.031-7.313
			v-29.845c0-4.597-0.637-7.789-1.902-9.572c-1.27-1.783-3.33-2.676-6.184-2.676c-2.141,0-4.025,0.417-5.648,1.249
			c-1.625,0.832-3.469,2.199-5.529,4.103c-0.555,0.555-0.832,1.229-0.832,2.021v34.721c0,2.854-1.01,5.291-3.031,7.313
			s-4.459,3.032-7.314,3.032H911.011z"/>
		<path fill="#009B87" d="M985.843,289.693c-0.637,0-1.27-0.041-1.902-0.119c-2.221-0.079-3.965-1.069-5.232-2.973
			c-0.873-1.427-1.309-2.895-1.309-4.399c0-0.713,0.078-1.427,0.238-2.14c0.871-3.647,4.281-6.225,10.227-7.729
			c3.883-0.951,6.498-3.566,7.848-7.848l0.713-2.378c0.238-0.791,0.197-1.546-0.119-2.259l-22.354-56.48
			c-0.318-0.951-0.477-1.861-0.477-2.734c0-1.347,0.396-2.616,1.189-3.805c1.428-2.061,3.369-3.092,5.826-3.092h1.189
			c3.012,0,5.766,0.912,8.264,2.734c2.496,1.825,4.221,4.203,5.172,7.135l6.064,18.787c0.477,1.427,2.26,7.889,5.352,19.381
			c0.078,0.16,0.217,0.238,0.416,0.238c0.197,0,0.297-0.078,0.297-0.238c0.791-3.805,2.299-10.265,4.518-19.381l5.232-18.787
			c0.791-2.932,2.396-5.31,4.816-7.135c2.416-1.822,5.172-2.734,8.264-2.734c2.455,0,4.438,1.031,5.945,3.092
			c0.951,1.269,1.426,2.656,1.426,4.161c0,0.794-0.16,1.626-0.475,2.497l-20.453,59.571c-3.566,9.433-7.59,16.23-12.068,20.393
			C999.972,287.612,993.769,289.693,985.843,289.693z"/>
	</g>
	<g enable-background="new    ">
		<path fill="#009B87" d="M28.904,365.312c-2.111,0-3.88-0.728-5.306-2.183c-1.427-1.454-2.139-3.209-2.139-5.263v-43.902
			c0-0.569-0.286-0.855-0.856-0.855H10.248c-1.769,0-3.281-0.642-4.536-1.926c-1.256-1.283-1.883-2.81-1.883-4.578
			c0-1.768,0.627-3.295,1.883-4.579c1.254-1.283,2.767-1.925,4.536-1.925H48.33c1.768,0,3.295,0.642,4.579,1.925
			c1.284,1.284,1.925,2.812,1.925,4.579c0,1.769-0.642,3.295-1.925,4.578c-1.284,1.284-2.811,1.926-4.579,1.926H37.975
			c-0.571,0-0.856,0.286-0.856,0.855v43.902c0,2.054-0.727,3.809-2.182,5.263c-1.455,1.455-3.209,2.183-5.263,2.183H28.904z"/>
		<path fill="#009B87" d="M106.958,358.808c0.398,0.742,0.599,1.455,0.599,2.14c0,0.742-0.229,1.484-0.685,2.225
			c-0.8,1.427-2.026,2.14-3.68,2.14h-2.653c-2.283,0-4.407-0.599-6.375-1.797s-3.496-2.795-4.579-4.793l-8.13-15.575
			c-0.286-0.514-0.714-0.771-1.284-0.771h-5.819c-0.571,0-0.856,0.286-0.856,0.856v14.634c0,2.054-0.728,3.809-2.182,5.263
			c-1.455,1.455-3.209,2.183-5.263,2.183h-0.77c-2.054,0-3.809-0.728-5.263-2.183c-1.455-1.454-2.183-3.209-2.183-5.263v-50.32
			c0-2.054,0.728-3.809,2.183-5.264c1.455-1.454,3.209-2.182,5.263-2.182h16.517c17.001,0,25.502,6.846,25.502,20.539
			c0,8.729-3.509,14.891-10.526,18.484c-0.457,0.229-0.571,0.6-0.342,1.113L106.958,358.808z M74.353,312.509
			c-0.571,0-0.856,0.286-0.856,0.856v15.746c0,0.571,0.285,0.856,0.856,0.856h6.162c3.766,0,6.603-0.784,8.515-2.354
			c1.911-1.568,2.867-3.895,2.867-6.975c0-2.966-0.928-5.063-2.781-6.29c-1.854-1.227-4.722-1.841-8.601-1.841H74.353z"/>
		<path fill="#009B87" d="M197.772,338.696h-9.67c-0.229,0-0.4,0.086-0.514,0.257c-0.115,0.171-0.143,0.343-0.085,0.514
			c2.739,8.615,6.817,15.29,12.238,20.025c1.254,1.142,1.997,2.567,2.225,4.279c0,0.229,0,0.485,0,0.77
			c0,1.369-0.428,2.653-1.284,3.852c-1.198,1.482-2.682,2.396-4.45,2.738c-0.4,0.057-0.77,0.086-1.112,0.086
			c-1.313,0-2.54-0.485-3.68-1.455c-4.507-4.45-8.245-10.44-11.21-17.972c-0.115-0.113-0.244-0.171-0.385-0.171
			c-0.143,0-0.271,0.058-0.385,0.171c-3.48,7.018-8.387,12.979-14.72,17.886c-1.369,0.97-2.854,1.455-4.45,1.455
			c-0.4,0-0.8-0.029-1.198-0.086c-2.054-0.286-3.851-1.228-5.392-2.823c-0.457-0.458-0.941-0.914-1.455-1.37
			c-0.4-0.399-0.885-0.543-1.455-0.428c-4.621,1.083-11.611,2.596-20.967,4.536c-0.4,0.056-0.828,0.085-1.284,0.085
			c-1.084,0-2.111-0.313-3.081-0.941c-1.369-0.855-2.225-2.083-2.567-3.68c-0.057-0.399-0.085-0.8-0.085-1.198
			c0-1.083,0.313-2.109,0.941-3.08c0.912-1.255,2.14-2.024,3.68-2.312c1.768-0.284,3.595-0.599,5.477-0.94
			c0.57-0.114,0.856-0.456,0.856-1.027v-18.742c0-0.569-0.286-0.855-0.856-0.855h-4.792c-1.484,0-2.753-0.527-3.809-1.583
			c-1.056-1.056-1.583-2.324-1.583-3.809c0-1.482,0.527-2.738,1.583-3.766c1.055-1.026,2.324-1.54,3.809-1.54h4.792
			c0.57,0,0.856-0.285,0.856-0.855v-3.167c0-0.514-0.229-0.771-0.685-0.771h-2.91c-0.971,0-1.797-0.327-2.482-0.983
			c-0.685-0.655-1.027-1.469-1.027-2.439v-0.342c-0.286,0.229-0.514,0.2-0.685-0.086c-0.856-1.254-1.912-2.596-3.167-4.022
			c-1.027-1.141-1.541-2.452-1.541-3.937c0-1.426,0.514-2.709,1.541-3.851c3.252-3.479,6.019-7.445,8.301-11.896
			c0.741-1.426,1.782-2.596,3.124-3.509c1.34-0.912,2.781-1.369,4.322-1.369c3.65,0,6.761,1.17,9.328,3.508
			c4.45,3.994,7.788,7.446,10.013,10.355c0.114,0.171,0.257,0.243,0.428,0.214c0.171-0.028,0.257-0.128,0.257-0.3
			c0.342-1.482,0.655-2.966,0.941-4.449c0.285-1.597,1.083-2.853,2.396-3.766c1.027-0.741,2.11-1.113,3.252-1.113
			c0.342,0,0.685,0.03,1.027,0.086c1.597,0.229,2.88,1.027,3.851,2.396c0.741,0.971,1.112,2.025,1.112,3.166
			c0,0.343-0.057,0.714-0.171,1.112c-0.171,0.8-0.314,1.57-0.428,2.312c-0.057,0.171-0.029,0.342,0.086,0.513
			c0.114,0.172,0.285,0.257,0.513,0.257h1.541c0.57,0,0.856-0.284,0.856-0.855v-6.59c0-1.711,0.599-3.166,1.797-4.364
			c1.198-1.198,2.653-1.797,4.365-1.797s3.18,0.599,4.407,1.797c1.226,1.198,1.84,2.653,1.84,4.364v6.59
			c0,0.571,0.285,0.855,0.856,0.855h8.729c1.654,0,3.051,0.586,4.193,1.755c1.141,1.17,1.711,2.554,1.711,4.15
			c0,1.598-0.571,2.981-1.711,4.15c-1.142,1.17-2.539,1.755-4.193,1.755h-8.729c-0.571,0-0.856,0.286-0.856,0.855v2.738
			c0,1.94-0.085,3.937-0.256,5.99c0,0.287,0.071,0.501,0.214,0.643c0.142,0.143,0.328,0.214,0.556,0.214h11.296
			c1.597,0,2.966,0.586,4.108,1.754c1.141,1.17,1.711,2.567,1.711,4.193s-0.571,3.011-1.711,4.15
			C200.738,338.127,199.369,338.696,197.772,338.696z M123.917,346.655c-0.058-0.285-0.086-0.599-0.086-0.941
			c0-0.741,0.199-1.455,0.599-2.14c0.57-0.969,1.397-1.597,2.482-1.883c0.398-0.113,0.77-0.171,1.112-0.171
			c0.685,0,1.37,0.2,2.054,0.599c0.969,0.571,1.568,1.399,1.797,2.482c0.514,2.111,0.941,4.193,1.284,6.247
			c0.056,0.286,0.086,0.571,0.086,0.855c0,0.914-0.257,1.77-0.771,2.567c-0.685,1.027-1.626,1.712-2.824,2.055
			c-0.342,0.057-0.685,0.085-1.027,0.085c-0.685,0-1.341-0.228-1.968-0.685c-0.913-0.627-1.455-1.482-1.626-2.567
			C124.744,351.163,124.373,348.995,123.917,346.655z M133.502,311.653c-0.115,0.115-0.128,0.243-0.042,0.385
			c0.085,0.144,0.214,0.215,0.385,0.215h14.035c0.228,0,0.371-0.071,0.428-0.215c0.056-0.142,0.056-0.299,0-0.47
			c-2.282-3.195-4.792-6.19-7.531-8.986c-0.4-0.398-0.742-0.37-1.027,0.086C137.638,306.148,135.556,309.144,133.502,311.653z
			 M152.415,355.299c0.912-0.171,1.754,0.029,2.524,0.599c0.771,0.571,1.212,1.342,1.327,2.311l0.171,1.626
			c0,0.115,0.056,0.201,0.171,0.257c0.114,0.058,0.228,0.058,0.342,0c7.131-5.361,11.924-12.237,14.377-20.624
			c0.056-0.171,0.013-0.343-0.128-0.514c-0.143-0.171-0.299-0.257-0.471-0.257h-7.873c-1.598,0-2.967-0.569-4.108-1.712
			c-1.142-1.14-1.712-2.524-1.712-4.15s0.57-3.023,1.712-4.193c1.141-1.168,2.51-1.754,4.108-1.754h9.67
			c0.569,0,0.884-0.285,0.941-0.856c0.056-1.369,0.085-3.394,0.085-6.075v-2.653c0-0.569-0.286-0.855-0.856-0.855h-4.963
			c-0.571,0-0.941,0.256-1.113,0.77c-0.342,0.913-0.685,1.77-1.027,2.567c-0.8,1.827-2.197,2.995-4.193,3.509
			c-0.685,0.171-1.341,0.257-1.968,0.257c-1.256,0-2.454-0.313-3.594-0.941c-1.198-0.627-2.283-1.169-3.252-1.626
			c-0.171-0.056-0.257-0.028-0.257,0.086c0,0.514-0.158,0.928-0.471,1.24c-0.314,0.314-0.728,0.471-1.241,0.471h-5.135
			c-0.571,0-0.856,0.286-0.856,0.856v3.081c0,0.57,0.285,0.855,0.856,0.855h3.937c1.425,0,2.666,0.514,3.723,1.54
			c1.055,1.027,1.583,2.283,1.583,3.766c0,1.484-0.528,2.753-1.583,3.809c-1.057,1.056-2.297,1.583-3.723,1.583h-3.937
			c-0.571,0-0.856,0.286-0.856,0.855v12.923c0,0.058,0.043,0.086,0.128,0.086s0.128-0.028,0.128-0.086
			c0.627-2.281,1.168-4.763,1.626-7.445c0.227-1.198,0.826-2.14,1.797-2.824c0.741-0.514,1.511-0.771,2.311-0.771
			c0.342,0,0.685,0.029,1.027,0.086c1.198,0.286,2.11,0.971,2.738,2.054c0.398,0.685,0.599,1.398,0.599,2.14
			c0,0.399-0.085,0.827-0.257,1.283c-1.655,5.364-2.511,8.188-2.567,8.473c-0.057,0.058-0.042,0.128,0.043,0.214
			S152.357,355.356,152.415,355.299z M145.483,353.759c-0.229-0.057-0.428-0.014-0.599,0.128c-0.171,0.144-0.257,0.329-0.257,0.557
			v1.54c0,0.229,0.085,0.414,0.257,0.557c0.171,0.143,0.37,0.186,0.599,0.128l5.563-1.027c0.114,0,0.171-0.056,0.171-0.171
			c0-0.113-0.029-0.171-0.085-0.171L145.483,353.759z M157.892,306.519c0.056-0.056,0.043-0.113-0.043-0.171
			c-0.085-0.057-0.158-0.057-0.214,0l-4.707,5.733c-0.4,0.458-0.599,0.971-0.599,1.541v5.392c0,0.114,0.071,0.186,0.214,0.214
			c0.142,0.029,0.242-0.014,0.299-0.129C154.839,315.847,156.523,311.653,157.892,306.519z"/>
		<path fill="#009B87" d="M216.521,324.319c2.054,0,3.808,0.728,5.263,2.182c1.455,1.455,2.182,3.21,2.182,5.264v19.17
			c0,0.628,0.142,1.17,0.428,1.626c3.081,4.45,8.871,6.846,17.373,7.188c4.164,0.171,8.443,0.257,12.837,0.257
			c7.474,0,15.347-0.228,23.62-0.685c0.114,0,0.228,0,0.343,0c1.425,0,2.567,0.57,3.423,1.711c0.627,0.856,0.941,1.77,0.941,2.739
			c0,0.457-0.085,0.941-0.257,1.454c-0.628,1.939-1.711,3.552-3.252,4.836c-1.541,1.283-3.281,1.953-5.22,2.011
			c-6.105,0.228-11.839,0.343-17.201,0.343c-5.592,0-10.755-0.115-15.49-0.343c-5.306-0.229-9.713-0.984-13.222-2.268
			c-3.509-1.284-6.632-3.438-9.371-6.462c-0.4-0.455-0.799-0.483-1.198-0.085c-2.054,1.769-3.966,3.394-5.733,4.878
			c-1.027,0.855-2.169,1.283-3.423,1.283c-0.458,0-0.913-0.057-1.369-0.171c-1.827-0.399-3.139-1.455-3.937-3.166
			c-0.458-1.083-0.685-2.196-0.685-3.338c0-0.798,0.114-1.597,0.342-2.396c0.627-1.996,1.826-3.536,3.595-4.621
			c1.54-0.97,2.966-1.938,4.279-2.909c0.456-0.285,0.685-0.741,0.685-1.37v-14.548c0-0.569-0.286-0.855-0.856-0.855h-2.225
			c-1.656,0-3.053-0.57-4.194-1.712c-1.142-1.141-1.711-2.524-1.711-4.15s0.57-3.009,1.711-4.151
			c1.141-1.141,2.538-1.711,4.194-1.711H216.521z M221.569,300.613c1.141,1.143,1.712,2.482,1.712,4.022c0,0.172,0,0.372,0,0.6
			c-0.171,1.769-0.971,3.252-2.396,4.45c-1.198,0.913-2.511,1.369-3.937,1.369c-0.286,0-0.543,0-0.77,0
			c-1.769-0.228-3.282-0.998-4.536-2.311c-1.427-1.541-3.053-3.138-4.878-4.793c-1.142-1.026-1.711-2.311-1.711-3.851
			c0-1.597,0.599-2.881,1.797-3.852c1.425-1.141,3.023-1.739,4.792-1.797c0.056,0,0.113,0,0.171,0c1.711,0,3.252,0.543,4.622,1.626
			C218.317,297.618,220.029,299.131,221.569,300.613z M232.695,320.04c0-2.054,0.728-3.808,2.182-5.263
			c1.455-1.455,3.209-2.183,5.263-2.183h4.792c0.57,0,0.912-0.285,1.027-0.855c0.114-0.514,0.199-1.056,0.257-1.626
			c0.056-0.228,0.013-0.428-0.128-0.6c-0.143-0.171-0.329-0.257-0.556-0.257h-14.121c-1.427,0-2.625-0.498-3.594-1.497
			c-0.971-0.998-1.455-2.195-1.455-3.595c0-1.397,0.484-2.595,1.455-3.594c0.969-0.998,2.167-1.498,3.594-1.498h4.963
			c0.171,0,0.285-0.056,0.343-0.171c0.056-0.114,0.056-0.228,0-0.343c-0.4-0.74-0.599-1.482-0.599-2.225
			c0-0.514,0.085-0.998,0.256-1.455c0.399-1.312,1.227-2.195,2.482-2.653l0.171-0.085c0.798-0.285,1.626-0.428,2.481-0.428
			c0.627,0,1.254,0.085,1.883,0.257c1.541,0.399,2.709,1.228,3.509,2.481c1.083,1.655,1.854,3.081,2.311,4.279
			c0.056,0.171,0,0.286-0.171,0.342h7.873c0.57,0,0.998-0.257,1.284-0.771c0.342-0.685,0.655-1.34,0.941-1.968
			c0.798-1.712,2.024-3.023,3.68-3.937c1.198-0.627,2.424-0.941,3.68-0.941c0.514,0,1.027,0.058,1.541,0.171
			c1.541,0.286,2.624,1.17,3.252,2.653c0.227,0.57,0.342,1.17,0.342,1.797c0,0.8-0.229,1.569-0.685,2.311
			c-0.115,0.171-0.128,0.329-0.043,0.471c0.086,0.144,0.185,0.214,0.3,0.214h6.504c1.369,0,2.553,0.5,3.551,1.498
			c0.998,0.999,1.498,2.196,1.498,3.594c0,1.399-0.5,2.597-1.498,3.595c-0.999,0.999-2.182,1.497-3.551,1.497h-16.945
			c-0.571,0-0.999,0.257-1.284,0.771c-0.628,1.142-0.941,1.741-0.941,1.797c-0.115,0.172-0.115,0.343,0,0.514
			c0.114,0.171,0.257,0.257,0.428,0.257h10.184c2.054,0,3.809,0.728,5.263,2.183c1.455,1.455,2.182,3.209,2.182,5.263v28.584
			c0,2.111-0.727,3.88-2.182,5.306c-1.455,1.427-3.209,2.14-5.263,2.14H240.14c-2.054,0-3.808-0.713-5.263-2.14
			c-1.455-1.426-2.182-3.194-2.182-5.306V320.04z M263.161,324.576c0.569,0,0.855-0.285,0.855-0.856v-1.283
			c0-0.569-0.286-0.855-0.855-0.855h-17.544c-0.571,0-0.855,0.286-0.855,0.855v1.283c0,0.571,0.285,0.856,0.855,0.856H263.161z
			 M263.161,335.787c0.569,0,0.855-0.285,0.855-0.856v-1.283c0-0.57-0.286-0.856-0.855-0.856h-17.544
			c-0.571,0-0.855,0.286-0.855,0.856v1.283c0,0.571,0.285,0.856,0.855,0.856H263.161z M263.161,347.083
			c0.569,0,0.855-0.284,0.855-0.855v-1.284c0-0.569-0.286-0.855-0.855-0.855h-17.544c-0.571,0-0.855,0.286-0.855,0.855v1.284
			c0,0.571,0.285,0.855,0.855,0.855H263.161z"/>
		<path fill="#009B87" d="M308.867,328.085c-1.598,0-2.967-0.57-4.108-1.712c-1.142-1.141-1.711-2.51-1.711-4.107
			c0-0.114-0.058-0.214-0.171-0.3c-0.115-0.086-0.229-0.099-0.342-0.043c-2.683,1.827-5.335,3.48-7.959,4.964
			c-1.027,0.514-2.054,0.771-3.081,0.771c-0.628,0-1.284-0.114-1.968-0.343c-1.711-0.514-3.11-1.54-4.193-3.081
			c-0.742-0.97-1.112-1.996-1.112-3.081c0-0.456,0.056-0.884,0.171-1.283c0.342-1.597,1.254-2.795,2.739-3.595
			c4.849-2.567,9.441-5.647,13.778-9.242c4.335-3.595,8.073-7.274,11.211-11.04c3.023-3.594,6.618-5.392,10.783-5.392
			c4.221,0,7.873,1.741,10.954,5.221c7.188,8.159,15.717,14.435,25.588,18.827c1.541,0.685,2.538,1.854,2.996,3.509
			c0.113,0.514,0.171,1.027,0.171,1.541c0,1.084-0.314,2.111-0.941,3.08c-1.198,1.712-2.738,2.854-4.621,3.424
			c-0.742,0.229-1.455,0.342-2.14,0.342c-1.142,0-2.282-0.313-3.423-0.941c-2.283-1.254-4.651-2.681-7.103-4.278
			c-0.171-0.114-0.314-0.129-0.428-0.043c-0.115,0.085-0.171,0.186-0.171,0.3c0,1.826-0.642,3.366-1.926,4.621
			s-2.811,1.883-4.579,1.883H308.867z M354.224,345.115h-11.382c-0.171,0-0.271,0.072-0.3,0.214
			c-0.029,0.143-0.015,0.271,0.043,0.385c5.249,4.793,9.898,9.813,13.949,15.062c0.798,1.085,1.198,2.283,1.198,3.595
			c0,0.457-0.029,0.941-0.085,1.455c-0.458,1.825-1.484,3.223-3.081,4.193l-1.369,0.771c-0.856,0.513-1.741,0.77-2.653,0.77
			c-0.458,0-0.914-0.058-1.37-0.171c-1.427-0.343-2.567-1.142-3.423-2.396c-0.229-0.342-0.543-0.514-0.941-0.514
			c-11.868,0.685-28.356,1.512-49.465,2.482c-0.115,0-0.229,0-0.342,0c-1.655,0-3.11-0.514-4.364-1.541
			c-1.37-1.142-2.169-2.597-2.396-4.364c-0.058-0.285-0.085-0.569-0.085-0.855c0-1.312,0.456-2.51,1.369-3.595
			c1.083-1.254,2.453-1.91,4.108-1.968c0.513,0,2.624-0.086,6.333-0.257c0.569,0,0.969-0.257,1.198-0.771
			c1.712-3.708,3.223-7.587,4.536-11.639c0.056-0.228,0.028-0.428-0.085-0.599c-0.115-0.172-0.286-0.257-0.513-0.257h-12.067
			c-1.598,0-2.982-0.57-4.15-1.712c-1.17-1.141-1.754-2.524-1.754-4.15s0.584-3.023,1.754-4.193c1.168-1.169,2.552-1.755,4.15-1.755
			h61.189c1.654,0,3.051,0.586,4.193,1.755c1.141,1.17,1.711,2.567,1.711,4.193s-0.571,3.01-1.711,4.15
			C357.275,344.545,355.878,345.115,354.224,345.115z M310.665,315.847c-0.115,0.115-0.143,0.243-0.085,0.386
			c0.056,0.143,0.142,0.214,0.256,0.214h25.759c0.114,0,0.199-0.071,0.257-0.214c0.056-0.143,0.028-0.271-0.085-0.386
			c-5.477-4.278-9.756-8.415-12.837-12.409c-0.342-0.456-0.685-0.456-1.027,0C319.707,307.546,315.628,311.683,310.665,315.847z
			 M337.964,345.543c0.113-0.057,0.156-0.142,0.128-0.257c-0.03-0.113-0.101-0.171-0.214-0.171H322.56
			c-0.571,0-0.999,0.257-1.284,0.77c-2.567,5.021-4.536,8.787-5.905,11.297c-0.057,0.171-0.042,0.342,0.043,0.514
			c0.085,0.171,0.242,0.257,0.471,0.257c3.081-0.114,9.641-0.371,19.683-0.771c0.171,0,0.285-0.071,0.342-0.214
			c0.056-0.142,0.028-0.3-0.085-0.471c-0.4-0.398-0.77-0.799-1.112-1.198c-1.027-1.083-1.541-2.339-1.541-3.766
			c0-0.342,0-0.685,0-1.026c0.285-1.769,1.254-3.081,2.91-3.938L337.964,345.543z"/>
		<path fill="#009B87" d="M397.791,335.701c1.369,1.198,2.14,2.738,2.311,4.621c0,0.229,0,0.457,0,0.685
			c0,1.541-0.457,2.968-1.369,4.279c-0.971,1.256-2.283,1.883-3.937,1.883c-1.598,0-2.882-0.627-3.851-1.883
			c-0.514-0.627-1.057-1.284-1.626-1.969c-0.058-0.113-0.158-0.156-0.3-0.128c-0.143,0.029-0.214,0.128-0.214,0.3v23.962
			c0,1.711-0.614,3.18-1.84,4.407c-1.228,1.227-2.71,1.84-4.45,1.84c-1.741,0-3.239-0.613-4.493-1.84
			c-1.256-1.228-1.883-2.696-1.883-4.407v-21.139c0-0.171-0.072-0.299-0.214-0.385c-0.143-0.085-0.271-0.07-0.385,0.043
			c-1.027,0.913-2.083,1.769-3.167,2.567c-0.913,0.685-1.883,1.027-2.91,1.027c-0.514,0-1.056-0.086-1.626-0.257
			c-1.655-0.514-2.854-1.569-3.594-3.167c-0.514-1.083-0.771-2.167-0.771-3.252c0-0.627,0.086-1.283,0.257-1.968
			c0.514-1.825,1.511-3.252,2.995-4.279c6.789-4.792,12.352-10.754,16.688-17.886c0.114-0.172,0.128-0.343,0.043-0.514
			s-0.214-0.257-0.385-0.257h-13.008c-1.598,0-2.953-0.557-4.065-1.669c-1.113-1.112-1.669-2.467-1.669-4.064
			c0-1.597,0.556-2.953,1.669-4.065c1.112-1.112,2.467-1.669,4.065-1.669h5.22c0.57,0,0.856-0.284,0.856-0.855v-8.9
			c0-1.712,0.627-3.18,1.883-4.407c1.254-1.227,2.751-1.84,4.493-1.84c1.74,0,3.223,0.613,4.45,1.84
			c1.226,1.228,1.84,2.695,1.84,4.407v8.9c0,0.571,0.285,0.855,0.856,0.855h0.855c0.114,0,0.257-0.028,0.428-0.085
			c0.342-0.057,0.685-0.086,1.027-0.086c0.912,0,1.797,0.286,2.653,0.855l1.797,1.198c1.083,0.685,1.797,1.598,2.139,2.738
			c0.171,0.514,0.257,1.027,0.257,1.541c0,0.685-0.143,1.341-0.428,1.968c-2.111,4.851-4.651,9.5-7.617,13.949
			c-0.342,0.458-0.286,0.856,0.171,1.198C392.998,331.508,395.279,333.477,397.791,335.701z M428.599,357.78
			c0,0.571,0.285,0.856,0.855,0.856h10.612c1.768,0,3.266,0.613,4.493,1.84c1.227,1.228,1.84,2.71,1.84,4.45
			c0,1.739-0.613,3.223-1.84,4.45c-1.228,1.226-2.726,1.84-4.493,1.84h-37.569c-1.712,0-3.181-0.614-4.408-1.84
			c-1.228-1.228-1.84-2.711-1.84-4.45c0-1.74,0.612-3.223,1.84-4.45c1.227-1.227,2.696-1.84,4.408-1.84h12.066
			c0.57,0,0.856-0.285,0.856-0.856v-27.984c0-0.569-0.286-0.855-0.856-0.855h-8.472c-1.712,0-3.167-0.599-4.365-1.797
			c-1.198-1.198-1.797-2.639-1.797-4.322c0-1.682,0.599-3.123,1.797-4.321c1.198-1.198,2.653-1.798,4.365-1.798h8.472
			c0.57,0,0.856-0.284,0.856-0.855v-17.886c0-1.825,0.642-3.381,1.925-4.664c1.284-1.284,2.837-1.926,4.664-1.926
			c1.825,0,3.38,0.642,4.664,1.926c1.284,1.283,1.926,2.839,1.926,4.664v17.886c0,0.571,0.285,0.855,0.855,0.855h8.558
			c1.712,0,3.166,0.6,4.364,1.798s1.798,2.64,1.798,4.321c0,1.684-0.6,3.124-1.798,4.322s-2.652,1.797-4.364,1.797h-8.558
			c-0.571,0-0.855,0.286-0.855,0.855V357.78z"/>
	</g>
</g>
</svg>
