<?xml version="1.0" encoding="utf-8"?>
<!-- Generator: Adobe Illustrator 16.0.3, SVG Export Plug-In . SVG Version: 6.00 Build 0)  -->
<!DOCTYPE svg PUBLIC "-//W3C//DTD SVG 1.1//EN" "http://www.w3.org/Graphics/SVG/1.1/DTD/svg11.dtd">
<svg version="1.1"
	 id="svg5121" xmlns:rdf="http://www.w3.org/1999/02/22-rdf-syntax-ns#" xmlns:svg="http://www.w3.org/2000/svg" xmlns:cc="http://creativecommons.org/ns#" xmlns:dc="http://purl.org/dc/elements/1.1/"
	 xmlns="http://www.w3.org/2000/svg" xmlns:xlink="http://www.w3.org/1999/xlink" x="0px" y="0px" width="1170.076px"
	 height="236.622px" viewBox="-25.985 462.02 1170.076 236.622" enable-background="new -25.985 462.02 1170.076 236.622"
	 xml:space="preserve">
<g>
	<path fill="#009B87" d="M61.647,687.425c-29.094,0-50.827-8.413-65.549-25.589c-14.723-17.176-22.083-43.466-22.083-79.57v-89.736
		c0-6.66,2.454-12.619,7.361-17.526c4.908-4.908,10.516-7.361,17.527-7.361h2.103c6.66,0,12.619,2.453,17.527,7.361
		c4.907,4.907,7.361,10.516,7.361,17.526v95.345c0,19.98,2.804,34.352,8.764,42.765c5.959,8.413,14.722,12.619,26.991,12.619
		s21.382-4.206,27.341-12.97c5.959-8.763,9.114-22.784,9.114-42.414V492.88c0-6.66,2.454-12.619,7.361-17.526
		c4.908-4.908,10.516-7.361,17.527-7.361h0.701c6.66,0,12.619,2.453,17.527,7.361c4.907,4.907,7.361,10.516,7.361,17.526v89.736
		c0,36.104-7.011,62.395-21.383,79.57C112.475,679.012,90.742,687.425,61.647,687.425z"/>
	<path fill="#009B87" d="M187.839,683.569c-6.66,0-12.619-2.454-17.526-7.361c-4.908-4.907-7.361-10.517-7.361-17.526V539.851
		c0-5.959,2.103-10.866,5.959-15.072c4.206-4.207,9.114-6.31,14.722-6.31h2.104c5.608,0,10.165,1.752,14.372,5.258
		c4.207,3.505,6.66,8.063,7.361,13.32l0.351,1.402c0,0.35,0.351,0.701,0.701,0.701s0.701,0,1.051-0.352
		c16.475-16.124,34.001-24.187,52.229-24.187c17.176,0,30.146,5.959,38.558,17.527c8.413,11.567,12.619,28.042,12.619,49.425v77.117
		c0,6.66-2.454,12.619-7.361,17.526c-4.908,4.907-10.516,7.361-17.527,7.361h-2.103c-6.66,0-12.619-2.454-17.527-7.361
		c-4.907-4.907-7.361-10.517-7.361-17.526v-70.808c0-10.867-1.402-18.578-4.557-22.785c-3.155-4.206-8.062-6.31-14.722-6.31
		c-5.258,0-9.464,1.052-13.32,2.805c-3.856,2.104-8.413,5.258-13.32,9.814c-1.402,1.402-2.103,2.805-2.103,4.908v82.375
		c0,6.659-2.454,12.619-7.361,17.526c-4.907,4.907-10.516,7.361-17.526,7.361H187.839z"/>
	<path fill="#009B87" d="M389.395,687.425c-19.98,0-34.703-5.608-44.167-17.176s-14.021-27.342-14.021-48.023v-60.992
		c0-1.402-0.701-2.104-2.103-2.104h-0.701c-5.258,0-9.815-1.753-13.671-5.608c-3.856-3.855-5.608-8.413-5.608-13.671
		c0-5.608,1.752-10.165,5.608-14.021c3.505-3.856,8.413-5.96,13.671-6.66l3.505-0.351c1.753-0.351,2.805-1.052,3.155-2.805
		l2.454-19.63c0.701-5.959,3.506-11.217,8.063-15.072c4.557-4.207,10.166-5.959,16.125-5.959s10.867,2.103,15.073,6.309
		c4.207,4.207,6.31,9.114,6.31,15.424v18.929c0,1.753,1.052,2.804,2.804,2.804h15.774c5.608,0,10.166,2.104,14.021,5.96
		c3.856,3.855,5.959,8.763,5.959,14.371s-2.103,10.166-5.959,14.372c-3.856,4.207-8.763,5.959-14.021,5.959h-15.774
		c-1.752,0-2.804,1.052-2.804,2.805v59.94c0,15.424,5.608,23.486,17.176,25.238c5.608,0.701,10.516,2.454,14.722,5.259
		c4.207,2.804,6.66,6.309,7.712,10.866c0.351,1.753,0.701,3.154,0.701,4.907c0,3.505-1.052,7.011-3.155,10.165
		c-2.804,4.558-6.66,7.361-11.918,8.063C402.014,687.074,395.704,687.425,389.395,687.425z"/>
	<path fill="#009B87" d="M498.761,687.425c-24.187,0-44.167-7.712-59.941-23.135c-15.773-15.424-23.485-36.456-23.485-63.096
		c0-12.97,2.103-24.888,6.66-36.105c4.557-10.866,10.165-20.33,17.526-27.341c7.361-7.361,15.424-12.97,24.888-16.826
		c9.465-4.206,18.929-5.959,29.095-5.959c22.784,0,39.96,7.011,51.878,21.383c12.269,14.723,18.579,33.301,18.579,56.085
		c0,6.66-2.805,12.269-8.063,16.825c-5.258,4.558-11.567,6.66-18.929,6.66h-69.405c-0.701,0-1.402,0.351-1.753,1.052
		s-0.701,1.402-0.351,1.753c5.258,19.279,18.578,29.094,40.312,29.094c6.31,0,12.619-1.052,18.929-3.154
		c2.103-0.701,4.557-1.052,7.361-1.052c2.103,0,4.206,0.351,6.66,0.701c4.557,1.402,8.412,4.206,10.866,8.413
		c1.402,3.154,2.103,5.959,2.103,9.464c0,3.155-0.7,5.959-2.103,8.764c-1.753,2.804-3.856,4.907-6.66,6.31
		C527.854,684.27,513.483,687.425,498.761,687.425z M464.408,580.863c0,0.351,0.351,0.701,0.701,1.402s1.052,0.701,1.753,0.701
		h50.477c0.701,0,1.402-0.351,2.104-0.701c0.35-0.701,0.7-1.052,0.7-2.104c-0.351-8.063-2.804-14.372-7.011-18.929
		c-4.206-4.557-10.516-7.011-18.928-7.011c-7.011,0-13.32,2.104-18.579,6.66C468.265,566.842,464.408,573.502,464.408,580.863z"/>
	<path fill="#009B87" d="M592.353,683.569c-6.66,0-12.619-2.454-17.526-7.361s-7.361-10.517-7.361-17.526V539.851
		c0-5.959,2.104-10.866,5.959-15.072c4.206-4.207,9.114-6.31,14.723-6.31h2.103c5.609,0,10.166,1.752,14.372,5.258
		c4.206,3.505,6.66,8.063,7.361,13.32l0.351,1.402c0,0.35,0.351,0.701,0.701,0.701s0.701,0,1.051-0.352
		c16.476-16.124,34.002-24.187,52.229-24.187c17.177,0,30.146,5.959,38.559,17.527c8.413,11.567,12.619,28.042,12.619,49.425v77.117
		c0,6.66-2.453,12.619-7.361,17.526c-4.907,4.907-10.516,7.361-17.526,7.361h-2.104c-6.66,0-12.619-2.454-17.526-7.361
		s-7.361-10.517-7.361-17.526v-70.808c0-10.867-1.401-18.578-4.557-22.785c-3.154-4.206-8.063-6.31-14.722-6.31
		c-5.259,0-9.465,1.052-13.32,2.805c-3.856,2.104-8.413,5.258-13.32,9.814c-1.402,1.402-2.104,2.805-2.104,4.908v82.375
		c0,6.659-2.454,12.619-7.361,17.526s-10.516,7.361-17.526,7.361H592.353z"/>
	<path fill="#009B87" d="M815.642,620.123c0,11.217,1.752,19.279,5.608,24.537c3.505,5.258,9.464,8.063,17.176,8.763
		c9.815,0,20.331-2.453,31.547-7.36c10.867-4.908,25.238-12.619,42.766-23.486c10.166-7.361,19.279-6.31,26.99,3.506
		c7.012,11.217,5.609,21.732-4.557,31.548c-8.764,6.66-17.877,12.97-27.691,18.929c-9.814,5.608-20.682,10.866-32.951,15.072
		c-12.268,4.207-25.238,6.66-38.558,7.011c-22.083-0.351-37.857-6.66-47.672-19.279s-14.723-29.795-14.723-52.229V483.415
		c0-14.021,7.011-21.032,21.032-21.032s21.032,7.011,21.032,21.032V620.123z"/>
	<path fill="#009B87" d="M967.071,495.684H986c1.051-10.165,1.752-15.423,1.752-15.423c1.402-12.269,8.764-18.578,21.732-18.228
		c12.27,1.401,17.877,7.361,17.176,18.228l-1.402,15.423h19.98c13.32,0,19.98,6.66,19.98,19.98s-6.66,19.98-19.98,19.98h-24.186
		c-4.207,32.249-8.414,60.292-13.32,83.777c-4.557,23.485-9.113,43.115-12.971,59.59c-3.504,11.918-11.918,16.826-24.887,14.723
		c-14.021-2.804-18.93-10.866-14.723-24.888c3.506-11.918,8.063-31.548,13.32-58.89c5.258-27.341,9.465-52.229,12.619-74.313
		h-14.021c-13.32,0-19.98-6.66-19.98-19.98C946.741,502.344,953.401,495.684,967.071,495.684z M1028.415,611.359
		c4.557-9.465,12.268-12.97,22.783-10.165c11.219,5.258,14.373,11.918,10.166,20.331c-1.752,3.855-2.104,9.814-1.752,17.526
		c0.701,8.062,9.465,12.269,26.641,12.269c10.516,0,23.135-0.351,38.207-1.052c12.27,0.351,18.578,7.712,19.631,22.083
		c-0.352,13.671-7.012,21.032-19.631,21.383c-20.682,0.701-37.506,0.701-50.477,0c-13.67-0.701-24.537-3.505-32.6-8.413
		c-8.063-4.907-13.32-11.217-16.824-18.228c-3.156-7.361-4.908-14.723-4.908-22.784C1020,633.093,1022.805,622.226,1028.415,611.359
		z M1119.553,531.438c11.566,0.351,17.525,6.66,17.525,19.63c-0.35,12.97-5.959,19.279-16.826,19.629
		c-24.887,0.701-43.465,1.052-55.383,1.402c-11.568,1.052-17.176-5.608-16.826-19.279c0.701-11.918,5.258-18.578,14.373-19.63
		C1077.137,532.49,1096.067,531.789,1119.553,531.438z"/>
</g>
</svg>
