<?xml version="1.0" encoding="utf-8"?>
<!-- Generator: Adobe Illustrator 16.0.3, SVG Export Plug-In . SVG Version: 6.00 Build 0)  -->
<!DOCTYPE svg PUBLIC "-//W3C//DTD SVG 1.1//EN" "http://www.w3.org/Graphics/SVG/1.1/DTD/svg11.dtd">
<svg version="1.1"
	 id="svg5121" xmlns:rdf="http://www.w3.org/1999/02/22-rdf-syntax-ns#" xmlns:svg="http://www.w3.org/2000/svg" xmlns:cc="http://creativecommons.org/ns#" xmlns:dc="http://purl.org/dc/elements/1.1/"
	 xmlns="http://www.w3.org/2000/svg" xmlns:xlink="http://www.w3.org/1999/xlink" x="0px" y="0px" width="483.033px"
	 height="314.428px" viewBox="339.97 418.917 483.033 314.428" enable-background="new 339.97 418.917 483.033 314.428"
	 xml:space="preserve">
<g>
	<path fill="#009B87" d="M422.695,634.494c-7.011,0-13.671-2.103-19.63-6.66c-5.959-4.557-9.815-9.814-11.918-16.825
		l-50.477-168.605c-0.701-1.753-0.701-3.506-0.701-5.258c0-3.856,1.052-7.361,3.505-10.867c3.505-4.907,8.413-7.361,14.722-7.361
		h5.608c7.011,0,13.671,2.104,19.279,6.66c5.608,4.558,9.464,10.166,11.217,17.527l18.579,73.962
		c2.103,8.063,4.907,19.279,8.413,34.352c3.505,15.073,6.31,26.29,8.063,34.002c0.351,0.351,0.351,0.701,1.052,0.701
		c0.351,0,0.701-0.351,1.051-0.701c1.753-7.361,4.558-18.929,8.063-34.002c3.506-15.072,6.31-26.64,8.413-34.352l18.578-73.962
		c1.753-7.011,5.258-12.97,10.866-17.527c5.608-4.557,11.918-6.66,19.279-6.66h3.506c5.959,0,10.866,2.454,14.722,7.361
		c2.454,3.506,3.506,7.011,3.506,10.867c0,1.752-0.351,3.505-0.701,5.258l-50.477,168.605c-2.104,7.011-6.31,12.619-12.269,16.825
		c-5.959,4.207-12.269,6.66-19.63,6.66H422.695z"/>
	<path fill="#009B87" d="M519.792,730.891c-3.855,0-7.36-1.402-10.165-4.206c-2.804-2.805-4.206-6.31-4.206-10.166v-69.405
		c0-3.505,1.052-6.31,3.505-8.763c2.454-2.454,5.258-3.506,8.764-3.506h1.052c3.154,0,5.959,1.052,8.412,3.155
		c2.454,2.104,3.856,4.557,4.558,7.712v1.051c0,0.351,0,0.351,0.351,0.351c0.35,0,0.35,0,0.7,0
		c4.558-4.557,9.114-8.062,13.671-10.516c4.558-2.454,9.465-3.855,15.424-3.855c11.918,0,20.331,4.907,25.589,14.371
		c0.351,0.351,0.351,0.701,1.052,0.701c0.351,0,0.701,0,1.051-0.351c4.558-4.557,9.114-8.062,13.671-10.866
		c4.558-2.454,9.465-3.855,15.073-3.855c10.165,0,17.526,3.505,22.434,10.165c4.908,6.66,7.361,16.475,7.361,28.743v44.868
		c0,3.856-1.402,7.361-4.206,10.166c-2.805,2.804-6.31,4.206-10.165,4.206h-1.402c-3.856,0-7.361-1.402-10.166-4.206
		c-2.804-2.805-4.206-6.31-4.206-10.166v-41.362c0-6.31-0.701-10.866-2.454-13.32c-1.752-2.454-4.557-3.855-8.412-3.855
		c-4.207,0-9.114,2.453-14.021,7.361c-0.701,0.701-1.052,1.752-1.052,2.804v48.022c0,3.856-1.402,7.361-4.206,10.166
		c-2.805,2.804-6.31,4.206-10.166,4.206h-1.402c-3.855,0-7.36-1.401-10.165-4.206c-2.804-2.805-4.206-6.31-4.206-10.166v-41.362
		c0-6.31-0.701-10.866-2.454-13.32s-4.557-3.855-8.413-3.855c-4.206,0-9.113,2.454-14.021,7.361
		c-0.701,0.701-1.052,1.752-1.052,2.804v48.023c0,3.855-1.402,7.361-4.206,10.165c-2.805,2.804-6.31,4.206-10.166,4.206h-1.753
		V730.891z"/>
	<path fill="#009B87" d="M681.738,733.345c-8.413,0-15.424-2.805-20.682-8.413s-7.712-12.619-7.712-20.682
		c0-10.165,4.207-17.877,12.269-23.485c8.413-5.608,21.383-9.464,39.26-11.567c1.052,0,1.402-0.701,1.402-1.753
		c-1.052-7.011-5.959-10.866-14.021-10.866c-4.557,0-9.814,1.052-15.072,3.505c-1.753,0.701-3.155,1.052-4.908,1.052
		c-1.052,0-2.453-0.351-3.855-0.701c-2.805-1.052-5.258-2.804-6.66-5.258c-1.052-1.753-1.402-3.505-1.402-5.608
		c0-1.052,0-2.104,0.351-3.155c1.052-2.804,2.805-5.258,5.608-6.309c10.517-4.908,21.032-7.361,31.548-7.361
		c25.939,0,38.909,14.722,38.909,43.816v42.414c0,3.505-1.052,6.31-3.505,8.764c-2.454,2.453-5.258,3.505-8.413,3.505h-3.505
		c-2.454,0-4.908-0.701-7.011-2.454c-2.104-1.752-3.155-3.505-3.856-6.31v-0.7c0-0.352-0.351-0.352-0.351-0.352
		c-0.351,0-0.351,0-0.351,0C699.966,729.488,690.852,733.345,681.738,733.345z M691.903,709.858c4.557,0,9.114-2.103,13.32-6.31
		c0.701-0.701,1.052-1.752,1.052-2.804v-11.918c0-0.351,0-0.701-0.351-1.052s-0.701-0.351-1.052-0.351l0,0
		c-15.423,2.454-23.135,7.011-23.135,14.372c0,2.804,1.052,4.907,2.804,6.31C686.295,709.508,688.749,709.858,691.903,709.858z"/>
	<path fill="#009B87" d="M747.288,730.891c-3.155,0-5.609-1.402-7.011-4.206c-0.701-1.402-1.052-2.805-1.052-4.207
		c0-1.401,0.351-2.804,1.052-4.206l21.382-35.754c0.701-1.052,0.701-2.104,0-2.805l-19.279-32.249
		c-0.701-1.401-1.052-2.804-1.052-4.206s0.351-2.805,1.052-4.207c1.402-2.804,3.856-4.206,7.011-4.206h3.506
		c4.557,0,8.412,1.052,12.269,3.506c3.855,2.453,6.66,5.258,8.763,9.113l1.052,2.104c2.454,5.258,5.258,10.516,7.712,16.124
		c0,0.351,0.351,0.351,0.701,0.351s0.351,0,0.351-0.351c0.701-2.103,1.752-4.907,3.505-8.763c1.402-3.856,2.454-6.31,2.805-7.361
		l0.701-1.402c1.752-3.855,4.206-7.011,7.711-9.814c3.506-2.454,7.361-3.856,11.919-3.856h2.453c3.155,0,5.608,1.402,7.361,4.207
		c0.701,1.402,1.052,2.804,1.052,4.206s-0.351,2.805-1.052,4.206l-19.63,35.755c-0.701,1.052-0.701,1.753,0,2.804l21.032,32.95
		c1.051,1.402,1.402,2.805,1.402,4.206c0,1.052-0.352,2.454-1.052,3.856c-1.402,2.804-3.856,4.206-7.011,4.206h-3.506
		c-4.557,0-8.412-1.051-12.269-3.154c-3.855-2.104-7.011-5.258-9.113-9.114l-1.402-2.804c-4.206-8.413-7.011-13.671-8.413-16.125
		c0-0.351-0.351-0.351-0.701-0.351s-0.351,0-0.701,0.351c-2.103,4.557-4.557,9.815-7.01,16.125l-0.701,1.752
		c-1.753,4.207-4.558,7.361-8.063,9.815c-3.855,2.454-7.712,3.505-11.918,3.505H747.288L747.288,730.891z"/>
</g>
</svg>
