<?xml version="1.0" encoding="UTF-8" standalone="no"?>
<!-- Generator: Adobe Illustrator 19.0.0, SVG Export Plug-In . SVG Version: 6.00 Build 0)  -->

<svg
   version="1.1"
   id="Ebene_1"
   x="0px"
   y="0px"
   viewBox="-315.2 384.7 148.6 162.00628"
   xml:space="preserve"
   sodipodi:docname="arduino_down.svg"
   width="148.60001"
   height="162.00629"
   inkscape:version="1.1.1 (3bf5ae0d25, 2021-09-20)"
   xmlns:inkscape="http://www.inkscape.org/namespaces/inkscape"
   xmlns:sodipodi="http://sodipodi.sourceforge.net/DTD/sodipodi-0.dtd"
   xmlns="http://www.w3.org/2000/svg"
   xmlns:svg="http://www.w3.org/2000/svg"><defs
   id="defs41" /><sodipodi:namedview
   id="namedview39"
   pagecolor="#ffffff"
   bordercolor="#666666"
   borderopacity="1.0"
   inkscape:pageshadow="2"
   inkscape:pageopacity="0.0"
   inkscape:pagecheckerboard="0"
   showgrid="false"
   fit-margin-top="0"
   fit-margin-left="0"
   fit-margin-right="0"
   fit-margin-bottom="0"
   inkscape:zoom="0.49167176"
   inkscape:cx="625.41725"
   inkscape:cy="995.5829"
   inkscape:window-width="2560"
   inkscape:window-height="1537"
   inkscape:window-x="-8"
   inkscape:window-y="-8"
   inkscape:window-maximized="1"
   inkscape:current-layer="Ebene_1" />
<g
   id="g36"
   transform="translate(766.1,345.4)">
	<path
   d="m -1034.3,94.9 c -1.5,-0.4 -3.3,-0.4 -5.2,-0.7 h -0.4 -0.7 c -0.4,0 -0.7,0 -1.1,0 -5.6,0 -11.2,3.4 -15.2,8.6 -4.1,5.6 -5.2,12.7 -2.6,18.2 v 0.4 c 2.6,6.3 8.6,10.8 16,11.9 7.4,1.5 14.9,-0.8 19.3,-5.6 v 0 0 c 4.1,-4.1 7.1,-8.9 10.4,-14.1 -4.5,-8.7 -11.2,-16.5 -20.5,-18.7 z m 5.5,20.4 h -21.2 v -4.5 h 21.2 z"
   id="path26" />
	<path
   d="m -966.2,95.9 c -7.1,-3 -14.9,-2.6 -20.1,1.1 v 0 c -6,3.7 -10.4,9.7 -14.5,16 3,6 9.7,17.1 21.6,19.7 v 0 0 c 5.9,1.9 12.6,0 17.8,-4.8 5.6,-4.8 8.2,-11.5 7.1,-17.9 -0.4,-5.6 -5.6,-11.1 -11.9,-14.1 z m -1.1,20.2 h -6.3 v 6 h -5.6 v -6 h -6 v -5.6 h 6 v -6 h 5.6 v 6 h 6.3 z"
   id="path28" />
	<g
   id="g34">
		<g
   id="g32">
			<path
   d="m -1007,39.3 c -41.3,0 -74.3,33.4 -74.3,74.3 0,25.1 12.4,47.2 31.3,60.6 l 33.1,24.2 c 2.7,1.9 6.4,3 10.2,2.9 3.4,-0.1 6.7,-1.1 9.2,-2.9 l 34.8,-25.1 c 18.3,-13.6 30,-35.3 30,-59.7 0,-41.3 -33.4,-74.3 -74.3,-74.3 z m 52.7,97.1 c -5.9,5.2 -13,8.2 -20.1,8.2 -2.6,0 -5.2,-0.4 -7.4,-1.1 -6.7,-1.5 -12.7,-4.8 -17.9,-10.4 -2.6,-2.6 -5.2,-6 -7.4,-9.3 -2.6,3.7 -5.2,7.8 -8.9,11.2 -3.3,3.7 -8.2,6.7 -13.4,8.2 -4.8,1.5 -10.1,1.5 -15.3,0.8 -5.2,-0.8 -10.1,-3 -14.1,-6 -4.5,-3.3 -7.8,-7.4 -9.7,-12.3 -1.9,-4.5 -2.6,-9.7 -1.9,-14.9 0.8,-4.8 2.6,-9.3 5.6,-13.4 3,-4.1 6.7,-7.4 10.8,-9.7 4.4,-2.2 9.3,-3.3 14.1,-3.3 h 0.4 c 3,0 5.6,0.4 7.8,0.7 6.7,1.5 12.7,5.2 18.2,10.8 2.6,2.6 4.8,5.2 6.7,8.2 3.7,-5.6 8.6,-11.2 14.9,-14.9 4.5,-3 9.3,-4.5 14.9,-4.8 5.2,-0.4 10.4,0.7 15.3,3 10.1,4.5 17.1,12.7 18.6,22.7 0.7,4.8 0,10.4 -1.9,15.3 -2.2,3.7 -5.6,7.7 -9.3,11 z"
   id="path30" />
		</g>
	</g>
</g>
</svg>
