<?xml version="1.0" encoding="UTF-8" standalone="no"?>
<!-- Generator: Adobe Illustrator 19.0.0, SVG Export Plug-In . SVG Version: 6.00 Build 0)  -->

<svg
   version="1.1"
   id="Ebene_1"
   x="0px"
   y="0px"
   viewBox="547.8 30.2 162.2 151.40685"
   xml:space="preserve"
   sodipodi:docname="controlscript_down.svg"
   width="162.2"
   height="151.40685"
   inkscape:version="1.1.1 (3bf5ae0d25, 2021-09-20)"
   xmlns:inkscape="http://www.inkscape.org/namespaces/inkscape"
   xmlns:sodipodi="http://sodipodi.sourceforge.net/DTD/sodipodi-0.dtd"
   xmlns="http://www.w3.org/2000/svg"
   xmlns:svg="http://www.w3.org/2000/svg"><defs
   id="defs598" /><sodipodi:namedview
   id="namedview596"
   pagecolor="#ffffff"
   bordercolor="#666666"
   borderopacity="1.0"
   inkscape:pageshadow="2"
   inkscape:pageopacity="0.0"
   inkscape:pagecheckerboard="0"
   showgrid="false"
   fit-margin-top="0"
   fit-margin-left="0"
   fit-margin-right="0"
   fit-margin-bottom="0"
   inkscape:zoom="0.90782828"
   inkscape:cx="523.77747"
   inkscape:cy="425.74131"
   inkscape:window-width="2560"
   inkscape:window-height="1537"
   inkscape:window-x="-8"
   inkscape:window-y="-8"
   inkscape:window-maximized="1"
   inkscape:current-layer="Ebene_1" />
<g
   id="g593"
   transform="translate(547.8,30.2)">
	<g
   id="g585">
		<g
   id="g583">
			<path
   d="M 92.6,0 C 57.1,0 28.1,26.4 23.7,60.4 H 41 c 0.3,0 0.4,0.2 0.2,0.5 l -1.3,2 c -0.2,0.2 -0.5,0.5 -0.8,0.5 H 23.3 c -0.1,1.4 -0.2,2.7 -0.2,4.1 h 14 c 0.3,0 0.5,0.2 0.4,0.5 l -0.6,1.8 c -0.1,0.3 -0.4,0.5 -0.7,0.5 H 23.1 c 0,1.4 0.1,2.8 0.2,4.2 h 12.2 c 0.3,0 0.5,0.2 0.5,0.5 l -0.2,1.8 c 0,0.3 -0.3,0.5 -0.5,0.5 L 23.6,77.2 c 2.2,20.2 13.1,37.8 28.8,48.9 l 31,22.6 c 2.6,1.8 6,2.8 9.5,2.7 3.2,-0.1 6.2,-1 8.6,-2.7 l 32.6,-23.4 c 17.1,-12.7 28.1,-33 28.1,-55.8 C 162,30.8 130.8,0 92.6,0 Z m 36,103.1 c -2,0.4 -4.1,0.5 -6.1,0.7 -6.9,-0.2 -13.2,-2.1 -18.5,-6.7 -3.7,-3.2 -6.3,-7.2 -7.6,-11.8 -0.9,1.8 -2,3.5 -3.2,5.2 -5.5,7.2 -12.6,11.7 -21.6,12.9 -7.4,1 -14.3,-0.5 -20.4,-5 -5.6,-4.2 -8.8,-9.9 -9.6,-16.8 -1,-8.3 1.4,-15.7 6.4,-22.2 5.4,-7.1 12.5,-11.5 21.2,-13.1 7.1,-1.3 14,-0.5 20.1,3.7 4,2.7 6.9,6.3 8.8,10.7 0.5,0.7 0.2,1.1 -0.8,1.3 -4.8,1.2 -8,2.1 -12.7,3.3 -1.1,0.3 -1.2,0.4 -2.2,-0.8 -1.1,-1.3 -2,-2.1 -3.6,-2.9 C 74,59.2 69.4,59.9 65.1,62.7 60,66 57.4,70.9 57.4,77 c 0.1,6.1 4.2,11.1 10.2,11.9 5.2,0.7 9.5,-1.1 12.9,-5 0.7,-0.8 1.3,-1.7 2,-2.8 H 68 c -1.6,0 -2,-1 -1.4,-2.3 1,-2.4 2.8,-6.3 3.9,-8.3 0.2,-0.5 0.8,-1.2 1.9,-1.2 h 24.4 c 1.1,-3.5 2.9,-6.8 5.2,-9.9 5.5,-7.3 12.2,-11.1 21.2,-12.7 7.7,-1.4 15,-0.6 21.6,3.9 6,4.1 9.7,9.6 10.7,16.9 1.3,10.2 -1.7,18.6 -8.7,25.7 -5,5.2 -11.2,8.4 -18.2,9.9 z m -3.7,-42.6 c -7.1,1.6 -11.6,6.1 -13.3,13.2 -1.4,5.9 1.5,11.9 7,14.3 4.2,1.8 8.3,1.6 12.4,-0.5 6,-3.1 9.3,-8 9.6,-14.5 -0.1,-1 -0.1,-1.7 -0.2,-2.5 -1.4,-7.4 -8.3,-11.7 -15.5,-10 z"
   id="path581" />
		</g>
	</g>
	<path
   d="m 11.6,63.1 c -0.1,0 -0.2,-0.2 -0.1,-0.4 l 0.7,-2 c 0.1,-0.2 0.2,-0.4 0.4,-0.4 H 24 c 0.1,0 0.2,0.2 0.1,0.5 l -0.5,2 c -0.1,0.2 -0.2,0.5 -0.3,0.5 z"
   id="path587" />
	<path
   d="M 0.2,70.1 C 0,70.1 0,70 0,69.7 l 1,-2 c 0.1,-0.2 0.3,-0.4 0.5,-0.4 h 21.8 c 0.2,0 0.3,0.2 0.2,0.5 l -0.4,1.8 c 0,0.3 -0.2,0.5 -0.4,0.5 z"
   id="path589" />
	<path
   d="m 18.4,77.1 c -0.1,0 -0.1,-0.2 -0.1,-0.5 l 0.3,-1.9 c 0,-0.2 0.1,-0.5 0.2,-0.5 h 4.5 c 0.1,0 0.1,0.2 0.1,0.5 v 1.8 c 0,0.3 -0.1,0.5 -0.2,0.5 z"
   id="path591" />
</g>
</svg>
