<?xml version="1.0" encoding="utf-8"?>
<!-- Generator: Adobe Illustrator 19.0.0, SVG Export Plug-In . SVG Version: 6.00 Build 0)  -->
<svg version="1.1" id="Ebene_1" xmlns="http://www.w3.org/2000/svg" xmlns:xlink="http://www.w3.org/1999/xlink" x="0px" y="0px"
	 viewBox="547.8 30.2 612 792" style="enable-background:new 547.8 30.2 612 792;" xml:space="preserve">
<style type="text/css">
	.st0{display:none;fill:#49AD3C;}
	.st1{display:none;}
	.st2{display:inline;}
</style>
<symbol  id="a" viewBox="-32 -32 64 64">
	<path d="M22.6,22.6C16.4,28.9,8.2,32,0,32c-8.2,0-16.4-3.1-22.6-9.4c-12.5-12.5-12.5-32.8,0-45.3C-16.4-28.9-8.2-32,0-32
		c8.2,0,16.4,3.1,22.6,9.4C35.1-10.1,35.1,10.1,22.6,22.6z M19.1-19.1C14-24.2,7.2-27,0-27s-14,2.8-19.1,7.9
		c-10.5,10.5-10.5,27.7,0,38.2C-14,24.2-7.2,27,0,27s14-2.8,19.1-7.9v0C24.2,14,27,7.2,27,0C27-7.2,24.2-14,19.1-19.1z"/>
	<path d="M0,17c-2.6,0-4.7-2.1-4.7-4.7c0-2.6,2.1-4.7,4.7-4.7c2.6,0,4.7,2.1,4.7,4.7C4.7,14.9,2.6,17,0,17z"/>
	<polygon points="-4.3,-17 4.3,-17 4.3,4.1 -4.3,4.1 	"/>
</symbol>
<circle id="XMLID_2_" class="st0" cx="81" cy="81" r="81"/>
<use xlink:href="#a"  width="64" height="64" x="-32" y="-32" transform="matrix(2.5299 0 0 -2.5299 81.065 81.4709)" style="overflow:visible;"/>
<path d="M160.7,133.1L90.1,11c-3.9-6.7-13.6-6.7-17.5,0L2.1,133.1c-3.9,6.7,0.9,15.2,8.7,15.2h141
	C159.8,148.3,164.5,139.8,160.7,133.1z M79.1,48.4c4.3-1.1,8.5,1.1,10.5,5c0.7,1.4,0.9,3,0.7,4.4c-0.4,4.4-0.5,8.9-0.7,13.5
	c-0.4,6.9-0.9,14-1.2,20.9c-0.2,2.1-0.2,4.3-0.4,6.6c-0.2,3.7-3,6.6-6.7,6.6c-3.5,0-6.6-2.8-6.7-6.4c-0.5-10.8-1.2-21.6-1.8-32.4
	c-0.2-2.8-0.4-5.8-0.5-8.7C72.2,53.5,75.1,49.5,79.1,48.4z M81.4,129.5c-5,0-8.9-4.1-8.9-9s4.1-9,9-9c5,0,8.9,4.1,8.9,9.2
	C90.3,125.5,86.2,129.5,81.4,129.5z"/>
<g class="st1">
	<g transform="translate(4.000000, 4.000000)" class="st2">
		<path d="M111.5,101c3.3,3.3,3.3,7.3,0.4,10.2c-2.9,3.1-7,2.9-10.2-0.4c-8.1-7.9-16-15.8-24-24c-7.9,7.9-16.1,16-24,24
			c-3.3,3.3-7.3,3.3-10.2,0.4c-3.1-2.9-2.9-7,0.4-10.2c7.9-8.1,15.8-16,24-24c-7.9-7.9-16-16-24-24c-3.3-3.3-3.3-7.3-0.4-10.2
			c2.9-3.1,7-2.9,10.2,0.4c8.1,7.9,16,15.8,24,24c7.9-7.9,16-16,24-24c3.3-3.3,7.3-3.3,10.2-0.4c3.1,2.9,2.9,7-0.4,10.2
			c-7.9,8.1-15.8,16-24,24C95.7,84.9,103.6,93.1,111.5,101 M77.5-4.1C32.7-4.1-3.6,32.2-3.6,77c0,44.8,36.3,81.2,81.2,81.2
			c44.8,0,81.2-36.3,81.2-81.2C158.7,32.2,122.3-4.1,77.5-4.1"/>
	</g>
</g>
<path class="st1" d="M80.2,1.6c-44.2,0-80,35.8-80,80s35.8,80,80,80c44.2,0,80-35.8,80-80S124.4,1.6,80.2,1.6z M75.2,34.8h10V87h-10
	V34.8z M80.2,128.5c-25.8,0-46.9-21.2-46.9-47.3c0-9.7,3-19.2,8.5-27.2c5.4-7.8,13-13.7,21.8-17.1l3.5,9.4
	c-14.3,5.4-23.9,19.5-23.9,34.9c0,20.5,16.6,37.3,36.9,37.3c20.4,0,36.9-16.7,36.9-37.3c0-15.4-9.6-29.4-23.9-34.9l3.5-9.4
	c8.8,3.4,16.4,9.3,21.8,17.1c5.6,8,8.5,17.5,8.5,27.2C127.1,107.3,106.1,128.5,80.2,128.5z"/>
<g class="st1">
	<path class="st2" d="M81,163.5c3.8,0,6.8-3,6.8-6.8c0-3.7-3-6.8-6.8-6.8c-18.1,0-35.2-7.1-48-19.9c-12.8-12.8-19.9-29.9-19.9-48
		c0-18.1,7.1-35.2,19.9-48l9.6,9.6V14.8H13.8l9.6,9.6l0,0C8,39.8-0.5,60.2-0.5,82c0,21.8,8.5,42.2,23.9,57.6
		C38.8,155,59.2,163.5,81,163.5z"/>
	<path class="st2" d="M155.7,75.3c-3.7,0-6.8,3-6.8,6.8c0,3.7,3,6.8,6.8,6.8c3.8,0,6.8-3,6.8-6.8C162.5,78.3,159.5,75.3,155.7,75.3z
		"/>
	<path class="st2" d="M156.9,53.5c0-3.7-3-6.8-6.8-6.8c-3.7,0-6.8,3-6.8,6.8c0,3.7,3,6.8,6.8,6.8C153.8,60.3,156.9,57.2,156.9,53.5z
		"/>
	<path class="st2" d="M133.8,22.4c-3.8,0-6.8,3-6.8,6.8c0,3.7,3,6.8,6.8,6.8c3.7,0,6.8-3,6.8-6.8C140.6,25.4,137.6,22.4,133.8,22.4z
		"/>
	<path class="st2" d="M150,117.4c3.8,0,6.8-3,6.8-6.8c0-3.8-3-6.8-6.8-6.8c-3.7,0-6.8,3-6.8,6.8C143.3,114.4,146.3,117.4,150,117.4z
		"/>
	<path class="st2" d="M133.8,128.1c-3.8,0-6.8,3-6.8,6.8c0,3.7,3,6.8,6.8,6.8c3.7,0,6.8-3,6.8-6.8
		C140.6,131.1,137.6,128.1,133.8,128.1z"/>
	<path class="st2" d="M109.6,157.8c3.8,0,6.8-3,6.8-6.8c0-3.8-3-6.8-6.8-6.8c-3.7,0-6.8,3-6.8,6.8
		C102.8,154.8,105.9,157.8,109.6,157.8z"/>
	<path class="st2" d="M81,118.2c20,0,36.2-16.3,36.2-36.2c0-15.2-9.4-28.2-22.6-33.6V64c5.5,4.1,9.1,10.7,9.1,18.1
		c0,12.5-10.2,22.6-22.6,22.6c-12.5,0-22.6-10.2-22.6-22.6c0-7.4,3.6-13.9,9.1-18.1V48.5C54.2,53.8,44.8,66.8,44.8,82
		C44.8,102,61,118.2,81,118.2z"/>
	<rect x="74.2" y="36.7" class="st2" width="13.6" height="40.8"/>
	<path class="st2" d="M103.3,10.4c-1.4,3.5,0.2,7.4,3.7,8.9c0.9,0.3,1.7,0.5,2.6,0.5c2.7,0,5.2-1.6,6.3-4.2c1.4-3.5-0.2-7.4-3.7-8.9
		C108.7,5.2,104.7,6.9,103.3,10.4z"/>
	<path class="st2" d="M81,14.1c3.7,0,6.8-3,6.8-6.8c0-3.7-3-6.8-6.8-6.8c-3.8,0-6.8,3-6.8,6.8C74.2,11.1,77.2,14.1,81,14.1z"/>
</g>
<g class="st1">
	<path class="st2" d="M53.2,69.3c-1.5-0.4-3.3-0.4-5.2-0.7h-0.4h-0.7c-0.4,0-0.7,0-1.1,0c-5.6,0-11.1,3.3-15.2,8.5
		c-4.1,5.6-5.2,12.6-2.6,18.2v0.4c2.6,6.3,8.5,10.8,16,11.9c7.4,1.5,14.8-0.7,19.3-5.6l0,0l0,0c4.1-4.1,7.1-8.9,10.4-14.1
		C69.2,79.3,62.5,71.5,53.2,69.3z M58.8,89.7H37.7v-4.5h21.1V89.7z"/>
	<path class="st2" d="M121.2,70.4c-7.1-3-14.8-2.6-20,1.1l0,0c-5.9,3.7-10.4,9.6-14.5,15.9c3,5.9,9.7,17.1,21.5,19.7l0,0l0,0
		c5.9,1.9,12.6,0,17.8-4.8c5.6-4.8,8.2-11.5,7.1-17.8C132.6,79,127.5,73.4,121.2,70.4z M120,90.5h-6.3v5.9h-5.6v-5.9h-5.9v-5.6h5.9
		V79h5.6v5.9h6.3V90.5z"/>
	<g class="st2">
		<g>
			<path d="M124.6,28.2l-34.7-25c-2.5-1.7-5.7-2.8-9.1-2.8c-3.8-0.1-7.4,0.9-10.2,2.8l-33,24.1C18.8,40.6,6.5,62.6,6.5,87.7
				c0,40.8,32.9,74.1,74.1,74.1c40.8,0,74-32.9,74-74.1C154.6,63.3,142.8,41.7,124.6,28.2z M133,110.9c-5.9,5.2-13,8.2-20,8.2
				c-2.6,0-5.2-0.4-7.4-1.1c-6.7-1.5-12.6-4.8-17.8-10.4c-2.6-2.6-5.2-5.9-7.4-9.3c-2.6,3.7-5.2,7.8-8.9,11.1
				c-3.3,3.7-8.2,6.7-13.4,8.2c-4.8,1.5-10,1.5-15.2,0.7c-5.2-0.7-10-3-14.1-5.9c-4.5-3.3-7.8-7.4-9.7-12.2
				c-1.9-4.5-2.6-9.6-1.9-14.8c0.8-4.8,2.6-9.3,5.6-13.4c3-4.1,6.7-7.4,10.8-9.6c4.4-2.2,9.3-3.3,14.1-3.3h0.4c3,0,5.6,0.4,7.8,0.7
				c6.7,1.5,12.6,5.2,18.2,10.8c2.6,2.6,4.8,5.2,6.7,8.2c3.7-5.6,8.5-11.1,14.8-14.8c4.4-3,9.3-4.5,14.8-4.8
				c5.2-0.4,10.4,0.7,15.2,3c10,4.5,17.1,12.6,18.6,22.6c0.7,4.8,0,10.4-1.9,15.2C140.1,103.4,136.7,107.5,133,110.9z"/>
		</g>
	</g>
</g>
<g class="st1">
	<path class="st2" d="M53.7,55.7c-1.5-0.4-3.3-0.4-5.2-0.7h-0.4h-0.7c-0.4,0-0.7,0-1.1,0c-5.6,0-11.2,3.4-15.2,8.6
		c-4.1,5.6-5.2,12.7-2.6,18.2v0.4c2.6,6.3,8.6,10.8,16,11.9c7.4,1.5,14.9-0.8,19.3-5.6l0,0l0,0c4.1-4.1,7.1-8.9,10.4-14.1
		C69.7,65.7,63,57.9,53.7,55.7z M59.2,76.1H38v-4.5h21.2V76.1z"/>
	<path class="st2" d="M121.8,56.8c-7.1-3-14.9-2.6-20.1,1.1l0,0c-6,3.7-10.4,9.7-14.5,16c3,6,9.7,17.1,21.6,19.7l0,0l0,0
		c5.9,1.9,12.6,0,17.8-4.8c5.6-4.8,8.2-11.5,7.1-17.9C133.3,65.3,128.1,59.7,121.8,56.8z M120.7,76.9h-6.3v6h-5.6v-6h-6v-5.6h6v-6
		h5.6v6h6.3V76.9z"/>
	<g class="st2">
		<g>
			<path d="M81,0.1C39.7,0.1,6.7,33.5,6.7,74.4c0,25.1,12.4,47.2,31.3,60.6l33.1,24.2c2.7,1.9,6.4,3,10.2,2.9
				c3.4-0.1,6.7-1.1,9.2-2.9l34.8-25.1c18.3-13.6,30-35.3,30-59.7C155.3,33.1,121.9,0.1,81,0.1z M133.7,97.3
				c-5.9,5.2-13,8.2-20.1,8.2c-2.6,0-5.2-0.4-7.4-1.1c-6.7-1.5-12.7-4.8-17.9-10.4c-2.6-2.6-5.2-6-7.4-9.3
				c-2.6,3.7-5.2,7.8-8.9,11.2c-3.3,3.7-8.2,6.7-13.4,8.2c-4.8,1.5-10.1,1.5-15.3,0.8c-5.2-0.8-10.1-3-14.1-6
				c-4.5-3.3-7.8-7.4-9.7-12.3c-1.9-4.5-2.6-9.7-1.9-14.9c0.8-4.8,2.6-9.3,5.6-13.4c3-4.1,6.7-7.4,10.8-9.7
				c4.4-2.2,9.3-3.3,14.1-3.3h0.4c3,0,5.6,0.4,7.8,0.7c6.7,1.5,12.7,5.2,18.2,10.8c2.6,2.6,4.8,5.2,6.7,8.2
				c3.7-5.6,8.6-11.2,14.9-14.9c4.5-3,9.3-4.5,14.9-4.8c5.2-0.4,10.4,0.7,15.3,3c10.1,4.5,17.1,12.7,18.6,22.7
				c0.7,4.8,0,10.4-1.9,15.3C140.8,89.9,137.4,94,133.7,97.3z"/>
		</g>
	</g>
</g>
<g id="Raspberry" class="st1">
	<path class="st2" d="M64.7,60.3C53.6,58.2,44.6,64.8,45,76.7C45.4,81.2,68.7,60.7,64.7,60.3z"/>
	<path class="st2" d="M56.1,57c3.7,0.4,13.9,0,15.5-7.8c-3.7-4.1-10.6-9-22.5-15.1c9.4,3.3,17.6,7.4,24.6,13.1
		c8.2-3.7,2.5-13.5-1.6-17.6c0,1.2-0.4,1.6-0.8,2.1c-1.2-1.2-2.5-2.9-4.1-4.1c0,0.8,0.4,1.6-0.4,2.4c-0.8-1.2-2.1-2.4-3.7-3.2
		c0.8,1.2,0,1.6-0.4,2.4c-1.2-1.2-2.5-2.1-4.5-2.9c0.8,0.8,1.6,1.6,0.4,2.5c-1.2-0.8-2.5-1.7-5.7-2.1c0.8,0.8,2.1,1.6,1.2,2.4
		c-1.6-0.8-3.3-1.2-5.3-1.2c0.8,0.8,1.6,1.6,0.8,2c-1.6-0.4-4.1-1.2-6.6-0.8l1.6,1.6c0,0-3.3,0-5.7,0c0.8,1.2,1.6,2.5,2.1,4.5
		c-0.4,0.4-1.2,0-2.5,0c1.2,2.4,3.3,2.9,3.7,4.1c-0.8,0.4-1.6,0.4-2.9,0c0.8,1.6,2.5,2.9,3.7,4.1c-0.4,0.4-0.8,0.4-2.4,0.4
		c1.2,1.2,2.9,2.4,4.5,3.7C44.6,48,43.8,48,42.5,48c1.6,1.6,3.7,2.5,5.7,3.3c-0.8,0.8-1.6,0.4-2.5,0.4c1.2,1.2,3.7,1.6,5.7,2.4
		C51.1,55,50.7,55,49.9,55c2.5,1.2,5.7,0.8,6.5,1.2C57.7,56.2,56.9,56.6,56.1,57z"/>
	<path class="st2" d="M43.4,81.6c-10.7,6.1-8.6,19.2-2.9,24.1C45.4,108.2,49.5,79.9,43.4,81.6z"/>
	<path class="st2" d="M45.4,107.4c-2.5,2-3.3,8.6,0.8,15.5c5.7,7.8,13.5,8.6,16.4,7c3.3-2.5,1.6-11.1-2.5-16
		C55.2,108.2,49.1,104.9,45.4,107.4z"/>
	<path class="st2" d="M95.4,60.3c-4.1,0.8,19.3,21.3,19.7,16.4C115.4,65.2,106,58.7,95.4,60.3z"/>
	<path class="st2" d="M67.9,65.2c0,3.7,5.3,7.4,13.1,7.4c7.8,0,13.1-2.9,13.1-6.5c0-4.1-7.4-8.6-13.1-8.6
		C74.1,57,67.9,62.3,67.9,65.2z"/>
	<path class="st2" d="M87.6,46.8c7-5.7,15.1-9.8,24.6-13.1c-11.9,6.1-18.8,11.1-22.5,15.2c2.1,7.8,11.9,8.2,15.5,7.8
		c-0.8-0.4-1.2-0.8-1.6-1.2c0.8-0.8,4.1,0,6.5-1.2c-0.8,0-1.2-0.4-1.6-0.8c2.1-0.8,4.5-1.2,5.7-2.5c-0.8,0-1.6,0-2.4-0.4
		c2-1.2,4.1-2.1,5.7-3.3c-0.8,0-2.1,0-2.5-0.4c1.6-1.2,3.3-2.5,4.5-3.7c-1.2,0-2,0-2.5-0.4c1.2-1.2,2.9-2.4,3.7-4.1
		c-1.2,0.4-2.1,0.4-2.9,0c0.4-1.2,2.5-1.6,3.7-4.1c-1.2,0-2.5,0.4-2.5,0c0.4-2.1,1.2-3.3,2.1-4.5c-2.5,0-5.7,0-5.7,0l1.6-1.6
		c-2.4-0.8-4.5,0-6.5,0.8c-0.8-0.4,0-1.2,0.8-2.1c-2,0.4-3.7,0.8-5.3,1.2c-0.8-0.8,0.4-1.6,1.2-2.4c-2.9,0.4-4.1,1.2-5.7,2
		c-0.8-0.8,0-1.6,0.4-2.5c-2.5,0.8-3.3,2.1-4.5,2.9c-0.4-0.4-1.2-0.8-0.4-2.4c-1.6,0.8-2.9,2-3.7,3.2c-0.8-0.8-0.4-1.6-0.4-2.4
		c-1.6,1.2-2.9,2.9-4.1,4.1c-0.4,0-0.4-0.8-0.8-2C85.1,33.3,79.4,43.1,87.6,46.8z"/>
	<path class="st2" d="M81,130.3c-5.7,0-14.3,2.5-14.3,5.3c0,2.1,6.9,8.2,13.9,7.8c6.9,0,13.9-6.2,13.9-8.6
		C94.6,132,86.8,129.9,81,130.3z"/>
	<path class="st2" d="M116.7,81.2c-6.5-1.6-2,26.2,2.9,24.1C125.7,100.8,127.3,87.3,116.7,81.2z"/>
	<path class="st2" d="M80.6,0.9C35.6,0.9-0.4,37.4-0.4,82c0,45,36.4,81.1,81.1,81.1c45,0,81.1-36.4,81.1-81.1
		C161.7,36.9,125.3,0.9,80.6,0.9z M124.4,107.8c-0.8,3.3-1.6,5.7-2.5,8.6c-1.2,11.1-10.7,16.4-13.1,16.8c-3.7,2.9-7.4,5.3-12.7,7
		c-4.9,4.9-10.2,7-15.5,7c0,0,0,0-0.4,0c-5.3,0-10.6-2.1-15.5-7c-5.3-1.6-9-4.5-12.7-7c-2.5-0.4-11.9-5.7-13.1-16.8
		c-0.8-2.9-2.1-5.3-2.5-8.6c-9.8-11.1-3.7-24.6,3.3-28.7l0.8-1.6c0-11.5,5.3-16,11-19.7c-1.6-0.4-3.7-0.8-4.1-3.2
		c-3.3-0.8-3.7-2.5-4.1-3.7c-0.8-0.4-3.7-2-3.3-4.9c-1.6-1.2-2.4-2.5-2-4.5c-1.6-1.6-2.1-3.2-1.2-4.9c-2-2.5-1.2-3.7-0.4-4.9
		c-1.6-2.9,0-5.7,4.1-5.4c1.6-2.4,5.3-2.1,5.7-2.1c0.8-0.8,1.6-1.6,4.1-1.2c1.6-1.7,3.3-1.2,5.3-0.4c0.8-0.4,1.6-0.8,2.1-0.8
		c1.2,0,2,0.8,3.3,1.2c2.9-0.8,3.3,0.4,4.5,0.8c2.9-0.8,3.7,0.8,5.3,2.1h1.6c4.5,2.4,6.5,8.2,7.4,10.6c0.8-2.9,2.9-8.2,7.4-10.6h1.6
		c1.2-1.7,2.4-2.9,5.3-2.1c1.2-0.4,2.1-1.6,4.5-0.8c1.6-0.4,3.3-2.1,5.3,0c2.1-0.8,3.7-0.8,5.3,0.4c2.5-0.4,3.3,0.4,4.1,1.2
		c0.4,0,4.1-0.4,5.7,2.1c4.1-0.4,5.3,2.4,4.1,5.3c0.8,1.2,1.6,2.5-0.4,4.9c0.8,1.2,0.4,2.9-1.2,4.9c0.4,2.1-0.4,3.3-2.1,4.5
		c0.4,2.9-2.5,4.1-3.3,4.9c-0.4,1.6-0.8,2.9-4.1,3.7c-0.4,2.5-2.5,2.9-4.1,3.3c6.1,3.7,11.1,8.2,11.1,19.6l0.8,1.6
		C128.1,83.2,134.3,96.7,124.4,107.8z"/>
	<path class="st2" d="M75.3,95.1c4.5-6.9,3.7-15.5-2.5-19.6c-5.7-3.7-14.3-1.2-18.8,5.7c-4.5,7-3.7,15.5,2.5,19.6
		C62.2,104.5,70.4,102,75.3,95.1z"/>
	<path class="st2" d="M101.5,112.3c-4.5,5.3-7,14.8-3.7,17.6c2.9,2.4,11.5,2.1,17.2-6.5c4.5-5.7,2.9-15.2,0.4-17.6
		C111.8,102.9,106.4,106.5,101.5,112.3z"/>
	<path class="st2" d="M81,99.6c7.9,0,14.3,5.9,14.3,13.1c0,7.2-6.4,13.1-14.3,13.1c-7.9,0-14.3-5.9-14.3-13.1
		C66.7,105.4,73.1,99.6,81,99.6z"/>
	<path class="st2" d="M105.2,100c5.7-3.7,7-12.7,2.5-19.6c-4.5-7-13.1-9.4-18.8-5.7c-5.8,3.7-7,12.7-2.5,19.6
		C90.9,101.2,99.5,103.7,105.2,100z"/>
</g>
<g class="st1">
	<g class="st2">
		<g>
			<path d="M134,38.8l-32.1-23.1c-2.3-1.6-5.3-2.6-8.4-2.6c-3.5-0.1-6.9,0.8-9.4,2.6L53.4,37.9C41.7,46.3,32.6,58.3,28,72.3h12.7
				c0.3,0,0.4,0.2,0.2,0.5l-1.3,2c-0.2,0.2-0.5,0.5-0.8,0.5l-11.8,0c-0.4,1.3-0.7,2.7-1,4.1h10.7c0.3,0,0.5,0.2,0.4,0.5l-0.6,1.8
				c-0.1,0.3-0.4,0.5-0.7,0.5l-10.3,0c-0.2,1.4-0.4,2.8-0.6,4.2h10.2c0.3,0,0.5,0.2,0.5,0.5l-0.2,1.8c0,0.3-0.3,0.5-0.5,0.5l-10.2,0
				c-0.1,1.6-0.2,3.2-0.2,4.9c0,37.7,30.5,68.5,68.5,68.5c37.7,0,68.5-30.5,68.5-68.5C161.7,71.3,150.8,51.3,134,38.8z M127.3,114.6
				c-2,0.4-4.1,0.5-6,0.7c-6.8-0.1-13.1-2.1-18.3-6.6c-3.7-3.2-6.2-7.1-7.5-11.7c-0.9,1.8-1.9,3.5-3.2,5.1
				c-5.4,7.1-12.5,11.6-21.4,12.8c-7.4,1-14.2-0.4-20.2-5c-5.6-4.2-8.7-9.8-9.5-16.7c-1-8.2,1.4-15.5,6.4-22c5.3-7,12.4-11.4,21-13
				c7.1-1.3,13.8-0.5,19.9,3.7c4,2.6,6.8,6.2,8.7,10.6c0.5,0.7,0.1,1.1-0.8,1.3c-4.7,1.2-8,2.1-12.6,3.3c-1.1,0.3-1.2,0.4-2.2-0.8
				c-1.1-1.3-2-2.1-3.5-2.9c-4.7-2.3-9.3-1.7-13.6,1.1c-5.1,3.3-7.7,8.2-7.7,14.3c0.1,6,4.2,11,10.1,11.8c5.1,0.7,9.4-1.1,12.8-5
				c0.7-0.8,1.3-1.7,2-2.8H67.3c-1.6,0-2-1-1.4-2.3c1-2.3,2.8-6.2,3.8-8.2c0.2-0.5,0.8-1.2,1.9-1.2h24.2c1.1-3.4,2.8-6.7,5.2-9.8
				c5.5-7.2,12.1-11,21-12.5c7.7-1.4,14.9-0.6,21.4,3.8c5.9,4.1,9.6,9.5,10.6,16.7c1.3,10.1-1.7,18.4-8.6,25.5
				C140.3,110,134.3,113.2,127.3,114.6z M123.6,72.5c-7,1.6-11.5,6-13.1,13.1c-1.4,5.9,1.5,11.8,6.9,14.2c4.1,1.8,8.3,1.6,12.2-0.5
				c5.9-3.1,9.2-7.9,9.5-14.3c-0.1-1-0.1-1.7-0.2-2.5C137.6,75,130.7,70.8,123.6,72.5z"/>
		</g>
	</g>
	<path class="st2" d="M11.5,75.1c-0.2,0-0.2-0.1-0.1-0.4l0.9-2c0.1-0.2,0.3-0.4,0.5-0.4h15.3c0.2,0,0.2,0.2,0.1,0.5l-0.7,2
		c-0.1,0.2-0.3,0.5-0.4,0.5L11.5,75.1z"/>
	<path class="st2" d="M0.2,82c-0.2,0-0.3-0.2-0.2-0.4l1.1-2c0.1-0.2,0.4-0.4,0.6-0.4h24.4c0.2,0,0.3,0.2,0.3,0.5L26,81.5
		c-0.1,0.3-0.3,0.5-0.5,0.5L0.2,82z"/>
	<path class="st2" d="M18.3,88.9c-0.1,0-0.2-0.2-0.1-0.5l0.4-1.9c0.1-0.2,0.2-0.5,0.3-0.5h6.1c0.1,0,0.2,0.2,0.2,0.5l-0.1,1.8
		c0,0.3-0.1,0.5-0.2,0.5L18.3,88.9z"/>
</g>
<g class="st1">
	<g class="st2">
		<g>
			<path d="M92.6,0C57.1,0,28.1,26.4,23.7,60.4H41c0.3,0,0.4,0.2,0.2,0.5l-1.3,2c-0.2,0.2-0.5,0.5-0.8,0.5l-15.8,0
				c-0.1,1.4-0.2,2.7-0.2,4.1h14c0.3,0,0.5,0.2,0.4,0.5l-0.6,1.8c-0.1,0.3-0.4,0.5-0.7,0.5l-13.1,0c0,1.4,0.1,2.8,0.2,4.2h12.2
				c0.3,0,0.5,0.2,0.5,0.5l-0.2,1.8c0,0.3-0.3,0.5-0.5,0.5l-11.7-0.1c2.2,20.2,13.1,37.8,28.8,48.9l31,22.6c2.6,1.8,6,2.8,9.5,2.7
				c3.2-0.1,6.2-1,8.6-2.7l32.6-23.4c17.1-12.7,28.1-33,28.1-55.8C162,30.8,130.8,0,92.6,0z M128.6,103.1c-2,0.4-4.1,0.5-6.1,0.7
				c-6.9-0.2-13.2-2.1-18.5-6.7c-3.7-3.2-6.3-7.2-7.6-11.8c-0.9,1.8-2,3.5-3.2,5.2c-5.5,7.2-12.6,11.7-21.6,12.9
				c-7.4,1-14.3-0.5-20.4-5c-5.6-4.2-8.8-9.9-9.6-16.8c-1-8.3,1.4-15.7,6.4-22.2c5.4-7.1,12.5-11.5,21.2-13.1
				c7.1-1.3,14-0.5,20.1,3.7c4,2.7,6.9,6.3,8.8,10.7c0.5,0.7,0.2,1.1-0.8,1.3c-4.8,1.2-8,2.1-12.7,3.3c-1.1,0.3-1.2,0.4-2.2-0.8
				c-1.1-1.3-2-2.1-3.6-2.9c-4.8-2.4-9.4-1.7-13.7,1.1C60,66,57.4,70.9,57.4,77c0.1,6.1,4.2,11.1,10.2,11.9c5.2,0.7,9.5-1.1,12.9-5
				c0.7-0.8,1.3-1.7,2-2.8H68c-1.6,0-2-1-1.4-2.3c1-2.4,2.8-6.3,3.9-8.3c0.2-0.5,0.8-1.2,1.9-1.2h24.4c1.1-3.5,2.9-6.8,5.2-9.9
				c5.5-7.3,12.2-11.1,21.2-12.7c7.7-1.4,15-0.6,21.6,3.9c6,4.1,9.7,9.6,10.7,16.9c1.3,10.2-1.7,18.6-8.7,25.7
				C141.8,98.4,135.6,101.6,128.6,103.1z M124.9,60.5c-7.1,1.6-11.6,6.1-13.3,13.2c-1.4,5.9,1.5,11.9,7,14.3
				c4.2,1.8,8.3,1.6,12.4-0.5c6-3.1,9.3-8,9.6-14.5c-0.1-1-0.1-1.7-0.2-2.5C139,63.1,132.1,58.8,124.9,60.5z"/>
		</g>
	</g>
	<path class="st2" d="M11.6,63.1c-0.1,0-0.2-0.2-0.1-0.4l0.7-2c0.1-0.2,0.2-0.4,0.4-0.4H24c0.1,0,0.2,0.2,0.1,0.5l-0.5,2
		c-0.1,0.2-0.2,0.5-0.3,0.5L11.6,63.1z"/>
	<path class="st2" d="M0.2,70.1C0,70.1,0,70,0,69.7l1-2c0.1-0.2,0.3-0.4,0.5-0.4h21.8c0.2,0,0.3,0.2,0.2,0.5l-0.4,1.8
		c0,0.3-0.2,0.5-0.4,0.5L0.2,70.1z"/>
	<path class="st2" d="M18.4,77.1c-0.1,0-0.1-0.2-0.1-0.5l0.3-1.9c0-0.2,0.1-0.5,0.2-0.5h4.5c0.1,0,0.1,0.2,0.1,0.5l0,1.8
		c0,0.3-0.1,0.5-0.2,0.5L18.4,77.1z"/>
</g>
</svg>
