<?xml version="1.0" encoding="UTF-8" standalone="no"?>
<!-- Generator: Adobe Illustrator 19.0.0, SVG Export Plug-In . SVG Version: 6.00 Build 0)  -->

<svg
   version="1.1"
   id="Ebene_1"
   x="0px"
   y="0px"
   viewBox="229.3 365.2 162.2 162.2"
   xml:space="preserve"
   sodipodi:docname="raspberry.svg"
   width="162.2"
   height="162.2"
   inkscape:version="1.1.1 (3bf5ae0d25, 2021-09-20)"
   xmlns:inkscape="http://www.inkscape.org/namespaces/inkscape"
   xmlns:sodipodi="http://sodipodi.sourceforge.net/DTD/sodipodi-0.dtd"
   xmlns:xlink="http://www.w3.org/1999/xlink"
   xmlns="http://www.w3.org/2000/svg"
   xmlns:svg="http://www.w3.org/2000/svg"><defs
   id="defs2222" /><sodipodi:namedview
   id="namedview2220"
   pagecolor="#ffffff"
   bordercolor="#666666"
   borderopacity="1.0"
   inkscape:pageshadow="2"
   inkscape:pageopacity="0.0"
   inkscape:pagecheckerboard="0"
   showgrid="false"
   fit-margin-top="0"
   fit-margin-left="0"
   fit-margin-right="0"
   fit-margin-bottom="0"
   inkscape:zoom="0.90782828"
   inkscape:cx="749.5911"
   inkscape:cy="740.77886"
   inkscape:window-width="2560"
   inkscape:window-height="1537"
   inkscape:window-x="-8"
   inkscape:window-y="-8"
   inkscape:window-maximized="1"
   inkscape:current-layer="Ebene_1" />
<style
   type="text/css"
   id="style2094">
	.st0{display:none;fill:#49AD3C;}
	.st1{display:none;}
	.st2{display:inline;}
</style>
<symbol
   id="a"
   viewBox="-32 -32 63.9 64"
   transform="translate(773.7,344.7)">
	<path
   d="M 22.6,22.6 C 16.4,28.9 8.2,32 0,32 c -8.2,0 -16.4,-3.1 -22.6,-9.4 -12.5,-12.5 -12.5,-32.8 0,-45.3 6.2,-6.2 14.4,-9.3 22.6,-9.3 8.2,0 16.4,3.1 22.6,9.4 12.5,12.5 12.5,32.7 0,45.2 z M 19.1,-19.1 C 14,-24.2 7.2,-27 0,-27 c -7.2,0 -14,2.8 -19.1,7.9 -10.5,10.5 -10.5,27.7 0,38.2 C -14,24.2 -7.2,27 0,27 7.2,27 14,24.2 19.1,19.1 v 0 C 24.2,14 27,7.2 27,0 27,-7.2 24.2,-14 19.1,-19.1 Z"
   id="path2096" />
	<path
   d="m 0,17 c -2.6,0 -4.7,-2.1 -4.7,-4.7 0,-2.6 2.1,-4.7 4.7,-4.7 2.6,0 4.7,2.1 4.7,4.7 C 4.7,14.9 2.6,17 0,17 Z"
   id="path2098" />
	<polygon
   points="4.3,4.1 -4.3,4.1 -4.3,-17 4.3,-17 "
   id="polygon2100" />
</symbol>
<circle
   id="XMLID_2_"
   class="st0"
   cx="310.70001"
   cy="445.29999"
   r="81" />
<use
   xlink:href="#a"
   width="63.900002"
   height="64"
   x="-32"
   y="-32"
   transform="matrix(2.5299,0,0,-2.5299,-1646.6186,1317.7774)"
   style="display:none;overflow:visible"
   id="use2104" />
<g
   class="st1"
   id="g2110"
   transform="translate(773.7,344.7)">
	<g
   transform="translate(4,4)"
   class="st2"
   id="g2108">
		<path
   d="m -432.5,120.6 c 3.3,3.3 3.3,7.3 0.4,10.2 -2.9,3.1 -7,2.9 -10.2,-0.4 -8.1,-7.9 -16,-15.8 -24,-24 -7.9,7.9 -16.1,16 -24,24 -3.3,3.3 -7.3,3.3 -10.2,0.4 -3.1,-2.9 -2.9,-7 0.4,-10.2 7.9,-8.1 15.8,-16 24,-24 -7.9,-7.9 -16,-16 -24,-24 -3.3,-3.3 -3.3,-7.3 -0.4,-10.2 2.9,-3.1 7,-2.9 10.2,0.4 8.1,7.9 16,15.8 24,24 7.9,-7.9 16,-16 24,-24 3.3,-3.3 7.3,-3.3 10.2,-0.4 3.1,2.9 2.9,7 -0.4,10.2 -7.9,8.1 -15.8,16 -24,24 8.2,7.9 16.1,16.1 24,24 m -34,-105.1 c -44.8,0 -81.1,36.3 -81.1,81.1 0,44.8 36.3,81.2 81.2,81.2 44.8,0 81.2,-36.3 81.2,-81.2 -0.1,-44.8 -36.5,-81.1 -81.3,-81.1"
   id="path2106" />
	</g>
</g>
<path
   class="st1"
   d="m 309.9,365.9 c -44.2,0 -80,35.8 -80,80 0,44.2 35.8,80 80,80 44.2,0 80,-35.8 80,-80 0,-44.2 -35.8,-80 -80,-80 z m -5,33.2 h 10 v 52.2 h -10 z m 5,93.7 c -25.8,0 -46.9,-21.2 -46.9,-47.3 0,-9.7 3,-19.2 8.5,-27.2 5.4,-7.8 13,-13.7 21.8,-17.1 l 3.5,9.4 c -14.3,5.4 -23.9,19.5 -23.9,34.9 0,20.5 16.6,37.3 36.9,37.3 20.4,0 36.9,-16.7 36.9,-37.3 0,-15.4 -9.6,-29.4 -23.9,-34.9 l 3.5,-9.4 c 8.8,3.4 16.4,9.3 21.8,17.1 5.6,8 8.5,17.5 8.5,27.2 0.2,26.1 -20.8,47.3 -46.7,47.3 z"
   id="path2112" />
<g
   class="st1"
   id="g2136"
   transform="translate(773.7,344.7)">
	<path
   class="st2"
   d="m -463,183.1 c 3.8,0 6.8,-3 6.8,-6.8 0,-3.7 -3,-6.8 -6.8,-6.8 -18.1,0 -35.2,-7.1 -48,-19.9 -12.8,-12.8 -19.9,-29.9 -19.9,-48 0,-18.1 7.1,-35.2 19.9,-48 l 9.6,9.6 V 34.4 h -28.8 l 9.6,9.6 v 0 c -15.4,15.4 -23.9,35.8 -23.9,57.6 0,21.8 8.5,42.2 23.9,57.6 15.4,15.4 35.8,23.9 57.6,23.9 z"
   id="path2114" />
	<path
   class="st2"
   d="m -388.3,94.9 c -3.7,0 -6.8,3 -6.8,6.8 0,3.7 3,6.8 6.8,6.8 3.8,0 6.8,-3 6.8,-6.8 0,-3.8 -3,-6.8 -6.8,-6.8 z"
   id="path2116" />
	<path
   class="st2"
   d="m -387.1,73.1 c 0,-3.7 -3,-6.8 -6.8,-6.8 -3.7,0 -6.8,3 -6.8,6.8 0,3.7 3,6.8 6.8,6.8 3.7,0 6.8,-3.1 6.8,-6.8 z"
   id="path2118" />
	<path
   class="st2"
   d="m -410.2,42 c -3.8,0 -6.8,3 -6.8,6.8 0,3.7 3,6.8 6.8,6.8 3.7,0 6.8,-3 6.8,-6.8 0,-3.8 -3,-6.8 -6.8,-6.8 z"
   id="path2120" />
	<path
   class="st2"
   d="m -394,137 c 3.8,0 6.8,-3 6.8,-6.8 0,-3.8 -3,-6.8 -6.8,-6.8 -3.7,0 -6.8,3 -6.8,6.8 0.1,3.8 3.1,6.8 6.8,6.8 z"
   id="path2122" />
	<path
   class="st2"
   d="m -410.2,147.7 c -3.8,0 -6.8,3 -6.8,6.8 0,3.7 3,6.8 6.8,6.8 3.7,0 6.8,-3 6.8,-6.8 0,-3.8 -3,-6.8 -6.8,-6.8 z"
   id="path2124" />
	<path
   class="st2"
   d="m -434.4,177.4 c 3.8,0 6.8,-3 6.8,-6.8 0,-3.8 -3,-6.8 -6.8,-6.8 -3.7,0 -6.8,3 -6.8,6.8 0,3.8 3.1,6.8 6.8,6.8 z"
   id="path2126" />
	<path
   class="st2"
   d="m -463,137.8 c 20,0 36.2,-16.3 36.2,-36.2 0,-15.2 -9.4,-28.2 -22.6,-33.6 v 15.6 c 5.5,4.1 9.1,10.7 9.1,18.1 0,12.5 -10.2,22.6 -22.6,22.6 -12.5,0 -22.6,-10.2 -22.6,-22.6 0,-7.4 3.6,-13.9 9.1,-18.1 V 68.1 c -13.4,5.3 -22.8,18.3 -22.8,33.5 0,20 16.2,36.2 36.2,36.2 z"
   id="path2128" />
	<rect
   x="-469.79999"
   y="56.299999"
   class="st2"
   width="13.6"
   height="40.799999"
   id="rect2130" />
	<path
   class="st2"
   d="m -440.7,30 c -1.4,3.5 0.2,7.4 3.7,8.9 0.9,0.3 1.7,0.5 2.6,0.5 2.7,0 5.2,-1.6 6.3,-4.2 1.4,-3.5 -0.2,-7.4 -3.7,-8.9 -3.5,-1.5 -7.5,0.2 -8.9,3.7 z"
   id="path2132" />
	<path
   class="st2"
   d="m -463,33.7 c 3.7,0 6.8,-3 6.8,-6.8 0,-3.7 -3,-6.8 -6.8,-6.8 -3.8,0 -6.8,3 -6.8,6.8 0,3.8 3,6.8 6.8,6.8 z"
   id="path2134" />
</g>
<g
   class="st1"
   id="g2148"
   transform="translate(773.7,344.7)">
	<path
   class="st2"
   d="m -490.8,88.9 c -1.5,-0.4 -3.3,-0.4 -5.2,-0.7 h -0.4 -0.7 c -0.4,0 -0.7,0 -1.1,0 -5.6,0 -11.1,3.3 -15.2,8.5 -4.1,5.6 -5.2,12.6 -2.6,18.2 v 0.4 c 2.6,6.3 8.5,10.8 16,11.9 7.4,1.5 14.8,-0.7 19.3,-5.6 v 0 0 c 4.1,-4.1 7.1,-8.9 10.4,-14.1 -4.5,-8.6 -11.2,-16.4 -20.5,-18.6 z m 5.6,20.4 h -21.1 v -4.5 h 21.1 c 0,0 0,4.5 0,4.5 z"
   id="path2138" />
	<path
   class="st2"
   d="m -422.8,90 c -7.1,-3 -14.8,-2.6 -20,1.1 v 0 c -5.9,3.7 -10.4,9.6 -14.5,15.9 3,5.9 9.7,17.1 21.5,19.7 v 0 0 c 5.9,1.9 12.6,0 17.8,-4.8 5.6,-4.8 8.2,-11.5 7.1,-17.8 -0.5,-5.5 -5.6,-11.1 -11.9,-14.1 z m -1.2,20.1 h -6.3 v 5.9 h -5.6 v -5.9 h -5.9 v -5.6 h 5.9 v -5.9 h 5.6 v 5.9 h 6.3 z"
   id="path2140" />
	<g
   class="st2"
   id="g2146">
		<g
   id="g2144">
			<path
   d="m -419.4,47.8 -34.7,-25 c -2.5,-1.7 -5.7,-2.8 -9.1,-2.8 -3.8,-0.1 -7.4,0.9 -10.2,2.8 l -33,24.1 c -18.8,13.3 -31.1,35.3 -31.1,60.4 0,40.8 32.9,74.1 74.1,74.1 40.8,0 74,-32.9 74,-74.1 0,-24.4 -11.8,-46 -30,-59.5 z m 8.4,82.7 c -5.9,5.2 -13,8.2 -20,8.2 -2.6,0 -5.2,-0.4 -7.4,-1.1 -6.7,-1.5 -12.6,-4.8 -17.8,-10.4 -2.6,-2.6 -5.2,-5.9 -7.4,-9.3 -2.6,3.7 -5.2,7.8 -8.9,11.1 -3.3,3.7 -8.2,6.7 -13.4,8.2 -4.8,1.5 -10,1.5 -15.2,0.7 -5.2,-0.7 -10,-3 -14.1,-5.9 -4.5,-3.3 -7.8,-7.4 -9.7,-12.2 -1.9,-4.5 -2.6,-9.6 -1.9,-14.8 0.8,-4.8 2.6,-9.3 5.6,-13.4 3,-4.1 6.7,-7.4 10.8,-9.6 4.4,-2.2 9.3,-3.3 14.1,-3.3 h 0.4 c 3,0 5.6,0.4 7.8,0.7 6.7,1.5 12.6,5.2 18.2,10.8 2.6,2.6 4.8,5.2 6.7,8.2 3.7,-5.6 8.5,-11.1 14.8,-14.8 4.4,-3 9.3,-4.5 14.8,-4.8 5.2,-0.4 10.4,0.7 15.2,3 10,4.5 17.1,12.6 18.6,22.6 0.7,4.8 0,10.4 -1.9,15.2 -2.2,3.4 -5.6,7.5 -9.3,10.9 z"
   id="path2142" />
		</g>
	</g>
</g>
<g
   class="st1"
   id="g2160"
   transform="translate(773.7,344.7)">
	<path
   class="st2"
   d="m -490.3,75.3 c -1.5,-0.4 -3.3,-0.4 -5.2,-0.7 h -0.4 -0.7 c -0.4,0 -0.7,0 -1.1,0 -5.6,0 -11.2,3.4 -15.2,8.6 -4.1,5.6 -5.2,12.7 -2.6,18.2 v 0.4 c 2.6,6.3 8.6,10.8 16,11.9 7.4,1.5 14.9,-0.8 19.3,-5.6 v 0 0 c 4.1,-4.1 7.1,-8.9 10.4,-14.1 -4.5,-8.7 -11.2,-16.5 -20.5,-18.7 z m 5.5,20.4 H -506 v -4.5 h 21.2 z"
   id="path2150" />
	<path
   class="st2"
   d="m -422.2,76.4 c -7.1,-3 -14.9,-2.6 -20.1,1.1 v 0 c -6,3.7 -10.4,9.7 -14.5,16 3,6 9.7,17.1 21.6,19.7 v 0 0 c 5.9,1.9 12.6,0 17.8,-4.8 5.6,-4.8 8.2,-11.5 7.1,-17.9 -0.4,-5.6 -5.6,-11.2 -11.9,-14.1 z m -1.1,20.1 h -6.3 v 6 h -5.6 v -6 h -6 v -5.6 h 6 v -6 h 5.6 v 6 h 6.3 z"
   id="path2152" />
	<g
   class="st2"
   id="g2158">
		<g
   id="g2156">
			<path
   d="m -463,19.7 c -41.3,0 -74.3,33.4 -74.3,74.3 0,25.1 12.4,47.2 31.3,60.6 l 33.1,24.2 c 2.7,1.9 6.4,3 10.2,2.9 3.4,-0.1 6.7,-1.1 9.2,-2.9 l 34.8,-25.1 c 18.3,-13.6 30,-35.3 30,-59.7 0,-41.3 -33.4,-74.3 -74.3,-74.3 z m 52.7,97.2 c -5.9,5.2 -13,8.2 -20.1,8.2 -2.6,0 -5.2,-0.4 -7.4,-1.1 -6.7,-1.5 -12.7,-4.8 -17.9,-10.4 -2.6,-2.6 -5.2,-6 -7.4,-9.3 -2.6,3.7 -5.2,7.8 -8.9,11.2 -3.3,3.7 -8.2,6.7 -13.4,8.2 -4.8,1.5 -10.1,1.5 -15.3,0.8 -5.2,-0.8 -10.1,-3 -14.1,-6 -4.5,-3.3 -7.8,-7.4 -9.7,-12.3 -1.9,-4.5 -2.6,-9.7 -1.9,-14.9 0.8,-4.8 2.6,-9.3 5.6,-13.4 3,-4.1 6.7,-7.4 10.8,-9.7 4.4,-2.2 9.3,-3.3 14.1,-3.3 h 0.4 c 3,0 5.6,0.4 7.8,0.7 6.7,1.5 12.7,5.2 18.2,10.8 2.6,2.6 4.8,5.2 6.7,8.2 3.7,-5.6 8.6,-11.2 14.9,-14.9 4.5,-3 9.3,-4.5 14.9,-4.8 5.2,-0.4 10.4,0.7 15.3,3 10.1,4.5 17.1,12.7 18.6,22.7 0.7,4.8 0,10.4 -1.9,15.3 -2.2,3.6 -5.6,7.7 -9.3,11 z"
   id="path2154" />
		</g>
	</g>
</g>
<g
   id="Raspberry"
   transform="translate(773.7,344.7)">
	<path
   d="m -479.3,79.9 c -11.1,-2.1 -20.1,4.5 -19.7,16.4 0.4,4.5 23.7,-16 19.7,-16.4 z"
   id="path2162" />
	<path
   d="m -487.9,76.6 c 3.7,0.4 13.9,0 15.5,-7.8 -3.7,-4.1 -10.6,-9 -22.5,-15.1 9.4,3.3 17.6,7.4 24.6,13.1 8.2,-3.7 2.5,-13.5 -1.6,-17.6 0,1.2 -0.4,1.6 -0.8,2.1 -1.2,-1.2 -2.5,-2.9 -4.1,-4.1 0,0.8 0.4,1.6 -0.4,2.4 -0.8,-1.2 -2.1,-2.4 -3.7,-3.2 0.8,1.2 0,1.6 -0.4,2.4 -1.2,-1.2 -2.5,-2.1 -4.5,-2.9 0.8,0.8 1.6,1.6 0.4,2.5 -1.2,-0.8 -2.5,-1.7 -5.7,-2.1 0.8,0.8 2.1,1.6 1.2,2.4 -1.6,-0.8 -3.3,-1.2 -5.3,-1.2 0.8,0.8 1.6,1.6 0.8,2 -1.6,-0.4 -4.1,-1.2 -6.6,-0.8 l 1.6,1.6 c 0,0 -3.3,0 -5.7,0 0.8,1.2 1.6,2.5 2.1,4.5 -0.4,0.4 -1.2,0 -2.5,0 1.2,2.4 3.3,2.9 3.7,4.1 -0.8,0.4 -1.6,0.4 -2.9,0 0.8,1.6 2.5,2.9 3.7,4.1 -0.4,0.4 -0.8,0.4 -2.4,0.4 1.2,1.2 2.9,2.4 4.5,3.7 -0.5,0.5 -1.3,0.5 -2.6,0.5 1.6,1.6 3.7,2.5 5.7,3.3 -0.8,0.8 -1.6,0.4 -2.5,0.4 1.2,1.2 3.7,1.6 5.7,2.4 -0.3,0.9 -0.7,0.9 -1.5,0.9 2.5,1.2 5.7,0.8 6.5,1.2 1.3,0 0.5,0.4 -0.3,0.8 z"
   id="path2164" />
	<path
   d="m -500.6,101.2 c -10.7,6.1 -8.6,19.2 -2.9,24.1 4.9,2.5 9,-25.8 2.9,-24.1 z"
   id="path2166" />
	<path
   d="m -498.6,127 c -2.5,2 -3.3,8.6 0.8,15.5 5.7,7.8 13.5,8.6 16.4,7 3.3,-2.5 1.6,-11.1 -2.5,-16 -4.9,-5.7 -11,-9 -14.7,-6.5 z"
   id="path2168" />
	<path
   d="m -448.6,79.9 c -4.1,0.8 19.3,21.3 19.7,16.4 0.3,-11.5 -9.1,-18 -19.7,-16.4 z"
   id="path2170" />
	<path
   d="m -476.1,84.8 c 0,3.7 5.3,7.4 13.1,7.4 7.8,0 13.1,-2.9 13.1,-6.5 0,-4.1 -7.4,-8.6 -13.1,-8.6 -6.9,-0.5 -13.1,4.8 -13.1,7.7 z"
   id="path2172" />
	<path
   d="m -456.4,66.4 c 7,-5.7 15.1,-9.8 24.6,-13.1 -11.9,6.1 -18.8,11.1 -22.5,15.2 2.1,7.8 11.9,8.2 15.5,7.8 -0.8,-0.4 -1.2,-0.8 -1.6,-1.2 0.8,-0.8 4.1,0 6.5,-1.2 -0.8,0 -1.2,-0.4 -1.6,-0.8 2.1,-0.8 4.5,-1.2 5.7,-2.5 -0.8,0 -1.6,0 -2.4,-0.4 2,-1.2 4.1,-2.1 5.7,-3.3 -0.8,0 -2.1,0 -2.5,-0.4 1.6,-1.2 3.3,-2.5 4.5,-3.7 -1.2,0 -2,0 -2.5,-0.4 1.2,-1.2 2.9,-2.4 3.7,-4.1 -1.2,0.4 -2.1,0.4 -2.9,0 0.4,-1.2 2.5,-1.6 3.7,-4.1 -1.2,0 -2.5,0.4 -2.5,0 0.4,-2.1 1.2,-3.3 2.1,-4.5 -2.5,0 -5.7,0 -5.7,0 l 1.6,-1.6 c -2.4,-0.8 -4.5,0 -6.5,0.8 -0.8,-0.4 0,-1.2 0.8,-2.1 -2,0.4 -3.7,0.8 -5.3,1.2 -0.8,-0.8 0.4,-1.6 1.2,-2.4 -2.9,0.4 -4.1,1.2 -5.7,2 -0.8,-0.8 0,-1.6 0.4,-2.5 -2.5,0.8 -3.3,2.1 -4.5,2.9 -0.4,-0.4 -1.2,-0.8 -0.4,-2.4 -1.6,0.8 -2.9,2 -3.7,3.2 -0.8,-0.8 -0.4,-1.6 -0.4,-2.4 -1.6,1.2 -2.9,2.9 -4.1,4.1 -0.4,0 -0.4,-0.8 -0.8,-2 -2.9,4.4 -8.6,14.2 -0.4,17.9 z"
   id="path2174" />
	<path
   d="m -463,149.9 c -5.7,0 -14.3,2.5 -14.3,5.3 0,2.1 6.9,8.2 13.9,7.8 6.9,0 13.9,-6.2 13.9,-8.6 0.1,-2.8 -7.7,-4.9 -13.5,-4.5 z"
   id="path2176" />
	<path
   d="m -427.3,100.8 c -6.5,-1.6 -2,26.2 2.9,24.1 6.1,-4.5 7.7,-18 -2.9,-24.1 z"
   id="path2178" />
	<path
   d="m -463.4,20.5 c -45,0 -81,36.5 -81,81.1 0,45 36.4,81.1 81.1,81.1 45,0 81.1,-36.4 81.1,-81.1 -0.1,-45.1 -36.5,-81.1 -81.2,-81.1 z m 43.8,106.9 c -0.8,3.3 -1.6,5.7 -2.5,8.6 -1.2,11.1 -10.7,16.4 -13.1,16.8 -3.7,2.9 -7.4,5.3 -12.7,7 -4.9,4.9 -10.2,7 -15.5,7 0,0 0,0 -0.4,0 -5.3,0 -10.6,-2.1 -15.5,-7 -5.3,-1.6 -9,-4.5 -12.7,-7 -2.5,-0.4 -11.9,-5.7 -13.1,-16.8 -0.8,-2.9 -2.1,-5.3 -2.5,-8.6 -9.8,-11.1 -3.7,-24.6 3.3,-28.7 l 0.8,-1.6 c 0,-11.5 5.3,-16 11,-19.7 -1.6,-0.4 -3.7,-0.8 -4.1,-3.2 -3.3,-0.8 -3.7,-2.5 -4.1,-3.7 -0.8,-0.4 -3.7,-2 -3.3,-4.9 -1.6,-1.2 -2.4,-2.5 -2,-4.5 -1.6,-1.6 -2.1,-3.2 -1.2,-4.9 -2,-2.5 -1.2,-3.7 -0.4,-4.9 -1.6,-2.9 0,-5.7 4.1,-5.4 1.6,-2.4 5.3,-2.1 5.7,-2.1 0.8,-0.8 1.6,-1.6 4.1,-1.2 1.6,-1.7 3.3,-1.2 5.3,-0.4 0.8,-0.4 1.6,-0.8 2.1,-0.8 1.2,0 2,0.8 3.3,1.2 2.9,-0.8 3.3,0.4 4.5,0.8 2.9,-0.8 3.7,0.8 5.3,2.1 h 1.6 c 4.5,2.4 6.5,8.2 7.4,10.6 0.8,-2.9 2.9,-8.2 7.4,-10.6 h 1.6 c 1.2,-1.7 2.4,-2.9 5.3,-2.1 1.2,-0.4 2.1,-1.6 4.5,-0.8 1.6,-0.4 3.3,-2.1 5.3,0 2.1,-0.8 3.7,-0.8 5.3,0.4 2.5,-0.4 3.3,0.4 4.1,1.2 0.4,0 4.1,-0.4 5.7,2.1 4.1,-0.4 5.3,2.4 4.1,5.3 0.8,1.2 1.6,2.5 -0.4,4.9 0.8,1.2 0.4,2.9 -1.2,4.9 0.4,2.1 -0.4,3.3 -2.1,4.5 0.4,2.9 -2.5,4.1 -3.3,4.9 -0.4,1.6 -0.8,2.9 -4.1,3.7 -0.4,2.5 -2.5,2.9 -4.1,3.3 6.1,3.7 11.1,8.2 11.1,19.6 l 0.8,1.6 c 8.3,3.8 14.5,17.3 4.6,28.4 z"
   id="path2180" />
	<path
   d="m -468.7,114.7 c 4.5,-6.9 3.7,-15.5 -2.5,-19.6 -5.7,-3.7 -14.3,-1.2 -18.8,5.7 -4.5,7 -3.7,15.5 2.5,19.6 5.7,3.7 13.9,1.2 18.8,-5.7 z"
   id="path2182" />
	<path
   d="m -442.5,131.9 c -4.5,5.3 -7,14.8 -3.7,17.6 2.9,2.4 11.5,2.1 17.2,-6.5 4.5,-5.7 2.9,-15.2 0.4,-17.6 -3.6,-2.9 -9,0.7 -13.9,6.5 z"
   id="path2184" />
	<path
   d="m -463,119.2 c 7.9,0 14.3,5.9 14.3,13.1 0,7.2 -6.4,13.1 -14.3,13.1 -7.9,0 -14.3,-5.9 -14.3,-13.1 0,-7.3 6.4,-13.1 14.3,-13.1 z"
   id="path2186" />
	<path
   d="m -438.8,119.6 c 5.7,-3.7 7,-12.7 2.5,-19.6 -4.5,-7 -13.1,-9.4 -18.8,-5.7 -5.8,3.7 -7,12.7 -2.5,19.6 4.5,6.9 13.1,9.4 18.8,5.7 z"
   id="path2188" />
</g>
<g
   class="st1"
   id="g2203"
   transform="translate(773.7,344.7)">
	<g
   class="st2"
   id="g2195">
		<g
   id="g2193">
			<path
   d="m -410,58.4 -32.1,-23.1 c -2.3,-1.6 -5.3,-2.6 -8.4,-2.6 -3.5,-0.1 -6.9,0.8 -9.4,2.6 l -30.7,22.2 c -11.7,8.4 -20.8,20.4 -25.4,34.4 h 12.7 c 0.3,0 0.4,0.2 0.2,0.5 l -1.3,2 c -0.2,0.2 -0.5,0.5 -0.8,0.5 H -517 c -0.4,1.3 -0.7,2.7 -1,4.1 h 10.7 c 0.3,0 0.5,0.2 0.4,0.5 l -0.6,1.8 c -0.1,0.3 -0.4,0.5 -0.7,0.5 h -10.3 c -0.2,1.4 -0.4,2.8 -0.6,4.2 h 10.2 c 0.3,0 0.5,0.2 0.5,0.5 l -0.2,1.8 c 0,0.3 -0.3,0.5 -0.5,0.5 h -10.2 c -0.1,1.6 -0.2,3.2 -0.2,4.9 0,37.7 30.5,68.5 68.5,68.5 37.7,0 68.5,-30.5 68.5,-68.5 0.2,-22.8 -10.7,-42.8 -27.5,-55.3 z m -6.7,75.8 c -2,0.4 -4.1,0.5 -6,0.7 -6.8,-0.1 -13.1,-2.1 -18.3,-6.6 -3.7,-3.2 -6.2,-7.1 -7.5,-11.7 -0.9,1.8 -1.9,3.5 -3.2,5.1 -5.4,7.1 -12.5,11.6 -21.4,12.8 -7.4,1 -14.2,-0.4 -20.2,-5 -5.6,-4.2 -8.7,-9.8 -9.5,-16.7 -1,-8.2 1.4,-15.5 6.4,-22 5.3,-7 12.4,-11.4 21,-13 7.1,-1.3 13.8,-0.5 19.9,3.7 4,2.6 6.8,6.2 8.7,10.6 0.5,0.7 0.1,1.1 -0.8,1.3 -4.7,1.2 -8,2.1 -12.6,3.3 -1.1,0.3 -1.2,0.4 -2.2,-0.8 -1.1,-1.3 -2,-2.1 -3.5,-2.9 -4.7,-2.3 -9.3,-1.7 -13.6,1.1 -5.1,3.3 -7.7,8.2 -7.7,14.3 0.1,6 4.2,11 10.1,11.8 5.1,0.7 9.4,-1.1 12.8,-5 0.7,-0.8 1.3,-1.7 2,-2.8 h -14.4 c -1.6,0 -2,-1 -1.4,-2.3 1,-2.3 2.8,-6.2 3.8,-8.2 0.2,-0.5 0.8,-1.2 1.9,-1.2 h 24.2 c 1.1,-3.4 2.8,-6.7 5.2,-9.8 5.5,-7.2 12.1,-11 21,-12.5 7.7,-1.4 14.9,-0.6 21.4,3.8 5.9,4.1 9.6,9.5 10.6,16.7 1.3,10.1 -1.7,18.4 -8.6,25.5 -5.1,5.2 -11.1,8.4 -18.1,9.8 z m -3.7,-42.1 c -7,1.6 -11.5,6 -13.1,13.1 -1.4,5.9 1.5,11.8 6.9,14.2 4.1,1.8 8.3,1.6 12.2,-0.5 5.9,-3.1 9.2,-7.9 9.5,-14.3 -0.1,-1 -0.1,-1.7 -0.2,-2.5 -1.3,-7.5 -8.2,-11.7 -15.3,-10 z"
   id="path2191" />
		</g>
	</g>
	<path
   class="st2"
   d="m -532.5,94.7 c -0.2,0 -0.2,-0.1 -0.1,-0.4 l 0.9,-2 c 0.1,-0.2 0.3,-0.4 0.5,-0.4 h 15.3 c 0.2,0 0.2,0.2 0.1,0.5 l -0.7,2 c -0.1,0.2 -0.3,0.5 -0.4,0.5 z"
   id="path2197" />
	<path
   class="st2"
   d="m -543.8,101.6 c -0.2,0 -0.3,-0.2 -0.2,-0.4 l 1.1,-2 c 0.1,-0.2 0.4,-0.4 0.6,-0.4 h 24.4 c 0.2,0 0.3,0.2 0.3,0.5 l -0.4,1.8 c -0.1,0.3 -0.3,0.5 -0.5,0.5 z"
   id="path2199" />
	<path
   class="st2"
   d="m -525.7,108.5 c -0.1,0 -0.2,-0.2 -0.1,-0.5 l 0.4,-1.9 c 0.1,-0.2 0.2,-0.5 0.3,-0.5 h 6.1 c 0.1,0 0.2,0.2 0.2,0.5 l -0.1,1.8 c 0,0.3 -0.1,0.5 -0.2,0.5 z"
   id="path2201" />
</g>
<g
   class="st1"
   id="g2217"
   transform="translate(773.7,344.7)">
	<g
   class="st2"
   id="g2209">
		<g
   id="g2207">
			<path
   d="m -451.4,19.6 c -35.5,0 -64.5,26.4 -68.9,60.4 h 17.3 c 0.3,0 0.4,0.2 0.2,0.5 l -1.3,2 c -0.2,0.2 -0.5,0.5 -0.8,0.5 h -15.8 c -0.1,1.4 -0.2,2.7 -0.2,4.1 h 14 c 0.3,0 0.5,0.2 0.4,0.5 l -0.6,1.8 c -0.1,0.3 -0.4,0.5 -0.7,0.5 h -13.1 c 0,1.4 0.1,2.8 0.2,4.2 h 12.2 c 0.3,0 0.5,0.2 0.5,0.5 l -0.2,1.8 c 0,0.3 -0.3,0.5 -0.5,0.5 l -11.7,-0.1 c 2.2,20.2 13.1,37.8 28.8,48.9 l 31,22.6 c 2.6,1.8 6,2.8 9.5,2.7 3.2,-0.1 6.2,-1 8.6,-2.7 l 32.6,-23.4 c 17.1,-12.7 28.1,-33 28.1,-55.8 -0.2,-38.7 -31.4,-69.5 -69.6,-69.5 z m 36,103.1 c -2,0.4 -4.1,0.5 -6.1,0.7 -6.9,-0.2 -13.2,-2.1 -18.5,-6.7 -3.7,-3.2 -6.3,-7.2 -7.6,-11.8 -0.9,1.8 -2,3.5 -3.2,5.2 -5.5,7.2 -12.6,11.7 -21.6,12.9 -7.4,1 -14.3,-0.5 -20.4,-5 -5.6,-4.2 -8.8,-9.9 -9.6,-16.8 -1,-8.3 1.4,-15.7 6.4,-22.2 5.4,-7.1 12.5,-11.5 21.2,-13.1 7.1,-1.3 14,-0.5 20.1,3.7 4,2.7 6.9,6.3 8.8,10.7 0.5,0.7 0.2,1.1 -0.8,1.3 -4.8,1.2 -8,2.1 -12.7,3.3 -1.1,0.3 -1.2,0.4 -2.2,-0.8 -1.1,-1.3 -2,-2.1 -3.6,-2.9 -4.8,-2.4 -9.4,-1.7 -13.7,1.1 -5.1,3.3 -7.7,8.2 -7.7,14.3 0.1,6.1 4.2,11.1 10.2,11.9 5.2,0.7 9.5,-1.1 12.9,-5 0.7,-0.8 1.3,-1.7 2,-2.8 H -476 c -1.6,0 -2,-1 -1.4,-2.3 1,-2.4 2.8,-6.3 3.9,-8.3 0.2,-0.5 0.8,-1.2 1.9,-1.2 h 24.4 c 1.1,-3.5 2.9,-6.8 5.2,-9.9 5.5,-7.3 12.2,-11.1 21.2,-12.7 7.7,-1.4 15,-0.6 21.6,3.9 6,4.1 9.7,9.6 10.7,16.9 1.3,10.2 -1.7,18.6 -8.7,25.7 -5,5.2 -11.2,8.4 -18.2,9.9 z m -3.7,-42.6 c -7.1,1.6 -11.6,6.1 -13.3,13.2 -1.4,5.9 1.5,11.9 7,14.3 4.2,1.8 8.3,1.6 12.4,-0.5 6,-3.1 9.3,-8 9.6,-14.5 -0.1,-1 -0.1,-1.7 -0.2,-2.5 -1.4,-7.4 -8.3,-11.7 -15.5,-10 z"
   id="path2205" />
		</g>
	</g>
	<path
   class="st2"
   d="m -532.4,82.7 c -0.1,0 -0.2,-0.2 -0.1,-0.4 l 0.7,-2 c 0.1,-0.2 0.2,-0.4 0.4,-0.4 h 11.4 c 0.1,0 0.2,0.2 0.1,0.5 l -0.5,2 c -0.1,0.2 -0.2,0.5 -0.3,0.5 z"
   id="path2211" />
	<path
   class="st2"
   d="m -543.8,89.7 c -0.2,0 -0.2,-0.1 -0.2,-0.4 l 1,-2 c 0.1,-0.2 0.3,-0.4 0.5,-0.4 h 21.8 c 0.2,0 0.3,0.2 0.2,0.5 l -0.4,1.8 c 0,0.3 -0.2,0.5 -0.4,0.5 z"
   id="path2213" />
	<path
   class="st2"
   d="m -525.6,96.7 c -0.1,0 -0.1,-0.2 -0.1,-0.5 l 0.3,-1.9 c 0,-0.2 0.1,-0.5 0.2,-0.5 h 4.5 c 0.1,0 0.1,0.2 0.1,0.5 v 1.8 c 0,0.3 -0.1,0.5 -0.2,0.5 z"
   id="path2215" />
</g>
</svg>
