<?xml version="1.0" encoding="utf-8"?>
<!-- Generator: Adobe Illustrator 19.0.0, SVG Export Plug-In . SVG Version: 6.00 Build 0)  -->
<svg version="1.1" id="Ebene_1" xmlns="http://www.w3.org/2000/svg" xmlns:xlink="http://www.w3.org/1999/xlink" x="0px" y="0px"
	 viewBox="229.3 365.2 612 792" style="enable-background:new 229.3 365.2 612 792;" xml:space="preserve">
<style type="text/css">
	.st0{display:none;fill:#49AD3C;}
	.st1{display:none;}
	.st2{display:inline;}
</style>
<symbol  id="a" viewBox="-32 -32 63.9 64">
	<path d="M22.6,22.6C16.4,28.9,8.2,32,0,32s-16.4-3.1-22.6-9.4c-12.5-12.5-12.5-32.8,0-45.3C-16.4-28.9-8.2-32,0-32
		s16.4,3.1,22.6,9.4C35.1-10.1,35.1,10.1,22.6,22.6z M19.1-19.1C14-24.2,7.2-27,0-27s-14,2.8-19.1,7.9c-10.5,10.5-10.5,27.7,0,38.2
		C-14,24.2-7.2,27,0,27s14-2.8,19.1-7.9l0,0C24.2,14,27,7.2,27,0S24.2-14,19.1-19.1z"/>
	<path d="M0,17c-2.6,0-4.7-2.1-4.7-4.7S-2.6,7.6,0,7.6s4.7,2.1,4.7,4.7S2.6,17,0,17z"/>
	<polygon points="-4.3,-17 4.3,-17 4.3,4.1 -4.3,4.1 	"/>
</symbol>
<circle id="XMLID_2_" class="st0" cx="-463" cy="100.6" r="81"/>
<use xlink:href="#a"  width="63.9" height="64" x="-32" y="-32" transform="matrix(2.5299 0 0 -2.5299 -462.935 101.0209)" style="display:none;overflow:visible;"/>
<g class="st1">
	<g transform="translate(4.000000, 4.000000)" class="st2">
		<path d="M-432.5,120.6c3.3,3.3,3.3,7.3,0.4,10.2c-2.9,3.1-7,2.9-10.2-0.4c-8.1-7.9-16-15.8-24-24c-7.9,7.9-16.1,16-24,24
			c-3.3,3.3-7.3,3.3-10.2,0.4c-3.1-2.9-2.9-7,0.4-10.2c7.9-8.1,15.8-16,24-24c-7.9-7.9-16-16-24-24c-3.3-3.3-3.3-7.3-0.4-10.2
			c2.9-3.1,7-2.9,10.2,0.4c8.1,7.9,16,15.8,24,24c7.9-7.9,16-16,24-24c3.3-3.3,7.3-3.3,10.2-0.4c3.1,2.9,2.9,7-0.4,10.2
			c-7.9,8.1-15.8,16-24,24C-448.3,104.5-440.4,112.7-432.5,120.6 M-466.5,15.5c-44.8,0-81.1,36.3-81.1,81.1s36.3,81.2,81.2,81.2
			c44.8,0,81.2-36.3,81.2-81.2C-385.3,51.8-421.7,15.5-466.5,15.5"/>
	</g>
</g>
<path d="M-463.8,21.2c-44.2,0-80,35.8-80,80s35.8,80,80,80s80-35.8,80-80S-419.6,21.2-463.8,21.2z M-468.8,54.4h10v52.2h-10V54.4z
	 M-463.8,148.1c-25.8,0-46.9-21.2-46.9-47.3c0-9.7,3-19.2,8.5-27.2c5.4-7.8,13-13.7,21.8-17.1l3.5,9.4
	c-14.3,5.4-23.9,19.5-23.9,34.9c0,20.5,16.6,37.3,36.9,37.3c20.4,0,36.9-16.7,36.9-37.3c0-15.4-9.6-29.4-23.9-34.9l3.5-9.4
	c8.8,3.4,16.4,9.3,21.8,17.1c5.6,8,8.5,17.5,8.5,27.2C-416.9,126.9-437.9,148.1-463.8,148.1z"/>
<g class="st1">
	<path class="st2" d="M-463,183.1c3.8,0,6.8-3,6.8-6.8c0-3.7-3-6.8-6.8-6.8c-18.1,0-35.2-7.1-48-19.9c-12.8-12.8-19.9-29.9-19.9-48
		s7.1-35.2,19.9-48l9.6,9.6V34.4h-28.8l9.6,9.6l0,0c-15.4,15.4-23.9,35.8-23.9,57.6s8.5,42.2,23.9,57.6
		C-505.2,174.6-484.8,183.1-463,183.1z"/>
	<path class="st2" d="M-388.3,94.9c-3.7,0-6.8,3-6.8,6.8c0,3.7,3,6.8,6.8,6.8c3.8,0,6.8-3,6.8-6.8S-384.5,94.9-388.3,94.9z"/>
	<path class="st2" d="M-387.1,73.1c0-3.7-3-6.8-6.8-6.8c-3.7,0-6.8,3-6.8,6.8c0,3.7,3,6.8,6.8,6.8
		C-390.2,79.9-387.1,76.8-387.1,73.1z"/>
	<path class="st2" d="M-410.2,42c-3.8,0-6.8,3-6.8,6.8c0,3.7,3,6.8,6.8,6.8c3.7,0,6.8-3,6.8-6.8S-406.4,42-410.2,42z"/>
	<path class="st2" d="M-394,137c3.8,0,6.8-3,6.8-6.8s-3-6.8-6.8-6.8c-3.7,0-6.8,3-6.8,6.8C-400.7,134-397.7,137-394,137z"/>
	<path class="st2" d="M-410.2,147.7c-3.8,0-6.8,3-6.8,6.8c0,3.7,3,6.8,6.8,6.8c3.7,0,6.8-3,6.8-6.8S-406.4,147.7-410.2,147.7z"/>
	<path class="st2" d="M-434.4,177.4c3.8,0,6.8-3,6.8-6.8s-3-6.8-6.8-6.8c-3.7,0-6.8,3-6.8,6.8S-438.1,177.4-434.4,177.4z"/>
	<path class="st2" d="M-463,137.8c20,0,36.2-16.3,36.2-36.2c0-15.2-9.4-28.2-22.6-33.6v15.6c5.5,4.1,9.1,10.7,9.1,18.1
		c0,12.5-10.2,22.6-22.6,22.6c-12.5,0-22.6-10.2-22.6-22.6c0-7.4,3.6-13.9,9.1-18.1V68.1c-13.4,5.3-22.8,18.3-22.8,33.5
		C-499.2,121.6-483,137.8-463,137.8z"/>
	<rect x="-469.8" y="56.3" class="st2" width="13.6" height="40.8"/>
	<path class="st2" d="M-440.7,30c-1.4,3.5,0.2,7.4,3.7,8.9c0.9,0.3,1.7,0.5,2.6,0.5c2.7,0,5.2-1.6,6.3-4.2c1.4-3.5-0.2-7.4-3.7-8.9
		C-435.3,24.8-439.3,26.5-440.7,30z"/>
	<path class="st2" d="M-463,33.7c3.7,0,6.8-3,6.8-6.8c0-3.7-3-6.8-6.8-6.8s-6.8,3-6.8,6.8S-466.8,33.7-463,33.7z"/>
</g>
<g class="st1">
	<path class="st2" d="M-490.8,88.9c-1.5-0.4-3.3-0.4-5.2-0.7h-0.4h-0.7c-0.4,0-0.7,0-1.1,0c-5.6,0-11.1,3.3-15.2,8.5
		c-4.1,5.6-5.2,12.6-2.6,18.2v0.4c2.6,6.3,8.5,10.8,16,11.9c7.4,1.5,14.8-0.7,19.3-5.6l0,0l0,0c4.1-4.1,7.1-8.9,10.4-14.1
		C-474.8,98.9-481.5,91.1-490.8,88.9z M-485.2,109.3h-21.1v-4.5h21.1C-485.2,104.8-485.2,109.3-485.2,109.3z"/>
	<path class="st2" d="M-422.8,90c-7.1-3-14.8-2.6-20,1.1l0,0c-5.9,3.7-10.4,9.6-14.5,15.9c3,5.9,9.7,17.1,21.5,19.7l0,0l0,0
		c5.9,1.9,12.6,0,17.8-4.8c5.6-4.8,8.2-11.5,7.1-17.8C-411.4,98.6-416.5,93-422.8,90z M-424,110.1h-6.3v5.9h-5.6v-5.9h-5.9v-5.6h5.9
		v-5.9h5.6v5.9h6.3V110.1z"/>
	<g class="st2">
		<g>
			<path d="M-419.4,47.8l-34.7-25c-2.5-1.7-5.7-2.8-9.1-2.8c-3.8-0.1-7.4,0.9-10.2,2.8l-33,24.1c-18.8,13.3-31.1,35.3-31.1,60.4
				c0,40.8,32.9,74.1,74.1,74.1c40.8,0,74-32.9,74-74.1C-389.4,82.9-401.2,61.3-419.4,47.8z M-411,130.5c-5.9,5.2-13,8.2-20,8.2
				c-2.6,0-5.2-0.4-7.4-1.1c-6.7-1.5-12.6-4.8-17.8-10.4c-2.6-2.6-5.2-5.9-7.4-9.3c-2.6,3.7-5.2,7.8-8.9,11.1
				c-3.3,3.7-8.2,6.7-13.4,8.2c-4.8,1.5-10,1.5-15.2,0.7c-5.2-0.7-10-3-14.1-5.9c-4.5-3.3-7.8-7.4-9.7-12.2
				c-1.9-4.5-2.6-9.6-1.9-14.8c0.8-4.8,2.6-9.3,5.6-13.4s6.7-7.4,10.8-9.6c4.4-2.2,9.3-3.3,14.1-3.3h0.4c3,0,5.6,0.4,7.8,0.7
				c6.7,1.5,12.6,5.2,18.2,10.8c2.6,2.6,4.8,5.2,6.7,8.2c3.7-5.6,8.5-11.1,14.8-14.8c4.4-3,9.3-4.5,14.8-4.8
				c5.2-0.4,10.4,0.7,15.2,3c10,4.5,17.1,12.6,18.6,22.6c0.7,4.8,0,10.4-1.9,15.2C-403.9,123-407.3,127.1-411,130.5z"/>
		</g>
	</g>
</g>
<g class="st1">
	<path class="st2" d="M-490.3,75.3c-1.5-0.4-3.3-0.4-5.2-0.7h-0.4h-0.7c-0.4,0-0.7,0-1.1,0c-5.6,0-11.2,3.4-15.2,8.6
		c-4.1,5.6-5.2,12.7-2.6,18.2v0.4c2.6,6.3,8.6,10.8,16,11.9c7.4,1.5,14.9-0.8,19.3-5.6l0,0l0,0c4.1-4.1,7.1-8.9,10.4-14.1
		C-474.3,85.3-481,77.5-490.3,75.3z M-484.8,95.7H-506v-4.5h21.2V95.7z"/>
	<path class="st2" d="M-422.2,76.4c-7.1-3-14.9-2.6-20.1,1.1l0,0c-6,3.7-10.4,9.7-14.5,16c3,6,9.7,17.1,21.6,19.7l0,0l0,0
		c5.9,1.9,12.6,0,17.8-4.8c5.6-4.8,8.2-11.5,7.1-17.9C-410.7,84.9-415.9,79.3-422.2,76.4z M-423.3,96.5h-6.3v6h-5.6v-6h-6v-5.6h6v-6
		h5.6v6h6.3V96.5z"/>
	<g class="st2">
		<g>
			<path d="M-463,19.7c-41.3,0-74.3,33.4-74.3,74.3c0,25.1,12.4,47.2,31.3,60.6l33.1,24.2c2.7,1.9,6.4,3,10.2,2.9
				c3.4-0.1,6.7-1.1,9.2-2.9l34.8-25.1c18.3-13.6,30-35.3,30-59.7C-388.7,52.7-422.1,19.7-463,19.7z M-410.3,116.9
				c-5.9,5.2-13,8.2-20.1,8.2c-2.6,0-5.2-0.4-7.4-1.1c-6.7-1.5-12.7-4.8-17.9-10.4c-2.6-2.6-5.2-6-7.4-9.3
				c-2.6,3.7-5.2,7.8-8.9,11.2c-3.3,3.7-8.2,6.7-13.4,8.2c-4.8,1.5-10.1,1.5-15.3,0.8c-5.2-0.8-10.1-3-14.1-6
				c-4.5-3.3-7.8-7.4-9.7-12.3c-1.9-4.5-2.6-9.7-1.9-14.9c0.8-4.8,2.6-9.3,5.6-13.4c3-4.1,6.7-7.4,10.8-9.7
				c4.4-2.2,9.3-3.3,14.1-3.3h0.4c3,0,5.6,0.4,7.8,0.7c6.7,1.5,12.7,5.2,18.2,10.8c2.6,2.6,4.8,5.2,6.7,8.2
				c3.7-5.6,8.6-11.2,14.9-14.9c4.5-3,9.3-4.5,14.9-4.8c5.2-0.4,10.4,0.7,15.3,3c10.1,4.5,17.1,12.7,18.6,22.7
				c0.7,4.8,0,10.4-1.9,15.3C-403.2,109.5-406.6,113.6-410.3,116.9z"/>
		</g>
	</g>
</g>
<g id="Raspberry" class="st1">
	<path class="st2" d="M-479.3,79.9c-11.1-2.1-20.1,4.5-19.7,16.4C-498.6,100.8-475.3,80.3-479.3,79.9z"/>
	<path class="st2" d="M-487.9,76.6c3.7,0.4,13.9,0,15.5-7.8c-3.7-4.1-10.6-9-22.5-15.1c9.4,3.3,17.6,7.4,24.6,13.1
		c8.2-3.7,2.5-13.5-1.6-17.6c0,1.2-0.4,1.6-0.8,2.1c-1.2-1.2-2.5-2.9-4.1-4.1c0,0.8,0.4,1.6-0.4,2.4c-0.8-1.2-2.1-2.4-3.7-3.2
		c0.8,1.2,0,1.6-0.4,2.4c-1.2-1.2-2.5-2.1-4.5-2.9c0.8,0.8,1.6,1.6,0.4,2.5c-1.2-0.8-2.5-1.7-5.7-2.1c0.8,0.8,2.1,1.6,1.2,2.4
		c-1.6-0.8-3.3-1.2-5.3-1.2c0.8,0.8,1.6,1.6,0.8,2c-1.6-0.4-4.1-1.2-6.6-0.8l1.6,1.6c0,0-3.3,0-5.7,0c0.8,1.2,1.6,2.5,2.1,4.5
		c-0.4,0.4-1.2,0-2.5,0c1.2,2.4,3.3,2.9,3.7,4.1c-0.8,0.4-1.6,0.4-2.9,0c0.8,1.6,2.5,2.9,3.7,4.1c-0.4,0.4-0.8,0.4-2.4,0.4
		c1.2,1.2,2.9,2.4,4.5,3.7c-0.5,0.5-1.3,0.5-2.6,0.5c1.6,1.6,3.7,2.5,5.7,3.3c-0.8,0.8-1.6,0.4-2.5,0.4c1.2,1.2,3.7,1.6,5.7,2.4
		c-0.3,0.9-0.7,0.9-1.5,0.9c2.5,1.2,5.7,0.8,6.5,1.2C-486.3,75.8-487.1,76.2-487.9,76.6z"/>
	<path class="st2" d="M-500.6,101.2c-10.7,6.1-8.6,19.2-2.9,24.1C-498.6,127.8-494.5,99.5-500.6,101.2z"/>
	<path class="st2" d="M-498.6,127c-2.5,2-3.3,8.6,0.8,15.5c5.7,7.8,13.5,8.6,16.4,7c3.3-2.5,1.6-11.1-2.5-16
		C-488.8,127.8-494.9,124.5-498.6,127z"/>
	<path class="st2" d="M-448.6,79.9c-4.1,0.8,19.3,21.3,19.7,16.4C-428.6,84.8-438,78.3-448.6,79.9z"/>
	<path class="st2" d="M-476.1,84.8c0,3.7,5.3,7.4,13.1,7.4s13.1-2.9,13.1-6.5c0-4.1-7.4-8.6-13.1-8.6
		C-469.9,76.6-476.1,81.9-476.1,84.8z"/>
	<path class="st2" d="M-456.4,66.4c7-5.7,15.1-9.8,24.6-13.1c-11.9,6.1-18.8,11.1-22.5,15.2c2.1,7.8,11.9,8.2,15.5,7.8
		c-0.8-0.4-1.2-0.8-1.6-1.2c0.8-0.8,4.1,0,6.5-1.2c-0.8,0-1.2-0.4-1.6-0.8c2.1-0.8,4.5-1.2,5.7-2.5c-0.8,0-1.6,0-2.4-0.4
		c2-1.2,4.1-2.1,5.7-3.3c-0.8,0-2.1,0-2.5-0.4c1.6-1.2,3.3-2.5,4.5-3.7c-1.2,0-2,0-2.5-0.4c1.2-1.2,2.9-2.4,3.7-4.1
		c-1.2,0.4-2.1,0.4-2.9,0c0.4-1.2,2.5-1.6,3.7-4.1c-1.2,0-2.5,0.4-2.5,0c0.4-2.1,1.2-3.3,2.1-4.5c-2.5,0-5.7,0-5.7,0l1.6-1.6
		c-2.4-0.8-4.5,0-6.5,0.8c-0.8-0.4,0-1.2,0.8-2.1c-2,0.4-3.7,0.8-5.3,1.2c-0.8-0.8,0.4-1.6,1.2-2.4c-2.9,0.4-4.1,1.2-5.7,2
		c-0.8-0.8,0-1.6,0.4-2.5c-2.5,0.8-3.3,2.1-4.5,2.9c-0.4-0.4-1.2-0.8-0.4-2.4c-1.6,0.8-2.9,2-3.7,3.2c-0.8-0.8-0.4-1.6-0.4-2.4
		c-1.6,1.2-2.9,2.9-4.1,4.1c-0.4,0-0.4-0.8-0.8-2C-458.9,52.9-464.6,62.7-456.4,66.4z"/>
	<path class="st2" d="M-463,149.9c-5.7,0-14.3,2.5-14.3,5.3c0,2.1,6.9,8.2,13.9,7.8c6.9,0,13.9-6.2,13.9-8.6
		C-449.4,151.6-457.2,149.5-463,149.9z"/>
	<path class="st2" d="M-427.3,100.8c-6.5-1.6-2,26.2,2.9,24.1C-418.3,120.4-416.7,106.9-427.3,100.8z"/>
	<path class="st2" d="M-463.4,20.5c-45,0-81,36.5-81,81.1c0,45,36.4,81.1,81.1,81.1c45,0,81.1-36.4,81.1-81.1
		C-382.3,56.5-418.7,20.5-463.4,20.5z M-419.6,127.4c-0.8,3.3-1.6,5.7-2.5,8.6c-1.2,11.1-10.7,16.4-13.1,16.8
		c-3.7,2.9-7.4,5.3-12.7,7c-4.9,4.9-10.2,7-15.5,7c0,0,0,0-0.4,0c-5.3,0-10.6-2.1-15.5-7c-5.3-1.6-9-4.5-12.7-7
		c-2.5-0.4-11.9-5.7-13.1-16.8c-0.8-2.9-2.1-5.3-2.5-8.6c-9.8-11.1-3.7-24.6,3.3-28.7l0.8-1.6c0-11.5,5.3-16,11-19.7
		c-1.6-0.4-3.7-0.8-4.1-3.2c-3.3-0.8-3.7-2.5-4.1-3.7c-0.8-0.4-3.7-2-3.3-4.9c-1.6-1.2-2.4-2.5-2-4.5c-1.6-1.6-2.1-3.2-1.2-4.9
		c-2-2.5-1.2-3.7-0.4-4.9c-1.6-2.9,0-5.7,4.1-5.4c1.6-2.4,5.3-2.1,5.7-2.1c0.8-0.8,1.6-1.6,4.1-1.2c1.6-1.7,3.3-1.2,5.3-0.4
		c0.8-0.4,1.6-0.8,2.1-0.8c1.2,0,2,0.8,3.3,1.2c2.9-0.8,3.3,0.4,4.5,0.8c2.9-0.8,3.7,0.8,5.3,2.1h1.6c4.5,2.4,6.5,8.2,7.4,10.6
		c0.8-2.9,2.9-8.2,7.4-10.6h1.6c1.2-1.7,2.4-2.9,5.3-2.1c1.2-0.4,2.1-1.6,4.5-0.8c1.6-0.4,3.3-2.1,5.3,0c2.1-0.8,3.7-0.8,5.3,0.4
		c2.5-0.4,3.3,0.4,4.1,1.2c0.4,0,4.1-0.4,5.7,2.1c4.1-0.4,5.3,2.4,4.1,5.3c0.8,1.2,1.6,2.5-0.4,4.9c0.8,1.2,0.4,2.9-1.2,4.9
		c0.4,2.1-0.4,3.3-2.1,4.5c0.4,2.9-2.5,4.1-3.3,4.9c-0.4,1.6-0.8,2.9-4.1,3.7c-0.4,2.5-2.5,2.9-4.1,3.3C-430,81.5-425,86-425,97.4
		l0.8,1.6C-415.9,102.8-409.7,116.3-419.6,127.4z"/>
	<path class="st2" d="M-468.7,114.7c4.5-6.9,3.7-15.5-2.5-19.6c-5.7-3.7-14.3-1.2-18.8,5.7c-4.5,7-3.7,15.5,2.5,19.6
		C-481.8,124.1-473.6,121.6-468.7,114.7z"/>
	<path class="st2" d="M-442.5,131.9c-4.5,5.3-7,14.8-3.7,17.6c2.9,2.4,11.5,2.1,17.2-6.5c4.5-5.7,2.9-15.2,0.4-17.6
		C-432.2,122.5-437.6,126.1-442.5,131.9z"/>
	<path class="st2" d="M-463,119.2c7.9,0,14.3,5.9,14.3,13.1c0,7.2-6.4,13.1-14.3,13.1s-14.3-5.9-14.3-13.1
		C-477.3,125-470.9,119.2-463,119.2z"/>
	<path class="st2" d="M-438.8,119.6c5.7-3.7,7-12.7,2.5-19.6c-4.5-7-13.1-9.4-18.8-5.7c-5.8,3.7-7,12.7-2.5,19.6
		C-453.1,120.8-444.5,123.3-438.8,119.6z"/>
</g>
<g class="st1">
	<g class="st2">
		<g>
			<path d="M-410,58.4l-32.1-23.1c-2.3-1.6-5.3-2.6-8.4-2.6c-3.5-0.1-6.9,0.8-9.4,2.6l-30.7,22.2c-11.7,8.4-20.8,20.4-25.4,34.4
				h12.7c0.3,0,0.4,0.2,0.2,0.5l-1.3,2c-0.2,0.2-0.5,0.5-0.8,0.5H-517c-0.4,1.3-0.7,2.7-1,4.1h10.7c0.3,0,0.5,0.2,0.4,0.5l-0.6,1.8
				c-0.1,0.3-0.4,0.5-0.7,0.5h-10.3c-0.2,1.4-0.4,2.8-0.6,4.2h10.2c0.3,0,0.5,0.2,0.5,0.5l-0.2,1.8c0,0.3-0.3,0.5-0.5,0.5h-10.2
				c-0.1,1.6-0.2,3.2-0.2,4.9c0,37.7,30.5,68.5,68.5,68.5c37.7,0,68.5-30.5,68.5-68.5C-382.3,90.9-393.2,70.9-410,58.4z
				 M-416.7,134.2c-2,0.4-4.1,0.5-6,0.7c-6.8-0.1-13.1-2.1-18.3-6.6c-3.7-3.2-6.2-7.1-7.5-11.7c-0.9,1.8-1.9,3.5-3.2,5.1
				c-5.4,7.1-12.5,11.6-21.4,12.8c-7.4,1-14.2-0.4-20.2-5c-5.6-4.2-8.7-9.8-9.5-16.7c-1-8.2,1.4-15.5,6.4-22c5.3-7,12.4-11.4,21-13
				c7.1-1.3,13.8-0.5,19.9,3.7c4,2.6,6.8,6.2,8.7,10.6c0.5,0.7,0.1,1.1-0.8,1.3c-4.7,1.2-8,2.1-12.6,3.3c-1.1,0.3-1.2,0.4-2.2-0.8
				c-1.1-1.3-2-2.1-3.5-2.9c-4.7-2.3-9.3-1.7-13.6,1.1c-5.1,3.3-7.7,8.2-7.7,14.3c0.1,6,4.2,11,10.1,11.8c5.1,0.7,9.4-1.1,12.8-5
				c0.7-0.8,1.3-1.7,2-2.8h-14.4c-1.6,0-2-1-1.4-2.3c1-2.3,2.8-6.2,3.8-8.2c0.2-0.5,0.8-1.2,1.9-1.2h24.2c1.1-3.4,2.8-6.7,5.2-9.8
				c5.5-7.2,12.1-11,21-12.5c7.7-1.4,14.9-0.6,21.4,3.8c5.9,4.1,9.6,9.5,10.6,16.7c1.3,10.1-1.7,18.4-8.6,25.5
				C-403.7,129.6-409.7,132.8-416.7,134.2z M-420.4,92.1c-7,1.6-11.5,6-13.1,13.1c-1.4,5.9,1.5,11.8,6.9,14.2
				c4.1,1.8,8.3,1.6,12.2-0.5c5.9-3.1,9.2-7.9,9.5-14.3c-0.1-1-0.1-1.7-0.2-2.5C-406.4,94.6-413.3,90.4-420.4,92.1z"/>
		</g>
	</g>
	<path class="st2" d="M-532.5,94.7c-0.2,0-0.2-0.1-0.1-0.4l0.9-2c0.1-0.2,0.3-0.4,0.5-0.4h15.3c0.2,0,0.2,0.2,0.1,0.5l-0.7,2
		c-0.1,0.2-0.3,0.5-0.4,0.5L-532.5,94.7z"/>
	<path class="st2" d="M-543.8,101.6c-0.2,0-0.3-0.2-0.2-0.4l1.1-2c0.1-0.2,0.4-0.4,0.6-0.4h24.4c0.2,0,0.3,0.2,0.3,0.5l-0.4,1.8
		c-0.1,0.3-0.3,0.5-0.5,0.5H-543.8z"/>
	<path class="st2" d="M-525.7,108.5c-0.1,0-0.2-0.2-0.1-0.5l0.4-1.9c0.1-0.2,0.2-0.5,0.3-0.5h6.1c0.1,0,0.2,0.2,0.2,0.5l-0.1,1.8
		c0,0.3-0.1,0.5-0.2,0.5L-525.7,108.5z"/>
</g>
<g class="st1">
	<g class="st2">
		<g>
			<path d="M-451.4,19.6c-35.5,0-64.5,26.4-68.9,60.4h17.3c0.3,0,0.4,0.2,0.2,0.5l-1.3,2c-0.2,0.2-0.5,0.5-0.8,0.5h-15.8
				c-0.1,1.4-0.2,2.7-0.2,4.1h14c0.3,0,0.5,0.2,0.4,0.5l-0.6,1.8c-0.1,0.3-0.4,0.5-0.7,0.5h-13.1c0,1.4,0.1,2.8,0.2,4.2h12.2
				c0.3,0,0.5,0.2,0.5,0.5l-0.2,1.8c0,0.3-0.3,0.5-0.5,0.5l-11.7-0.1c2.2,20.2,13.1,37.8,28.8,48.9l31,22.6c2.6,1.8,6,2.8,9.5,2.7
				c3.2-0.1,6.2-1,8.6-2.7l32.6-23.4c17.1-12.7,28.1-33,28.1-55.8C-382,50.4-413.2,19.6-451.4,19.6z M-415.4,122.7
				c-2,0.4-4.1,0.5-6.1,0.7c-6.9-0.2-13.2-2.1-18.5-6.7c-3.7-3.2-6.3-7.2-7.6-11.8c-0.9,1.8-2,3.5-3.2,5.2
				c-5.5,7.2-12.6,11.7-21.6,12.9c-7.4,1-14.3-0.5-20.4-5c-5.6-4.2-8.8-9.9-9.6-16.8c-1-8.3,1.4-15.7,6.4-22.2
				c5.4-7.1,12.5-11.5,21.2-13.1c7.1-1.3,14-0.5,20.1,3.7c4,2.7,6.9,6.3,8.8,10.7c0.5,0.7,0.2,1.1-0.8,1.3c-4.8,1.2-8,2.1-12.7,3.3
				c-1.1,0.3-1.2,0.4-2.2-0.8c-1.1-1.3-2-2.1-3.6-2.9c-4.8-2.4-9.4-1.7-13.7,1.1c-5.1,3.3-7.7,8.2-7.7,14.3
				c0.1,6.1,4.2,11.1,10.2,11.9c5.2,0.7,9.5-1.1,12.9-5c0.7-0.8,1.3-1.7,2-2.8H-476c-1.6,0-2-1-1.4-2.3c1-2.4,2.8-6.3,3.9-8.3
				c0.2-0.5,0.8-1.2,1.9-1.2h24.4c1.1-3.5,2.9-6.8,5.2-9.9c5.5-7.3,12.2-11.1,21.2-12.7c7.7-1.4,15-0.6,21.6,3.9
				c6,4.1,9.7,9.6,10.7,16.9c1.3,10.2-1.7,18.6-8.7,25.7C-402.2,118-408.4,121.2-415.4,122.7z M-419.1,80.1
				c-7.1,1.6-11.6,6.1-13.3,13.2c-1.4,5.9,1.5,11.9,7,14.3c4.2,1.8,8.3,1.6,12.4-0.5c6-3.1,9.3-8,9.6-14.5c-0.1-1-0.1-1.7-0.2-2.5
				C-405,82.7-411.9,78.4-419.1,80.1z"/>
		</g>
	</g>
	<path class="st2" d="M-532.4,82.7c-0.1,0-0.2-0.2-0.1-0.4l0.7-2c0.1-0.2,0.2-0.4,0.4-0.4h11.4c0.1,0,0.2,0.2,0.1,0.5l-0.5,2
		c-0.1,0.2-0.2,0.5-0.3,0.5L-532.4,82.7z"/>
	<path class="st2" d="M-543.8,89.7c-0.2,0-0.2-0.1-0.2-0.4l1-2c0.1-0.2,0.3-0.4,0.5-0.4h21.8c0.2,0,0.3,0.2,0.2,0.5l-0.4,1.8
		c0,0.3-0.2,0.5-0.4,0.5H-543.8z"/>
	<path class="st2" d="M-525.6,96.7c-0.1,0-0.1-0.2-0.1-0.5l0.3-1.9c0-0.2,0.1-0.5,0.2-0.5h4.5c0.1,0,0.1,0.2,0.1,0.5v1.8
		c0,0.3-0.1,0.5-0.2,0.5L-525.6,96.7z"/>
</g>
</svg>
