<?xml version="1.0" encoding="UTF-8" standalone="no"?>
<!-- Generator: Adobe Illustrator 19.0.0, SVG Export Plug-In . SVG Version: 6.00 Build 0)  -->

<svg
   version="1.1"
   id="Ebene_1"
   x="0px"
   y="0px"
   viewBox="547.8 30.2 161.32285 142.325"
   xml:space="preserve"
   sodipodi:docname="warning.svg"
   width="161.32285"
   height="142.325"
   inkscape:version="1.1.1 (3bf5ae0d25, 2021-09-20)"
   xmlns:inkscape="http://www.inkscape.org/namespaces/inkscape"
   xmlns:sodipodi="http://sodipodi.sourceforge.net/DTD/sodipodi-0.dtd"
   xmlns:xlink="http://www.w3.org/1999/xlink"
   xmlns="http://www.w3.org/2000/svg"
   xmlns:svg="http://www.w3.org/2000/svg"><defs
   id="defs3207" /><sodipodi:namedview
   id="namedview3205"
   pagecolor="#ffffff"
   bordercolor="#666666"
   borderopacity="1.0"
   inkscape:pageshadow="2"
   inkscape:pageopacity="0.0"
   inkscape:pagecheckerboard="0"
   showgrid="false"
   fit-margin-top="0"
   fit-margin-left="0"
   fit-margin-right="0"
   fit-margin-bottom="0"
   inkscape:zoom="0.90782828"
   inkscape:cx="523.77747"
   inkscape:cy="420.23366"
   inkscape:window-width="2560"
   inkscape:window-height="1537"
   inkscape:window-x="-8"
   inkscape:window-y="-8"
   inkscape:window-maximized="1"
   inkscape:current-layer="Ebene_1" />
<style
   type="text/css"
   id="style3077">
	.st0{display:none;fill:#49AD3C;}
	.st1{display:none;}
	.st2{display:inline;}
</style>
<symbol
   id="a"
   viewBox="-32 -32 64 64"
   transform="translate(547.08372,24.225)">
	<path
   d="M 22.6,22.6 C 16.4,28.9 8.2,32 0,32 c -8.2,0 -16.4,-3.1 -22.6,-9.4 -12.5,-12.5 -12.5,-32.8 0,-45.3 6.2,-6.2 14.4,-9.3 22.6,-9.3 8.2,0 16.4,3.1 22.6,9.4 12.5,12.5 12.5,32.7 0,45.2 z M 19.1,-19.1 C 14,-24.2 7.2,-27 0,-27 c -7.2,0 -14,2.8 -19.1,7.9 -10.5,10.5 -10.5,27.7 0,38.2 C -14,24.2 -7.2,27 0,27 7.2,27 14,24.2 19.1,19.1 v 0 C 24.2,14 27,7.2 27,0 27,-7.2 24.2,-14 19.1,-19.1 Z"
   id="path3079" />
	<path
   d="m 0,17 c -2.6,0 -4.7,-2.1 -4.7,-4.7 0,-2.6 2.1,-4.7 4.7,-4.7 2.6,0 4.7,2.1 4.7,4.7 C 4.7,14.9 2.6,17 0,17 Z"
   id="path3081" />
	<polygon
   points="4.3,4.1 -4.3,4.1 -4.3,-17 4.3,-17 "
   id="polygon3083" />
</symbol>
<circle
   id="XMLID_2_"
   class="st0"
   cx="628.08374"
   cy="105.225"
   r="81" />
<use
   xlink:href="#a"
   width="64"
   height="64"
   x="-32"
   y="-32"
   transform="matrix(2.5299,0,0,-2.5299,-755.91838,166.98273)"
   style="display:none;overflow:visible"
   id="use3087" />
<path
   d="m 707.78372,157.325 -70.6,-122.1 c -3.9,-6.7 -13.6,-6.7 -17.5,0 l -70.5,122.1 c -3.9,6.7 0.9,15.2 8.7,15.2 h 141 c 8,0 12.7,-8.5 8.9,-15.2 z m -81.6,-84.7 c 4.3,-1.1 8.5,1.1 10.5,5 0.7,1.4 0.9,3 0.7,4.4 -0.4,4.4 -0.5,8.9 -0.7,13.5 -0.4,6.9 -0.9,14 -1.2,20.9 -0.2,2.1 -0.2,4.3 -0.4,6.6 -0.2,3.7 -3,6.6 -6.7,6.6 -3.5,0 -6.6,-2.8 -6.7,-6.4 -0.5,-10.8 -1.2,-21.6 -1.8,-32.4 -0.2,-2.8 -0.4,-5.8 -0.5,-8.7 -0.1,-4.4 2.8,-8.4 6.8,-9.5 z m 2.3,81.1 c -5,0 -8.9,-4.1 -8.9,-9 0,-4.9 4.1,-9 9,-9 5,0 8.9,4.1 8.9,9.2 -0.1,4.8 -4.2,8.8 -9,8.8 z"
   id="path3089" />
<g
   class="st1"
   id="g3095"
   transform="translate(547.08372,24.225)">
	<g
   transform="translate(4,4)"
   class="st2"
   id="g3093">
		<path
   d="m 111.5,101 c 3.3,3.3 3.3,7.3 0.4,10.2 -2.9,3.1 -7,2.9 -10.2,-0.4 -8.1,-7.9 -16,-15.8 -24,-24 -7.9,7.9 -16.1,16 -24,24 -3.3,3.3 -7.3,3.3 -10.2,0.4 -3.1,-2.9 -2.9,-7 0.4,-10.2 7.9,-8.1 15.8,-16 24,-24 -7.9,-7.9 -16,-16 -24,-24 -3.3,-3.3 -3.3,-7.3 -0.4,-10.2 2.9,-3.1 7,-2.9 10.2,0.4 8.1,7.9 16,15.8 24,24 7.9,-7.9 16,-16 24,-24 3.3,-3.3 7.3,-3.3 10.2,-0.4 3.1,2.9 2.9,7 -0.4,10.2 -7.9,8.1 -15.8,16 -24,24 8.2,7.9 16.1,16.1 24,24 M 77.5,-4.1 c -44.8,0 -81.1,36.3 -81.1,81.1 0,44.8 36.3,81.2 81.2,81.2 44.8,0 81.2,-36.3 81.2,-81.2 C 158.7,32.2 122.3,-4.1 77.5,-4.1"
   id="path3091" />
	</g>
</g>
<path
   class="st1"
   d="m 627.28372,25.825 c -44.2,0 -80,35.8 -80,80 0,44.2 35.8,80 80,80 44.2,0 80,-35.8 80,-80 0,-44.2 -35.8,-80 -80,-80 z m -5,33.2 h 10 v 52.2 h -10 z m 5,93.7 c -25.8,0 -46.9,-21.2 -46.9,-47.3 0,-9.7 3,-19.2 8.5,-27.2 5.4,-7.8 13,-13.7 21.8,-17.1 l 3.5,9.4 c -14.3,5.4 -23.9,19.5 -23.9,34.9 0,20.5 16.6,37.3 36.9,37.3 20.4,0 36.9,-16.7 36.9,-37.3 0,-15.4 -9.6,-29.4 -23.9,-34.9 l 3.5,-9.4 c 8.8,3.4 16.4,9.3 21.8,17.1 5.6,8 8.5,17.5 8.5,27.2 0.2,26.1 -20.8,47.3 -46.7,47.3 z"
   id="path3097" />
<g
   class="st1"
   id="g3121"
   transform="translate(547.08372,24.225)">
	<path
   class="st2"
   d="m 81,163.5 c 3.8,0 6.8,-3 6.8,-6.8 0,-3.7 -3,-6.8 -6.8,-6.8 C 62.9,149.9 45.8,142.8 33,130 20.2,117.2 13.1,100.1 13.1,82 13.1,63.9 20.2,46.8 33,34 l 9.6,9.6 V 14.8 H 13.8 l 9.6,9.6 v 0 C 8,39.8 -0.5,60.2 -0.5,82 c 0,21.8 8.5,42.2 23.9,57.6 15.4,15.4 35.8,23.9 57.6,23.9 z"
   id="path3099" />
	<path
   class="st2"
   d="m 155.7,75.3 c -3.7,0 -6.8,3 -6.8,6.8 0,3.7 3,6.8 6.8,6.8 3.8,0 6.8,-3 6.8,-6.8 0,-3.8 -3,-6.8 -6.8,-6.8 z"
   id="path3101" />
	<path
   class="st2"
   d="m 156.9,53.5 c 0,-3.7 -3,-6.8 -6.8,-6.8 -3.7,0 -6.8,3 -6.8,6.8 0,3.7 3,6.8 6.8,6.8 3.7,0 6.8,-3.1 6.8,-6.8 z"
   id="path3103" />
	<path
   class="st2"
   d="m 133.8,22.4 c -3.8,0 -6.8,3 -6.8,6.8 0,3.7 3,6.8 6.8,6.8 3.7,0 6.8,-3 6.8,-6.8 0,-3.8 -3,-6.8 -6.8,-6.8 z"
   id="path3105" />
	<path
   class="st2"
   d="m 150,117.4 c 3.8,0 6.8,-3 6.8,-6.8 0,-3.8 -3,-6.8 -6.8,-6.8 -3.7,0 -6.8,3 -6.8,6.8 0.1,3.8 3.1,6.8 6.8,6.8 z"
   id="path3107" />
	<path
   class="st2"
   d="m 133.8,128.1 c -3.8,0 -6.8,3 -6.8,6.8 0,3.7 3,6.8 6.8,6.8 3.7,0 6.8,-3 6.8,-6.8 0,-3.8 -3,-6.8 -6.8,-6.8 z"
   id="path3109" />
	<path
   class="st2"
   d="m 109.6,157.8 c 3.8,0 6.8,-3 6.8,-6.8 0,-3.8 -3,-6.8 -6.8,-6.8 -3.7,0 -6.8,3 -6.8,6.8 0,3.8 3.1,6.8 6.8,6.8 z"
   id="path3111" />
	<path
   class="st2"
   d="m 81,118.2 c 20,0 36.2,-16.3 36.2,-36.2 0,-15.2 -9.4,-28.2 -22.6,-33.6 V 64 c 5.5,4.1 9.1,10.7 9.1,18.1 0,12.5 -10.2,22.6 -22.6,22.6 -12.5,0 -22.6,-10.2 -22.6,-22.6 0,-7.4 3.6,-13.9 9.1,-18.1 V 48.5 C 54.2,53.8 44.8,66.8 44.8,82 c 0,20 16.2,36.2 36.2,36.2 z"
   id="path3113" />
	<rect
   x="74.199997"
   y="36.700001"
   class="st2"
   width="13.6"
   height="40.799999"
   id="rect3115" />
	<path
   class="st2"
   d="m 103.3,10.4 c -1.4,3.5 0.2,7.4 3.7,8.9 0.9,0.3 1.7,0.5 2.6,0.5 2.7,0 5.2,-1.6 6.3,-4.2 1.4,-3.5 -0.2,-7.4 -3.7,-8.9 -3.5,-1.5 -7.5,0.2 -8.9,3.7 z"
   id="path3117" />
	<path
   class="st2"
   d="m 81,14.1 c 3.7,0 6.8,-3 6.8,-6.8 0,-3.7 -3,-6.8 -6.8,-6.8 -3.8,0 -6.8,3 -6.8,6.8 0,3.8 3,6.8 6.8,6.8 z"
   id="path3119" />
</g>
<g
   class="st1"
   id="g3133"
   transform="translate(547.08372,24.225)">
	<path
   class="st2"
   d="M 53.2,69.3 C 51.7,68.9 49.9,68.9 48,68.6 h -0.4 -0.7 c -0.4,0 -0.7,0 -1.1,0 -5.6,0 -11.1,3.3 -15.2,8.5 -4.1,5.6 -5.2,12.6 -2.6,18.2 v 0.4 c 2.6,6.3 8.5,10.8 16,11.9 7.4,1.5 14.8,-0.7 19.3,-5.6 v 0 0 C 67.4,97.9 70.4,93.1 73.7,87.9 69.2,79.3 62.5,71.5 53.2,69.3 Z m 5.6,20.4 H 37.7 v -4.5 h 21.1 z"
   id="path3123" />
	<path
   class="st2"
   d="m 121.2,70.4 c -7.1,-3 -14.8,-2.6 -20,1.1 v 0 c -5.9,3.7 -10.4,9.6 -14.5,15.9 3,5.9 9.7,17.1 21.5,19.7 v 0 0 c 5.9,1.9 12.6,0 17.8,-4.8 5.6,-4.8 8.2,-11.5 7.1,-17.8 C 132.6,79 127.5,73.4 121.2,70.4 Z M 120,90.5 h -6.3 v 5.9 h -5.6 v -5.9 h -5.9 v -5.6 h 5.9 V 79 h 5.6 v 5.9 h 6.3 z"
   id="path3125" />
	<g
   class="st2"
   id="g3131">
		<g
   id="g3129">
			<path
   d="M 124.6,28.2 89.9,3.2 C 87.4,1.5 84.2,0.4 80.8,0.4 77,0.3 73.4,1.3 70.6,3.2 l -33,24.1 C 18.8,40.6 6.5,62.6 6.5,87.7 c 0,40.8 32.9,74.1 74.1,74.1 40.8,0 74,-32.9 74,-74.1 0,-24.4 -11.8,-46 -30,-59.5 z m 8.4,82.7 c -5.9,5.2 -13,8.2 -20,8.2 -2.6,0 -5.2,-0.4 -7.4,-1.1 -6.7,-1.5 -12.6,-4.8 -17.8,-10.4 -2.6,-2.6 -5.2,-5.9 -7.4,-9.3 -2.6,3.7 -5.2,7.8 -8.9,11.1 -3.3,3.7 -8.2,6.7 -13.4,8.2 -4.8,1.5 -10,1.5 -15.2,0.7 -5.2,-0.7 -10,-3 -14.1,-5.9 C 24.3,109.1 21,105 19.1,100.2 17.2,95.7 16.5,90.6 17.2,85.4 18,80.6 19.8,76.1 22.8,72 c 3,-4.1 6.7,-7.4 10.8,-9.6 4.4,-2.2 9.3,-3.3 14.1,-3.3 h 0.4 c 3,0 5.6,0.4 7.8,0.7 6.7,1.5 12.6,5.2 18.2,10.8 2.6,2.6 4.8,5.2 6.7,8.2 3.7,-5.6 8.5,-11.1 14.8,-14.8 4.4,-3 9.3,-4.5 14.8,-4.8 5.2,-0.4 10.4,0.7 15.2,3 10,4.5 17.1,12.6 18.6,22.6 0.7,4.8 0,10.4 -1.9,15.2 -2.2,3.4 -5.6,7.5 -9.3,10.9 z"
   id="path3127" />
		</g>
	</g>
</g>
<g
   class="st1"
   id="g3145"
   transform="translate(547.08372,24.225)">
	<path
   class="st2"
   d="M 53.7,55.7 C 52.2,55.3 50.4,55.3 48.5,55 h -0.4 -0.7 c -0.4,0 -0.7,0 -1.1,0 -5.6,0 -11.2,3.4 -15.2,8.6 -4.1,5.6 -5.2,12.7 -2.6,18.2 v 0.4 c 2.6,6.3 8.6,10.8 16,11.9 7.4,1.5 14.9,-0.8 19.3,-5.6 v 0 0 C 67.9,84.4 70.9,79.6 74.2,74.4 69.7,65.7 63,57.9 53.7,55.7 Z m 5.5,20.4 H 38 v -4.5 h 21.2 z"
   id="path3135" />
	<path
   class="st2"
   d="m 121.8,56.8 c -7.1,-3 -14.9,-2.6 -20.1,1.1 v 0 c -6,3.7 -10.4,9.7 -14.5,16 3,6 9.7,17.1 21.6,19.7 v 0 0 c 5.9,1.9 12.6,0 17.8,-4.8 5.6,-4.8 8.2,-11.5 7.1,-17.9 -0.4,-5.6 -5.6,-11.2 -11.9,-14.1 z m -1.1,20.1 h -6.3 v 6 h -5.6 v -6 h -6 v -5.6 h 6 v -6 h 5.6 v 6 h 6.3 z"
   id="path3137" />
	<g
   class="st2"
   id="g3143">
		<g
   id="g3141">
			<path
   d="M 81,0.1 C 39.7,0.1 6.7,33.5 6.7,74.4 6.7,99.5 19.1,121.6 38,135 l 33.1,24.2 c 2.7,1.9 6.4,3 10.2,2.9 3.4,-0.1 6.7,-1.1 9.2,-2.9 l 34.8,-25.1 c 18.3,-13.6 30,-35.3 30,-59.7 C 155.3,33.1 121.9,0.1 81,0.1 Z m 52.7,97.2 c -5.9,5.2 -13,8.2 -20.1,8.2 -2.6,0 -5.2,-0.4 -7.4,-1.1 -6.7,-1.5 -12.7,-4.8 -17.9,-10.4 -2.6,-2.6 -5.2,-6 -7.4,-9.3 -2.6,3.7 -5.2,7.8 -8.9,11.2 -3.3,3.7 -8.2,6.7 -13.4,8.2 -4.8,1.5 -10.1,1.5 -15.3,0.8 -5.2,-0.8 -10.1,-3 -14.1,-6 -4.5,-3.3 -7.8,-7.4 -9.7,-12.3 -1.9,-4.5 -2.6,-9.7 -1.9,-14.9 0.8,-4.8 2.6,-9.3 5.6,-13.4 3,-4.1 6.7,-7.4 10.8,-9.7 4.4,-2.2 9.3,-3.3 14.1,-3.3 h 0.4 c 3,0 5.6,0.4 7.8,0.7 6.7,1.5 12.7,5.2 18.2,10.8 2.6,2.6 4.8,5.2 6.7,8.2 3.7,-5.6 8.6,-11.2 14.9,-14.9 4.5,-3 9.3,-4.5 14.9,-4.8 5.2,-0.4 10.4,0.7 15.3,3 10.1,4.5 17.1,12.7 18.6,22.7 0.7,4.8 0,10.4 -1.9,15.3 -2.2,3.6 -5.6,7.7 -9.3,11 z"
   id="path3139" />
		</g>
	</g>
</g>
<g
   id="Raspberry"
   class="st1"
   transform="translate(547.08372,24.225)">
	<path
   class="st2"
   d="M 64.7,60.3 C 53.6,58.2 44.6,64.8 45,76.7 c 0.4,4.5 23.7,-16 19.7,-16.4 z"
   id="path3147" />
	<path
   class="st2"
   d="m 56.1,57 c 3.7,0.4 13.9,0 15.5,-7.8 -3.7,-4.1 -10.6,-9 -22.5,-15.1 9.4,3.3 17.6,7.4 24.6,13.1 8.2,-3.7 2.5,-13.5 -1.6,-17.6 0,1.2 -0.4,1.6 -0.8,2.1 -1.2,-1.2 -2.5,-2.9 -4.1,-4.1 0,0.8 0.4,1.6 -0.4,2.4 -0.8,-1.2 -2.1,-2.4 -3.7,-3.2 0.8,1.2 0,1.6 -0.4,2.4 -1.2,-1.2 -2.5,-2.1 -4.5,-2.9 0.8,0.8 1.6,1.6 0.4,2.5 -1.2,-0.8 -2.5,-1.7 -5.7,-2.1 0.8,0.8 2.1,1.6 1.2,2.4 -1.6,-0.8 -3.3,-1.2 -5.3,-1.2 0.8,0.8 1.6,1.6 0.8,2 C 48,29.5 45.5,28.7 43,29.1 l 1.6,1.6 c 0,0 -3.3,0 -5.7,0 0.8,1.2 1.6,2.5 2.1,4.5 -0.4,0.4 -1.2,0 -2.5,0 1.2,2.4 3.3,2.9 3.7,4.1 -0.8,0.4 -1.6,0.4 -2.9,0 0.8,1.6 2.5,2.9 3.7,4.1 -0.4,0.4 -0.8,0.4 -2.4,0.4 1.2,1.2 2.9,2.4 4.5,3.7 -0.5,0.5 -1.3,0.5 -2.6,0.5 1.6,1.6 3.7,2.5 5.7,3.3 -0.8,0.8 -1.6,0.4 -2.5,0.4 1.2,1.2 3.7,1.6 5.7,2.4 -0.3,0.9 -0.7,0.9 -1.5,0.9 2.5,1.2 5.7,0.8 6.5,1.2 1.3,0 0.5,0.4 -0.3,0.8 z"
   id="path3149" />
	<path
   class="st2"
   d="m 43.4,81.6 c -10.7,6.1 -8.6,19.2 -2.9,24.1 4.9,2.5 9,-25.8 2.9,-24.1 z"
   id="path3151" />
	<path
   class="st2"
   d="m 45.4,107.4 c -2.5,2 -3.3,8.6 0.8,15.5 5.7,7.8 13.5,8.6 16.4,7 3.3,-2.5 1.6,-11.1 -2.5,-16 -4.9,-5.7 -11,-9 -14.7,-6.5 z"
   id="path3153" />
	<path
   class="st2"
   d="m 95.4,60.3 c -4.1,0.8 19.3,21.3 19.7,16.4 0.3,-11.5 -9.1,-18 -19.7,-16.4 z"
   id="path3155" />
	<path
   class="st2"
   d="m 67.9,65.2 c 0,3.7 5.3,7.4 13.1,7.4 7.8,0 13.1,-2.9 13.1,-6.5 C 94.1,62 86.7,57.5 81,57.5 74.1,57 67.9,62.3 67.9,65.2 Z"
   id="path3157" />
	<path
   class="st2"
   d="m 87.6,46.8 c 7,-5.7 15.1,-9.8 24.6,-13.1 -11.9,6.1 -18.8,11.1 -22.5,15.2 2.1,7.8 11.9,8.2 15.5,7.8 -0.8,-0.4 -1.2,-0.8 -1.6,-1.2 0.8,-0.8 4.1,0 6.5,-1.2 -0.8,0 -1.2,-0.4 -1.6,-0.8 2.1,-0.8 4.5,-1.2 5.7,-2.5 -0.8,0 -1.6,0 -2.4,-0.4 2,-1.2 4.1,-2.1 5.7,-3.3 -0.8,0 -2.1,0 -2.5,-0.4 1.6,-1.2 3.3,-2.5 4.5,-3.7 -1.2,0 -2,0 -2.5,-0.4 1.2,-1.2 2.9,-2.4 3.7,-4.1 -1.2,0.4 -2.1,0.4 -2.9,0 0.4,-1.2 2.5,-1.6 3.7,-4.1 -1.2,0 -2.5,0.4 -2.5,0 0.4,-2.1 1.2,-3.3 2.1,-4.5 -2.5,0 -5.7,0 -5.7,0 l 1.6,-1.6 c -2.4,-0.8 -4.5,0 -6.5,0.8 -0.8,-0.4 0,-1.2 0.8,-2.1 -2,0.4 -3.7,0.8 -5.3,1.2 -0.8,-0.8 0.4,-1.6 1.2,-2.4 -2.9,0.4 -4.1,1.2 -5.7,2 -0.8,-0.8 0,-1.6 0.4,-2.5 -2.5,0.8 -3.3,2.1 -4.5,2.9 C 97,28 96.2,27.6 97,26 c -1.6,0.8 -2.9,2 -3.7,3.2 -0.8,-0.8 -0.4,-1.6 -0.4,-2.4 -1.6,1.2 -2.9,2.9 -4.1,4.1 -0.4,0 -0.4,-0.8 -0.8,-2 -2.9,4.4 -8.6,14.2 -0.4,17.9 z"
   id="path3159" />
	<path
   class="st2"
   d="m 81,130.3 c -5.7,0 -14.3,2.5 -14.3,5.3 0,2.1 6.9,8.2 13.9,7.8 6.9,0 13.9,-6.2 13.9,-8.6 0.1,-2.8 -7.7,-4.9 -13.5,-4.5 z"
   id="path3161" />
	<path
   class="st2"
   d="m 116.7,81.2 c -6.5,-1.6 -2,26.2 2.9,24.1 6.1,-4.5 7.7,-18 -2.9,-24.1 z"
   id="path3163" />
	<path
   class="st2"
   d="m 80.6,0.9 c -45,0 -81,36.5 -81,81.1 0,45 36.4,81.1 81.1,81.1 45,0 81.1,-36.4 81.1,-81.1 C 161.7,36.9 125.3,0.9 80.6,0.9 Z m 43.8,106.9 c -0.8,3.3 -1.6,5.7 -2.5,8.6 -1.2,11.1 -10.7,16.4 -13.1,16.8 -3.7,2.9 -7.4,5.3 -12.7,7 -4.9,4.9 -10.2,7 -15.5,7 0,0 0,0 -0.4,0 -5.3,0 -10.6,-2.1 -15.5,-7 -5.3,-1.6 -9,-4.5 -12.7,-7 -2.5,-0.4 -11.9,-5.7 -13.1,-16.8 -0.8,-2.9 -2.1,-5.3 -2.5,-8.6 -9.8,-11.1 -3.7,-24.6 3.3,-28.7 l 0.8,-1.6 c 0,-11.5 5.3,-16 11,-19.7 -1.6,-0.4 -3.7,-0.8 -4.1,-3.2 -3.3,-0.8 -3.7,-2.5 -4.1,-3.7 -0.8,-0.4 -3.7,-2 -3.3,-4.9 -1.6,-1.2 -2.4,-2.5 -2,-4.5 -1.6,-1.6 -2.1,-3.2 -1.2,-4.9 -2,-2.5 -1.2,-3.7 -0.4,-4.9 -1.6,-2.9 0,-5.7 4.1,-5.4 1.6,-2.4 5.3,-2.1 5.7,-2.1 0.8,-0.8 1.6,-1.6 4.1,-1.2 1.6,-1.7 3.3,-1.2 5.3,-0.4 0.8,-0.4 1.6,-0.8 2.1,-0.8 1.2,0 2,0.8 3.3,1.2 2.9,-0.8 3.3,0.4 4.5,0.8 2.9,-0.8 3.7,0.8 5.3,2.1 h 1.6 c 4.5,2.4 6.5,8.2 7.4,10.6 0.8,-2.9 2.9,-8.2 7.4,-10.6 h 1.6 c 1.2,-1.7 2.4,-2.9 5.3,-2.1 1.2,-0.4 2.1,-1.6 4.5,-0.8 1.6,-0.4 3.3,-2.1 5.3,0 2.1,-0.8 3.7,-0.8 5.3,0.4 2.5,-0.4 3.3,0.4 4.1,1.2 0.4,0 4.1,-0.4 5.7,2.1 4.1,-0.4 5.3,2.4 4.1,5.3 0.8,1.2 1.6,2.5 -0.4,4.9 0.8,1.2 0.4,2.9 -1.2,4.9 0.4,2.1 -0.4,3.3 -2.1,4.5 0.4,2.9 -2.5,4.1 -3.3,4.9 -0.4,1.6 -0.8,2.9 -4.1,3.7 -0.4,2.5 -2.5,2.9 -4.1,3.3 6.1,3.7 11.1,8.2 11.1,19.6 l 0.8,1.6 c 8.3,3.8 14.5,17.3 4.6,28.4 z"
   id="path3165" />
	<path
   class="st2"
   d="M 75.3,95.1 C 79.8,88.2 79,79.6 72.8,75.5 67.1,71.8 58.5,74.3 54,81.2 c -4.5,7 -3.7,15.5 2.5,19.6 5.7,3.7 13.9,1.2 18.8,-5.7 z"
   id="path3167" />
	<path
   class="st2"
   d="m 101.5,112.3 c -4.5,5.3 -7,14.8 -3.7,17.6 2.9,2.4 11.5,2.1 17.2,-6.5 4.5,-5.7 2.9,-15.2 0.4,-17.6 -3.6,-2.9 -9,0.7 -13.9,6.5 z"
   id="path3169" />
	<path
   class="st2"
   d="m 81,99.6 c 7.9,0 14.3,5.9 14.3,13.1 0,7.2 -6.4,13.1 -14.3,13.1 -7.9,0 -14.3,-5.9 -14.3,-13.1 0,-7.3 6.4,-13.1 14.3,-13.1 z"
   id="path3171" />
	<path
   class="st2"
   d="m 105.2,100 c 5.7,-3.7 7,-12.7 2.5,-19.6 -4.5,-7 -13.1,-9.4 -18.8,-5.7 -5.8,3.7 -7,12.7 -2.5,19.6 4.5,6.9 13.1,9.4 18.8,5.7 z"
   id="path3173" />
</g>
<g
   class="st1"
   id="g3188"
   transform="translate(547.08372,24.225)">
	<g
   class="st2"
   id="g3180">
		<g
   id="g3178">
			<path
   d="M 134,38.8 101.9,15.7 C 99.6,14.1 96.6,13.1 93.5,13.1 90,13 86.6,13.9 84.1,15.7 L 53.4,37.9 C 41.7,46.3 32.6,58.3 28,72.3 h 12.7 c 0.3,0 0.4,0.2 0.2,0.5 l -1.3,2 c -0.2,0.2 -0.5,0.5 -0.8,0.5 H 27 c -0.4,1.3 -0.7,2.7 -1,4.1 h 10.7 c 0.3,0 0.5,0.2 0.4,0.5 l -0.6,1.8 c -0.1,0.3 -0.4,0.5 -0.7,0.5 H 25.5 c -0.2,1.4 -0.4,2.8 -0.6,4.2 h 10.2 c 0.3,0 0.5,0.2 0.5,0.5 l -0.2,1.8 c 0,0.3 -0.3,0.5 -0.5,0.5 H 24.7 c -0.1,1.6 -0.2,3.2 -0.2,4.9 0,37.7 30.5,68.5 68.5,68.5 37.7,0 68.5,-30.5 68.5,-68.5 C 161.7,71.3 150.8,51.3 134,38.8 Z m -6.7,75.8 c -2,0.4 -4.1,0.5 -6,0.7 -6.8,-0.1 -13.1,-2.1 -18.3,-6.6 -3.7,-3.2 -6.2,-7.1 -7.5,-11.7 -0.9,1.8 -1.9,3.5 -3.2,5.1 -5.4,7.1 -12.5,11.6 -21.4,12.8 -7.4,1 -14.2,-0.4 -20.2,-5 -5.6,-4.2 -8.7,-9.8 -9.5,-16.7 -1,-8.2 1.4,-15.5 6.4,-22 5.3,-7 12.4,-11.4 21,-13 7.1,-1.3 13.8,-0.5 19.9,3.7 4,2.6 6.8,6.2 8.7,10.6 0.5,0.7 0.1,1.1 -0.8,1.3 -4.7,1.2 -8,2.1 -12.6,3.3 -1.1,0.3 -1.2,0.4 -2.2,-0.8 -1.1,-1.3 -2,-2.1 -3.5,-2.9 -4.7,-2.3 -9.3,-1.7 -13.6,1.1 -5.1,3.3 -7.7,8.2 -7.7,14.3 0.1,6 4.2,11 10.1,11.8 5.1,0.7 9.4,-1.1 12.8,-5 0.7,-0.8 1.3,-1.7 2,-2.8 H 67.3 c -1.6,0 -2,-1 -1.4,-2.3 1,-2.3 2.8,-6.2 3.8,-8.2 0.2,-0.5 0.8,-1.2 1.9,-1.2 h 24.2 c 1.1,-3.4 2.8,-6.7 5.2,-9.8 5.5,-7.2 12.1,-11 21,-12.5 7.7,-1.4 14.9,-0.6 21.4,3.8 5.9,4.1 9.6,9.5 10.6,16.7 1.3,10.1 -1.7,18.4 -8.6,25.5 -5.1,5.2 -11.1,8.4 -18.1,9.8 z m -3.7,-42.1 c -7,1.6 -11.5,6 -13.1,13.1 -1.4,5.9 1.5,11.8 6.9,14.2 4.1,1.8 8.3,1.6 12.2,-0.5 5.9,-3.1 9.2,-7.9 9.5,-14.3 -0.1,-1 -0.1,-1.7 -0.2,-2.5 -1.3,-7.5 -8.2,-11.7 -15.3,-10 z"
   id="path3176" />
		</g>
	</g>
	<path
   class="st2"
   d="m 11.5,75.1 c -0.2,0 -0.2,-0.1 -0.1,-0.4 l 0.9,-2 c 0.1,-0.2 0.3,-0.4 0.5,-0.4 h 15.3 c 0.2,0 0.2,0.2 0.1,0.5 l -0.7,2 c -0.1,0.2 -0.3,0.5 -0.4,0.5 z"
   id="path3182" />
	<path
   class="st2"
   d="M 0.2,82 C 0,82 -0.1,81.8 0,81.6 l 1.1,-2 c 0.1,-0.2 0.4,-0.4 0.6,-0.4 h 24.4 c 0.2,0 0.3,0.2 0.3,0.5 L 26,81.5 C 25.9,81.8 25.7,82 25.5,82 Z"
   id="path3184" />
	<path
   class="st2"
   d="m 18.3,88.9 c -0.1,0 -0.2,-0.2 -0.1,-0.5 l 0.4,-1.9 C 18.7,86.3 18.8,86 18.9,86 H 25 c 0.1,0 0.2,0.2 0.2,0.5 l -0.1,1.8 c 0,0.3 -0.1,0.5 -0.2,0.5 z"
   id="path3186" />
</g>
<g
   class="st1"
   id="g3202"
   transform="translate(547.08372,24.225)">
	<g
   class="st2"
   id="g3194">
		<g
   id="g3192">
			<path
   d="M 92.6,0 C 57.1,0 28.1,26.4 23.7,60.4 H 41 c 0.3,0 0.4,0.2 0.2,0.5 l -1.3,2 c -0.2,0.2 -0.5,0.5 -0.8,0.5 H 23.3 c -0.1,1.4 -0.2,2.7 -0.2,4.1 h 14 c 0.3,0 0.5,0.2 0.4,0.5 l -0.6,1.8 c -0.1,0.3 -0.4,0.5 -0.7,0.5 H 23.1 c 0,1.4 0.1,2.8 0.2,4.2 h 12.2 c 0.3,0 0.5,0.2 0.5,0.5 l -0.2,1.8 c 0,0.3 -0.3,0.5 -0.5,0.5 L 23.6,77.2 c 2.2,20.2 13.1,37.8 28.8,48.9 l 31,22.6 c 2.6,1.8 6,2.8 9.5,2.7 3.2,-0.1 6.2,-1 8.6,-2.7 l 32.6,-23.4 c 17.1,-12.7 28.1,-33 28.1,-55.8 C 162,30.8 130.8,0 92.6,0 Z m 36,103.1 c -2,0.4 -4.1,0.5 -6.1,0.7 -6.9,-0.2 -13.2,-2.1 -18.5,-6.7 -3.7,-3.2 -6.3,-7.2 -7.6,-11.8 -0.9,1.8 -2,3.5 -3.2,5.2 -5.5,7.2 -12.6,11.7 -21.6,12.9 -7.4,1 -14.3,-0.5 -20.4,-5 -5.6,-4.2 -8.8,-9.9 -9.6,-16.8 -1,-8.3 1.4,-15.7 6.4,-22.2 5.4,-7.1 12.5,-11.5 21.2,-13.1 7.1,-1.3 14,-0.5 20.1,3.7 4,2.7 6.9,6.3 8.8,10.7 0.5,0.7 0.2,1.1 -0.8,1.3 -4.8,1.2 -8,2.1 -12.7,3.3 -1.1,0.3 -1.2,0.4 -2.2,-0.8 -1.1,-1.3 -2,-2.1 -3.6,-2.9 C 74,59.2 69.4,59.9 65.1,62.7 60,66 57.4,70.9 57.4,77 c 0.1,6.1 4.2,11.1 10.2,11.9 5.2,0.7 9.5,-1.1 12.9,-5 0.7,-0.8 1.3,-1.7 2,-2.8 H 68 c -1.6,0 -2,-1 -1.4,-2.3 1,-2.4 2.8,-6.3 3.9,-8.3 0.2,-0.5 0.8,-1.2 1.9,-1.2 h 24.4 c 1.1,-3.5 2.9,-6.8 5.2,-9.9 5.5,-7.3 12.2,-11.1 21.2,-12.7 7.7,-1.4 15,-0.6 21.6,3.9 6,4.1 9.7,9.6 10.7,16.9 1.3,10.2 -1.7,18.6 -8.7,25.7 -5,5.2 -11.2,8.4 -18.2,9.9 z m -3.7,-42.6 c -7.1,1.6 -11.6,6.1 -13.3,13.2 -1.4,5.9 1.5,11.9 7,14.3 4.2,1.8 8.3,1.6 12.4,-0.5 6,-3.1 9.3,-8 9.6,-14.5 -0.1,-1 -0.1,-1.7 -0.2,-2.5 -1.4,-7.4 -8.3,-11.7 -15.5,-10 z"
   id="path3190" />
		</g>
	</g>
	<path
   class="st2"
   d="m 11.6,63.1 c -0.1,0 -0.2,-0.2 -0.1,-0.4 l 0.7,-2 c 0.1,-0.2 0.2,-0.4 0.4,-0.4 H 24 c 0.1,0 0.2,0.2 0.1,0.5 l -0.5,2 c -0.1,0.2 -0.2,0.5 -0.3,0.5 z"
   id="path3196" />
	<path
   class="st2"
   d="M 0.2,70.1 C 0,70.1 0,70 0,69.7 l 1,-2 c 0.1,-0.2 0.3,-0.4 0.5,-0.4 h 21.8 c 0.2,0 0.3,0.2 0.2,0.5 l -0.4,1.8 c 0,0.3 -0.2,0.5 -0.4,0.5 z"
   id="path3198" />
	<path
   class="st2"
   d="m 18.4,77.1 c -0.1,0 -0.1,-0.2 -0.1,-0.5 l 0.3,-1.9 c 0,-0.2 0.1,-0.5 0.2,-0.5 h 4.5 c 0.1,0 0.1,0.2 0.1,0.5 v 1.8 c 0,0.3 -0.1,0.5 -0.2,0.5 z"
   id="path3200" />
</g>
</svg>
