<?xml version="1.0" standalone="no"?><!-- Generator: Gravit.io --><svg xmlns="http://www.w3.org/2000/svg" xmlns:xlink="http://www.w3.org/1999/xlink" style="isolation:isolate" viewBox="13.429 0 1092.807 364.405" width="1092.807" height="364.405"><g id="Oben"><g id="XMLID_7_"><path d=" M 991.812 345.557 L 127.852 345.557 L 13.429 232.133 L 13.429 128.995 L 126.852 15.572 L 992.812 15.572 L 1106.236 128.852 L 1106.236 232.133 L 991.812 345.557 L 991.812 345.557 Z  M 134.423 329.842 L 985.384 329.842 L 1090.808 225.562 L 1090.808 135.281 L 986.527 31.143 L 133.423 31.143 L 29.142 135.424 L 29.142 225.563 L 134.423 329.842 L 134.423 329.842 Z " fill="rgb(1,2,2)"/></g><g id="XMLID_6_"><path d=" M 73.426 88.139 L 73.283 72.426 L 734.54 72.426 L 792.538 20.286 L 802.965 32 L 740.681 87.997 L 73.426 88.139 Z " fill="rgb(1,2,2)"/></g><path id="besetzt_l_g5" class="besetzt left" d=" M 440.783 335.406 C 440.783 324.762 449.424 316.121 460.068 316.121 C 470.712 316.121 479.353 324.762 479.353 335.406 C 479.353 346.05 470.712 354.691 460.068 354.691 C 449.424 354.691 440.783 346.05 440.783 335.406 Z " fill="rgb(255,255,255)" vector-effect="non-scaling-stroke" stroke-width="2" stroke="rgb(2,3,4)" stroke-linejoin="miter" stroke-linecap="butt" stroke-miterlimit="10"/><path id="besetzt_r_g5" class="besetzt right" d=" M 640.783 335.406 C 640.783 324.762 649.424 316.121 660.068 316.121 C 670.712 316.121 679.353 324.762 679.353 335.406 C 679.353 346.05 670.712 354.691 660.068 354.691 C 649.424 354.691 640.783 346.05 640.783 335.406 Z " fill="rgb(255,255,255)" vector-effect="non-scaling-stroke" stroke-width="2" stroke="rgb(2,3,4)" stroke-linejoin="miter" stroke-linecap="butt" stroke-miterlimit="10"/><path id="einfahrt_l_g5" class="einfahrt left" d=" M 370.783 335.406 C 370.783 324.762 379.424 316.121 390.068 316.121 C 400.712 316.121 409.353 324.762 409.353 335.406 C 409.353 346.05 400.712 354.691 390.068 354.691 C 379.424 354.691 370.783 346.05 370.783 335.406 Z " fill="rgb(255,255,255)" vector-effect="non-scaling-stroke" stroke-width="2" stroke="rgb(2,3,4)" stroke-linejoin="miter" stroke-linecap="butt" stroke-miterlimit="10"/><path id="einfahrt_r_g5" class="einfahrt right" d=" M 710.783 335.406 C 710.783 324.762 719.424 316.121 730.068 316.121 C 740.712 316.121 749.353 324.762 749.353 335.406 C 749.353 346.05 740.712 354.691 730.068 354.691 C 719.424 354.691 710.783 346.05 710.783 335.406 Z " fill="rgb(255,255,255)" vector-effect="non-scaling-stroke" stroke-width="2" stroke="rgb(2,3,4)" stroke-linejoin="miter" stroke-linecap="butt" stroke-miterlimit="10"/><g id="versatz_r_g5" class="versatz right"><g id="XMLID_49_"><path d=" M 786.619 349.264 L 800.476 335.409 L 786.619 321.551 L 799.761 308.409 L 826.619 335.409 L 799.761 362.406 L 786.619 349.264 Z " fill="rgb(1,2,2)"/><path d=" M 799.761 310.409 L 824.761 335.409 L 799.761 360.407 L 788.618 349.265 L 802.473 335.41 L 788.618 321.553 L 799.761 310.409 Z  M 799.761 306.409 L 797.761 308.409 L 786.618 319.552 L 784.618 321.552 L 786.618 323.552 L 798.473 335.409 L 786.618 347.264 L 784.618 349.264 L 786.618 351.264 L 797.761 362.407 L 799.761 364.405 L 801.761 362.407 L 826.761 337.409 L 828.761 335.409 L 826.761 333.409 L 801.761 308.409 L 799.761 306.409 L 799.761 306.409 L 799.761 306.409 Z " fill="rgb(255,255,255)"/></g></g><g id="XMLID_12_"><g id="versatz_l_g5" class="versatz left"><path d=" M 335.496 321.549 L 321.638 335.404 L 335.496 349.262 L 322.353 362.404 L 295.496 335.404 L 322.353 308.406 L 335.496 321.549 Z " fill="rgb(1,2,2)"/><path d=" M 322.353 360.404 L 297.353 335.404 L 322.353 310.406 L 333.496 321.549 L 319.641 335.404 L 333.496 349.261 L 322.353 360.404 Z  M 322.353 364.404 L 324.353 362.404 L 335.496 351.261 L 337.496 349.261 L 335.496 347.261 L 323.641 335.404 L 335.496 323.549 L 337.496 321.549 L 335.496 319.549 L 324.353 308.406 L 322.353 306.408 L 320.353 308.406 L 295.353 333.404 L 293.353 335.404 L 295.353 337.404 L 320.353 362.404 L 322.353 364.404 L 322.353 364.404 L 322.353 364.404 Z " fill="rgb(255,255,255)"/></g></g><path id="besetzt_r_g6" class="besetzt right" d=" M 640.783 80.924 C 640.783 70.28 649.424 61.639 660.068 61.639 C 670.712 61.639 679.353 70.28 679.353 80.924 C 679.353 91.568 670.712 100.209 660.068 100.209 C 649.424 100.209 640.783 91.568 640.783 80.924 Z " fill="rgb(255,255,255)" vector-effect="non-scaling-stroke" stroke-width="2" stroke="rgb(2,3,4)" stroke-linejoin="miter" stroke-linecap="butt" stroke-miterlimit="10"/><path id="besetzt_r_g7" class="besetzt right" d=" M 640.783 20.285 C 640.783 9.641 649.424 1 660.068 1 C 670.712 1 679.353 9.641 679.353 20.285 C 679.353 30.929 670.712 39.57 660.068 39.57 C 649.424 39.57 640.783 30.929 640.783 20.285 Z " fill="rgb(255,255,255)" vector-effect="non-scaling-stroke" stroke-width="2" stroke="rgb(2,3,4)" stroke-linejoin="miter" stroke-linecap="butt" stroke-miterlimit="10"/><path id="besetzt_l_g6" class="besetzt left" d=" M 440.783 80.923 C 440.783 70.279 449.424 61.638 460.068 61.638 C 470.712 61.638 479.353 70.279 479.353 80.923 C 479.353 91.567 470.712 100.208 460.068 100.208 C 449.424 100.208 440.783 91.567 440.783 80.923 Z " fill="rgb(255,255,255)" vector-effect="non-scaling-stroke" stroke-width="2" stroke="rgb(2,3,4)" stroke-linejoin="miter" stroke-linecap="butt" stroke-miterlimit="10"/><g id="Group"><path d=" M 345.179 199.26 C 345.179 184.114 349.157 172.331 356.96 163.764 C 364.763 155.195 375.32 151.064 388.325 151.064 C 401.33 151.064 411.735 155.348 419.691 163.764 C 427.494 172.331 431.472 184.114 431.472 199.26 C 431.472 214.407 427.494 226.494 419.691 235.215 C 411.734 244.09 401.33 248.373 388.478 248.373 C 375.473 248.373 365.068 243.935 357.265 235.215 C 349.157 226.495 345.179 214.408 345.179 199.26 Z  M 408.37 199.26 C 408.37 190.233 406.534 183.195 403.015 177.992 C 399.495 172.79 394.6 170.342 388.327 170.342 C 382.054 170.342 377.311 172.944 373.639 177.992 C 370.119 183.194 368.284 190.232 368.284 199.26 C 368.284 208.44 370.12 215.783 373.639 221.139 C 377.158 226.494 382.054 229.096 388.327 229.096 C 394.6 229.096 399.497 226.342 403.015 220.987 C 406.533 215.631 408.37 208.288 408.37 199.26 Z " fill="rgb(3,156,136)"/><path d=" M 472.783 248.375 C 466.051 248.375 459.931 245.315 454.423 239.195 C 454.27 239.042 454.117 239.042 453.964 239.042 C 453.811 239.042 453.658 239.195 453.658 239.348 L 453.505 239.807 C 453.046 241.796 451.975 243.479 450.292 244.856 C 448.762 246.08 446.926 246.845 444.784 246.845 L 443.101 246.845 C 440.653 246.845 438.511 245.927 436.828 244.243 C 435.145 242.56 434.227 240.419 434.227 238.124 L 434.227 156.726 C 434.227 153.819 435.298 151.218 437.44 149.076 C 439.582 146.934 442.03 145.863 445.09 145.863 L 446.008 145.863 C 448.915 145.863 451.516 146.934 453.658 149.076 C 455.8 151.218 456.871 153.667 456.871 156.726 L 456.871 170.19 L 456.412 179.676 C 456.412 179.982 456.565 180.135 456.718 180.287 C 456.871 180.439 457.177 180.44 457.33 180.287 C 462.838 175.697 468.652 173.402 474.926 173.402 C 483.494 173.402 490.379 176.767 495.582 183.347 C 500.631 189.925 503.232 198.8 503.232 209.816 C 503.232 215.784 502.314 221.292 500.631 226.34 C 498.948 231.388 496.653 235.521 493.899 238.734 C 490.992 241.947 487.779 244.396 484.26 246.231 C 480.281 247.61 476.609 248.375 472.783 248.375 Z  M 467.428 230.014 C 471.1 230.014 474.16 228.33 476.302 225.118 C 478.598 221.905 479.668 216.703 479.668 209.971 C 479.668 203.699 478.75 198.954 476.761 195.896 C 474.925 192.835 472.018 191.304 468.04 191.304 C 464.368 191.304 460.849 192.988 457.482 196.507 C 456.87 197.118 456.564 197.884 456.564 198.802 L 456.564 224.659 C 456.564 225.424 456.87 226.188 457.482 226.647 C 460.543 228.943 463.756 230.014 467.428 230.014 Z " fill="rgb(3,156,136)"/><path d=" M 537.198 248.375 C 526.641 248.375 517.92 245.009 511.035 238.276 C 504.15 231.543 500.784 222.364 500.784 210.735 C 500.784 205.075 501.702 199.873 503.691 194.976 C 505.68 190.234 508.129 186.102 511.341 183.041 C 514.554 179.828 518.073 177.381 522.204 175.697 C 526.335 174.015 530.466 173.096 534.904 173.096 C 544.849 173.096 552.346 176.156 557.548 182.429 C 562.903 188.855 565.657 196.964 565.657 206.909 C 565.657 209.816 564.433 212.264 562.138 214.253 C 559.843 216.242 557.088 217.16 553.875 217.16 L 523.581 217.16 C 523.275 217.16 522.969 217.313 522.816 217.619 C 522.663 217.925 522.51 218.231 522.663 218.384 C 524.958 226.8 530.772 231.084 540.259 231.084 C 543.013 231.084 545.767 230.624 548.521 229.706 C 549.438 229.4 550.51 229.247 551.734 229.247 C 552.651 229.247 553.569 229.4 554.64 229.554 C 556.629 230.165 558.312 231.39 559.383 233.226 C 559.995 234.603 560.301 235.828 560.301 237.357 C 560.301 238.734 559.995 239.959 559.383 241.183 C 558.618 242.407 557.7 243.324 556.476 243.937 C 550.05 246.997 543.624 248.375 537.198 248.375 Z  M 522.356 201.862 C 522.356 202.014 522.509 202.168 522.662 202.473 C 522.815 202.778 523.121 202.779 523.427 202.779 L 545.307 202.779 C 545.613 202.779 545.919 202.626 546.225 202.473 C 546.378 202.167 546.53 202.014 546.53 201.555 C 546.377 198.035 545.306 195.282 543.469 193.292 C 541.634 191.303 538.879 190.232 535.207 190.232 C 532.147 190.232 529.394 191.15 527.098 193.138 C 523.887 195.742 522.356 198.649 522.356 201.862 Z " fill="rgb(3,156,136)"/><path d=" M 578.049 246.691 C 575.142 246.691 572.541 245.62 570.4 243.478 C 568.257 241.336 567.186 238.887 567.186 235.829 L 567.186 183.96 C 567.186 181.359 568.105 179.218 569.788 177.382 C 571.624 175.546 573.766 174.627 576.215 174.627 L 577.132 174.627 C 579.58 174.627 581.57 175.393 583.405 176.923 C 585.241 178.452 586.312 180.443 586.619 182.736 L 586.771 183.348 C 586.771 183.5 586.924 183.654 587.078 183.654 C 587.23 183.654 587.384 183.654 587.536 183.501 C 594.728 176.463 602.378 172.943 610.334 172.943 C 617.831 172.943 623.492 175.544 627.164 180.593 C 630.836 185.642 632.672 192.833 632.672 202.166 L 632.672 235.826 C 632.672 238.733 631.602 241.335 629.459 243.476 C 627.317 245.619 624.869 246.689 621.81 246.689 L 620.891 246.689 C 617.985 246.689 615.383 245.619 613.242 243.476 C 611.1 241.334 610.029 238.886 610.029 235.826 L 610.029 204.92 C 610.029 200.177 609.417 196.811 608.04 194.975 C 606.663 193.139 604.52 192.221 601.613 192.221 C 599.318 192.221 597.482 192.68 595.8 193.446 C 594.117 194.364 592.128 195.741 589.987 197.729 C 589.375 198.341 589.068 198.954 589.068 199.872 L 589.068 235.827 C 589.068 238.734 587.997 241.335 585.855 243.477 C 583.713 245.618 581.265 246.69 578.206 246.69 L 578.049 246.691 L 578.049 246.691 L 578.049 246.691 Z " fill="rgb(3,156,136)"/><path d=" M 657.764 187.938 C 661.283 186.255 666.026 184.725 671.84 183.5 C 677.653 182.124 683.927 181.358 690.506 181.358 C 697.237 181.358 703.359 182.277 709.019 184.265 C 714.681 186.254 719.271 189.467 722.484 194.058 C 725.85 198.648 727.534 204.002 727.534 210.122 C 727.381 218.385 725.086 225.729 720.802 232.155 C 716.518 238.581 709.326 243.477 699.533 246.69 C 689.742 249.903 680.868 251.586 672.759 251.586 C 667.71 251.586 665.109 248.679 665.109 242.865 C 665.262 237.051 667.864 233.99 673.218 233.684 C 679.49 233.684 685.918 232.613 692.344 230.318 C 698.77 228.023 703.206 225.269 705.501 221.75 C 707.797 218.23 708.715 214.253 708.562 209.664 C 708.562 206.297 707.337 203.696 704.89 201.707 C 702.442 199.718 697.545 198.801 690.202 198.646 C 686.224 198.8 682.093 199.258 677.655 200.33 C 673.219 201.4 667.711 202.777 660.978 204.767 C 656.388 206.604 653.329 204.614 651.645 198.8 C 650.878 193.905 652.868 190.234 657.764 187.938 Z  M 668.626 154.737 C 676.735 154.431 683.468 154.278 688.67 154.431 C 693.872 154.584 700.91 155.042 709.325 155.808 C 715.293 156.573 718.352 159.939 718.505 165.753 C 718.353 171.873 715.293 174.321 709.325 173.097 C 700.757 172.179 693.872 171.567 688.67 171.414 C 680.561 171.414 675.206 171.414 672.911 171.567 C 670.463 171.719 669.239 171.719 669.239 171.873 C 664.036 172.026 661.282 169.272 661.282 163.305 C 661.283 157.95 663.884 155.042 668.626 154.737 Z " fill="rgb(3,156,136)"/><path d=" M 785.215 178.605 C 791.029 178.605 794.7 180.9 796.232 185.643 C 797.761 190.234 796.384 194.364 791.794 197.883 L 782.614 207.064 C 785.52 207.981 787.356 209.665 787.815 211.807 C 788.274 213.948 788.581 216.09 788.427 218.233 C 788.427 219.916 788.427 221.753 788.427 223.741 C 788.427 225.73 788.733 227.566 789.498 229.402 C 790.263 231.238 791.641 232.157 793.936 232.309 C 796.077 232.462 798.678 232.157 801.585 231.391 C 807.093 230.166 810.153 232.615 810.918 238.276 C 811.683 244.243 809.235 248.069 803.573 249.598 C 800.513 250.516 796.383 250.975 791.18 250.975 C 785.213 250.822 780.317 249.138 776.492 245.62 C 772.82 242.1 770.984 237.205 770.984 230.778 C 770.984 227.565 770.984 225.117 770.984 223.741 C 770.984 222.363 770.984 221.598 770.984 221.598 C 770.984 221.444 770.984 221.139 770.984 220.68 C 770.984 220.068 770.831 219.609 770.525 219.149 C 770.218 218.69 769.913 218.69 769.301 219.149 L 745.738 241.182 C 740.383 246.078 735.486 246.078 731.355 241.182 C 728.295 236.286 728.448 231.849 732.273 227.871 L 768.84 195.587 L 742.219 195.587 C 736.557 195.587 733.651 192.68 733.651 187.019 C 733.651 181.358 736.557 178.452 742.219 178.452 L 785.212 178.452 L 785.212 178.605 L 785.215 178.605 Z  M 749.872 153.666 C 757.981 153.36 764.713 153.207 769.915 153.36 C 775.117 153.513 781.084 153.972 787.663 154.737 C 793.631 155.502 796.69 158.868 796.844 164.681 C 796.691 170.495 793.631 172.79 787.663 171.566 C 781.084 170.956 774.506 170.496 767.773 170.496 C 761.041 170.343 756.451 170.343 754.156 170.19 C 751.708 170.037 750.484 170.037 750.484 170.19 C 745.281 170.342 742.527 167.742 742.527 162.233 C 742.527 157.032 745.128 154.125 749.872 153.666 Z " fill="rgb(3,156,136)"/></g></g></svg>