<?xml version="1.0" standalone="no"?><!-- Generator: Gravit.io --><svg xmlns="http://www.w3.org/2000/svg" xmlns:xlink="http://www.w3.org/1999/xlink" style="isolation:isolate" viewBox="0 401.717 1117.808 445.76" width="1117.808" height="445.76"><g id="Unten"><g id="XMLID_1_"><path d=" M 130.281 422.002 L 987.67 422.002 L 1097.523 530.854 L 1097.523 656.133 L 988.67 764.986 L 129.138 764.986 L 20.285 656.277 L 20.285 530.854 L 130.281 422.002 Z " fill="none" vector-effect="non-scaling-stroke" stroke-width="1" stroke="rgb(2,3,4)" stroke-linejoin="miter" stroke-linecap="butt" stroke-miterlimit="10"/><path d=" M 991.958 772.842 L 125.995 772.842 L 12.572 659.562 L 12.572 527.711 L 127.138 414.287 L 990.957 414.287 L 1105.379 527.711 L 1105.379 659.42 L 991.958 772.842 L 991.958 772.842 Z  M 132.423 757.129 L 985.384 757.129 L 1089.665 652.848 L 1089.665 534.139 L 984.384 429.858 L 133.567 429.858 L 28.142 534.139 L 28.142 652.992 L 132.423 757.129 L 132.423 757.129 Z " fill="rgb(2,3,4)"/></g><g id="XMLID_4_"><rect x="552.217" y="224.073" width="15.715" height="970.826" transform="matrix(0.003,1,-1,0.003,1267.878,147.286)" fill="rgb(1,2,2)"/></g><g id="XMLID_5_"><path d=" M 183.85 827.269 L 180.708 827.269 L 123.709 770.557 L 134.709 759.415 L 187.135 811.555 L 930.959 811.555 L 983.099 759.415 L 994.243 770.557 L 937.529 827.269 L 183.85 827.269 Z " fill="rgb(1,2,2)"/></g><g id="XMLID_3_"><rect x="20.285" y="648.277" width="1077.238" height="15.714" transform="matrix(1,0,0,1,0,0)" fill="rgb(1,2,2)"/></g><path id="besetzt_l_g4" class="besetzt left" d=" M 418.712 656.133 C 418.712 645.489 427.353 636.848 437.997 636.848 C 448.641 636.848 457.282 645.489 457.282 656.133 C 457.282 666.777 448.641 675.418 437.997 675.418 C 427.353 675.418 418.712 666.777 418.712 656.133 Z " fill="rgb(255,255,255)" vector-effect="non-scaling-stroke" stroke-width="2" stroke="rgb(2,3,4)" stroke-linejoin="miter" stroke-linecap="butt" stroke-miterlimit="10"/><path id="besetzt_r_g4" class="besetzt right" d=" M 618.713 656.133 C 618.713 645.489 627.354 636.848 637.998 636.848 C 648.642 636.848 657.283 645.489 657.283 656.133 C 657.283 666.777 648.642 675.418 637.998 675.418 C 627.354 675.418 618.713 666.777 618.713 656.133 Z " fill="rgb(255,255,255)" vector-effect="non-scaling-stroke" stroke-width="2" stroke="rgb(2,3,4)" stroke-linejoin="miter" stroke-linecap="butt" stroke-miterlimit="10"/><path id="einfahrt_l_g4" class="einfahrt left" d=" M 348.712 656.133 C 348.712 645.489 357.353 636.848 367.997 636.848 C 378.641 636.848 387.282 645.489 387.282 656.133 C 387.282 666.777 378.641 675.418 367.997 675.418 C 357.353 675.418 348.712 666.777 348.712 656.133 Z " fill="rgb(255,255,255)" vector-effect="non-scaling-stroke" stroke-width="2" stroke="rgb(2,3,4)" stroke-linejoin="miter" stroke-linecap="butt" stroke-miterlimit="10"/><path id="einfahrt_r_g4" class="einfahrt right" d=" M 688.713 656.133 C 688.713 645.489 697.354 636.848 707.998 636.848 C 718.642 636.848 727.283 645.489 727.283 656.133 C 727.283 666.777 718.642 675.418 707.998 675.418 C 697.354 675.418 688.713 666.777 688.713 656.133 Z " fill="rgb(255,255,255)" vector-effect="non-scaling-stroke" stroke-width="2" stroke="rgb(2,3,4)" stroke-linejoin="miter" stroke-linecap="butt" stroke-miterlimit="10"/><g id="versatz_r_g4" class="versatz right"><g id="XMLID_25_"><path d=" M 764.548 669.991 L 778.406 656.135 L 764.548 642.278 L 777.691 629.135 L 804.548 656.135 L 777.691 683.133 L 764.548 669.991 Z " fill="rgb(1,2,2)"/><path d=" M 777.691 631.135 L 802.691 656.135 L 777.691 681.133 L 766.548 669.99 L 780.403 656.135 L 766.548 642.278 L 777.691 631.135 Z  M 777.691 627.135 L 775.691 629.135 L 764.548 640.278 L 762.548 642.278 L 764.548 644.278 L 776.403 656.135 L 764.548 667.99 L 762.548 669.99 L 764.548 671.99 L 775.691 683.133 L 777.691 685.131 L 779.691 683.133 L 804.691 658.135 L 806.691 656.135 L 804.691 654.135 L 779.691 629.135 L 777.691 627.135 L 777.691 627.135 L 777.691 627.135 Z " fill="rgb(255,255,255)"/></g></g><g id="versatz_l_g4" class="versatz left"><g id="XMLID_21_"><path d=" M 313.425 642.276 L 299.567 656.131 L 313.425 669.989 L 300.282 683.131 L 273.425 656.131 L 300.282 629.133 L 313.425 642.276 Z " fill="rgb(1,2,2)"/><path d=" M 300.282 681.131 L 275.282 656.131 L 300.282 631.133 L 311.425 642.276 L 297.57 656.131 L 311.425 669.988 L 300.282 681.131 Z  M 300.282 685.131 L 302.282 683.131 L 313.425 671.988 L 315.425 669.988 L 313.425 667.988 L 301.57 656.131 L 313.425 644.276 L 315.425 642.276 L 313.425 640.276 L 302.282 629.133 L 300.282 627.135 L 298.282 629.133 L 273.282 654.131 L 271.282 656.131 L 273.282 658.131 L 298.282 683.131 L 300.282 685.131 L 300.282 685.131 L 300.282 685.131 Z " fill="rgb(255,255,255)"/></g></g><path id="besetzt_l_g3" class="besetzt left" d=" M 418.712 709.472 C 418.712 698.828 427.353 690.187 437.997 690.187 C 448.641 690.187 457.282 698.828 457.282 709.472 C 457.282 720.116 448.641 728.757 437.997 728.757 C 427.353 728.757 418.712 720.116 418.712 709.472 Z " fill="rgb(255,255,255)" vector-effect="non-scaling-stroke" stroke-width="2" stroke="rgb(2,3,4)" stroke-linejoin="miter" stroke-linecap="butt" stroke-miterlimit="10"/><path id="besetzt_r_g3" class="besetzt right" d=" M 618.713 709.472 C 618.713 698.828 627.354 690.187 637.998 690.187 C 648.642 690.187 657.283 698.828 657.283 709.472 C 657.283 720.116 648.642 728.757 637.998 728.757 C 627.354 728.757 618.713 720.116 618.713 709.472 Z " fill="rgb(255,255,255)" vector-effect="non-scaling-stroke" stroke-width="2" stroke="rgb(2,3,4)" stroke-linejoin="miter" stroke-linecap="butt" stroke-miterlimit="10"/><path id="einfahrt_l_g3" class="einfahrt left" d=" M 348.712 709.472 C 348.712 698.828 357.353 690.187 367.997 690.187 C 378.641 690.187 387.282 698.828 387.282 709.472 C 387.282 720.116 378.641 728.757 367.997 728.757 C 357.353 728.757 348.712 720.116 348.712 709.472 Z " fill="rgb(255,255,255)" vector-effect="non-scaling-stroke" stroke-width="2" stroke="rgb(2,3,4)" stroke-linejoin="miter" stroke-linecap="butt" stroke-miterlimit="10"/><path id="einfahrt_r_g3" class="einfahrt right" d=" M 688.713 709.472 C 688.713 698.828 697.354 690.187 707.998 690.187 C 718.642 690.187 727.283 698.828 727.283 709.472 C 727.283 720.116 718.642 728.757 707.998 728.757 C 697.354 728.757 688.713 720.116 688.713 709.472 Z " fill="rgb(255,255,255)" vector-effect="non-scaling-stroke" stroke-width="2" stroke="rgb(2,3,4)" stroke-linejoin="miter" stroke-linecap="butt" stroke-miterlimit="10"/><g id="versatz_r_g3" class="versatz right"><g id="XMLID_44_"><path d=" M 764.548 723.33 L 778.406 709.474 L 764.548 695.617 L 777.691 682.474 L 804.548 709.474 L 777.691 736.472 L 764.548 723.33 Z " fill="rgb(1,2,2)"/><path d=" M 777.691 684.474 L 802.691 709.474 L 777.691 734.472 L 766.548 723.329 L 780.403 709.474 L 766.548 695.617 L 777.691 684.474 Z  M 777.691 680.474 L 775.691 682.474 L 764.548 693.617 L 762.548 695.617 L 764.548 697.617 L 776.403 709.474 L 764.548 721.329 L 762.548 723.329 L 764.548 725.329 L 775.691 736.472 L 777.691 738.47 L 779.691 736.472 L 804.691 711.474 L 806.691 709.474 L 804.691 707.474 L 779.691 682.474 L 777.691 680.474 L 777.691 680.474 L 777.691 680.474 Z " fill="rgb(255,255,255)"/></g></g><g id="versatz_l_g3" class="versatz left"><g id="XMLID_36_"><path d=" M 313.425 695.615 L 299.567 709.47 L 313.425 723.328 L 300.282 736.47 L 273.425 709.47 L 300.282 682.472 L 313.425 695.615 Z " fill="rgb(1,2,2)"/><path d=" M 300.282 734.47 L 275.282 709.47 L 300.282 684.472 L 311.425 695.615 L 297.57 709.47 L 311.425 723.327 L 300.282 734.47 Z  M 300.282 738.47 L 302.282 736.47 L 313.425 725.327 L 315.425 723.327 L 313.425 721.327 L 301.57 709.47 L 313.425 697.615 L 315.425 695.615 L 313.425 693.615 L 302.282 682.472 L 300.282 680.474 L 298.282 682.472 L 273.282 707.47 L 271.282 709.47 L 273.282 711.47 L 298.282 736.47 L 300.282 738.47 L 300.282 738.47 L 300.282 738.47 Z " fill="rgb(255,255,255)"/></g></g><path id="besetzt_l_g2" class="besetzt left" d=" M 418.712 765.14 C 418.712 754.496 427.353 745.855 437.997 745.855 C 448.641 745.855 457.282 754.496 457.282 765.14 C 457.282 775.784 448.641 784.425 437.997 784.425 C 427.353 784.425 418.712 775.784 418.712 765.14 Z " fill="rgb(255,255,255)" vector-effect="non-scaling-stroke" stroke-width="2" stroke="rgb(2,3,4)" stroke-linejoin="miter" stroke-linecap="butt" stroke-miterlimit="10"/><path id="besetzt_r_g2" class="besetzt right" d=" M 618.713 765.14 C 618.713 754.496 627.354 745.855 637.998 745.855 C 648.642 745.855 657.283 754.496 657.283 765.14 C 657.283 775.784 648.642 784.425 637.998 784.425 C 627.354 784.425 618.713 775.784 618.713 765.14 Z " fill="rgb(255,255,255)" vector-effect="non-scaling-stroke" stroke-width="2" stroke="rgb(2,3,4)" stroke-linejoin="miter" stroke-linecap="butt" stroke-miterlimit="10"/><path id="einfahrt_l_g2" class="einfahrt left" d=" M 348.712 765.14 C 348.712 754.496 357.353 745.855 367.997 745.855 C 378.641 745.855 387.282 754.496 387.282 765.14 C 387.282 775.784 378.641 784.425 367.997 784.425 C 357.353 784.425 348.712 775.784 348.712 765.14 Z " fill="rgb(255,255,255)" vector-effect="non-scaling-stroke" stroke-width="2" stroke="rgb(2,3,4)" stroke-linejoin="miter" stroke-linecap="butt" stroke-miterlimit="10"/><path id="einfahrt_r_g2" class="einfahrt right" d=" M 688.713 765.14 C 688.713 754.496 697.354 745.855 707.998 745.855 C 718.642 745.855 727.283 754.496 727.283 765.14 C 727.283 775.784 718.642 784.425 707.998 784.425 C 697.354 784.425 688.713 775.784 688.713 765.14 Z " fill="rgb(255,255,255)" vector-effect="non-scaling-stroke" stroke-width="2" stroke="rgb(2,3,4)" stroke-linejoin="miter" stroke-linecap="butt" stroke-miterlimit="10"/><g id="versatz_r_g2" class="versatz right"><g id="XMLID_70_"><path d=" M 764.548 778.998 L 778.406 765.142 L 764.548 751.285 L 777.691 738.142 L 804.548 765.142 L 777.691 792.14 L 764.548 778.998 Z " fill="rgb(1,2,2)"/><path d=" M 777.691 740.142 L 802.691 765.142 L 777.691 790.14 L 766.548 778.997 L 780.403 765.142 L 766.548 751.285 L 777.691 740.142 Z  M 777.691 736.142 L 775.691 738.142 L 764.548 749.285 L 762.548 751.285 L 764.548 753.285 L 776.403 765.142 L 764.548 776.997 L 762.548 778.997 L 764.548 780.997 L 775.691 792.14 L 777.691 794.138 L 779.691 792.14 L 804.691 767.142 L 806.691 765.142 L 804.691 763.142 L 779.691 738.142 L 777.691 736.142 L 777.691 736.142 L 777.691 736.142 Z " fill="rgb(255,255,255)"/></g></g><g id="versatz_l_g2" class="versatz left"><g id="XMLID_66_"><path d=" M 313.425 751.283 L 299.567 765.138 L 313.425 778.996 L 300.282 792.138 L 273.425 765.138 L 300.282 738.14 L 313.425 751.283 Z " fill="rgb(1,2,2)"/><path d=" M 300.282 790.138 L 275.282 765.138 L 300.282 740.14 L 311.425 751.283 L 297.57 765.138 L 311.425 778.995 L 300.282 790.138 Z  M 300.282 794.138 L 302.282 792.138 L 313.425 780.995 L 315.425 778.995 L 313.425 776.995 L 301.57 765.138 L 313.425 753.283 L 315.425 751.283 L 313.425 749.283 L 302.282 738.14 L 300.282 736.142 L 298.282 738.14 L 273.282 763.138 L 271.282 765.138 L 273.282 767.138 L 298.282 792.138 L 300.282 794.138 L 300.282 794.138 L 300.282 794.138 Z " fill="rgb(255,255,255)"/></g></g><path id="besetzt_l_g1" class="besetzt left" d=" M 418.712 818.479 C 418.712 807.835 427.353 799.194 437.997 799.194 C 448.641 799.194 457.282 807.835 457.282 818.479 C 457.282 829.123 448.641 837.764 437.997 837.764 C 427.353 837.764 418.712 829.123 418.712 818.479 Z " fill="rgb(255,255,255)" vector-effect="non-scaling-stroke" stroke-width="2" stroke="rgb(2,3,4)" stroke-linejoin="miter" stroke-linecap="butt" stroke-miterlimit="10"/><path id="besetzt_r_g1" class="besetzt right" d=" M 618.713 818.479 C 618.713 807.835 627.354 799.194 637.998 799.194 C 648.642 799.194 657.283 807.835 657.283 818.479 C 657.283 829.123 648.642 837.764 637.998 837.764 C 627.354 837.764 618.713 829.123 618.713 818.479 Z " fill="rgb(255,255,255)" vector-effect="non-scaling-stroke" stroke-width="2" stroke="rgb(2,3,4)" stroke-linejoin="miter" stroke-linecap="butt" stroke-miterlimit="10"/><path id="einfahrt_l_g1" class="einfahrt left" d=" M 348.712 818.479 C 348.712 807.835 357.353 799.194 367.997 799.194 C 378.641 799.194 387.282 807.835 387.282 818.479 C 387.282 829.123 378.641 837.764 367.997 837.764 C 357.353 837.764 348.712 829.123 348.712 818.479 Z " fill="rgb(255,255,255)" vector-effect="non-scaling-stroke" stroke-width="2" stroke="rgb(2,3,4)" stroke-linejoin="miter" stroke-linecap="butt" stroke-miterlimit="10"/><path id="einfahrt_r_g1" class="einfahrt right" d=" M 688.713 818.479 C 688.713 807.835 697.354 799.194 707.998 799.194 C 718.642 799.194 727.283 807.835 727.283 818.479 C 727.283 829.123 718.642 837.764 707.998 837.764 C 697.354 837.764 688.713 829.123 688.713 818.479 Z " fill="rgb(255,255,255)" vector-effect="non-scaling-stroke" stroke-width="2" stroke="rgb(2,3,4)" stroke-linejoin="miter" stroke-linecap="butt" stroke-miterlimit="10"/><g id="versatz_r_g1" class="versatz right"><g id="XMLID_58_"><path d=" M 764.548 832.336 L 778.406 818.481 L 764.548 804.624 L 777.691 791.481 L 804.548 818.481 L 777.691 845.479 L 764.548 832.336 Z " fill="rgb(1,2,2)"/><path d=" M 777.691 793.481 L 802.691 818.481 L 777.691 843.479 L 766.548 832.336 L 780.403 818.481 L 766.548 804.624 L 777.691 793.481 Z  M 777.691 789.481 L 775.691 791.481 L 764.548 802.624 L 762.548 804.624 L 764.548 806.624 L 776.403 818.481 L 764.548 830.336 L 762.548 832.336 L 764.548 834.336 L 775.691 845.479 L 777.691 847.477 L 779.691 845.479 L 804.691 820.481 L 806.691 818.481 L 804.691 816.481 L 779.691 791.481 L 777.691 789.481 L 777.691 789.481 L 777.691 789.481 Z " fill="rgb(255,255,255)"/></g></g><g id="versatz_l_g1" class="versatz left"><g id="XMLID_54_"><path d=" M 313.425 804.622 L 299.567 818.477 L 313.425 832.334 L 300.282 845.477 L 273.425 818.477 L 300.282 791.479 L 313.425 804.622 Z " fill="rgb(1,2,2)"/><path d=" M 300.282 843.477 L 275.282 818.477 L 300.282 793.479 L 311.425 804.622 L 297.57 818.477 L 311.425 832.334 L 300.282 843.477 Z  M 300.282 847.477 L 302.282 845.477 L 313.425 834.334 L 315.425 832.334 L 313.425 830.334 L 301.57 818.477 L 313.425 806.622 L 315.425 804.622 L 313.425 802.622 L 302.282 791.479 L 300.282 789.481 L 298.282 791.479 L 273.282 816.477 L 271.282 818.477 L 273.282 820.477 L 298.282 845.477 L 300.282 847.477 L 300.282 847.477 L 300.282 847.477 Z " fill="rgb(255,255,255)"/></g></g><path id="besetzt_l_g0" class="besetzt left" d=" M 1 590.133 C 1 579.489 9.641 570.848 20.285 570.848 C 30.929 570.848 39.57 579.489 39.57 590.133 C 39.57 600.777 30.929 609.418 20.285 609.418 C 9.641 609.418 1 600.777 1 590.133 Z " fill="rgb(255,255,255)" vector-effect="non-scaling-stroke" stroke-width="2" stroke="rgb(2,3,4)" stroke-linejoin="miter" stroke-linecap="butt" stroke-miterlimit="10"/><path id="besetzt_r_g0" class="besetzt right" d=" M 1078.238 590.133 C 1078.238 579.489 1086.879 570.848 1097.523 570.848 C 1108.167 570.848 1116.808 579.489 1116.808 590.133 C 1116.808 600.777 1108.167 609.418 1097.523 609.418 C 1086.879 609.418 1078.238 600.777 1078.238 590.133 Z " fill="rgb(255,255,255)" vector-effect="non-scaling-stroke" stroke-width="2" stroke="rgb(2,3,4)" stroke-linejoin="miter" stroke-linecap="butt" stroke-miterlimit="10"/><path id="besetzt_m_g0" class="besetzt middle" d=" M 539.618 422.002 C 539.618 411.358 548.259 402.717 558.903 402.717 C 569.547 402.717 578.188 411.358 578.188 422.002 C 578.188 432.646 569.547 441.287 558.903 441.287 C 548.259 441.287 539.618 432.646 539.618 422.002 Z " fill="rgb(255,255,255)" vector-effect="non-scaling-stroke" stroke-width="2" stroke="rgb(2,3,4)" stroke-linejoin="miter" stroke-linecap="butt" stroke-miterlimit="10"/><g id="Group"><path d=" M 361.078 577.957 C 348.379 577.957 338.892 574.285 332.467 566.788 C 326.04 559.291 322.828 547.815 322.828 532.057 L 322.828 492.888 C 322.828 489.981 323.899 487.38 326.041 485.239 C 328.183 483.096 330.631 482.026 333.691 482.026 L 334.609 482.026 C 337.516 482.026 340.117 483.097 342.26 485.239 C 344.402 487.381 345.473 489.829 345.473 492.888 L 345.473 534.505 C 345.473 543.226 346.697 549.499 349.299 553.172 C 351.9 556.844 355.725 558.679 361.08 558.679 C 366.435 558.679 370.413 556.844 373.014 553.018 C 375.615 549.192 376.993 543.073 376.993 534.505 L 376.993 493.041 C 376.993 490.134 378.064 487.533 380.206 485.391 C 382.348 483.249 384.796 482.178 387.856 482.178 L 388.162 482.178 C 391.069 482.178 393.67 483.249 395.812 485.391 C 397.954 487.533 399.025 489.981 399.025 493.041 L 399.025 532.21 C 399.025 547.968 395.964 559.444 389.692 566.941 C 383.263 574.285 373.777 577.957 361.078 577.957 Z " fill="rgb(3,156,136)"/><path d=" M 416.159 576.274 C 413.252 576.274 410.651 575.203 408.509 573.061 C 406.366 570.92 405.296 568.471 405.296 565.412 L 405.296 513.544 C 405.296 510.943 406.213 508.801 407.897 506.965 C 409.733 505.129 411.875 504.211 414.323 504.211 L 415.241 504.211 C 417.689 504.211 419.679 504.976 421.514 506.506 C 423.35 508.036 424.421 510.025 424.727 512.32 L 424.88 512.932 C 424.88 513.085 425.033 513.238 425.186 513.238 C 425.339 513.238 425.492 513.238 425.644 513.084 C 432.835 506.046 440.485 502.527 448.441 502.527 C 455.939 502.527 461.6 505.128 465.271 510.177 C 468.943 515.226 470.779 522.417 470.779 531.75 L 470.779 565.411 C 470.779 568.318 469.708 570.919 467.566 573.061 C 465.423 575.203 462.976 576.274 459.916 576.274 L 459 576.274 C 456.093 576.274 453.492 575.203 451.35 573.061 C 449.208 570.919 448.137 568.471 448.137 565.411 L 448.137 534.504 C 448.137 529.76 447.525 526.395 446.148 524.559 C 444.771 522.723 442.629 521.805 439.722 521.805 C 437.427 521.805 435.591 522.264 433.908 523.029 C 432.225 523.947 430.236 525.324 428.095 527.313 C 427.483 527.924 427.177 528.537 427.177 529.454 L 427.177 565.41 C 427.177 568.317 426.106 570.918 423.964 573.061 C 421.822 575.202 419.374 576.274 416.314 576.274 L 416.159 576.274 L 416.159 576.274 L 416.159 576.274 Z " fill="rgb(3,156,136)"/><path d=" M 504.135 577.957 C 495.414 577.957 488.988 575.51 484.857 570.46 C 480.726 565.411 478.737 558.526 478.737 549.5 L 478.737 522.877 C 478.737 522.265 478.431 521.958 477.819 521.958 L 477.513 521.958 C 475.218 521.958 473.229 521.193 471.546 519.511 C 469.863 517.828 469.098 515.839 469.098 513.544 C 469.098 511.096 469.863 509.106 471.546 507.424 C 473.076 505.74 475.218 504.822 477.513 504.517 L 479.043 504.364 C 479.808 504.211 480.267 503.905 480.42 503.139 L 481.491 494.571 C 481.797 491.97 483.021 489.675 485.011 487.993 C 487 486.157 489.448 485.392 492.05 485.392 C 494.651 485.392 496.793 486.309 498.629 488.146 C 500.465 489.983 501.383 492.124 501.383 494.878 L 501.383 503.14 C 501.383 503.906 501.842 504.365 502.607 504.365 L 509.493 504.365 C 511.94 504.365 513.93 505.283 515.613 506.967 C 517.296 508.649 518.214 510.792 518.214 513.24 C 518.214 515.688 517.296 517.678 515.613 519.513 C 513.93 521.349 511.788 522.114 509.493 522.114 L 502.607 522.114 C 501.842 522.114 501.383 522.573 501.383 523.338 L 501.383 549.502 C 501.383 556.234 503.831 559.752 508.88 560.517 C 511.328 560.823 513.47 561.589 515.306 562.813 C 517.142 564.037 518.213 565.566 518.673 567.556 C 518.826 568.321 518.979 568.932 518.979 569.698 C 518.979 571.227 518.519 572.758 517.602 574.135 C 516.378 576.125 514.695 577.348 512.4 577.655 C 509.643 577.804 506.889 577.957 504.135 577.957 Z " fill="rgb(3,156,136)"/><path d=" M 551.872 577.957 C 541.315 577.957 532.594 574.591 525.708 567.859 C 518.823 561.127 515.457 551.946 515.457 540.318 C 515.457 534.657 516.375 529.454 518.364 524.558 C 520.353 519.815 522.801 515.684 526.013 512.625 C 529.226 509.412 532.746 506.963 536.877 505.28 C 541.008 503.444 545.139 502.679 549.576 502.679 C 559.521 502.679 567.017 505.74 572.221 512.012 C 577.576 518.438 580.33 526.547 580.33 536.493 C 580.33 539.399 579.105 541.847 576.81 543.836 C 574.515 545.826 571.761 546.743 568.547 546.743 L 538.253 546.743 C 537.947 546.743 537.641 546.896 537.488 547.201 C 537.335 547.507 537.182 547.813 537.335 547.967 C 539.63 556.382 545.444 560.666 554.931 560.666 C 557.686 560.666 560.439 560.207 563.194 559.29 C 564.112 558.984 565.182 558.831 566.407 558.831 C 567.325 558.831 568.243 558.984 569.313 559.137 C 571.303 559.748 572.985 560.972 574.057 562.809 C 574.668 564.186 574.975 565.41 574.975 566.94 C 574.975 568.316 574.669 569.541 574.057 570.765 C 573.291 571.988 572.373 572.907 571.149 573.518 C 564.571 576.58 558.298 577.957 551.872 577.957 Z  M 536.877 531.444 C 536.877 531.597 537.03 531.75 537.183 532.055 C 537.336 532.361 537.642 532.361 537.948 532.361 L 559.98 532.361 C 560.287 532.361 560.592 532.209 560.899 532.055 C 561.051 531.75 561.204 531.597 561.204 531.137 C 561.052 527.618 559.98 524.864 558.144 522.875 C 556.308 520.885 553.554 519.814 549.882 519.814 C 546.821 519.814 544.068 520.732 541.773 522.721 C 538.561 525.324 536.877 528.231 536.877 531.444 Z " fill="rgb(3,156,136)"/><path d=" M 592.724 576.274 C 589.817 576.274 587.216 575.203 585.074 573.061 C 582.932 570.92 581.861 568.471 581.861 565.412 L 581.861 513.544 C 581.861 510.943 582.78 508.801 584.463 506.965 C 586.299 505.129 588.441 504.211 590.889 504.211 L 591.807 504.211 C 594.256 504.211 596.245 504.976 598.08 506.506 C 599.915 508.036 600.987 510.025 601.293 512.32 L 601.446 512.932 C 601.446 513.085 601.599 513.238 601.752 513.238 C 601.905 513.238 602.059 513.238 602.211 513.084 C 609.402 506.046 617.053 502.527 625.009 502.527 C 632.506 502.527 638.167 505.128 641.839 510.177 C 645.512 515.226 647.347 522.417 647.347 531.75 L 647.347 565.411 C 647.347 568.318 646.277 570.919 644.134 573.061 C 641.992 575.203 639.544 576.274 636.485 576.274 L 635.566 576.274 C 632.659 576.274 630.058 575.203 627.917 573.061 C 625.775 570.919 624.704 568.471 624.704 565.411 L 624.704 534.504 C 624.704 529.76 624.093 526.395 622.715 524.559 C 621.338 522.723 619.195 521.805 616.289 521.805 C 613.993 521.805 612.157 522.264 610.476 523.029 C 608.792 523.947 606.803 525.324 604.662 527.313 C 604.05 527.924 603.743 528.537 603.743 529.454 L 603.743 565.41 C 603.743 568.317 602.672 570.918 600.53 573.061 C 598.388 575.202 595.94 576.274 592.881 576.274 L 592.724 576.274 L 592.724 576.274 L 592.724 576.274 Z " fill="rgb(3,156,136)"/><path d=" M 690.187 548.581 C 690.187 553.477 690.952 556.996 692.634 559.291 C 694.164 561.586 696.765 562.81 700.131 563.115 C 704.415 563.115 709.005 562.044 713.902 559.903 C 718.645 557.761 724.918 554.395 732.569 549.652 C 737.006 546.439 740.984 546.899 744.349 551.182 C 747.41 556.078 746.797 560.668 742.36 564.953 C 738.535 567.86 734.557 570.614 730.274 573.215 C 725.99 575.663 721.246 577.958 715.891 579.793 C 710.536 581.629 704.874 582.7 699.06 582.854 C 689.421 582.701 682.537 579.947 678.252 574.439 C 673.968 568.931 671.825 561.434 671.825 551.642 L 671.825 488.91 C 671.825 482.79 674.886 479.73 681.006 479.73 C 687.126 479.73 690.186 482.791 690.186 488.91 L 690.187 548.581 L 690.187 548.581 L 690.187 548.581 Z " fill="rgb(3,156,136)"/><path d=" M 756.284 494.265 L 764.547 494.265 C 765.005 489.828 765.312 487.533 765.312 487.533 C 765.924 482.179 769.137 479.425 774.797 479.577 C 780.152 480.188 782.601 482.79 782.294 487.533 L 781.682 494.265 L 790.404 494.265 C 796.217 494.265 799.125 497.172 799.125 502.986 C 799.125 508.8 796.218 511.707 790.404 511.707 L 779.846 511.707 C 778.01 525.783 776.174 538.023 774.033 548.274 C 772.044 558.525 770.055 567.093 768.372 574.284 C 766.842 579.486 763.169 581.628 757.509 580.711 C 751.389 579.486 749.246 575.967 751.083 569.847 C 752.612 564.645 754.602 556.076 756.896 544.142 C 759.191 532.209 761.027 521.345 762.404 511.705 L 756.284 511.705 C 750.471 511.705 747.563 508.798 747.563 502.984 C 747.41 497.172 750.317 494.265 756.284 494.265 Z  M 783.06 544.755 C 785.048 540.624 788.414 539.094 793.004 540.318 C 797.9 542.613 799.277 545.52 797.442 549.193 C 796.677 550.875 796.523 553.476 796.677 556.842 C 796.983 560.362 800.808 562.197 808.305 562.197 C 812.896 562.197 818.404 562.044 824.982 561.738 C 830.338 561.892 833.091 565.105 833.55 571.378 C 833.397 577.345 830.489 580.558 824.982 580.711 C 815.955 581.017 808.611 581.017 802.95 580.711 C 796.982 580.405 792.24 579.181 788.721 577.038 C 785.201 574.896 782.907 572.142 781.377 569.081 C 780 565.869 779.234 562.655 779.234 559.136 C 779.386 554.242 780.611 549.499 783.06 544.755 Z  M 822.84 509.871 C 827.888 510.024 830.489 512.778 830.489 518.44 C 830.337 524.101 827.887 526.855 823.144 527.008 C 812.282 527.314 804.172 527.466 798.97 527.62 C 793.921 528.078 791.473 525.172 791.625 519.205 C 791.932 514.003 793.921 511.096 797.899 510.636 C 804.326 510.331 812.589 510.024 822.84 509.871 Z " fill="rgb(3,156,136)"/></g></g></svg>