<?xml version="1.0" standalone="no"?><!-- Generator: Gravit.io --><svg xmlns="http://www.w3.org/2000/svg" xmlns:xlink="http://www.w3.org/1999/xlink" style="isolation:isolate" viewBox="239.038 -126.766 87.616 30.345" width="87.616" height="30.345"><g id="Group"><g id="layer1"><path d=" M 248.787 -106.281 L 248.787 -112.919 L 248.787 -122.005 L 239.048 -122.005 L 239.048 -126.766 L 268.457 -126.766 C 271.966 -126.766 272.619 -121.733 272.619 -120.455 C 272.619 -119.23 272.048 -113.708 268.756 -113.708 L 266.715 -113.708 L 272.619 -106.281 L 265.981 -106.281 L 256.377 -118.36 L 266.362 -118.36 C 267.504 -118.36 267.559 -119.938 267.559 -120.291 C 267.559 -120.618 267.504 -122.032 266.389 -122.032 L 254.011 -122.032 L 254.011 -112.973 L 254.011 -106.308" fill="rgb(0,155,135)"/></g><line x1="271.953" y1="-98.403" x2="282.863" y2="-98.403"/><path d=" M 278.72 -122.12 L 278.72 -116.199 L 277.953 -116.199 L 277.953 -122.12 L 275.862 -122.12 L 275.862 -122.802 L 280.812 -122.802 L 280.812 -122.12 L 278.72 -122.12 Z  M 282.442 -121.149 L 282.442 -116.199 L 281.692 -116.199 L 281.692 -121.149 L 282.442 -121.149 Z  M 281.629 -122.49 L 281.629 -122.49 L 281.629 -122.49 Q 281.629 -122.747 281.756 -122.867 L 281.756 -122.867 L 281.756 -122.867 Q 281.882 -122.987 282.072 -122.987 L 282.072 -122.987 L 282.072 -122.987 Q 282.252 -122.987 282.383 -122.865 L 282.383 -122.865 L 282.383 -122.865 Q 282.514 -122.743 282.514 -122.49 L 282.514 -122.49 L 282.514 -122.49 Q 282.514 -122.237 282.383 -122.113 L 282.383 -122.113 L 282.383 -122.113 Q 282.252 -121.989 282.072 -121.989 L 282.072 -121.989 L 282.072 -121.989 Q 281.882 -121.989 281.756 -122.113 L 281.756 -122.113 L 281.756 -122.113 Q 281.629 -122.237 281.629 -122.49 Z  M 284.782 -123.226 L 284.782 -116.199 L 284.032 -116.199 L 284.032 -123.226 L 284.782 -123.226 Z  M 290.644 -118.678 L 290.644 -118.678 L 290.644 -118.678 Q 290.644 -117.468 290.034 -116.788 L 290.034 -116.788 L 290.034 -116.788 Q 289.425 -116.108 288.35 -116.108 L 288.35 -116.108 L 288.35 -116.108 Q 287.686 -116.108 287.171 -116.42 L 287.171 -116.42 L 287.171 -116.42 Q 286.656 -116.731 286.376 -117.314 L 286.376 -117.314 L 286.376 -117.314 Q 286.096 -117.897 286.096 -118.678 L 286.096 -118.678 L 286.096 -118.678 Q 286.096 -119.889 286.701 -120.564 L 286.701 -120.564 L 286.701 -120.564 Q 287.306 -121.239 288.381 -121.239 L 288.381 -121.239 L 288.381 -121.239 Q 289.42 -121.239 290.032 -120.548 L 290.032 -120.548 L 290.032 -120.548 Q 290.644 -119.857 290.644 -118.678 Z  M 286.873 -118.678 L 286.873 -118.678 L 286.873 -118.678 Q 286.873 -117.73 287.252 -117.233 L 287.252 -117.233 L 287.252 -117.233 Q 287.632 -116.736 288.368 -116.736 L 288.368 -116.736 L 288.368 -116.736 Q 289.104 -116.736 289.486 -117.231 L 289.486 -117.231 L 289.486 -117.231 Q 289.867 -117.725 289.867 -118.678 L 289.867 -118.678 L 289.867 -118.678 Q 289.867 -119.622 289.486 -120.112 L 289.486 -120.112 L 289.486 -120.112 Q 289.104 -120.602 288.359 -120.602 L 288.359 -120.602 L 288.359 -120.602 Q 287.622 -120.602 287.248 -120.119 L 287.248 -120.119 L 287.248 -120.119 Q 286.873 -119.636 286.873 -118.678 Z  M 296.619 -118.945 L 295.242 -118.945 L 295.242 -116.199 L 294.474 -116.199 L 294.474 -122.802 L 296.285 -122.802 L 296.285 -122.802 Q 297.5 -122.802 298.08 -122.336 L 298.08 -122.336 L 298.08 -122.336 Q 298.661 -121.871 298.661 -120.936 L 298.661 -120.936 L 298.661 -120.936 Q 298.661 -119.627 297.333 -119.166 L 297.333 -119.166 L 299.126 -116.199 L 298.218 -116.199 L 296.619 -118.945 Z  M 295.242 -122.129 L 295.242 -119.604 L 296.294 -119.604 L 296.294 -119.604 Q 297.107 -119.604 297.487 -119.927 L 297.487 -119.927 L 297.487 -119.927 Q 297.866 -120.25 297.866 -120.896 L 297.866 -120.896 L 297.866 -120.896 Q 297.866 -121.551 297.48 -121.84 L 297.48 -121.84 L 297.48 -121.84 Q 297.094 -122.129 296.24 -122.129 L 296.24 -122.129 L 295.242 -122.129 Z  M 303.679 -116.199 L 303.123 -116.199 L 302.974 -116.903 L 302.938 -116.903 L 302.938 -116.903 Q 302.568 -116.438 302.199 -116.273 L 302.199 -116.273 L 302.199 -116.273 Q 301.831 -116.108 301.28 -116.108 L 301.28 -116.108 L 301.28 -116.108 Q 300.544 -116.108 300.126 -116.488 L 300.126 -116.488 L 300.126 -116.488 Q 299.709 -116.867 299.709 -117.567 L 299.709 -117.567 L 299.709 -117.567 Q 299.709 -119.067 302.107 -119.139 L 302.107 -119.139 L 302.947 -119.166 L 302.947 -119.473 L 302.947 -119.473 Q 302.947 -120.056 302.696 -120.333 L 302.696 -120.333 L 302.696 -120.333 Q 302.446 -120.611 301.895 -120.611 L 301.895 -120.611 L 301.895 -120.611 Q 301.276 -120.611 300.495 -120.232 L 300.495 -120.232 L 300.264 -120.805 L 300.264 -120.805 Q 300.63 -121.004 301.066 -121.117 L 301.066 -121.117 L 301.066 -121.117 Q 301.502 -121.23 301.94 -121.23 L 301.94 -121.23 L 301.94 -121.23 Q 302.825 -121.23 303.252 -120.837 L 303.252 -120.837 L 303.252 -120.837 Q 303.679 -120.444 303.679 -119.577 L 303.679 -119.577 L 303.679 -116.199 Z  M 301.429 -116.727 L 301.429 -116.727 L 301.429 -116.727 Q 302.129 -116.727 302.529 -117.111 L 302.529 -117.111 L 302.529 -117.111 Q 302.929 -117.495 302.929 -118.186 L 302.929 -118.186 L 302.929 -118.633 L 302.179 -118.601 L 302.179 -118.601 Q 301.285 -118.57 300.89 -118.324 L 300.89 -118.324 L 300.89 -118.324 Q 300.495 -118.077 300.495 -117.558 L 300.495 -117.558 L 300.495 -117.558 Q 300.495 -117.152 300.741 -116.939 L 300.741 -116.939 L 300.741 -116.939 Q 300.987 -116.727 301.429 -116.727 Z  M 305.973 -121.149 L 305.973 -116.199 L 305.223 -116.199 L 305.223 -121.149 L 305.973 -121.149 Z  M 305.16 -122.49 L 305.16 -122.49 L 305.16 -122.49 Q 305.16 -122.747 305.287 -122.867 L 305.287 -122.867 L 305.287 -122.867 Q 305.413 -122.987 305.603 -122.987 L 305.603 -122.987 L 305.603 -122.987 Q 305.783 -122.987 305.914 -122.865 L 305.914 -122.865 L 305.914 -122.865 Q 306.045 -122.743 306.045 -122.49 L 306.045 -122.49 L 306.045 -122.49 Q 306.045 -122.237 305.914 -122.113 L 305.914 -122.113 L 305.914 -122.113 Q 305.783 -121.989 305.603 -121.989 L 305.603 -121.989 L 305.603 -121.989 Q 305.413 -121.989 305.287 -122.113 L 305.287 -122.113 L 305.287 -122.113 Q 305.16 -122.237 305.16 -122.49 Z  M 308.313 -123.226 L 308.313 -116.199 L 307.563 -116.199 L 307.563 -123.226 L 308.313 -123.226 Z  M 314.834 -116.199 L 313.945 -116.199 L 313.037 -119.103 L 313.037 -119.103 Q 312.951 -119.369 312.716 -120.313 L 312.716 -120.313 L 312.68 -120.313 L 312.68 -120.313 Q 312.499 -119.523 312.364 -119.094 L 312.364 -119.094 L 311.429 -116.199 L 310.562 -116.199 L 309.211 -121.149 L 309.997 -121.149 L 309.997 -121.149 Q 310.476 -119.283 310.727 -118.308 L 310.727 -118.308 L 310.727 -118.308 Q 310.977 -117.332 311.013 -116.993 L 311.013 -116.993 L 311.05 -116.993 L 311.05 -116.993 Q 311.099 -117.251 311.21 -117.66 L 311.21 -117.66 L 311.21 -117.66 Q 311.321 -118.068 311.402 -118.308 L 311.402 -118.308 L 312.31 -121.149 L 313.123 -121.149 L 314.008 -118.308 L 314.008 -118.308 Q 314.261 -117.531 314.351 -117.002 L 314.351 -117.002 L 314.387 -117.002 L 314.387 -117.002 Q 314.405 -117.165 314.484 -117.504 L 314.484 -117.504 L 314.484 -117.504 Q 314.563 -117.843 315.426 -121.149 L 315.426 -121.149 L 316.203 -121.149 L 314.834 -116.199 Z  M 320.697 -116.199 L 320.141 -116.199 L 319.992 -116.903 L 319.956 -116.903 L 319.956 -116.903 Q 319.586 -116.438 319.218 -116.273 L 319.218 -116.273 L 319.218 -116.273 Q 318.85 -116.108 318.299 -116.108 L 318.299 -116.108 L 318.299 -116.108 Q 317.562 -116.108 317.145 -116.488 L 317.145 -116.488 L 317.145 -116.488 Q 316.727 -116.867 316.727 -117.567 L 316.727 -117.567 L 316.727 -117.567 Q 316.727 -119.067 319.125 -119.139 L 319.125 -119.139 L 319.965 -119.166 L 319.965 -119.473 L 319.965 -119.473 Q 319.965 -120.056 319.714 -120.333 L 319.714 -120.333 L 319.714 -120.333 Q 319.464 -120.611 318.913 -120.611 L 318.913 -120.611 L 318.913 -120.611 Q 318.294 -120.611 317.513 -120.232 L 317.513 -120.232 L 317.282 -120.805 L 317.282 -120.805 Q 317.648 -121.004 318.084 -121.117 L 318.084 -121.117 L 318.084 -121.117 Q 318.52 -121.23 318.958 -121.23 L 318.958 -121.23 L 318.958 -121.23 Q 319.843 -121.23 320.27 -120.837 L 320.27 -120.837 L 320.27 -120.837 Q 320.697 -120.444 320.697 -119.577 L 320.697 -119.577 L 320.697 -116.199 Z  M 318.448 -116.727 L 318.448 -116.727 L 318.448 -116.727 Q 319.148 -116.727 319.547 -117.111 L 319.547 -117.111 L 319.547 -117.111 Q 319.947 -117.495 319.947 -118.186 L 319.947 -118.186 L 319.947 -118.633 L 319.197 -118.601 L 319.197 -118.601 Q 318.303 -118.57 317.908 -118.324 L 317.908 -118.324 L 317.908 -118.324 Q 317.513 -118.077 317.513 -117.558 L 317.513 -117.558 L 317.513 -117.558 Q 317.513 -117.152 317.759 -116.939 L 317.759 -116.939 L 317.759 -116.939 Q 318.005 -116.727 318.448 -116.727 Z  M 323.452 -116.171 L 321.456 -121.149 L 322.26 -121.149 L 323.343 -118.326 L 323.343 -118.326 Q 323.7 -117.359 323.786 -116.93 L 323.786 -116.93 L 323.822 -116.93 L 323.822 -116.93 Q 323.881 -117.161 324.068 -117.718 L 324.068 -117.718 L 324.068 -117.718 Q 324.256 -118.276 325.295 -121.149 L 325.295 -121.149 L 326.099 -121.149 L 323.971 -115.512 L 323.971 -115.512 Q 323.655 -114.676 323.233 -114.326 L 323.233 -114.326 L 323.233 -114.326 Q 322.811 -113.976 322.196 -113.976 L 322.196 -113.976 L 322.196 -113.976 Q 321.853 -113.976 321.519 -114.053 L 321.519 -114.053 L 321.519 -114.654 L 321.519 -114.654 Q 321.767 -114.6 322.074 -114.6 L 322.074 -114.6 L 322.074 -114.6 Q 322.847 -114.6 323.176 -115.467 L 323.176 -115.467 L 323.452 -116.171 Z " fill-rule="evenodd" fill="rgb(0,155,135)"/><path d=" M 279.515 -112.389 L 279.515 -112.389 L 279.515 -112.389 Q 278.427 -112.389 277.797 -111.664 L 277.797 -111.664 L 277.797 -111.664 Q 277.167 -110.939 277.167 -109.679 L 277.167 -109.679 L 277.167 -109.679 Q 277.167 -108.383 277.774 -107.676 L 277.774 -107.676 L 277.774 -107.676 Q 278.382 -106.969 279.506 -106.969 L 279.506 -106.969 L 279.506 -106.969 Q 280.197 -106.969 281.083 -107.218 L 281.083 -107.218 L 281.083 -106.545 L 281.083 -106.545 Q 280.396 -106.287 279.389 -106.287 L 279.389 -106.287 L 279.389 -106.287 Q 277.93 -106.287 277.137 -107.172 L 277.137 -107.172 L 277.137 -107.172 Q 276.345 -108.058 276.345 -109.688 L 276.345 -109.688 L 276.345 -109.688 Q 276.345 -110.709 276.726 -111.477 L 276.726 -111.477 L 276.726 -111.477 Q 277.108 -112.244 277.828 -112.66 L 277.828 -112.66 L 277.828 -112.66 Q 278.549 -113.075 279.524 -113.075 L 279.524 -113.075 L 279.524 -113.075 Q 280.563 -113.075 281.34 -112.696 L 281.34 -112.696 L 281.015 -112.037 L 281.015 -112.037 Q 280.265 -112.389 279.515 -112.389 Z  M 286.683 -108.857 L 286.683 -108.857 L 286.683 -108.857 Q 286.683 -107.647 286.073 -106.967 L 286.073 -106.967 L 286.073 -106.967 Q 285.464 -106.287 284.389 -106.287 L 284.389 -106.287 L 284.389 -106.287 Q 283.725 -106.287 283.21 -106.599 L 283.21 -106.599 L 283.21 -106.599 Q 282.695 -106.91 282.415 -107.493 L 282.415 -107.493 L 282.415 -107.493 Q 282.135 -108.076 282.135 -108.857 L 282.135 -108.857 L 282.135 -108.857 Q 282.135 -110.067 282.74 -110.743 L 282.74 -110.743 L 282.74 -110.743 Q 283.345 -111.418 284.42 -111.418 L 284.42 -111.418 L 284.42 -111.418 Q 285.459 -111.418 286.071 -110.727 L 286.071 -110.727 L 286.071 -110.727 Q 286.683 -110.036 286.683 -108.857 Z  M 282.912 -108.857 L 282.912 -108.857 L 282.912 -108.857 Q 282.912 -107.909 283.291 -107.412 L 283.291 -107.412 L 283.291 -107.412 Q 283.671 -106.915 284.407 -106.915 L 284.407 -106.915 L 284.407 -106.915 Q 285.143 -106.915 285.525 -107.409 L 285.525 -107.409 L 285.525 -107.409 Q 285.906 -107.904 285.906 -108.857 L 285.906 -108.857 L 285.906 -108.857 Q 285.906 -109.801 285.525 -110.291 L 285.525 -110.291 L 285.525 -110.291 Q 285.143 -110.781 284.398 -110.781 L 284.398 -110.781 L 284.398 -110.781 Q 283.662 -110.781 283.287 -110.298 L 283.287 -110.298 L 283.287 -110.298 Q 282.912 -109.814 282.912 -108.857 Z  M 295.057 -106.377 L 294.307 -106.377 L 294.307 -109.598 L 294.307 -109.598 Q 294.307 -110.189 294.054 -110.485 L 294.054 -110.485 L 294.054 -110.485 Q 293.801 -110.781 293.268 -110.781 L 293.268 -110.781 L 293.268 -110.781 Q 292.568 -110.781 292.234 -110.379 L 292.234 -110.379 L 292.234 -110.379 Q 291.9 -109.977 291.9 -109.142 L 291.9 -109.142 L 291.9 -106.377 L 291.15 -106.377 L 291.15 -109.598 L 291.15 -109.598 Q 291.15 -110.189 290.897 -110.485 L 290.897 -110.485 L 290.897 -110.485 Q 290.644 -110.781 290.107 -110.781 L 290.107 -110.781 L 290.107 -110.781 Q 289.402 -110.781 289.075 -110.359 L 289.075 -110.359 L 289.075 -110.359 Q 288.747 -109.936 288.747 -108.974 L 288.747 -108.974 L 288.747 -106.377 L 287.997 -106.377 L 287.997 -111.328 L 288.607 -111.328 L 288.729 -110.65 L 288.765 -110.65 L 288.765 -110.65 Q 288.977 -111.011 289.364 -111.215 L 289.364 -111.215 L 289.364 -111.215 Q 289.75 -111.418 290.229 -111.418 L 290.229 -111.418 L 290.229 -111.418 Q 291.389 -111.418 291.746 -110.578 L 291.746 -110.578 L 291.782 -110.578 L 291.782 -110.578 Q 292.003 -110.966 292.424 -111.192 L 292.424 -111.192 L 292.424 -111.192 Q 292.844 -111.418 293.381 -111.418 L 293.381 -111.418 L 293.381 -111.418 Q 294.221 -111.418 294.639 -110.987 L 294.639 -110.987 L 294.639 -110.987 Q 295.057 -110.555 295.057 -109.607 L 295.057 -109.607 L 295.057 -106.377 Z  M 298.905 -106.287 L 298.905 -106.287 L 298.905 -106.287 Q 298.421 -106.287 298.022 -106.466 L 298.022 -106.466 L 298.022 -106.466 Q 297.622 -106.644 297.351 -107.014 L 297.351 -107.014 L 297.297 -107.014 L 297.297 -107.014 Q 297.351 -106.581 297.351 -106.192 L 297.351 -106.192 L 297.351 -104.155 L 296.601 -104.155 L 296.601 -111.328 L 297.211 -111.328 L 297.315 -110.65 L 297.351 -110.65 L 297.351 -110.65 Q 297.64 -111.057 298.024 -111.237 L 298.024 -111.237 L 298.024 -111.237 Q 298.408 -111.418 298.905 -111.418 L 298.905 -111.418 L 298.905 -111.418 Q 299.889 -111.418 300.425 -110.745 L 300.425 -110.745 L 300.425 -110.745 Q 300.96 -110.072 300.96 -108.857 L 300.96 -108.857 L 300.96 -108.857 Q 300.96 -107.638 300.415 -106.962 L 300.415 -106.962 L 300.415 -106.962 Q 299.871 -106.287 298.905 -106.287 Z  M 298.796 -110.781 L 298.796 -110.781 L 298.796 -110.781 Q 298.038 -110.781 297.699 -110.361 L 297.699 -110.361 L 297.699 -110.361 Q 297.36 -109.941 297.351 -109.024 L 297.351 -109.024 L 297.351 -108.857 L 297.351 -108.857 Q 297.351 -107.814 297.699 -107.364 L 297.699 -107.364 L 297.699 -107.364 Q 298.047 -106.915 298.814 -106.915 L 298.814 -106.915 L 298.814 -106.915 Q 299.456 -106.915 299.819 -107.434 L 299.819 -107.434 L 299.819 -107.434 Q 300.183 -107.954 300.183 -108.866 L 300.183 -108.866 L 300.183 -108.866 Q 300.183 -109.792 299.819 -110.286 L 299.819 -110.286 L 299.819 -110.286 Q 299.456 -110.781 298.796 -110.781 Z  M 305.869 -106.377 L 305.314 -106.377 L 305.165 -107.082 L 305.128 -107.082 L 305.128 -107.082 Q 304.758 -106.617 304.39 -106.452 L 304.39 -106.452 L 304.39 -106.452 Q 304.022 -106.287 303.471 -106.287 L 303.471 -106.287 L 303.471 -106.287 Q 302.735 -106.287 302.317 -106.666 L 302.317 -106.666 L 302.317 -106.666 Q 301.899 -107.046 301.899 -107.746 L 301.899 -107.746 L 301.899 -107.746 Q 301.899 -109.245 304.297 -109.318 L 304.297 -109.318 L 305.137 -109.345 L 305.137 -109.652 L 305.137 -109.652 Q 305.137 -110.235 304.887 -110.512 L 304.887 -110.512 L 304.887 -110.512 Q 304.636 -110.79 304.085 -110.79 L 304.085 -110.79 L 304.085 -110.79 Q 303.466 -110.79 302.685 -110.411 L 302.685 -110.411 L 302.455 -110.984 L 302.455 -110.984 Q 302.821 -111.183 303.256 -111.296 L 303.256 -111.296 L 303.256 -111.296 Q 303.692 -111.409 304.13 -111.409 L 304.13 -111.409 L 304.13 -111.409 Q 305.016 -111.409 305.442 -111.016 L 305.442 -111.016 L 305.442 -111.016 Q 305.869 -110.623 305.869 -109.756 L 305.869 -109.756 L 305.869 -106.377 Z  M 303.62 -106.906 L 303.62 -106.906 L 303.62 -106.906 Q 304.32 -106.906 304.72 -107.29 L 304.72 -107.29 L 304.72 -107.29 Q 305.119 -107.674 305.119 -108.365 L 305.119 -108.365 L 305.119 -108.812 L 304.37 -108.78 L 304.37 -108.78 Q 303.475 -108.749 303.08 -108.502 L 303.08 -108.502 L 303.08 -108.502 Q 302.685 -108.256 302.685 -107.737 L 302.685 -107.737 L 302.685 -107.737 Q 302.685 -107.33 302.931 -107.118 L 302.931 -107.118 L 302.931 -107.118 Q 303.177 -106.906 303.62 -106.906 Z  M 311.551 -106.377 L 310.801 -106.377 L 310.801 -109.58 L 310.801 -109.58 Q 310.801 -110.185 310.526 -110.483 L 310.526 -110.483 L 310.526 -110.483 Q 310.25 -110.781 309.663 -110.781 L 309.663 -110.781 L 309.663 -110.781 Q 308.886 -110.781 308.525 -110.361 L 308.525 -110.361 L 308.525 -110.361 Q 308.164 -109.941 308.164 -108.974 L 308.164 -108.974 L 308.164 -106.377 L 307.414 -106.377 L 307.414 -111.328 L 308.024 -111.328 L 308.145 -110.65 L 308.182 -110.65 L 308.182 -110.65 Q 308.412 -111.016 308.827 -111.217 L 308.827 -111.217 L 308.827 -111.217 Q 309.243 -111.418 309.753 -111.418 L 309.753 -111.418 L 309.753 -111.418 Q 310.648 -111.418 311.099 -110.987 L 311.099 -110.987 L 311.099 -110.987 Q 311.551 -110.555 311.551 -109.607 L 311.551 -109.607 L 311.551 -106.377 Z  M 314.301 -106.35 L 312.305 -111.328 L 313.109 -111.328 L 314.193 -108.505 L 314.193 -108.505 Q 314.55 -107.538 314.636 -107.109 L 314.636 -107.109 L 314.672 -107.109 L 314.672 -107.109 Q 314.731 -107.339 314.918 -107.897 L 314.918 -107.897 L 314.918 -107.897 Q 315.105 -108.455 316.144 -111.328 L 316.144 -111.328 L 316.948 -111.328 L 314.821 -105.691 L 314.821 -105.691 Q 314.505 -104.855 314.082 -104.505 L 314.082 -104.505 L 314.082 -104.505 Q 313.66 -104.155 313.046 -104.155 L 313.046 -104.155 L 313.046 -104.155 Q 312.703 -104.155 312.368 -104.232 L 312.368 -104.232 L 312.368 -104.833 L 312.368 -104.833 Q 312.617 -104.779 312.924 -104.779 L 312.924 -104.779 L 312.924 -104.779 Q 313.696 -104.779 314.026 -105.646 L 314.026 -105.646 L 314.301 -106.35 Z " fill-rule="evenodd" fill="rgb(0,155,135)"/><path d=" M 241.2 -102.768 L 241.2 -98.414 L 240.635 -98.414 L 240.635 -102.768 L 239.098 -102.768 L 239.098 -103.269 L 242.738 -103.269 L 242.738 -102.768 L 241.2 -102.768 Z  M 245.046 -100.433 L 244.033 -100.433 L 244.033 -98.414 L 243.468 -98.414 L 243.468 -103.269 L 244.8 -103.269 L 244.8 -103.269 Q 245.693 -103.269 246.12 -102.927 L 246.12 -102.927 L 246.12 -102.927 Q 246.547 -102.585 246.547 -101.898 L 246.547 -101.898 L 246.547 -101.898 Q 246.547 -100.934 245.57 -100.596 L 245.57 -100.596 L 246.889 -98.414 L 246.221 -98.414 L 245.046 -100.433 Z  M 244.033 -102.774 L 244.033 -100.918 L 244.807 -100.918 L 244.807 -100.918 Q 245.404 -100.918 245.683 -101.155 L 245.683 -101.155 L 245.683 -101.155 Q 245.962 -101.393 245.962 -101.868 L 245.962 -101.868 L 245.962 -101.868 Q 245.962 -102.349 245.678 -102.562 L 245.678 -102.562 L 245.678 -102.562 Q 245.394 -102.774 244.767 -102.774 L 244.767 -102.774 L 244.033 -102.774 Z  M 249.413 -98.414 L 249.413 -103.269 L 252.206 -103.269 L 252.206 -98.414 L 249.413 -98.414 Z  M 249.758 -102.924 L 249.758 -98.759 L 251.86 -98.759 L 251.86 -102.924 L 249.758 -102.924 Z  M 253.494 -98.414 L 253.494 -103.269 L 256.287 -103.269 L 256.287 -98.414 L 253.494 -98.414 Z  M 253.84 -102.924 L 253.84 -98.759 L 255.942 -98.759 L 255.942 -102.924 L 253.84 -102.924 Z  M 257.576 -98.414 L 257.576 -103.269 L 260.369 -103.269 L 260.369 -98.414 L 257.576 -98.414 Z  M 257.921 -102.924 L 257.921 -98.759 L 260.023 -98.759 L 260.023 -102.924 L 257.921 -102.924 Z  M 261.657 -98.414 L 261.657 -103.269 L 264.45 -103.269 L 264.45 -98.414 L 261.657 -98.414 Z  M 262.002 -102.924 L 262.002 -98.759 L 264.105 -98.759 L 264.105 -102.924 L 262.002 -102.924 Z " fill-rule="evenodd" fill="rgb(0,155,135)"/></g></svg>