<?xml version="1.0" encoding="utf-8"?>
<!-- Generator: Adobe Illustrator 19.0.0, SVG Export Plug-In . SVG Version: 6.00 Build 0)  -->
<svg version="1.1" id="Ebene_1" xmlns="http://www.w3.org/2000/svg" xmlns:xlink="http://www.w3.org/1999/xlink" x="0px" y="0px"
	 viewBox="1921 403.9 97.5 32.7" style="enable-background:new 1921 403.9 97.5 32.7;" xml:space="preserve">
<style type="text/css">
	.st0{fill:#E5E5E4;}
</style>
<g>
	<path class="st0" d="M1923.8,435.8c-0.2,0-0.4-0.1-0.5-0.2c-0.1-0.1-0.2-0.3-0.2-0.5v-4c0-0.1,0-0.1-0.1-0.1h-0.9
		c-0.2,0-0.3-0.1-0.4-0.2c-0.1-0.1-0.2-0.3-0.2-0.4c0-0.2,0.1-0.3,0.2-0.4c0.1-0.1,0.3-0.2,0.4-0.2h3.5c0.2,0,0.3,0.1,0.4,0.2
		c0.1,0.1,0.2,0.3,0.2,0.4c0,0.2-0.1,0.3-0.2,0.4c-0.1,0.1-0.3,0.2-0.4,0.2h-0.9c-0.1,0-0.1,0-0.1,0.1v4c0,0.2-0.1,0.3-0.2,0.5
		C1924.3,435.8,1924.1,435.8,1923.8,435.8L1923.8,435.8z"/>
	<path class="st0" d="M1930.8,435.2c0,0.1,0.1,0.1,0.1,0.2c0,0.1,0,0.1-0.1,0.2c-0.1,0.1-0.2,0.2-0.3,0.2h-0.2
		c-0.2,0-0.4-0.1-0.6-0.2c-0.2-0.1-0.3-0.3-0.4-0.4l-0.7-1.4l-0.1-0.1h-0.5c-0.1,0-0.1,0-0.1,0.1v1.3c0,0.2-0.1,0.3-0.2,0.5
		c-0.1,0.1-0.3,0.2-0.5,0.2h-0.1c-0.2,0-0.3-0.1-0.5-0.2c-0.1-0.1-0.2-0.3-0.2-0.5v-4.6c0-0.2,0.1-0.3,0.2-0.5
		c0.1-0.1,0.3-0.2,0.5-0.2h1.5c1.6,0,2.3,0.6,2.3,1.9c0,0.8-0.3,1.4-1,1.7c0,0-0.1,0.1,0,0.1L1930.8,435.2z M1927.8,431
		C1927.8,431,1927.7,431,1927.8,431l-0.1,1.5c0,0.1,0,0.1,0.1,0.1h0.6c0.3,0,0.6-0.1,0.8-0.2c0.2-0.1,0.3-0.4,0.3-0.6
		c0-0.3-0.1-0.5-0.3-0.6c-0.2-0.1-0.4-0.2-0.8-0.2H1927.8z"/>
	<path class="st0" d="M1938.8,433.4h-0.9l0,0l0,0c0.3,0.8,0.6,1.4,1.1,1.8c0.1,0.1,0.2,0.2,0.2,0.4c0,0,0,0,0,0.1s0,0.2-0.1,0.4
		c-0.1,0.1-0.2,0.2-0.4,0.3h-0.1c-0.1,0-0.2,0-0.3-0.1c-0.4-0.4-0.8-1-1-1.6l0,0l0,0c-0.3,0.6-0.8,1.2-1.3,1.6
		c-0.1,0.1-0.3,0.1-0.4,0.1h-0.1c-0.2,0-0.4-0.1-0.5-0.3l-0.1-0.1h-0.1c-0.4,0.1-1.1,0.2-1.9,0.4h-0.1c-0.1,0-0.2,0-0.3-0.1
		c-0.1-0.1-0.2-0.2-0.2-0.3v-0.1c0-0.1,0-0.2,0.1-0.3s0.2-0.2,0.3-0.2c0.2,0,0.3-0.1,0.5-0.1c0.1,0,0.1,0,0.1-0.1v-1.7
		c0-0.1,0-0.1-0.1-0.1h-0.4c-0.1,0-0.3,0-0.3-0.1c-0.1-0.1-0.1-0.2-0.1-0.3s0-0.3,0.1-0.3c0.1-0.1,0.2-0.1,0.3-0.1h0.4
		c0.1,0,0.1,0,0.1-0.1v-0.3c0,0,0-0.1-0.1-0.1h-0.3c-0.1,0-0.2,0-0.2-0.1c-0.1-0.1-0.1-0.1-0.1-0.2l0,0c0,0,0,0-0.1,0
		c-0.1-0.1-0.2-0.2-0.3-0.4c-0.1-0.1-0.1-0.2-0.1-0.4c0-0.1,0-0.2,0.1-0.4c0.3-0.3,0.6-0.7,0.8-1.1c0.1-0.1,0.2-0.2,0.3-0.3
		c0.1-0.1,0.3-0.1,0.4-0.1c0.3,0,0.6,0.1,0.9,0.3c0.4,0.4,0.7,0.7,0.9,0.9l0,0l0,0c0-0.1,0.1-0.3,0.1-0.4c0-0.1,0.1-0.3,0.2-0.3
		c0.1-0.1,0.2-0.1,0.3-0.1h0.1c0.1,0,0.3,0.1,0.4,0.2c0.1,0.1,0.1,0.2,0.1,0.3v0.1c0,0.1,0,0.1,0,0.2l0,0l0,0h0.1
		c0.1,0,0.1,0,0.1-0.1v-0.6c0-0.2,0.1-0.3,0.2-0.4c0.1-0.1,0.2-0.2,0.4-0.2c0.2,0,0.3,0.1,0.4,0.2c0.1,0.1,0.2,0.2,0.2,0.4v0.6
		c0,0.1,0,0.1,0.1,0.1h0.8c0.2,0,0.3,0.1,0.4,0.2c0.1,0.1,0.2,0.2,0.2,0.4s-0.1,0.3-0.2,0.4c-0.1,0.1-0.2,0.2-0.4,0.2h-0.8
		c-0.1,0-0.1,0-0.1,0.1v0.3c0,0.2,0,0.4,0,0.5c0,0,0,0,0,0.1c0,0,0,0,0.1,0h1c0.1,0,0.3,0.1,0.4,0.2c0.1,0.1,0.2,0.2,0.2,0.4
		s-0.1,0.3-0.2,0.4C1939.1,433.3,1938.9,433.4,1938.8,433.4z M1932,434.1L1932,434.1c0-0.2,0-0.2,0-0.3c0.1-0.1,0.1-0.1,0.2-0.2h0.1
		c0.1,0,0.1,0,0.2,0.1s0.1,0.1,0.2,0.2c0,0.2,0.1,0.4,0.1,0.6v0.1c0,0.1,0,0.2-0.1,0.2c-0.1,0.1-0.1,0.2-0.3,0.2h-0.1
		c-0.1,0-0.1,0-0.2-0.1s-0.1-0.1-0.1-0.2C1932.1,434.5,1932.1,434.3,1932,434.1z M1932.9,430.9L1932.9,430.9
		C1932.9,431,1932.9,431,1932.9,430.9l1.3,0.1l0,0l0,0c-0.2-0.3-0.4-0.6-0.7-0.8h-0.1C1933.3,430.4,1933.1,430.7,1932.9,430.9z
		 M1934.6,434.9c0.1,0,0.2,0,0.2,0.1c0.1,0.1,0.1,0.1,0.1,0.2v0.1l0,0l0,0c0.7-0.5,1.1-1.1,1.3-1.9l0,0l0,0h-0.7
		c-0.1,0-0.3-0.1-0.4-0.2c-0.1-0.1-0.2-0.2-0.2-0.4s0.1-0.3,0.2-0.4c0.1-0.1,0.2-0.2,0.4-0.2h0.9c0.1,0,0.1,0,0.1-0.1s0-0.3,0-0.6
		v-0.2c0-0.1,0-0.1-0.1-0.1h-0.5c-0.1,0-0.1,0-0.1,0.1s-0.1,0.2-0.1,0.2c-0.1,0.2-0.2,0.3-0.4,0.3c-0.1,0-0.1,0-0.2,0
		s-0.2,0-0.3-0.1c-0.1-0.1-0.2-0.1-0.3-0.1l0,0v0.1h-0.1h-0.5c-0.1,0-0.1,0-0.1,0.1v0.3c0,0.1,0,0.1,0.1,0.1h0.4
		c0.1,0,0.2,0,0.3,0.1c0.1,0.1,0.1,0.2,0.1,0.3s0,0.3-0.1,0.3c-0.1,0.1-0.2,0.1-0.3,0.1h-0.4c-0.1,0-0.1,0-0.1,0.1v1.2l0,0l0,0
		c0.1-0.2,0.1-0.4,0.1-0.7c0-0.1,0.1-0.2,0.2-0.3c0.1,0,0.1-0.1,0.2-0.1h0.1c0.1,0,0.2,0.1,0.3,0.2c0,0.1,0.1,0.1,0.1,0.2v0.1
		C1934.7,434.6,1934.6,434.9,1934.6,434.9L1934.6,434.9L1934.6,434.9z M1934,434.8L1934,434.8C1933.9,434.8,1933.9,434.8,1934,434.8
		l-0.1,0.2c0,0,0,0,0,0.1c0,0,0,0,0.1,0l0.5-0.1l0,0l0,0L1934,434.8z M1935.1,430.5C1935.1,430.4,1935.1,430.4,1935.1,430.5
		C1935.1,430.4,1935.1,430.4,1935.1,430.5l-0.5,0.5l-0.1,0.1v0.5l0,0l0,0C1934.9,431.3,1935,430.9,1935.1,430.5z"/>
	<path class="st0" d="M1940.3,432.1c0.2,0,0.3,0.1,0.5,0.2c0.1,0.1,0.2,0.3,0.2,0.5v1.8c0,0.1,0,0.1,0,0.1c0.3,0.4,0.8,0.6,1.6,0.7
		c0.4,0,0.8,0,1.2,0c0.7,0,1.4,0,2.2-0.1l0,0c0.1,0,0.2,0.1,0.3,0.2c0.1,0.1,0.1,0.2,0.1,0.3v0.1c-0.1,0.2-0.2,0.3-0.3,0.4
		c-0.1,0.1-0.3,0.2-0.5,0.2c-0.6,0-1.1,0-1.6,0s-1,0-1.4,0c-0.5,0-0.9-0.1-1.2-0.2c-0.3-0.1-0.6-0.3-0.9-0.6h-0.1
		c-0.2,0.2-0.4,0.3-0.5,0.4c-0.1,0.1-0.2,0.1-0.3,0.1h-0.1c-0.2,0-0.3-0.1-0.4-0.3c0-0.1-0.1-0.2-0.1-0.3s0-0.1,0-0.2
		c0.1-0.2,0.2-0.3,0.3-0.4c0.1-0.1,0.3-0.2,0.4-0.3l0.1-0.1v-1.3c0-0.1,0-0.1-0.1-0.1h-0.2c-0.2,0-0.3-0.1-0.4-0.2
		c-0.1-0.1-0.2-0.2-0.2-0.4s0.1-0.3,0.2-0.4c0.1-0.1,0.2-0.2,0.4-0.2L1940.3,432.1L1940.3,432.1z M1940.8,429.9
		c0.1,0.1,0.2,0.2,0.2,0.4c0,0,0,0,0,0.1c0,0.2-0.1,0.3-0.2,0.4c-0.1,0.1-0.2,0.1-0.4,0.1c0,0,0,0-0.1,0c-0.2,0-0.3-0.1-0.4-0.2
		c-0.1-0.1-0.3-0.3-0.4-0.4c-0.1-0.1-0.2-0.2-0.2-0.4c0-0.1,0.1-0.3,0.2-0.4c0.1-0.1,0.3-0.2,0.4-0.2l0,0c0.2,0,0.3,0,0.4,0.1
		C1940.5,429.6,1940.7,429.8,1940.8,429.9z M1941.8,431.7c0-0.2,0.1-0.3,0.2-0.5c0.1-0.1,0.3-0.2,0.5-0.2h0.4c0.1,0,0.1,0,0.1-0.1
		v-0.1c0,0,0,0,0-0.1c0,0,0,0-0.1,0h-1.3c-0.1,0-0.2,0-0.3-0.1c-0.1-0.1-0.1-0.2-0.1-0.3s0-0.2,0.1-0.3s0.2-0.1,0.3-0.1h0.5l0,0l0,0
		c0-0.1-0.1-0.1-0.1-0.2v-0.1c0-0.1,0.1-0.2,0.2-0.2l0,0c0.1,0,0.1,0,0.2,0s0.1,0,0.2,0s0.2,0.1,0.3,0.2c0.1,0.2,0.2,0.3,0.2,0.4
		l0,0h0.7c0.1,0,0.1,0,0.1-0.1s0.1-0.1,0.1-0.2c0.1-0.2,0.2-0.3,0.3-0.4c0.1-0.1,0.2-0.1,0.3-0.1h0.1c0.1,0,0.2,0.1,0.3,0.2
		c0,0.1,0,0.1,0,0.2c0,0.1,0,0.1-0.1,0.2l0,0l0,0h0.6c0.1,0,0.2,0,0.3,0.1c0.1,0.1,0.1,0.2,0.1,0.3s0,0.2-0.1,0.3s-0.2,0.1-0.3,0.1
		h-1.5c-0.1,0-0.1,0-0.1,0.1c-0.1,0.1-0.1,0.2-0.1,0.2l0,0l0,0h0.9c0.2,0,0.3,0.1,0.5,0.2c0.1,0.1,0.2,0.3,0.2,0.5v2.6
		c0,0.2-0.1,0.4-0.2,0.5s-0.3,0.2-0.5,0.2h-2.7c-0.2,0-0.3-0.1-0.5-0.2c-0.1-0.1-0.2-0.3-0.2-0.5v-2.5H1941.8z M1944.6,432.1
		C1944.7,432.1,1944.7,432.1,1944.6,432.1l0.1-0.2c0-0.1,0-0.1-0.1-0.1h-1.6c-0.1,0-0.1,0-0.1,0.1v0.1c0,0.1,0,0.1,0.1,0.1
		L1944.6,432.1L1944.6,432.1z M1944.6,433.1C1944.7,433.1,1944.7,433.1,1944.6,433.1l0.1-0.2c0-0.1,0-0.1-0.1-0.1h-1.6
		c-0.1,0-0.1,0-0.1,0.1v0.1c0,0.1,0,0.1,0.1,0.1L1944.6,433.1L1944.6,433.1z M1944.6,434.2C1944.7,434.2,1944.7,434.1,1944.6,434.2
		l0.1-0.2c0-0.1,0-0.1-0.1-0.1h-1.6c-0.1,0-0.1,0-0.1,0.1v0.1c0,0.1,0,0.1,0.1,0.1L1944.6,434.2L1944.6,434.2z"/>
	<path class="st0" d="M1948.6,432.4c-0.1,0-0.3-0.1-0.4-0.2c-0.1-0.1-0.2-0.2-0.2-0.4l0,0l0,0c-0.2,0.2-0.5,0.3-0.7,0.5
		c-0.1,0-0.2,0.1-0.3,0.1c-0.1,0-0.1,0-0.2,0c-0.2,0-0.3-0.1-0.4-0.3c-0.1-0.1-0.1-0.2-0.1-0.3v-0.1c0-0.1,0.1-0.3,0.3-0.3
		c0.4-0.2,0.9-0.5,1.3-0.8s0.7-0.7,1-1s0.6-0.5,1-0.5s0.7,0.2,1,0.5c0.7,0.7,1.4,1.3,2.3,1.7c0.1,0.1,0.2,0.2,0.3,0.3v0.1
		c0,0.1,0,0.2-0.1,0.3c-0.1,0.2-0.3,0.3-0.4,0.3s-0.1,0-0.2,0s-0.2,0-0.3-0.1c-0.2-0.1-0.4-0.2-0.6-0.4l0,0l0,0
		c0,0.2-0.1,0.3-0.2,0.4c-0.1,0.1-0.3,0.2-0.4,0.2H1948.6z M1952.8,434h-1l0,0l0,0c0.5,0.4,0.9,0.9,1.3,1.4c0.1,0.1,0.1,0.2,0.1,0.3
		v0.1c0,0.2-0.1,0.3-0.3,0.4l-0.1,0.1c-0.1,0-0.2,0.1-0.2,0.1h-0.1c-0.1,0-0.2-0.1-0.3-0.2h-0.1c-1.1,0.1-2.6,0.1-4.5,0.2l0,0
		c-0.2,0-0.3,0-0.4-0.1s-0.2-0.2-0.2-0.4v-0.1c0-0.1,0-0.2,0.1-0.3s0.2-0.2,0.4-0.2c0,0,0.2,0,0.6,0c0.1,0,0.1,0,0.1-0.1
		c0.2-0.3,0.3-0.7,0.4-1.1c0,0,0,0,0-0.1l0,0h-1.1c-0.1,0-0.3-0.1-0.4-0.2c-0.1-0.1-0.2-0.2-0.2-0.4s0.1-0.3,0.2-0.4
		c0.1-0.1,0.2-0.2,0.4-0.2h5.6c0.2,0,0.3,0.1,0.4,0.2c0.1,0.1,0.2,0.2,0.2,0.4s-0.1,0.3-0.2,0.4C1953,433.9,1952.9,434,1952.8,434z
		 M1948.8,431.3L1948.8,431.3C1948.8,431.4,1948.8,431.4,1948.8,431.3l2.4,0.1l0,0l0,0c-0.5-0.4-0.9-0.8-1.2-1.1h-0.1
		C1949.6,430.5,1949.2,430.9,1948.8,431.3z M1951.3,434L1951.3,434L1951.3,434h-1.4c-0.1,0-0.1,0-0.1,0.1c-0.2,0.5-0.4,0.8-0.5,1
		l0,0l0,0c0.3,0,0.9,0,1.8-0.1l0,0l0,0l-0.1-0.1c-0.1-0.1-0.1-0.2-0.1-0.3v-0.1c0-0.2,0.1-0.3,0.3-0.4L1951.3,434z"/>
	<path class="st0" d="M1956.6,433.1c0.1,0.1,0.2,0.3,0.2,0.4c0,0,0,0,0,0.1s0,0.3-0.1,0.4c-0.1,0.1-0.2,0.2-0.4,0.2
		c-0.1,0-0.3-0.1-0.4-0.2c0-0.1-0.1-0.1-0.1-0.2l0,0l0,0v2.2c0,0.2-0.1,0.3-0.2,0.4c-0.1,0.1-0.2,0.2-0.4,0.2
		c-0.2,0-0.3-0.1-0.4-0.2c-0.1-0.1-0.2-0.2-0.2-0.4v-1.9l0,0l0,0c-0.1,0.1-0.2,0.2-0.3,0.2c-0.1,0.1-0.2,0.1-0.3,0.1h-0.1
		c-0.2,0-0.3-0.1-0.3-0.3c0-0.1-0.1-0.2-0.1-0.3s0-0.1,0-0.2c0-0.2,0.1-0.3,0.3-0.4c0.6-0.4,1.1-1,1.5-1.6l0,0l0,0h-1.2
		c-0.1,0-0.3-0.1-0.4-0.2c-0.1-0.1-0.2-0.2-0.2-0.4s0.1-0.3,0.2-0.4c0.1-0.1,0.2-0.2,0.4-0.2h0.5c0.1,0,0.1,0,0.1-0.1v-0.7
		c0-0.2,0.1-0.3,0.2-0.4c0.1-0.1,0.3-0.2,0.4-0.2c0.2,0,0.3,0.1,0.4,0.2c0.1,0.1,0.2,0.2,0.2,0.4v0.8c0,0.1,0,0.1,0.1,0.1h0.1l0,0
		h0.1c0.1,0,0.2,0,0.2,0.1l0.2,0.1c0.1,0.1,0.2,0.1,0.2,0.3v0.1c0,0.1,0,0.1,0,0.2c-0.2,0.4-0.4,0.9-0.7,1.3v0.1
		C1956.2,432.7,1956.4,432.9,1956.6,433.1z M1959.4,435.1C1959.4,435.2,1959.4,435.2,1959.4,435.1l1,0.1c0.2,0,0.3,0.1,0.4,0.2
		c0.1,0.1,0.2,0.2,0.2,0.4s-0.1,0.3-0.2,0.4c-0.1,0.1-0.2,0.2-0.4,0.2h-3.4c-0.2,0-0.3-0.1-0.4-0.2c-0.1-0.1-0.2-0.2-0.2-0.4
		s0.1-0.3,0.2-0.4c0.1-0.1,0.2-0.2,0.4-0.2h1.1c0.1,0,0.1,0,0.1-0.1v-2.5c0-0.1,0-0.1-0.1-0.1h-0.8c-0.2,0-0.3-0.1-0.4-0.2
		s-0.2-0.2-0.2-0.4s0.1-0.3,0.2-0.4c0.1-0.1,0.2-0.2,0.4-0.2h0.8c0.1,0,0.1,0,0.1-0.1v-1.6c0-0.2,0.1-0.3,0.2-0.4
		c0.1-0.1,0.3-0.2,0.4-0.2s0.3,0.1,0.4,0.2c0.1,0.1,0.2,0.3,0.2,0.4v1.6c0,0.1,0,0.1,0.1,0.1h0.8c0.2,0,0.3,0.1,0.4,0.2
		c0.1,0.1,0.2,0.2,0.2,0.4s-0.1,0.3-0.2,0.4s-0.2,0.2-0.4,0.2h-0.8c-0.1,0-0.1,0-0.1,0.1L1959.4,435.1L1959.4,435.1z"/>
</g>
<g id="layer1" transform="translate(-305.15304,-478.05534)">
	<path id="path3364_2_" class="st0" d="M2237.1,905v-7.4v-10.2h-10.9V882h33c3.9,0,4.7,5.6,4.7,7.1c0,1.4-0.7,7.6-4.3,7.6h-2.3
		l6.6,8.3h-7.4l-10.8-13.5h11.2c1.3,0,1.4-1.8,1.4-2.2c0-0.4-0.1-1.9-1.3-1.9h-13.9v10.2v7.5"/>
</g>
<g>
	<path class="st0" d="M1966.3,415.9c-0.3,0-0.5-0.1-0.7-0.3s-0.3-0.4-0.3-0.7v-5.5c0-0.1,0-0.1-0.1-0.1h-1.3c-0.2,0-0.4-0.1-0.6-0.2
		c-0.2-0.2-0.2-0.4-0.2-0.6c0-0.2,0.1-0.4,0.2-0.6c0.2-0.2,0.3-0.2,0.6-0.2h4.8c0.2,0,0.4,0.1,0.6,0.2c0.2,0.2,0.2,0.4,0.2,0.6
		c0,0.2-0.1,0.4-0.2,0.6c-0.2,0.2-0.4,0.2-0.6,0.2h-1.3c-0.1,0-0.1,0-0.1,0.1v5.5c0,0.3-0.1,0.5-0.3,0.7
		C1966.9,415.8,1966.7,415.9,1966.3,415.9L1966.3,415.9z"/>
	<path class="st0" d="M1970.6,408.8c-0.3,0-0.6-0.1-0.8-0.3c-0.2-0.2-0.3-0.4-0.3-0.7s0.1-0.5,0.3-0.7c0.2-0.2,0.5-0.3,0.8-0.3
		s0.6,0.1,0.8,0.3c0.2,0.2,0.3,0.4,0.3,0.7s-0.1,0.5-0.3,0.7C1971.1,408.7,1970.9,408.8,1970.6,408.8z M1970.5,415.9
		c-0.3,0-0.5-0.1-0.7-0.3s-0.3-0.4-0.3-0.7v-4.3c0-0.3,0.1-0.5,0.3-0.7c0.2-0.2,0.4-0.3,0.7-0.3h0.1c0.3,0,0.5,0.1,0.7,0.3
		s0.3,0.4,0.3,0.7v4.4c0,0.3-0.1,0.5-0.3,0.7C1971.1,415.8,1970.8,415.9,1970.5,415.9L1970.5,415.9z"/>
	<path class="st0" d="M1973.8,416c-0.6,0-1.1-0.2-1.4-0.6c-0.3-0.4-0.4-0.9-0.4-1.6V408c0-0.3,0.1-0.5,0.3-0.7
		c0.2-0.2,0.4-0.3,0.7-0.3h0.1c0.3,0,0.5,0.1,0.7,0.3s0.3,0.4,0.3,0.7v5.9c0,0.2,0.1,0.4,0.2,0.5c0,0,0,0,0.1,0.1
		c0.1,0,0.1,0.1,0.1,0.1s0,0,0.1,0.1l0.1,0.1v0.1l0.1,0.3c0,0.1,0,0.1,0,0.2c0,0.2,0,0.3-0.1,0.4c-0.1,0.2-0.3,0.3-0.5,0.3
		C1974,416,1973.9,416,1973.8,416z"/>
	<path class="st0" d="M1977.3,416c-0.4,0-0.8-0.1-1.2-0.2c-0.4-0.2-0.7-0.4-1-0.6c-0.3-0.3-0.5-0.6-0.7-1s-0.3-0.9-0.3-1.4
		s0.1-1,0.3-1.4c0.2-0.4,0.4-0.8,0.7-1c0.3-0.3,0.6-0.5,1-0.6c0.4-0.2,0.8-0.2,1.2-0.2c0.4,0,0.8,0.1,1.1,0.2c0.4,0.2,0.7,0.4,1,0.6
		c0.3,0.3,0.5,0.6,0.7,1s0.3,0.9,0.3,1.4s-0.1,1-0.3,1.4c-0.2,0.4-0.4,0.8-0.7,1c-0.3,0.3-0.6,0.5-1,0.6
		C1978,416,1977.7,416,1977.3,416z M1977.3,414.5c0.4,0,0.6-0.1,0.8-0.4c0.2-0.3,0.3-0.7,0.3-1.3c0-0.5-0.1-1-0.3-1.3
		c-0.2-0.3-0.4-0.5-0.8-0.5s-0.6,0.2-0.8,0.5c-0.2,0.3-0.3,0.7-0.3,1.3c0,0.5,0.1,1,0.3,1.3C1976.6,414.3,1976.9,414.5,1977.3,414.5
		z"/>
	<path class="st0" d="M1988.2,415.1c0.1,0.1,0.1,0.2,0.1,0.3s0,0.2-0.1,0.3c-0.1,0.2-0.3,0.3-0.5,0.3h-0.3c-0.3,0-0.6-0.1-0.8-0.2
		c-0.2-0.2-0.4-0.4-0.6-0.6l-1-2c0-0.1-0.1-0.1-0.2-0.1h-0.7c-0.1,0-0.1,0-0.1,0.1v1.8c0,0.3-0.1,0.5-0.3,0.7
		c-0.2,0.2-0.4,0.3-0.7,0.3h-0.1c-0.3,0-0.5-0.1-0.7-0.3s-0.3-0.4-0.3-0.7v-6.4c0-0.3,0.1-0.5,0.3-0.7c0.2-0.2,0.4-0.3,0.7-0.3h2.1
		c2.1,0,3.2,0.9,3.2,2.6c0,1.1-0.4,1.9-1.3,2.3c-0.1,0-0.1,0.1,0,0.1L1988.2,415.1z M1984.1,409.3
		C1984,409.3,1984,409.3,1984.1,409.3l-0.1,2.1c0,0.1,0,0.1,0.1,0.1h0.8c0.5,0,0.8-0.1,1.1-0.3c0.2-0.2,0.4-0.5,0.4-0.9
		s-0.1-0.6-0.3-0.8c-0.2-0.2-0.6-0.2-1.1-0.2L1984.1,409.3L1984.1,409.3z"/>
	<path class="st0" d="M1990.1,416c-0.6,0-1-0.2-1.3-0.5c-0.3-0.4-0.5-0.8-0.5-1.4c0-0.7,0.3-1.2,0.8-1.5c0.5-0.4,1.4-0.6,2.6-0.8
		c0.1,0,0.1,0,0.1-0.1c-0.1-0.5-0.4-0.7-0.9-0.7c-0.3,0-0.6,0.1-1,0.2c-0.1,0-0.2,0.1-0.3,0.1c-0.1,0-0.2,0-0.2,0
		c-0.2-0.1-0.3-0.2-0.4-0.3s-0.1-0.2-0.1-0.4c0-0.1,0-0.1,0-0.2c0.1-0.2,0.2-0.3,0.4-0.4c0.7-0.3,1.4-0.5,2.1-0.5
		c1.7,0,2.5,1,2.5,2.9v2.8c0,0.2-0.1,0.4-0.2,0.6c-0.2,0.2-0.3,0.2-0.6,0.2h-0.2c-0.2,0-0.3-0.1-0.4-0.2c-0.1-0.1-0.2-0.2-0.3-0.4
		l0,0l0,0l0,0C1991.3,415.8,1990.7,416,1990.1,416z M1990.8,414.5c0.3,0,0.6-0.1,0.9-0.4c0,0,0.1-0.1,0.1-0.2v-0.8V413
		c0,0,0,0-0.1,0l0,0c-1,0.2-1.5,0.5-1.5,0.9c0,0.2,0.1,0.3,0.2,0.4C1990.4,414.5,1990.6,414.5,1990.8,414.5z"/>
	<path class="st0" d="M1995.1,408.8c-0.3,0-0.6-0.1-0.8-0.3c-0.2-0.2-0.3-0.4-0.3-0.7s0.1-0.5,0.3-0.7c0.2-0.2,0.5-0.3,0.8-0.3
		s0.6,0.1,0.8,0.3c0.2,0.2,0.3,0.4,0.3,0.7s-0.1,0.5-0.3,0.7C1995.7,408.7,1995.4,408.8,1995.1,408.8z M1995,415.9
		c-0.3,0-0.5-0.1-0.7-0.3s-0.3-0.4-0.3-0.7v-4.3c0-0.3,0.1-0.5,0.3-0.7c0.2-0.2,0.4-0.3,0.7-0.3h0.1c0.3,0,0.5,0.1,0.7,0.3
		s0.3,0.4,0.3,0.7v4.4c0,0.3-0.1,0.5-0.3,0.7C1995.6,415.8,1995.4,415.9,1995,415.9L1995,415.9z"/>
	<path class="st0" d="M1998.3,416c-0.6,0-1.1-0.2-1.4-0.6c-0.3-0.4-0.4-0.9-0.4-1.6V408c0-0.3,0.1-0.5,0.3-0.7
		c0.2-0.2,0.4-0.3,0.7-0.3h0.1c0.3,0,0.5,0.1,0.7,0.3s0.3,0.4,0.3,0.7v5.9c0,0.2,0.1,0.4,0.2,0.5c0,0,0,0,0.1,0.1
		c0.1,0,0.1,0.1,0.1,0.1s0,0,0.1,0.1l0.1,0.1v0.1l0.1,0.3c0,0.1,0,0.1,0,0.2c0,0.2,0,0.3-0.1,0.4c-0.1,0.2-0.3,0.3-0.5,0.3
		C1998.5,416,1998.4,416,1998.3,416z"/>
	<path class="st0" d="M2001,415.9c-0.3,0-0.5-0.1-0.7-0.3s-0.4-0.4-0.4-0.6l-1.1-4.4c0-0.1,0-0.1,0-0.2c0-0.2,0.1-0.3,0.2-0.4
		c0.1-0.2,0.3-0.3,0.6-0.3h0.1c0.3,0,0.5,0.1,0.7,0.3s0.3,0.4,0.4,0.7l0.4,1.9c0,0.2,0.1,0.5,0.1,0.9c0.1,0.4,0.1,0.7,0.1,0.9l0,0
		l0,0c0.2-0.9,0.3-1.5,0.4-1.8l0.5-2c0-0.2,0.2-0.4,0.4-0.6c0.2-0.2,0.4-0.2,0.7-0.2c0.2,0,0.5,0.1,0.7,0.2c0.2,0.2,0.3,0.4,0.4,0.6
		l0.5,2c0.1,0.2,0.1,0.6,0.2,1s0.1,0.7,0.2,0.8l0,0l0,0c0-0.1,0-0.4,0.1-0.8c0.1-0.4,0.1-0.8,0.2-1l0.4-1.9c0-0.3,0.2-0.5,0.4-0.6
		c0.2-0.2,0.4-0.3,0.7-0.3c0.2,0,0.4,0.1,0.6,0.3c0.1,0.1,0.2,0.3,0.2,0.4c0,0.1,0,0.1,0,0.2l-1,4.5c-0.1,0.3-0.2,0.5-0.4,0.7
		c-0.2,0.2-0.5,0.3-0.7,0.3h-0.4c-0.3,0-0.5-0.1-0.7-0.3s-0.4-0.4-0.4-0.7l-0.3-1.5c-0.1-0.5-0.2-1.1-0.3-1.8l0,0l0,0
		c-0.1,0.7-0.2,1.3-0.3,1.8l-0.3,1.5c-0.1,0.3-0.2,0.5-0.4,0.7c-0.2,0.2-0.5,0.3-0.7,0.3h-1.1V415.9z"/>
	<path class="st0" d="M2009.4,416c-0.6,0-1-0.2-1.3-0.5c-0.3-0.4-0.5-0.8-0.5-1.4c0-0.7,0.3-1.2,0.8-1.5c0.5-0.4,1.4-0.6,2.6-0.8
		c0.1,0,0.1,0,0.1-0.1c-0.1-0.5-0.4-0.7-0.9-0.7c-0.3,0-0.6,0.1-1,0.2c-0.1,0-0.2,0.1-0.3,0.1c-0.1,0-0.2,0-0.2,0
		c-0.2-0.1-0.3-0.2-0.4-0.3s-0.1-0.2-0.1-0.4c0-0.1,0-0.1,0-0.2c0.1-0.2,0.2-0.3,0.4-0.4c0.7-0.3,1.4-0.5,2.1-0.5
		c1.7,0,2.5,1,2.5,2.9v2.8c0,0.2-0.1,0.4-0.2,0.6c-0.2,0.2-0.3,0.2-0.6,0.2h-0.2c-0.2,0-0.3-0.1-0.4-0.2c-0.1-0.1-0.2-0.2-0.3-0.4
		l0,0l0,0l0,0C2010.6,415.8,2010,416,2009.4,416z M2010.1,414.5c0.3,0,0.6-0.1,0.9-0.4c0.1,0,0.1-0.1,0.1-0.2v-0.8V413
		c0,0,0,0-0.1,0l0,0c-1,0.2-1.5,0.5-1.5,0.9c0,0.2,0.1,0.3,0.2,0.4C2009.7,414.5,2009.9,414.5,2010.1,414.5z"/>
	<path class="st0" d="M2014.1,418.3c-0.1,0-0.1,0-0.2,0c-0.2,0-0.4-0.1-0.5-0.3c-0.1-0.1-0.1-0.3-0.1-0.4c0-0.1,0-0.1,0-0.2
		c0.1-0.3,0.4-0.6,0.9-0.7c0.4-0.1,0.6-0.3,0.7-0.7l0.1-0.2c0-0.1,0-0.1,0-0.2l-2-5.1c0-0.1,0-0.2,0-0.2c0-0.1,0-0.2,0.1-0.3
		c0.1-0.2,0.3-0.3,0.5-0.3h0.1c0.3,0,0.5,0.1,0.7,0.2c0.2,0.2,0.4,0.4,0.5,0.6l0.5,1.7c0,0.1,0.2,0.7,0.5,1.8l0,0l0,0
		c0.1-0.3,0.2-0.9,0.4-1.8l0.5-1.7c0.1-0.3,0.2-0.5,0.4-0.6c0.2-0.2,0.5-0.2,0.7-0.2s0.4,0.1,0.5,0.3c0.1,0.1,0.1,0.2,0.1,0.4
		c0,0.1,0,0.1,0,0.2l-1.8,5.4c-0.3,0.9-0.7,1.5-1.1,1.8C2015.4,418.1,2014.9,418.3,2014.1,418.3z"/>
	<path class="st0" d="M1967.3,427.5c-0.5,0-1-0.1-1.5-0.3s-0.9-0.4-1.2-0.8c-0.4-0.3-0.6-0.8-0.8-1.3s-0.3-1.1-0.3-1.8
		s0.1-1.3,0.3-1.8c0.2-0.5,0.5-1,0.9-1.4s0.8-0.6,1.2-0.8c0.5-0.2,1-0.3,1.5-0.3c0.7,0,1.3,0.2,1.9,0.5c0.2,0.1,0.3,0.3,0.3,0.5
		c0,0,0,0,0,0.1c0,0.2-0.1,0.4-0.2,0.5c-0.1,0.2-0.3,0.2-0.5,0.3h-0.1c-0.2,0-0.4,0-0.5-0.1c-0.2-0.1-0.5-0.2-0.8-0.2
		c-0.5,0-1,0.2-1.4,0.7s-0.6,1.1-0.6,1.9c0,0.8,0.2,1.4,0.5,1.9s0.8,0.7,1.4,0.7c0.3,0,0.6-0.1,0.9-0.2c0.2-0.1,0.3-0.2,0.5-0.2h0.1
		c0.2,0,0.4,0.1,0.5,0.3s0.2,0.4,0.2,0.6c0,0.3-0.1,0.4-0.3,0.6C1968.8,427.3,1968.1,427.5,1967.3,427.5z"/>
	<path class="st0" d="M1972.6,427.5c-0.4,0-0.8-0.1-1.2-0.2c-0.4-0.2-0.7-0.4-1-0.6c-0.3-0.3-0.5-0.6-0.7-1s-0.3-0.9-0.3-1.4
		s0.1-1,0.3-1.4c0.2-0.4,0.4-0.8,0.7-1c0.3-0.3,0.6-0.5,1-0.6c0.4-0.2,0.8-0.2,1.2-0.2c0.4,0,0.8,0.1,1.1,0.2c0.4,0.2,0.7,0.4,1,0.6
		c0.3,0.3,0.5,0.6,0.7,1s0.3,0.9,0.3,1.4s-0.1,1-0.3,1.4s-0.4,0.8-0.7,1c-0.3,0.3-0.6,0.5-1,0.6
		C1973.4,427.4,1973,427.5,1972.6,427.5z M1972.6,425.9c0.4,0,0.6-0.1,0.8-0.4c0.2-0.3,0.3-0.7,0.3-1.3s-0.1-1-0.3-1.3
		c-0.2-0.3-0.4-0.5-0.8-0.5s-0.6,0.2-0.8,0.5c-0.2,0.3-0.3,0.7-0.3,1.3s0.1,1,0.3,1.3C1972,425.7,1972.2,425.9,1972.6,425.9z"/>
	<path class="st0" d="M1976.7,427.3c-0.3,0-0.5-0.1-0.7-0.3s-0.3-0.4-0.3-0.7v-4.5c0-0.2,0.1-0.4,0.2-0.6c0.2-0.2,0.3-0.2,0.6-0.2
		h0.1c0.2,0,0.4,0.1,0.5,0.2c0.2,0.1,0.3,0.3,0.3,0.5v0.1l0,0l0,0c0.3-0.3,0.6-0.5,0.9-0.7s0.6-0.2,1-0.2c0.8,0,1.3,0.3,1.7,0.9
		c0,0,0,0,0.1,0c0,0,0,0,0.1,0c0.3-0.3,0.6-0.5,0.9-0.7s0.6-0.3,1-0.3c0.7,0,1.1,0.2,1.5,0.7c0.3,0.4,0.5,1.1,0.5,1.9v2.9
		c0,0.3-0.1,0.5-0.3,0.7c-0.2,0.2-0.4,0.3-0.7,0.3h-0.1c-0.3,0-0.5-0.1-0.7-0.3s-0.3-0.4-0.3-0.7v-2.7c0-0.4-0.1-0.7-0.2-0.9
		s-0.3-0.2-0.6-0.2c-0.3,0-0.6,0.2-0.9,0.5c0,0.1-0.1,0.1-0.1,0.2v3.1c0,0.3-0.1,0.5-0.3,0.7s-0.4,0.3-0.7,0.3h-0.1
		c-0.3,0-0.5-0.1-0.7-0.3s-0.3-0.4-0.3-0.7v-2.7c0-0.4-0.1-0.7-0.2-0.9s-0.3-0.2-0.6-0.2c-0.3,0-0.6,0.2-0.9,0.5
		c-0.1,0.1-0.1,0.1-0.1,0.2v3.1c0,0.3-0.1,0.5-0.3,0.7C1977.3,427.2,1977.1,427.3,1976.7,427.3L1976.7,427.3z"/>
	<path class="st0" d="M1986.6,429.6c-0.3,0-0.5-0.1-0.7-0.3s-0.3-0.4-0.3-0.7v-6.8c0-0.2,0.1-0.4,0.2-0.6c0.2-0.2,0.3-0.2,0.6-0.2
		h0.2c0.2,0,0.3,0.1,0.4,0.2c0.1,0.1,0.2,0.2,0.2,0.4l0,0l0,0l0,0c0.6-0.5,1.1-0.7,1.7-0.7c0.8,0,1.3,0.3,1.8,0.9
		c0.4,0.6,0.7,1.3,0.7,2.3c0,0.5-0.1,1-0.2,1.4s-0.3,0.8-0.6,1.1c-0.2,0.3-0.5,0.5-0.8,0.6c-0.3,0.2-0.6,0.2-1,0.2
		c-0.5,0-1-0.2-1.4-0.6l0,0l0,0l0.1,0.9v0.9c0,0.3-0.1,0.5-0.3,0.7C1987.2,429.5,1986.9,429.6,1986.6,429.6L1986.6,429.6z
		 M1988.6,425.9c0.3,0,0.6-0.1,0.8-0.4c0.2-0.3,0.3-0.7,0.3-1.3s-0.1-1-0.2-1.2c-0.2-0.3-0.4-0.4-0.8-0.4c-0.3,0-0.6,0.2-0.9,0.5
		c-0.1,0-0.1,0.1-0.1,0.2v2.3c0,0.1,0,0.1,0.1,0.2C1988,425.8,1988.2,425.9,1988.6,425.9z"/>
	<path class="st0" d="M1993.4,427.5c-0.6,0-1-0.2-1.3-0.5c-0.3-0.4-0.5-0.8-0.5-1.4c0-0.7,0.3-1.2,0.8-1.5c0.5-0.4,1.4-0.6,2.6-0.8
		c0.1,0,0.1,0,0.1-0.1c-0.1-0.5-0.4-0.7-0.9-0.7c-0.3,0-0.6,0.1-1,0.2c-0.1,0.1-0.2,0.1-0.3,0.1c-0.1,0-0.2,0-0.2,0
		c-0.2-0.1-0.3-0.2-0.4-0.3s-0.1-0.2-0.1-0.4c0-0.1,0-0.1,0-0.2c0.1-0.2,0.2-0.3,0.4-0.4c0.7-0.3,1.4-0.5,2.1-0.5
		c1.7,0,2.5,1,2.5,2.9v2.8c0,0.2-0.1,0.4-0.2,0.6c-0.2,0.2-0.3,0.2-0.6,0.2h-0.2c-0.2,0-0.3-0.1-0.4-0.2c-0.1-0.1-0.2-0.2-0.3-0.4
		l0,0l0,0l0,0C1994.6,427.2,1994,427.5,1993.4,427.5z M1994.1,426c0.3,0,0.6-0.1,0.9-0.4c0.1-0.1,0.1-0.1,0.1-0.2v-0.8v-0.1
		c0,0,0,0-0.1,0l0,0c-1,0.2-1.5,0.5-1.5,0.9c0,0.2,0.1,0.3,0.2,0.4C1993.7,425.9,1993.8,426,1994.1,426z"/>
	<path class="st0" d="M1998.3,427.3c-0.3,0-0.5-0.1-0.7-0.3s-0.3-0.4-0.3-0.7v-4.5c0-0.2,0.1-0.4,0.2-0.6c0.2-0.2,0.3-0.2,0.6-0.2
		h0.1c0.2,0,0.4,0.1,0.5,0.2c0.2,0.1,0.2,0.3,0.3,0.5v0.1l0,0l0,0c0.6-0.6,1.3-0.9,2-0.9s1.1,0.2,1.5,0.7c0.3,0.4,0.5,1.1,0.5,1.9
		v2.9c0,0.3-0.1,0.5-0.3,0.7c-0.2,0.2-0.4,0.3-0.7,0.3h-0.1c-0.3,0-0.5-0.1-0.7-0.3s-0.3-0.4-0.3-0.7v-2.7c0-0.4-0.1-0.7-0.2-0.9
		s-0.3-0.2-0.6-0.2c-0.2,0-0.4,0-0.5,0.1s-0.3,0.2-0.5,0.4c-0.1,0.1-0.1,0.1-0.1,0.2v3.1c0,0.3-0.1,0.5-0.3,0.7
		S1998.6,427.3,1998.3,427.3L1998.3,427.3z"/>
	<path class="st0" d="M2004.3,429.8c-0.1,0-0.1,0-0.2,0c-0.2,0-0.4-0.1-0.5-0.3c-0.1-0.1-0.1-0.3-0.1-0.4c0-0.1,0-0.1,0-0.2
		c0.1-0.3,0.4-0.6,0.9-0.7c0.4-0.1,0.6-0.3,0.7-0.7l0.1-0.2c0-0.1,0-0.1,0-0.2l-2-5.1c0-0.1,0-0.2,0-0.2c0-0.1,0-0.2,0.1-0.3
		c0.1-0.2,0.3-0.3,0.5-0.3h0.1c0.3,0,0.5,0.1,0.7,0.2c0.2,0.2,0.4,0.4,0.5,0.6l0.5,1.7c0,0.1,0.2,0.7,0.5,1.8l0,0l0,0
		c0.1-0.3,0.2-0.9,0.4-1.8l0.5-1.7c0.1-0.3,0.2-0.5,0.4-0.6c0.2-0.2,0.5-0.2,0.7-0.2s0.4,0.1,0.5,0.3c0.1,0.1,0.1,0.2,0.1,0.4
		c0,0.1,0,0.1,0,0.2l-1.8,5.4c-0.3,0.9-0.7,1.5-1.1,1.8C2005.5,429.6,2005,429.8,2004.3,429.8z"/>
</g>
</svg>
