<?xml version="1.0" encoding="UTF-8" standalone="no"?>
<!-- Generator: Adobe Illustrator 19.0.0, SVG Export Plug-In . SVG Version: 6.00 Build 0)  -->

<svg
   version="1.1"
   id="Ebene_1"
   x="0px"
   y="0px"
   viewBox="43.3 462.9 220.69999 555.3"
   xml:space="preserve"
   sodipodi:docname="roundrobin.svg"
   width="220.7"
   height="555.29999"
   inkscape:version="1.1.1 (3bf5ae0d25, 2021-09-20)"
   xmlns:inkscape="http://www.inkscape.org/namespaces/inkscape"
   xmlns:sodipodi="http://sodipodi.sourceforge.net/DTD/sodipodi-0.dtd"
   xmlns="http://www.w3.org/2000/svg"
   xmlns:svg="http://www.w3.org/2000/svg"><defs
   id="defs4086" /><sodipodi:namedview
   id="namedview4084"
   pagecolor="#ffffff"
   bordercolor="#666666"
   borderopacity="1.0"
   inkscape:pageshadow="2"
   inkscape:pageopacity="0.0"
   inkscape:pagecheckerboard="0"
   showgrid="false"
   fit-margin-top="0"
   fit-margin-left="0"
   fit-margin-right="0"
   fit-margin-bottom="0"
   inkscape:zoom="1.2037502"
   inkscape:cx="634.26779"
   inkscape:cy="85.981292"
   inkscape:window-width="2560"
   inkscape:window-height="1537"
   inkscape:window-x="-8"
   inkscape:window-y="-8"
   inkscape:window-maximized="1"
   inkscape:current-layer="Ebene_1" />
<style
   type="text/css"
   id="style3955">
	.st0{fill:#3C3C3C;}
	.st1{fill:#4BAE3D;}
	.st2{fill:#EBC720;}
	.st3{fill:#A82A00;}
	.st4{fill:#E63A00;}
	.st5{fill:#F24208;}
	.st6{fill:none;stroke:#A82A00;stroke-width:2;stroke-miterlimit:10;}
	.st7{fill:#C1C1C1;}
	.st8{fill:#9B8800;}
	.st9{fill:#F2D10A;}
	.st10{fill:#E4E4E4;}
</style>
<g
   id="XMLID_12_"
   transform="translate(763,318.9)">
	<polygon
   id="XMLID_13_"
   class="st0"
   points="-499.5,295 -718.9,294.9 -718.9,284.8 -499.5,284.9 " />
</g>
<g
   id="XMLID_3_"
   transform="translate(763,318.9)">
	<polygon
   id="barCurrentTrain"
   class="st1"
   points="-680.5,295 -719.2,294.9 -719.2,284.8 -680.5,284.9 " />
</g>
<g
   id="XMLID_5_"
   transform="translate(763,318.9)">
	<g
   id="XMLID_9_">
		<path
   class="st0"
   d="m -719.7,295.9 v -12.1 h 0.4 l 220.3,0.1 V 296 h -0.4 z m 0.8,-10.1 v 8.1 l 219.1,0.1 v -8.1 z"
   id="path3961" />
	</g>
</g>
<path
   class="st2"
   d="m 134.3,949.1 h 39.1 c 8.2,0 15,6.7 15,15 v 39.1 c 0,8.2 -6.7,15 -15,15 h -39.1 c -8.2,0 -15,-6.7 -15,-15 v -39.1 c 0.1,-8.3 6.8,-15 15,-15 z"
   id="path3965" />
<path
   d="m 134.3,953.6 h 2.8 l -13.2,13.2 V 964 c 0,-5.7 4.7,-10.4 10.4,-10.4 z m 9.6,0 -20,20 v 7.7 l 27.7,-27.7 z m 14.5,0 -34.5,34.4 v 7.7 l 42.2,-42.1 z m 14.5,0 -49,48.9 v 0.6 c 0,2 0.6,3.9 1.6,5.5 L 179,955.2 c -1.6,-1 -3.5,-1.6 -5.5,-1.6 z m 9.4,5 -53.5,53.4 c 1.6,1 3.5,1.6 5.5,1.6 h 0.6 l 48.9,-48.9 V 964 c 0.1,-1.9 -0.5,-3.8 -1.5,-5.4 z m 1.6,12.9 v 7.7 l -34.5,34.4 h -7.7 z m 0,14.5 v 7.7 l -20,20 h -7.7 z m 0,14.4 v 2.7 c 0,5.7 -4.7,10.4 -10.4,10.4 h -2.8 z"
   id="path3967" />
<g
   id="EmergencyButton"
   transform="translate(763,318.9)">
	<circle
   class="st3"
   cx="-608.09998"
   cy="666.40002"
   r="29.299999"
   id="circle3969" />
	<circle
   class="st4"
   cx="-608.09998"
   cy="666.40002"
   r="27.6"
   id="circle3971" />
	<circle
   class="st5"
   cx="-608.29999"
   cy="666.40002"
   r="18.700001"
   id="circle3973" />
</g>
<g
   id="g3984"
   transform="translate(763,318.9)">
	<g
   id="g3980">
		<g
   id="g3978">
			<polygon
   class="st3"
   points="-583.2,656.8 -585.6,666 -590.5,657.9 -586.6,658.9 "
   id="polygon3976" />
		</g>
	</g>
	<path
   class="st6"
   d="m -602.8,644.1 c 7.5,1.9 13.9,7.4 16.4,15.3"
   id="path3982" />
</g>
<g
   id="g3990"
   transform="translate(763,318.9)">
	<path
   class="st6"
   d="M -629.7,674.1"
   id="path3986" />
	<path
   class="st6"
   d="M -600.8,689"
   id="path3988" />
</g>
<g
   id="g4000"
   transform="translate(763,318.9)">
	<g
   id="g3996">
		<g
   id="g3994">
			<polygon
   class="st3"
   points="-633.6,675.1 -631.3,665.9 -626.3,674 -630.2,673 "
   id="polygon3992" />
		</g>
	</g>
	<path
   class="st6"
   d="m -614.1,687.8 c -7.5,-1.9 -13.9,-7.4 -16.4,-15.3"
   id="path3998" />
</g>
<g
   id="XMLID_21_"
   transform="translate(763,318.9)">
	<polygon
   id="XMLID_22_"
   class="st0"
   points="-499.6,191.7 -718.9,191.6 -718.9,181.5 -499.6,181.6 " />
</g>
<g
   id="XMLID_20_"
   transform="translate(763,318.9)">
	<polygon
   id="barNextTrain"
   class="st1"
   points="-680.6,191.7 -719.2,191.6 -719.2,181.5 -680.6,181.6 " />
</g>
<g
   id="XMLID_10_"
   transform="translate(763,318.9)">
	<g
   id="XMLID_19_">
		<path
   class="st0"
   d="m -719.7,192.6 v -12.1 h 0.4 l 220.3,0.1 v 12.1 h -0.4 z m 0.8,-10.1 v 8.1 l 219.1,0.1 v -8.1 z"
   id="path4006" />
	</g>
</g>
<path
   class="st7"
   d="m 133.2,749.8 h 39.1 c 8.2,0 15,6.7 15,15 v 39.1 c 0,8.2 -6.7,15 -15,15 h -39.1 c -8.2,0 -15,-6.7 -15,-15 v -39.1 c 0.2,-8.3 6.8,-15 15,-15 z"
   id="path4010" />
<path
   d="m 133.2,754.3 h 2.8 l -13.2,13.2 v -2.8 c 0.1,-5.7 4.7,-10.4 10.4,-10.4 z m 9.7,0 -20,20 v 7.7 l 27.7,-27.7 z m 14.5,0 -34.5,34.4 v 7.7 l 42.2,-42.1 z m 14.4,0 -49,48.9 v 0.6 c 0,2 0.6,3.9 1.6,5.5 L 178,755.9 c -1.6,-1 -3.5,-1.6 -5.5,-1.6 z m 9.4,5 -53.5,53.4 c 1.6,1 3.5,1.6 5.5,1.6 h 0.6 l 48.9,-48.9 v -0.7 c 0.1,-1.9 -0.5,-3.8 -1.5,-5.4 z m 1.6,12.9 v 7.7 l -34.5,34.4 h -7.7 z m 0,14.5 v 7.7 l -20,20 h -7.7 z m 0,14.4 v 2.7 c 0,5.7 -4.7,10.4 -10.4,10.4 h -2.8 z"
   id="path4012" />
<g
   id="StopButton"
   transform="translate(763,318.9)">
	<circle
   class="st8"
   cx="-609.09998"
   cy="467.10001"
   r="29.299999"
   id="circle4014" />
	<circle
   class="st2"
   cx="-609.09998"
   cy="467.10001"
   r="27.6"
   id="circle4016" />
	<circle
   class="st9"
   cx="-609.29999"
   cy="467.10001"
   r="18.700001"
   id="circle4018" />
</g>
<g
   id="g4025"
   transform="translate(763,318.9)">
	<path
   class="st6"
   d="M -630.8,474.8"
   id="path4021" />
	<path
   class="st6"
   d="M -601.8,489.7"
   id="path4023" />
</g>
<g
   id="g4041"
   transform="translate(763,318.9)">
	<path
   class="st10"
   d="m -692.3,256.1 c 0,-1.5 0.3,-2.8 0.9,-3.9 0.6,-1.1 1.4,-2 2.4,-2.8 1,-0.7 2.1,-1.3 3.4,-1.7 1.3,-0.4 2.6,-0.6 3.9,-0.6 1,0 2,0.1 3,0.4 1,0.3 1.9,0.7 2.8,1.2 0.9,0.5 1.7,1.2 2.5,2 0.8,0.8 1.4,1.7 1.9,2.8 l -4,2 c -0.7,-1.3 -1.6,-2.2 -2.7,-2.8 -1.1,-0.6 -2.3,-1 -3.6,-1 -0.8,0 -1.5,0.1 -2.2,0.3 -0.7,0.2 -1.4,0.5 -2,0.8 -0.6,0.4 -1,0.8 -1.4,1.4 -0.4,0.5 -0.5,1.2 -0.5,1.9 v 10.6 c 0,0.7 0.2,1.4 0.5,1.9 0.4,0.5 0.8,1 1.4,1.4 0.6,0.4 1.2,0.6 2,0.8 0.7,0.2 1.5,0.3 2.2,0.3 1.2,0 2.4,-0.3 3.6,-0.9 1.1,-0.6 2,-1.6 2.7,-2.8 l 4,1.9 c -0.5,1.1 -1.2,2 -1.9,2.8 -0.8,0.8 -1.6,1.5 -2.5,2 -0.9,0.5 -1.9,0.9 -2.9,1.2 -1,0.3 -2,0.4 -3,0.4 -1.3,0 -2.6,-0.2 -3.9,-0.5 -1.3,-0.4 -2.4,-0.9 -3.4,-1.7 -1,-0.7 -1.8,-1.7 -2.4,-2.8 -0.6,-1.1 -0.9,-2.4 -0.9,-3.9 v -10.7 z"
   id="path4027" />
	<path
   class="st10"
   d="m -663.7,266.6 c 0,0.8 0.2,1.5 0.5,2 0.3,0.5 0.8,1 1.4,1.4 0.6,0.4 1.2,0.7 2,0.8 0.7,0.2 1.5,0.3 2.2,0.3 0.8,0 1.5,-0.1 2.3,-0.3 0.7,-0.2 1.4,-0.5 2,-0.8 0.6,-0.4 1.1,-0.9 1.4,-1.4 0.3,-0.5 0.5,-1.3 0.5,-2 v -18.9 h 4.5 v 19 c 0,1.5 -0.3,2.8 -0.9,4 -0.6,1.1 -1.4,2.1 -2.4,2.8 -1,0.8 -2.2,1.3 -3.4,1.7 -1.3,0.4 -2.6,0.6 -3.9,0.6 -1.3,0 -2.6,-0.2 -3.9,-0.6 -1.3,-0.4 -2.4,-0.9 -3.4,-1.7 -1,-0.8 -1.8,-1.7 -2.4,-2.8 -0.6,-1.1 -0.9,-2.5 -0.9,-4 v -19 h 4.5 v 18.9 z"
   id="path4029" />
	<path
   class="st10"
   d="m -637.3,264.6 v 10.7 h -4.5 v -27.6 h 10.7 c 1.4,0 2.6,0.2 3.8,0.5 1.2,0.3 2.2,0.8 3,1.5 0.9,0.7 1.5,1.6 2,2.7 0.5,1.1 0.8,2.4 0.8,3.9 0,1.3 -0.2,2.4 -0.5,3.4 -0.4,1 -0.9,1.8 -1.5,2.4 -0.7,0.7 -1.4,1.2 -2.3,1.6 -0.9,0.4 -1.9,0.7 -2.9,0.8 l 8.6,10.9 h -5.5 l -8.3,-10.7 h -3.4 z m 6.2,-4 c 1.6,0 2.8,-0.3 3.7,-1 0.9,-0.7 1.4,-1.8 1.4,-3.4 0,-1.5 -0.5,-2.6 -1.4,-3.2 -1,-0.6 -2.2,-0.9 -3.7,-0.9 h -6.2 v 8.5 z"
   id="path4031" />
	<path
   class="st10"
   d="m -613,264.6 v 10.7 h -4.5 v -27.6 h 10.7 c 1.4,0 2.6,0.2 3.8,0.5 1.2,0.3 2.2,0.8 3,1.5 0.9,0.7 1.5,1.6 2,2.7 0.5,1.1 0.8,2.4 0.8,3.9 0,1.3 -0.2,2.4 -0.5,3.4 -0.3,1 -0.9,1.8 -1.5,2.4 -0.7,0.7 -1.4,1.2 -2.3,1.6 -0.9,0.4 -1.9,0.7 -2.9,0.8 l 8.6,10.9 h -5.5 l -8.3,-10.7 h -3.4 z m 6.2,-4 c 1.6,0 2.8,-0.3 3.7,-1 0.9,-0.7 1.4,-1.8 1.4,-3.4 0,-1.5 -0.5,-2.6 -1.4,-3.2 -1,-0.6 -2.2,-0.9 -3.7,-0.9 h -6.2 v 8.5 z"
   id="path4033" />
	<path
   class="st10"
   d="m -588.7,259.2 h 12.6 v 4.5 h -12.6 v 7 h 13.7 v 4.5 h -18.2 v -27.7 h 18.2 v 4.5 h -13.7 z"
   id="path4035" />
	<path
   class="st10"
   d="m -570.8,275.3 v -27.6 h 4.8 l 9.6,16.3 2.9,5.5 0.3,-0.1 -0.7,-5.9 v -15.8 h 4.5 v 27.6 h -5.3 l -9.4,-16 -2.6,-5.3 -0.3,0.1 0.7,5.8 v 15.4 z"
   id="path4037" />
	<path
   class="st10"
   d="m -533.3,252.1 v 23.1 h -4.5 v -23.1 h -8.4 v -4.5 h 21.3 v 4.5 z"
   id="path4039" />
</g>
<g
   id="g4051"
   transform="translate(763,318.9)">
	<path
   class="st10"
   d="m -651.2,171.8 v -27.6 h 4.8 l 9.6,16.3 2.9,5.5 0.3,-0.1 -0.7,-5.9 v -15.8 h 4.5 v 27.6 h -5.3 l -9.4,-16 -2.6,-5.3 -0.3,0.1 0.7,5.8 v 15.4 z"
   id="path4043" />
	<path
   class="st10"
   d="m -620.1,155.7 h 12.6 v 4.5 h -12.6 v 7 h 13.7 v 4.5 h -18.2 V 144 h 18.2 v 4.5 h -13.7 z"
   id="path4045" />
	<path
   class="st10"
   d="m -585.9,171.8 -6.7,-10.3 -6.7,10.3 h -5.5 l 9.5,-13.8 -9.4,-13.9 h 5.5 l 6.7,10.4 6.7,-10.4 h 5.5 l -9.4,13.9 9.5,13.8 z"
   id="path4047" />
	<path
   class="st10"
   d="m -566.9,148.7 v 23.1 h -4.5 v -23.1 h -8.4 v -4.5 h 21.3 v 4.5 z"
   id="path4049" />
</g>
<g
   id="g4081"
   transform="translate(763,318.9)">
	<path
   class="st10"
   d="m -630.5,420.1 c 0,-0.8 0.3,-1.5 0.8,-2 0.5,-0.5 1.2,-0.8 2,-0.8 0.8,0 1.5,0.3 2,0.8 0.5,0.5 0.8,1.2 0.8,2 0,0.8 -0.3,1.5 -0.8,2 -0.5,0.5 -1.2,0.8 -2,0.8 -0.8,0 -1.5,-0.3 -2,-0.8 -0.5,-0.5 -0.8,-1.1 -0.8,-2 z"
   id="path4053" />
	<g
   id="g4079">
		<path
   class="st10"
   d="m -654.6,367 c 0,0.5 0.2,1 0.5,1.4 0.3,0.4 0.8,0.7 1.3,1 0.5,0.3 1.2,0.5 1.9,0.6 0.7,0.2 1.4,0.3 2.1,0.4 1.2,0.2 2.4,0.5 3.6,0.9 1.2,0.4 2.3,0.9 3.3,1.6 1,0.7 1.7,1.5 2.3,2.6 0.5,0.9 0.7,2 0.7,3.3 0,0.2 0,0.5 0,0.7 -0.1,1.3 -0.4,2.5 -1,3.4 -0.6,1 -1.4,1.8 -2.4,2.4 -1,0.6 -2.1,1.1 -3.3,1.4 -1.2,0.3 -2.4,0.5 -3.7,0.5 -1.1,0 -2.1,-0.1 -3.1,-0.4 -1,-0.3 -2,-0.7 -2.9,-1.3 -0.9,-0.6 -1.7,-1.3 -2.5,-2.1 -0.7,-0.8 -1.4,-1.8 -1.9,-2.9 l 4.1,-1.9 c 0.6,1.3 1.5,2.3 2.6,3 1.1,0.7 2.4,1 3.7,1 0.7,0 1.4,-0.1 2.1,-0.2 0.7,-0.1 1.3,-0.4 1.8,-0.6 0.5,-0.3 0.9,-0.7 1.3,-1.1 0.3,-0.5 0.5,-1 0.6,-1.6 0,-0.1 0,-0.2 0,-0.3 0,-0.7 -0.1,-1.2 -0.4,-1.6 -0.3,-0.5 -0.8,-0.9 -1.4,-1.2 -0.6,-0.3 -1.3,-0.6 -2,-0.8 -0.7,-0.2 -1.6,-0.4 -2.4,-0.5 -1.1,-0.2 -2.3,-0.5 -3.4,-0.9 -1.1,-0.4 -2.1,-0.8 -3,-1.4 -0.9,-0.6 -1.6,-1.4 -2.2,-2.3 -0.6,-0.9 -0.8,-2.1 -0.8,-3.5 0.1,-1.3 0.4,-2.4 1,-3.3 0.6,-1 1.3,-1.8 2.3,-2.5 0.9,-0.7 2,-1.2 3.1,-1.5 1.1,-0.3 2.3,-0.5 3.6,-0.5 1,0 2.1,0.1 3,0.3 1,0.2 1.9,0.6 2.8,1 0.9,0.5 1.6,1.1 2.4,1.9 0.7,0.8 1.3,1.7 1.8,2.8 l -4.1,1.8 c -0.6,-1.3 -1.4,-2.2 -2.4,-2.6 -1,-0.4 -2.2,-0.7 -3.4,-0.7 -0.7,0 -1.3,0.1 -2,0.2 -0.6,0.2 -1.2,0.4 -1.7,0.7 -0.5,0.3 -0.9,0.7 -1.2,1.1 -0.5,0.6 -0.7,1.1 -0.7,1.7 z"
   id="path4055" />
		<path
   class="st10"
   d="m -624.2,363.8 v 23.1 h -4.5 v -23.1 h -8.4 v -4.5 h 21.3 v 4.5 z"
   id="path4057" />
		<path
   class="st10"
   d="m -602.6,358.9 c 1.4,0 2.8,0.2 4.1,0.6 1.3,0.4 2.5,0.9 3.6,1.7 1.1,0.7 1.9,1.7 2.5,2.8 0.6,1.1 1,2.4 1,3.9 v 10.5 c 0,1.5 -0.3,2.8 -1,3.9 -0.6,1.1 -1.5,2.1 -2.5,2.8 -1.1,0.7 -2.3,1.3 -3.6,1.7 -1.3,0.4 -2.7,0.6 -4.1,0.6 -1.4,0 -2.8,-0.2 -4.1,-0.6 -1.3,-0.4 -2.5,-0.9 -3.6,-1.7 -1,-0.7 -1.9,-1.7 -2.5,-2.8 -0.6,-1.1 -1,-2.4 -1,-3.9 v -10.5 c 0,-1.5 0.3,-2.8 1,-3.9 0.6,-1.1 1.5,-2.1 2.5,-2.8 1,-0.7 2.2,-1.3 3.6,-1.7 1.3,-0.5 2.7,-0.6 4.1,-0.6 z m -6.7,19.4 c 0,0.8 0.2,1.4 0.6,2 0.4,0.6 0.9,1 1.5,1.4 0.6,0.4 1.3,0.6 2.1,0.8 0.8,0.2 1.6,0.3 2.5,0.3 0.9,0 1.7,-0.1 2.5,-0.3 0.8,-0.2 1.5,-0.5 2.1,-0.8 0.6,-0.4 1.1,-0.8 1.5,-1.4 0.4,-0.6 0.6,-1.2 0.6,-2 v -10.4 c 0,-0.8 -0.2,-1.5 -0.6,-2 -0.4,-0.6 -0.9,-1 -1.5,-1.4 -0.6,-0.4 -1.3,-0.6 -2.1,-0.8 -0.8,-0.2 -1.6,-0.3 -2.5,-0.3 -0.8,0 -1.7,0.1 -2.5,0.3 -0.8,0.2 -1.5,0.5 -2.1,0.8 -0.6,0.4 -1.1,0.8 -1.5,1.4 -0.4,0.6 -0.6,1.2 -0.6,2 z"
   id="path4059" />
		<path
   class="st10"
   d="m -586.9,359.2 h 10.7 c 1.6,0 3,0.3 4.2,0.8 1.2,0.5 2.2,1.2 3,2.1 0.8,0.9 1.4,1.8 1.8,2.9 0.4,1.1 0.6,2.2 0.6,3.3 0,1.1 -0.2,2.3 -0.6,3.3 -0.4,1 -1,2 -1.8,2.9 -0.8,0.8 -1.8,1.5 -3,2 -1.2,0.5 -2.6,0.8 -4.2,0.8 h -6.3 v 9.6 h -4.5 v -27.7 z m 10.7,14 c 0.9,0 1.6,-0.1 2.2,-0.4 0.6,-0.3 1.2,-0.7 1.6,-1.1 0.4,-0.4 0.7,-1 1,-1.5 0.2,-0.6 0.3,-1.1 0.3,-1.7 0,-0.6 -0.1,-1.1 -0.3,-1.7 -0.2,-0.6 -0.5,-1.1 -1,-1.5 -0.4,-0.4 -1,-0.8 -1.6,-1.1 -0.6,-0.3 -1.4,-0.4 -2.2,-0.4 h -6.2 v 9.4 z"
   id="path4061" />
		<path
   class="st10"
   d="m -700.1,412.1 v 10.7 h -4.5 v -27.6 h 10.7 c 1.4,0 2.6,0.2 3.8,0.5 1.2,0.3 2.2,0.8 3,1.5 0.9,0.7 1.5,1.6 2,2.7 0.5,1.1 0.8,2.4 0.8,3.9 0,1.3 -0.2,2.4 -0.5,3.4 -0.4,1 -0.9,1.8 -1.5,2.4 -0.7,0.7 -1.4,1.2 -2.3,1.6 -0.9,0.4 -1.9,0.7 -2.9,0.8 l 8.6,10.9 h -5.5 l -8.3,-10.7 h -3.4 z m 6.3,-4 c 1.6,0 2.8,-0.3 3.7,-1 0.9,-0.7 1.4,-1.8 1.4,-3.4 0,-1.5 -0.5,-2.6 -1.4,-3.2 -1,-0.6 -2.2,-0.9 -3.7,-0.9 h -6.2 v 8.5 z"
   id="path4063" />
		<path
   class="st10"
   d="m -680.3,422.8 v -27.6 h 4.8 l 9.6,16.3 2.9,5.5 0.3,-0.1 -0.7,-5.9 v -15.8 h 4.5 v 27.6 h -5.3 l -9.4,-16 -2.6,-5.3 -0.3,0.1 0.7,5.8 v 15.4 z"
   id="path4065" />
		<path
   class="st10"
   d="m -643.8,395.1 c 1.4,0 2.6,0.2 3.9,0.5 1.2,0.3 2.3,0.9 3.3,1.6 1,0.7 1.7,1.6 2.3,2.7 0.6,1.1 0.9,2.4 0.9,3.9 v 10.4 c 0,1.5 -0.3,2.8 -0.9,3.9 -0.6,1.1 -1.3,2 -2.3,2.7 -1,0.7 -2.1,1.2 -3.3,1.5 -1.2,0.3 -2.5,0.5 -3.9,0.5 h -9.9 v -27.6 h 9.9 z m 0,23.1 c 0.8,0 1.5,-0.1 2.2,-0.2 0.7,-0.1 1.3,-0.4 1.9,-0.7 0.5,-0.3 1,-0.7 1.3,-1.2 0.3,-0.5 0.5,-1.1 0.5,-1.9 v -10.4 c 0,-0.7 -0.2,-1.4 -0.5,-1.9 -0.3,-0.5 -0.7,-1 -1.3,-1.3 -0.5,-0.3 -1.2,-0.6 -1.9,-0.7 -0.7,-0.2 -1.4,-0.2 -2.2,-0.2 h -5.4 v 18.6 h 5.4 z"
   id="path4067" />
		<path
   class="st10"
   d="m -616,412.1 v 10.7 h -4.5 v -27.6 h 10.7 c 1.4,0 2.6,0.2 3.8,0.5 1.2,0.3 2.2,0.8 3,1.5 0.9,0.7 1.5,1.6 2,2.7 0.5,1.1 0.8,2.4 0.8,3.9 0,1.3 -0.2,2.4 -0.5,3.4 -0.4,1 -0.9,1.8 -1.5,2.4 -0.7,0.7 -1.4,1.2 -2.3,1.6 -0.9,0.4 -1.9,0.7 -2.9,0.8 l 8.6,10.9 h -5.5 l -8.3,-10.7 h -3.4 z m 6.2,-4 c 1.6,0 2.8,-0.3 3.7,-1 0.9,-0.7 1.4,-1.8 1.4,-3.4 0,-1.5 -0.5,-2.6 -1.4,-3.2 -1,-0.6 -2.2,-0.9 -3.7,-0.9 h -6.2 v 8.5 z"
   id="path4069" />
		<path
   class="st10"
   d="m -585.9,394.7 c 1.4,0 2.8,0.2 4.1,0.6 1.3,0.4 2.5,0.9 3.6,1.7 1.1,0.7 1.9,1.7 2.5,2.8 0.6,1.1 1,2.4 1,3.9 v 10.5 c 0,1.5 -0.3,2.8 -1,3.9 -0.6,1.1 -1.5,2.1 -2.5,2.8 -1.1,0.7 -2.3,1.3 -3.6,1.7 -1.3,0.4 -2.7,0.6 -4.1,0.6 -1.4,0 -2.8,-0.2 -4.1,-0.6 -1.3,-0.4 -2.5,-0.9 -3.6,-1.7 -1,-0.7 -1.9,-1.7 -2.5,-2.8 -0.6,-1.1 -1,-2.4 -1,-3.9 v -10.5 c 0,-1.5 0.3,-2.8 1,-3.9 0.6,-1.1 1.5,-2.1 2.5,-2.8 1,-0.7 2.2,-1.3 3.6,-1.7 1.4,-0.4 2.7,-0.6 4.1,-0.6 z m -6.6,19.4 c 0,0.8 0.2,1.4 0.6,2 0.4,0.6 0.9,1 1.5,1.4 0.6,0.4 1.3,0.6 2.1,0.8 0.8,0.2 1.6,0.3 2.5,0.3 0.9,0 1.7,-0.1 2.5,-0.3 0.8,-0.2 1.5,-0.5 2.1,-0.8 0.6,-0.4 1.1,-0.8 1.5,-1.4 0.4,-0.6 0.6,-1.2 0.6,-2 v -10.4 c 0,-0.8 -0.2,-1.5 -0.6,-2 -0.4,-0.6 -0.9,-1 -1.5,-1.4 -0.6,-0.4 -1.3,-0.6 -2.1,-0.8 -0.8,-0.2 -1.6,-0.3 -2.5,-0.3 -0.8,0 -1.7,0.1 -2.5,0.3 -0.8,0.2 -1.5,0.5 -2.1,0.8 -0.6,0.4 -1.1,0.8 -1.5,1.4 -0.4,0.6 -0.6,1.2 -0.6,2 z"
   id="path4071" />
		<path
   class="st10"
   d="m -551,402.7 c 0,0.9 -0.2,1.9 -0.6,2.9 -0.4,1 -1,1.8 -2,2.4 0.8,0.3 1.4,0.7 1.9,1.2 0.5,0.5 0.9,1 1.2,1.6 0.3,0.6 0.5,1.2 0.6,1.8 0.1,0.6 0.2,1.3 0.2,2 0,1.5 -0.3,2.8 -0.8,3.9 -0.5,1 -1.2,1.9 -2.1,2.5 -0.9,0.7 -1.9,1.1 -3,1.4 -1.2,0.3 -2.4,0.4 -3.8,0.4 h -10.7 v -27.6 h 10.8 c 1.1,0 2.2,0.2 3.2,0.5 1,0.3 1.9,0.8 2.7,1.4 0.8,0.6 1.4,1.4 1.8,2.4 0.4,0.8 0.6,2 0.6,3.2 z m -8.4,3.4 c 1.1,0 2.1,-0.3 2.8,-0.8 0.7,-0.5 1.1,-1.5 1.1,-2.7 0,-1.1 -0.4,-1.9 -1.2,-2.4 -0.8,-0.5 -1.7,-0.8 -2.8,-0.8 h -6.2 v 6.7 z m 0.3,12.3 c 1.3,0 2.4,-0.3 3.3,-0.9 1,-0.6 1.4,-1.7 1.4,-3.2 0,-1.5 -0.5,-2.6 -1.4,-3.2 -0.9,-0.6 -2.1,-0.9 -3.5,-0.9 -0.1,0 -0.1,0 -0.2,0 h -6.2 v 8.2 h 6.2 c 0.2,0 0.3,0 0.4,0 z"
   id="path4073" />
		<path
   class="st10"
   d="m -541.3,422.8 h -4.5 v -27.6 h 4.5 z"
   id="path4075" />
		<path
   class="st10"
   d="m -536.1,422.8 v -27.6 h 4.8 l 9.6,16.3 2.9,5.5 0.3,-0.1 -0.7,-5.9 v -15.8 h 4.5 v 27.6 h -5.3 l -9.4,-16 -2.6,-5.3 -0.3,0.1 0.7,5.8 v 15.4 z"
   id="path4077" />
	</g>
</g>
</svg>
