<?xml version="1.0" encoding="utf-8"?>
<!-- Generator: Adobe Illustrator 19.0.0, SVG Export Plug-In . SVG Version: 6.00 Build 0)  -->
<svg version="1.1" id="Ebene_1" xmlns="http://www.w3.org/2000/svg" xmlns:xlink="http://www.w3.org/1999/xlink" x="0px" y="0px"
	 viewBox="-4466 2328.4 234 648.8" style="enable-background:new -4466 2328.4 234 648.8;" xml:space="preserve">
<style type="text/css">
	@font-face {
      	font-family: UniSansSemiBold;
      	src: url('/static/fonts/slider.ttf');
    }
	.st0{fill:#00B3E2;}
	.st1{font-family:'UniSansSemiBold';}
	.st2{font-size:42px;}
	.st3{fill:#FFFFFF;stroke:#010202;stroke-width:2;stroke-miterlimit:10;}
	.st4{fill:none;stroke:#010202;stroke-width:3;stroke-miterlimit:10;}
	.st5{fill:#ECECEC;}
	.st6{fill:url(#SVGID_1_);}
	.st7{fill:url(#SVGID_2_);}
	.st8{display:none;}
	.st9{display:inline;fill:#EBC721;}
	.st10{display:inline;fill:#E74317;}
	.st11{fill:#EBC720;}
	.st12{fill:#A82A00;}
	.st13{fill:#E63A00;}
	.st14{fill:#F24208;}
	.st15{fill:none;stroke:#A82A00;stroke-width:2;stroke-miterlimit:10;}
	.st16{fill:#A7A7A7;}
</style>
<g id="XMLID_15_">
	<polygon id="XMLID_16_" points="-4382.2,2829.3 -4352.1,2829.3 -4352.1,2834.4 -4382.2,2834.4 	"/>
</g>
<g id="XMLID_14_">
	
		<rect id="SliderGlider" x="-4580.2" y="2676.3" transform="matrix(-1.524674e-004 1 -1 -1.524674e-004 -1666.6445 7029.0957)" width="465.7" height="10.1"/>
</g>
<g id="XMLID_12_">
	
		<rect id="XMLID_13_" x="-4584.6" y="2674.8" transform="matrix(-1.494304e-004 1 -1 -1.494304e-004 -1667.818 7027.2876)" width="475.2" height="10.1"/>
</g>
<g id="XMLID_3_">
	<polygon id="barActualSpeed" class="st0" points="-4352.1,2918.1 -4352,2834.4 -4341.9,2834.4 -4342,2918.1 	"/>
</g>
<g id="XMLID_5_">
	<g id="XMLID_9_">
		<path d="M-4341,2919.2h-12.1v-0.9l0.1-477.2h12.1v0.9L-4341,2919.2z M-4351.1,2917.5h8.1l0.1-474.6h-8.1L-4351.1,2917.5z"/>
	</g>
</g>
<g id="XMLID_17_">
	<rect id="XMLID_18_" x="-4382.2" y="2915.6" width="70.3" height="5.1"/>
</g>
<g id="XMLID_1_">
	<polygon id="XMLID_2_" points="-4382.2,2441.1 -4340.9,2441.2 -4340.9,2446.3 -4382.2,2446.2 	"/>
</g>
<g id="Slider">
	<text id="SliderSpeed" transform="matrix(1 0 0 1 -4394.019 2847.1775)" class="st1 st2"  text-anchor="end">0</text>
	<g id="SliderButton">
		<path id="XMLID_6_" class="st3" d="M-4339.8,2895.2h-13.6c-15.6,0-28.3-12.8-28.3-28.3v-62.4c0-15.6,12.8-28.3,28.3-28.3h13.6
			c15.6,0,28.3,12.8,28.3,28.3v62.4C-4311.4,2882.4-4324.2,2895.2-4339.8,2895.2z"/>
		<line id="XMLID_8_" class="st4" x1="-4372.7" y1="2835.5" x2="-4321.9" y2="2835.5"/>
		<path id="XMLID_7_" class="st4" d="M-4372.7,2815c0,0,7.1,3,26.2,3s24.6-3,24.6-3"/>
		<path id="XMLID_11_" class="st4" d="M-4321.1,2856c0,0-7.1-3-26.2-3c-19.1,0-24.6,3-24.6,3"/>
	</g>
</g>
<rect x="-4466" y="2813.5" class="st5" width="80" height="163.6"/>
<linearGradient id="SVGID_1_" gradientUnits="userSpaceOnUse" x1="-4426" y1="2812.72" x2="-4426" y2="2705.5198" gradientTransform="matrix(1 0 0 1 0 0.7603)">
	<stop  offset="0" style="stop-color:#ECECEC"/>
	<stop  offset="1" style="stop-color:#FFFFFF;stop-opacity:0"/>
</linearGradient>
<rect x="-4466" y="2706.3" class="st6" width="80" height="107.2"/>
<rect x="-4466" y="2386.6" class="st5" width="80" height="78.4"/>
<linearGradient id="SVGID_2_" gradientUnits="userSpaceOnUse" x1="-8132" y1="1159.5803" x2="-8132" y2="1048.5803" gradientTransform="matrix(-1 0 0 -1 -12558 3624.5605)">
	<stop  offset="0" style="stop-color:#ECECEC"/>
	<stop  offset="1" style="stop-color:#FFFFFF;stop-opacity:0"/>
</linearGradient>
<rect x="-4466" y="2465" class="st7" width="80" height="111"/>
<g id="XMLID_27_" class="st8">
	<circle id="XMLID_31_" class="st9" cx="-4266.9" cy="2942.5" r="32.1"/>
	<path id="XMLID_28_" class="st10" d="M-4266.9,2977.1c-19,0-34.5-15.5-34.5-34.5s15.5-34.5,34.5-34.5s34.5,15.5,34.5,34.5
		S-4247.8,2977.1-4266.9,2977.1z M-4266.9,2912.8c-16.4,0-29.8,13.3-29.8,29.8c0,16.4,13.3,29.8,29.8,29.8s29.8-13.3,29.8-29.8
		C-4237.1,2926.1-4250.5,2912.8-4266.9,2912.8z"/>
</g>
<g id="XMLID_23_" class="st8">
	<path id="XMLID_24_" class="st10" d="M-4270.9,2963.7c0-2.6,1.8-4.5,4.3-4.5c2.6,0,4.3,1.9,4.3,4.5s-1.7,4.5-4.3,4.5
		C-4269.1,2968.2-4270.9,2966.3-4270.9,2963.7z M-4269.1,2953.3l-1-35h7l-1,35H-4269.1z"/>
</g>
<g>
	<g>
		<path class="st0" d="M-4348.6,2367.9c-1.3,0-2.5-0.4-3.6-1.2c-1.1-0.8-1.8-1.8-2.2-3.1l-9.2-30.9c-0.1-0.3-0.2-0.7-0.2-1
			c0-0.7,0.2-1.3,0.7-2c0.7-0.9,1.6-1.3,2.7-1.3h1c1.3,0,2.5,0.4,3.5,1.2c1,0.8,1.7,1.9,2.1,3.2l3.4,13.6c0.4,1.5,0.9,3.6,1.5,6.3
			c0.6,2.8,1.1,4.8,1.5,6.2c0,0.1,0.1,0.1,0.2,0.1c0.1,0,0.1,0,0.2-0.1c0.3-1.4,0.8-3.5,1.5-6.2c0.6-2.8,1.1-4.9,1.5-6.3l3.4-13.6
			c0.3-1.3,1-2.4,2-3.2c1-0.8,2.2-1.2,3.5-1.2h0.7c1.1,0,2,0.4,2.7,1.3c0.4,0.6,0.7,1.3,0.7,2c0,0.3-0.1,0.6-0.2,1l-9.3,30.9
			c-0.4,1.3-1.2,2.3-2.2,3.1c-1.1,0.8-2.3,1.2-3.6,1.2H-4348.6z"/>
		<path class="st0" d="M-4330.8,2385.6c-0.7,0-1.3-0.3-1.9-0.8c-0.5-0.5-0.8-1.1-0.8-1.9v-12.7c0-0.6,0.2-1.2,0.7-1.6
			c0.4-0.4,1-0.7,1.6-0.7h0.2c0.6,0,1.1,0.2,1.5,0.6c0.4,0.4,0.7,0.9,0.8,1.4v0.2c0,0,0,0.1,0.1,0.1h0.1c0.8-0.8,1.7-1.5,2.5-2
			c0.8-0.5,1.8-0.7,2.8-0.7c2.2,0,3.8,0.9,4.7,2.6c0,0.1,0.1,0.1,0.2,0.1c0.1,0,0.1,0,0.2-0.1c0.8-0.8,1.7-1.5,2.5-2
			c0.8-0.5,1.8-0.7,2.8-0.7c1.9,0,3.2,0.6,4.1,1.9c0.9,1.3,1.4,3,1.4,5.3v8.3c0,0.7-0.3,1.3-0.8,1.9c-0.5,0.5-1.1,0.8-1.9,0.8h-0.2
			c-0.7,0-1.3-0.3-1.9-0.8c-0.5-0.5-0.8-1.1-0.8-1.9v-7.6c0-1.2-0.2-2-0.5-2.4c-0.3-0.5-0.8-0.7-1.6-0.7c-0.8,0-1.7,0.5-2.6,1.4
			c-0.1,0.1-0.2,0.3-0.2,0.5v8.8c0,0.7-0.3,1.3-0.8,1.9c-0.5,0.5-1.1,0.8-1.9,0.8h-0.3c-0.7,0-1.3-0.3-1.9-0.8
			c-0.5-0.5-0.8-1.1-0.8-1.9v-7.6c0-1.2-0.2-2-0.5-2.4c-0.3-0.5-0.8-0.7-1.6-0.7c-0.8,0-1.7,0.5-2.6,1.4c-0.1,0.1-0.2,0.3-0.2,0.5
			v8.8c0,0.7-0.3,1.3-0.8,1.9c-0.5,0.5-1.1,0.8-1.9,0.8L-4330.8,2385.6L-4330.8,2385.6z"/>
		<path class="st0" d="M-4301.1,2386c-1.6,0-2.8-0.5-3.8-1.5s-1.4-2.3-1.4-3.8c0-1.8,0.8-3.3,2.3-4.3s3.9-1.7,7.2-2.1
			c0.2,0,0.3-0.1,0.2-0.3c-0.2-1.3-1.1-2-2.6-2c-0.8,0-1.8,0.2-2.8,0.6c-0.3,0.1-0.6,0.2-0.9,0.2c-0.2,0-0.5,0-0.7-0.1
			c-0.5-0.2-0.9-0.5-1.2-1c-0.2-0.3-0.2-0.7-0.2-1c0-0.2,0-0.4,0.1-0.6c0.2-0.5,0.5-0.9,1-1.2c2-0.9,3.9-1.4,5.8-1.4
			c4.8,0,7.1,2.7,7.1,8v7.8c0,0.6-0.2,1.2-0.7,1.6c-0.4,0.4-1,0.6-1.6,0.6h-0.6c-0.5,0-0.9-0.1-1.3-0.4c-0.4-0.3-0.6-0.7-0.7-1.1
			v-0.1l-0.1-0.1h-0.1C-4297.7,2385.3-4299.4,2386-4301.1,2386z M-4299.2,2381.7c0.8,0,1.7-0.4,2.4-1.2c0.1-0.1,0.2-0.3,0.2-0.5
			v-2.2c0-0.1,0-0.2-0.1-0.2s-0.1-0.1-0.2-0.1l0,0c-2.8,0.4-4.3,1.3-4.3,2.7c0,0.5,0.2,0.9,0.5,1.1
			C-4300.4,2381.5-4299.8,2381.7-4299.2,2381.7z"/>
		<path class="st0" d="M-4289,2385.6c-0.6,0-1-0.3-1.3-0.8c-0.1-0.2-0.2-0.5-0.2-0.8c0-0.2,0.1-0.5,0.2-0.8l3.9-6.6
			c0.1-0.2,0.1-0.4,0-0.5l-3.6-5.9c-0.1-0.3-0.2-0.5-0.2-0.8c0-0.2,0.1-0.5,0.2-0.8c0.3-0.5,0.7-0.8,1.3-0.8h0.6
			c0.8,0,1.6,0.2,2.3,0.6c0.7,0.4,1.2,1,1.6,1.7l0.2,0.4c0.5,1,0.9,1.9,1.4,2.9c0,0.1,0.1,0.1,0.1,0.1c0.1,0,0.1,0,0.1-0.1
			c0.1-0.4,0.3-0.9,0.6-1.6s0.4-1.1,0.5-1.3l0.1-0.3c0.3-0.7,0.8-1.3,1.4-1.8c0.7-0.5,1.4-0.7,2.2-0.7h0.5c0.6,0,1,0.3,1.3,0.8
			c0.1,0.2,0.2,0.5,0.2,0.8s-0.1,0.5-0.2,0.8l-3.6,6.5c-0.1,0.2-0.1,0.3,0,0.5l3.8,6c0.2,0.3,0.2,0.5,0.2,0.8c0,0.2-0.1,0.5-0.2,0.7
			c-0.3,0.5-0.7,0.8-1.3,0.8h-0.7c-0.8,0-1.6-0.2-2.3-0.6c-0.7-0.4-1.3-1-1.7-1.7l-0.3-0.5c-0.8-1.5-1.3-2.5-1.6-3l-0.1-0.1
			c-0.1,0-0.1,0-0.1,0.1c-0.4,0.8-0.8,1.8-1.3,3l-0.2,0.3c-0.3,0.7-0.8,1.3-1.5,1.8c-0.7,0.4-1.4,0.6-2.2,0.6h-0.1V2385.6
			L-4289,2385.6z"/>
	</g>
</g>
<path class="st11" d="M-4286.1,2908.1h39.1c8.2,0,15,6.7,15,15v39.1c0,8.2-6.7,15-15,15h-39.1c-8.2,0-15-6.7-15-15v-39.1
	C-4301,2914.8-4294.3,2908.1-4286.1,2908.1z"/>
<path d="M-4286.1,2912.6h2.8l-13.2,13.2v-2.8C-4296.5,2917.3-4291.8,2912.6-4286.1,2912.6L-4286.1,2912.6z M-4276.5,2912.6l-20,20
	v7.7l27.7-27.7H-4276.5L-4276.5,2912.6z M-4262,2912.6l-34.5,34.4v7.7l42.2-42.1H-4262L-4262,2912.6z M-4247.5,2912.6l-49,48.9v0.6
	c0,2,0.6,3.9,1.6,5.5l53.5-53.4c-1.6-1-3.5-1.6-5.5-1.6H-4247.5L-4247.5,2912.6z M-4238.1,2917.6l-53.5,53.4c1.6,1,3.5,1.6,5.5,1.6
	h0.6l48.9-48.9v-0.7C-4236.5,2921.1-4237.1,2919.2-4238.1,2917.6L-4238.1,2917.6z M-4236.5,2930.5v7.7l-34.5,34.4h-7.7
	L-4236.5,2930.5L-4236.5,2930.5z M-4236.5,2945v7.7l-20,20h-7.7L-4236.5,2945L-4236.5,2945z M-4236.5,2959.4v2.7
	c0,5.7-4.7,10.4-10.4,10.4h-2.8L-4236.5,2959.4z"/>
<g id="EmergencyButton">
	<circle class="st12" cx="-4265.5" cy="2944.3" r="29.3"/>
	<circle class="st13" cx="-4265.5" cy="2944.3" r="27.6"/>
	<circle class="st14" cx="-4265.7" cy="2944.3" r="18.7"/>
</g>
<g>
	<g>
		<g>
			<polygon class="st12" points="-4247.9,2935.8 -4244,2936.8 -4240.6,2934.7 -4243,2943.9 			"/>
		</g>
	</g>
	<path class="st15" d="M-4260.2,2922c7.5,1.9,13.9,7.4,16.4,15.3"/>
</g>
<g>
	<path class="st15" d="M-4287.1,2952"/>
	<path class="st15" d="M-4258.2,2966.9"/>
</g>
<g>
	<g>
		<g>
			<polygon class="st12" points="-4283.7,2951.9 -4287.6,2950.9 -4291,2953 -4288.7,2943.8 			"/>
		</g>
	</g>
	<path class="st15" d="M-4271.5,2965.7c-7.5-1.9-13.9-7.4-16.4-15.3"/>
</g>
<g>
	<path d="M-4452.4,2460.5v-22.4l-3.1,3.3l-3.6-2.9l7.3-7.7h4v29.7H-4452.4z"/>
	<path d="M-4443.1,2452.1v-12.8c0-1.5,0.3-2.9,1-4c0.6-1.1,1.5-2,2.5-2.8c1-0.7,2.2-1.3,3.5-1.6c1.3-0.4,2.6-0.5,3.8-0.5
		c1.3,0,2.5,0.2,3.8,0.5c1.3,0.4,2.4,0.9,3.4,1.6s1.9,1.7,2.5,2.8c0.6,1.1,1,2.5,1,4v12.8c0,1.5-0.3,2.8-1,3.9
		c-0.6,1.1-1.5,2-2.5,2.8c-1,0.7-2.2,1.3-3.4,1.6c-1.3,0.3-2.5,0.5-3.8,0.5c-1.3,0-2.5-0.2-3.8-0.5s-2.4-0.9-3.5-1.6
		c-1-0.7-1.9-1.7-2.5-2.8C-4442.7,2454.9-4443.1,2453.6-4443.1,2452.1z M-4438.3,2452.3c0,0.8,0.2,1.4,0.6,2c0.4,0.5,0.9,1,1.4,1.3
		c0.6,0.3,1.2,0.6,2,0.7c0.7,0.1,1.4,0.2,2.1,0.2s1.4-0.1,2.1-0.2c0.7-0.1,1.4-0.4,2-0.7c0.6-0.3,1.1-0.8,1.4-1.3
		c0.4-0.5,0.5-1.2,0.5-2v-12.8c0-0.8-0.2-1.4-0.5-2c-0.4-0.5-0.8-1-1.4-1.3c-0.6-0.3-1.2-0.6-2-0.7c-0.7-0.1-1.4-0.2-2.1-0.2
		s-1.4,0.1-2.1,0.2c-0.7,0.1-1.4,0.4-2,0.7c-0.6,0.3-1.1,0.8-1.4,1.3s-0.6,1.2-0.6,2V2452.3z"/>
	<path d="M-4417.4,2452.1v-12.8c0-1.5,0.3-2.9,1-4c0.6-1.1,1.5-2,2.5-2.8c1-0.7,2.2-1.3,3.5-1.6c1.3-0.4,2.6-0.5,3.8-0.5
		c1.3,0,2.5,0.2,3.8,0.5c1.3,0.4,2.4,0.9,3.4,1.6s1.9,1.7,2.5,2.8c0.6,1.1,1,2.5,1,4v12.8c0,1.5-0.3,2.8-1,3.9
		c-0.6,1.1-1.5,2-2.5,2.8c-1,0.7-2.2,1.3-3.4,1.6c-1.3,0.3-2.5,0.5-3.8,0.5c-1.3,0-2.5-0.2-3.8-0.5s-2.4-0.9-3.5-1.6
		c-1-0.7-1.9-1.7-2.5-2.8C-4417.1,2454.9-4417.4,2453.6-4417.4,2452.1z M-4412.7,2452.3c0,0.8,0.2,1.4,0.6,2c0.4,0.5,0.9,1,1.4,1.3
		c0.6,0.3,1.2,0.6,2,0.7c0.7,0.1,1.4,0.2,2.1,0.2s1.4-0.1,2.1-0.2c0.7-0.1,1.4-0.4,2-0.7c0.6-0.3,1.1-0.8,1.4-1.3
		c0.4-0.5,0.5-1.2,0.5-2v-12.8c0-0.8-0.2-1.4-0.5-2c-0.4-0.5-0.8-1-1.4-1.3c-0.6-0.3-1.2-0.6-2-0.7c-0.7-0.1-1.4-0.2-2.1-0.2
		s-1.4,0.1-2.1,0.2c-0.7,0.1-1.4,0.4-2,0.7c-0.6,0.3-1.1,0.8-1.4,1.3s-0.6,1.2-0.6,2V2452.3z"/>
</g>
<g>
	<path d="M-4417.4,2838.3v-12.8c0-1.5,0.3-2.9,1-4c0.6-1.1,1.5-2,2.5-2.8c1-0.7,2.2-1.3,3.5-1.6c1.3-0.4,2.6-0.5,3.8-0.5
		c1.3,0,2.5,0.2,3.8,0.5s2.4,0.9,3.4,1.6c1,0.7,1.9,1.7,2.5,2.8s1,2.5,1,4v12.8c0,1.5-0.3,2.8-1,3.9c-0.6,1.1-1.5,2-2.5,2.8
		c-1,0.7-2.2,1.3-3.4,1.6c-1.3,0.3-2.5,0.5-3.8,0.5c-1.3,0-2.5-0.2-3.8-0.5c-1.3-0.3-2.4-0.9-3.5-1.6c-1-0.7-1.9-1.7-2.5-2.8
		C-4417.1,2841.1-4417.4,2839.8-4417.4,2838.3z M-4412.7,2838.5c0,0.8,0.2,1.4,0.6,2c0.4,0.6,0.9,1,1.4,1.3c0.5,0.3,1.2,0.6,2,0.7
		c0.7,0.1,1.4,0.2,2.1,0.2s1.4-0.1,2.1-0.2c0.7-0.1,1.4-0.4,2-0.7c0.6-0.3,1.1-0.8,1.4-1.3c0.4-0.5,0.5-1.2,0.5-2v-12.8
		c0-0.8-0.2-1.4-0.5-2c-0.4-0.5-0.8-1-1.4-1.3c-0.6-0.3-1.2-0.6-2-0.7c-0.7-0.1-1.4-0.2-2.1-0.2s-1.4,0.1-2.1,0.2
		c-0.7,0.1-1.4,0.4-2,0.7c-0.6,0.3-1.1,0.8-1.4,1.3s-0.6,1.2-0.6,2V2838.5z"/>
</g>
<g>
	<path d="M-4450.8,2903c1.4,0,2.8,0.2,4.1,0.6c1.3,0.4,2.6,0.9,3.6,1.7s1.9,1.7,2.6,2.8c0.6,1.1,1,2.4,1,3.9v10.6
		c0,1.5-0.3,2.8-1,3.9c-0.6,1.1-1.5,2.1-2.6,2.8c-1.1,0.7-2.3,1.3-3.6,1.7c-1.3,0.4-2.7,0.6-4.1,0.6c-1.4,0-2.8-0.2-4.1-0.6
		c-1.3-0.4-2.5-0.9-3.6-1.7c-1-0.7-1.9-1.7-2.5-2.8c-0.6-1.1-1-2.5-1-3.9V2912c0-1.5,0.3-2.8,1-3.9c0.6-1.1,1.5-2.1,2.5-2.8
		s2.2-1.3,3.6-1.7C-4453.6,2903.2-4452.2,2903-4450.8,2903z M-4457.5,2922.5c0,0.8,0.2,1.4,0.6,2c0.4,0.6,0.9,1,1.5,1.4
		s1.3,0.6,2.2,0.8c0.8,0.2,1.6,0.3,2.5,0.3c0.9,0,1.7-0.1,2.5-0.3c0.8-0.2,1.5-0.5,2.2-0.8c0.6-0.4,1.1-0.8,1.5-1.4
		c0.4-0.6,0.6-1.2,0.6-2v-10.4c0-0.8-0.2-1.5-0.6-2c-0.4-0.6-0.9-1-1.5-1.4c-0.6-0.4-1.3-0.6-2.2-0.8c-0.8-0.2-1.6-0.3-2.5-0.3
		c-0.8,0-1.7,0.1-2.5,0.3c-0.8,0.2-1.5,0.5-2.2,0.8c-0.6,0.4-1.1,0.8-1.5,1.4s-0.6,1.2-0.6,2V2922.5z"/>
	<path d="M-4430.5,2915.8h12.1v4.6h-12.1v10.9h-4.6v-27.8h18.3v4.6h-13.7V2915.8z"/>
	<path d="M-4408.4,2915.8h12v4.6h-12v10.9h-4.6v-27.8h18.3v4.6h-13.7V2915.8z"/>
</g>
<g id="Arduino">
	<path class="st16" d="M-4272.8,2851.4c-0.4-0.1-0.9-0.1-1.4-0.2h-0.1h-0.2c-0.1,0-0.2,0-0.3,0c-1.5,0-3,0.9-4.1,2.3
		c-1.1,1.5-1.4,3.4-0.7,4.9v0.1c0.7,1.7,2.3,2.9,4.3,3.2c2,0.4,4-0.2,5.2-1.5l0,0l0,0c1.1-1.1,1.9-2.4,2.8-3.8
		C-4268.5,2854.1-4270.3,2852-4272.8,2851.4z M-4271.3,2856.9h-5.7v-1.2h5.7V2856.9z"/>
	<path class="st16" d="M-4254.5,2851.7c-1.9-0.8-4-0.7-5.4,0.3l0,0c-1.6,1-2.8,2.6-3.9,4.3c0.8,1.6,2.6,4.6,5.8,5.3l0,0l0,0
		c1.6,0.5,3.4,0,4.8-1.3c1.5-1.3,2.2-3.1,1.9-4.8C-4251.4,2854-4252.7,2852.5-4254.5,2851.7z M-4254.7,2857.1h-1.7v1.6h-1.5v-1.6
		h-1.6v-1.5h1.6v-1.6h1.5v1.6h1.7V2857.1z"/>
	<path class="st16" d="M-4265.5,2836.7c-11,0-19.8,8.9-19.8,19.8c0,11,8.9,19.8,19.8,19.8c11,0,19.8-8.9,19.8-19.8
		S-4254.6,2836.7-4265.5,2836.7z M-4251.3,2862.6c-1.6,1.4-3.5,2.2-5.4,2.2c-0.7,0-1.4-0.1-2-0.3c-1.8-0.4-3.4-1.3-4.8-2.8
		c-0.7-0.7-1.4-1.6-2-2.5c-0.7,1-1.4,2.1-2.4,3c-0.9,1-2.2,1.8-3.6,2.2c-1.3,0.4-2.7,0.4-4.1,0.2s-2.7-0.8-3.8-1.6
		c-1.2-0.9-2.1-2-2.6-3.3c-0.5-1.2-0.7-2.6-0.5-4c0.2-1.3,0.7-2.5,1.5-3.6c0.8-1.1,1.8-2,2.9-2.6c1.2-0.6,2.5-0.9,3.8-0.9h0.1l0,0
		c0.8,0,1.5,0.1,2.1,0.2c1.8,0.4,3.4,1.4,4.9,2.9c0.7,0.7,1.3,1.4,1.8,2.2c1-1.5,2.3-3,4-4c1.2-0.8,2.5-1.2,4-1.3
		c1.4-0.1,2.8,0.2,4.1,0.8c2.7,1.2,4.6,3.4,5,6.1c0.2,1.3,0,2.8-0.5,4.1C-4249.4,2860.6-4250.2,2861.7-4251.3,2862.6z"/>
</g>
<title>wiki:Behnam N</title>
<g id="Raspberry">
	<path class="st16" d="M-4269.4,2801.9c-2.7-0.5-4.9,1.1-4.8,4C-4274.1,2807-4268.4,2802-4269.4,2801.9z"/>
	<path class="st16" d="M-4271.5,2801.1c0.9,0.1,3.4,0,3.8-1.9c-0.9-1-2.6-2.2-5.5-3.7c2.3,0.8,4.3,1.8,6,3.2c2-0.9,0.6-3.3-0.4-4.3
		c0,0.3-0.1,0.4-0.2,0.5c-0.3-0.3-0.6-0.7-1-1c0,0.2,0.1,0.4-0.1,0.6c-0.2-0.3-0.5-0.6-0.9-0.8c0.2,0.3,0,0.4-0.1,0.6
		c-0.3-0.3-0.6-0.5-1.1-0.7c0.2,0.2,0.4,0.4,0.1,0.6c-0.3-0.2-0.6-0.4-1.4-0.5c0.2,0.2,0.5,0.4,0.3,0.6c-0.4-0.2-0.8-0.3-1.3-0.3
		c0.2,0.2,0.4,0.4,0.2,0.5c-0.4-0.1-1-0.3-1.6-0.2l0.4,0.4c0,0-0.8,0-1.4,0c0.2,0.3,0.4,0.6,0.5,1.1c-0.1,0.1-0.3,0-0.6,0
		c0.3,0.6,0.8,0.7,0.9,1c-0.2,0.1-0.4,0.1-0.7,0c0.2,0.4,0.6,0.7,0.9,1c-0.1,0.1-0.2,0.1-0.6,0.1c0.3,0.3,0.7,0.6,1.1,0.9
		c-0.1,0.1-0.3,0.1-0.6,0.1c0.4,0.4,0.9,0.6,1.4,0.8c-0.2,0.2-0.4,0.1-0.6,0.1c0.3,0.3,0.9,0.4,1.4,0.6c-0.1,0.2-0.2,0.2-0.4,0.2
		c0.6,0.3,1.4,0.2,1.6,0.3C-4271.1,2800.9-4271.3,2801-4271.5,2801.1z"/>
	<path class="st16" d="M-4274.6,2807.1c-2.6,1.5-2.1,4.7-0.7,5.9C-4274.1,2813.6-4273.1,2806.7-4274.6,2807.1z"/>
	<path class="st16" d="M-4274.1,2813.4c-0.6,0.5-0.8,2.1,0.2,3.8c1.4,1.9,3.3,2.1,4,1.7c0.8-0.6,0.4-2.7-0.6-3.9
		C-4271.7,2813.6-4273.2,2812.8-4274.1,2813.4z"/>
	<path class="st16" d="M-4261.9,2801.9c-1,0.2,4.7,5.2,4.8,4C-4257,2803.1-4259.3,2801.5-4261.9,2801.9z"/>
	<path class="st16" d="M-4268.6,2803.1c0,0.9,1.3,1.8,3.2,1.8c1.9,0,3.2-0.7,3.2-1.6c0-1-1.8-2.1-3.2-2.1
		C-4267.1,2801.1-4268.6,2802.4-4268.6,2803.1z"/>
	<path class="st16" d="M-4263.8,2798.6c1.7-1.4,3.7-2.4,6-3.2c-2.9,1.5-4.6,2.7-5.5,3.7c0.5,1.9,2.9,2,3.8,1.9
		c-0.2-0.1-0.3-0.2-0.4-0.3c0.2-0.2,1,0,1.6-0.3c-0.2,0-0.3-0.1-0.4-0.2c0.5-0.2,1.1-0.3,1.4-0.6c-0.2,0-0.4,0-0.6-0.1
		c0.5-0.3,1-0.5,1.4-0.8c-0.2,0-0.5,0-0.6-0.1c0.4-0.3,0.8-0.6,1.1-0.9c-0.3,0-0.5,0-0.6-0.1c0.3-0.3,0.7-0.6,0.9-1
		c-0.3,0.1-0.5,0.1-0.7,0c0.1-0.3,0.6-0.4,0.9-1c-0.3,0-0.6,0.1-0.6,0c0.1-0.5,0.3-0.8,0.5-1.1c-0.6,0-1.4,0-1.4,0l0.4-0.4
		c-0.6-0.2-1.1,0-1.6,0.2c-0.2-0.1,0-0.3,0.2-0.5c-0.5,0.1-0.9,0.2-1.3,0.3c-0.2-0.2,0.1-0.4,0.3-0.6c-0.7,0.1-1,0.3-1.4,0.5
		c-0.2-0.2,0-0.4,0.1-0.6c-0.6,0.2-0.8,0.5-1.1,0.7c-0.1-0.1-0.3-0.2-0.1-0.6c-0.4,0.2-0.7,0.5-0.9,0.8c-0.2-0.2-0.1-0.4-0.1-0.6
		c-0.4,0.3-0.7,0.7-1,1c-0.1,0-0.1-0.2-0.2-0.5C-4264.4,2795.3-4265.8,2797.7-4263.8,2798.6z"/>
	<path class="st16" d="M-4265.4,2819c-1.4,0-3.5,0.6-3.5,1.3c0,0.5,1.7,2,3.4,1.9c1.7,0,3.4-1.5,3.4-2.1
		C-4262.1,2819.4-4264,2818.9-4265.4,2819z"/>
	<path class="st16" d="M-4256.7,2807c-1.6-0.4-0.5,6.4,0.7,5.9C-4254.5,2811.8-4254.1,2808.5-4256.7,2807z"/>
	<path class="st16" d="M-4265.5,2787.4c-11,0-19.8,8.9-19.8,19.8c0,11,8.9,19.8,19.8,19.8c11,0,19.8-8.9,19.8-19.8
		C-4245.7,2796.2-4254.6,2787.4-4265.5,2787.4z M-4254.8,2813.5c-0.2,0.8-0.4,1.4-0.6,2.1c-0.3,2.7-2.6,4-3.2,4.1
		c-0.9,0.7-1.8,1.3-3.1,1.7c-1.2,1.2-2.5,1.7-3.8,1.7c0,0,0,0-0.1,0c-1.3,0-2.6-0.5-3.8-1.7c-1.3-0.4-2.2-1.1-3.1-1.7
		c-0.6-0.1-2.9-1.4-3.2-4.1c-0.2-0.7-0.5-1.3-0.6-2.1c-2.4-2.7-0.9-6,0.8-7l0.2-0.4c0-2.8,1.3-3.9,2.7-4.8c-0.4-0.1-0.9-0.2-1-0.8
		c-0.8-0.2-0.9-0.6-1-0.9c-0.2-0.1-0.9-0.5-0.8-1.2c-0.4-0.3-0.6-0.6-0.5-1.1c-0.4-0.4-0.5-0.8-0.3-1.2c-0.5-0.6-0.3-0.9-0.1-1.2
		c-0.4-0.7,0-1.4,1-1.3c0.4-0.6,1.3-0.5,1.4-0.5c0.2-0.2,0.4-0.4,1-0.3c0.4-0.4,0.8-0.3,1.3-0.1c0.2-0.1,0.4-0.2,0.5-0.2
		c0.3,0,0.5,0.2,0.8,0.3c0.7-0.2,0.8,0.1,1.1,0.2c0.7-0.2,0.9,0.2,1.3,0.5h0.4c1.1,0.6,1.6,2,1.8,2.6c0.2-0.7,0.7-2,1.8-2.6h0.4
		c0.3-0.4,0.6-0.7,1.3-0.5c0.3-0.1,0.5-0.4,1.1-0.2c0.4-0.1,0.8-0.5,1.3,0c0.5-0.2,0.9-0.2,1.3,0.1c0.6-0.1,0.8,0.1,1,0.3
		c0.1,0,1-0.1,1.4,0.5c1-0.1,1.3,0.6,1,1.3c0.2,0.3,0.4,0.6-0.1,1.2c0.2,0.3,0.1,0.7-0.3,1.2c0.1,0.5-0.1,0.8-0.5,1.1
		c0.1,0.7-0.6,1-0.8,1.2c-0.1,0.4-0.2,0.7-1,0.9c-0.1,0.6-0.6,0.7-1,0.8c1.5,0.9,2.7,2,2.7,4.8l0.2,0.4
		C-4253.9,2807.5-4252.4,2810.8-4254.8,2813.5z"/>
	<path class="st16" d="M-4266.8,2810.4c1.1-1.7,0.9-3.8-0.6-4.8c-1.4-0.9-3.5-0.3-4.6,1.4c-1.1,1.7-0.9,3.8,0.6,4.8
		C-4270,2812.7-4268,2812.1-4266.8,2810.4z"/>
	<path class="st16" d="M-4260.4,2814.6c-1.1,1.3-1.7,3.6-0.9,4.3c0.7,0.6,2.8,0.5,4.2-1.6c1.1-1.4,0.7-3.7,0.1-4.3
		C-4257.9,2812.3-4259.2,2813.2-4260.4,2814.6z"/>
	<ellipse class="st16" cx="-4265.4" cy="2814.7" rx="3.5" ry="3.2"/>
	<path class="st16" d="M-4259.5,2811.6c1.4-0.9,1.7-3.1,0.6-4.8s-3.2-2.3-4.6-1.4c-1.4,0.9-1.7,3.1-0.6,4.8
		C-4263,2811.9-4260.9,2812.5-4259.5,2811.6z"/>
</g>
</svg>
