<?xml version="1.0" encoding="utf-8"?>
<!-- Generator: Adobe Illustrator 19.0.0, SVG Export Plug-In . SVG Version: 6.00 Build 0)  -->
<svg version="1.1" id="Ebene_1" xmlns="http://www.w3.org/2000/svg" xmlns:xlink="http://www.w3.org/1999/xlink" x="0px" y="0px"
	 viewBox="-2741 1377 234 648.8" style="enable-background:new -2741 1377 234 648.8;" xml:space="preserve">
<style type="text/css">
@font-face {
      	font-family: Corporate-Logo-Rounded;
      	src: url('/static/fonts/slider.ttf');
    }
	.st0{fill:#00B3E3;}
	.st1{font-family:'UniSansSemiBold';}
	.st2{font-size:42px;}
	.st3{fill:#FFFFFF;stroke:#010202;stroke-width:2;stroke-miterlimit:10;}
	.st4{fill:none;stroke:#010202;stroke-width:3;stroke-miterlimit:10;}
	.st5{fill:#ECECEC;}
	.st6{fill:url(#SVGID_1_);}
	.st7{display:none;}
	.st8{display:inline;fill:#EBC721;}
	.st9{display:inline;fill:#E74317;}
	.st10{fill:#EBC720;}
	.st11{fill:#A82A00;}
	.st12{fill:#E63A00;}
	.st13{fill:#F24208;}
	.st14{fill:none;stroke:#A82A00;stroke-width:2;stroke-miterlimit:10;}
	.st15{fill:#A7A7A7;}
</style>
<g id="XMLID_15_">
	<polygon id="XMLID_16_" points="-2657.2,1877.9 -2627.1,1877.9 -2627.1,1883 -2657.2,1883 	"/>
</g>
<g id="XMLID_14_">
	
		<rect id="SliderGlider" x="-2855.2" y="1725" transform="matrix(1.524674e-004 -1 1 1.524674e-004 -4351.9844 -892.6413)" width="465.7" height="10.1"/>
</g>
<g id="XMLID_12_">
	
		<rect id="XMLID_13_" x="-2899.7" y="1709.5" transform="matrix(1.278305e-004 -1 1 1.278305e-004 -4336.2446 -907.6383)" width="555.5" height="10.1"/>
</g>
<g id="XMLID_3_">
	<polygon id="barActualSpeed" class="st0" points="-2627.1,1994.1 -2627,1883 -2616.9,1883 -2617,1994.1 	"/>
</g>
<g id="XMLID_5_">
	<g id="XMLID_9_">
		<path d="M-2616,1995.1h-12.1v-1l0.1-557.4h12.1v1L-2616,1995.1z M-2626.1,1993.1h8.1l0.1-554.4h-8.1L-2626.1,1993.1z"/>
	</g>
</g>
<g id="XMLID_17_">
	<rect id="XMLID_18_" x="-2657.2" y="1990.2" width="70.3" height="5.1"/>
</g>
<g id="XMLID_1_">
	<polygon id="XMLID_2_" points="-2657.2,1436.7 -2615.9,1436.8 -2615.9,1441.9 -2657.2,1441.8 	"/>
</g>
<g id="Slider">
	<text id="SliderSpeed" transform="matrix(1 0 0 1 -2694.4629 1895.8384)" class="st1 st2">0</text>
	<g id="SliderButton">
		<path id="XMLID_6_" class="st3" d="M-2614.8,1943.8h-13.6c-15.6,0-28.3-12.8-28.3-28.3v-62.4c0-15.6,12.8-28.3,28.3-28.3h13.6
			c15.6,0,28.3,12.8,28.3,28.3v62.4C-2586.4,1931-2599.2,1943.8-2614.8,1943.8z"/>
		<line id="XMLID_8_" class="st4" x1="-2647.7" y1="1884.1" x2="-2596.9" y2="1884.1"/>
		<path id="XMLID_7_" class="st4" d="M-2647.7,1863.6c0,0,7.1,3,26.2,3s24.6-3,24.6-3"/>
		<path id="XMLID_11_" class="st4" d="M-2596.1,1904.6c0,0-7.1-3-26.2-3c-19.1,0-24.6,3-24.6,3"/>
	</g>
</g>
<rect x="-2741" y="1862.1" class="st5" width="80" height="163.6"/>
<linearGradient id="SVGID_1_" gradientUnits="userSpaceOnUse" x1="-2701" y1="689.86" x2="-2701" y2="797.0601" gradientTransform="matrix(1 0 0 -1 0 2551.9402)">
	<stop  offset="0" style="stop-color:#ECECEC"/>
	<stop  offset="1" style="stop-color:#FFFFFF;stop-opacity:0"/>
</linearGradient>
<rect x="-2741" y="1754.9" class="st6" width="80" height="107.2"/>
<g id="XMLID_27_" class="st7">
	<circle id="XMLID_31_" class="st8" cx="-2541.9" cy="1991.1" r="32.1"/>
	<path id="XMLID_28_" class="st9" d="M-2541.9,2025.7c-19,0-34.5-15.5-34.5-34.5s15.5-34.5,34.5-34.5s34.5,15.5,34.5,34.5
		S-2522.8,2025.7-2541.9,2025.7z M-2541.9,1961.4c-16.4,0-29.8,13.3-29.8,29.8c0,16.4,13.3,29.8,29.8,29.8s29.8-13.3,29.8-29.8
		C-2512.1,1974.7-2525.5,1961.4-2541.9,1961.4z"/>
</g>
<g id="XMLID_23_" class="st7">
	<path id="XMLID_24_" class="st9" d="M-2545.9,2012.3c0-2.6,1.8-4.5,4.3-4.5c2.6,0,4.3,1.9,4.3,4.5s-1.7,4.5-4.3,4.5
		C-2544.1,2016.8-2545.9,2014.9-2545.9,2012.3z M-2544.1,2001.9l-1-35h7l-1,35H-2544.1z"/>
</g>
<g>
	<g>
		<path class="st0" d="M-2623.6,1416.5c-1.3,0-2.5-0.4-3.6-1.2c-1.1-0.8-1.8-1.8-2.2-3.1l-9.2-30.9c-0.1-0.3-0.2-0.7-0.2-1
			c0-0.7,0.2-1.3,0.7-2c0.7-0.9,1.6-1.3,2.7-1.3h1c1.3,0,2.5,0.4,3.5,1.2c1,0.8,1.7,1.9,2.1,3.2l3.4,13.6c0.4,1.5,0.9,3.6,1.5,6.3
			c0.6,2.8,1.1,4.8,1.5,6.2c0,0.1,0.1,0.1,0.2,0.1c0.1,0,0.1,0,0.2-0.1c0.3-1.4,0.8-3.5,1.5-6.2c0.6-2.8,1.1-4.9,1.5-6.3l3.4-13.6
			c0.3-1.3,1-2.4,2-3.2c1-0.8,2.2-1.2,3.5-1.2h0.7c1.1,0,2,0.4,2.7,1.3c0.4,0.6,0.7,1.3,0.7,2c0,0.3-0.1,0.6-0.2,1l-9.3,30.9
			c-0.4,1.3-1.2,2.3-2.2,3.1c-1.1,0.8-2.3,1.2-3.6,1.2H-2623.6z"/>
		<path class="st0" d="M-2605.8,1434.2c-0.7,0-1.3-0.3-1.9-0.8c-0.5-0.5-0.8-1.1-0.8-1.9v-12.7c0-0.6,0.2-1.2,0.7-1.6
			c0.4-0.4,1-0.7,1.6-0.7h0.2c0.6,0,1.1,0.2,1.5,0.6s0.7,0.9,0.8,1.4v0.2c0,0,0,0.1,0.1,0.1h0.1c0.8-0.8,1.7-1.5,2.5-2
			c0.8-0.5,1.8-0.7,2.8-0.7c2.2,0,3.8,0.9,4.7,2.6c0,0.1,0.1,0.1,0.2,0.1c0.1,0,0.1,0,0.2-0.1c0.8-0.8,1.7-1.5,2.5-2
			c0.8-0.5,1.8-0.7,2.8-0.7c1.9,0,3.2,0.6,4.1,1.9c0.9,1.3,1.4,3,1.4,5.3v8.3c0,0.7-0.3,1.3-0.8,1.9c-0.5,0.5-1.1,0.8-1.9,0.8h-0.2
			c-0.7,0-1.3-0.3-1.9-0.8c-0.5-0.5-0.8-1.1-0.8-1.9v-7.6c0-1.2-0.2-2-0.5-2.4c-0.3-0.5-0.8-0.7-1.6-0.7c-0.8,0-1.7,0.5-2.6,1.4
			c-0.1,0.1-0.2,0.3-0.2,0.5v8.8c0,0.7-0.3,1.3-0.8,1.9c-0.5,0.5-1.1,0.8-1.9,0.8h-0.3c-0.7,0-1.3-0.3-1.9-0.8
			c-0.5-0.5-0.8-1.1-0.8-1.9v-7.6c0-1.2-0.2-2-0.5-2.4c-0.3-0.5-0.8-0.7-1.6-0.7c-0.8,0-1.7,0.5-2.6,1.4c-0.1,0.1-0.2,0.3-0.2,0.5
			v8.8c0,0.7-0.3,1.3-0.8,1.9c-0.5,0.5-1.1,0.8-1.9,0.8L-2605.8,1434.2L-2605.8,1434.2z"/>
		<path class="st0" d="M-2576.1,1434.6c-1.6,0-2.8-0.5-3.8-1.5s-1.4-2.3-1.4-3.8c0-1.8,0.8-3.3,2.3-4.3s3.9-1.7,7.2-2.1
			c0.2,0,0.3-0.1,0.2-0.3c-0.2-1.3-1.1-2-2.6-2c-0.8,0-1.8,0.2-2.8,0.6c-0.3,0.1-0.6,0.2-0.9,0.2c-0.2,0-0.5,0-0.7-0.1
			c-0.5-0.2-0.9-0.5-1.2-1c-0.2-0.3-0.2-0.7-0.2-1c0-0.2,0-0.4,0.1-0.6c0.2-0.5,0.5-0.9,1-1.2c2-0.9,3.9-1.4,5.8-1.4
			c4.8,0,7.1,2.7,7.1,8v7.8c0,0.6-0.2,1.2-0.7,1.6c-0.4,0.4-1,0.6-1.6,0.6h-0.6c-0.5,0-0.9-0.1-1.3-0.4c-0.4-0.3-0.6-0.7-0.7-1.1
			v-0.1l-0.1-0.1h-0.1C-2572.7,1433.9-2574.4,1434.6-2576.1,1434.6z M-2574.2,1430.3c0.8,0,1.7-0.4,2.4-1.2c0.1-0.1,0.2-0.3,0.2-0.5
			v-2.2c0-0.1,0-0.2-0.1-0.2s-0.1-0.1-0.2-0.1l0,0c-2.8,0.4-4.3,1.3-4.3,2.7c0,0.5,0.2,0.9,0.5,1.1
			C-2575.4,1430.1-2574.8,1430.3-2574.2,1430.3z"/>
		<path class="st0" d="M-2564,1434.2c-0.6,0-1-0.3-1.3-0.8c-0.1-0.2-0.2-0.5-0.2-0.8c0-0.2,0.1-0.5,0.2-0.8l3.9-6.6
			c0.1-0.2,0.1-0.4,0-0.5l-3.6-5.9c-0.1-0.3-0.2-0.5-0.2-0.8c0-0.2,0.1-0.5,0.2-0.8c0.3-0.5,0.7-0.8,1.3-0.8h0.6
			c0.8,0,1.6,0.2,2.3,0.6c0.7,0.4,1.2,1,1.6,1.7l0.2,0.4c0.5,1,0.9,1.9,1.4,2.9c0,0.1,0.1,0.1,0.1,0.1c0.1,0,0.1,0,0.1-0.1
			c0.1-0.4,0.3-0.9,0.6-1.6c0.3-0.7,0.4-1.1,0.5-1.3l0.1-0.3c0.3-0.7,0.8-1.3,1.4-1.8c0.7-0.5,1.4-0.7,2.2-0.7h0.5
			c0.6,0,1,0.3,1.3,0.8c0.1,0.2,0.2,0.5,0.2,0.8c0,0.3-0.1,0.5-0.2,0.8l-3.6,6.5c-0.1,0.2-0.1,0.3,0,0.5l3.8,6
			c0.2,0.3,0.2,0.5,0.2,0.8c0,0.2-0.1,0.5-0.2,0.7c-0.3,0.5-0.7,0.8-1.3,0.8h-0.7c-0.8,0-1.6-0.2-2.3-0.6c-0.7-0.4-1.3-1-1.7-1.7
			l-0.3-0.5c-0.8-1.5-1.3-2.5-1.6-3l-0.1-0.1c-0.1,0-0.1,0-0.1,0.1c-0.4,0.8-0.8,1.8-1.3,3l-0.2,0.3c-0.3,0.7-0.8,1.3-1.5,1.8
			c-0.7,0.4-1.4,0.6-2.2,0.6h-0.1V1434.2z"/>
	</g>
</g>
<path class="st10" d="M-2561.1,1956.7h39.1c8.2,0,15,6.7,15,15v39.1c0,8.2-6.7,15-15,15h-39.1c-8.2,0-15-6.7-15-15v-39.1
	C-2576,1963.4-2569.3,1956.7-2561.1,1956.7z"/>
<path d="M-2561.1,1961.2h2.8l-13.2,13.2v-2.8C-2571.5,1965.9-2566.8,1961.2-2561.1,1961.2L-2561.1,1961.2z M-2551.5,1961.2l-20,20
	v7.7l27.7-27.7H-2551.5L-2551.5,1961.2z M-2537,1961.2l-34.5,34.4v7.7l42.2-42.1H-2537L-2537,1961.2z M-2522.5,1961.2l-49,48.9v0.6
	c0,2,0.6,3.9,1.6,5.5l53.5-53.4c-1.6-1-3.5-1.6-5.5-1.6H-2522.5L-2522.5,1961.2z M-2513.1,1966.2l-53.5,53.4c1.6,1,3.5,1.6,5.5,1.6
	h0.6l48.9-48.9v-0.7C-2511.5,1969.7-2512.1,1967.8-2513.1,1966.2L-2513.1,1966.2z M-2511.5,1979.1v7.7l-34.5,34.4h-7.7
	L-2511.5,1979.1L-2511.5,1979.1z M-2511.5,1993.6v7.7l-20,20h-7.7L-2511.5,1993.6L-2511.5,1993.6z M-2511.5,2008v2.7
	c0,5.7-4.7,10.4-10.4,10.4h-2.8L-2511.5,2008z"/>
<g id="EmergencyButton">
	<circle class="st11" cx="-2540.5" cy="1992.9" r="29.3"/>
	<circle class="st12" cx="-2540.5" cy="1992.9" r="27.6"/>
	<circle class="st13" cx="-2540.7" cy="1992.9" r="18.7"/>
</g>
<g>
	<g>
		<g>
			<polygon class="st11" points="-2522.9,1984.4 -2519,1985.4 -2515.6,1983.3 -2518,1992.5 			"/>
		</g>
	</g>
	<path class="st14" d="M-2535.2,1970.6c7.5,1.9,13.9,7.4,16.4,15.3"/>
</g>
<g>
	<path class="st14" d="M-2562.1,2000.6"/>
	<path class="st14" d="M-2533.2,2015.5"/>
</g>
<g>
	<g>
		<g>
			<polygon class="st11" points="-2558.7,2000.5 -2562.6,1999.5 -2566,2001.6 -2563.7,1992.4 			"/>
		</g>
	</g>
	<path class="st14" d="M-2546.5,2014.3c-7.5-1.9-13.9-7.4-16.4-15.3"/>
</g>
<g>
	<path d="M-2727.4,1456.1v-22.4l-3.1,3.3l-3.6-2.9l7.3-7.7h4v29.7H-2727.4z"/>
	<path d="M-2718.1,1447.7v-12.8c0-1.5,0.3-2.9,1-4c0.6-1.1,1.5-2,2.5-2.8c1-0.7,2.2-1.3,3.5-1.6c1.3-0.4,2.6-0.5,3.8-0.5
		c1.3,0,2.5,0.2,3.8,0.5c1.3,0.4,2.4,0.9,3.4,1.6c1,0.7,1.9,1.7,2.5,2.8c0.6,1.1,1,2.5,1,4v12.8c0,1.5-0.3,2.8-1,3.9
		c-0.6,1.1-1.5,2-2.5,2.8c-1,0.7-2.2,1.3-3.4,1.6c-1.3,0.3-2.5,0.5-3.8,0.5s-2.5-0.2-3.8-0.5c-1.3-0.3-2.4-0.9-3.5-1.6
		c-1-0.7-1.9-1.7-2.5-2.8C-2717.7,1450.5-2718.1,1449.2-2718.1,1447.7z M-2713.3,1447.9c0,0.8,0.2,1.4,0.6,2c0.4,0.5,0.9,1,1.4,1.3
		c0.6,0.3,1.2,0.6,2,0.7c0.7,0.1,1.4,0.2,2.1,0.2s1.4-0.1,2.1-0.2c0.7-0.1,1.4-0.4,2-0.7c0.6-0.3,1.1-0.8,1.4-1.3
		c0.4-0.5,0.5-1.2,0.5-2v-12.8c0-0.8-0.2-1.4-0.5-2c-0.4-0.5-0.8-1-1.4-1.3c-0.6-0.3-1.2-0.6-2-0.7c-0.7-0.1-1.4-0.2-2.1-0.2
		s-1.4,0.1-2.1,0.2s-1.4,0.4-2,0.7c-0.6,0.3-1.1,0.8-1.4,1.3s-0.6,1.2-0.6,2V1447.9z"/>
	<path d="M-2692.4,1447.7v-12.8c0-1.5,0.3-2.9,1-4c0.6-1.1,1.5-2,2.5-2.8c1-0.7,2.2-1.3,3.5-1.6c1.3-0.4,2.6-0.5,3.8-0.5
		c1.3,0,2.5,0.2,3.8,0.5c1.3,0.4,2.4,0.9,3.4,1.6c1,0.7,1.9,1.7,2.5,2.8c0.6,1.1,1,2.5,1,4v12.8c0,1.5-0.3,2.8-1,3.9
		c-0.6,1.1-1.5,2-2.5,2.8c-1,0.7-2.2,1.3-3.4,1.6c-1.3,0.3-2.5,0.5-3.8,0.5c-1.3,0-2.5-0.2-3.8-0.5c-1.3-0.3-2.4-0.9-3.5-1.6
		c-1-0.7-1.9-1.7-2.5-2.8C-2692.1,1450.5-2692.4,1449.2-2692.4,1447.7z M-2687.7,1447.9c0,0.8,0.2,1.4,0.6,2c0.4,0.5,0.9,1,1.4,1.3
		c0.6,0.3,1.2,0.6,2,0.7c0.7,0.1,1.4,0.2,2.1,0.2s1.4-0.1,2.1-0.2s1.4-0.4,2-0.7c0.6-0.3,1.1-0.8,1.4-1.3c0.4-0.5,0.5-1.2,0.5-2
		v-12.8c0-0.8-0.2-1.4-0.5-2c-0.4-0.5-0.8-1-1.4-1.3c-0.6-0.3-1.2-0.6-2-0.7c-0.7-0.1-1.4-0.2-2.1-0.2s-1.4,0.1-2.1,0.2
		s-1.4,0.4-2,0.7c-0.6,0.3-1.1,0.8-1.4,1.3s-0.6,1.2-0.6,2V1447.9z"/>
</g>
<g>
	<path d="M-2692.4,1886.9v-12.8c0-1.5,0.3-2.9,1-4c0.6-1.1,1.5-2,2.5-2.8c1-0.7,2.2-1.3,3.5-1.6c1.3-0.4,2.6-0.5,3.8-0.5
		c1.3,0,2.5,0.2,3.8,0.5c1.3,0.3,2.4,0.9,3.4,1.6s1.9,1.7,2.5,2.8c0.6,1.1,1,2.5,1,4v12.8c0,1.5-0.3,2.8-1,3.9
		c-0.6,1.1-1.5,2-2.5,2.8c-1,0.7-2.2,1.3-3.4,1.6c-1.3,0.3-2.5,0.5-3.8,0.5c-1.3,0-2.5-0.2-3.8-0.5c-1.3-0.3-2.4-0.9-3.5-1.6
		c-1-0.7-1.9-1.7-2.5-2.8C-2692.1,1889.7-2692.4,1888.4-2692.4,1886.9z M-2687.7,1887.1c0,0.8,0.2,1.4,0.6,2s0.9,1,1.4,1.3
		c0.5,0.3,1.2,0.6,2,0.7c0.7,0.1,1.4,0.2,2.1,0.2s1.4-0.1,2.1-0.2c0.7-0.1,1.4-0.4,2-0.7c0.6-0.3,1.1-0.8,1.4-1.3
		c0.4-0.5,0.5-1.2,0.5-2v-12.8c0-0.8-0.2-1.4-0.5-2c-0.4-0.5-0.8-1-1.4-1.3c-0.6-0.3-1.2-0.6-2-0.7c-0.7-0.1-1.4-0.2-2.1-0.2
		s-1.4,0.1-2.1,0.2c-0.7,0.1-1.4,0.4-2,0.7c-0.6,0.3-1.1,0.8-1.4,1.3s-0.6,1.2-0.6,2V1887.1z"/>
</g>
<g>
	<path d="M-2725.8,1977.6c1.4,0,2.8,0.2,4.1,0.6s2.6,0.9,3.6,1.7s1.9,1.7,2.6,2.8c0.6,1.1,1,2.4,1,3.9v10.6c0,1.5-0.3,2.8-1,3.9
		c-0.6,1.1-1.5,2.1-2.6,2.8c-1.1,0.7-2.3,1.3-3.6,1.7c-1.3,0.4-2.7,0.6-4.1,0.6c-1.4,0-2.8-0.2-4.1-0.6c-1.3-0.4-2.5-0.9-3.6-1.7
		c-1-0.7-1.9-1.7-2.5-2.8c-0.6-1.1-1-2.5-1-3.9v-10.6c0-1.5,0.3-2.8,1-3.9c0.6-1.1,1.5-2.1,2.5-2.8c1-0.7,2.2-1.3,3.6-1.7
		C-2728.6,1977.8-2727.2,1977.6-2725.8,1977.6z M-2732.5,1997.1c0,0.8,0.2,1.4,0.6,2c0.4,0.6,0.9,1,1.5,1.4c0.6,0.4,1.3,0.6,2.2,0.8
		c0.8,0.2,1.6,0.3,2.5,0.3c0.9,0,1.7-0.1,2.5-0.3c0.8-0.2,1.5-0.5,2.2-0.8c0.6-0.4,1.1-0.8,1.5-1.4s0.6-1.2,0.6-2v-10.4
		c0-0.8-0.2-1.5-0.6-2c-0.4-0.6-0.9-1-1.5-1.4s-1.3-0.6-2.2-0.8c-0.8-0.2-1.6-0.3-2.5-0.3c-0.8,0-1.7,0.1-2.5,0.3
		c-0.8,0.2-1.5,0.5-2.2,0.8c-0.6,0.4-1.1,0.8-1.5,1.4c-0.4,0.6-0.6,1.2-0.6,2V1997.1z"/>
	<path d="M-2705.5,1990.4h12.1v4.6h-12.1v10.9h-4.6v-27.8h18.3v4.6h-13.7V1990.4z"/>
	<path d="M-2683.4,1990.4h12v4.6h-12v10.9h-4.6v-27.8h18.3v4.6h-13.7V1990.4z"/>
</g>
<g id="Arduino">
	<path class="st15" d="M-2547.8,1900c-0.4-0.1-0.9-0.1-1.4-0.2h-0.1h-0.2c-0.1,0-0.2,0-0.3,0c-1.5,0-3,0.9-4.1,2.3
		c-1.1,1.5-1.4,3.4-0.7,4.9v0.1c0.7,1.7,2.3,2.9,4.3,3.2c2,0.4,4-0.2,5.2-1.5l0,0l0,0c1.1-1.1,1.9-2.4,2.8-3.8
		C-2543.5,1902.7-2545.3,1900.6-2547.8,1900z M-2546.3,1905.5h-5.7v-1.2h5.7V1905.5z"/>
	<path class="st15" d="M-2529.5,1900.3c-1.9-0.8-4-0.7-5.4,0.3l0,0c-1.6,1-2.8,2.6-3.9,4.3c0.8,1.6,2.6,4.6,5.8,5.3l0,0l0,0
		c1.6,0.5,3.4,0,4.8-1.3c1.5-1.3,2.2-3.1,1.9-4.8C-2526.4,1902.6-2527.7,1901.1-2529.5,1900.3z M-2529.7,1905.7h-1.7v1.6h-1.5v-1.6
		h-1.6v-1.5h1.6v-1.6h1.5v1.6h1.7V1905.7z"/>
	<path class="st15" d="M-2540.5,1885.3c-11,0-19.8,8.9-19.8,19.8c0,11,8.9,19.8,19.8,19.8c11,0,19.8-8.9,19.8-19.8
		S-2529.6,1885.3-2540.5,1885.3z M-2526.3,1911.2c-1.6,1.4-3.5,2.2-5.4,2.2c-0.7,0-1.4-0.1-2-0.3c-1.8-0.4-3.4-1.3-4.8-2.8
		c-0.7-0.7-1.4-1.6-2-2.5c-0.7,1-1.4,2.1-2.4,3c-0.9,1-2.2,1.8-3.6,2.2c-1.3,0.4-2.7,0.4-4.1,0.2c-1.4-0.2-2.7-0.8-3.8-1.6
		c-1.2-0.9-2.1-2-2.6-3.3c-0.5-1.2-0.7-2.6-0.5-4c0.2-1.3,0.7-2.5,1.5-3.6c0.8-1.1,1.8-2,2.9-2.6c1.2-0.6,2.5-0.9,3.8-0.9h0.1l0,0
		c0.8,0,1.5,0.1,2.1,0.2c1.8,0.4,3.4,1.4,4.9,2.9c0.7,0.7,1.3,1.4,1.8,2.2c1-1.5,2.3-3,4-4c1.2-0.8,2.5-1.2,4-1.3
		c1.4-0.1,2.8,0.2,4.1,0.8c2.7,1.2,4.6,3.4,5,6.1c0.2,1.3,0,2.8-0.5,4.1C-2524.4,1909.2-2525.2,1910.3-2526.3,1911.2z"/>
</g>
<title>wiki:Behnam N</title>
<g id="Raspberry">
	<path class="st15" d="M-2544.4,1850.5c-2.7-0.5-4.9,1.1-4.8,4C-2549.1,1855.6-2543.4,1850.6-2544.4,1850.5z"/>
	<path class="st15" d="M-2546.5,1849.7c0.9,0.1,3.4,0,3.8-1.9c-0.9-1-2.6-2.2-5.5-3.7c2.3,0.8,4.3,1.8,6,3.2c2-0.9,0.6-3.3-0.4-4.3
		c0,0.3-0.1,0.4-0.2,0.5c-0.3-0.3-0.6-0.7-1-1c0,0.2,0.1,0.4-0.1,0.6c-0.2-0.3-0.5-0.6-0.9-0.8c0.2,0.3,0,0.4-0.1,0.6
		c-0.3-0.3-0.6-0.5-1.1-0.7c0.2,0.2,0.4,0.4,0.1,0.6c-0.3-0.2-0.6-0.4-1.4-0.5c0.2,0.2,0.5,0.4,0.3,0.6c-0.4-0.2-0.8-0.3-1.3-0.3
		c0.2,0.2,0.4,0.4,0.2,0.5c-0.4-0.1-1-0.3-1.6-0.2l0.4,0.4c0,0-0.8,0-1.4,0c0.2,0.3,0.4,0.6,0.5,1.1c-0.1,0.1-0.3,0-0.6,0
		c0.3,0.6,0.8,0.7,0.9,1c-0.2,0.1-0.4,0.1-0.7,0c0.2,0.4,0.6,0.7,0.9,1c-0.1,0.1-0.2,0.1-0.6,0.1c0.3,0.3,0.7,0.6,1.1,0.9
		c-0.1,0.1-0.3,0.1-0.6,0.1c0.4,0.4,0.9,0.6,1.4,0.8c-0.2,0.2-0.4,0.1-0.6,0.1c0.3,0.3,0.9,0.4,1.4,0.6c-0.1,0.2-0.2,0.2-0.4,0.2
		c0.6,0.3,1.4,0.2,1.6,0.3C-2546.1,1849.5-2546.3,1849.6-2546.5,1849.7z"/>
	<path class="st15" d="M-2549.6,1855.7c-2.6,1.5-2.1,4.7-0.7,5.9C-2549.1,1862.2-2548.1,1855.3-2549.6,1855.7z"/>
	<path class="st15" d="M-2549.1,1862c-0.6,0.5-0.8,2.1,0.2,3.8c1.4,1.9,3.3,2.1,4,1.7c0.8-0.6,0.4-2.7-0.6-3.9
		C-2546.7,1862.2-2548.2,1861.4-2549.1,1862z"/>
	<path class="st15" d="M-2536.9,1850.5c-1,0.2,4.7,5.2,4.8,4C-2532,1851.7-2534.3,1850.1-2536.9,1850.5z"/>
	<path class="st15" d="M-2543.6,1851.7c0,0.9,1.3,1.8,3.2,1.8c1.9,0,3.2-0.7,3.2-1.6c0-1-1.8-2.1-3.2-2.1
		C-2542.1,1849.7-2543.6,1851-2543.6,1851.7z"/>
	<path class="st15" d="M-2538.8,1847.2c1.7-1.4,3.7-2.4,6-3.2c-2.9,1.5-4.6,2.7-5.5,3.7c0.5,1.9,2.9,2,3.8,1.9
		c-0.2-0.1-0.3-0.2-0.4-0.3c0.2-0.2,1,0,1.6-0.3c-0.2,0-0.3-0.1-0.4-0.2c0.5-0.2,1.1-0.3,1.4-0.6c-0.2,0-0.4,0-0.6-0.1
		c0.5-0.3,1-0.5,1.4-0.8c-0.2,0-0.5,0-0.6-0.1c0.4-0.3,0.8-0.6,1.1-0.9c-0.3,0-0.5,0-0.6-0.1c0.3-0.3,0.7-0.6,0.9-1
		c-0.3,0.1-0.5,0.1-0.7,0c0.1-0.3,0.6-0.4,0.9-1c-0.3,0-0.6,0.1-0.6,0c0.1-0.5,0.3-0.8,0.5-1.1c-0.6,0-1.4,0-1.4,0l0.4-0.4
		c-0.6-0.2-1.1,0-1.6,0.2c-0.2-0.1,0-0.3,0.2-0.5c-0.5,0.1-0.9,0.2-1.3,0.3c-0.2-0.2,0.1-0.4,0.3-0.6c-0.7,0.1-1,0.3-1.4,0.5
		c-0.2-0.2,0-0.4,0.1-0.6c-0.6,0.2-0.8,0.5-1.1,0.7c-0.1-0.1-0.3-0.2-0.1-0.6c-0.4,0.2-0.7,0.5-0.9,0.8c-0.2-0.2-0.1-0.4-0.1-0.6
		c-0.4,0.3-0.7,0.7-1,1c-0.1,0-0.1-0.2-0.2-0.5C-2539.4,1843.9-2540.8,1846.3-2538.8,1847.2z"/>
	<path class="st15" d="M-2540.4,1867.6c-1.4,0-3.5,0.6-3.5,1.3c0,0.5,1.7,2,3.4,1.9c1.7,0,3.4-1.5,3.4-2.1
		C-2537.1,1868-2539,1867.5-2540.4,1867.6z"/>
	<path class="st15" d="M-2531.7,1855.6c-1.6-0.4-0.5,6.4,0.7,5.9C-2529.5,1860.4-2529.1,1857.1-2531.7,1855.6z"/>
	<path class="st15" d="M-2540.5,1836c-11,0-19.8,8.9-19.8,19.8c0,11,8.9,19.8,19.8,19.8c11,0,19.8-8.9,19.8-19.8
		C-2520.7,1844.8-2529.6,1836-2540.5,1836z M-2529.8,1862.1c-0.2,0.8-0.4,1.4-0.6,2.1c-0.3,2.7-2.6,4-3.2,4.1
		c-0.9,0.7-1.8,1.3-3.1,1.7c-1.2,1.2-2.5,1.7-3.8,1.7c0,0,0,0-0.1,0c-1.3,0-2.6-0.5-3.8-1.7c-1.3-0.4-2.2-1.1-3.1-1.7
		c-0.6-0.1-2.9-1.4-3.2-4.1c-0.2-0.7-0.5-1.3-0.6-2.1c-2.4-2.7-0.9-6,0.8-7l0.2-0.4c0-2.8,1.3-3.9,2.7-4.8c-0.4-0.1-0.9-0.2-1-0.8
		c-0.8-0.2-0.9-0.6-1-0.9c-0.2-0.1-0.9-0.5-0.8-1.2c-0.4-0.3-0.6-0.6-0.5-1.1c-0.4-0.4-0.5-0.8-0.3-1.2c-0.5-0.6-0.3-0.9-0.1-1.2
		c-0.4-0.7,0-1.4,1-1.3c0.4-0.6,1.3-0.5,1.4-0.5c0.2-0.2,0.4-0.4,1-0.3c0.4-0.4,0.8-0.3,1.3-0.1c0.2-0.1,0.4-0.2,0.5-0.2
		c0.3,0,0.5,0.2,0.8,0.3c0.7-0.2,0.8,0.1,1.1,0.2c0.7-0.2,0.9,0.2,1.3,0.5h0.4c1.1,0.6,1.6,2,1.8,2.6c0.2-0.7,0.7-2,1.8-2.6h0.4
		c0.3-0.4,0.6-0.7,1.3-0.5c0.3-0.1,0.5-0.4,1.1-0.2c0.4-0.1,0.8-0.5,1.3,0c0.5-0.2,0.9-0.2,1.3,0.1c0.6-0.1,0.8,0.1,1,0.3
		c0.1,0,1-0.1,1.4,0.5c1-0.1,1.3,0.6,1,1.3c0.2,0.3,0.4,0.6-0.1,1.2c0.2,0.3,0.1,0.7-0.3,1.2c0.1,0.5-0.1,0.8-0.5,1.1
		c0.1,0.7-0.6,1-0.8,1.2c-0.1,0.4-0.2,0.7-1,0.9c-0.1,0.6-0.6,0.7-1,0.8c1.5,0.9,2.7,2,2.7,4.8l0.2,0.4
		C-2528.9,1856.1-2527.4,1859.4-2529.8,1862.1z"/>
	<path class="st15" d="M-2541.8,1859c1.1-1.7,0.9-3.8-0.6-4.8c-1.4-0.9-3.5-0.3-4.6,1.4c-1.1,1.7-0.9,3.8,0.6,4.8
		C-2545,1861.3-2543,1860.7-2541.8,1859z"/>
	<path class="st15" d="M-2535.4,1863.2c-1.1,1.3-1.7,3.6-0.9,4.3c0.7,0.6,2.8,0.5,4.2-1.6c1.1-1.4,0.7-3.7,0.1-4.3
		C-2532.9,1860.9-2534.2,1861.8-2535.4,1863.2z"/>
	<ellipse class="st15" cx="-2540.4" cy="1863.3" rx="3.5" ry="3.2"/>
	<path class="st15" d="M-2534.5,1860.2c1.4-0.9,1.7-3.1,0.6-4.8c-1.1-1.7-3.2-2.3-4.6-1.4s-1.7,3.1-0.6,4.8
		C-2538,1860.5-2535.9,1861.1-2534.5,1860.2z"/>
</g>
</svg>
