<?xml version="1.0" encoding="utf-8"?>
<!-- Generator: Adobe Illustrator 19.0.0, SVG Export Plug-In . SVG Version: 6.00 Build 0)  -->
<svg version="1.1" id="Ebene_1" xmlns="http://www.w3.org/2000/svg" xmlns:xlink="http://www.w3.org/1999/xlink" x="0px" y="0px"
	 viewBox="-180 96.2 239.6 597.3" style="enable-background:new -180 96.2 239.6 597.3;" xml:space="preserve">
<style type="text/css">
@font-face {
      	font-family: UniSansSemiBold;
      	src: url('/static/fonts/slider.ttf');
    }

	.st0{fill:#3C3C3C;}
	.st1{fill:#4BAE3D;}
	.st2{fill:#F24208;}
	.st3{fill:#E4E4E4;}
	.st4{font-family:'UniSansSemiBold';}
	.st5{font-size:42px;}
	.st6{fill:none;stroke:#010202;stroke-width:3;stroke-miterlimit:10;}
	.st7{fill:#222222;}
	.st8{fill:url(#SVGID_1_);}
	.st9{fill:url(#SVGID_2_);}
	.st10{display:none;}
	.st11{display:inline;fill:#EBC721;}
	.st12{display:inline;fill:#E74317;}
	.st13{fill:#EBC720;}
	.st14{fill:#A82A00;}
	.st15{fill:#E63A00;}
	.st16{fill:none;stroke:#A82A00;stroke-width:2;stroke-miterlimit:10;}
</style>
<g id="XMLID_15_">
	<polygon id="XMLID_16_" class="st0" points="-96.2,538.9 -66.1,538.9 -66.1,544 -96.2,544 	"/>
</g>
<g id="XMLID_14_">
	
		<rect id="SliderGlider" x="-294.2" y="385.9" transform="matrix(1.524674e-004 -1 1 1.524674e-004 -452.249 329.5352)" class="st0" width="465.7" height="10.1"/>
</g>
<g id="XMLID_12_">
	
		<rect id="XMLID_13_" x="-298.6" y="384.4" transform="matrix(1.494304e-004 -1 1 1.494304e-004 -450.4863 328.4002)" class="st0" width="475.2" height="10.1"/>
</g>
<g id="XMLID_3_">
	<polygon id="barActualSpeed" class="st1" points="-66.1,627.7 -66,544 -55.9,544 -56,627.7 	"/>
</g>
<g id="XMLID_4_">
	<polygon id="barActualSpeed_1_" class="st2" points="-66.1,627.7 -66,544 -55.9,544 -56,627.7 	"/>
</g>
<g id="XMLID_5_">
	<g id="XMLID_9_">
		<path class="st0" d="M-55,628.8h-12.1v-0.9l0.1-477.2h12.1v0.9L-55,628.8z M-65.1,627.1h8.1l0.1-474.6H-65L-65.1,627.1z"/>
	</g>
</g>
<g id="XMLID_17_">
	<rect id="XMLID_18_" x="-96.2" y="625.2" class="st0" width="70.3" height="5.1"/>
</g>
<g id="XMLID_1_">
	<polygon id="XMLID_2_" class="st0" points="-96.2,150.7 -54.9,150.8 -54.9,155.9 -96.2,155.8 	"/>
</g>
<g id="Slider">
	<text id="SliderSpeed" transform="matrix(1 0 0 1 -107.7578 556.768)" class="st3 st4 st5" text-anchor="end">0</text>
	<g id="SliderButton">
		<path id="XMLID_6_" class="st3" d="M-53.8,604.8h-13.6c-15.6,0-28.3-12.8-28.3-28.3v-62.4c0-15.6,12.8-28.3,28.3-28.3h13.6
			c15.6,0,28.3,12.8,28.3,28.3v62.4C-25.4,592-38.2,604.8-53.8,604.8z"/>
		<line id="XMLID_8_" class="st6" x1="-86.7" y1="545.1" x2="-35.9" y2="545.1"/>
		<path id="XMLID_7_" class="st6" d="M-86.7,524.6c0,0,7.1,3,26.2,3s24.6-3,24.6-3"/>
		<path id="XMLID_11_" class="st6" d="M-35.1,565.6c0,0-7.1-3-26.2-3s-24.6,3-24.6,3"/>
	</g>
</g>
<rect x="-180" y="523.1" class="st7" width="80" height="163.6"/>
<linearGradient id="SVGID_1_" gradientUnits="userSpaceOnUse" x1="-140" y1="321.7406" x2="-140" y2="428.9405" gradientTransform="matrix(1 0 0 -1 0 844.8303)">
	<stop  offset="0" style="stop-color:#222222"/>
	<stop  offset="1" style="stop-color:#1D1D1B;stop-opacity:0"/>
</linearGradient>
<rect x="-180" y="415.9" class="st8" width="80" height="107.2"/>
<rect x="-180" y="96.2" class="st7" width="80" height="78.4"/>
<linearGradient id="SVGID_2_" gradientUnits="userSpaceOnUse" x1="-13138" y1="-2608.0808" x2="-13138" y2="-2497.0808" gradientTransform="matrix(-1 0 0 1 -13278 2782.6704)">
	<stop  offset="0" style="stop-color:#222222"/>
	<stop  offset="1" style="stop-color:#1D1D1B;stop-opacity:0"/>
</linearGradient>
<rect x="-180" y="174.6" class="st9" width="80" height="111"/>
<g id="XMLID_27_" class="st10">
	<circle id="XMLID_31_" class="st11" cx="-4446.9" cy="3039.6" r="32.1"/>
	<path id="XMLID_28_" class="st12" d="M-4446.9,3074.2c-19,0-34.5-15.5-34.5-34.5s15.5-34.5,34.5-34.5s34.5,15.5,34.5,34.5
		S-4427.8,3074.2-4446.9,3074.2z M-4446.9,3009.9c-16.4,0-29.8,13.3-29.8,29.8c0,16.4,13.3,29.8,29.8,29.8s29.8-13.3,29.8-29.8
		S-4430.5,3009.9-4446.9,3009.9z"/>
</g>
<g id="XMLID_23_" class="st10">
	<path id="XMLID_24_" class="st12" d="M-4450.9,3060.8c0-2.6,1.8-4.5,4.3-4.5c2.6,0,4.3,1.9,4.3,4.5s-1.7,4.5-4.3,4.5
		C-4449.1,3065.3-4450.9,3063.4-4450.9,3060.8z M-4449.1,3050.4l-1-35h7l-1,35H-4449.1z"/>
</g>
<path class="st13" d="M-2,617.7h39.1c8.2,0,15,6.7,15,15v39.1c0,8.2-6.7,15-15,15H-2c-8.2,0-15-6.7-15-15v-39.1
	C-16.9,624.4-10.2,617.7-2,617.7z"/>
<path d="M-2,622.2h2.8l-13.2,13.2v-2.8C-12.4,626.9-7.7,622.2-2,622.2L-2,622.2z M7.6,622.2l-20,20v7.7l27.7-27.7H7.6L7.6,622.2z
	 M22.1,622.2l-34.5,34.4v7.7l42.2-42.1L22.1,622.2L22.1,622.2z M36.6,622.2l-49,48.9v0.6c0,2,0.6,3.9,1.6,5.5l53.5-53.4
	c-1.6-1-3.5-1.6-5.5-1.6H36.6L36.6,622.2z M46,627.2l-53.5,53.4c1.6,1,3.5,1.6,5.5,1.6h0.6l48.9-48.9v-0.7
	C47.6,630.7,47,628.8,46,627.2L46,627.2z M47.6,640.1v7.7l-34.5,34.4H5.4L47.6,640.1L47.6,640.1z M47.6,654.6v7.7l-20,20h-7.7
	L47.6,654.6L47.6,654.6z M47.6,669v2.7c0,5.7-4.7,10.4-10.4,10.4h-2.8L47.6,669z"/>
<g id="EmergencyButton">
	<circle class="st14" cx="18.6" cy="653.9" r="29.3"/>
	<circle class="st15" cx="18.6" cy="653.9" r="27.6"/>
	<circle class="st2" cx="18.4" cy="653.9" r="18.7"/>
</g>
<g>
	<g>
		<g>
			<polygon class="st14" points="36.2,645.4 40.1,646.4 43.5,644.3 41.1,653.5 			"/>
		</g>
	</g>
	<path class="st16" d="M23.9,631.6c7.5,1.9,13.9,7.4,16.4,15.3"/>
</g>
<g>
	<path class="st16" d="M-3,661.6"/>
	<path class="st16" d="M25.9,676.5"/>
</g>
<g>
	<g>
		<g>
			<polygon class="st14" points="0.4,661.5 -3.5,660.5 -6.9,662.6 -4.6,653.4 			"/>
		</g>
	</g>
	<path class="st16" d="M12.6,675.3c-7.5-1.9-13.9-7.4-16.4-15.3"/>
</g>
<g>
	<path class="st3" d="M-166.4,170.1v-22.4l-3.1,3.3l-3.6-2.9l7.3-7.7h4v29.7L-166.4,170.1L-166.4,170.1z"/>
	<path class="st3" d="M-157.1,161.7v-12.8c0-1.5,0.3-2.9,1-4c0.6-1.1,1.5-2,2.5-2.8c1-0.7,2.2-1.3,3.5-1.6c1.3-0.4,2.6-0.5,3.8-0.5
		c1.3,0,2.5,0.2,3.8,0.5c1.3,0.4,2.4,0.9,3.4,1.6s1.9,1.7,2.5,2.8s1,2.5,1,4v12.8c0,1.5-0.3,2.8-1,3.9c-0.6,1.1-1.5,2-2.5,2.8
		c-1,0.7-2.2,1.3-3.4,1.6c-1.3,0.3-2.5,0.5-3.8,0.5s-2.5-0.2-3.8-0.5s-2.4-0.9-3.5-1.6c-1-0.7-1.9-1.7-2.5-2.8
		S-157.1,163.2-157.1,161.7z M-152.3,161.9c0,0.8,0.2,1.4,0.6,2c0.4,0.5,0.9,1,1.4,1.3c0.6,0.3,1.2,0.6,2,0.7
		c0.7,0.1,1.4,0.2,2.1,0.2s1.4-0.1,2.1-0.2c0.7-0.1,1.4-0.4,2-0.7s1.1-0.8,1.4-1.3c0.4-0.5,0.5-1.2,0.5-2v-12.8c0-0.8-0.2-1.4-0.5-2
		c-0.4-0.5-0.8-1-1.4-1.3s-1.2-0.6-2-0.7c-0.7-0.1-1.4-0.2-2.1-0.2s-1.4,0.1-2.1,0.2c-0.7,0.1-1.4,0.4-2,0.7s-1.1,0.8-1.4,1.3
		s-0.6,1.2-0.6,2V161.9z"/>
	<path class="st3" d="M-131.4,161.7v-12.8c0-1.5,0.3-2.9,1-4c0.6-1.1,1.5-2,2.5-2.8c1-0.7,2.2-1.3,3.5-1.6c1.3-0.4,2.6-0.5,3.8-0.5
		c1.3,0,2.5,0.2,3.8,0.5c1.3,0.4,2.4,0.9,3.4,1.6s1.9,1.7,2.5,2.8s1,2.5,1,4v12.8c0,1.5-0.3,2.8-1,3.9c-0.6,1.1-1.5,2-2.5,2.8
		c-1,0.7-2.2,1.3-3.4,1.6c-1.3,0.3-2.5,0.5-3.8,0.5s-2.5-0.2-3.8-0.5s-2.4-0.9-3.5-1.6c-1-0.7-1.9-1.7-2.5-2.8
		C-131.1,164.5-131.4,163.2-131.4,161.7z M-126.7,161.9c0,0.8,0.2,1.4,0.6,2c0.4,0.5,0.9,1,1.4,1.3c0.6,0.3,1.2,0.6,2,0.7
		c0.7,0.1,1.4,0.2,2.1,0.2s1.4-0.1,2.1-0.2c0.7-0.1,1.4-0.4,2-0.7s1.1-0.8,1.4-1.3c0.4-0.5,0.5-1.2,0.5-2v-12.8c0-0.8-0.2-1.4-0.5-2
		c-0.4-0.5-0.8-1-1.4-1.3s-1.2-0.6-2-0.7c-0.7-0.1-1.4-0.2-2.1-0.2s-1.4,0.1-2.1,0.2c-0.7,0.1-1.4,0.4-2,0.7s-1.1,0.8-1.4,1.3
		s-0.6,1.2-0.6,2V161.9z"/>
</g>
<g>
	<path class="st3" d="M-131.4,547.9v-12.8c0-1.5,0.3-2.9,1-4c0.6-1.1,1.5-2,2.5-2.8c1-0.7,2.2-1.3,3.5-1.6c1.3-0.4,2.6-0.5,3.8-0.5
		c1.3,0,2.5,0.2,3.8,0.5s2.4,0.9,3.4,1.6c1,0.7,1.9,1.7,2.5,2.8s1,2.5,1,4v12.8c0,1.5-0.3,2.8-1,3.9c-0.6,1.1-1.5,2-2.5,2.8
		c-1,0.7-2.2,1.3-3.4,1.6c-1.3,0.3-2.5,0.5-3.8,0.5s-2.5-0.2-3.8-0.5s-2.4-0.9-3.5-1.6c-1-0.7-1.9-1.7-2.5-2.8
		C-131.1,550.7-131.4,549.4-131.4,547.9z M-126.7,548.1c0,0.8,0.2,1.4,0.6,2s0.9,1,1.4,1.3s1.2,0.6,2,0.7c0.7,0.1,1.4,0.2,2.1,0.2
		s1.4-0.1,2.1-0.2c0.7-0.1,1.4-0.4,2-0.7s1.1-0.8,1.4-1.3c0.4-0.5,0.5-1.2,0.5-2v-12.8c0-0.8-0.2-1.4-0.5-2c-0.4-0.5-0.8-1-1.4-1.3
		s-1.2-0.6-2-0.7c-0.7-0.1-1.4-0.2-2.1-0.2s-1.4,0.1-2.1,0.2c-0.7,0.1-1.4,0.4-2,0.7s-1.1,0.8-1.4,1.3s-0.6,1.2-0.6,2V548.1z"/>
</g>
<g>
	<path class="st3" d="M-164.8,612.6c1.4,0,2.8,0.2,4.1,0.6c1.3,0.4,2.6,0.9,3.6,1.7s1.9,1.7,2.6,2.8c0.6,1.1,1,2.4,1,3.9v10.6
		c0,1.5-0.3,2.8-1,3.9c-0.6,1.1-1.5,2.1-2.6,2.8s-2.3,1.3-3.6,1.7c-1.3,0.4-2.7,0.6-4.1,0.6s-2.8-0.2-4.1-0.6
		c-1.3-0.4-2.5-0.9-3.6-1.7c-1-0.7-1.9-1.7-2.5-2.8s-1-2.5-1-3.9v-10.6c0-1.5,0.3-2.8,1-3.9c0.6-1.1,1.5-2.1,2.5-2.8
		s2.2-1.3,3.6-1.7C-167.6,612.8-166.2,612.6-164.8,612.6z M-171.5,632.1c0,0.8,0.2,1.4,0.6,2s0.9,1,1.5,1.4s1.3,0.6,2.2,0.8
		c0.8,0.2,1.6,0.3,2.5,0.3s1.7-0.1,2.5-0.3s1.5-0.5,2.2-0.8c0.6-0.4,1.1-0.8,1.5-1.4c0.4-0.6,0.6-1.2,0.6-2v-10.4
		c0-0.8-0.2-1.5-0.6-2c-0.4-0.6-0.9-1-1.5-1.4s-1.3-0.6-2.2-0.8c-0.8-0.2-1.6-0.3-2.5-0.3c-0.8,0-1.7,0.1-2.5,0.3s-1.5,0.5-2.2,0.8
		c-0.6,0.4-1.1,0.8-1.5,1.4s-0.6,1.2-0.6,2V632.1z"/>
	<path class="st3" d="M-144.5,625.4h12.1v4.6h-12.1v10.9h-4.6v-27.8h18.3v4.6h-13.7L-144.5,625.4L-144.5,625.4z"/>
	<path class="st3" d="M-122.4,625.4h12v4.6h-12v10.9h-4.6v-27.8h18.3v4.6h-13.7L-122.4,625.4L-122.4,625.4z"/>
</g>
<g id="Arduino">
	<path class="st0" d="M10.4,176.3c-0.4-0.1-0.9-0.1-1.4-0.2H8.9H8.7c-0.1,0-0.2,0-0.3,0c-1.5,0-3,0.9-4.1,2.3
		c-1.1,1.5-1.4,3.4-0.7,4.9v0.1c0.7,1.7,2.3,2.9,4.3,3.2c2,0.4,4-0.2,5.2-1.5l0,0l0,0c1.1-1.1,1.9-2.4,2.8-3.8
		C14.7,179,12.9,176.9,10.4,176.3z M11.9,181.8H6.2v-1.2h5.7V181.8z"/>
	<path class="st0" d="M28.7,176.6c-1.9-0.8-4-0.7-5.4,0.3l0,0c-1.6,1-2.8,2.6-3.9,4.3c0.8,1.6,2.6,4.6,5.8,5.3l0,0l0,0
		c1.6,0.5,3.4,0,4.8-1.3c1.5-1.3,2.2-3.1,1.9-4.8C31.8,178.9,30.4,177.4,28.7,176.6z M28.4,182h-1.7v1.6h-1.5V182h-1.6v-1.5h1.6
		v-1.6h1.5v1.6h1.7V182z"/>
	<path class="st0" d="M17.7,161.6c-11,0-19.8,8.9-19.8,19.8c0,11,8.9,19.8,19.8,19.8c11,0,19.8-8.9,19.8-19.8S28.6,161.6,17.7,161.6
		z M31.9,187.5c-1.6,1.4-3.5,2.2-5.4,2.2c-0.7,0-1.4-0.1-2-0.3c-1.8-0.4-3.4-1.3-4.8-2.8c-0.7-0.7-1.4-1.6-2-2.5
		c-0.7,1-1.4,2.1-2.4,3c-0.9,1-2.2,1.8-3.6,2.2c-1.3,0.4-2.7,0.4-4.1,0.2s-2.7-0.8-3.8-1.6c-1.2-0.9-2.1-2-2.6-3.3
		c-0.5-1.2-0.7-2.6-0.5-4c0.2-1.3,0.7-2.5,1.5-3.6s1.8-2,2.9-2.6c1.2-0.6,2.5-0.9,3.8-0.9H9l0,0c0.8,0,1.5,0.1,2.1,0.2
		c1.8,0.4,3.4,1.4,4.9,2.9c0.7,0.7,1.3,1.4,1.8,2.2c1-1.5,2.3-3,4-4c1.2-0.8,2.5-1.2,4-1.3c1.4-0.1,2.8,0.2,4.1,0.8
		c2.7,1.2,4.6,3.4,5,6.1c0.2,1.3,0,2.8-0.5,4.1C33.8,185.5,32.9,186.6,31.9,187.5z"/>
</g>
<title>wiki:Behnam N</title>
<g id="Raspberry">
	<path class="st0" d="M13,118.5c-2.7-0.5-4.9,1.1-4.8,4C8.3,123.6,14,118.6,13,118.5z"/>
	<path class="st0" d="M10.9,117.7c0.9,0.1,3.4,0,3.8-1.9c-0.9-1-2.6-2.2-5.5-3.7c2.3,0.8,4.3,1.8,6,3.2c2-0.9,0.6-3.3-0.4-4.3
		c0,0.3-0.1,0.4-0.2,0.5c-0.3-0.3-0.6-0.7-1-1c0,0.2,0.1,0.4-0.1,0.6c-0.2-0.3-0.5-0.6-0.9-0.8c0.2,0.3,0,0.4-0.1,0.6
		c-0.3-0.3-0.6-0.5-1.1-0.7c0.2,0.2,0.4,0.4,0.1,0.6c-0.3-0.2-0.6-0.4-1.4-0.5c0.2,0.2,0.5,0.4,0.3,0.6c-0.4-0.2-0.8-0.3-1.3-0.3
		c0.2,0.2,0.4,0.4,0.2,0.5c-0.4-0.1-1-0.3-1.6-0.2l0.4,0.4c0,0-0.8,0-1.4,0c0.2,0.3,0.4,0.6,0.5,1.1c-0.1,0.1-0.3,0-0.6,0
		c0.3,0.6,0.8,0.7,0.9,1c-0.2,0.1-0.4,0.1-0.7,0c0.2,0.4,0.6,0.7,0.9,1c-0.1,0.1-0.2,0.1-0.6,0.1c0.3,0.3,0.7,0.6,1.1,0.9
		c-0.1,0.1-0.3,0.1-0.6,0.1c0.4,0.4,0.9,0.6,1.4,0.8c-0.2,0.2-0.4,0.1-0.6,0.1c0.3,0.3,0.9,0.4,1.4,0.6c-0.1,0.2-0.2,0.2-0.4,0.2
		c0.6,0.3,1.4,0.2,1.6,0.3C11.3,117.5,11.1,117.6,10.9,117.7z"/>
	<path class="st0" d="M7.8,123.7c-2.6,1.5-2.1,4.7-0.7,5.9C8.3,130.2,9.3,123.3,7.8,123.7z"/>
	<path class="st0" d="M8.3,130c-0.6,0.5-0.8,2.1,0.2,3.8c1.4,1.9,3.3,2.1,4,1.7c0.8-0.6,0.4-2.7-0.6-3.9
		C10.7,130.2,9.2,129.4,8.3,130z"/>
	<path class="st0" d="M20.5,118.5c-1,0.2,4.7,5.2,4.8,4C25.4,119.7,23.1,118.1,20.5,118.5z"/>
	<path class="st0" d="M13.8,119.7c0,0.9,1.3,1.8,3.2,1.8c1.9,0,3.2-0.7,3.2-1.6c0-1-1.8-2.1-3.2-2.1C15.3,117.7,13.8,119,13.8,119.7
		z"/>
	<path class="st0" d="M18.6,115.2c1.7-1.4,3.7-2.4,6-3.2c-2.9,1.5-4.6,2.7-5.5,3.7c0.5,1.9,2.9,2,3.8,1.9c-0.2-0.1-0.3-0.2-0.4-0.3
		c0.2-0.2,1,0,1.6-0.3c-0.2,0-0.3-0.1-0.4-0.2c0.5-0.2,1.1-0.3,1.4-0.6c-0.2,0-0.4,0-0.6-0.1c0.5-0.3,1-0.5,1.4-0.8
		c-0.2,0-0.5,0-0.6-0.1c0.4-0.3,0.8-0.6,1.1-0.9c-0.3,0-0.5,0-0.6-0.1c0.3-0.3,0.7-0.6,0.9-1c-0.3,0.1-0.5,0.1-0.7,0
		c0.1-0.3,0.6-0.4,0.9-1c-0.3,0-0.6,0.1-0.6,0c0.1-0.5,0.3-0.8,0.5-1.1c-0.6,0-1.4,0-1.4,0l0.4-0.4c-0.6-0.2-1.1,0-1.6,0.2
		c-0.2-0.1,0-0.3,0.2-0.5c-0.5,0.1-0.9,0.2-1.3,0.3c-0.2-0.2,0.1-0.4,0.3-0.6c-0.7,0.1-1,0.3-1.4,0.5c-0.2-0.2,0-0.4,0.1-0.6
		c-0.6,0.2-0.8,0.5-1.1,0.7c-0.1-0.1-0.3-0.2-0.1-0.6c-0.4,0.2-0.7,0.5-0.9,0.8c-0.2-0.2-0.1-0.4-0.1-0.6c-0.4,0.3-0.7,0.7-1,1
		c-0.1,0-0.1-0.2-0.2-0.5C18,111.9,16.6,114.3,18.6,115.2z"/>
	<path class="st0" d="M17,135.6c-1.4,0-3.5,0.6-3.5,1.3c0,0.5,1.7,2,3.4,1.9c1.7,0,3.4-1.5,3.4-2.1C20.3,136,18.4,135.5,17,135.6z"
		/>
	<path class="st0" d="M25.7,123.6c-1.6-0.4-0.5,6.4,0.7,5.9C27.9,128.4,28.3,125.1,25.7,123.6z"/>
	<path class="st0" d="M16.9,104c-11,0-19.8,8.9-19.8,19.8c0,11,8.9,19.8,19.8,19.8c11,0,19.8-8.9,19.8-19.8
		C36.7,112.8,27.8,104,16.9,104z M27.6,130.1c-0.2,0.8-0.4,1.4-0.6,2.1c-0.3,2.7-2.6,4-3.2,4.1c-0.9,0.7-1.8,1.3-3.1,1.7
		c-1.2,1.2-2.5,1.7-3.8,1.7c0,0,0,0-0.1,0c-1.3,0-2.6-0.5-3.8-1.7c-1.3-0.4-2.2-1.1-3.1-1.7c-0.6-0.1-2.9-1.4-3.2-4.1
		c-0.2-0.7-0.5-1.3-0.6-2.1c-2.4-2.7-0.9-6,0.8-7l0.2-0.4c0-2.8,1.3-3.9,2.7-4.8c-0.4-0.1-0.9-0.2-1-0.8c-0.8-0.2-0.9-0.6-1-0.9
		c-0.2-0.1-0.9-0.5-0.8-1.2c-0.4-0.3-0.6-0.6-0.5-1.1c-0.4-0.4-0.5-0.8-0.3-1.2c-0.5-0.6-0.3-0.9-0.1-1.2c-0.4-0.7,0-1.4,1-1.3
		c0.4-0.6,1.3-0.5,1.4-0.5c0.2-0.2,0.4-0.4,1-0.3c0.4-0.4,0.8-0.3,1.3-0.1c0.2-0.1,0.4-0.2,0.5-0.2c0.3,0,0.5,0.2,0.8,0.3
		c0.7-0.2,0.8,0.1,1.1,0.2c0.7-0.2,0.9,0.2,1.3,0.5h0.4c1.1,0.6,1.6,2,1.8,2.6c0.2-0.7,0.7-2,1.8-2.6h0.4c0.3-0.4,0.6-0.7,1.3-0.5
		c0.3-0.1,0.5-0.4,1.1-0.2c0.4-0.1,0.8-0.5,1.3,0c0.5-0.2,0.9-0.2,1.3,0.1c0.6-0.1,0.8,0.1,1,0.3c0.1,0,1-0.1,1.4,0.5
		c1-0.1,1.3,0.6,1,1.3c0.2,0.3,0.4,0.6-0.1,1.2c0.2,0.3,0.1,0.7-0.3,1.2c0.1,0.5-0.1,0.8-0.5,1.1c0.1,0.7-0.6,1-0.8,1.2
		c-0.1,0.4-0.2,0.7-1,0.9c-0.1,0.6-0.6,0.7-1,0.8c1.5,0.9,2.7,2,2.7,4.8l0.2,0.4C28.5,124.1,30,127.4,27.6,130.1z"/>
	<path class="st0" d="M15.6,127c1.1-1.7,0.9-3.8-0.6-4.8c-1.4-0.9-3.5-0.3-4.6,1.4s-0.9,3.8,0.6,4.8C12.4,129.3,14.4,128.7,15.6,127
		z"/>
	<path class="st0" d="M22,131.2c-1.1,1.3-1.7,3.6-0.9,4.3c0.7,0.6,2.8,0.5,4.2-1.6c1.1-1.4,0.7-3.7,0.1-4.3
		C24.5,128.9,23.2,129.8,22,131.2z"/>
	<ellipse class="st0" cx="17" cy="131.3" rx="3.5" ry="3.2"/>
	<path class="st0" d="M22.9,128.2c1.4-0.9,1.7-3.1,0.6-4.8s-3.2-2.3-4.6-1.4c-1.4,0.9-1.7,3.1-0.6,4.8
		C19.4,128.5,21.5,129.1,22.9,128.2z"/>
</g>
</svg>
