<?xml version="1.0" encoding="utf-8"?>
<!-- Generator: Adobe Illustrator 19.0.0, SVG Export Plug-In . SVG Version: 6.00 Build 0)  -->
<svg version="1.1" id="Ebene_1" xmlns="http://www.w3.org/2000/svg" xmlns:xlink="http://www.w3.org/1999/xlink" x="0px" y="0px"
	 viewBox="43.3 462.9 239.6 597.3" style="enable-background:new 43.3 462.9 239.6 597.3;" xml:space="preserve">
<style type="text/css">
	.st0{fill:#3C3C3C;}
	.st1{fill:#4BAE3D;}
	.st2{fill:#EBC720;}
	.st3{fill:#A82A00;}
	.st4{fill:#E63A00;}
	.st5{fill:#F24208;}
	.st6{fill:none;stroke:#A82A00;stroke-width:2;stroke-miterlimit:10;}
	.st7{fill:#C1C1C1;}
	.st8{fill:#9B8800;}
	.st9{fill:#F2D10A;}
	.st10{fill:#E4E4E4;}
</style>
<g id="XMLID_12_">
	<polygon id="XMLID_13_" class="st0" points="-718.9,284.8 -499.5,284.9 -499.5,295 -718.9,294.9 	"/>
</g>
<g id="XMLID_3_">
	<polygon id="barCurrentTrain" class="st1" points="-719.2,284.8 -680.5,284.9 -680.5,295 -719.2,294.9 	"/>
</g>
<g id="XMLID_5_">
	<g id="XMLID_9_">
		<path class="st0" d="M-719.7,295.9v-12.1h0.4l220.3,0.1V296h-0.4L-719.7,295.9z M-718.9,285.8v8.1l219.1,0.1v-8.1L-718.9,285.8z"
			/>
	</g>
</g>
<path class="st2" d="M-628.7,630.2h39.1c8.2,0,15,6.7,15,15v39.1c0,8.2-6.7,15-15,15h-39.1c-8.2,0-15-6.7-15-15v-39.1
	C-643.6,636.9-636.9,630.2-628.7,630.2z"/>
<path d="M-628.7,634.7h2.8l-13.2,13.2v-2.8C-639.1,639.4-634.4,634.7-628.7,634.7L-628.7,634.7z M-619.1,634.7l-20,20v7.7l27.7-27.7
	H-619.1L-619.1,634.7z M-604.6,634.7l-34.5,34.4v7.7l42.2-42.1L-604.6,634.7L-604.6,634.7z M-590.1,634.7l-49,48.9v0.6
	c0,2,0.6,3.9,1.6,5.5l53.5-53.4c-1.6-1-3.5-1.6-5.5-1.6H-590.1L-590.1,634.7z M-580.7,639.7l-53.5,53.4c1.6,1,3.5,1.6,5.5,1.6h0.6
	l48.9-48.9v-0.7C-579.1,643.2-579.7,641.3-580.7,639.7L-580.7,639.7z M-579.1,652.6v7.7l-34.5,34.4h-7.7L-579.1,652.6L-579.1,652.6z
	 M-579.1,667.1v7.7l-20,20h-7.7L-579.1,667.1L-579.1,667.1z M-579.1,681.5v2.7c0,5.7-4.7,10.4-10.4,10.4h-2.8L-579.1,681.5z"/>
<g id="EmergencyButton">
	<circle class="st3" cx="-608.1" cy="666.4" r="29.3"/>
	<circle class="st4" cx="-608.1" cy="666.4" r="27.6"/>
	<circle class="st5" cx="-608.3" cy="666.4" r="18.7"/>
</g>
<g>
	<g>
		<g>
			<polygon class="st3" points="-590.5,657.9 -586.6,658.9 -583.2,656.8 -585.6,666 			"/>
		</g>
	</g>
	<path class="st6" d="M-602.8,644.1c7.5,1.9,13.9,7.4,16.4,15.3"/>
</g>
<g>
	<path class="st6" d="M-629.7,674.1"/>
	<path class="st6" d="M-600.8,689"/>
</g>
<g>
	<g>
		<g>
			<polygon class="st3" points="-626.3,674 -630.2,673 -633.6,675.1 -631.3,665.9 			"/>
		</g>
	</g>
	<path class="st6" d="M-614.1,687.8c-7.5-1.9-13.9-7.4-16.4-15.3"/>
</g>
<g id="XMLID_21_">
	<polygon id="XMLID_22_" class="st0" points="-718.9,181.5 -499.6,181.6 -499.6,191.7 -718.9,191.6 	"/>
</g>
<g id="XMLID_20_">
	<polygon id="barNextTrain" class="st1" points="-719.2,181.5 -680.6,181.6 -680.6,191.7 -719.2,191.6 	"/>
</g>
<g id="XMLID_10_">
	<g id="XMLID_19_">
		<path class="st0" d="M-719.7,192.6v-12.1h0.4l220.3,0.1v12.1h-0.4L-719.7,192.6z M-718.9,182.5v8.1l219.1,0.1v-8.1L-718.9,182.5z"
			/>
	</g>
</g>
<path class="st7" d="M-629.8,430.9h39.1c8.2,0,15,6.7,15,15V485c0,8.2-6.7,15-15,15h-39.1c-8.2,0-15-6.7-15-15v-39.1
	C-644.6,437.6-638,430.9-629.8,430.9z"/>
<path d="M-629.8,435.4h2.8l-13.2,13.2v-2.8C-640.1,440.1-635.5,435.4-629.8,435.4L-629.8,435.4z M-620.1,435.4l-20,20v7.7l27.7-27.7
	H-620.1L-620.1,435.4z M-605.6,435.4l-34.5,34.4v7.7l42.2-42.1L-605.6,435.4L-605.6,435.4z M-591.2,435.4l-49,48.9v0.6
	c0,2,0.6,3.9,1.6,5.5L-585,437c-1.6-1-3.5-1.6-5.5-1.6H-591.2L-591.2,435.4z M-581.8,440.4l-53.5,53.4c1.6,1,3.5,1.6,5.5,1.6h0.6
	l48.9-48.9v-0.7C-580.2,443.9-580.8,442-581.8,440.4L-581.8,440.4z M-580.2,453.3v7.7l-34.5,34.4h-7.7L-580.2,453.3L-580.2,453.3z
	 M-580.2,467.8v7.7l-20,20h-7.7L-580.2,467.8L-580.2,467.8z M-580.2,482.2v2.7c0,5.7-4.7,10.4-10.4,10.4h-2.8L-580.2,482.2z"/>
<g id="EmergencyButton_1_">
	<circle class="st8" cx="-609.1" cy="467.1" r="29.3"/>
	<circle class="st2" cx="-609.1" cy="467.1" r="27.6"/>
	<circle class="st9" cx="-609.3" cy="467.1" r="18.7"/>
</g>
<g>
	<path class="st6" d="M-630.8,474.8"/>
	<path class="st6" d="M-601.8,489.7"/>
</g>
<g>
	<path class="st10" d="M-692.3,256.1c0-1.5,0.3-2.8,0.9-3.9c0.6-1.1,1.4-2,2.4-2.8c1-0.7,2.1-1.3,3.4-1.7c1.3-0.4,2.6-0.6,3.9-0.6
		c1,0,2,0.1,3,0.4c1,0.3,1.9,0.7,2.8,1.2s1.7,1.2,2.5,2c0.8,0.8,1.4,1.7,1.9,2.8l-4,2c-0.7-1.3-1.6-2.2-2.7-2.8
		c-1.1-0.6-2.3-1-3.6-1c-0.8,0-1.5,0.1-2.2,0.3c-0.7,0.2-1.4,0.5-2,0.8c-0.6,0.4-1,0.8-1.4,1.4c-0.4,0.5-0.5,1.2-0.5,1.9v10.6
		c0,0.7,0.2,1.4,0.5,1.9c0.4,0.5,0.8,1,1.4,1.4c0.6,0.4,1.2,0.6,2,0.8c0.7,0.2,1.5,0.3,2.2,0.3c1.2,0,2.4-0.3,3.6-0.9
		c1.1-0.6,2-1.6,2.7-2.8l4,1.9c-0.5,1.1-1.2,2-1.9,2.8c-0.8,0.8-1.6,1.5-2.5,2c-0.9,0.5-1.9,0.9-2.9,1.2c-1,0.3-2,0.4-3,0.4
		c-1.3,0-2.6-0.2-3.9-0.5c-1.3-0.4-2.4-0.9-3.4-1.7c-1-0.7-1.8-1.7-2.4-2.8c-0.6-1.1-0.9-2.4-0.9-3.9V256.1z"/>
	<path class="st10" d="M-663.7,266.6c0,0.8,0.2,1.5,0.5,2s0.8,1,1.4,1.4c0.6,0.4,1.2,0.7,2,0.8c0.7,0.2,1.5,0.3,2.2,0.3
		c0.8,0,1.5-0.1,2.3-0.3c0.7-0.2,1.4-0.5,2-0.8c0.6-0.4,1.1-0.9,1.4-1.4s0.5-1.3,0.5-2v-18.9h4.5v19c0,1.5-0.3,2.8-0.9,4
		c-0.6,1.1-1.4,2.1-2.4,2.8c-1,0.8-2.2,1.3-3.4,1.7c-1.3,0.4-2.6,0.6-3.9,0.6c-1.3,0-2.6-0.2-3.9-0.6c-1.3-0.4-2.4-0.9-3.4-1.7
		c-1-0.8-1.8-1.7-2.4-2.8s-0.9-2.5-0.9-4v-19h4.5V266.6z"/>
	<path class="st10" d="M-637.3,264.6v10.7h-4.5v-27.6h10.7c1.4,0,2.6,0.2,3.8,0.5c1.2,0.3,2.2,0.8,3,1.5c0.9,0.7,1.5,1.6,2,2.7
		c0.5,1.1,0.8,2.4,0.8,3.9c0,1.3-0.2,2.4-0.5,3.4c-0.4,1-0.9,1.8-1.5,2.4c-0.7,0.7-1.4,1.2-2.3,1.6c-0.9,0.4-1.9,0.7-2.9,0.8
		l8.6,10.9h-5.5l-8.3-10.7H-637.3z M-631.1,260.6c1.6,0,2.8-0.3,3.7-1c0.9-0.7,1.4-1.8,1.4-3.4c0-1.5-0.5-2.6-1.4-3.2
		c-1-0.6-2.2-0.9-3.7-0.9h-6.2v8.5H-631.1z"/>
	<path class="st10" d="M-613,264.6v10.7h-4.5v-27.6h10.7c1.4,0,2.6,0.2,3.8,0.5c1.2,0.3,2.2,0.8,3,1.5c0.9,0.7,1.5,1.6,2,2.7
		c0.5,1.1,0.8,2.4,0.8,3.9c0,1.3-0.2,2.4-0.5,3.4s-0.9,1.8-1.5,2.4c-0.7,0.7-1.4,1.2-2.3,1.6s-1.9,0.7-2.9,0.8l8.6,10.9h-5.5
		l-8.3-10.7H-613z M-606.8,260.6c1.6,0,2.8-0.3,3.7-1c0.9-0.7,1.4-1.8,1.4-3.4c0-1.5-0.5-2.6-1.4-3.2c-1-0.6-2.2-0.9-3.7-0.9h-6.2
		v8.5H-606.8z"/>
	<path class="st10" d="M-588.7,259.2h12.6v4.5h-12.6v7h13.7v4.5h-18.2v-27.7h18.2v4.5h-13.7V259.2z"/>
	<path class="st10" d="M-570.8,275.3v-27.6h4.8l9.6,16.3l2.9,5.5l0.3-0.1l-0.7-5.9v-15.8h4.5v27.6h-5.3l-9.4-16l-2.6-5.3l-0.3,0.1
		l0.7,5.8v15.4H-570.8z"/>
	<path class="st10" d="M-533.3,252.1v23.1h-4.5v-23.1h-8.4v-4.5h21.3v4.5H-533.3z"/>
</g>
<g>
	<path class="st10" d="M-651.2,171.8v-27.6h4.8l9.6,16.3l2.9,5.5l0.3-0.1l-0.7-5.9v-15.8h4.5v27.6h-5.3l-9.4-16l-2.6-5.3l-0.3,0.1
		l0.7,5.8v15.4H-651.2z"/>
	<path class="st10" d="M-620.1,155.7h12.6v4.5h-12.6v7h13.7v4.5h-18.2v-27.7h18.2v4.5h-13.7V155.7z"/>
	<path class="st10" d="M-585.9,171.8l-6.7-10.3l-6.7,10.3h-5.5l9.5-13.8l-9.4-13.9h5.5l6.7,10.4l6.7-10.4h5.5l-9.4,13.9l9.5,13.8
		H-585.9z"/>
	<path class="st10" d="M-566.9,148.7v23.1h-4.5v-23.1h-8.4v-4.5h21.3v4.5H-566.9z"/>
</g>
<g>
	<path class="st10" d="M-630.5,420.1c0-0.8,0.3-1.5,0.8-2c0.5-0.5,1.2-0.8,2-0.8c0.8,0,1.5,0.3,2,0.8s0.8,1.2,0.8,2s-0.3,1.5-0.8,2
		s-1.2,0.8-2,0.8c-0.8,0-1.5-0.3-2-0.8C-630.2,421.6-630.5,421-630.5,420.1z"/>
	<g>
		<path class="st10" d="M-654.6,367c0,0.5,0.2,1,0.5,1.4c0.3,0.4,0.8,0.7,1.3,1c0.5,0.3,1.2,0.5,1.9,0.6c0.7,0.2,1.4,0.3,2.1,0.4
			c1.2,0.2,2.4,0.5,3.6,0.9s2.3,0.9,3.3,1.6c1,0.7,1.7,1.5,2.3,2.6c0.5,0.9,0.7,2,0.7,3.3c0,0.2,0,0.5,0,0.7c-0.1,1.3-0.4,2.5-1,3.4
			c-0.6,1-1.4,1.8-2.4,2.4c-1,0.6-2.1,1.1-3.3,1.4c-1.2,0.3-2.4,0.5-3.7,0.5c-1.1,0-2.1-0.1-3.1-0.4c-1-0.3-2-0.7-2.9-1.3
			c-0.9-0.6-1.7-1.3-2.5-2.1c-0.7-0.8-1.4-1.8-1.9-2.9l4.1-1.9c0.6,1.3,1.5,2.3,2.6,3c1.1,0.7,2.4,1,3.7,1c0.7,0,1.4-0.1,2.1-0.2
			c0.7-0.1,1.3-0.4,1.8-0.6c0.5-0.3,0.9-0.7,1.3-1.1c0.3-0.5,0.5-1,0.6-1.6c0-0.1,0-0.2,0-0.3c0-0.7-0.1-1.2-0.4-1.6
			c-0.3-0.5-0.8-0.9-1.4-1.2c-0.6-0.3-1.3-0.6-2-0.8s-1.6-0.4-2.4-0.5c-1.1-0.2-2.3-0.5-3.4-0.9c-1.1-0.4-2.1-0.8-3-1.4
			c-0.9-0.6-1.6-1.4-2.2-2.3c-0.6-0.9-0.8-2.1-0.8-3.5c0.1-1.3,0.4-2.4,1-3.3c0.6-1,1.3-1.8,2.3-2.5c0.9-0.7,2-1.2,3.1-1.5
			c1.1-0.3,2.3-0.5,3.6-0.5c1,0,2.1,0.1,3,0.3c1,0.2,1.9,0.6,2.8,1c0.9,0.5,1.6,1.1,2.4,1.9c0.7,0.8,1.3,1.7,1.8,2.8l-4.1,1.8
			c-0.6-1.3-1.4-2.2-2.4-2.6c-1-0.4-2.2-0.7-3.4-0.7c-0.7,0-1.3,0.1-2,0.2c-0.6,0.2-1.2,0.4-1.7,0.7c-0.5,0.3-0.9,0.7-1.2,1.1
			C-654.4,365.9-654.6,366.4-654.6,367z"/>
		<path class="st10" d="M-624.2,363.8v23.1h-4.5v-23.1h-8.4v-4.5h21.3v4.5H-624.2z"/>
		<path class="st10" d="M-602.6,358.9c1.4,0,2.8,0.2,4.1,0.6c1.3,0.4,2.5,0.9,3.6,1.7c1.1,0.7,1.9,1.7,2.5,2.8c0.6,1.1,1,2.4,1,3.9
			v10.5c0,1.5-0.3,2.8-1,3.9c-0.6,1.1-1.5,2.1-2.5,2.8c-1.1,0.7-2.3,1.3-3.6,1.7s-2.7,0.6-4.1,0.6s-2.8-0.2-4.1-0.6
			s-2.5-0.9-3.6-1.7c-1-0.7-1.9-1.7-2.5-2.8c-0.6-1.1-1-2.4-1-3.9v-10.5c0-1.5,0.3-2.8,1-3.9c0.6-1.1,1.5-2.1,2.5-2.8
			c1-0.7,2.2-1.3,3.6-1.7C-605.4,359-604,358.9-602.6,358.9z M-609.3,378.3c0,0.8,0.2,1.4,0.6,2c0.4,0.6,0.9,1,1.5,1.4
			c0.6,0.4,1.3,0.6,2.1,0.8c0.8,0.2,1.6,0.3,2.5,0.3c0.9,0,1.7-0.1,2.5-0.3s1.5-0.5,2.1-0.8c0.6-0.4,1.1-0.8,1.5-1.4
			c0.4-0.6,0.6-1.2,0.6-2v-10.4c0-0.8-0.2-1.5-0.6-2c-0.4-0.6-0.9-1-1.5-1.4c-0.6-0.4-1.3-0.6-2.1-0.8s-1.6-0.3-2.5-0.3
			c-0.8,0-1.7,0.1-2.5,0.3c-0.8,0.2-1.5,0.5-2.1,0.8c-0.6,0.4-1.1,0.8-1.5,1.4c-0.4,0.6-0.6,1.2-0.6,2V378.3z"/>
		<path class="st10" d="M-586.9,359.2h10.7c1.6,0,3,0.3,4.2,0.8s2.2,1.2,3,2.1c0.8,0.9,1.4,1.8,1.8,2.9c0.4,1.1,0.6,2.2,0.6,3.3
			c0,1.1-0.2,2.3-0.6,3.3s-1,2-1.8,2.9c-0.8,0.8-1.8,1.5-3,2c-1.2,0.5-2.6,0.8-4.2,0.8h-6.3v9.6h-4.5V359.2z M-576.2,373.2
			c0.9,0,1.6-0.1,2.2-0.4c0.6-0.3,1.2-0.7,1.6-1.1c0.4-0.4,0.7-1,1-1.5c0.2-0.6,0.3-1.1,0.3-1.7c0-0.6-0.1-1.1-0.3-1.7
			c-0.2-0.6-0.5-1.1-1-1.5c-0.4-0.4-1-0.8-1.6-1.1c-0.6-0.3-1.4-0.4-2.2-0.4h-6.2v9.4H-576.2z"/>
		<path class="st10" d="M-700.1,412.1v10.7h-4.5v-27.6h10.7c1.4,0,2.6,0.2,3.8,0.5c1.2,0.3,2.2,0.8,3,1.5c0.9,0.7,1.5,1.6,2,2.7
			c0.5,1.1,0.8,2.4,0.8,3.9c0,1.3-0.2,2.4-0.5,3.4c-0.4,1-0.9,1.8-1.5,2.4c-0.7,0.7-1.4,1.2-2.3,1.6c-0.9,0.4-1.9,0.7-2.9,0.8
			l8.6,10.9h-5.5l-8.3-10.7H-700.1z M-693.8,408.1c1.6,0,2.8-0.3,3.7-1c0.9-0.7,1.4-1.8,1.4-3.4c0-1.5-0.5-2.6-1.4-3.2
			c-1-0.6-2.2-0.9-3.7-0.9h-6.2v8.5H-693.8z"/>
		<path class="st10" d="M-680.3,422.8v-27.6h4.8l9.6,16.3l2.9,5.5l0.3-0.1l-0.7-5.9v-15.8h4.5v27.6h-5.3l-9.4-16l-2.6-5.3l-0.3,0.1
			l0.7,5.8v15.4H-680.3z"/>
		<path class="st10" d="M-643.8,395.1c1.4,0,2.6,0.2,3.9,0.5c1.2,0.3,2.3,0.9,3.3,1.6c1,0.7,1.7,1.6,2.3,2.7
			c0.6,1.1,0.9,2.4,0.9,3.9v10.4c0,1.5-0.3,2.8-0.9,3.9c-0.6,1.1-1.3,2-2.3,2.7c-1,0.7-2.1,1.2-3.3,1.5c-1.2,0.3-2.5,0.5-3.9,0.5
			h-9.9v-27.6H-643.8z M-643.8,418.2c0.8,0,1.5-0.1,2.2-0.2c0.7-0.1,1.3-0.4,1.9-0.7c0.5-0.3,1-0.7,1.3-1.2s0.5-1.1,0.5-1.9v-10.4
			c0-0.7-0.2-1.4-0.5-1.9c-0.3-0.5-0.7-1-1.3-1.3c-0.5-0.3-1.2-0.6-1.9-0.7c-0.7-0.2-1.4-0.2-2.2-0.2h-5.4v18.6H-643.8z"/>
		<path class="st10" d="M-616,412.1v10.7h-4.5v-27.6h10.7c1.4,0,2.6,0.2,3.8,0.5s2.2,0.8,3,1.5c0.9,0.7,1.5,1.6,2,2.7
			c0.5,1.1,0.8,2.4,0.8,3.9c0,1.3-0.2,2.4-0.5,3.4c-0.4,1-0.9,1.8-1.5,2.4c-0.7,0.7-1.4,1.2-2.3,1.6c-0.9,0.4-1.9,0.7-2.9,0.8
			l8.6,10.9h-5.5l-8.3-10.7H-616z M-609.8,408.1c1.6,0,2.8-0.3,3.7-1c0.9-0.7,1.4-1.8,1.4-3.4c0-1.5-0.5-2.6-1.4-3.2
			c-1-0.6-2.2-0.9-3.7-0.9h-6.2v8.5H-609.8z"/>
		<path class="st10" d="M-585.9,394.7c1.4,0,2.8,0.2,4.1,0.6c1.3,0.4,2.5,0.9,3.6,1.7c1.1,0.7,1.9,1.7,2.5,2.8c0.6,1.1,1,2.4,1,3.9
			v10.5c0,1.5-0.3,2.8-1,3.9c-0.6,1.1-1.5,2.1-2.5,2.8c-1.1,0.7-2.3,1.3-3.6,1.7c-1.3,0.4-2.7,0.6-4.1,0.6c-1.4,0-2.8-0.2-4.1-0.6
			c-1.3-0.4-2.5-0.9-3.6-1.7c-1-0.7-1.9-1.7-2.5-2.8c-0.6-1.1-1-2.4-1-3.9v-10.5c0-1.5,0.3-2.8,1-3.9c0.6-1.1,1.5-2.1,2.5-2.8
			c1-0.7,2.2-1.3,3.6-1.7C-588.6,394.9-587.3,394.7-585.9,394.7z M-592.5,414.1c0,0.8,0.2,1.4,0.6,2c0.4,0.6,0.9,1,1.5,1.4
			c0.6,0.4,1.3,0.6,2.1,0.8c0.8,0.2,1.6,0.3,2.5,0.3c0.9,0,1.7-0.1,2.5-0.3c0.8-0.2,1.5-0.5,2.1-0.8c0.6-0.4,1.1-0.8,1.5-1.4
			c0.4-0.6,0.6-1.2,0.6-2v-10.4c0-0.8-0.2-1.5-0.6-2c-0.4-0.6-0.9-1-1.5-1.4c-0.6-0.4-1.3-0.6-2.1-0.8c-0.8-0.2-1.6-0.3-2.5-0.3
			c-0.8,0-1.7,0.1-2.5,0.3c-0.8,0.2-1.5,0.5-2.1,0.8c-0.6,0.4-1.1,0.8-1.5,1.4c-0.4,0.6-0.6,1.2-0.6,2V414.1z"/>
		<path class="st10" d="M-551,402.7c0,0.9-0.2,1.9-0.6,2.9s-1,1.8-2,2.4c0.8,0.3,1.4,0.7,1.9,1.2c0.5,0.5,0.9,1,1.2,1.6
			c0.3,0.6,0.5,1.2,0.6,1.8s0.2,1.3,0.2,2c0,1.5-0.3,2.8-0.8,3.9c-0.5,1-1.2,1.9-2.1,2.5c-0.9,0.7-1.9,1.1-3,1.4
			c-1.2,0.3-2.4,0.4-3.8,0.4h-10.7v-27.6h10.8c1.1,0,2.2,0.2,3.2,0.5s1.9,0.8,2.7,1.4c0.8,0.6,1.4,1.4,1.8,2.4
			C-551.2,400.3-551,401.5-551,402.7z M-559.4,406.1c1.1,0,2.1-0.3,2.8-0.8s1.1-1.5,1.1-2.7c0-1.1-0.4-1.9-1.2-2.4
			c-0.8-0.5-1.7-0.8-2.8-0.8h-6.2v6.7H-559.4z M-559.1,418.4c1.3,0,2.4-0.3,3.3-0.9c1-0.6,1.4-1.7,1.4-3.2c0-1.5-0.5-2.6-1.4-3.2
			c-0.9-0.6-2.1-0.9-3.5-0.9c-0.1,0-0.1,0-0.2,0h-6.2v8.2h6.2C-559.3,418.4-559.2,418.4-559.1,418.4z"/>
		<path class="st10" d="M-541.3,422.8h-4.5v-27.6h4.5V422.8z"/>
		<path class="st10" d="M-536.1,422.8v-27.6h4.8l9.6,16.3l2.9,5.5l0.3-0.1l-0.7-5.9v-15.8h4.5v27.6h-5.3l-9.4-16l-2.6-5.3l-0.3,0.1
			l0.7,5.8v15.4H-536.1z"/>
	</g>
</g>
</svg>
