<?xml version="1.0" encoding="utf-8"?>
<!-- Generator: Adobe Illustrator 19.0.0, SVG Export Plug-In . SVG Version: 6.00 Build 0)  -->
<svg version="1.1" id="Ebene_1" xmlns="http://www.w3.org/2000/svg" xmlns:xlink="http://www.w3.org/1999/xlink" x="0px" y="0px"
	 viewBox="-1016 343.2 233.7 731.1" style="enable-background:new -1016 343.2 233.7 731.1;" xml:space="preserve">
<style type="text/css">
	.st0{fill:#00B3E3;}
	.st1{fill:none;}
	.st2{font-family:'UniSansSemiBold';}
	.st3{font-size:42px;}
	.st4{fill:#FFFFFF;stroke:#010202;stroke-width:2;stroke-miterlimit:10;}
	.st5{fill:none;stroke:#010202;stroke-width:3;stroke-miterlimit:10;}
	.st6{fill:#ECECEC;}
	.st7{fill:url(#SVGID_1_);}
	.st8{fill:#49AD3C;}
	.st9{fill:#A7A7A7;}
	.st10{display:none;}
	.st11{display:inline;fill:#EBC721;}
	.st12{display:inline;fill:#E74317;}
	.st13{fill-rule:evenodd;clip-rule:evenodd;fill:#EBC720;}
	.st14{fill-rule:evenodd;clip-rule:evenodd;}
	.st15{fill-rule:evenodd;clip-rule:evenodd;fill:#A82A00;}
	.st16{fill-rule:evenodd;clip-rule:evenodd;fill:#E63A00;}
	.st17{fill-rule:evenodd;clip-rule:evenodd;fill:#F24208;}
	.st18{fill:#A82A00;}
	.st19{fill-rule:evenodd;clip-rule:evenodd;fill:none;stroke:#A82A00;stroke-width:2;stroke-miterlimit:10;}
</style>
<g id="XMLID_15_">
	<polygon id="XMLID_16_" points="-932.2,926.5 -902.1,926.5 -902.1,931.6 -932.2,931.6 	"/>
</g>
<g id="XMLID_14_">
	
		<rect id="SliderGlider" x="-1130.3" y="773.6" transform="matrix(-1.524674e-004 1 -1 -1.524674e-004 -118.8679 1676.1919)" width="465.7" height="10.1"/>
</g>
<g id="XMLID_12_">
	
		<rect id="XMLID_13_" x="-1174.7" y="758.1" transform="matrix(-1.278305e-004 1 -1 -1.278305e-004 -133.9642 1660.2476)" width="555.5" height="10.1"/>
</g>
<g id="XMLID_3_">
	<polygon id="barActualSpeed" class="st0" points="-902.1,1042.7 -902,931.6 -891.9,931.6 -892,1042.7 	"/>
</g>
<g id="XMLID_5_">
	<g id="XMLID_9_">
		<path d="M-891,1043.7l-12.1,0v-1l0.1-557.4l12.1,0v1L-891,1043.7z M-901.1,1041.7l8.1,0l0.1-554.4l-8.1,0L-901.1,1041.7z"/>
	</g>
</g>
<g id="XMLID_17_">
	<rect id="XMLID_18_" x="-932.2" y="1038.8" width="70.3" height="5.1"/>
</g>
<g id="XMLID_1_">
	<polygon id="XMLID_2_" points="-932.2,485.3 -890.9,485.4 -890.9,490.5 -932.2,490.4 	"/>
</g>
<g>
	<rect x="-1009.1" y="913.7" class="st1" width="67.3" height="34.4"/>
	<text id="barSpeed" transform="matrix(1 0 0 1 -997.0728 943.442)" class="st2 st3">tbd</text>
	<g id="Slider">
		<path id="XMLID_6_" class="st4" d="M-890.8,991.4h-13.6c-15.6,0-28.3-12.8-28.3-28.3v-62.4c0-15.6,12.8-28.3,28.3-28.3h13.6
			c15.6,0,28.3,12.8,28.3,28.3v62.4C-862.4,978.6-875.2,991.4-890.8,991.4z"/>
		<line id="XMLID_8_" class="st5" x1="-923.7" y1="931.7" x2="-872.9" y2="931.7"/>
		<path id="XMLID_7_" class="st5" d="M-923.7,911.2c0,0,7.1,3,26.2,3c19.1,0,24.6-3,24.6-3"/>
		<path id="XMLID_11_" class="st5" d="M-872.1,952.2c0,0-7.1-3-26.2-3c-19.1,0-24.6,3-24.6,3"/>
	</g>
</g>
<rect x="-1016" y="910.7" class="st6" width="80" height="163.6"/>
<linearGradient id="SVGID_1_" gradientUnits="userSpaceOnUse" x1="-976" y1="910.72" x2="-976" y2="803.54">
	<stop  offset="0" style="stop-color:#ECECEC"/>
	<stop  offset="1" style="stop-color:#FFFFFF;stop-opacity:0"/>
</linearGradient>
<rect x="-1016" y="803.5" class="st7" width="80" height="107.2"/>
<circle id="go" class="st8" cx="-817" cy="910.7" r="13.5"/>
<circle id="stop" class="st9" cx="-817" cy="946.9" r="13.5"/>
<g id="XMLID_27_" class="st10">
	<circle id="XMLID_31_" class="st11" cx="-816.9" cy="1039.7" r="32.1"/>
	<path id="XMLID_28_" class="st12" d="M-816.9,1074.3c-19,0-34.5-15.5-34.5-34.5c0-19,15.5-34.5,34.5-34.5s34.5,15.5,34.5,34.5
		C-782.4,1058.8-797.8,1074.3-816.9,1074.3z M-816.9,1010c-16.4,0-29.8,13.3-29.8,29.8c0,16.4,13.3,29.8,29.8,29.8
		s29.8-13.3,29.8-29.8C-787.1,1023.3-800.5,1010-816.9,1010z"/>
</g>
<g id="XMLID_23_" class="st10">
	<path id="XMLID_24_" class="st12" d="M-820.9,1060.9c0-2.6,1.8-4.5,4.3-4.5c2.6,0,4.3,1.9,4.3,4.5s-1.7,4.5-4.3,4.5
		C-819.1,1065.4-820.9,1063.5-820.9,1060.9z M-819.1,1050.5l-1-35h7l-1,35H-819.1z"/>
</g>
<g>
	<g>
		<path class="st0" d="M-1008.9,414.9c-0.4,0-0.9-0.2-1.1-0.4c-0.2-0.2-0.4-0.7-0.4-1.1v-8.9c0-0.2,0-0.2-0.2-0.2h-2
			c-0.4,0-0.7-0.2-0.9-0.4c-0.2-0.2-0.4-0.7-0.4-0.9c0-0.4,0.2-0.7,0.4-0.9c0.2-0.2,0.7-0.4,0.9-0.4h7.8c0.4,0,0.7,0.2,0.9,0.4
			c0.2,0.2,0.4,0.7,0.4,0.9c0,0.4-0.2,0.7-0.4,0.9c-0.2,0.2-0.7,0.4-0.9,0.4h-2c-0.2,0-0.2,0-0.2,0.2v8.9c0,0.4-0.2,0.7-0.4,1.1
			C-1007.8,414.9-1008.2,414.9-1008.9,414.9L-1008.9,414.9z"/>
		<path class="st0" d="M-993.3,413.5c0,0.2,0.2,0.2,0.2,0.4c0,0.2,0,0.2-0.2,0.4c-0.2,0.2-0.4,0.4-0.7,0.4h-0.4
			c-0.4,0-0.9-0.2-1.3-0.4c-0.4-0.2-0.7-0.7-0.9-0.9l-1.6-3.1l-0.2-0.2h-1.1c-0.2,0-0.2,0-0.2,0.2v2.9c0,0.4-0.2,0.7-0.4,1.1
			c-0.2,0.2-0.7,0.4-1.1,0.4h-0.2c-0.4,0-0.7-0.2-1.1-0.4c-0.2-0.2-0.4-0.7-0.4-1.1v-10.2c0-0.4,0.2-0.7,0.4-1.1
			c0.2-0.2,0.7-0.4,1.1-0.4h3.3c3.6,0,5.1,1.3,5.1,4.2c0,1.8-0.7,3.1-2.2,3.8c0,0-0.2,0.2,0,0.2L-993.3,413.5z M-1000,404.2
			C-1000,404.2-1000.2,404.2-1000,404.2l-0.2,3.3c0,0.2,0,0.2,0.2,0.2h1.3c0.7,0,1.3-0.2,1.8-0.4c0.4-0.2,0.7-0.9,0.7-1.3
			c0-0.7-0.2-1.1-0.7-1.3c-0.4-0.2-0.9-0.4-1.8-0.4H-1000z"/>
		<path class="st0" d="M-975.6,409.5h-2l0,0l0,0c0.7,1.8,1.3,3.1,2.4,4c0.2,0.2,0.4,0.4,0.4,0.9c0,0,0,0,0,0.2c0,0.2,0,0.4-0.2,0.9
			c-0.2,0.2-0.4,0.4-0.9,0.7h-0.2c-0.2,0-0.4,0-0.7-0.2c-0.9-0.9-1.8-2.2-2.2-3.6l0,0l0,0c-0.7,1.3-1.8,2.7-2.9,3.6
			c-0.2,0.2-0.7,0.2-0.9,0.2h-0.2c-0.4,0-0.9-0.2-1.1-0.7l-0.2-0.2h-0.2c-0.9,0.2-2.4,0.4-4.2,0.9h-0.2c-0.2,0-0.4,0-0.7-0.2
			c-0.2-0.2-0.4-0.4-0.4-0.7v-0.2c0-0.2,0-0.4,0.2-0.7c0.2-0.2,0.4-0.4,0.7-0.4c0.4,0,0.7-0.2,1.1-0.2c0.2,0,0.2,0,0.2-0.2v-3.8
			c0-0.2,0-0.2-0.2-0.2h-0.9c-0.2,0-0.7,0-0.7-0.2c-0.2-0.2-0.2-0.4-0.2-0.7s0-0.7,0.2-0.7c0.2-0.2,0.4-0.2,0.7-0.2h0.9
			c0.2,0,0.2,0,0.2-0.2v-0.7c0,0,0-0.2-0.2-0.2h-0.7c-0.2,0-0.4,0-0.4-0.2c-0.2-0.2-0.2-0.2-0.2-0.4l0,0c0,0,0,0-0.2,0
			c-0.2-0.2-0.4-0.4-0.7-0.9c-0.2-0.2-0.2-0.4-0.2-0.9c0-0.2,0-0.4,0.2-0.9c0.7-0.7,1.3-1.6,1.8-2.4c0.2-0.2,0.4-0.4,0.7-0.7
			c0.2-0.2,0.7-0.2,0.9-0.2c0.7,0,1.3,0.2,2,0.7c0.9,0.9,1.6,1.6,2,2l0,0l0,0c0-0.2,0.2-0.7,0.2-0.9c0-0.2,0.2-0.7,0.4-0.7
			c0.2-0.2,0.4-0.2,0.7-0.2h0.2c0.2,0,0.7,0.2,0.9,0.4c0.2,0.2,0.2,0.4,0.2,0.7v0.2c0,0.2,0,0.2,0,0.4l0,0l0,0h0.2
			c0.2,0,0.2,0,0.2-0.2v-1.3c0-0.4,0.2-0.7,0.4-0.9c0.2-0.2,0.4-0.4,0.9-0.4c0.4,0,0.7,0.2,0.9,0.4c0.2,0.2,0.4,0.4,0.4,0.9v1.3
			c0,0.2,0,0.2,0.2,0.2h1.8c0.4,0,0.7,0.2,0.9,0.4c0.2,0.2,0.4,0.4,0.4,0.9c0,0.4-0.2,0.7-0.4,0.9c-0.2,0.2-0.4,0.4-0.9,0.4h-1.8
			c-0.2,0-0.2,0-0.2,0.2v0.7c0,0.4,0,0.9,0,1.1c0,0,0,0,0,0.2c0,0,0,0,0.2,0h2.2c0.2,0,0.7,0.2,0.9,0.4c0.2,0.2,0.4,0.4,0.4,0.9
			c0,0.4-0.2,0.7-0.4,0.9C-974.9,409.3-975.3,409.5-975.6,409.5z M-990.7,411.1L-990.7,411.1c0-0.4,0-0.4,0-0.7
			c0.2-0.2,0.2-0.2,0.4-0.4h0.2c0.2,0,0.2,0,0.4,0.2c0.2,0.2,0.2,0.2,0.4,0.4c0,0.4,0.2,0.9,0.2,1.3v0.2c0,0.2,0,0.4-0.2,0.4
			c-0.2,0.2-0.2,0.4-0.7,0.4h-0.2c-0.2,0-0.2,0-0.4-0.2c-0.2-0.2-0.2-0.2-0.2-0.4C-990.4,412-990.4,411.5-990.7,411.1z M-988.7,404
			L-988.7,404C-988.7,404.2-988.7,404.2-988.7,404l2.9,0.2l0,0l0,0c-0.4-0.7-0.9-1.3-1.6-1.8h-0.2
			C-987.8,402.9-988.2,403.5-988.7,404z M-984.9,412.9c0.2,0,0.4,0,0.4,0.2c0.2,0.2,0.2,0.2,0.2,0.4v0.2l0,0l0,0
			c1.6-1.1,2.4-2.4,2.9-4.2l0,0l0,0h-1.6c-0.2,0-0.7-0.2-0.9-0.4c-0.2-0.2-0.4-0.4-0.4-0.9c0-0.4,0.2-0.7,0.4-0.9
			c0.2-0.2,0.4-0.4,0.9-0.4h2c0.2,0,0.2,0,0.2-0.2c0-0.2,0-0.7,0-1.3v-0.4c0-0.2,0-0.2-0.2-0.2h-1.1c-0.2,0-0.2,0-0.2,0.2
			c0,0.2-0.2,0.4-0.2,0.4c-0.2,0.4-0.4,0.7-0.9,0.7c-0.2,0-0.2,0-0.4,0c-0.2,0-0.4,0-0.7-0.2c-0.2-0.2-0.4-0.2-0.7-0.2l0,0v0.2h-0.2
			h-1.1c-0.2,0-0.2,0-0.2,0.2v0.7c0,0.2,0,0.2,0.2,0.2h0.9c0.2,0,0.4,0,0.7,0.2c0.2,0.2,0.2,0.4,0.2,0.7c0,0.2,0,0.7-0.2,0.7
			c-0.2,0.2-0.4,0.2-0.7,0.2h-0.9c-0.2,0-0.2,0-0.2,0.2v2.7l0,0l0,0c0.2-0.4,0.2-0.9,0.2-1.6c0-0.2,0.2-0.4,0.4-0.7
			c0.2,0,0.2-0.2,0.4-0.2h0.2c0.2,0,0.4,0.2,0.7,0.4c0,0.2,0.2,0.2,0.2,0.4v0.2C-984.7,412.2-984.9,412.9-984.9,412.9L-984.9,412.9
			L-984.9,412.9z M-986.2,412.6L-986.2,412.6C-986.4,412.6-986.4,412.6-986.2,412.6l-0.2,0.4c0,0,0,0,0,0.2c0,0,0,0,0.2,0l1.1-0.2
			l0,0l0,0L-986.2,412.6z M-983.8,403.1C-983.8,402.9-983.8,402.9-983.8,403.1C-983.8,402.9-983.8,402.9-983.8,403.1l-1.1,1.1
			l-0.2,0.2v1.1l0,0l0,0C-984.2,404.9-984,404-983.8,403.1z"/>
		<path class="st0" d="M-972.2,406.6c0.4,0,0.7,0.2,1.1,0.4c0.2,0.2,0.4,0.7,0.4,1.1v4c0,0.2,0,0.2,0,0.2c0.7,0.9,1.8,1.3,3.6,1.6
			c0.9,0,1.8,0,2.7,0c1.6,0,3.1,0,4.9-0.2l0,0c0.2,0,0.4,0.2,0.7,0.4c0.2,0.2,0.2,0.4,0.2,0.7v0.2c-0.2,0.4-0.4,0.7-0.7,0.9
			c-0.2,0.2-0.7,0.4-1.1,0.4c-1.3,0-2.4,0-3.6,0s-2.2,0-3.1,0c-1.1,0-2-0.2-2.7-0.4c-0.7-0.2-1.3-0.7-2-1.3h-0.2
			c-0.4,0.4-0.9,0.7-1.1,0.9c-0.2,0.2-0.4,0.2-0.7,0.2h-0.2c-0.4,0-0.7-0.2-0.9-0.7c0-0.2-0.2-0.4-0.2-0.7c0-0.2,0-0.2,0-0.4
			c0.2-0.4,0.4-0.7,0.7-0.9c0.2-0.2,0.7-0.4,0.9-0.7l0.2-0.2v-2.9c0-0.2,0-0.2-0.2-0.2h-0.4c-0.4,0-0.7-0.2-0.9-0.4
			c-0.2-0.2-0.4-0.4-0.4-0.9s0.2-0.7,0.4-0.9c0.2-0.2,0.4-0.4,0.9-0.4h1.8V406.6z M-971.1,401.8c0.2,0.2,0.4,0.4,0.4,0.9
			c0,0,0,0,0,0.2c0,0.4-0.2,0.7-0.4,0.9c-0.2,0.2-0.4,0.2-0.9,0.2c0,0,0,0-0.2,0c-0.4,0-0.7-0.2-0.9-0.4c-0.2-0.2-0.7-0.7-0.9-0.9
			c-0.2-0.2-0.4-0.4-0.4-0.9c0-0.2,0.2-0.7,0.4-0.9c0.2-0.2,0.7-0.4,0.9-0.4l0,0c0.4,0,0.7,0,0.9,0.2
			C-971.8,401.1-971.3,401.5-971.1,401.8z M-968.9,405.8c0-0.4,0.2-0.7,0.4-1.1c0.2-0.2,0.7-0.4,1.1-0.4h0.9c0.2,0,0.2,0,0.2-0.2
			v-0.2c0,0,0,0,0-0.2c0,0,0,0-0.2,0h-2.9c-0.2,0-0.4,0-0.7-0.2c-0.2-0.2-0.2-0.4-0.2-0.7c0-0.2,0-0.4,0.2-0.7
			c0.2-0.2,0.4-0.2,0.7-0.2h1.1l0,0l0,0c0-0.2-0.2-0.2-0.2-0.4v-0.2c0-0.2,0.2-0.4,0.4-0.4l0,0c0.2,0,0.2,0,0.4,0s0.2,0,0.4,0
			c0.2,0,0.4,0.2,0.7,0.4c0.2,0.4,0.4,0.7,0.4,0.9l0,0h1.6c0.2,0,0.2,0,0.2-0.2c0-0.2,0.2-0.2,0.2-0.4c0.2-0.4,0.4-0.7,0.7-0.9
			c0.2-0.2,0.4-0.2,0.7-0.2h0.2c0.2,0,0.4,0.2,0.7,0.4c0,0.2,0,0.2,0,0.4c0,0.2,0,0.2-0.2,0.4l0,0l0,0h1.3c0.2,0,0.4,0,0.7,0.2
			c0.2,0.2,0.2,0.4,0.2,0.7c0,0.2,0,0.4-0.2,0.7c-0.2,0.2-0.4,0.2-0.7,0.2h-3.3c-0.2,0-0.2,0-0.2,0.2c-0.2,0.2-0.2,0.4-0.2,0.4l0,0
			l0,0h2c0.4,0,0.7,0.2,1.1,0.4c0.2,0.2,0.4,0.7,0.4,1.1v5.8c0,0.4-0.2,0.9-0.4,1.1c-0.2,0.2-0.7,0.4-1.1,0.4h-6
			c-0.4,0-0.7-0.2-1.1-0.4c-0.2-0.2-0.4-0.7-0.4-1.1v-5.6H-968.9z M-962.7,406.6C-962.4,406.6-962.4,406.6-962.7,406.6l0.2-0.4
			c0-0.2,0-0.2-0.2-0.2h-3.6c-0.2,0-0.2,0-0.2,0.2v0.2c0,0.2,0,0.2,0.2,0.2L-962.7,406.6L-962.7,406.6z M-962.7,408.9
			C-962.4,408.9-962.4,408.9-962.7,408.9l0.2-0.4c0-0.2,0-0.2-0.2-0.2h-3.6c-0.2,0-0.2,0-0.2,0.2v0.2c0,0.2,0,0.2,0.2,0.2
			L-962.7,408.9L-962.7,408.9z M-962.7,411.3C-962.4,411.3-962.4,411.1-962.7,411.3l0.2-0.4c0-0.2,0-0.2-0.2-0.2h-3.6
			c-0.2,0-0.2,0-0.2,0.2v0.2c0,0.2,0,0.2,0.2,0.2L-962.7,411.3L-962.7,411.3z"/>
		<path class="st0" d="M-953.8,407.3c-0.2,0-0.7-0.2-0.9-0.4c-0.2-0.2-0.4-0.4-0.4-0.9l0,0l0,0c-0.4,0.4-1.1,0.7-1.6,1.1
			c-0.2,0-0.4,0.2-0.7,0.2c-0.2,0-0.2,0-0.4,0c-0.4,0-0.7-0.2-0.9-0.7c-0.2-0.2-0.2-0.4-0.2-0.7v-0.2c0-0.2,0.2-0.7,0.7-0.7
			c0.9-0.4,2-1.1,2.9-1.8c0.9-0.7,1.6-1.6,2.2-2.2c0.7-0.7,1.3-1.1,2.2-1.1c0.9,0,1.6,0.4,2.2,1.1c1.6,1.6,3.1,2.9,5.1,3.8
			c0.2,0.2,0.4,0.4,0.7,0.7v0.2c0,0.2,0,0.4-0.2,0.7c-0.2,0.4-0.7,0.7-0.9,0.7c-0.2,0-0.2,0-0.4,0s-0.4,0-0.7-0.2
			c-0.4-0.2-0.9-0.4-1.3-0.9l0,0l0,0c0,0.4-0.2,0.7-0.4,0.9c-0.2,0.2-0.7,0.4-0.9,0.4H-953.8z M-944.5,410.9h-2.2l0,0l0,0
			c1.1,0.9,2,2,2.9,3.1c0.2,0.2,0.2,0.4,0.2,0.7v0.2c0,0.4-0.2,0.7-0.7,0.9l-0.2,0.2c-0.2,0-0.4,0.2-0.4,0.2h-0.2
			c-0.2,0-0.4-0.2-0.7-0.4h-0.2c-2.4,0.2-5.8,0.2-10,0.4l0,0c-0.4,0-0.7,0-0.9-0.2c-0.2-0.2-0.4-0.4-0.4-0.9v-0.2
			c0-0.2,0-0.4,0.2-0.7c0.2-0.2,0.4-0.4,0.9-0.4c0,0,0.4,0,1.3,0c0.2,0,0.2,0,0.2-0.2c0.4-0.7,0.7-1.6,0.9-2.4c0,0,0,0,0-0.2l0,0
			h-2.4c-0.2,0-0.7-0.2-0.9-0.4c-0.2-0.2-0.4-0.4-0.4-0.9s0.2-0.7,0.4-0.9c0.2-0.2,0.4-0.4,0.9-0.4h12.4c0.4,0,0.7,0.2,0.9,0.4
			c0.2,0.2,0.4,0.4,0.4,0.9s-0.2,0.7-0.4,0.9C-944,410.6-944.2,410.9-944.5,410.9z M-953.3,404.9L-953.3,404.9
			C-953.3,405.1-953.3,405.1-953.3,404.9l5.3,0.2l0,0l0,0c-1.1-0.9-2-1.8-2.7-2.4h-0.2C-951.6,403.1-952.4,404-953.3,404.9z
			 M-947.8,410.9L-947.8,410.9L-947.8,410.9h-3.1c-0.2,0-0.2,0-0.2,0.2c-0.4,1.1-0.9,1.8-1.1,2.2l0,0l0,0c0.7,0,2,0,4-0.2l0,0l0,0
			l-0.2-0.2c-0.2-0.2-0.2-0.4-0.2-0.7V412c0-0.4,0.2-0.7,0.7-0.9L-947.8,410.9z"/>
		<path class="st0" d="M-936,408.9c0.2,0.2,0.4,0.7,0.4,0.9c0,0,0,0,0,0.2c0,0.2,0,0.7-0.2,0.9c-0.2,0.2-0.4,0.4-0.9,0.4
			c-0.2,0-0.7-0.2-0.9-0.4c0-0.2-0.2-0.2-0.2-0.4l0,0l0,0v4.9c0,0.4-0.2,0.7-0.4,0.9c-0.2,0.2-0.4,0.4-0.9,0.4
			c-0.4,0-0.7-0.2-0.9-0.4c-0.2-0.2-0.4-0.4-0.4-0.9v-4.2l0,0l0,0c-0.2,0.2-0.4,0.4-0.7,0.4c-0.2,0.2-0.4,0.2-0.7,0.2h-0.2
			c-0.4,0-0.7-0.2-0.7-0.7c0-0.2-0.2-0.4-0.2-0.7c0-0.2,0-0.2,0-0.4c0-0.4,0.2-0.7,0.7-0.9c1.3-0.9,2.4-2.2,3.3-3.6l0,0l0,0h-2.7
			c-0.2,0-0.7-0.2-0.9-0.4c-0.2-0.2-0.4-0.4-0.4-0.9c0-0.4,0.2-0.7,0.4-0.9c0.2-0.2,0.4-0.4,0.9-0.4h1.1c0.2,0,0.2,0,0.2-0.2v-1.6
			c0-0.4,0.2-0.7,0.4-0.9c0.2-0.2,0.7-0.4,0.9-0.4c0.4,0,0.7,0.2,0.9,0.4c0.2,0.2,0.4,0.4,0.4,0.9v1.8c0,0.2,0,0.2,0.2,0.2h0.2l0,0
			h0.2c0.2,0,0.4,0,0.4,0.2l0.4,0.2c0.2,0.2,0.4,0.2,0.4,0.7v0.2c0,0.2,0,0.2,0,0.4c-0.4,0.9-0.9,2-1.6,2.9v0.2
			C-936.9,408-936.5,408.4-936,408.9z M-929.8,413.3C-929.8,413.5-929.8,413.5-929.8,413.3l2.2,0.2c0.4,0,0.7,0.2,0.9,0.4
			c0.2,0.2,0.4,0.4,0.4,0.9c0,0.4-0.2,0.7-0.4,0.9c-0.2,0.2-0.4,0.4-0.9,0.4h-7.6c-0.4,0-0.7-0.2-0.9-0.4c-0.2-0.2-0.4-0.4-0.4-0.9
			c0-0.4,0.2-0.7,0.4-0.9c0.2-0.2,0.4-0.4,0.9-0.4h2.4c0.2,0,0.2,0,0.2-0.2v-5.6c0-0.2,0-0.2-0.2-0.2h-1.8c-0.4,0-0.7-0.2-0.9-0.4
			s-0.4-0.4-0.4-0.9c0-0.4,0.2-0.7,0.4-0.9c0.2-0.2,0.4-0.4,0.9-0.4h1.8c0.2,0,0.2,0,0.2-0.2v-3.6c0-0.4,0.2-0.7,0.4-0.9
			c0.2-0.2,0.7-0.4,0.9-0.4c0.2,0,0.7,0.2,0.9,0.4c0.2,0.2,0.4,0.7,0.4,0.9v3.6c0,0.2,0,0.2,0.2,0.2h1.8c0.4,0,0.7,0.2,0.9,0.4
			c0.2,0.2,0.4,0.4,0.4,0.9c0,0.4-0.2,0.7-0.4,0.9c-0.2,0.2-0.4,0.4-0.9,0.4h-1.8c-0.2,0-0.2,0-0.2,0.2L-929.8,413.3L-929.8,413.3z"
			/>
	</g>
	<g id="layer1" transform="translate(-305.15304,-478.05534)">
		<path id="path3364_2_" class="st0" d="M-685.6,873.2v-16.4v-22.7h-24.2v-12h73.3c8.7,0,10.4,12.4,10.4,15.8
			c0,3.1-1.6,16.9-9.6,16.9h-5.1l14.7,18.4h-16.4l-24-30h24.9c2.9,0,3.1-4,3.1-4.9c0-0.9-0.2-4.2-2.9-4.2h-30.9v22.7v16.7"/>
	</g>
	<g>
		<path class="st0" d="M-914.5,370.7c-0.7,0-1.1-0.2-1.6-0.7c-0.4-0.4-0.7-0.9-0.7-1.6v-12.2c0-0.2,0-0.2-0.2-0.2h-2.9
			c-0.4,0-0.9-0.2-1.3-0.4c-0.4-0.4-0.4-0.9-0.4-1.3c0-0.4,0.2-0.9,0.4-1.3c0.4-0.4,0.7-0.4,1.3-0.4h10.7c0.4,0,0.9,0.2,1.3,0.4
			c0.4,0.4,0.4,0.9,0.4,1.3c0,0.4-0.2,0.9-0.4,1.3c-0.4,0.4-0.9,0.4-1.3,0.4h-2.9c-0.2,0-0.2,0-0.2,0.2v12.2c0,0.7-0.2,1.1-0.7,1.6
			C-913.1,370.4-913.6,370.7-914.5,370.7L-914.5,370.7z"/>
		<path class="st0" d="M-904.9,354.9c-0.7,0-1.3-0.2-1.8-0.7c-0.4-0.4-0.7-0.9-0.7-1.6s0.2-1.1,0.7-1.6c0.4-0.4,1.1-0.7,1.8-0.7
			s1.3,0.2,1.8,0.7c0.4,0.4,0.7,0.9,0.7,1.6s-0.2,1.1-0.7,1.6C-903.8,354.7-904.2,354.9-904.9,354.9z M-905.1,370.7
			c-0.7,0-1.1-0.2-1.6-0.7c-0.4-0.4-0.7-0.9-0.7-1.6v-9.6c0-0.7,0.2-1.1,0.7-1.6c0.4-0.4,0.9-0.7,1.6-0.7h0.2c0.7,0,1.1,0.2,1.6,0.7
			c0.4,0.4,0.7,0.9,0.7,1.6v9.8c0,0.7-0.2,1.1-0.7,1.6C-903.8,370.4-904.5,370.7-905.1,370.7L-905.1,370.7z"/>
		<path class="st0" d="M-897.8,370.9c-1.3,0-2.4-0.4-3.1-1.3c-0.7-0.9-0.9-2-0.9-3.6v-12.9c0-0.7,0.2-1.1,0.7-1.6
			c0.4-0.4,0.9-0.7,1.6-0.7h0.2c0.7,0,1.1,0.2,1.6,0.7c0.4,0.4,0.7,0.9,0.7,1.6v13.1c0,0.4,0.2,0.9,0.4,1.1c0,0,0,0,0.2,0.2
			c0.2,0,0.2,0.2,0.2,0.2s0,0,0.2,0.2l0.2,0.2v0.2l0.2,0.7c0,0.2,0,0.2,0,0.4c0,0.4,0,0.7-0.2,0.9c-0.2,0.4-0.7,0.7-1.1,0.7
			C-897.3,370.9-897.6,370.9-897.8,370.9z"/>
		<path class="st0" d="M-890,370.9c-0.9,0-1.8-0.2-2.7-0.4c-0.9-0.4-1.6-0.9-2.2-1.3c-0.7-0.7-1.1-1.3-1.6-2.2
			c-0.4-0.9-0.7-2-0.7-3.1s0.2-2.2,0.7-3.1c0.4-0.9,0.9-1.8,1.6-2.2c0.7-0.7,1.3-1.1,2.2-1.3c0.9-0.4,1.8-0.4,2.7-0.4
			c0.9,0,1.8,0.2,2.4,0.4c0.9,0.4,1.6,0.9,2.2,1.3c0.7,0.7,1.1,1.3,1.6,2.2s0.7,2,0.7,3.1s-0.2,2.2-0.7,3.1
			c-0.4,0.9-0.9,1.8-1.6,2.2c-0.7,0.7-1.3,1.1-2.2,1.3C-888.5,370.9-889.1,370.9-890,370.9z M-890,367.5c0.9,0,1.3-0.2,1.8-0.9
			c0.4-0.7,0.7-1.6,0.7-2.9c0-1.1-0.2-2.2-0.7-2.9c-0.4-0.7-0.9-1.1-1.8-1.1c-0.9,0-1.3,0.4-1.8,1.1c-0.4,0.7-0.7,1.6-0.7,2.9
			c0,1.1,0.2,2.2,0.7,2.9C-891.6,367.1-890.9,367.5-890,367.5z"/>
		<path class="st0" d="M-865.8,368.9c0.2,0.2,0.2,0.4,0.2,0.7c0,0.2,0,0.4-0.2,0.7c-0.2,0.4-0.7,0.7-1.1,0.7h-0.7
			c-0.7,0-1.3-0.2-1.8-0.4c-0.4-0.4-0.9-0.9-1.3-1.3l-2.2-4.4c0-0.2-0.2-0.2-0.4-0.2h-1.6c-0.2,0-0.2,0-0.2,0.2v4
			c0,0.7-0.2,1.1-0.7,1.6c-0.4,0.4-0.9,0.7-1.6,0.7h-0.2c-0.7,0-1.1-0.2-1.6-0.7c-0.4-0.4-0.7-0.9-0.7-1.6v-14.2
			c0-0.7,0.2-1.1,0.7-1.6c0.4-0.4,0.9-0.7,1.6-0.7h4.7c4.7,0,7.1,2,7.1,5.8c0,2.4-0.9,4.2-2.9,5.1c-0.2,0-0.2,0.2,0,0.2
			L-865.8,368.9z M-874.9,356c-0.2,0-0.2,0-0.2,0.2v4.4c0,0.2,0,0.2,0.2,0.2h1.8c1.1,0,1.8-0.2,2.4-0.7c0.4-0.4,0.9-1.1,0.9-2
			c0-0.9-0.2-1.3-0.7-1.8c-0.4-0.4-1.3-0.4-2.4-0.4L-874.9,356L-874.9,356z"/>
		<path class="st0" d="M-861.6,370.9c-1.3,0-2.2-0.4-2.9-1.1c-0.7-0.9-1.1-1.8-1.1-3.1c0-1.6,0.7-2.7,1.8-3.3
			c1.1-0.9,3.1-1.3,5.8-1.8c0.2,0,0.2,0,0.2-0.2c-0.2-1.1-0.9-1.6-2-1.6c-0.7,0-1.3,0.2-2.2,0.4c-0.2,0-0.4,0.2-0.7,0.2
			c-0.2,0-0.4,0-0.4,0c-0.4-0.2-0.7-0.4-0.9-0.7c-0.2-0.2-0.2-0.4-0.2-0.9c0-0.2,0-0.2,0-0.4c0.2-0.4,0.4-0.7,0.9-0.9
			c1.6-0.7,3.1-1.1,4.7-1.1c3.8,0,5.6,2.2,5.6,6.4v6.2c0,0.4-0.2,0.9-0.4,1.3c-0.4,0.4-0.7,0.4-1.3,0.4h-0.4c-0.4,0-0.7-0.2-0.9-0.4
			c-0.2-0.2-0.4-0.4-0.7-0.9l0,0l0,0l0,0C-858.9,370.4-860.2,370.9-861.6,370.9z M-860,367.5c0.7,0,1.3-0.2,2-0.9
			c0,0,0.2-0.2,0.2-0.4v-1.8v-0.2c0,0,0,0-0.2,0l0,0c-2.2,0.4-3.3,1.1-3.3,2c0,0.4,0.2,0.7,0.4,0.9
			C-860.9,367.5-860.5,367.5-860,367.5z"/>
		<path class="st0" d="M-850.5,354.9c-0.7,0-1.3-0.2-1.8-0.7c-0.4-0.4-0.7-0.9-0.7-1.6s0.2-1.1,0.7-1.6c0.4-0.4,1.1-0.7,1.8-0.7
			c0.7,0,1.3,0.2,1.8,0.7c0.4,0.4,0.7,0.9,0.7,1.6s-0.2,1.1-0.7,1.6C-849.1,354.7-849.8,354.9-850.5,354.9z M-850.7,370.7
			c-0.7,0-1.1-0.2-1.6-0.7s-0.7-0.9-0.7-1.6v-9.6c0-0.7,0.2-1.1,0.7-1.6c0.4-0.4,0.9-0.7,1.6-0.7h0.2c0.7,0,1.1,0.2,1.6,0.7
			c0.4,0.4,0.7,0.9,0.7,1.6v9.8c0,0.7-0.2,1.1-0.7,1.6C-849.4,370.4-849.8,370.7-850.7,370.7L-850.7,370.7z"/>
		<path class="st0" d="M-843.4,370.9c-1.3,0-2.4-0.4-3.1-1.3c-0.7-0.9-0.9-2-0.9-3.6v-12.9c0-0.7,0.2-1.1,0.7-1.6
			c0.4-0.4,0.9-0.7,1.6-0.7h0.2c0.7,0,1.1,0.2,1.6,0.7c0.4,0.4,0.7,0.9,0.7,1.6v13.1c0,0.4,0.2,0.9,0.4,1.1c0,0,0,0,0.2,0.2
			c0.2,0,0.2,0.2,0.2,0.2s0,0,0.2,0.2l0.2,0.2v0.2l0.2,0.7c0,0.2,0,0.2,0,0.4c0,0.4,0,0.7-0.2,0.9c-0.2,0.4-0.7,0.7-1.1,0.7
			C-842.9,370.9-843.1,370.9-843.4,370.9z"/>
		<path class="st0" d="M-837.4,370.7c-0.7,0-1.1-0.2-1.6-0.7c-0.4-0.4-0.9-0.9-0.9-1.3l-2.4-9.8c0-0.2,0-0.2,0-0.4
			c0-0.4,0.2-0.7,0.4-0.9c0.2-0.4,0.7-0.7,1.3-0.7h0.2c0.7,0,1.1,0.2,1.6,0.7c0.4,0.4,0.7,0.9,0.9,1.6l0.9,4.2c0,0.4,0.2,1.1,0.2,2
			c0.2,0.9,0.2,1.6,0.2,2l0,0l0,0c0.4-2,0.7-3.3,0.9-4l1.1-4.4c0-0.4,0.4-0.9,0.9-1.3c0.4-0.4,0.9-0.4,1.6-0.4
			c0.4,0,1.1,0.2,1.6,0.4c0.4,0.4,0.7,0.9,0.9,1.3l1.1,4.4c0.2,0.4,0.2,1.3,0.4,2.2c0.2,0.9,0.2,1.6,0.4,1.8l0,0l0,0
			c0-0.2,0-0.9,0.2-1.8c0.2-0.9,0.2-1.8,0.4-2.2l0.9-4.2c0-0.7,0.4-1.1,0.9-1.3c0.4-0.4,0.9-0.7,1.6-0.7c0.4,0,0.9,0.2,1.3,0.7
			c0.2,0.2,0.4,0.7,0.4,0.9c0,0.2,0,0.2,0,0.4l-2.2,10c-0.2,0.7-0.4,1.1-0.9,1.6c-0.4,0.4-1.1,0.7-1.6,0.7h-0.9
			c-0.7,0-1.1-0.2-1.6-0.7c-0.4-0.4-0.9-0.9-0.9-1.6l-0.7-3.3c-0.2-1.1-0.4-2.4-0.7-4l0,0l0,0c-0.2,1.6-0.4,2.9-0.7,4l-0.7,3.3
			c-0.2,0.7-0.4,1.1-0.9,1.6c-0.4,0.4-1.1,0.7-1.6,0.7h-2.4V370.7z"/>
		<path class="st0" d="M-818.7,370.9c-1.3,0-2.2-0.4-2.9-1.1c-0.7-0.9-1.1-1.8-1.1-3.1c0-1.6,0.7-2.7,1.8-3.3
			c1.1-0.9,3.1-1.3,5.8-1.8c0.2,0,0.2,0,0.2-0.2c-0.2-1.1-0.9-1.6-2-1.6c-0.7,0-1.3,0.2-2.2,0.4c-0.2,0-0.4,0.2-0.7,0.2
			c-0.2,0-0.4,0-0.4,0c-0.4-0.2-0.7-0.4-0.9-0.7c-0.2-0.2-0.2-0.4-0.2-0.9c0-0.2,0-0.2,0-0.4c0.2-0.4,0.4-0.7,0.9-0.9
			c1.6-0.7,3.1-1.1,4.7-1.1c3.8,0,5.6,2.2,5.6,6.4v6.2c0,0.4-0.2,0.9-0.4,1.3c-0.4,0.4-0.7,0.4-1.3,0.4h-0.4c-0.4,0-0.7-0.2-0.9-0.4
			c-0.2-0.2-0.4-0.4-0.7-0.9l0,0l0,0l0,0C-816,370.4-817.4,370.9-818.7,370.9z M-817.1,367.5c0.7,0,1.3-0.2,2-0.9
			c0.2,0,0.2-0.2,0.2-0.4v-1.8v-0.2c0,0,0,0-0.2,0l0,0c-2.2,0.4-3.3,1.1-3.3,2c0,0.4,0.2,0.7,0.4,0.9
			C-818,367.5-817.6,367.5-817.1,367.5z"/>
		<path class="st0" d="M-808.3,376c-0.2,0-0.2,0-0.4,0c-0.4,0-0.9-0.2-1.1-0.7c-0.2-0.2-0.2-0.7-0.2-0.9c0-0.2,0-0.2,0-0.4
			c0.2-0.7,0.9-1.3,2-1.6c0.9-0.2,1.3-0.7,1.6-1.6l0.2-0.4c0-0.2,0-0.2,0-0.4l-4.4-11.3c0-0.2,0-0.4,0-0.4c0-0.2,0-0.4,0.2-0.7
			c0.2-0.4,0.7-0.7,1.1-0.7h0.2c0.7,0,1.1,0.2,1.6,0.4c0.4,0.4,0.9,0.9,1.1,1.3l1.1,3.8c0,0.2,0.4,1.6,1.1,4l0,0l0,0
			c0.2-0.7,0.4-2,0.9-4l1.1-3.8c0.2-0.7,0.4-1.1,0.9-1.3c0.4-0.4,1.1-0.4,1.6-0.4c0.4,0,0.9,0.2,1.1,0.7c0.2,0.2,0.2,0.4,0.2,0.9
			c0,0.2,0,0.2,0,0.4l-4,12c-0.7,2-1.6,3.3-2.4,4C-805.4,375.5-806.5,376-808.3,376z"/>
		<path class="st0" d="M-912.2,396.4c-1.1,0-2.2-0.2-3.3-0.7s-2-0.9-2.7-1.8c-0.9-0.7-1.3-1.8-1.8-2.9s-0.7-2.4-0.7-4
			c0-1.6,0.2-2.9,0.7-4c0.4-1.1,1.1-2.2,2-3.1c0.9-0.9,1.8-1.3,2.7-1.8c1.1-0.4,2.2-0.7,3.3-0.7c1.6,0,2.9,0.4,4.2,1.1
			c0.4,0.2,0.7,0.7,0.7,1.1c0,0,0,0,0,0.2c0,0.4-0.2,0.9-0.4,1.1c-0.2,0.4-0.7,0.4-1.1,0.7h-0.2c-0.4,0-0.9,0-1.1-0.2
			c-0.4-0.2-1.1-0.4-1.8-0.4c-1.1,0-2.2,0.4-3.1,1.6c-0.9,1.1-1.3,2.4-1.3,4.2c0,1.8,0.4,3.1,1.1,4.2c0.7,1.1,1.8,1.6,3.1,1.6
			c0.7,0,1.3-0.2,2-0.4c0.4-0.2,0.7-0.4,1.1-0.4h0.2c0.4,0,0.9,0.2,1.1,0.7s0.4,0.9,0.4,1.3c0,0.7-0.2,0.9-0.7,1.3
			C-908.9,396-910.5,396.4-912.2,396.4z"/>
		<path class="st0" d="M-900.5,396.4c-0.9,0-1.8-0.2-2.7-0.4c-0.9-0.4-1.6-0.9-2.2-1.3c-0.7-0.7-1.1-1.3-1.6-2.2
			c-0.4-0.9-0.7-2-0.7-3.1s0.2-2.2,0.7-3.1c0.4-0.9,0.9-1.8,1.6-2.2c0.7-0.7,1.3-1.1,2.2-1.3c0.9-0.4,1.8-0.4,2.7-0.4
			c0.9,0,1.8,0.2,2.4,0.4c0.9,0.4,1.6,0.9,2.2,1.3c0.7,0.7,1.1,1.3,1.6,2.2s0.7,2,0.7,3.1s-0.2,2.2-0.7,3.1
			c-0.4,0.9-0.9,1.8-1.6,2.2c-0.7,0.7-1.3,1.1-2.2,1.3C-898.7,396.2-899.6,396.4-900.5,396.4z M-900.5,392.9c0.9,0,1.3-0.2,1.8-0.9
			c0.4-0.7,0.7-1.6,0.7-2.9c0-1.3-0.2-2.2-0.7-2.9c-0.4-0.7-0.9-1.1-1.8-1.1c-0.9,0-1.3,0.4-1.8,1.1c-0.4,0.7-0.7,1.6-0.7,2.9
			c0,1.3,0.2,2.2,0.7,2.9C-901.8,392.4-901.3,392.9-900.5,392.9z"/>
		<path class="st0" d="M-891.4,396c-0.7,0-1.1-0.2-1.6-0.7c-0.4-0.4-0.7-0.9-0.7-1.6v-10c0-0.4,0.2-0.9,0.4-1.3
			c0.4-0.4,0.7-0.4,1.3-0.4h0.2c0.4,0,0.9,0.2,1.1,0.4c0.4,0.2,0.7,0.7,0.7,1.1v0.2l0,0l0,0c0.7-0.7,1.3-1.1,2-1.6
			c0.7-0.4,1.3-0.4,2.2-0.4c1.8,0,2.9,0.7,3.8,2c0,0,0,0,0.2,0c0,0,0,0,0.2,0c0.7-0.7,1.3-1.1,2-1.6c0.7-0.4,1.3-0.7,2.2-0.7
			c1.6,0,2.4,0.4,3.3,1.6c0.7,0.9,1.1,2.4,1.1,4.2v6.4c0,0.7-0.2,1.1-0.7,1.6c-0.4,0.4-0.9,0.7-1.6,0.7h-0.2c-0.7,0-1.1-0.2-1.6-0.7
			c-0.4-0.4-0.7-0.9-0.7-1.6v-6c0-0.9-0.2-1.6-0.4-2c-0.2-0.4-0.7-0.4-1.3-0.4c-0.7,0-1.3,0.4-2,1.1c0,0.2-0.2,0.2-0.2,0.4v6.9
			c0,0.7-0.2,1.1-0.7,1.6c-0.4,0.4-0.9,0.7-1.6,0.7h-0.2c-0.7,0-1.1-0.2-1.6-0.7c-0.4-0.4-0.7-0.9-0.7-1.6v-6c0-0.9-0.2-1.6-0.4-2
			c-0.2-0.4-0.7-0.4-1.3-0.4c-0.7,0-1.3,0.4-2,1.1c-0.2,0.2-0.2,0.2-0.2,0.4v6.9c0,0.7-0.2,1.1-0.7,1.6
			C-890,395.8-890.5,396-891.4,396L-891.4,396z"/>
		<path class="st0" d="M-869.4,401.1c-0.7,0-1.1-0.2-1.6-0.7c-0.4-0.4-0.7-0.9-0.7-1.6v-15.1c0-0.4,0.2-0.9,0.4-1.3
			c0.4-0.4,0.7-0.4,1.3-0.4h0.4c0.4,0,0.7,0.2,0.9,0.4c0.2,0.2,0.4,0.4,0.4,0.9l0,0l0,0l0,0c1.3-1.1,2.4-1.6,3.8-1.6
			c1.8,0,2.9,0.7,4,2c0.9,1.3,1.6,2.9,1.6,5.1c0,1.1-0.2,2.2-0.4,3.1c-0.2,0.9-0.7,1.8-1.3,2.4c-0.4,0.7-1.1,1.1-1.8,1.3
			c-0.7,0.4-1.3,0.4-2.2,0.4c-1.1,0-2.2-0.4-3.1-1.3l0,0l0,0l0.2,2v2c0,0.7-0.2,1.1-0.7,1.6C-868,400.9-868.7,401.1-869.4,401.1
			L-869.4,401.1z M-864.9,392.9c0.7,0,1.3-0.2,1.8-0.9c0.4-0.7,0.7-1.6,0.7-2.9c0-1.3-0.2-2.2-0.4-2.7c-0.4-0.7-0.9-0.9-1.8-0.9
			c-0.7,0-1.3,0.4-2,1.1c-0.2,0-0.2,0.2-0.2,0.4v5.1c0,0.2,0,0.2,0.2,0.4C-866.2,392.7-865.8,392.9-864.9,392.9z"/>
		<path class="st0" d="M-854.2,396.4c-1.3,0-2.2-0.4-2.9-1.1c-0.7-0.9-1.1-1.8-1.1-3.1c0-1.6,0.7-2.7,1.8-3.3
			c1.1-0.9,3.1-1.3,5.8-1.8c0.2,0,0.2,0,0.2-0.2c-0.2-1.1-0.9-1.6-2-1.6c-0.7,0-1.3,0.2-2.2,0.4c-0.2,0.2-0.4,0.2-0.7,0.2
			c-0.2,0-0.4,0-0.4,0c-0.4-0.2-0.7-0.4-0.9-0.7c-0.2-0.2-0.2-0.4-0.2-0.9c0-0.2,0-0.2,0-0.4c0.2-0.4,0.4-0.7,0.9-0.9
			c1.6-0.7,3.1-1.1,4.7-1.1c3.8,0,5.6,2.2,5.6,6.4v6.2c0,0.4-0.2,0.9-0.4,1.3c-0.4,0.4-0.7,0.4-1.3,0.4h-0.4c-0.4,0-0.7-0.2-0.9-0.4
			c-0.2-0.2-0.4-0.4-0.7-0.9l0,0l0,0l0,0C-851.6,395.8-852.9,396.4-854.2,396.4z M-852.7,393.1c0.7,0,1.3-0.2,2-0.9
			c0.2-0.2,0.2-0.2,0.2-0.4V390v-0.2c0,0,0,0-0.2,0l0,0c-2.2,0.4-3.3,1.1-3.3,2c0,0.4,0.2,0.7,0.4,0.9
			C-853.6,392.9-853.4,393.1-852.7,393.1z"/>
		<path class="st0" d="M-843.4,396c-0.7,0-1.1-0.2-1.6-0.7c-0.4-0.4-0.7-0.9-0.7-1.6v-10c0-0.4,0.2-0.9,0.4-1.3
			c0.4-0.4,0.7-0.4,1.3-0.4h0.2c0.4,0,0.9,0.2,1.1,0.4c0.4,0.2,0.4,0.7,0.7,1.1v0.2l0,0l0,0c1.3-1.3,2.9-2,4.4-2
			c1.6,0,2.4,0.4,3.3,1.6c0.7,0.9,1.1,2.4,1.1,4.2v6.4c0,0.7-0.2,1.1-0.7,1.6c-0.4,0.4-0.9,0.7-1.6,0.7h-0.2c-0.7,0-1.1-0.2-1.6-0.7
			c-0.4-0.4-0.7-0.9-0.7-1.6v-6c0-0.9-0.2-1.6-0.4-2c-0.2-0.4-0.7-0.4-1.3-0.4c-0.4,0-0.9,0-1.1,0.2c-0.2,0.2-0.7,0.4-1.1,0.9
			c-0.2,0.2-0.2,0.2-0.2,0.4v6.9c0,0.7-0.2,1.1-0.7,1.6S-842.7,396-843.4,396L-843.4,396z"/>
		<path class="st0" d="M-830,401.5c-0.2,0-0.2,0-0.4,0c-0.4,0-0.9-0.2-1.1-0.7c-0.2-0.2-0.2-0.7-0.2-0.9c0-0.2,0-0.2,0-0.4
			c0.2-0.7,0.9-1.3,2-1.6c0.9-0.2,1.3-0.7,1.6-1.6l0.2-0.4c0-0.2,0-0.2,0-0.4l-4.4-11.3c0-0.2,0-0.4,0-0.4c0-0.2,0-0.4,0.2-0.7
			c0.2-0.4,0.7-0.7,1.1-0.7h0.2c0.7,0,1.1,0.2,1.6,0.4c0.4,0.4,0.9,0.9,1.1,1.3l1.1,3.8c0,0.2,0.4,1.6,1.1,4l0,0l0,0
			c0.2-0.7,0.4-2,0.9-4l1.1-3.8c0.2-0.7,0.4-1.1,0.9-1.3c0.4-0.4,1.1-0.4,1.6-0.4c0.4,0,0.9,0.2,1.1,0.7c0.2,0.2,0.2,0.4,0.2,0.9
			c0,0.2,0,0.2,0,0.4l-4,12c-0.7,2-1.6,3.3-2.4,4C-827.4,401.1-828.5,401.5-830,401.5z"/>
	</g>
</g>
<g>
	<g>
		<path class="st0" d="M-898.6,465.1c-1.3,0-2.5-0.4-3.6-1.2c-1.1-0.8-1.8-1.8-2.2-3.1l-9.2-30.9c-0.1-0.3-0.2-0.7-0.2-1
			c0-0.7,0.2-1.3,0.7-2c0.7-0.9,1.6-1.3,2.7-1.3h1c1.3,0,2.5,0.4,3.5,1.2c1,0.8,1.7,1.9,2.1,3.2l3.4,13.6c0.4,1.5,0.9,3.6,1.5,6.3
			c0.6,2.8,1.1,4.8,1.5,6.2c0,0.1,0.1,0.1,0.2,0.1c0.1,0,0.1,0,0.2-0.1c0.3-1.4,0.8-3.5,1.5-6.2c0.6-2.8,1.1-4.9,1.5-6.3l3.4-13.6
			c0.3-1.3,1-2.4,2-3.2c1-0.8,2.2-1.2,3.5-1.2h0.7c1.1,0,2,0.4,2.7,1.3c0.4,0.6,0.7,1.3,0.7,2c0,0.3-0.1,0.6-0.2,1l-9.3,30.9
			c-0.4,1.3-1.2,2.3-2.2,3.1c-1.1,0.8-2.3,1.2-3.6,1.2H-898.6z"/>
		<path class="st0" d="M-880.8,482.8c-0.7,0-1.3-0.3-1.9-0.8c-0.5-0.5-0.8-1.1-0.8-1.9v-12.7c0-0.6,0.2-1.2,0.7-1.6
			c0.4-0.4,1-0.7,1.6-0.7h0.2c0.6,0,1.1,0.2,1.5,0.6c0.4,0.4,0.7,0.9,0.8,1.4l0,0.2c0,0,0,0.1,0.1,0.1c0,0,0.1,0,0.1,0
			c0.8-0.8,1.7-1.5,2.5-2c0.8-0.5,1.8-0.7,2.8-0.7c2.2,0,3.8,0.9,4.7,2.6c0,0.1,0.1,0.1,0.2,0.1c0.1,0,0.1,0,0.2-0.1
			c0.8-0.8,1.7-1.5,2.5-2c0.8-0.5,1.8-0.7,2.8-0.7c1.9,0,3.2,0.6,4.1,1.9c0.9,1.3,1.4,3,1.4,5.3v8.3c0,0.7-0.3,1.3-0.8,1.9
			c-0.5,0.5-1.1,0.8-1.9,0.8h-0.2c-0.7,0-1.3-0.3-1.9-0.8c-0.5-0.5-0.8-1.1-0.8-1.9v-7.6c0-1.2-0.2-2-0.5-2.4
			c-0.3-0.5-0.8-0.7-1.6-0.7c-0.8,0-1.7,0.5-2.6,1.4c-0.1,0.1-0.2,0.3-0.2,0.5v8.8c0,0.7-0.3,1.3-0.8,1.9c-0.5,0.5-1.1,0.8-1.9,0.8
			h-0.3c-0.7,0-1.3-0.3-1.9-0.8c-0.5-0.5-0.8-1.1-0.8-1.9v-7.6c0-1.2-0.2-2-0.5-2.4c-0.3-0.5-0.8-0.7-1.6-0.7
			c-0.8,0-1.7,0.5-2.6,1.4c-0.1,0.1-0.2,0.3-0.2,0.5v8.8c0,0.7-0.3,1.3-0.8,1.9c-0.5,0.5-1.1,0.8-1.9,0.8H-880.8z"/>
		<path class="st0" d="M-851.1,483.2c-1.6,0-2.8-0.5-3.8-1.5c-1-1-1.4-2.3-1.4-3.8c0-1.8,0.8-3.3,2.3-4.3c1.5-1,3.9-1.7,7.2-2.1
			c0.2,0,0.3-0.1,0.2-0.3c-0.2-1.3-1.1-2-2.6-2c-0.8,0-1.8,0.2-2.8,0.6c-0.3,0.1-0.6,0.2-0.9,0.2c-0.2,0-0.5,0-0.7-0.1
			c-0.5-0.2-0.9-0.5-1.2-1c-0.2-0.3-0.2-0.7-0.2-1c0-0.2,0-0.4,0.1-0.6c0.2-0.5,0.5-0.9,1-1.2c2-0.9,3.9-1.4,5.8-1.4
			c4.8,0,7.1,2.7,7.1,8v7.8c0,0.6-0.2,1.2-0.7,1.6c-0.4,0.4-1,0.6-1.6,0.6h-0.6c-0.5,0-0.9-0.1-1.3-0.4c-0.4-0.3-0.6-0.7-0.7-1.1
			l0-0.1c0,0-0.1-0.1-0.1-0.1c0,0-0.1,0-0.1,0C-847.7,482.5-849.4,483.2-851.1,483.2z M-849.2,478.9c0.8,0,1.7-0.4,2.4-1.2
			c0.1-0.1,0.2-0.3,0.2-0.5V475c0-0.1,0-0.2-0.1-0.2c-0.1,0-0.1-0.1-0.2-0.1h0c-2.8,0.4-4.3,1.3-4.3,2.7c0,0.5,0.2,0.9,0.5,1.1
			S-849.8,478.9-849.2,478.9z"/>
		<path class="st0" d="M-839,482.8c-0.6,0-1-0.3-1.3-0.8c-0.1-0.2-0.2-0.5-0.2-0.8c0-0.2,0.1-0.5,0.2-0.8l3.9-6.6
			c0.1-0.2,0.1-0.4,0-0.5l-3.6-5.9c-0.1-0.3-0.2-0.5-0.2-0.8c0-0.2,0.1-0.5,0.2-0.8c0.3-0.5,0.7-0.8,1.3-0.8h0.6
			c0.8,0,1.6,0.2,2.3,0.6c0.7,0.4,1.2,1,1.6,1.7l0.2,0.4c0.5,1,0.9,1.9,1.4,2.9c0,0.1,0.1,0.1,0.1,0.1c0.1,0,0.1,0,0.1-0.1
			c0.1-0.4,0.3-0.9,0.6-1.6c0.3-0.7,0.4-1.1,0.5-1.3l0.1-0.3c0.3-0.7,0.8-1.3,1.4-1.8c0.7-0.5,1.4-0.7,2.2-0.7h0.5
			c0.6,0,1,0.3,1.3,0.8c0.1,0.2,0.2,0.5,0.2,0.8c0,0.3-0.1,0.5-0.2,0.8l-3.6,6.5c-0.1,0.2-0.1,0.3,0,0.5l3.8,6
			c0.2,0.3,0.2,0.5,0.2,0.8c0,0.2-0.1,0.5-0.2,0.7c-0.3,0.5-0.7,0.8-1.3,0.8h-0.7c-0.8,0-1.6-0.2-2.3-0.6c-0.7-0.4-1.3-1-1.7-1.7
			l-0.3-0.5c-0.8-1.5-1.3-2.5-1.6-3c0,0-0.1-0.1-0.1-0.1c-0.1,0-0.1,0-0.1,0.1c-0.4,0.8-0.8,1.8-1.3,3l-0.2,0.3
			c-0.3,0.7-0.8,1.3-1.5,1.8c-0.7,0.4-1.4,0.6-2.2,0.6H-839z"/>
	</g>
</g>
<path class="st13" d="M-836.1,1005.3h39.1c8.2,0,15,6.7,15,15v39.1c0,8.2-6.7,15-15,15h-39.1c-8.2,0-15-6.7-15-15v-39.1
	C-851,1012-844.3,1005.3-836.1,1005.3z"/>
<path class="st14" d="M-836.1,1009.8h2.8l-13.2,13.2v-2.8C-846.5,1014.5-841.8,1009.8-836.1,1009.8L-836.1,1009.8z M-826.5,1009.8
	l-20,20v7.7l27.7-27.7H-826.5L-826.5,1009.8z M-812,1009.8l-34.5,34.4v7.7l42.2-42.1H-812L-812,1009.8z M-797.5,1009.8l-49,48.9v0.6
	c0,2,0.6,3.9,1.6,5.5l53.5-53.4c-1.6-1-3.5-1.6-5.5-1.6H-797.5L-797.5,1009.8z M-788.1,1014.8l-53.5,53.4c1.6,1,3.5,1.6,5.5,1.6h0.6
	l48.9-48.9v-0.7C-786.5,1018.3-787.1,1016.4-788.1,1014.8L-788.1,1014.8z M-786.5,1027.7v7.7l-34.5,34.4h-7.7L-786.5,1027.7
	L-786.5,1027.7z M-786.5,1042.2v7.7l-20,20h-7.7L-786.5,1042.2L-786.5,1042.2z M-786.5,1056.6v2.7c0,5.7-4.7,10.4-10.4,10.4h-2.8
	L-786.5,1056.6z"/>
<g id="EmergencyButton">
	<circle class="st15" cx="-815.5" cy="1041.5" r="29.3"/>
	<circle class="st16" cx="-815.5" cy="1041.5" r="27.6"/>
	<circle class="st17" cx="-815.7" cy="1041.5" r="18.7"/>
</g>
<g>
	<g>
		<g>
			<polygon class="st18" points="-797.9,1033 -794,1034 -790.6,1031.9 -793,1041.1 			"/>
		</g>
	</g>
	<path class="st19" d="M-810.2,1019.2c7.5,1.9,13.9,7.4,16.4,15.3"/>
</g>
<g>
	<path class="st19" d="M-837.1,1049.2"/>
	<path class="st19" d="M-808.2,1064.1"/>
</g>
<g>
	<g>
		<g>
			<polygon class="st18" points="-833.7,1049.1 -837.6,1048.1 -841,1050.2 -838.7,1041 			"/>
		</g>
	</g>
	<path class="st19" d="M-821.5,1062.9c-7.5-1.9-13.9-7.4-16.4-15.3"/>
</g>
<g>
	<path d="M-1001.5,504.7v-22.4l-3.1,3.3l-3.6-2.9l7.3-7.7h4v29.7H-1001.5z"/>
	<path d="M-992.2,496.3v-12.8c0-1.5,0.3-2.9,1-4c0.6-1.1,1.5-2,2.5-2.8c1-0.7,2.2-1.3,3.5-1.6c1.3-0.4,2.6-0.5,3.8-0.5
		c1.3,0,2.5,0.2,3.8,0.5c1.3,0.4,2.4,0.9,3.4,1.6c1,0.7,1.9,1.7,2.5,2.8c0.6,1.1,1,2.5,1,4v12.8c0,1.5-0.3,2.8-1,3.9
		c-0.6,1.1-1.5,2-2.5,2.8c-1,0.7-2.2,1.3-3.4,1.6c-1.3,0.3-2.5,0.5-3.8,0.5c-1.3,0-2.5-0.2-3.8-0.5c-1.3-0.3-2.4-0.9-3.5-1.6
		c-1-0.7-1.9-1.7-2.5-2.8C-991.9,499.1-992.2,497.8-992.2,496.3z M-987.5,496.5c0,0.8,0.2,1.4,0.6,2c0.4,0.5,0.9,1,1.4,1.3
		c0.6,0.3,1.2,0.6,2,0.7c0.7,0.1,1.4,0.2,2.1,0.2s1.4-0.1,2.1-0.2c0.7-0.1,1.4-0.4,2-0.7c0.6-0.3,1.1-0.8,1.4-1.3
		c0.4-0.5,0.5-1.2,0.5-2v-12.8c0-0.8-0.2-1.4-0.5-2c-0.4-0.5-0.8-1-1.4-1.3c-0.6-0.3-1.2-0.6-2-0.7c-0.7-0.1-1.4-0.2-2.1-0.2
		s-1.4,0.1-2.1,0.2c-0.7,0.1-1.4,0.4-2,0.7c-0.6,0.3-1.1,0.8-1.4,1.3s-0.6,1.2-0.6,2V496.5z"/>
	<path d="M-966.6,496.3v-12.8c0-1.5,0.3-2.9,1-4c0.6-1.1,1.5-2,2.5-2.8c1-0.7,2.2-1.3,3.5-1.6c1.3-0.4,2.6-0.5,3.8-0.5
		c1.3,0,2.5,0.2,3.8,0.5c1.3,0.4,2.4,0.9,3.4,1.6c1,0.7,1.9,1.7,2.5,2.8c0.6,1.1,1,2.5,1,4v12.8c0,1.5-0.3,2.8-1,3.9
		c-0.6,1.1-1.5,2-2.5,2.8c-1,0.7-2.2,1.3-3.4,1.6c-1.3,0.3-2.5,0.5-3.8,0.5c-1.3,0-2.5-0.2-3.8-0.5c-1.3-0.3-2.4-0.9-3.5-1.6
		c-1-0.7-1.9-1.7-2.5-2.8C-966.3,499.1-966.6,497.8-966.6,496.3z M-961.9,496.5c0,0.8,0.2,1.4,0.6,2c0.4,0.5,0.9,1,1.4,1.3
		c0.6,0.3,1.2,0.6,2,0.7c0.7,0.1,1.4,0.2,2.1,0.2s1.4-0.1,2.1-0.2c0.7-0.1,1.4-0.4,2-0.7c0.6-0.3,1.1-0.8,1.4-1.3
		c0.4-0.5,0.5-1.2,0.5-2v-12.8c0-0.8-0.2-1.4-0.5-2c-0.4-0.5-0.8-1-1.4-1.3c-0.6-0.3-1.2-0.6-2-0.7c-0.7-0.1-1.4-0.2-2.1-0.2
		s-1.4,0.1-2.1,0.2c-0.7,0.1-1.4,0.4-2,0.7c-0.6,0.3-1.1,0.8-1.4,1.3s-0.6,1.2-0.6,2V496.5z"/>
</g>
<g>
	<path d="M-967.4,935.5v-12.8c0-1.5,0.3-2.9,1-4c0.6-1.1,1.5-2,2.5-2.8c1-0.7,2.2-1.3,3.5-1.6c1.3-0.4,2.6-0.5,3.8-0.5
		c1.3,0,2.5,0.2,3.8,0.5c1.3,0.3,2.4,0.9,3.4,1.6c1,0.7,1.9,1.7,2.5,2.8c0.6,1.1,1,2.5,1,4v12.8c0,1.5-0.3,2.8-1,3.9
		c-0.6,1.1-1.5,2-2.5,2.8c-1,0.7-2.2,1.3-3.4,1.6c-1.3,0.3-2.5,0.5-3.8,0.5c-1.3,0-2.5-0.2-3.8-0.5c-1.3-0.3-2.4-0.9-3.5-1.6
		c-1-0.7-1.9-1.7-2.5-2.8C-967.1,938.3-967.4,937-967.4,935.5z M-962.7,935.7c0,0.8,0.2,1.4,0.6,2s0.9,1,1.4,1.3s1.2,0.6,2,0.7
		c0.7,0.1,1.4,0.2,2.1,0.2s1.4-0.1,2.1-0.2c0.7-0.1,1.4-0.4,2-0.7c0.6-0.3,1.1-0.8,1.4-1.3c0.4-0.5,0.5-1.2,0.5-2v-12.8
		c0-0.8-0.2-1.4-0.5-2c-0.4-0.5-0.8-1-1.4-1.3c-0.6-0.3-1.2-0.6-2-0.7c-0.7-0.1-1.4-0.2-2.1-0.2s-1.4,0.1-2.1,0.2
		c-0.7,0.1-1.4,0.4-2,0.7s-1.1,0.8-1.4,1.3s-0.6,1.2-0.6,2V935.7z"/>
</g>
<g>
	<path d="M-1000.8,1026.2c1.4,0,2.8,0.2,4.1,0.6s2.6,0.9,3.6,1.7s1.9,1.7,2.6,2.8c0.6,1.1,1,2.4,1,3.9v10.6c0,1.5-0.3,2.8-1,3.9
		c-0.6,1.1-1.5,2.1-2.6,2.8c-1.1,0.7-2.3,1.3-3.6,1.7c-1.3,0.4-2.7,0.6-4.1,0.6c-1.4,0-2.8-0.2-4.1-0.6c-1.3-0.4-2.5-0.9-3.6-1.7
		c-1-0.7-1.9-1.7-2.5-2.8c-0.6-1.1-1-2.5-1-3.9v-10.6c0-1.5,0.3-2.8,1-3.9c0.6-1.1,1.5-2.1,2.5-2.8c1-0.7,2.2-1.3,3.6-1.7
		C-1003.6,1026.4-1002.2,1026.2-1000.8,1026.2z M-1007.5,1045.7c0,0.8,0.2,1.4,0.6,2c0.4,0.6,0.9,1,1.5,1.4c0.6,0.4,1.3,0.6,2.2,0.8
		c0.8,0.2,1.6,0.3,2.5,0.3c0.9,0,1.7-0.1,2.5-0.3c0.8-0.2,1.5-0.5,2.2-0.8s1.1-0.8,1.5-1.4c0.4-0.6,0.6-1.2,0.6-2v-10.4
		c0-0.8-0.2-1.5-0.6-2c-0.4-0.6-0.9-1-1.5-1.4c-0.6-0.4-1.3-0.6-2.2-0.8c-0.8-0.2-1.6-0.3-2.5-0.3c-0.8,0-1.7,0.1-2.5,0.3
		c-0.8,0.2-1.5,0.5-2.2,0.8c-0.6,0.4-1.1,0.8-1.5,1.4c-0.4,0.6-0.6,1.2-0.6,2V1045.7z"/>
	<path d="M-980.5,1039h12.1v4.6h-12.1v10.9h-4.6v-27.8h18.3v4.6h-13.7V1039z"/>
	<path d="M-958.4,1039h12v4.6h-12v10.9h-4.6v-27.8h18.3v4.6h-13.7V1039z"/>
</g>
</svg>
