<?xml version="1.0" encoding="utf-8"?>
<!-- Generator: Adobe Illustrator 19.0.0, SVG Export Plug-In . SVG Version: 6.00 Build 0)  -->
<svg version="1.1" id="Ebene_1" xmlns="http://www.w3.org/2000/svg" xmlns:xlink="http://www.w3.org/1999/xlink" x="0px" y="0px"
	 viewBox="-1016 425.6 234 648.8" style="enable-background:new -1016 425.6 234 648.8;" xml:space="preserve">
<style type="text/css">
	@font-face {
      	font-family: Corporate-Logo-Rounded;
      	src: url('/static/fonts/slider.ttf');
    }
	.st0{fill:#00B3E3;}
	.st1{fill:none;}
	.st2{font-family:'UniSansSemiBold';}
	.st3{font-size:42px;}
	.st4{fill:#FFFFFF;stroke:#010202;stroke-width:2;stroke-miterlimit:10;}
	.st5{fill:none;stroke:#010202;stroke-width:3;stroke-miterlimit:10;}
	.st6{fill:#ECECEC;}
	.st7{fill:url(#SVGID_1_);}
	.st8{display:none;}
	.st9{display:inline;fill:#EBC721;}
	.st10{display:inline;fill:#E74317;}
	.st11{fill-rule:evenodd;clip-rule:evenodd;fill:#EBC720;}
	.st12{fill-rule:evenodd;clip-rule:evenodd;}
	.st13{fill-rule:evenodd;clip-rule:evenodd;fill:#A82A00;}
	.st14{fill-rule:evenodd;clip-rule:evenodd;fill:#E63A00;}
	.st15{fill-rule:evenodd;clip-rule:evenodd;fill:#F24208;}
	.st16{fill:#A82A00;}
	.st17{fill-rule:evenodd;clip-rule:evenodd;fill:none;stroke:#A82A00;stroke-width:2;stroke-miterlimit:10;}
	.st18{fill-rule:evenodd;clip-rule:evenodd;fill:#A7A7A7;}
</style>
<g id="XMLID_15_">
	<polygon id="XMLID_16_" points="-932.2,926.5 -902.1,926.5 -902.1,931.6 -932.2,931.6 	"/>
</g>
<g id="XMLID_14_">
	
		<rect id="SliderGlider" x="-1130.3" y="773.6" transform="matrix(-1.524674e-004 1 -1 -1.524674e-004 -118.8678 1676.1919)" width="465.7" height="10.1"/>
</g>
<g id="XMLID_12_">
	
		<rect id="XMLID_13_" x="-1174.7" y="758.1" transform="matrix(-1.278305e-004 1 -1 -1.278305e-004 -133.9641 1660.2476)" width="555.5" height="10.1"/>
</g>
<g id="XMLID_3_">
	<polygon id="barActualSpeed" class="st0" points="-902.1,1042.7 -902,931.6 -891.9,931.6 -892,1042.7 	"/>
</g>
<g id="XMLID_5_">
	<g id="XMLID_9_">
		<path d="M-891,1043.7l-12.1,0v-1l0.1-557.4l12.1,0v1L-891,1043.7z M-901.1,1041.7l8.1,0l0.1-554.4l-8.1,0L-901.1,1041.7z"/>
	</g>
</g>
<g id="XMLID_17_">
	<rect id="XMLID_18_" x="-932.2" y="1038.8" width="70.3" height="5.1"/>
</g>
<g id="XMLID_1_">
	<polygon id="XMLID_2_" points="-932.2,485.3 -890.9,485.4 -890.9,490.5 -932.2,490.4 	"/>
</g>
<g>
	<rect x="-1011.1" y="911.7" class="st1" width="67.3" height="34.4"/>
	<text id="barSpeed" transform="matrix(1 0 0 1 -969.4219 941.442)" class="st2 st3">0</text>
	<g id="Slider">
		<path id="XMLID_6_" class="st4" d="M-889.8,989.4h-13.6c-15.6,0-28.3-12.8-28.3-28.3v-62.4c0-15.6,12.8-28.3,28.3-28.3h13.6
			c15.6,0,28.3,12.8,28.3,28.3v62.4C-861.4,976.6-874.2,989.4-889.8,989.4z"/>
		<line id="XMLID_8_" class="st5" x1="-922.7" y1="929.7" x2="-871.9" y2="929.7"/>
		<path id="XMLID_7_" class="st5" d="M-922.7,909.2c0,0,7.1,3,26.2,3c19.1,0,24.6-3,24.6-3"/>
		<path id="XMLID_11_" class="st5" d="M-871.1,950.2c0,0-7.1-3-26.2-3c-19.1,0-24.6,3-24.6,3"/>
	</g>
</g>
<rect x="-1016" y="910.7" class="st6" width="80" height="163.6"/>
<linearGradient id="SVGID_1_" gradientUnits="userSpaceOnUse" x1="-976" y1="910.72" x2="-976" y2="803.54">
	<stop  offset="0" style="stop-color:#ECECEC"/>
	<stop  offset="1" style="stop-color:#FFFFFF;stop-opacity:0"/>
</linearGradient>
<rect x="-1016" y="803.5" class="st7" width="80" height="107.2"/>
<g id="XMLID_27_" class="st8">
	<circle id="XMLID_31_" class="st9" cx="-816.9" cy="1039.7" r="32.1"/>
	<path id="XMLID_28_" class="st10" d="M-816.9,1074.3c-19,0-34.5-15.5-34.5-34.5c0-19,15.5-34.5,34.5-34.5s34.5,15.5,34.5,34.5
		C-782.4,1058.8-797.8,1074.3-816.9,1074.3z M-816.9,1010c-16.4,0-29.8,13.3-29.8,29.8c0,16.4,13.3,29.8,29.8,29.8
		s29.8-13.3,29.8-29.8C-787.1,1023.3-800.5,1010-816.9,1010z"/>
</g>
<g id="XMLID_23_" class="st8">
	<path id="XMLID_24_" class="st10" d="M-820.9,1060.9c0-2.6,1.8-4.5,4.3-4.5c2.6,0,4.3,1.9,4.3,4.5s-1.7,4.5-4.3,4.5
		C-819.1,1065.4-820.9,1063.5-820.9,1060.9z M-819.1,1050.5l-1-35h7l-1,35H-819.1z"/>
</g>
<g>
	<g>
		<path class="st0" d="M-898.6,465.1c-1.3,0-2.5-0.4-3.6-1.2c-1.1-0.8-1.8-1.8-2.2-3.1l-9.2-30.9c-0.1-0.3-0.2-0.7-0.2-1
			c0-0.7,0.2-1.3,0.7-2c0.7-0.9,1.6-1.3,2.7-1.3h1c1.3,0,2.5,0.4,3.5,1.2c1,0.8,1.7,1.9,2.1,3.2l3.4,13.6c0.4,1.5,0.9,3.6,1.5,6.3
			c0.6,2.8,1.1,4.8,1.5,6.2c0,0.1,0.1,0.1,0.2,0.1c0.1,0,0.1,0,0.2-0.1c0.3-1.4,0.8-3.5,1.5-6.2c0.6-2.8,1.1-4.9,1.5-6.3l3.4-13.6
			c0.3-1.3,1-2.4,2-3.2c1-0.8,2.2-1.2,3.5-1.2h0.7c1.1,0,2,0.4,2.7,1.3c0.4,0.6,0.7,1.3,0.7,2c0,0.3-0.1,0.6-0.2,1l-9.3,30.9
			c-0.4,1.3-1.2,2.3-2.2,3.1c-1.1,0.8-2.3,1.2-3.6,1.2H-898.6z"/>
		<path class="st0" d="M-880.8,482.8c-0.7,0-1.3-0.3-1.9-0.8c-0.5-0.5-0.8-1.1-0.8-1.9v-12.7c0-0.6,0.2-1.2,0.7-1.6
			c0.4-0.4,1-0.7,1.6-0.7h0.2c0.6,0,1.1,0.2,1.5,0.6c0.4,0.4,0.7,0.9,0.8,1.4l0,0.2c0,0,0,0.1,0.1,0.1c0,0,0.1,0,0.1,0
			c0.8-0.8,1.7-1.5,2.5-2c0.8-0.5,1.8-0.7,2.8-0.7c2.2,0,3.8,0.9,4.7,2.6c0,0.1,0.1,0.1,0.2,0.1c0.1,0,0.1,0,0.2-0.1
			c0.8-0.8,1.7-1.5,2.5-2c0.8-0.5,1.8-0.7,2.8-0.7c1.9,0,3.2,0.6,4.1,1.9s1.4,3,1.4,5.3v8.3c0,0.7-0.3,1.3-0.8,1.9
			c-0.5,0.5-1.1,0.8-1.9,0.8h-0.2c-0.7,0-1.3-0.3-1.9-0.8c-0.5-0.5-0.8-1.1-0.8-1.9v-7.6c0-1.2-0.2-2-0.5-2.4
			c-0.3-0.5-0.8-0.7-1.6-0.7c-0.8,0-1.7,0.5-2.6,1.4c-0.1,0.1-0.2,0.3-0.2,0.5v8.8c0,0.7-0.3,1.3-0.8,1.9c-0.5,0.5-1.1,0.8-1.9,0.8
			h-0.3c-0.7,0-1.3-0.3-1.9-0.8c-0.5-0.5-0.8-1.1-0.8-1.9v-7.6c0-1.2-0.2-2-0.5-2.4c-0.3-0.5-0.8-0.7-1.6-0.7
			c-0.8,0-1.7,0.5-2.6,1.4c-0.1,0.1-0.2,0.3-0.2,0.5v8.8c0,0.7-0.3,1.3-0.8,1.9c-0.5,0.5-1.1,0.8-1.9,0.8H-880.8z"/>
		<path class="st0" d="M-851.1,483.2c-1.6,0-2.8-0.5-3.8-1.5c-1-1-1.4-2.3-1.4-3.8c0-1.8,0.8-3.3,2.3-4.3c1.5-1,3.9-1.7,7.2-2.1
			c0.2,0,0.3-0.1,0.2-0.3c-0.2-1.3-1.1-2-2.6-2c-0.8,0-1.8,0.2-2.8,0.6c-0.3,0.1-0.6,0.2-0.9,0.2c-0.2,0-0.5,0-0.7-0.1
			c-0.5-0.2-0.9-0.5-1.2-1c-0.2-0.3-0.2-0.7-0.2-1c0-0.2,0-0.4,0.1-0.6c0.2-0.5,0.5-0.9,1-1.2c2-0.9,3.9-1.4,5.8-1.4
			c4.8,0,7.1,2.7,7.1,8v7.8c0,0.6-0.2,1.2-0.7,1.6c-0.4,0.4-1,0.6-1.6,0.6h-0.6c-0.5,0-0.9-0.1-1.3-0.4c-0.4-0.3-0.6-0.7-0.7-1.1
			l0-0.1c0,0-0.1-0.1-0.1-0.1c0,0-0.1,0-0.1,0C-847.7,482.5-849.4,483.2-851.1,483.2z M-849.2,478.9c0.8,0,1.7-0.4,2.4-1.2
			c0.1-0.1,0.2-0.3,0.2-0.5V475c0-0.1,0-0.2-0.1-0.2c-0.1,0-0.1-0.1-0.2-0.1h0c-2.8,0.4-4.3,1.3-4.3,2.7c0,0.5,0.2,0.9,0.5,1.1
			S-849.8,478.9-849.2,478.9z"/>
		<path class="st0" d="M-839,482.8c-0.6,0-1-0.3-1.3-0.8c-0.1-0.2-0.2-0.5-0.2-0.8c0-0.2,0.1-0.5,0.2-0.8l3.9-6.6
			c0.1-0.2,0.1-0.4,0-0.5l-3.6-5.9c-0.1-0.3-0.2-0.5-0.2-0.8c0-0.2,0.1-0.5,0.2-0.8c0.3-0.5,0.7-0.8,1.3-0.8h0.6
			c0.8,0,1.6,0.2,2.3,0.6c0.7,0.4,1.2,1,1.6,1.7l0.2,0.4c0.5,1,0.9,1.9,1.4,2.9c0,0.1,0.1,0.1,0.1,0.1c0.1,0,0.1,0,0.1-0.1
			c0.1-0.4,0.3-0.9,0.6-1.6c0.3-0.7,0.4-1.1,0.5-1.3l0.1-0.3c0.3-0.7,0.8-1.3,1.4-1.8c0.7-0.5,1.4-0.7,2.2-0.7h0.5
			c0.6,0,1,0.3,1.3,0.8c0.1,0.2,0.2,0.5,0.2,0.8c0,0.3-0.1,0.5-0.2,0.8l-3.6,6.5c-0.1,0.2-0.1,0.3,0,0.5l3.8,6
			c0.2,0.3,0.2,0.5,0.2,0.8c0,0.2-0.1,0.5-0.2,0.7c-0.3,0.5-0.7,0.8-1.3,0.8h-0.7c-0.8,0-1.6-0.2-2.3-0.6c-0.7-0.4-1.3-1-1.7-1.7
			l-0.3-0.5c-0.8-1.5-1.3-2.5-1.6-3c0,0-0.1-0.1-0.1-0.1c-0.1,0-0.1,0-0.1,0.1c-0.4,0.8-0.8,1.8-1.3,3l-0.2,0.3
			c-0.3,0.7-0.8,1.3-1.5,1.8c-0.7,0.4-1.4,0.6-2.2,0.6H-839z"/>
	</g>
</g>
<path class="st11" d="M-836.1,1005.3h39.1c8.2,0,15,6.7,15,15v39.1c0,8.2-6.7,15-15,15h-39.1c-8.2,0-15-6.7-15-15v-39.1
	C-851,1012-844.3,1005.3-836.1,1005.3z"/>
<path class="st12" d="M-836.1,1009.8h2.8l-13.2,13.2v-2.8C-846.5,1014.5-841.8,1009.8-836.1,1009.8L-836.1,1009.8z M-826.5,1009.8
	l-20,20v7.7l27.7-27.7H-826.5L-826.5,1009.8z M-812,1009.8l-34.5,34.4v7.7l42.2-42.1H-812L-812,1009.8z M-797.5,1009.8l-49,48.9v0.6
	c0,2,0.6,3.9,1.6,5.5l53.5-53.4c-1.6-1-3.5-1.6-5.5-1.6H-797.5L-797.5,1009.8z M-788.1,1014.8l-53.5,53.4c1.6,1,3.5,1.6,5.5,1.6h0.6
	l48.9-48.9v-0.7C-786.5,1018.3-787.1,1016.4-788.1,1014.8L-788.1,1014.8z M-786.5,1027.7v7.7l-34.5,34.4h-7.7L-786.5,1027.7
	L-786.5,1027.7z M-786.5,1042.2v7.7l-20,20h-7.7L-786.5,1042.2L-786.5,1042.2z M-786.5,1056.6v2.7c0,5.7-4.7,10.4-10.4,10.4h-2.8
	L-786.5,1056.6z"/>
<g id="EmergencyButton">
	<circle class="st13" cx="-815.5" cy="1041.5" r="29.3"/>
	<circle class="st14" cx="-815.5" cy="1041.5" r="27.6"/>
	<circle class="st15" cx="-815.7" cy="1041.5" r="18.7"/>
</g>
<g>
	<g>
		<g>
			<polygon class="st16" points="-797.9,1033 -794,1034 -790.6,1031.9 -793,1041.1 			"/>
		</g>
	</g>
	<path class="st17" d="M-810.2,1019.2c7.5,1.9,13.9,7.4,16.4,15.3"/>
</g>
<g>
	<path class="st17" d="M-837.1,1049.2"/>
	<path class="st17" d="M-808.2,1064.1"/>
</g>
<g>
	<g>
		<g>
			<polygon class="st16" points="-833.7,1049.1 -837.6,1048.1 -841,1050.2 -838.7,1041 			"/>
		</g>
	</g>
	<path class="st17" d="M-821.5,1062.9c-7.5-1.9-13.9-7.4-16.4-15.3"/>
</g>
<g>
	<path d="M-1002.4,504.7v-22.4l-3.1,3.3l-3.6-2.9l7.3-7.7h4v29.7H-1002.4z"/>
	<path d="M-993.1,496.3v-12.8c0-1.5,0.3-2.9,1-4c0.6-1.1,1.5-2,2.5-2.8c1-0.7,2.2-1.3,3.5-1.6c1.3-0.4,2.6-0.5,3.8-0.5
		c1.3,0,2.5,0.2,3.8,0.5c1.3,0.4,2.4,0.9,3.4,1.6c1,0.7,1.9,1.7,2.5,2.8c0.6,1.1,1,2.5,1,4v12.8c0,1.5-0.3,2.8-1,3.9
		c-0.6,1.1-1.5,2-2.5,2.8c-1,0.7-2.2,1.3-3.4,1.6c-1.3,0.3-2.5,0.5-3.8,0.5c-1.3,0-2.5-0.2-3.8-0.5c-1.3-0.3-2.4-0.9-3.5-1.6
		c-1-0.7-1.9-1.7-2.5-2.8C-992.7,499.1-993.1,497.8-993.1,496.3z M-988.3,496.5c0,0.8,0.2,1.4,0.6,2c0.4,0.5,0.9,1,1.4,1.3
		c0.6,0.3,1.2,0.6,2,0.7c0.7,0.1,1.4,0.2,2.1,0.2s1.4-0.1,2.1-0.2c0.7-0.1,1.4-0.4,2-0.7c0.6-0.3,1.1-0.8,1.4-1.3
		c0.4-0.5,0.5-1.2,0.5-2v-12.8c0-0.8-0.2-1.4-0.5-2c-0.4-0.5-0.8-1-1.4-1.3c-0.6-0.3-1.2-0.6-2-0.7c-0.7-0.1-1.4-0.2-2.1-0.2
		s-1.4,0.1-2.1,0.2c-0.7,0.1-1.4,0.4-2,0.7c-0.6,0.3-1.1,0.8-1.4,1.3s-0.6,1.2-0.6,2V496.5z"/>
	<path d="M-967.4,496.3v-12.8c0-1.5,0.3-2.9,1-4c0.6-1.1,1.5-2,2.5-2.8c1-0.7,2.2-1.3,3.5-1.6c1.3-0.4,2.6-0.5,3.8-0.5
		c1.3,0,2.5,0.2,3.8,0.5c1.3,0.4,2.4,0.9,3.4,1.6c1,0.7,1.9,1.7,2.5,2.8c0.6,1.1,1,2.5,1,4v12.8c0,1.5-0.3,2.8-1,3.9
		c-0.6,1.1-1.5,2-2.5,2.8c-1,0.7-2.2,1.3-3.4,1.6c-1.3,0.3-2.5,0.5-3.8,0.5c-1.3,0-2.5-0.2-3.8-0.5c-1.3-0.3-2.4-0.9-3.5-1.6
		c-1-0.7-1.9-1.7-2.5-2.8C-967.1,499.1-967.4,497.8-967.4,496.3z M-962.7,496.5c0,0.8,0.2,1.4,0.6,2c0.4,0.5,0.9,1,1.4,1.3
		c0.6,0.3,1.2,0.6,2,0.7c0.7,0.1,1.4,0.2,2.1,0.2s1.4-0.1,2.1-0.2c0.7-0.1,1.4-0.4,2-0.7c0.6-0.3,1.1-0.8,1.4-1.3
		c0.4-0.5,0.5-1.2,0.5-2v-12.8c0-0.8-0.2-1.4-0.5-2c-0.4-0.5-0.8-1-1.4-1.3c-0.6-0.3-1.2-0.6-2-0.7c-0.7-0.1-1.4-0.2-2.1-0.2
		s-1.4,0.1-2.1,0.2c-0.7,0.1-1.4,0.4-2,0.7c-0.6,0.3-1.1,0.8-1.4,1.3s-0.6,1.2-0.6,2V496.5z"/>
</g>
<g>
	<path d="M-967.4,935.5v-12.8c0-1.5,0.3-2.9,1-4c0.6-1.1,1.5-2,2.5-2.8c1-0.7,2.2-1.3,3.5-1.6c1.3-0.4,2.6-0.5,3.8-0.5
		c1.3,0,2.5,0.2,3.8,0.5c1.3,0.3,2.4,0.9,3.4,1.6c1,0.7,1.9,1.7,2.5,2.8c0.6,1.1,1,2.5,1,4v12.8c0,1.5-0.3,2.8-1,3.9
		c-0.6,1.1-1.5,2-2.5,2.8c-1,0.7-2.2,1.3-3.4,1.6c-1.3,0.3-2.5,0.5-3.8,0.5c-1.3,0-2.5-0.2-3.8-0.5c-1.3-0.3-2.4-0.9-3.5-1.6
		c-1-0.7-1.9-1.7-2.5-2.8C-967.1,938.3-967.4,937-967.4,935.5z M-962.7,935.7c0,0.8,0.2,1.4,0.6,2s0.9,1,1.4,1.3s1.2,0.6,2,0.7
		c0.7,0.1,1.4,0.2,2.1,0.2s1.4-0.1,2.1-0.2c0.7-0.1,1.4-0.4,2-0.7c0.6-0.3,1.1-0.8,1.4-1.3c0.4-0.5,0.5-1.2,0.5-2v-12.8
		c0-0.8-0.2-1.4-0.5-2c-0.4-0.5-0.8-1-1.4-1.3c-0.6-0.3-1.2-0.6-2-0.7c-0.7-0.1-1.4-0.2-2.1-0.2s-1.4,0.1-2.1,0.2
		c-0.7,0.1-1.4,0.4-2,0.7s-1.1,0.8-1.4,1.3s-0.6,1.2-0.6,2V935.7z"/>
</g>
<g>
	<path d="M-1000.8,1026.2c1.4,0,2.8,0.2,4.1,0.6s2.6,0.9,3.6,1.7s1.9,1.7,2.6,2.8c0.6,1.1,1,2.4,1,3.9v10.6c0,1.5-0.3,2.8-1,3.9
		c-0.6,1.1-1.5,2.1-2.6,2.8c-1.1,0.7-2.3,1.3-3.6,1.7c-1.3,0.4-2.7,0.6-4.1,0.6c-1.4,0-2.8-0.2-4.1-0.6c-1.3-0.4-2.5-0.9-3.6-1.7
		c-1-0.7-1.9-1.7-2.5-2.8c-0.6-1.1-1-2.5-1-3.9v-10.6c0-1.5,0.3-2.8,1-3.9c0.6-1.1,1.5-2.1,2.5-2.8c1-0.7,2.2-1.3,3.6-1.7
		C-1003.6,1026.4-1002.2,1026.2-1000.8,1026.2z M-1007.5,1045.7c0,0.8,0.2,1.4,0.6,2c0.4,0.6,0.9,1,1.5,1.4c0.6,0.4,1.3,0.6,2.2,0.8
		c0.8,0.2,1.6,0.3,2.5,0.3c0.9,0,1.7-0.1,2.5-0.3c0.8-0.2,1.5-0.5,2.2-0.8c0.6-0.4,1.1-0.8,1.5-1.4c0.4-0.6,0.6-1.2,0.6-2v-10.4
		c0-0.8-0.2-1.5-0.6-2c-0.4-0.6-0.9-1-1.5-1.4c-0.6-0.4-1.3-0.6-2.2-0.8c-0.8-0.2-1.6-0.3-2.5-0.3c-0.8,0-1.7,0.1-2.5,0.3
		c-0.8,0.2-1.5,0.5-2.2,0.8c-0.6,0.4-1.1,0.8-1.5,1.4c-0.4,0.6-0.6,1.2-0.6,2V1045.7z"/>
	<path d="M-980.5,1039h12.1v4.6h-12.1v10.9h-4.6v-27.8h18.3v4.6h-13.7V1039z"/>
	<path d="M-958.4,1039h12v4.6h-12v10.9h-4.6v-27.8h18.3v4.6h-13.7V1039z"/>
</g>
<g id="Arduino">
	<path class="st18" d="M-822.8,948.6c-0.4-0.1-0.9-0.1-1.4-0.2l-0.1,0l-0.2,0c-0.1,0-0.2,0-0.3,0c-1.5,0-3,0.9-4.1,2.3
		c-1.1,1.5-1.4,3.4-0.7,4.9l0,0.1c0.7,1.7,2.3,2.9,4.3,3.2c2,0.4,4-0.2,5.2-1.5l0,0l0,0c1.1-1.1,1.9-2.4,2.8-3.8
		C-818.5,951.3-820.3,949.2-822.8,948.6z M-821.3,954.1h-5.7v-1.2h5.7V954.1z"/>
	<path class="st18" d="M-804.5,948.9c-1.9-0.8-4-0.7-5.4,0.3l0,0c-1.6,1-2.8,2.6-3.9,4.3c0.8,1.6,2.6,4.6,5.8,5.3l0,0l0,0
		c1.6,0.5,3.4,0,4.8-1.3c1.5-1.3,2.2-3.1,1.9-4.8C-801.4,951.2-802.7,949.7-804.5,948.9z M-804.7,954.3h-1.7v1.6h-1.5v-1.6h-1.6
		v-1.5h1.6v-1.6h1.5v1.6h1.7V954.3z"/>
	<path class="st18" d="M-815.5,933.9c-11,0-19.8,8.9-19.8,19.8c0,11,8.9,19.8,19.8,19.8c11,0,19.8-8.9,19.8-19.8
		C-795.7,942.8-804.6,933.9-815.5,933.9z M-801.3,959.8c-1.6,1.4-3.5,2.2-5.4,2.2c-0.7,0-1.4-0.1-2-0.3c-1.8-0.4-3.4-1.3-4.8-2.8
		c-0.7-0.7-1.4-1.6-2-2.5c-0.7,1-1.4,2.1-2.4,3c-0.9,1-2.2,1.8-3.6,2.2c-1.3,0.4-2.7,0.4-4.1,0.2c-1.4-0.2-2.7-0.8-3.8-1.6
		c-1.2-0.9-2.1-2-2.6-3.3c-0.5-1.2-0.7-2.6-0.5-4c0.2-1.3,0.7-2.5,1.5-3.6c0.8-1.1,1.8-2,2.9-2.6c1.2-0.6,2.5-0.9,3.8-0.9l0.1,0
		c0,0,0,0,0,0c0.8,0,1.5,0.1,2.1,0.2c1.8,0.4,3.4,1.4,4.9,2.9c0.7,0.7,1.3,1.4,1.8,2.2c1-1.5,2.3-3,4-4c1.2-0.8,2.5-1.2,4-1.3
		c1.4-0.1,2.8,0.2,4.1,0.8c2.7,1.2,4.6,3.4,5,6.1c0.2,1.3,0,2.8-0.5,4.1C-799.4,957.8-800.2,958.9-801.3,959.8z"/>
</g>
<title>wiki:Behnam N</title>
<g id="Raspberry">
	<path class="st18" d="M-819.4,899.1c-2.7-0.5-4.9,1.1-4.8,4C-824.1,904.2-818.4,899.2-819.4,899.1z"/>
	<path class="st18" d="M-821.5,898.3c0.9,0.1,3.4,0,3.8-1.9c-0.9-1-2.6-2.2-5.5-3.7c2.3,0.8,4.3,1.8,6,3.2c2-0.9,0.6-3.3-0.4-4.3
		c0,0.3-0.1,0.4-0.2,0.5c-0.3-0.3-0.6-0.7-1-1c0,0.2,0.1,0.4-0.1,0.6c-0.2-0.3-0.5-0.6-0.9-0.8c0.2,0.3,0,0.4-0.1,0.6
		c-0.3-0.3-0.6-0.5-1.1-0.7c0.2,0.2,0.4,0.4,0.1,0.6c-0.3-0.2-0.6-0.4-1.4-0.5c0.2,0.2,0.5,0.4,0.3,0.6c-0.4-0.2-0.8-0.3-1.3-0.3
		c0.2,0.2,0.4,0.4,0.2,0.5c-0.4-0.1-1-0.3-1.6-0.2l0.4,0.4c0,0-0.8,0-1.4,0c0.2,0.3,0.4,0.6,0.5,1.1c-0.1,0.1-0.3,0-0.6,0
		c0.3,0.6,0.8,0.7,0.9,1c-0.2,0.1-0.4,0.1-0.7,0c0.2,0.4,0.6,0.7,0.9,1c-0.1,0.1-0.2,0.1-0.6,0.1c0.3,0.3,0.7,0.6,1.1,0.9
		c-0.1,0.1-0.3,0.1-0.6,0.1c0.4,0.4,0.9,0.6,1.4,0.8c-0.2,0.2-0.4,0.1-0.6,0.1c0.3,0.3,0.9,0.4,1.4,0.6c-0.1,0.2-0.2,0.2-0.4,0.2
		c0.6,0.3,1.4,0.2,1.6,0.3C-821.1,898.1-821.3,898.2-821.5,898.3z"/>
	<path class="st18" d="M-824.6,904.3c-2.6,1.5-2.1,4.7-0.7,5.9C-824.1,910.8-823.1,903.9-824.6,904.3z"/>
	<path class="st18" d="M-824.1,910.6c-0.6,0.5-0.8,2.1,0.2,3.8c1.4,1.9,3.3,2.1,4,1.7c0.8-0.6,0.4-2.7-0.6-3.9
		C-821.7,910.8-823.2,910-824.1,910.6z"/>
	<path class="st18" d="M-811.9,899.1c-1,0.2,4.7,5.2,4.8,4C-807,900.3-809.3,898.7-811.9,899.1z"/>
	<path class="st18" d="M-818.6,900.3c0,0.9,1.3,1.8,3.2,1.8c1.9,0,3.2-0.7,3.2-1.6c0-1-1.8-2.1-3.2-2.1
		C-817.1,898.3-818.6,899.6-818.6,900.3z"/>
	<path class="st18" d="M-813.8,895.8c1.7-1.4,3.7-2.4,6-3.2c-2.9,1.5-4.6,2.7-5.5,3.7c0.5,1.9,2.9,2,3.8,1.9
		c-0.2-0.1-0.3-0.2-0.4-0.3c0.2-0.2,1,0,1.6-0.3c-0.2,0-0.3-0.1-0.4-0.2c0.5-0.2,1.1-0.3,1.4-0.6c-0.2,0-0.4,0-0.6-0.1
		c0.5-0.3,1-0.5,1.4-0.8c-0.2,0-0.5,0-0.6-0.1c0.4-0.3,0.8-0.6,1.1-0.9c-0.3,0-0.5,0-0.6-0.1c0.3-0.3,0.7-0.6,0.9-1
		c-0.3,0.1-0.5,0.1-0.7,0c0.1-0.3,0.6-0.4,0.9-1c-0.3,0-0.6,0.1-0.6,0c0.1-0.5,0.3-0.8,0.5-1.1c-0.6,0-1.4,0-1.4,0l0.4-0.4
		c-0.6-0.2-1.1,0-1.6,0.2c-0.2-0.1,0-0.3,0.2-0.5c-0.5,0.1-0.9,0.2-1.3,0.3c-0.2-0.2,0.1-0.4,0.3-0.6c-0.7,0.1-1,0.3-1.4,0.5
		c-0.2-0.2,0-0.4,0.1-0.6c-0.6,0.2-0.8,0.5-1.1,0.7c-0.1-0.1-0.3-0.2-0.1-0.6c-0.4,0.2-0.7,0.5-0.9,0.8c-0.2-0.2-0.1-0.4-0.1-0.6
		c-0.4,0.3-0.7,0.7-1,1c-0.1,0-0.1-0.2-0.2-0.5C-814.4,892.5-815.8,894.9-813.8,895.8z"/>
	<path class="st18" d="M-815.4,916.2c-1.4,0-3.5,0.6-3.5,1.3c0,0.5,1.7,2,3.4,1.9c1.7,0,3.4-1.5,3.4-2.1
		C-812.1,916.6-814,916.1-815.4,916.2z"/>
	<path class="st18" d="M-806.7,904.2c-1.6-0.4-0.5,6.4,0.7,5.9C-804.5,909-804.1,905.7-806.7,904.2z"/>
	<path class="st18" d="M-815.5,884.6c-11,0-19.8,8.9-19.8,19.8c0,11,8.9,19.8,19.8,19.8c11,0,19.8-8.9,19.8-19.8
		C-795.7,893.4-804.6,884.6-815.5,884.6z M-804.8,910.7c-0.2,0.8-0.4,1.4-0.6,2.1c-0.3,2.7-2.6,4-3.2,4.1c-0.9,0.7-1.8,1.3-3.1,1.7
		c-1.2,1.2-2.5,1.7-3.8,1.7c0,0,0,0-0.1,0c-1.3,0-2.6-0.5-3.8-1.7c-1.3-0.4-2.2-1.1-3.1-1.7c-0.6-0.1-2.9-1.4-3.2-4.1
		c-0.2-0.7-0.5-1.3-0.6-2.1c-2.4-2.7-0.9-6,0.8-7l0.2-0.4c0-2.8,1.3-3.9,2.7-4.8c-0.4-0.1-0.9-0.2-1-0.8c-0.8-0.2-0.9-0.6-1-0.9
		c-0.2-0.1-0.9-0.5-0.8-1.2c-0.4-0.3-0.6-0.6-0.5-1.1c-0.4-0.4-0.5-0.8-0.3-1.2c-0.5-0.6-0.3-0.9-0.1-1.2c-0.4-0.7,0-1.4,1-1.3
		c0.4-0.6,1.3-0.5,1.4-0.5c0.2-0.2,0.4-0.4,1-0.3c0.4-0.4,0.8-0.3,1.3-0.1c0.2-0.1,0.4-0.2,0.5-0.2c0.3,0,0.5,0.2,0.8,0.3
		c0.7-0.2,0.8,0.1,1.1,0.2c0.7-0.2,0.9,0.2,1.3,0.5l0.4,0c1.1,0.6,1.6,2,1.8,2.6c0.2-0.7,0.7-2,1.8-2.6l0.4,0
		c0.3-0.4,0.6-0.7,1.3-0.5c0.3-0.1,0.5-0.4,1.1-0.2c0.4-0.1,0.8-0.5,1.3,0c0.5-0.2,0.9-0.2,1.3,0.1c0.6-0.1,0.8,0.1,1,0.3
		c0.1,0,1-0.1,1.4,0.5c1-0.1,1.3,0.6,1,1.3c0.2,0.3,0.4,0.6-0.1,1.2c0.2,0.3,0.1,0.7-0.3,1.2c0.1,0.5-0.1,0.8-0.5,1.1
		c0.1,0.7-0.6,1-0.8,1.2c-0.1,0.4-0.2,0.7-1,0.9c-0.1,0.6-0.6,0.7-1,0.8c1.5,0.9,2.7,2,2.7,4.8l0.2,0.4
		C-803.9,904.7-802.4,908-804.8,910.7z"/>
	<path class="st18" d="M-816.8,907.6c1.1-1.7,0.9-3.8-0.6-4.8c-1.4-0.9-3.5-0.3-4.6,1.4c-1.1,1.7-0.9,3.8,0.6,4.8
		C-820,909.9-818,909.3-816.8,907.6z"/>
	<path class="st18" d="M-810.4,911.8c-1.1,1.3-1.7,3.6-0.9,4.3c0.7,0.6,2.8,0.5,4.2-1.6c1.1-1.4,0.7-3.7,0.1-4.3
		C-807.9,909.5-809.2,910.4-810.4,911.8z"/>
	<ellipse class="st18" cx="-815.4" cy="911.9" rx="3.5" ry="3.2"/>
	<path class="st18" d="M-809.5,908.8c1.4-0.9,1.7-3.1,0.6-4.8c-1.1-1.7-3.2-2.3-4.6-1.4c-1.4,0.9-1.7,3.1-0.6,4.8
		C-813,909.1-810.9,909.7-809.5,908.8z"/>
</g>
</svg>
