<?xml version="1.0" encoding="utf-8"?>
<!-- Generator: Adobe Illustrator 19.0.0, SVG Export Plug-In . SVG Version: 6.00 Build 0)  -->
<svg version="1.1" id="Ebene_1" xmlns="http://www.w3.org/2000/svg" xmlns:xlink="http://www.w3.org/1999/xlink" x="0px" y="0px"
	 viewBox="0 0 595.3 841.9" style="enable-background:new 0 0 595.3 841.9;" xml:space="preserve">
<style type="text/css">
	.st0{fill:#020304;}
	.st1{fill:#FFFFFF;stroke:#030405;stroke-width:2;stroke-miterlimit:10;}
	.st2{fill:#FFFFFF;}
	.st3{fill:#009C89;}
</style>
<g id="XMLID_7_">
	<path id="XMLID_35_" class="st0" d="M536.7,254.9h235.2l113.3,113.3v103.3L770.8,584.9h-946l-114.4-113.4V368.3l56.6-56.5l22.1,0
		l-63,63v90.1l105.3,104.3h933l105.4-104.3v-90.3L765.5,270.5H519.3L536.7,254.9z M519.3,270.5h-688.9l-41.3,41.3l-22.1,0l56.9-56.9
		h712.8"/>
</g>
<g id="XMLID_6_">
	<polygon id="XMLID_34_" class="st0" points="-229.6,327.5 -229.7,311.8 473.5,311.8 536.7,254.9 542.9,270.5 479.7,327.3 	"/>
</g>
<circle id="XMLID_19_" class="st1" cx="196.9" cy="574.8" r="19.3"/>
<circle id="XMLID_2_" class="st1" cx="396.9" cy="574.8" r="19.3"/>
<circle id="XMLID_9_" class="st1" cx="126.9" cy="574.8" r="19.3"/>
<circle id="XMLID_8_" class="st1" cx="466.9" cy="574.8" r="19.3"/>
<g id="XMLID_48_">
	<g id="XMLID_49_">
		<polygon id="XMLID_11_" class="st0" points="523.5,588.6 537.3,574.8 523.5,560.9 536.6,547.8 563.5,574.8 536.6,601.8 		"/>
		<path id="XMLID_10_" class="st2" d="M536.6,549.8l25,25l-25,25l-11.1-11.1l13.9-13.9l-13.9-13.9L536.6,549.8 M536.6,545.8l-2,2
			l-11.1,11.1l-2,2l2,2l11.9,11.9l-11.9,11.9l-2,2l2,2l11.1,11.1l2,2l2-2l25-25l2-2l-2-2l-25-25L536.6,545.8L536.6,545.8z"/>
	</g>
</g>
<g id="XMLID_12_">
	<g id="XMLID_13_">
		<polygon id="XMLID_15_" class="st0" points="72.3,560.9 58.5,574.7 72.3,588.6 59.2,601.7 32.3,574.7 59.2,547.8 		"/>
		<path id="XMLID_14_" class="st2" d="M59.2,599.7l-25-25l25-25l11.1,11.1l-13.9,13.9l13.9,13.9L59.2,599.7 M59.2,603.7l2-2
			l11.1-11.1l2-2l-2-2l-11.9-11.9l11.9-11.9l2-2l-2-2l-11.1-11.1l-2-2l-2,2l-25,25l-2,2l2,2l25,25L59.2,603.7L59.2,603.7z"/>
	</g>
</g>
<circle id="XMLID_16_" class="st1" cx="399.1" cy="320.3" r="19.3"/>
<circle id="XMLID_17_" class="st1" cx="399.1" cy="259.6" r="19.3"/>
<circle id="XMLID_18_" class="st1" cx="199.1" cy="320.3" r="19.3"/>
<g>
	<path class="st3" d="M84.2,438.6c0-15.1,4-26.9,11.8-35.5s18.4-12.7,31.4-12.7s23.4,4.3,31.4,12.7c7.8,8.6,11.8,20.4,11.8,35.5
		s-4,27.2-11.8,36c-8,8.9-18.4,13.2-31.2,13.2c-13,0-23.4-4.4-31.2-13.2C88.2,465.8,84.2,453.8,84.2,438.6z M147.4,438.6
		c0-9-1.8-16.1-5.4-21.3c-3.5-5.2-8.4-7.6-14.7-7.6s-11,2.6-14.7,7.6c-3.5,5.2-5.4,12.2-5.4,21.3c0,9.2,1.8,16.5,5.4,21.9
		c3.5,5.4,8.4,8,14.7,8s11.2-2.8,14.7-8.1C145.5,455,147.4,447.6,147.4,438.6z"/>
	<path class="st3" d="M211.8,487.7c-6.7,0-12.9-3.1-18.4-9.2c-0.2-0.2-0.3-0.2-0.5-0.2s-0.3,0.2-0.3,0.3l-0.2,0.5
		c-0.5,2-1.5,3.7-3.2,5c-1.5,1.2-3.4,2-5.5,2H182c-2.4,0-4.6-0.9-6.3-2.6c-1.7-1.7-2.6-3.8-2.6-6.1v-81.3c0-2.9,1.1-5.5,3.2-7.6
		c2.1-2.1,4.6-3.2,7.6-3.2h0.9c2.9,0,5.5,1.1,7.6,3.2c2.1,2.1,3.2,4.6,3.2,7.6v13.5l-0.5,9.5c0,0.3,0.2,0.5,0.3,0.6s0.5,0.2,0.6,0
		c5.5-4.6,11.3-6.9,17.6-6.9c8.6,0,15.5,3.4,20.7,9.9c5,6.6,7.6,15.5,7.6,26.5c0,6-0.9,11.5-2.6,16.5s-4,9.2-6.7,12.4
		c-2.9,3.2-6.1,5.7-9.6,7.5C219.3,487,215.6,487.7,211.8,487.7z M206.4,469.4c3.7,0,6.7-1.7,8.9-4.9c2.3-3.2,3.4-8.4,3.4-15.1
		c0-6.3-0.9-11-2.9-14.1c-1.8-3.1-4.7-4.6-8.7-4.6c-3.7,0-7.2,1.7-10.6,5.2c-0.6,0.6-0.9,1.4-0.9,2.3V464c0,0.8,0.3,1.5,0.9,2
		C199.5,468.3,202.8,469.4,206.4,469.4z"/>
	<path class="st3" d="M276.2,487.7c-10.6,0-19.3-3.4-26.2-10.1s-10.3-15.9-10.3-27.5c0-5.7,0.9-10.9,2.9-15.8
		c2-4.7,4.4-8.9,7.6-11.9c3.2-3.2,6.7-5.7,10.9-7.3c4.1-1.7,8.3-2.6,12.7-2.6c9.9,0,17.4,3.1,22.6,9.3c5.4,6.4,8.1,14.5,8.1,24.5
		c0,2.9-1.2,5.4-3.5,7.3s-5,2.9-8.3,2.9h-30.3c-0.3,0-0.6,0.2-0.8,0.5s-0.3,0.6-0.2,0.8c2.3,8.4,8.1,12.7,17.6,12.7
		c2.8,0,5.5-0.5,8.3-1.4c0.9-0.3,2-0.5,3.2-0.5c0.9,0,1.8,0.2,2.9,0.3c2,0.6,3.7,1.8,4.7,3.7c0.6,1.4,0.9,2.6,0.9,4.1
		c0,1.4-0.3,2.6-0.9,3.8c-0.8,1.2-1.7,2.1-2.9,2.8C289,486.3,282.6,487.7,276.2,487.7z M261.4,441.2c0,0.2,0.2,0.3,0.3,0.6
		c0.1,0.3,0.5,0.3,0.8,0.3h21.9c0.3,0,0.6-0.2,0.9-0.3c0.2-0.3,0.3-0.5,0.3-0.9c-0.2-3.5-1.2-6.3-3.1-8.3c-1.8-2-4.6-3.1-8.3-3.1
		c-3.1,0-5.8,0.9-8.1,2.9C262.9,435.1,261.4,438,261.4,441.2z"/>
	<path class="st3" d="M317,486c-2.9,0-5.5-1.1-7.6-3.2s-3.2-4.6-3.2-7.6v-51.9c0-2.6,0.9-4.7,2.6-6.6c1.8-1.8,4-2.8,6.4-2.8h0.9
		c2.4,0,4.4,0.8,6.3,2.3c1.8,1.5,2.9,3.5,3.2,5.8l0.2,0.6c0,0.2,0.2,0.3,0.3,0.3c0.2,0,0.3,0,0.5-0.2c7.2-7,14.8-10.6,22.8-10.6
		c7.5,0,13.2,2.6,16.8,7.6s5.5,12.2,5.5,21.6V475c0,2.9-1.1,5.5-3.2,7.6c-2.1,2.1-4.6,3.2-7.6,3.2H360c-2.9,0-5.5-1.1-7.6-3.2
		c-2.1-2.1-3.2-4.6-3.2-7.6v-30.9c0-4.7-0.6-8.1-2-9.9s-3.5-2.8-6.4-2.8c-2.3,0-4.1,0.5-5.8,1.2c-1.7,0.9-3.7,2.3-5.8,4.3
		c-0.6,0.6-0.9,1.2-0.9,2.1v36c0,2.9-1.1,5.5-3.2,7.6c-2.1,2.1-4.6,3.2-7.6,3.2L317,486L317,486z"/>
	<path class="st3" d="M396.8,427.3c3.5-1.7,8.3-3.2,14.1-4.4c5.8-1.4,12.1-2.1,18.7-2.1c6.7,0,12.9,0.9,18.5,2.9
		c5.7,2,10.3,5.2,13.5,9.8c3.4,4.6,5,9.9,5,16.1c-0.2,8.3-2.4,15.6-6.7,22c-4.3,6.4-11.5,11.3-21.3,14.5c-9.8,3.2-18.7,4.9-26.8,4.9
		c-5,0-7.7-2.9-7.7-8.7c0.2-5.8,2.8-8.9,8.1-9.2c6.3,0,12.7-1.1,19.1-3.4s10.9-5,13.2-8.6c2.3-3.5,3.2-7.5,3.1-12.1
		c0-3.4-1.2-6-3.7-8c-2.4-2-7.3-2.9-14.7-3.1c-4,0.2-8.1,0.6-12.5,1.7s-9.9,2.4-16.7,4.4c-4.6,1.8-7.6-0.2-9.3-6
		C389.9,433.2,391.9,429.6,396.8,427.3z M407.6,394.1c8.1-0.3,14.8-0.5,20-0.3c5.2,0.2,12.2,0.6,20.7,1.4c6,0.8,9,4.1,9.2,9.9
		c-0.2,6.1-3.2,8.6-9.2,7.3c-8.6-0.9-15.5-1.5-20.7-1.7c-8.1,0-13.5,0-15.8,0.2c-2.4,0.2-3.7,0.2-3.7,0.3c-5.2,0.2-8-2.6-8-8.6
		C400.3,397.3,402.9,394.4,407.6,394.1z"/>
	<path class="st3" d="M524.2,417.9c5.8,0,9.5,2.3,11,7c1.5,4.6,0.2,8.7-4.4,12.2l-9.2,9.2c2.9,0.9,4.7,2.6,5.2,4.7
		c0.5,2.1,0.8,4.3,0.6,6.4c0,1.7,0,3.5,0,5.5s0.3,3.8,1.1,5.7c0.8,1.8,2.1,2.8,4.4,2.9c2.1,0.2,4.7-0.2,7.6-0.9
		c5.5-1.2,8.6,1.2,9.3,6.9c0.8,6-1.7,9.8-7.3,11.3c-3.1,0.9-7.2,1.4-12.4,1.4c-6-0.2-10.9-1.8-14.7-5.4c-3.7-3.5-5.5-8.4-5.5-14.8
		c0-3.2,0-5.7,0-7c0-1.4,0-2.1,0-2.1c0-0.2,0-0.5,0-0.9c0-0.6-0.2-1.1-0.5-1.5c-0.3-0.5-0.6-0.5-1.2,0l-23.6,22
		c-5.4,4.9-10.3,4.9-14.4,0c-3.1-4.9-2.9-9.3,0.9-13.3l36.6-32.3h-26.6c-5.7,0-8.6-2.9-8.6-8.6c0-5.7,2.9-8.6,8.6-8.6h43
		L524.2,417.9L524.2,417.9z M488.9,393c8.1-0.3,14.8-0.5,20-0.3s11.2,0.6,17.7,1.4c6,0.8,9,4.1,9.2,9.9c-0.2,5.8-3.2,8.1-9.2,6.9
		c-6.6-0.6-13.2-1.1-19.9-1.1c-6.7-0.2-11.3-0.2-13.6-0.3c-2.4-0.2-3.7-0.2-3.7,0c-5.2,0.2-8-2.4-8-8
		C481.5,396.4,484.1,393.5,488.9,393z"/>
</g>
<line class="st0" x1="519.3" y1="270.5" x2="536.7" y2="254.9"/>
</svg>
