<?xml version="1.0" encoding="utf-8"?>
<!-- Generator: Adobe Illustrator 19.0.0, SVG Export Plug-In . SVG Version: 6.00 Build 0)  -->
<svg version="1.1" id="Ebene_1" xmlns="http://www.w3.org/2000/svg" xmlns:xlink="http://www.w3.org/1999/xlink" x="0px" y="0px"
	 viewBox="-2665 2429.2 1199.1 448.2" style="enable-background:new -2665 2429.2 1199.1 448.2;" xml:space="preserve">
<style type="text/css">
	.st0{fill:#A8A8A8;}
	.st1{fill:none;}
	.st2{fill:#020304;}
	.st3{fill:#FFFFFF;}
	.st4{fill:#00B3E3;}
	.st5{fill:#BDBCBC;}
	.st6{fill:#FFFFFF;stroke:#030405;stroke-width:2;stroke-miterlimit:10;}
</style>
<polygon id="defaultglco" class="st0" points="-1507.3,2691.6 -1549.4,2730.7 -1966,2730.7 -1966,2746.5 -1566.4,2746.5 
	-1566.3,2746.5 -1542.4,2746.5 -1483.4,2691.6 "/>
<polygon id="defaultglbo" class="st0" points="-1507.3,2691.7 -1566.4,2746.6 -1566.3,2746.6 -1607.7,2785 -1966,2785 -1966,2801.4 
	-1625.4,2801.4 -1601.4,2801.4 -1542.4,2746.6 -1483.4,2691.7 "/>
<polygon id="defaultglao" class="st0" points="-1507.3,2691.6 -1566.4,2746.5 -1566.3,2746.5 -1625.4,2801.3 -1667.5,2840.5 
	-1966,2840.5 -1966,2856.2 -1684.4,2856.2 -1660.6,2856.2 -1601.6,2801.3 -1601.4,2801.3 -1542.4,2746.5 -1483.4,2691.6 "/>
<polygon id="defaultgldo" class="st0" points="-1966,2691.6 -1507.3,2691.6 -1495.4,2680.6 -1495.4,2675.9 -1966,2675.9 "/>
<polygon id="glco" class="st1" points="-1507.3,2691.6 -1549.4,2730.7 -1966,2730.7 -1966,2746.5 -1566.4,2746.5 -1566.3,2746.5 
	-1542.4,2746.5 -1483.4,2691.6 "/>
<polygon id="glbo" class="st1" points="-1507.3,2691.7 -1566.4,2746.6 -1566.3,2746.6 -1607.7,2785 -1966,2785 -1966,2801.4 
	-1625.4,2801.4 -1601.4,2801.4 -1542.4,2746.6 -1483.4,2691.7 "/>
<polygon id="glao" class="st1" points="-1507.3,2691.6 -1566.4,2746.5 -1566.3,2746.5 -1625.4,2801.3 -1667.5,2840.5 -1966,2840.5 
	-1966,2856.2 -1684.4,2856.2 -1660.6,2856.2 -1601.6,2801.3 -1601.4,2801.3 -1542.4,2746.5 -1483.4,2691.6 "/>
<polygon id="gldo" class="st1" points="-1966,2691.6 -1507.3,2691.6 -1495.4,2680.6 -1495.4,2675.9 -1966,2675.9 "/>
<polygon id="defaultglcw" class="st0" points="-2582.3,2730.7 -2624.5,2691.6 -2648.3,2691.6 -2589.3,2746.5 -2565.3,2746.5 
	-2166.1,2746.5 -2166.1,2730.7 "/>
<polygon id="defaultglbw" class="st0" points="-2523.9,2785 -2565.3,2746.6 -2624.5,2691.7 -2648.3,2691.7 -2589.3,2746.6 
	-2589.2,2746.6 -2530.2,2801.4 -2506.3,2801.4 -2166.1,2801.4 -2166.1,2785 "/>
<polygon id="defaultglaw" class="st0" points="-2464.1,2840.5 -2506.3,2801.3 -2565.3,2746.5 -2624.5,2691.6 -2648.3,2691.6 
	-2589.3,2746.5 -2589.2,2746.5 -2530.2,2801.3 -2471.2,2856.2 -2447.2,2856.2 -2166.1,2856.2 -2166.1,2840.5 "/>
<polygon id="defaultgldw" class="st0" points="-2166,2675.9 -2635.9,2675.9 -2635.9,2680.7 -2624.2,2691.6 -2166,2691.6 "/>
<polygon id="glcw" class="st1" points="-2582.3,2730.7 -2624.5,2691.6 -2648.3,2691.6 -2589.3,2746.5 -2565.3,2746.5 
	-2166.1,2746.5 -2166.1,2730.7 "/>
<polygon id="glbw" class="st1" points="-2523.9,2785 -2565.3,2746.6 -2624.5,2691.7 -2648.3,2691.7 -2589.3,2746.6 -2589.2,2746.6 
	-2530.2,2801.4 -2506.3,2801.4 -2166.1,2801.4 -2166.1,2785 "/>
<polygon id="glaw" class="st1" points="-2464.1,2840.5 -2506.3,2801.3 -2565.3,2746.5 -2624.5,2691.6 -2648.3,2691.6 
	-2589.3,2746.5 -2589.2,2746.5 -2530.2,2801.3 -2471.2,2856.2 -2447.2,2856.2 -2166.1,2856.2 -2166.1,2840.5 "/>
<polygon id="gldw" class="st1" points="-2166,2675.9 -2635.9,2675.9 -2635.9,2680.7 -2624.2,2691.6 -2166,2691.6 "/>
<path id="glg" class="st2" d="M-1507.3,2691.6l12-11.1v-118.7l-113-104.3h-914.2l-113.1,104.3v118.9l11.7,10.9h-23.9l-4.7-4.3v-132
	l123.1-113.4h928.1l123,113.4V2687l-5,4.6L-1507.3,2691.6L-1507.3,2691.6z"/>
<rect id="defaultgldm" x="-2166" y="2675.9" class="st0" width="200" height="15.7"/>
<rect id="defaultglcm" x="-2166" y="2730.8" class="st0" width="200" height="15.7"/>
<rect id="defaultglbm" x="-2166" y="2785.3" class="st0" width="200" height="15.7"/>
<rect id="defaultglam" x="-2166" y="2840.5" class="st0" width="200" height="15.7"/>
<rect id="gldm" x="-2166" y="2675.9" class="st1" width="200" height="15.7"/>
<rect id="glcm" x="-2166" y="2730.8" class="st1" width="200" height="15.7"/>
<rect id="glbm" x="-2166" y="2785.3" class="st1" width="200" height="15.7"/>
<rect id="glam" x="-2166" y="2840.5" class="st1" width="200" height="15.7"/>
<g id="offdo">
	<g id="XMLID_28_">
		<polygon id="XMLID_30_" class="st2" points="-1839.8,2697.7 -1826,2683.8 -1839.8,2670 -1826.7,2656.8 -1799.8,2683.8 
			-1826.7,2710.8 		"/>
		<path id="XMLID_29_" class="st3" d="M-1826.7,2658.8l25,25l-25,25l-11.1-11.1l13.9-13.9l-13.9-13.9L-1826.7,2658.8
			 M-1826.7,2654.8l-2,2l-11.1,11.1l-2,2l2,2l11.9,11.9l-11.9,11.9l-2,2l2,2l11.1,11.1l2,2l2-2l25-25l2-2l-2-2l-25-25
			L-1826.7,2654.8L-1826.7,2654.8z"/>
	</g>
</g>
<g id="offdw">
	<polygon id="XMLID_24_" class="st2" points="-2291,2670 -2304.8,2683.8 -2291,2697.7 -2304.1,2710.8 -2331,2683.8 -2304.1,2656.8 	
		"/>
	<path id="XMLID_21_" class="st3" d="M-2304.1,2708.8l-25-25l25-25l11.1,11.1l-13.9,13.9l13.9,13.9L-2304.1,2708.8 M-2304.1,2712.8
		l2-2l11.1-11.1l2-2l-2-2l-11.9-11.9l11.9-11.9l2-2l-2-2l-11.1-11.1l-2-2l-2,2l-25,25l-2,2l2,2l25,25L-2304.1,2712.8L-2304.1,2712.8
		z"/>
</g>
<g id="offco">
	<g id="XMLID_18_">
		<polygon id="XMLID_20_" class="st2" points="-1839.8,2751.6 -1826,2737.8 -1839.8,2723.9 -1826.7,2710.8 -1799.8,2737.8 
			-1826.7,2764.8 		"/>
		<path id="XMLID_19_" class="st3" d="M-1826.7,2712.8l25,25l-25,25l-11.1-11.1l13.9-13.9l-13.9-13.9L-1826.7,2712.8
			 M-1826.7,2708.8l-2,2l-11.1,11.1l-2,2l2,2l11.9,11.9l-11.9,11.9l-2,2l2,2l11.1,11.1l2,2l2-2l25-25l2-2l-2-2l-25-25
			L-1826.7,2708.8L-1826.7,2708.8z"/>
	</g>
</g>
<g id="offcw">
	<polygon id="XMLID_17_" class="st2" points="-2291,2723.9 -2304.8,2737.8 -2291,2751.6 -2304.1,2764.8 -2331,2737.8 
		-2304.1,2710.8 	"/>
	<path id="XMLID_15_" class="st3" d="M-2304.1,2762.8l-25-25l25-25l11.1,11.1l-13.8,13.9l13.9,13.9L-2304.1,2762.8 M-2304.1,2766.8
		l2-2l11.1-11.1l2-2l-2-2l-11.8-11.9l11.9-11.9l2-2l-2-2l-11.2-11.1l-2-2l-2,2l-25,25l-2,2l2,2l25,25L-2304.1,2766.8L-2304.1,2766.8
		z"/>
</g>
<g id="offao_3_">
	<g id="XMLID_12_">
		<polygon id="XMLID_14_" class="st2" points="-1839.9,2807.1 -1826,2793.2 -1839.9,2779.4 -1826.8,2766.2 -1799.9,2793.2 
			-1826.8,2820.2 		"/>
		<path id="XMLID_13_" class="st3" d="M-1826.8,2768.2l25,25l-25,25l-11.1-11.1l13.9-13.9l-13.9-13.9L-1826.8,2768.2
			 M-1826.8,2764.2l-2,2l-11.1,11.1l-2,2l2,2l11.9,11.9l-11.9,11.9l-2,2l2,2l11.1,11.1l2,2l2-2l25-25l2-2l-2-2l-25-25
			L-1826.8,2764.2L-1826.8,2764.2z"/>
	</g>
</g>
<g id="offbw">
	<polygon id="XMLID_11_" class="st2" points="-2291.1,2779.4 -2304.8,2793.2 -2291.1,2807.1 -2304.2,2820.2 -2331.1,2793.2 
		-2304.2,2766.2 	"/>
	<path id="XMLID_10_" class="st3" d="M-2304.2,2818.2l-25-25l25-25l11.1,11.1l-13.9,13.9l13.9,13.9L-2304.2,2818.2 M-2304.2,2822.2
		l2-2l11.1-11.1l2-2l-2-2l-11.9-11.9l11.9-11.9l2-2l-2-2l-11.1-11.1l-2-2l-2,2l-25,25l-2,2l2,2l25,25L-2304.2,2822.2L-2304.2,2822.2
		z"/>
</g>
<g id="offao_2_">
	<g id="XMLID_7_">
		<polygon id="XMLID_9_" class="st2" points="-1839.8,2862.2 -1826,2848.4 -1839.8,2834.5 -1826.7,2821.4 -1799.8,2848.4 
			-1826.7,2875.4 		"/>
		<path id="XMLID_8_" class="st3" d="M-1826.7,2823.4l25,25l-25,25l-11.1-11.1l13.9-13.9l-13.9-13.9L-1826.7,2823.4 M-1826.7,2819.4
			l-2,2l-11.1,11.1l-2,2l2,2l11.9,11.9l-11.9,11.9l-2,2l2,2l11.1,11.1l2,2l2-2l25-25l2-2l-2-2l-25-25L-1826.7,2819.4L-1826.7,2819.4
			z"/>
	</g>
</g>
<g id="offaw">
	<polygon id="XMLID_6_" class="st2" points="-2291,2834.5 -2304.8,2848.4 -2291,2862.2 -2304.1,2875.4 -2331,2848.4 -2304.1,2821.4 
			"/>
	<path id="XMLID_5_" class="st3" d="M-2304.1,2873.4l-25-25l25-25l11.1,11.1l-13.8,13.9l13.9,13.9L-2304.1,2873.4 M-2304.1,2877.4
		l2-2l11.1-11.1l2-2l-2-2l-11.8-11.9l11.9-11.9l2-2l-2-2l-11.2-11.1l-2-2l-2,2l-25,25l-2,2l2,2l25,25L-2304.1,2877.4L-2304.1,2877.4
		z"/>
</g>
<g id="labelunten">
	<path class="st4" d="M-2228.9,2573.8c-9.5,0-16.7-2.8-21.4-8.4c-4.8-5.6-7.2-14.3-7.2-26V2510c0-2.2,0.8-4.1,2.4-5.7
		c1.6-1.6,3.4-2.4,5.7-2.4h0.7c2.2,0,4.1,0.8,5.8,2.4c1.6,1.6,2.4,3.4,2.4,5.7v31.2c0,6.5,0.9,11.3,2.9,14c2,2.7,4.8,4.1,8.9,4.1
		s7-1.3,8.9-4.3c2-2.9,3-7.4,3-13.9V2510c0-2.2,0.8-4.1,2.4-5.7s3.5-2.4,5.7-2.4h0.2c2.2,0,4.1,0.8,5.7,2.4s2.4,3.5,2.4,5.7v29.4
		c0,11.8-2.3,20.4-7,26C-2212.3,2571-2219.4,2573.8-2228.9,2573.8z"/>
	<path class="st4" d="M-2187.6,2572.5c-2.2,0-4.1-0.8-5.7-2.4c-1.6-1.6-2.4-3.5-2.4-5.7v-38.9c0-2,0.7-3.5,2-5
		c1.4-1.3,3-2.1,4.8-2.1h0.6c1.8,0,3.3,0.6,4.7,1.7c1.4,1.1,2.2,2.6,2.4,4.3l0.1,0.5c0,0.2,0.1,0.2,0.2,0.2c0.1,0,0.2,0,0.4-0.2
		c5.4-5.3,11.1-8,17.1-8c5.6,0,9.9,2,12.6,5.7c2.8,3.8,4.1,9.2,4.1,16.2v25.3c0,2.2-0.8,4.1-2.4,5.8c-1.6,1.6-3.5,2.4-5.7,2.4h-0.8
		c-2.2,0-4.1-0.8-5.7-2.4c-1.6-1.6-2.4-3.4-2.4-5.8v-23.2c0-3.5-0.5-6.1-1.5-7.4s-2.6-2.1-4.8-2.1c-1.7,0-3.1,0.4-4.3,0.9
		c-1.3,0.7-2.8,1.7-4.4,3.2c-0.5,0.5-0.7,0.9-0.7,1.6v27c0,2.2-0.8,4.1-2.4,5.8c-1.6,1.6-3.5,2.4-5.7,2.4L-2187.6,2572.5
		L-2187.6,2572.5z"/>
	<path class="st4" d="M-2121.7,2573.8c-6.5,0-11.3-1.8-14.5-5.6c-3.1-3.8-4.6-8.9-4.6-15.8v-19.9c0-0.5-0.2-0.7-0.7-0.7h-0.2
		c-1.7,0-3.2-0.6-4.5-1.8c-1.3-1.3-1.8-2.8-1.8-4.5c0-1.8,0.6-3.3,1.8-4.6c1.1-1.3,2.8-1.9,4.5-2.2l1.1-0.2c0.6-0.2,0.9-0.4,1-0.9
		l0.8-6.5c0.2-1.9,1.1-3.7,2.6-4.9c1.5-1.3,3.3-2,5.3-2s3.5,0.7,5,2.1c1.4,1.4,2.1,3,2.1,5v6.2c0,0.6,0.4,0.9,0.9,0.9h5.2
		c1.8,0,3.3,0.7,4.6,2c1.3,1.3,2,2.8,2,4.7c0,1.8-0.7,3.3-2,4.7c-1.3,1.3-2.8,1.9-4.6,1.9h-5.2c-0.6,0-0.9,0.4-0.9,0.9v19.7
		c0,5,1.8,7.7,5.6,8.3c1.8,0.2,3.5,0.8,4.8,1.7c1.3,0.9,2.2,2.1,2.6,3.5c0.2,0.6,0.2,1.1,0.2,1.6c0,1.1-0.4,2.3-1.1,3.3
		c-0.9,1.5-2.2,2.4-3.9,2.6C-2117.5,2573.6-2119.6,2573.8-2121.7,2573.8z"/>
	<path class="st4" d="M-2070.7,2524.5c-3.9-4.7-9.5-7-16.9-7c-3.3,0-6.4,0.6-9.5,1.9c-3.2,1.2-5.8,3.1-8.2,5.5
		c-2.4,2.2-4.2,5.4-5.7,8.9c-1.5,3.6-2.2,7.5-2.2,11.8c0,8.7,2.5,15.6,7.7,20.6c5.2,5.1,11.8,7.6,19.7,7.6c4.8,0,9.5-1.1,14.2-3.1
		c0.9-0.5,1.6-1.2,2.2-2.1c0.5-0.8,0.7-1.7,0.7-2.8c0-1.2-0.3-2.1-0.7-3.1c-0.7-1.5-2-2.4-3.5-2.8c-0.9,0-1.5-0.2-2.2-0.2
		c-0.9,0-1.7,0.2-2.4,0.4c-2.1,0.6-4.1,1-6.2,1c-7.1,0-11.5-3.2-13.2-9.5c0-0.1,0-0.4,0.2-0.6c0.1-0.2,0.4-0.4,0.6-0.4h22.7
		c2.4,0,4.5-0.7,6.2-2.2c1.7-1.5,2.6-3.3,2.6-5.5C-2064.6,2535.4-2066.6,2529.3-2070.7,2524.5z M-2079.1,2539.4
		c-0.2,0-0.5,0.2-0.7,0.2h-16.5c-0.2,0-0.4,0-0.6-0.2c0-0.3-0.2-0.3-0.2-0.5c0-2.4,1.3-4.6,3.6-6.5c1.8-1.5,3.8-2.2,6.1-2.2
		c2.8,0,4.9,0.8,6.2,2.3c1.4,1.5,2.1,3.6,2.3,6.2C-2078.9,2539-2078.9,2539.2-2079.1,2539.4z"/>
	<path class="st4" d="M-2055.2,2572.5c-2.2,0-4.1-0.8-5.8-2.4c-1.6-1.6-2.4-3.5-2.4-5.7v-38.9c0-2,0.7-3.5,1.9-5
		c1.3-1.3,3-2.1,4.8-2.1h0.7c1.8,0,3.3,0.6,4.7,1.7c1.4,1.1,2.2,2.6,2.4,4.3l0.2,0.5c0,0.2,0.2,0.2,0.2,0.2s0.2,0,0.4-0.2
		c5.4-5.3,11.1-8,17.1-8c5.6,0,9.9,2,12.6,5.7c2.8,3.8,4.1,9.2,4.1,16.2v25.3c0,2.2-0.8,4.1-2.4,5.8c-1.6,1.6-3.4,2.4-5.7,2.4h-0.7
		c-2.2,0-4.1-0.8-5.7-2.4s-2.4-3.4-2.4-5.8v-23.2c0-3.5-0.5-6.1-1.5-7.4c-1.1-1.3-2.6-2.1-4.8-2.1c-1.7,0-3.1,0.4-4.3,0.9
		c-1.3,0.7-2.8,1.7-4.3,3.2c-0.4,0.5-0.7,0.9-0.7,1.6v27c0,2.2-0.8,4.1-2.4,5.8c-1.6,1.6-3.5,2.4-5.7,2.4L-2055.2,2572.5
		L-2055.2,2572.5z"/>
	<path class="st4" d="M-1982.1,2551.7c0,3.7,0.6,6.3,1.8,8c1.1,1.7,3.1,2.6,5.6,2.8c3.2,0,6.7-0.8,10.4-2.4c3.5-1.6,8.3-4.1,14-7.7
		c3.3-2.4,6.3-2.1,8.9,1.1c2.3,3.7,1.8,7.1-1.5,10.3c-2.9,2.2-5.9,4.3-9.1,6.2c-3.2,1.8-6.8,3.5-10.8,4.9c-4.1,1.3-8.3,2.2-12.6,2.3
		c-7.2-0.2-12.4-2.2-15.6-6.3s-4.8-9.8-4.8-17.1v-47c0-4.6,2.3-6.9,6.9-6.9s6.9,2.3,6.9,6.9L-1982.1,2551.7L-1982.1,2551.7z"/>
	<path class="st4" d="M-1932.5,2511h6.2c0.4-3.3,0.6-5,0.6-5c0.5-4.1,2.8-6.1,7.1-6c4.1,0.4,5.8,2.4,5.6,6l-0.4,5h6.5
		c4.4,0,6.5,2.2,6.5,6.5s-2.2,6.5-6.5,6.5h-7.9c-1.3,10.6-2.8,19.7-4.3,27.4c-1.5,7.7-3,14.1-4.3,19.5c-1.1,3.9-3.9,5.5-8.2,4.8
		c-4.6-0.9-6.2-3.5-4.8-8.2c1.1-3.9,2.6-10.3,4.3-19.3c1.7-8.9,3.1-17.1,4.1-24.3h-4.6c-4.4,0-6.5-2.2-6.5-6.5
		C-1939.2,2513.2-1937,2511-1932.5,2511z"/>
	<path class="st4" d="M-1912.4,2548.9c1.5-3.1,4.1-4.3,7.4-3.3c3.7,1.7,4.7,3.9,3.3,6.7c-0.6,1.3-0.7,3.2-0.6,5.7
		c0.2,2.6,3.1,4.1,8.7,4.1c3.4,0,7.6-0.2,12.5-0.4c4.1,0.2,6.1,2.5,6.4,7.2c-0.1,4.5-2.3,6.9-6.4,7c-6.8,0.2-12.3,0.2-16.5,0
		c-4.5-0.2-8-1.1-10.6-2.8c-2.6-1.6-4.4-3.7-5.5-6c-1.1-2.4-1.6-4.8-1.6-7.4C-1915.2,2556-1914.3,2552.4-1912.4,2548.9z"/>
	<path class="st4" d="M-1882.7,2522.7c3.8,0.2,5.7,2.2,5.7,6.5c-0.2,4.3-1.9,6.3-5.5,6.4c-8.2,0.2-14.3,0.4-18.1,0.5
		c-3.8,0.4-5.6-1.8-5.5-6.3c0.2-3.9,1.7-6.1,4.7-6.4C-1896.5,2523.1-1890.3,2522.9-1882.7,2522.7z"/>
	<path class="st4" d="M-2148.6,2632.8c-1.5,0-2.9-0.5-4.2-1.4c-1.3-0.9-2.1-2.1-2.6-3.6l-10.8-36c-0.1-0.4-0.2-0.8-0.2-1.1
		c0-0.8,0.3-1.6,0.8-2.3c0.8-1,1.8-1.6,3.1-1.6h1.2c1.5,0,2.9,0.5,4.1,1.4s2,2.2,2.4,3.7l4,15.8c0.4,1.7,1,4.2,1.8,7.4
		c0.7,3.2,1.3,5.6,1.7,7.3c0,0.1,0.1,0.1,0.2,0.1c0.1,0,0.2,0,0.2-0.1c0.4-1.6,1-4,1.7-7.3c0.7-3.2,1.3-5.7,1.8-7.4l4-15.8
		c0.4-1.5,1.1-2.8,2.4-3.7c1.2-0.9,2.6-1.4,4.1-1.4h0.8c1.3,0,2.3,0.5,3.1,1.6c0.5,0.7,0.8,1.5,0.8,2.3c0,0.4-0.1,0.7-0.2,1.1
		l-10.8,36c-0.5,1.5-1.4,2.7-2.6,3.6c-1.2,0.9-2.7,1.4-4.2,1.4H-2148.6z"/>
	<path class="st4" d="M-2127.7,2630c-1.1,0-2-0.3-2.7-0.9c-0.7-0.6-1-1.4-1-2.4s0.3-1.8,1-2.4c0.7-0.6,1.6-0.9,2.7-0.9
		s1.9,0.3,2.6,0.9c0.7,0.6,1,1.4,1,2.4s-0.3,1.8-1,2.4C-2125.8,2629.7-2126.6,2630-2127.7,2630z M-2127.8,2653.4
		c-0.8,0-1.6-0.3-2.2-0.9s-0.9-1.3-0.9-2.2v-14.4c0-0.8,0.3-1.6,0.9-2.2c0.6-0.6,1.3-0.9,2.2-0.9h0.2c0.8,0,1.6,0.3,2.2,0.9
		c0.6,0.6,0.9,1.3,0.9,2.2v14.4c0,0.8-0.3,1.6-0.9,2.2c-0.6,0.6-1.3,0.9-2.2,0.9H-2127.8L-2127.8,2653.4z"/>
	<path class="st4" d="M-2116.8,2653.9c-2,0-3.9-0.5-5.9-1.5c-0.6-0.3-1-0.8-1.1-1.5c0-0.1,0-0.3,0-0.4c0-0.5,0.2-1,0.5-1.4
		c0.4-0.5,0.9-0.9,1.6-1c0.2,0,0.4,0,0.5,0c0.5,0,1,0.1,1.4,0.3c1.1,0.6,2.1,0.8,3.1,0.8c1.6,0,2.4-0.5,2.4-1.6c0-0.2,0-0.3-0.1-0.5
		c-0.1-0.2-0.2-0.3-0.4-0.4s-0.3-0.3-0.5-0.4c-0.1-0.1-0.4-0.2-0.7-0.4c-0.3-0.1-0.5-0.2-0.7-0.3s-0.5-0.2-0.9-0.4
		c-0.4-0.2-0.7-0.3-0.9-0.3c-0.7-0.3-1.3-0.6-1.9-0.9c-0.6-0.3-1.1-0.7-1.7-1.2c-0.6-0.5-1-1-1.3-1.7c-0.3-0.7-0.5-1.4-0.5-2.2
		c0-2,0.7-3.5,2.2-4.7c1.5-1.2,3.4-1.8,5.8-1.8c1.9,0,3.6,0.4,5.3,1.3c0.6,0.3,0.9,0.8,1,1.4c0,0.1,0,0.3,0,0.4c0,0.5-0.2,1-0.5,1.4
		c-0.4,0.5-0.9,0.8-1.6,1c-0.2,0-0.4,0.1-0.6,0.1c-0.4,0-0.9-0.1-1.3-0.3c-0.8-0.4-1.5-0.5-2.2-0.5c-1.5,0-2.2,0.5-2.2,1.5
		c0,0.1,0,0.3,0.1,0.4c0,0.1,0.1,0.2,0.2,0.3s0.2,0.2,0.3,0.3s0.2,0.2,0.4,0.3c0.2,0.1,0.3,0.2,0.5,0.2c0.2,0,0.3,0.2,0.6,0.2
		c0.2,0.1,0.5,0.2,0.6,0.2c0.2,0.1,0.4,0.1,0.7,0.2c0.3,0.1,0.5,0.2,0.7,0.2c0.8,0.3,1.4,0.6,2,0.9c0.6,0.3,1.1,0.7,1.7,1.2
		c0.6,0.5,1,1.1,1.3,1.8c0.3,0.7,0.4,1.5,0.4,2.4c0,2-0.7,3.6-2.2,4.8C-2112,2653.3-2114.1,2653.9-2116.8,2653.9z"/>
	<path class="st4" d="M-2100.1,2653.9c-2.5,0-4.3-0.7-5.5-2.1c-1.2-1.4-1.8-3.4-1.8-6v-7.6c0-0.2-0.1-0.3-0.3-0.3h-0.1
		c-0.7,0-1.2-0.2-1.7-0.7s-0.7-1-0.7-1.7c0-0.7,0.2-1.3,0.7-1.8s1-0.8,1.7-0.8h0.4c0.2,0,0.4-0.1,0.4-0.4l0.3-2.4
		c0.1-0.8,0.4-1.4,1-1.9s1.3-0.8,2-0.8s1.4,0.3,1.9,0.8s0.8,1.2,0.8,1.9v2.4c0,0.2,0.1,0.4,0.4,0.4h2c0.7,0,1.3,0.2,1.8,0.7
		s0.7,1.1,0.7,1.8c0,0.7-0.2,1.3-0.7,1.8s-1.1,0.7-1.8,0.7h-2c-0.2,0-0.4,0.1-0.4,0.4v7.5c0,1.9,0.7,3,2.2,3.1
		c0.7,0.1,1.3,0.3,1.9,0.6c0.5,0.3,0.9,0.8,1,1.3c0,0.2,0.1,0.4,0.1,0.6c0,0.4-0.1,0.9-0.4,1.3c-0.3,0.6-0.8,0.9-1.5,1
		C-2098.5,2653.9-2099.3,2653.9-2100.1,2653.9z"/>
	<path class="st4" d="M-2084.9,2610.4c-0.9,0-1.6-0.3-2.2-0.9c-0.6-0.6-0.9-1.3-0.9-2.2s0.3-1.6,0.9-2.2c0.6-0.6,1.3-0.9,2.2-0.9
		h20.2c0.8,0,1.6,0.3,2.2,0.9c0.6,0.6,0.9,1.4,0.9,2.2c0,0.9-0.3,1.6-0.9,2.2c-0.6,0.6-1.3,0.9-2.2,0.9H-2084.9z M-2084.9,2623.9
		c-0.9,0-1.6-0.3-2.2-0.9c-0.6-0.6-0.9-1.4-0.9-2.2c0-0.9,0.3-1.6,0.9-2.2c0.6-0.6,1.3-0.9,2.2-0.9h20.2c0.8,0,1.6,0.3,2.2,0.9
		c0.6,0.6,0.9,1.3,0.9,2.2s-0.3,1.6-0.9,2.2c-0.6,0.6-1.3,0.9-2.2,0.9H-2084.9z"/>
</g>
<g id="diro">
	<path class="st5" d="M-1788.2,2542.9c0,17.4-14.1,31.5-31.5,31.5s-31.5-14.1-31.5-31.5s14.1-31.5,31.5-31.5
		C-1802.3,2511.4-1788.2,2525.6-1788.2,2542.9z M-1792.2,2543c0-15.2-12.4-27.5-27.5-27.5s-27.5,12.2-27.5,27.4
		c0,15.2,12.4,27.5,27.5,27.5S-1792.2,2558.2-1792.2,2543z"/>
	<polygon id="XMLID_1_" points="-1797.5,2542.9 -1824,2569.4 -1835.7,2557.6 -1821.1,2542.9 -1835.7,2528.3 -1824,2516.6 	"/>
</g>
<g id="dirw">
	<path class="st5" d="M-2311,2512.2c17.4,0,31.5,14.1,31.5,31.5c0,17.4-14.1,31.5-31.5,31.5s-31.5-14.1-31.5-31.5
		C-2342.5,2526.4-2328.4,2512.2-2311,2512.2z M-2311,2571.2c15.1,0,27.5-12.3,27.5-27.5c0-15.2-12.4-27.4-27.5-27.4
		s-27.5,12.3-27.5,27.5C-2338.5,2559-2326.1,2571.2-2311,2571.2z"/>
	<polygon id="XMLID_4_" points="-2306.8,2517.4 -2295,2529.1 -2309.6,2543.7 -2295,2558.4 -2306.8,2570.2 -2333.2,2543.7 	"/>
</g>
<circle id="sig1o" class="st6" cx="-1896.4" cy="2848.4" r="19.3"/>
<circle id="sig1w" class="st6" cx="-2236.4" cy="2848.4" r="19.3"/>
<circle id="sig2o" class="st6" cx="-1896.5" cy="2793.2" r="19.3"/>
<circle id="sig2w" class="st6" cx="-2236.5" cy="2793.2" r="19.3"/>
<circle id="sig3o" class="st6" cx="-1896.4" cy="2737.8" r="19.3"/>
<circle id="sig3w" class="st6" cx="-2236.4" cy="2737.8" r="19.3"/>
<circle id="sig4o" class="st6" cx="-1896.4" cy="2683.8" r="19.3"/>
<circle id="sig4w" class="st6" cx="-2236.4" cy="2683.8" r="19.3"/>
<circle id="sns01" class="st6" cx="-2166.4" cy="2848.4" r="19.3"/>
<circle id="sns02" class="st6" cx="-2166.5" cy="2793.2" r="19.3"/>
<circle id="sns03" class="st6" cx="-2166.4" cy="2737.8" r="19.3"/>
<circle id="sns04" class="st6" cx="-2166.4" cy="2683.8" r="19.3"/>
<circle id="sns05" class="st6" cx="-1966.4" cy="2848.4" r="19.3"/>
<circle id="sns06" class="st6" cx="-1966.5" cy="2793.2" r="19.3"/>
<circle id="sns07" class="st6" cx="-1966.4" cy="2737.8" r="19.3"/>
<circle id="sns08" class="st6" cx="-1966.4" cy="2683.8" r="19.3"/>
<circle id="sns17" class="st6" cx="-2644.7" cy="2617.7" r="19.3"/>
<circle id="sns18" class="st6" cx="-2065.4" cy="2449.5" r="19.3"/>
<circle id="sns19" class="st6" cx="-1486.2" cy="2617.7" r="19.3"/>
</svg>
