<?xml version="1.0" encoding="utf-8"?>
<!-- Generator: Adobe Illustrator 19.0.0, SVG Export Plug-In . SVG Version: 6.00 Build 0)  -->
<svg version="1.1" id="Ebene_1" xmlns="http://www.w3.org/2000/svg" xmlns:xlink="http://www.w3.org/1999/xlink" x="0px" y="0px"
	 viewBox="-532 526.8 1201.6 364.5" style="enable-background:new -532 526.8 1201.6 364.5;" xml:space="preserve">
<style type="text/css">
	.st0{fill:#020304;}
	.st1{fill:#FFFFFF;}
	.st2{fill:#00B3E3;}
	.st3{fill:#BDBCBC;}
	.st4{fill:#FFFFFF;stroke:#030405;stroke-width:2;stroke-miterlimit:10;}
</style>
<polygon id="gln" class="st0" points="168.8,857.1 535.6,857.1 641,752.8 641,662.5 536.7,558.4 290.5,558.4 307.9,542.8 
	543.1,542.8 656.4,656.1 656.4,759.4 542,872.8 168.8,872.8 "/>
<polygon id="glmo" class="st0" points="290.5,558.4 169.1,558.4 169.1,542.8 307.9,542.8 "/>
<rect id="gllm" x="-28.2" y="599.7" class="st0" width="201.4" height="15.7"/>
<polygon id="glmw" class="st0" points="164.7,558.4 -398.4,558.4 -439.7,599.7 -461.8,599.7 -404.9,542.8 164.7,542.8 "/>
<polygon id="gllo" class="st0" points="168.8,599.7 244.7,599.7 307.9,542.8 314.1,558.4 250.9,615.2 168.7,615.3 "/>
<polygon id="gllw" class="st0" points="-28.2,615.3 -458.4,615.4 -458.5,599.7 -28.2,599.7 "/>
<rect id="glkm" x="-32.6" y="857.1" class="st0" width="201.4" height="15.7"/>
<polygon id="glkw" class="st0" points="-32.6,872.8 -404,872.8 -518.4,759.4 -518.4,656.2 -461.8,599.7 -439.7,599.7 -502.7,662.7 
	-502.7,752.8 -397.4,857.1 -32.6,857.1 "/>
<g id="offko">
	<g id="XMLID_49_">
		<polygon id="XMLID_11_" class="st0" points="294.7,876.5 308.5,862.7 294.7,848.8 307.8,835.7 334.7,862.7 307.8,889.7 		"/>
		<path id="XMLID_10_" class="st1" d="M307.8,837.7l25,25l-25,25l-11.1-11.1l13.9-13.9l-13.9-13.9L307.8,837.7 M307.8,833.7l-2,2
			l-11.1,11.1l-2,2l2,2l11.9,11.9l-11.9,11.9l-2,2l2,2l11.1,11.1l2,2l2-2l25-25l2-2l-2-2l-25-25L307.8,833.7L307.8,833.7z"/>
	</g>
</g>
<g id="offkw">
	<g id="XMLID_13_">
		<polygon id="XMLID_15_" class="st0" points="-156.5,848.8 -170.3,862.6 -156.5,876.5 -169.6,889.6 -196.5,862.6 -169.6,835.7 		
			"/>
		<path id="XMLID_14_" class="st1" d="M-169.6,887.6l-25-25l25-25l11.1,11.1l-13.9,13.9l13.9,13.9L-169.6,887.6 M-169.6,891.6l2-2
			l11.1-11.1l2-2l-2-2l-11.9-11.9l11.9-11.9l2-2l-2-2l-11.1-11.1l-2-2l-2,2l-25,25l-2,2l2,2l25,25L-169.6,891.6L-169.6,891.6z"/>
	</g>
</g>
<g id="labeloben">
	<path class="st2" d="M-106.4,696.4c0-11.3,3-20.2,8.8-26.6c5.9-6.5,13.8-9.5,23.6-9.5s17.5,3.2,23.5,9.5c5.8,6.5,8.8,15.3,8.8,26.6
		s-3,20.4-8.8,27c-6,6.7-13.8,9.9-23.4,9.9c-9.8,0-17.5-3.3-23.4-9.9C-103.4,716.8-106.4,707.8-106.4,696.4z M-59,696.4
		c0-6.8-1.4-12.1-4.1-16c-2.6-3.9-6.3-5.7-11-5.7s-8.3,2-11,5.7c-2.6,3.9-4,9.2-4,16c0,6.9,1.4,12.4,4,16.4s6.3,6,11,6
		s8.4-2.1,11-6.1C-60.4,708.7-59,703.2-59,696.4z"/>
	<path class="st2" d="M-10.7,733.2c-5,0-9.7-2.3-13.8-6.9c-0.2-0.2-0.2-0.2-0.4-0.2s-0.2,0.2-0.2,0.2l-0.1,0.4
		c-0.4,1.5-1.1,2.8-2.4,3.8c-1.1,0.9-2.5,1.5-4.1,1.5H-33c-1.8,0-3.4-0.7-4.7-2s-2-2.8-2-4.6v-61c0-2.2,0.8-4.1,2.4-5.7
		c1.6-1.6,3.5-2.4,5.7-2.4h0.7c2.2,0,4.1,0.8,5.7,2.4c1.6,1.6,2.4,3.5,2.4,5.7v10.1l-0.4,7.1c0,0.2,0.2,0.4,0.2,0.5
		c0.1,0.1,0.4,0.1,0.4,0c4.1-3.5,8.5-5.2,13.2-5.2c6.5,0,11.6,2.6,15.5,7.4c3.8,4.9,5.7,11.6,5.7,19.9c0,4.5-0.7,8.6-2,12.4
		s-3,6.9-5,9.3c-2.2,2.4-4.6,4.3-7.2,5.6C-5.1,732.7-7.8,733.2-10.7,733.2z M-14.7,719.5c2.8,0,5-1.3,6.7-3.7s2.5-6.3,2.5-11.3
		c0-4.7-0.7-8.3-2.2-10.6c-1.4-2.3-3.5-3.4-6.5-3.4c-2.8,0-5.4,1.3-8,3.9c-0.5,0.5-0.7,1-0.7,1.7v19.4c0,0.6,0.2,1.1,0.7,1.5
		C-19.9,718.7-17.4,719.5-14.7,719.5z"/>
	<path class="st2" d="M37.6,733.2c-8,0-14.5-2.5-19.6-7.6c-5.2-5-7.7-11.9-7.7-20.6c0-4.3,0.7-8.2,2.2-11.8c1.5-3.5,3.3-6.7,5.7-8.9
		c2.4-2.4,5-4.3,8.2-5.5c3.1-1.3,6.2-1.9,9.5-1.9c7.4,0,13,2.3,17,7c4,4.8,6.1,10.9,6.1,18.4c0,2.2-0.9,4-2.6,5.5
		c-1.7,1.5-3.8,2.2-6.2,2.2H27.5c-0.2,0-0.5,0.2-0.6,0.4c-0.1,0.2-0.2,0.5-0.2,0.6c1.7,6.3,6.1,9.5,13.2,9.5c2.1,0,4.1-0.4,6.2-1
		c0.7-0.2,1.5-0.4,2.4-0.4c0.7,0,1.3,0.2,2.2,0.2c1.5,0.5,2.8,1.4,3.5,2.8c0.5,1,0.7,2,0.7,3.1c0,1-0.2,2-0.7,2.8
		c-0.6,0.9-1.3,1.6-2.2,2.1C47.2,732.2,42.4,733.2,37.6,733.2z M26.5,698.4c0,0.2,0.1,0.2,0.2,0.5c0.1,0.2,0.4,0.2,0.6,0.2h16.4
		c0.2,0,0.5-0.2,0.7-0.2c0.2-0.2,0.2-0.4,0.2-0.7c-0.2-2.6-0.9-4.7-2.3-6.2c-1.4-1.5-3.5-2.3-6.2-2.3c-2.3,0-4.3,0.7-6.1,2.2
		C27.6,693.8,26.5,696,26.5,698.4z"/>
	<path class="st2" d="M68.2,732c-2.2,0-4.1-0.8-5.7-2.4c-1.6-1.6-2.4-3.4-2.4-5.7V685c0-1.9,0.7-3.5,2-4.9s3-2.1,4.8-2.1h0.7
		c1.8,0,3.3,0.6,4.7,1.7c1.3,1.1,2.2,2.6,2.4,4.3l0.2,0.5c0,0.1,0.1,0.2,0.2,0.2c0.2,0,0.2,0,0.4-0.2c5.4-5.3,11.1-8,17.1-8
		c5.6,0,9.9,2,12.6,5.7c2.7,3.7,4.1,9.2,4.1,16.2v25.3c0,2.2-0.8,4.1-2.4,5.7c-1.6,1.6-3.4,2.4-5.7,2.4h-0.7c-2.2,0-4.1-0.8-5.7-2.4
		c-1.6-1.6-2.4-3.5-2.4-5.7v-23.2c0-3.5-0.5-6.1-1.5-7.4s-2.6-2.1-4.8-2.1c-1.7,0-3.1,0.4-4.4,0.9c-1.3,0.7-2.8,1.7-4.3,3.2
		c-0.5,0.5-0.7,0.9-0.7,1.6v27c0,2.2-0.8,4.1-2.4,5.7c-1.6,1.6-3.5,2.4-5.7,2.4L68.2,732L68.2,732z"/>
	<path class="st2" d="M128.1,687.9c2.6-1.3,6.2-2.4,10.6-3.3c4.4-1,9.1-1.6,14-1.6c5,0,9.7,0.7,13.9,2.2c4.3,1.5,7.7,3.9,10.1,7.3
		c2.5,3.5,3.8,7.4,3.8,12.1c-0.2,6.2-1.8,11.7-5,16.5s-8.6,8.5-16,10.9s-14,3.7-20.1,3.7c-3.8,0-5.8-2.2-5.8-6.5
		c0.1-4.3,2.1-6.7,6.1-6.9c4.7,0,9.5-0.8,14.3-2.5s8.2-3.8,9.9-6.5c1.7-2.6,2.4-5.6,2.3-9.1c0-2.5-0.9-4.5-2.8-6
		c-1.8-1.5-5.5-2.2-11-2.3c-3,0.1-6.1,0.4-9.4,1.3c-3.3,0.8-7.4,1.8-12.5,3.3c-3.5,1.4-5.7-0.1-7-4.5
		C122.9,692.4,124.4,689.7,128.1,687.9z M136.2,663c6.1-0.2,11.1-0.4,15-0.2c3.9,0.2,9.1,0.5,15.5,1c4.5,0.6,6.8,3.1,6.9,7.4
		c-0.2,4.6-2.4,6.5-6.9,5.5c-6.5-0.7-11.6-1.1-15.5-1.3c-6.1,0-10.1,0-11.9,0.1c-1.8,0.2-2.8,0.2-2.8,0.2c-3.9,0.1-6-2-6-6.5
		C130.7,665.4,132.6,663.3,136.2,663z"/>
	<path class="st2" d="M223.6,680.9c4.4,0,7.1,1.7,8.3,5.3c1.1,3.5,0.2,6.5-3.3,9.2l-6.9,6.9c2.2,0.7,3.5,2,3.9,3.5
		c0.4,1.6,0.6,3.2,0.4,4.8c0,1.3,0,2.6,0,4.1s0.2,2.8,0.8,4.3c0.6,1.4,1.6,2.1,3.3,2.2c1.6,0.1,3.5-0.2,5.7-0.7
		c4.1-0.9,6.4,0.9,7,5.2c0.6,4.5-1.3,7.3-5.5,8.5c-2.3,0.7-5.4,1-9.3,1c-4.5-0.2-8.2-1.3-11-4c-2.8-2.6-4.1-6.3-4.1-11.1
		c0-2.4,0-4.3,0-5.3c0-1.1,0-1.6,0-1.6c0-0.2,0-0.4,0-0.7c0-0.5-0.2-0.8-0.4-1.1c-0.2-0.4-0.5-0.4-0.9,0l-17.7,16.5
		c-4.1,3.7-7.7,3.7-10.8,0c-2.3-3.7-2.2-7,0.7-10l27.4-24.2h-19.9c-4.3,0-6.5-2.2-6.5-6.5s2.2-6.5,6.5-6.5h32.2L223.6,680.9
		L223.6,680.9z M197.1,662.2c6.1-0.2,11.1-0.4,15-0.2s8.4,0.5,13.3,1c4.5,0.6,6.8,3.1,6.9,7.4c-0.1,4.3-2.4,6.1-6.9,5.2
		c-4.9-0.5-9.9-0.8-14.9-0.8c-5-0.1-8.5-0.1-10.2-0.2c-1.8-0.2-2.8-0.2-2.8,0c-3.9,0.2-6-1.8-6-6
		C191.6,664.8,193.5,662.6,197.1,662.2z"/>
	<path class="st2" d="M-21,797.4c-1.5,0-2.9-0.5-4.2-1.4s-2.1-2.1-2.6-3.6l-10.8-36c-0.1-0.4-0.2-0.8-0.2-1.1c0-0.8,0.3-1.6,0.8-2.3
		c0.8-1,1.8-1.6,3.1-1.6h1.2c1.5,0,2.9,0.5,4.1,1.4c1.2,0.9,2,2.2,2.4,3.7l4,15.8c0.4,1.7,1,4.2,1.8,7.4c0.7,3.2,1.3,5.6,1.7,7.3
		c0,0.1,0.1,0.1,0.2,0.1c0.1,0,0.2,0,0.2-0.1c0.4-1.6,1-4,1.7-7.3c0.7-3.2,1.3-5.7,1.8-7.4l4-15.8c0.4-1.5,1.1-2.8,2.4-3.7
		c1.2-0.9,2.6-1.4,4.1-1.4h0.8c1.3,0,2.3,0.5,3.1,1.6c0.5,0.7,0.8,1.5,0.8,2.3c0,0.4-0.1,0.7-0.2,1.1l-10.8,36
		c-0.5,1.5-1.4,2.7-2.6,3.6c-1.2,0.9-2.7,1.4-4.2,1.4H-21z"/>
	<path class="st2" d="M0,794.6c-1.1,0-2-0.3-2.7-0.9s-1-1.4-1-2.4s0.3-1.8,1-2.4S-1.1,788,0,788c1.1,0,1.9,0.3,2.6,0.9
		c0.7,0.6,1,1.4,1,2.4s-0.3,1.8-1,2.4C1.9,794.3,1,794.6,0,794.6z M-0.2,818c-0.8,0-1.6-0.3-2.2-0.9c-0.6-0.6-0.9-1.3-0.9-2.2v-14.4
		c0-0.8,0.3-1.6,0.9-2.2c0.6-0.6,1.3-0.9,2.2-0.9H0c0.8,0,1.6,0.3,2.2,0.9c0.6,0.6,0.9,1.3,0.9,2.2v14.4c0,0.8-0.3,1.6-0.9,2.2
		C1.6,817.7,0.9,818,0,818H-0.2L-0.2,818z"/>
	<path class="st2" d="M10.8,818.5c-2,0-3.9-0.5-5.9-1.5c-0.6-0.3-1-0.8-1.1-1.5c0-0.1,0-0.3,0-0.4c0-0.5,0.2-1,0.5-1.4
		c0.4-0.5,0.9-0.9,1.6-1c0.2,0,0.4,0,0.5,0c0.5,0,1,0.1,1.4,0.3c1.1,0.6,2.1,0.8,3.1,0.8c1.6,0,2.4-0.5,2.4-1.6c0-0.2,0-0.3-0.1-0.5
		s-0.2-0.3-0.4-0.4s-0.3-0.3-0.5-0.4c-0.1-0.1-0.4-0.2-0.7-0.4c-0.3-0.1-0.5-0.2-0.7-0.3s-0.5-0.2-0.9-0.4c-0.4-0.2-0.7-0.3-0.9-0.3
		c-0.7-0.3-1.3-0.6-1.9-0.9c-0.6-0.3-1.1-0.7-1.7-1.2c-0.6-0.5-1-1-1.3-1.7s-0.5-1.4-0.5-2.2c0-2,0.7-3.5,2.2-4.7s3.4-1.8,5.8-1.8
		c1.9,0,3.6,0.4,5.3,1.3c0.6,0.3,0.9,0.8,1,1.4c0,0.1,0,0.3,0,0.4c0,0.5-0.2,1-0.5,1.4c-0.4,0.5-0.9,0.8-1.6,1
		c-0.2,0-0.4,0.1-0.6,0.1c-0.4,0-0.9-0.1-1.3-0.3c-0.8-0.4-1.5-0.5-2.2-0.5c-1.5,0-2.2,0.5-2.2,1.5c0,0.1,0,0.3,0.1,0.4
		c0,0.1,0.1,0.2,0.2,0.3s0.2,0.2,0.3,0.3s0.2,0.2,0.4,0.3c0.2,0.1,0.3,0.2,0.5,0.2s0.3,0.2,0.6,0.2c0.2,0.1,0.5,0.2,0.6,0.2
		c0.2,0.1,0.4,0.1,0.7,0.2s0.5,0.2,0.7,0.2c0.8,0.3,1.4,0.6,2,0.9s1.1,0.7,1.7,1.2c0.6,0.5,1,1.1,1.3,1.8c0.3,0.7,0.4,1.5,0.4,2.4
		c0,2-0.7,3.6-2.2,4.8C15.6,817.9,13.5,818.5,10.8,818.5z"/>
	<path class="st2" d="M27.6,818.5c-2.5,0-4.3-0.7-5.5-2.1s-1.8-3.4-1.8-6v-7.6c0-0.2-0.1-0.3-0.3-0.3h-0.1c-0.7,0-1.2-0.2-1.7-0.7
		s-0.7-1-0.7-1.7s0.2-1.3,0.7-1.8s1-0.8,1.7-0.8h0.4c0.2,0,0.4-0.1,0.4-0.4l0.3-2.4c0.1-0.8,0.4-1.4,1-1.9s1.3-0.8,2-0.8
		s1.4,0.3,1.9,0.8s0.8,1.2,0.8,1.9v2.4c0,0.2,0.1,0.4,0.4,0.4h2c0.7,0,1.3,0.2,1.8,0.7s0.7,1.1,0.7,1.8c0,0.7-0.2,1.3-0.7,1.8
		s-1.1,0.7-1.8,0.7h-2c-0.2,0-0.4,0.1-0.4,0.4v7.5c0,1.9,0.7,3,2.2,3.1c0.7,0.1,1.3,0.3,1.9,0.6c0.5,0.3,0.9,0.8,1,1.3
		c0,0.2,0.1,0.4,0.1,0.6c0,0.4-0.1,0.9-0.4,1.3c-0.3,0.6-0.8,0.9-1.5,1C29.2,818.5,28.4,818.5,27.6,818.5z"/>
	<path class="st2" d="M42.7,775c-0.9,0-1.6-0.3-2.2-0.9c-0.6-0.6-0.9-1.3-0.9-2.2s0.3-1.6,0.9-2.2c0.6-0.6,1.3-0.9,2.2-0.9h20.2
		c0.8,0,1.6,0.3,2.2,0.9c0.6,0.6,0.9,1.4,0.9,2.2c0,0.9-0.3,1.6-0.9,2.2c-0.6,0.6-1.3,0.9-2.2,0.9H42.7z M42.7,788.5
		c-0.9,0-1.6-0.3-2.2-0.9c-0.6-0.6-0.9-1.4-0.9-2.2c0-0.9,0.3-1.6,0.9-2.2c0.6-0.6,1.3-0.9,2.2-0.9h20.2c0.8,0,1.6,0.3,2.2,0.9
		c0.6,0.6,0.9,1.3,0.9,2.2s-0.3,1.6-0.9,2.2c-0.6,0.6-1.3,0.9-2.2,0.9H42.7z"/>
</g>
<g id="diro1">
	<path class="st3" d="M347.7,697.5c0,17.4-14.1,31.5-31.5,31.5s-31.5-14.1-31.5-31.5s14.1-31.5,31.5-31.5S347.7,680.2,347.7,697.5z
		 M343.7,697.6c0-15.2-12.4-27.5-27.5-27.5s-27.5,12.2-27.5,27.4c0,15.2,12.4,27.5,27.5,27.5S343.7,712.8,343.7,697.6z"/>
	<polygon id="XMLID_7_" points="338.4,697.5 312,724 300.2,712.2 314.8,697.5 300.2,682.9 312,671.2 	"/>
</g>
<g id="dirw1">
	<g id="XMLID_21_">
		<path class="st3" d="M-175.5,667c17.4,0,31.5,14.1,31.5,31.5s-14.1,31.5-31.5,31.5s-31.5-14.1-31.5-31.5S-192.9,667-175.5,667z
			 M-175.5,726c15.1,0,27.5-12.3,27.5-27.5c0-15.1-12.3-27.5-27.5-27.5c-15.1,0-27.5,12.3-27.5,27.5C-203,713.6-190.6,726-175.5,726
			z"/>
	</g>
	<g id="XMLID_4_">
		<g id="XMLID_5_">
			<polygon id="XMLID_20_" points="-171.3,672.2 -159.5,683.8 -174.1,698.5 -159.5,713.2 -171.3,724.9 -197.7,698.5 			"/>
		</g>
	</g>
</g>
<circle id="sig5o" class="st4" cx="238.1" cy="862.7" r="19.3"/>
<circle id="sig5w" class="st4" cx="-101.9" cy="862.7" r="19.3"/>
<circle id="sns20" class="st4" cx="-31.9" cy="862.7" r="19.3"/>
<circle id="sns21" class="st4" cx="168.1" cy="862.7" r="19.3"/>
<circle id="sns22" class="st4" cx="649.3" cy="707.8" r="19.3"/>
<circle id="sns23" class="st4" cx="170.3" cy="547.5" r="19.3"/>
<circle id="sns25" class="st4" cx="-511.7" cy="704.2" r="19.3"/>
<circle id="sns26" class="st4" cx="170.3" cy="608.2" r="19.3"/>
<circle id="sns27" class="st4" cx="-29.7" cy="608.2" r="19.3"/>
</svg>
