<?xml version="1.0" encoding="utf-8"?>
<!-- Generator: Adobe Illustrator 19.0.0, SVG Export Plug-In . SVG Version: 6.00 Build 0)  -->
<svg version="1.1" id="Ebene_1" xmlns="http://www.w3.org/2000/svg" xmlns:xlink="http://www.w3.org/1999/xlink" x="0px" y="0px"
	 viewBox="-250 192.3 1199.1 448.2" style="enable-background:new -250 192.3 1199.1 448.2;" xml:space="preserve">
<style type="text/css">
	@font-face {
      	font-family: Corporate-Logo-Rounded;
      	src: url('/static/fonts/lcd.ttf');
    }

	.st0{fill:#191919;}
	.st1{fill:none;}
	.st2{fill:#E4E4E3;stroke:#212122;stroke-width:5;stroke-miterlimit:10;}
	.st3{fill:#E4E4E4;}
</style>
<polygon id="defaultglco" class="st0" points="-2290.3,3369 -2332.4,3408.1 -2749,3408.1 -2749,3423.9 -2349.4,3423.9 
	-2349.3,3423.9 -2325.4,3423.9 -2266.4,3369 "/>
<polygon id="defaultglbo" class="st0" points="-2290.3,3369.1 -2349.4,3424 -2349.3,3424 -2390.7,3462.4 -2749,3462.4 -2749,3478.8 
	-2408.4,3478.8 -2384.4,3478.8 -2325.4,3424 -2266.4,3369.1 "/>
<polygon id="defaultglao" class="st0" points="-2290.3,3369 -2349.4,3423.9 -2349.3,3423.9 -2408.4,3478.7 -2450.5,3517.9 
	-2749,3517.9 -2749,3533.6 -2467.4,3533.6 -2443.6,3533.6 -2384.6,3478.7 -2384.4,3478.7 -2325.4,3423.9 -2266.4,3369 "/>
<polygon id="defaultgldo" class="st0" points="-2749,3369 -2290.3,3369 -2278.4,3358 -2278.4,3353.3 -2749,3353.3 "/>
<polygon id="glco" class="st1" points="-2290.3,3369 -2332.4,3408.1 -2749,3408.1 -2749,3423.9 -2349.4,3423.9 -2349.3,3423.9 
	-2325.4,3423.9 -2266.4,3369 "/>
<polygon id="glbo" class="st1" points="-2290.3,3369.1 -2349.4,3424 -2349.3,3424 -2390.7,3462.4 -2749,3462.4 -2749,3478.8 
	-2408.4,3478.8 -2384.4,3478.8 -2325.4,3424 -2266.4,3369.1 "/>
<polygon id="glao" class="st1" points="-2290.3,3369 -2349.4,3423.9 -2349.3,3423.9 -2408.4,3478.7 -2450.5,3517.9 -2749,3517.9 
	-2749,3533.6 -2467.4,3533.6 -2443.6,3533.6 -2384.6,3478.7 -2384.4,3478.7 -2325.4,3423.9 -2266.4,3369 "/>
<polygon id="gldo" class="st1" points="-2749,3369 -2290.3,3369 -2278.4,3358 -2278.4,3353.3 -2749,3353.3 "/>
<polygon id="defaultglcw" class="st0" points="-3365.3,3408.1 -3407.5,3369 -3431.3,3369 -3372.3,3423.9 -3348.3,3423.9 
	-2949.1,3423.9 -2949.1,3408.1 "/>
<polygon id="defaultglbw" class="st0" points="-3306.9,3462.4 -3348.3,3424 -3407.5,3369.1 -3431.3,3369.1 -3372.3,3424 
	-3372.2,3424 -3313.2,3478.8 -3289.3,3478.8 -2949.1,3478.8 -2949.1,3462.4 "/>
<polygon id="defaultglaw" class="st0" points="-3247.1,3517.9 -3289.3,3478.7 -3348.3,3423.9 -3407.5,3369 -3431.3,3369 
	-3372.3,3423.9 -3372.2,3423.9 -3313.2,3478.7 -3254.2,3533.6 -3230.2,3533.6 -2949.1,3533.6 -2949.1,3517.9 "/>
<polygon id="defaultgldw" class="st0" points="-2949,3353.3 -3418.9,3353.3 -3418.9,3358.1 -3407.2,3369 -2949,3369 "/>
<polygon id="glcw" class="st1" points="-3365.3,3408.1 -3407.5,3369 -3431.3,3369 -3372.3,3423.9 -3348.3,3423.9 -2949.1,3423.9 
	-2949.1,3408.1 "/>
<polygon id="glbw" class="st1" points="-3306.9,3462.4 -3348.3,3424 -3407.5,3369.1 -3431.3,3369.1 -3372.3,3424 -3372.2,3424 
	-3313.2,3478.8 -3289.3,3478.8 -2949.1,3478.8 -2949.1,3462.4 "/>
<polygon id="glaw" class="st1" points="-3247.1,3517.9 -3289.3,3478.7 -3348.3,3423.9 -3407.5,3369 -3431.3,3369 -3372.3,3423.9 
	-3372.2,3423.9 -3313.2,3478.7 -3254.2,3533.6 -3230.2,3533.6 -2949.1,3533.6 -2949.1,3517.9 "/>
<polygon id="gldw" class="st1" points="-2949,3353.3 -3418.9,3353.3 -3418.9,3358.1 -3407.2,3369 -2949,3369 "/>
<path id="glg" class="st0" d="M-2290.3,3369l12-11.1v-118.7l-113-104.3h-914.2l-113.1,104.3v118.9l11.7,10.9h-23.9l-4.7-4.3v-132
	l123.1-113.4h928.1l123,113.4v131.7l-5,4.6L-2290.3,3369L-2290.3,3369z"/>
<rect id="defaultgldm" x="-2949" y="3353.3" class="st0" width="200" height="15.7"/>
<rect id="defaultglcm" x="-2949" y="3408.2" class="st0" width="200" height="15.7"/>
<rect id="defaultglbm" x="-2949" y="3462.7" class="st0" width="200" height="15.7"/>
<rect id="defaultglam" x="-2949" y="3517.9" class="st0" width="200" height="15.7"/>
<rect id="gldm" x="-2949" y="3353.3" class="st1" width="200" height="15.7"/>
<rect id="glcm" x="-2949" y="3408.2" class="st1" width="200" height="15.7"/>
<rect id="glbm" x="-2949" y="3462.7" class="st1" width="200" height="15.7"/>
<rect id="glam" x="-2949" y="3517.9" class="st1" width="200" height="15.7"/>
<circle id="sig1o" class="st2" cx="-2679.4" cy="3525.8" r="19.3"/>
<circle id="sig1w" class="st2" cx="-3019.4" cy="3525.8" r="19.3"/>
<circle id="sig2o" class="st2" cx="-2679.5" cy="3470.6" r="19.3"/>
<circle id="sig2w" class="st2" cx="-3019.5" cy="3470.6" r="19.3"/>
<circle id="sig3o" class="st2" cx="-2679.4" cy="3415.2" r="19.3"/>
<circle id="sig3w" class="st2" cx="-3019.4" cy="3415.2" r="19.3"/>
<circle id="sig4o" class="st2" cx="-2679.4" cy="3361.2" r="19.3"/>
<circle id="sig4w" class="st2" cx="-3019.4" cy="3361.2" r="19.3"/>
<circle id="sns01" class="st2" cx="-2949.4" cy="3525.8" r="19.3"/>
<circle id="sns02" class="st2" cx="-2949.5" cy="3470.6" r="19.3"/>
<circle id="sns03" class="st2" cx="-2949.4" cy="3415.2" r="19.3"/>
<circle id="sns04" class="st2" cx="-2949.4" cy="3361.2" r="19.3"/>
<circle id="sns05" class="st2" cx="-2749.4" cy="3525.8" r="19.3"/>
<circle id="sns06" class="st2" cx="-2749.5" cy="3470.6" r="19.3"/>
<circle id="sns07" class="st2" cx="-2749.4" cy="3415.2" r="19.3"/>
<circle id="sns08" class="st2" cx="-2749.4" cy="3361.2" r="19.3"/>
<circle id="sns17" class="st2" cx="-3427.7" cy="3295.1" r="19.3"/>
<circle id="sns18" class="st2" cx="-2848.4" cy="3126.9" r="19.3"/>
<circle id="sns19" class="st2" cx="-2269.2" cy="3295.1" r="19.3"/>
<g id="XMLID_150_">
	<path id="XMLID_862_" class="st0" d="M-2959.9,3291.4c-0.6-0.5-0.8-1.1-0.8-1.8c0-0.6,0.2-1.1,0.7-1.7c0.5-0.6,1.1-0.8,1.8-0.8
		c0.6,0,1.1,0.2,1.7,0.7c0.6,0.6,0.8,1.2,0.8,1.8c0,0.7-0.2,1.3-0.7,1.8c-0.5,0.5-1.1,0.7-1.8,0.7
		C-2958.8,3292.1-2959.4,3291.9-2959.9,3291.4z"/>
	<path id="XMLID_861_" class="st0" d="M-2959.9,3298.1c-0.6-0.5-0.8-1.1-0.8-1.8c0-0.6,0.2-1.1,0.7-1.7c0.5-0.6,1.1-0.8,1.8-0.8
		c0.6,0,1.1,0.2,1.7,0.7c0.6,0.6,0.8,1.2,0.8,1.8c0,0.7-0.2,1.3-0.7,1.8c-0.5,0.5-1.1,0.7-1.8,0.7
		C-2958.8,3298.8-2959.4,3298.6-2959.9,3298.1z"/>
	<path id="XMLID_860_" class="st0" d="M-2959.9,3304.8c-0.6-0.5-0.8-1.1-0.8-1.8c0-0.6,0.2-1.1,0.7-1.7c0.5-0.6,1.1-0.8,1.8-0.8
		c0.6,0,1.1,0.2,1.7,0.7c0.6,0.6,0.8,1.2,0.8,1.8c0,0.7-0.2,1.3-0.7,1.8c-0.5,0.5-1.1,0.7-1.8,0.7
		C-2958.8,3305.6-2959.4,3305.3-2959.9,3304.8z"/>
	<path id="XMLID_859_" class="st0" d="M-2959.9,3311.5c-0.6-0.5-0.8-1.1-0.8-1.8c0-0.6,0.2-1.1,0.7-1.7c0.5-0.6,1.1-0.8,1.8-0.8
		c0.6,0,1.1,0.2,1.7,0.7c0.6,0.6,0.8,1.2,0.8,1.8c0,0.7-0.2,1.3-0.7,1.8c-0.5,0.5-1.1,0.7-1.8,0.7
		C-2958.8,3312.3-2959.4,3312-2959.9,3311.5z"/>
	<path id="XMLID_858_" class="st0" d="M-2959.9,3318.3c-0.6-0.5-0.8-1.1-0.8-1.8c0-0.6,0.2-1.1,0.7-1.7c0.5-0.6,1.1-0.8,1.8-0.8
		c0.6,0,1.1,0.2,1.7,0.7c0.6,0.6,0.8,1.2,0.8,1.8c0,0.7-0.2,1.3-0.7,1.8c-0.5,0.5-1.1,0.7-1.8,0.7
		C-2958.8,3319-2959.4,3318.8-2959.9,3318.3z"/>
	<path id="XMLID_857_" class="st0" d="M-2953.2,3284.6c-0.6-0.5-0.8-1.1-0.8-1.8c0-0.6,0.2-1.1,0.7-1.7c0.5-0.6,1.1-0.8,1.8-0.8
		c0.6,0,1.1,0.2,1.7,0.7c0.6,0.6,0.8,1.2,0.8,1.8c0,0.7-0.2,1.3-0.7,1.8c-0.5,0.5-1.1,0.7-1.8,0.7
		C-2952.1,3285.4-2952.7,3285.1-2953.2,3284.6z"/>
	<path id="XMLID_856_" class="st0" d="M-2953.2,3325c-0.6-0.5-0.8-1.1-0.8-1.8c0-0.6,0.2-1.1,0.7-1.7c0.5-0.6,1.1-0.8,1.8-0.8
		c0.6,0,1.1,0.2,1.7,0.7c0.6,0.6,0.8,1.2,0.8,1.8c0,0.7-0.2,1.3-0.7,1.8c-0.5,0.5-1.1,0.7-1.8,0.7
		C-2952.1,3325.7-2952.7,3325.5-2953.2,3325z"/>
	<path id="XMLID_855_" class="st0" d="M-2946.5,3284.6c-0.6-0.5-0.8-1.1-0.8-1.8c0-0.6,0.2-1.1,0.7-1.7c0.5-0.6,1.1-0.8,1.8-0.8
		c0.6,0,1.1,0.2,1.7,0.7c0.6,0.6,0.8,1.2,0.8,1.8c0,0.7-0.2,1.3-0.7,1.8c-0.5,0.5-1.1,0.7-1.8,0.7
		C-2945.4,3285.4-2945.9,3285.1-2946.5,3284.6z"/>
	<path id="XMLID_854_" class="st0" d="M-2946.5,3325c-0.6-0.5-0.8-1.1-0.8-1.8c0-0.6,0.2-1.1,0.7-1.7c0.5-0.6,1.1-0.8,1.8-0.8
		c0.6,0,1.1,0.2,1.7,0.7c0.6,0.6,0.8,1.2,0.8,1.8c0,0.7-0.2,1.3-0.7,1.8c-0.5,0.5-1.1,0.7-1.8,0.7
		C-2945.4,3325.7-2945.9,3325.5-2946.5,3325z"/>
	<path id="XMLID_853_" class="st0" d="M-2939.8,3284.6c-0.6-0.5-0.8-1.1-0.8-1.8c0-0.6,0.2-1.1,0.7-1.7c0.5-0.6,1.1-0.8,1.8-0.8
		c0.6,0,1.1,0.2,1.7,0.7c0.6,0.6,0.8,1.2,0.8,1.8c0,0.7-0.2,1.3-0.7,1.8c-0.5,0.5-1.1,0.7-1.8,0.7
		C-2938.7,3285.4-2939.2,3285.1-2939.8,3284.6z"/>
	<path id="XMLID_852_" class="st0" d="M-2939.8,3325c-0.6-0.5-0.8-1.1-0.8-1.8c0-0.6,0.2-1.1,0.7-1.7c0.5-0.6,1.1-0.8,1.8-0.8
		c0.6,0,1.1,0.2,1.7,0.7c0.6,0.6,0.8,1.2,0.8,1.8c0,0.7-0.2,1.3-0.7,1.8c-0.5,0.5-1.1,0.7-1.8,0.7
		C-2938.7,3325.7-2939.2,3325.5-2939.8,3325z"/>
	<path id="XMLID_851_" class="st0" d="M-2933,3291.4c-0.6-0.5-0.8-1.1-0.8-1.8c0-0.6,0.2-1.1,0.7-1.7c0.5-0.6,1.1-0.8,1.8-0.8
		c0.6,0,1.1,0.2,1.7,0.7c0.6,0.6,0.8,1.2,0.8,1.8c0,0.7-0.2,1.3-0.7,1.8c-0.5,0.5-1.1,0.7-1.8,0.7
		C-2931.9,3292.1-2932.5,3291.9-2933,3291.4z"/>
	<path id="XMLID_850_" class="st0" d="M-2933,3298.1c-0.6-0.5-0.8-1.1-0.8-1.8c0-0.6,0.2-1.1,0.7-1.7c0.5-0.6,1.1-0.8,1.8-0.8
		c0.6,0,1.1,0.2,1.7,0.7c0.6,0.6,0.8,1.2,0.8,1.8c0,0.7-0.2,1.3-0.7,1.8c-0.5,0.5-1.1,0.7-1.8,0.7
		C-2931.9,3298.8-2932.5,3298.6-2933,3298.1z"/>
	<path id="XMLID_849_" class="st0" d="M-2933,3304.8c-0.6-0.5-0.8-1.1-0.8-1.8c0-0.6,0.2-1.1,0.7-1.7c0.5-0.6,1.1-0.8,1.8-0.8
		c0.6,0,1.1,0.2,1.7,0.7c0.6,0.6,0.8,1.2,0.8,1.8c0,0.7-0.2,1.3-0.7,1.8c-0.5,0.5-1.1,0.7-1.8,0.7
		C-2931.9,3305.6-2932.5,3305.3-2933,3304.8z"/>
	<path id="XMLID_848_" class="st0" d="M-2933,3311.5c-0.6-0.5-0.8-1.1-0.8-1.8c0-0.6,0.2-1.1,0.7-1.7c0.5-0.6,1.1-0.8,1.8-0.8
		c0.6,0,1.1,0.2,1.7,0.7c0.6,0.6,0.8,1.2,0.8,1.8c0,0.7-0.2,1.3-0.7,1.8c-0.5,0.5-1.1,0.7-1.8,0.7
		C-2931.9,3312.3-2932.5,3312-2933,3311.5z"/>
	<path id="XMLID_847_" class="st0" d="M-2933,3318.3c-0.6-0.5-0.8-1.1-0.8-1.8c0-0.6,0.2-1.1,0.7-1.7c0.5-0.6,1.1-0.8,1.8-0.8
		c0.6,0,1.1,0.2,1.7,0.7c0.6,0.6,0.8,1.2,0.8,1.8c0,0.7-0.2,1.3-0.7,1.8c-0.5,0.5-1.1,0.7-1.8,0.7
		C-2931.9,3319-2932.5,3318.8-2933,3318.3z"/>
	<path id="XMLID_846_" class="st0" d="M-2913,3284.6c-0.6-0.5-0.8-1.1-0.8-1.8c0-0.6,0.2-1.1,0.7-1.7c0.5-0.6,1.1-0.8,1.8-0.8
		c0.6,0,1.1,0.2,1.7,0.7c0.6,0.6,0.8,1.2,0.8,1.8c0,0.7-0.2,1.3-0.7,1.8c-0.5,0.5-1.1,0.7-1.8,0.7
		C-2911.9,3285.4-2912.4,3285.1-2913,3284.6z"/>
	<path id="XMLID_845_" class="st0" d="M-2872.7,3284.6c-0.6-0.5-0.8-1.1-0.8-1.8c0-0.6,0.2-1.1,0.7-1.7c0.5-0.6,1.1-0.8,1.8-0.8
		c0.6,0,1.1,0.2,1.7,0.7c0.6,0.6,0.8,1.2,0.8,1.8c0,0.7-0.2,1.3-0.7,1.8c-0.5,0.5-1.1,0.7-1.8,0.7
		C-2871.6,3285.4-2872.2,3285.1-2872.7,3284.6z"/>
	<path id="XMLID_844_" class="st0" d="M-2959.9,3284.6c-0.6-0.5-0.8-1.1-0.8-1.8c0-0.6,0.2-1.1,0.7-1.7c0.5-0.6,1.1-0.8,1.8-0.8
		c0.6,0,1.1,0.2,1.7,0.7c0.6,0.6,0.8,1.2,0.8,1.8c0,0.7-0.2,1.3-0.7,1.8c-0.5,0.5-1.1,0.7-1.8,0.7
		C-2958.8,3285.4-2959.4,3285.1-2959.9,3284.6z"/>
	<path id="XMLID_843_" class="st0" d="M-2933,3284.6c-0.6-0.5-0.8-1.1-0.8-1.8c0-0.6,0.2-1.1,0.7-1.7c0.5-0.6,1.1-0.8,1.8-0.8
		c0.6,0,1.1,0.2,1.7,0.7c0.6,0.6,0.8,1.2,0.8,1.8c0,0.7-0.2,1.3-0.7,1.8c-0.5,0.5-1.1,0.7-1.8,0.7
		C-2931.9,3285.4-2932.5,3285.1-2933,3284.6z"/>
	<path id="XMLID_842_" class="st0" d="M-2959.9,3325c-0.6-0.5-0.8-1.1-0.8-1.8c0-0.6,0.2-1.1,0.7-1.7c0.5-0.6,1.1-0.8,1.8-0.8
		c0.6,0,1.1,0.2,1.7,0.7c0.6,0.6,0.8,1.2,0.8,1.8c0,0.7-0.2,1.3-0.7,1.8c-0.5,0.5-1.1,0.7-1.8,0.7
		C-2958.8,3325.7-2959.4,3325.5-2959.9,3325z"/>
	<path id="XMLID_841_" class="st0" d="M-2933,3325c-0.6-0.5-0.8-1.1-0.8-1.8c0-0.6,0.2-1.1,0.7-1.7c0.5-0.6,1.1-0.8,1.8-0.8
		c0.6,0,1.1,0.2,1.7,0.7c0.6,0.6,0.8,1.2,0.8,1.8c0,0.7-0.2,1.3-0.7,1.8c-0.5,0.5-1.1,0.7-1.8,0.7
		C-2931.9,3325.7-2932.5,3325.5-2933,3325z"/>
	<path id="XMLID_840_" class="st0" d="M-2953.2,3291.4c-0.6-0.5-0.8-1.1-0.8-1.8c0-0.6,0.2-1.1,0.7-1.7c0.5-0.6,1.1-0.8,1.8-0.8
		c0.6,0,1.1,0.2,1.7,0.7c0.6,0.6,0.8,1.2,0.8,1.8c0,0.7-0.2,1.3-0.7,1.8c-0.5,0.5-1.1,0.7-1.8,0.7
		C-2952.1,3292.1-2952.7,3291.9-2953.2,3291.4z"/>
	<path id="XMLID_839_" class="st0" d="M-2953.2,3298.1c-0.6-0.5-0.8-1.1-0.8-1.8c0-0.6,0.2-1.1,0.7-1.7c0.5-0.6,1.1-0.8,1.8-0.8
		c0.6,0,1.1,0.2,1.7,0.7c0.6,0.6,0.8,1.2,0.8,1.8c0,0.7-0.2,1.3-0.7,1.8c-0.5,0.5-1.1,0.7-1.8,0.7
		C-2952.1,3298.8-2952.7,3298.6-2953.2,3298.1z"/>
	<path id="XMLID_838_" class="st0" d="M-2953.2,3304.8c-0.6-0.5-0.8-1.1-0.8-1.8c0-0.6,0.2-1.1,0.7-1.7c0.5-0.6,1.1-0.8,1.8-0.8
		c0.6,0,1.1,0.2,1.7,0.7c0.6,0.6,0.8,1.2,0.8,1.8c0,0.7-0.2,1.3-0.7,1.8c-0.5,0.5-1.1,0.7-1.8,0.7
		C-2952.1,3305.6-2952.7,3305.3-2953.2,3304.8z"/>
	<path id="XMLID_837_" class="st0" d="M-2953.2,3311.5c-0.6-0.5-0.8-1.1-0.8-1.8c0-0.6,0.2-1.1,0.7-1.7c0.5-0.6,1.1-0.8,1.8-0.8
		c0.6,0,1.1,0.2,1.7,0.7c0.6,0.6,0.8,1.2,0.8,1.8c0,0.7-0.2,1.3-0.7,1.8c-0.5,0.5-1.1,0.7-1.8,0.7
		C-2952.1,3312.3-2952.7,3312-2953.2,3311.5z"/>
	<path id="XMLID_836_" class="st0" d="M-2953.2,3318.3c-0.6-0.5-0.8-1.1-0.8-1.8c0-0.6,0.2-1.1,0.7-1.7c0.5-0.6,1.1-0.8,1.8-0.8
		c0.6,0,1.1,0.2,1.7,0.7c0.6,0.6,0.8,1.2,0.8,1.8c0,0.7-0.2,1.3-0.7,1.8c-0.5,0.5-1.1,0.7-1.8,0.7
		C-2952.1,3319-2952.7,3318.8-2953.2,3318.3z"/>
	<path id="XMLID_835_" class="st0" d="M-2946.5,3291.4c-0.6-0.5-0.8-1.1-0.8-1.8c0-0.6,0.2-1.1,0.7-1.7c0.5-0.6,1.1-0.8,1.8-0.8
		c0.6,0,1.1,0.2,1.7,0.7c0.6,0.6,0.8,1.2,0.8,1.8c0,0.7-0.2,1.3-0.7,1.8c-0.5,0.5-1.1,0.7-1.8,0.7
		C-2945.4,3292.1-2945.9,3291.9-2946.5,3291.4z"/>
	<path id="XMLID_834_" class="st0" d="M-2946.5,3298.1c-0.6-0.5-0.8-1.1-0.8-1.8c0-0.6,0.2-1.1,0.7-1.7c0.5-0.6,1.1-0.8,1.8-0.8
		c0.6,0,1.1,0.2,1.7,0.7c0.6,0.6,0.8,1.2,0.8,1.8c0,0.7-0.2,1.3-0.7,1.8c-0.5,0.5-1.1,0.7-1.8,0.7
		C-2945.4,3298.8-2945.9,3298.6-2946.5,3298.1z"/>
	<path id="XMLID_833_" class="st0" d="M-2946.5,3304.8c-0.6-0.5-0.8-1.1-0.8-1.8c0-0.6,0.2-1.1,0.7-1.7c0.5-0.6,1.1-0.8,1.8-0.8
		c0.6,0,1.1,0.2,1.7,0.7c0.6,0.6,0.8,1.2,0.8,1.8c0,0.7-0.2,1.3-0.7,1.8c-0.5,0.5-1.1,0.7-1.8,0.7
		C-2945.4,3305.6-2945.9,3305.3-2946.5,3304.8z"/>
	<path id="XMLID_832_" class="st0" d="M-2946.5,3311.5c-0.6-0.5-0.8-1.1-0.8-1.8c0-0.6,0.2-1.1,0.7-1.7c0.5-0.6,1.1-0.8,1.8-0.8
		c0.6,0,1.1,0.2,1.7,0.7c0.6,0.6,0.8,1.2,0.8,1.8c0,0.7-0.2,1.3-0.7,1.8c-0.5,0.5-1.1,0.7-1.8,0.7
		C-2945.4,3312.3-2945.9,3312-2946.5,3311.5z"/>
	<path id="XMLID_831_" class="st0" d="M-2946.5,3318.3c-0.6-0.5-0.8-1.1-0.8-1.8c0-0.6,0.2-1.1,0.7-1.7c0.5-0.6,1.1-0.8,1.8-0.8
		c0.6,0,1.1,0.2,1.7,0.7c0.6,0.6,0.8,1.2,0.8,1.8c0,0.7-0.2,1.3-0.7,1.8c-0.5,0.5-1.1,0.7-1.8,0.7
		C-2945.4,3319-2945.9,3318.8-2946.5,3318.3z"/>
	<path id="XMLID_830_" class="st0" d="M-2939.8,3291.4c-0.6-0.5-0.8-1.1-0.8-1.8c0-0.6,0.2-1.1,0.7-1.7c0.5-0.6,1.1-0.8,1.8-0.8
		c0.6,0,1.1,0.2,1.7,0.7c0.6,0.6,0.8,1.2,0.8,1.8c0,0.7-0.2,1.3-0.7,1.8c-0.5,0.5-1.1,0.7-1.8,0.7
		C-2938.7,3292.1-2939.2,3291.9-2939.8,3291.4z"/>
	<path id="XMLID_829_" class="st0" d="M-2939.8,3298.1c-0.6-0.5-0.8-1.1-0.8-1.8c0-0.6,0.2-1.1,0.7-1.7c0.5-0.6,1.1-0.8,1.8-0.8
		c0.6,0,1.1,0.2,1.7,0.7c0.6,0.6,0.8,1.2,0.8,1.8c0,0.7-0.2,1.3-0.7,1.8c-0.5,0.5-1.1,0.7-1.8,0.7
		C-2938.7,3298.8-2939.2,3298.6-2939.8,3298.1z"/>
	<path id="XMLID_828_" class="st0" d="M-2939.8,3304.8c-0.6-0.5-0.8-1.1-0.8-1.8c0-0.6,0.2-1.1,0.7-1.7c0.5-0.6,1.1-0.8,1.8-0.8
		c0.6,0,1.1,0.2,1.7,0.7c0.6,0.6,0.8,1.2,0.8,1.8c0,0.7-0.2,1.3-0.7,1.8c-0.5,0.5-1.1,0.7-1.8,0.7
		C-2938.7,3305.6-2939.2,3305.3-2939.8,3304.8z"/>
	<path id="XMLID_827_" class="st0" d="M-2939.8,3311.5c-0.6-0.5-0.8-1.1-0.8-1.8c0-0.6,0.2-1.1,0.7-1.7c0.5-0.6,1.1-0.8,1.8-0.8
		c0.6,0,1.1,0.2,1.7,0.7c0.6,0.6,0.8,1.2,0.8,1.8c0,0.7-0.2,1.3-0.7,1.8c-0.5,0.5-1.1,0.7-1.8,0.7
		C-2938.7,3312.3-2939.2,3312-2939.8,3311.5z"/>
	<path id="XMLID_826_" class="st0" d="M-2939.8,3318.3c-0.6-0.5-0.8-1.1-0.8-1.8c0-0.6,0.2-1.1,0.7-1.7c0.5-0.6,1.1-0.8,1.8-0.8
		c0.6,0,1.1,0.2,1.7,0.7c0.6,0.6,0.8,1.2,0.8,1.8c0,0.7-0.2,1.3-0.7,1.8c-0.5,0.5-1.1,0.7-1.8,0.7
		C-2938.7,3319-2939.2,3318.8-2939.8,3318.3z"/>
	<path id="XMLID_825_" class="st0" d="M-2919.7,3291.4c-0.6-0.5-0.8-1.1-0.8-1.8c0-0.6,0.2-1.1,0.7-1.7c0.5-0.6,1.1-0.8,1.8-0.8
		c0.6,0,1.1,0.2,1.7,0.7c0.6,0.6,0.8,1.2,0.8,1.8c0,0.7-0.2,1.3-0.7,1.8c-0.5,0.5-1.1,0.7-1.8,0.7
		C-2918.6,3292.1-2919.1,3291.9-2919.7,3291.4z"/>
	<path id="XMLID_824_" class="st0" d="M-2919.7,3298.1c-0.6-0.5-0.8-1.1-0.8-1.8c0-0.6,0.2-1.1,0.7-1.7c0.5-0.6,1.1-0.8,1.8-0.8
		c0.6,0,1.1,0.2,1.7,0.7c0.6,0.6,0.8,1.2,0.8,1.8c0,0.7-0.2,1.3-0.7,1.8c-0.5,0.5-1.1,0.7-1.8,0.7
		C-2918.6,3298.8-2919.1,3298.6-2919.7,3298.1z"/>
	<path id="XMLID_823_" class="st0" d="M-2919.7,3304.8c-0.6-0.5-0.8-1.1-0.8-1.8c0-0.6,0.2-1.1,0.7-1.7c0.5-0.6,1.1-0.8,1.8-0.8
		c0.6,0,1.1,0.2,1.7,0.7c0.6,0.6,0.8,1.2,0.8,1.8c0,0.7-0.2,1.3-0.7,1.8c-0.5,0.5-1.1,0.7-1.8,0.7
		C-2918.6,3305.6-2919.1,3305.3-2919.7,3304.8z"/>
	<path id="XMLID_822_" class="st0" d="M-2919.7,3311.5c-0.6-0.5-0.8-1.1-0.8-1.8c0-0.6,0.2-1.1,0.7-1.7c0.5-0.6,1.1-0.8,1.8-0.8
		c0.6,0,1.1,0.2,1.7,0.7c0.6,0.6,0.8,1.2,0.8,1.8c0,0.7-0.2,1.3-0.7,1.8c-0.5,0.5-1.1,0.7-1.8,0.7
		C-2918.6,3312.3-2919.1,3312-2919.7,3311.5z"/>
	<path id="XMLID_821_" class="st0" d="M-2919.7,3318.3c-0.6-0.5-0.8-1.1-0.8-1.8c0-0.6,0.2-1.1,0.7-1.7c0.5-0.6,1.1-0.8,1.8-0.8
		c0.6,0,1.1,0.2,1.7,0.7c0.6,0.6,0.8,1.2,0.8,1.8c0,0.7-0.2,1.3-0.7,1.8c-0.5,0.5-1.1,0.7-1.8,0.7
		C-2918.6,3319-2919.1,3318.8-2919.7,3318.3z"/>
	<path id="XMLID_820_" class="st0" d="M-2913,3325c-0.6-0.5-0.8-1.1-0.8-1.8c0-0.6,0.2-1.1,0.7-1.7c0.5-0.6,1.1-0.8,1.8-0.8
		c0.6,0,1.1,0.2,1.7,0.7c0.6,0.6,0.8,1.2,0.8,1.8c0,0.7-0.2,1.3-0.7,1.8c-0.5,0.5-1.1,0.7-1.8,0.7
		C-2911.9,3325.7-2912.4,3325.5-2913,3325z"/>
	<path id="XMLID_819_" class="st0" d="M-2906.3,3284.6c-0.6-0.5-0.8-1.1-0.8-1.8c0-0.6,0.2-1.1,0.7-1.7c0.5-0.6,1.1-0.8,1.8-0.8
		c0.6,0,1.1,0.2,1.7,0.7c0.6,0.6,0.8,1.2,0.8,1.8c0,0.7-0.2,1.3-0.7,1.8c-0.5,0.5-1.1,0.7-1.8,0.7
		C-2905.1,3285.4-2905.7,3285.1-2906.3,3284.6z"/>
	<path id="XMLID_818_" class="st0" d="M-2906.3,3325c-0.6-0.5-0.8-1.1-0.8-1.8c0-0.6,0.2-1.1,0.7-1.7c0.5-0.6,1.1-0.8,1.8-0.8
		c0.6,0,1.1,0.2,1.7,0.7c0.6,0.6,0.8,1.2,0.8,1.8c0,0.7-0.2,1.3-0.7,1.8c-0.5,0.5-1.1,0.7-1.8,0.7
		C-2905.1,3325.7-2905.7,3325.5-2906.3,3325z"/>
	<path id="XMLID_817_" class="st0" d="M-2899.5,3284.6c-0.6-0.5-0.8-1.1-0.8-1.8c0-0.6,0.2-1.1,0.7-1.7c0.5-0.6,1.1-0.8,1.8-0.8
		c0.6,0,1.1,0.2,1.7,0.7c0.6,0.6,0.8,1.2,0.8,1.8c0,0.7-0.2,1.3-0.7,1.8c-0.5,0.5-1.1,0.7-1.8,0.7
		C-2898.4,3285.4-2899,3285.1-2899.5,3284.6z"/>
	<path id="XMLID_816_" class="st0" d="M-2899.5,3325c-0.6-0.5-0.8-1.1-0.8-1.8c0-0.6,0.2-1.1,0.7-1.7c0.5-0.6,1.1-0.8,1.8-0.8
		c0.6,0,1.1,0.2,1.7,0.7c0.6,0.6,0.8,1.2,0.8,1.8c0,0.7-0.2,1.3-0.7,1.8c-0.5,0.5-1.1,0.7-1.8,0.7
		C-2898.4,3325.7-2899,3325.5-2899.5,3325z"/>
	<path id="XMLID_815_" class="st0" d="M-2892.8,3291.4c-0.6-0.5-0.8-1.1-0.8-1.8c0-0.6,0.2-1.1,0.7-1.7c0.5-0.6,1.1-0.8,1.8-0.8
		c0.6,0,1.1,0.2,1.7,0.7c0.6,0.6,0.8,1.2,0.8,1.8c0,0.7-0.2,1.3-0.7,1.8c-0.5,0.5-1.1,0.7-1.8,0.7
		C-2891.7,3292.1-2892.2,3291.9-2892.8,3291.4z"/>
	<path id="XMLID_814_" class="st0" d="M-2892.8,3298.1c-0.6-0.5-0.8-1.1-0.8-1.8c0-0.6,0.2-1.1,0.7-1.7c0.5-0.6,1.1-0.8,1.8-0.8
		c0.6,0,1.1,0.2,1.7,0.7c0.6,0.6,0.8,1.2,0.8,1.8c0,0.7-0.2,1.3-0.7,1.8c-0.5,0.5-1.1,0.7-1.8,0.7
		C-2891.7,3298.8-2892.2,3298.6-2892.8,3298.1z"/>
	<path id="XMLID_813_" class="st0" d="M-2892.8,3304.8c-0.6-0.5-0.8-1.1-0.8-1.8c0-0.6,0.2-1.1,0.7-1.7c0.5-0.6,1.1-0.8,1.8-0.8
		c0.6,0,1.1,0.2,1.7,0.7c0.6,0.6,0.8,1.2,0.8,1.8c0,0.7-0.2,1.3-0.7,1.8c-0.5,0.5-1.1,0.7-1.8,0.7
		C-2891.7,3305.6-2892.2,3305.3-2892.8,3304.8z"/>
	<path id="XMLID_812_" class="st0" d="M-2892.8,3311.5c-0.6-0.5-0.8-1.1-0.8-1.8c0-0.6,0.2-1.1,0.7-1.7c0.5-0.6,1.1-0.8,1.8-0.8
		c0.6,0,1.1,0.2,1.7,0.7c0.6,0.6,0.8,1.2,0.8,1.8c0,0.7-0.2,1.3-0.7,1.8c-0.5,0.5-1.1,0.7-1.8,0.7
		C-2891.7,3312.3-2892.2,3312-2892.8,3311.5z"/>
	<path id="XMLID_811_" class="st0" d="M-2892.8,3318.3c-0.6-0.5-0.8-1.1-0.8-1.8c0-0.6,0.2-1.1,0.7-1.7c0.5-0.6,1.1-0.8,1.8-0.8
		c0.6,0,1.1,0.2,1.7,0.7c0.6,0.6,0.8,1.2,0.8,1.8c0,0.7-0.2,1.3-0.7,1.8c-0.5,0.5-1.1,0.7-1.8,0.7
		C-2891.7,3319-2892.2,3318.8-2892.8,3318.3z"/>
	<path id="XMLID_810_" class="st0" d="M-2919.7,3284.6c-0.6-0.5-0.8-1.1-0.8-1.8c0-0.6,0.2-1.1,0.7-1.7c0.5-0.6,1.1-0.8,1.8-0.8
		c0.6,0,1.1,0.2,1.7,0.7c0.6,0.6,0.8,1.2,0.8,1.8c0,0.7-0.2,1.3-0.7,1.8c-0.5,0.5-1.1,0.7-1.8,0.7
		C-2918.6,3285.4-2919.1,3285.1-2919.7,3284.6z"/>
	<path id="XMLID_809_" class="st0" d="M-2892.8,3284.6c-0.6-0.5-0.8-1.1-0.8-1.8c0-0.6,0.2-1.1,0.7-1.7c0.5-0.6,1.1-0.8,1.8-0.8
		c0.6,0,1.1,0.2,1.7,0.7c0.6,0.6,0.8,1.2,0.8,1.8c0,0.7-0.2,1.3-0.7,1.8c-0.5,0.5-1.1,0.7-1.8,0.7
		C-2891.7,3285.4-2892.2,3285.1-2892.8,3284.6z"/>
	<path id="XMLID_808_" class="st0" d="M-2919.7,3325c-0.6-0.5-0.8-1.1-0.8-1.8c0-0.6,0.2-1.1,0.7-1.7c0.5-0.6,1.1-0.8,1.8-0.8
		c0.6,0,1.1,0.2,1.7,0.7c0.6,0.6,0.8,1.2,0.8,1.8c0,0.7-0.2,1.3-0.7,1.8c-0.5,0.5-1.1,0.7-1.8,0.7
		C-2918.6,3325.7-2919.1,3325.5-2919.7,3325z"/>
	<path id="XMLID_807_" class="st0" d="M-2892.8,3325c-0.6-0.5-0.8-1.1-0.8-1.8c0-0.6,0.2-1.1,0.7-1.7c0.5-0.6,1.1-0.8,1.8-0.8
		c0.6,0,1.1,0.2,1.7,0.7c0.6,0.6,0.8,1.2,0.8,1.8c0,0.7-0.2,1.3-0.7,1.8c-0.5,0.5-1.1,0.7-1.8,0.7
		C-2891.7,3325.7-2892.2,3325.5-2892.8,3325z"/>
	<path id="XMLID_806_" class="st0" d="M-2913,3291.4c-0.6-0.5-0.8-1.1-0.8-1.8c0-0.6,0.2-1.1,0.7-1.7c0.5-0.6,1.1-0.8,1.8-0.8
		c0.6,0,1.1,0.2,1.7,0.7c0.6,0.6,0.8,1.2,0.8,1.8c0,0.7-0.2,1.3-0.7,1.8c-0.5,0.5-1.1,0.7-1.8,0.7
		C-2911.9,3292.1-2912.4,3291.9-2913,3291.4z"/>
	<path id="XMLID_805_" class="st0" d="M-2913,3298.1c-0.6-0.5-0.8-1.1-0.8-1.8c0-0.6,0.2-1.1,0.7-1.7c0.5-0.6,1.1-0.8,1.8-0.8
		c0.6,0,1.1,0.2,1.7,0.7c0.6,0.6,0.8,1.2,0.8,1.8c0,0.7-0.2,1.3-0.7,1.8c-0.5,0.5-1.1,0.7-1.8,0.7
		C-2911.9,3298.8-2912.4,3298.6-2913,3298.1z"/>
	<path id="XMLID_804_" class="st0" d="M-2913,3304.8c-0.6-0.5-0.8-1.1-0.8-1.8c0-0.6,0.2-1.1,0.7-1.7c0.5-0.6,1.1-0.8,1.8-0.8
		c0.6,0,1.1,0.2,1.7,0.7c0.6,0.6,0.8,1.2,0.8,1.8c0,0.7-0.2,1.3-0.7,1.8c-0.5,0.5-1.1,0.7-1.8,0.7
		C-2911.9,3305.6-2912.4,3305.3-2913,3304.8z"/>
	<path id="XMLID_803_" class="st0" d="M-2913,3311.5c-0.6-0.5-0.8-1.1-0.8-1.8c0-0.6,0.2-1.1,0.7-1.7c0.5-0.6,1.1-0.8,1.8-0.8
		c0.6,0,1.1,0.2,1.7,0.7c0.6,0.6,0.8,1.2,0.8,1.8c0,0.7-0.2,1.3-0.7,1.8c-0.5,0.5-1.1,0.7-1.8,0.7
		C-2911.9,3312.3-2912.4,3312-2913,3311.5z"/>
	<path id="XMLID_802_" class="st0" d="M-2913,3318.3c-0.6-0.5-0.8-1.1-0.8-1.8c0-0.6,0.2-1.1,0.7-1.7c0.5-0.6,1.1-0.8,1.8-0.8
		c0.6,0,1.1,0.2,1.7,0.7c0.6,0.6,0.8,1.2,0.8,1.8c0,0.7-0.2,1.3-0.7,1.8c-0.5,0.5-1.1,0.7-1.8,0.7
		C-2911.9,3319-2912.4,3318.8-2913,3318.3z"/>
	<path id="XMLID_801_" class="st0" d="M-2906.3,3291.4c-0.6-0.5-0.8-1.1-0.8-1.8c0-0.6,0.2-1.1,0.7-1.7c0.5-0.6,1.1-0.8,1.8-0.8
		c0.6,0,1.1,0.2,1.7,0.7c0.6,0.6,0.8,1.2,0.8,1.8c0,0.7-0.2,1.3-0.7,1.8c-0.5,0.5-1.1,0.7-1.8,0.7
		C-2905.1,3292.1-2905.7,3291.9-2906.3,3291.4z"/>
	<path id="XMLID_800_" class="st0" d="M-2906.3,3298.1c-0.6-0.5-0.8-1.1-0.8-1.8c0-0.6,0.2-1.1,0.7-1.7c0.5-0.6,1.1-0.8,1.8-0.8
		c0.6,0,1.1,0.2,1.7,0.7c0.6,0.6,0.8,1.2,0.8,1.8c0,0.7-0.2,1.3-0.7,1.8c-0.5,0.5-1.1,0.7-1.8,0.7
		C-2905.1,3298.8-2905.7,3298.6-2906.3,3298.1z"/>
	<path id="XMLID_799_" class="st0" d="M-2906.3,3304.8c-0.6-0.5-0.8-1.1-0.8-1.8c0-0.6,0.2-1.1,0.7-1.7c0.5-0.6,1.1-0.8,1.8-0.8
		c0.6,0,1.1,0.2,1.7,0.7c0.6,0.6,0.8,1.2,0.8,1.8c0,0.7-0.2,1.3-0.7,1.8c-0.5,0.5-1.1,0.7-1.8,0.7
		C-2905.1,3305.6-2905.7,3305.3-2906.3,3304.8z"/>
	<path id="XMLID_798_" class="st0" d="M-2906.3,3311.5c-0.6-0.5-0.8-1.1-0.8-1.8c0-0.6,0.2-1.1,0.7-1.7c0.5-0.6,1.1-0.8,1.8-0.8
		c0.6,0,1.1,0.2,1.7,0.7c0.6,0.6,0.8,1.2,0.8,1.8c0,0.7-0.2,1.3-0.7,1.8c-0.5,0.5-1.1,0.7-1.8,0.7
		C-2905.1,3312.3-2905.7,3312-2906.3,3311.5z"/>
	<path id="XMLID_797_" class="st0" d="M-2906.3,3318.3c-0.6-0.5-0.8-1.1-0.8-1.8c0-0.6,0.2-1.1,0.7-1.7c0.5-0.6,1.1-0.8,1.8-0.8
		c0.6,0,1.1,0.2,1.7,0.7c0.6,0.6,0.8,1.2,0.8,1.8c0,0.7-0.2,1.3-0.7,1.8c-0.5,0.5-1.1,0.7-1.8,0.7
		C-2905.1,3319-2905.7,3318.8-2906.3,3318.3z"/>
	<path id="XMLID_796_" class="st0" d="M-2899.5,3291.4c-0.6-0.5-0.8-1.1-0.8-1.8c0-0.6,0.2-1.1,0.7-1.7c0.5-0.6,1.1-0.8,1.8-0.8
		c0.6,0,1.1,0.2,1.7,0.7c0.6,0.6,0.8,1.2,0.8,1.8c0,0.7-0.2,1.3-0.7,1.8c-0.5,0.5-1.1,0.7-1.8,0.7
		C-2898.4,3292.1-2899,3291.9-2899.5,3291.4z"/>
	<path id="XMLID_795_" class="st0" d="M-2899.5,3298.1c-0.6-0.5-0.8-1.1-0.8-1.8c0-0.6,0.2-1.1,0.7-1.7c0.5-0.6,1.1-0.8,1.8-0.8
		c0.6,0,1.1,0.2,1.7,0.7c0.6,0.6,0.8,1.2,0.8,1.8c0,0.7-0.2,1.3-0.7,1.8c-0.5,0.5-1.1,0.7-1.8,0.7
		C-2898.4,3298.8-2899,3298.6-2899.5,3298.1z"/>
	<path id="XMLID_794_" class="st0" d="M-2899.5,3304.8c-0.6-0.5-0.8-1.1-0.8-1.8c0-0.6,0.2-1.1,0.7-1.7c0.5-0.6,1.1-0.8,1.8-0.8
		c0.6,0,1.1,0.2,1.7,0.7c0.6,0.6,0.8,1.2,0.8,1.8c0,0.7-0.2,1.3-0.7,1.8c-0.5,0.5-1.1,0.7-1.8,0.7
		C-2898.4,3305.6-2899,3305.3-2899.5,3304.8z"/>
	<path id="XMLID_793_" class="st0" d="M-2899.5,3311.5c-0.6-0.5-0.8-1.1-0.8-1.8c0-0.6,0.2-1.1,0.7-1.7c0.5-0.6,1.1-0.8,1.8-0.8
		c0.6,0,1.1,0.2,1.7,0.7c0.6,0.6,0.8,1.2,0.8,1.8c0,0.7-0.2,1.3-0.7,1.8c-0.5,0.5-1.1,0.7-1.8,0.7
		C-2898.4,3312.3-2899,3312-2899.5,3311.5z"/>
	<path id="XMLID_792_" class="st0" d="M-2899.5,3318.3c-0.6-0.5-0.8-1.1-0.8-1.8c0-0.6,0.2-1.1,0.7-1.7c0.5-0.6,1.1-0.8,1.8-0.8
		c0.6,0,1.1,0.2,1.7,0.7c0.6,0.6,0.8,1.2,0.8,1.8c0,0.7-0.2,1.3-0.7,1.8c-0.5,0.5-1.1,0.7-1.8,0.7
		C-2898.4,3319-2899,3318.8-2899.5,3318.3z"/>
	<path id="XMLID_791_" class="st0" d="M-2879.5,3291.4c-0.6-0.5-0.8-1.1-0.8-1.8c0-0.6,0.2-1.1,0.7-1.7c0.5-0.6,1.1-0.8,1.8-0.8
		c0.6,0,1.1,0.2,1.7,0.7c0.6,0.6,0.8,1.2,0.8,1.8c0,0.7-0.2,1.3-0.7,1.8c-0.5,0.5-1.1,0.7-1.8,0.7
		C-2878.4,3292.1-2878.9,3291.9-2879.5,3291.4z"/>
	<path id="XMLID_790_" class="st0" d="M-2879.5,3298.1c-0.6-0.5-0.8-1.1-0.8-1.8c0-0.6,0.2-1.1,0.7-1.7c0.5-0.6,1.1-0.8,1.8-0.8
		c0.6,0,1.1,0.2,1.7,0.7c0.6,0.6,0.8,1.2,0.8,1.8c0,0.7-0.2,1.3-0.7,1.8c-0.5,0.5-1.1,0.7-1.8,0.7
		C-2878.4,3298.8-2878.9,3298.6-2879.5,3298.1z"/>
	<path id="XMLID_789_" class="st0" d="M-2879.5,3304.8c-0.6-0.5-0.8-1.1-0.8-1.8c0-0.6,0.2-1.1,0.7-1.7c0.5-0.6,1.1-0.8,1.8-0.8
		c0.6,0,1.1,0.2,1.7,0.7c0.6,0.6,0.8,1.2,0.8,1.8c0,0.7-0.2,1.3-0.7,1.8c-0.5,0.5-1.1,0.7-1.8,0.7
		C-2878.4,3305.6-2878.9,3305.3-2879.5,3304.8z"/>
	<path id="XMLID_788_" class="st0" d="M-2879.5,3311.5c-0.6-0.5-0.8-1.1-0.8-1.8c0-0.6,0.2-1.1,0.7-1.7c0.5-0.6,1.1-0.8,1.8-0.8
		c0.6,0,1.1,0.2,1.7,0.7c0.6,0.6,0.8,1.2,0.8,1.8c0,0.7-0.2,1.3-0.7,1.8c-0.5,0.5-1.1,0.7-1.8,0.7
		C-2878.4,3312.3-2878.9,3312-2879.5,3311.5z"/>
	<path id="XMLID_787_" class="st0" d="M-2879.5,3318.3c-0.6-0.5-0.8-1.1-0.8-1.8c0-0.6,0.2-1.1,0.7-1.7c0.5-0.6,1.1-0.8,1.8-0.8
		c0.6,0,1.1,0.2,1.7,0.7c0.6,0.6,0.8,1.2,0.8,1.8c0,0.7-0.2,1.3-0.7,1.8c-0.5,0.5-1.1,0.7-1.8,0.7
		C-2878.4,3319-2878.9,3318.8-2879.5,3318.3z"/>
	<path id="XMLID_786_" class="st0" d="M-2872.8,3325c-0.6-0.5-0.8-1.1-0.8-1.8c0-0.6,0.2-1.1,0.7-1.7c0.5-0.6,1.1-0.8,1.8-0.8
		c0.6,0,1.1,0.2,1.7,0.7c0.6,0.6,0.8,1.2,0.8,1.8c0,0.7-0.2,1.3-0.7,1.8c-0.5,0.5-1.1,0.7-1.8,0.7
		C-2871.6,3325.7-2872.2,3325.5-2872.8,3325z"/>
	<path id="XMLID_785_" class="st0" d="M-2866,3284.6c-0.6-0.5-0.8-1.1-0.8-1.8c0-0.6,0.2-1.1,0.7-1.7c0.5-0.6,1.1-0.8,1.8-0.8
		c0.6,0,1.1,0.2,1.7,0.7c0.6,0.6,0.8,1.2,0.8,1.8c0,0.7-0.2,1.3-0.7,1.8c-0.5,0.5-1.1,0.7-1.8,0.7
		C-2864.9,3285.4-2865.5,3285.1-2866,3284.6z"/>
	<path id="XMLID_784_" class="st0" d="M-2866,3325c-0.6-0.5-0.8-1.1-0.8-1.8c0-0.6,0.2-1.1,0.7-1.7c0.5-0.6,1.1-0.8,1.8-0.8
		c0.6,0,1.1,0.2,1.7,0.7c0.6,0.6,0.8,1.2,0.8,1.8c0,0.7-0.2,1.3-0.7,1.8c-0.5,0.5-1.1,0.7-1.8,0.7
		C-2864.9,3325.7-2865.5,3325.5-2866,3325z"/>
	<path id="XMLID_783_" class="st0" d="M-2859.3,3284.6c-0.6-0.5-0.8-1.1-0.8-1.8c0-0.6,0.2-1.1,0.7-1.7c0.5-0.6,1.1-0.8,1.8-0.8
		c0.6,0,1.1,0.2,1.7,0.7c0.6,0.6,0.8,1.2,0.8,1.8c0,0.7-0.2,1.3-0.7,1.8c-0.5,0.5-1.1,0.7-1.8,0.7
		C-2858.2,3285.4-2858.7,3285.1-2859.3,3284.6z"/>
	<path id="XMLID_782_" class="st0" d="M-2859.3,3325c-0.6-0.5-0.8-1.1-0.8-1.8c0-0.6,0.2-1.1,0.7-1.7c0.5-0.6,1.1-0.8,1.8-0.8
		c0.6,0,1.1,0.2,1.7,0.7c0.6,0.6,0.8,1.2,0.8,1.8c0,0.7-0.2,1.3-0.7,1.8c-0.5,0.5-1.1,0.7-1.8,0.7
		C-2858.2,3325.7-2858.7,3325.5-2859.3,3325z"/>
	<path id="XMLID_781_" class="st0" d="M-2852.6,3291.4c-0.6-0.5-0.8-1.1-0.8-1.8c0-0.6,0.2-1.1,0.7-1.7c0.5-0.6,1.1-0.8,1.8-0.8
		c0.6,0,1.1,0.2,1.7,0.7c0.6,0.6,0.8,1.2,0.8,1.8c0,0.7-0.2,1.3-0.7,1.8c-0.5,0.5-1.1,0.7-1.8,0.7
		C-2851.5,3292.1-2852,3291.9-2852.6,3291.4z"/>
	<path id="XMLID_780_" class="st0" d="M-2852.6,3298.1c-0.6-0.5-0.8-1.1-0.8-1.8c0-0.6,0.2-1.1,0.7-1.7c0.5-0.6,1.1-0.8,1.8-0.8
		c0.6,0,1.1,0.2,1.7,0.7c0.6,0.6,0.8,1.2,0.8,1.8c0,0.7-0.2,1.3-0.7,1.8c-0.5,0.5-1.1,0.7-1.8,0.7
		C-2851.5,3298.8-2852,3298.6-2852.6,3298.1z"/>
	<path id="XMLID_779_" class="st0" d="M-2852.6,3304.8c-0.6-0.5-0.8-1.1-0.8-1.8c0-0.6,0.2-1.1,0.7-1.7c0.5-0.6,1.1-0.8,1.8-0.8
		c0.6,0,1.1,0.2,1.7,0.7c0.6,0.6,0.8,1.2,0.8,1.8c0,0.7-0.2,1.3-0.7,1.8c-0.5,0.5-1.1,0.7-1.8,0.7
		C-2851.5,3305.6-2852,3305.3-2852.6,3304.8z"/>
	<path id="XMLID_778_" class="st0" d="M-2852.6,3311.5c-0.6-0.5-0.8-1.1-0.8-1.8c0-0.6,0.2-1.1,0.7-1.7c0.5-0.6,1.1-0.8,1.8-0.8
		c0.6,0,1.1,0.2,1.7,0.7c0.6,0.6,0.8,1.2,0.8,1.8c0,0.7-0.2,1.3-0.7,1.8c-0.5,0.5-1.1,0.7-1.8,0.7
		C-2851.5,3312.3-2852,3312-2852.6,3311.5z"/>
	<path id="XMLID_777_" class="st0" d="M-2852.6,3318.3c-0.6-0.5-0.8-1.1-0.8-1.8c0-0.6,0.2-1.1,0.7-1.7c0.5-0.6,1.1-0.8,1.8-0.8
		c0.6,0,1.1,0.2,1.7,0.7c0.6,0.6,0.8,1.2,0.8,1.8c0,0.7-0.2,1.3-0.7,1.8c-0.5,0.5-1.1,0.7-1.8,0.7
		C-2851.5,3319-2852,3318.8-2852.6,3318.3z"/>
	<path id="XMLID_776_" class="st0" d="M-2879.5,3284.6c-0.6-0.5-0.8-1.1-0.8-1.8c0-0.6,0.2-1.1,0.7-1.7c0.5-0.6,1.1-0.8,1.8-0.8
		c0.6,0,1.1,0.2,1.7,0.7c0.6,0.6,0.8,1.2,0.8,1.8c0,0.7-0.2,1.3-0.7,1.8c-0.5,0.5-1.1,0.7-1.8,0.7
		C-2878.4,3285.4-2878.9,3285.1-2879.5,3284.6z"/>
	<path id="XMLID_775_" class="st0" d="M-2852.6,3284.6c-0.6-0.5-0.8-1.1-0.8-1.8c0-0.6,0.2-1.1,0.7-1.7c0.5-0.6,1.1-0.8,1.8-0.8
		c0.6,0,1.1,0.2,1.7,0.7c0.6,0.6,0.8,1.2,0.8,1.8c0,0.7-0.2,1.3-0.7,1.8c-0.5,0.5-1.1,0.7-1.8,0.7
		C-2851.5,3285.4-2852,3285.1-2852.6,3284.6z"/>
	<path id="XMLID_774_" class="st0" d="M-2879.5,3325c-0.6-0.5-0.8-1.1-0.8-1.8c0-0.6,0.2-1.1,0.7-1.7c0.5-0.6,1.1-0.8,1.8-0.8
		c0.6,0,1.1,0.2,1.7,0.7c0.6,0.6,0.8,1.2,0.8,1.8c0,0.7-0.2,1.3-0.7,1.8c-0.5,0.5-1.1,0.7-1.8,0.7
		C-2878.4,3325.7-2878.9,3325.5-2879.5,3325z"/>
	<path id="XMLID_773_" class="st0" d="M-2852.6,3325c-0.6-0.5-0.8-1.1-0.8-1.8c0-0.6,0.2-1.1,0.7-1.7c0.5-0.6,1.1-0.8,1.8-0.8
		c0.6,0,1.1,0.2,1.7,0.7c0.6,0.6,0.8,1.2,0.8,1.8c0,0.7-0.2,1.3-0.7,1.8c-0.5,0.5-1.1,0.7-1.8,0.7
		C-2851.5,3325.7-2852,3325.5-2852.6,3325z"/>
	<path id="XMLID_772_" class="st0" d="M-2872.8,3291.4c-0.6-0.5-0.8-1.1-0.8-1.8c0-0.6,0.2-1.1,0.7-1.7c0.5-0.6,1.1-0.8,1.8-0.8
		c0.6,0,1.1,0.2,1.7,0.7c0.6,0.6,0.8,1.2,0.8,1.8c0,0.7-0.2,1.3-0.7,1.8c-0.5,0.5-1.1,0.7-1.8,0.7
		C-2871.6,3292.1-2872.2,3291.9-2872.8,3291.4z"/>
	<path id="XMLID_771_" class="st0" d="M-2872.8,3298.1c-0.6-0.5-0.8-1.1-0.8-1.8c0-0.6,0.2-1.1,0.7-1.7c0.5-0.6,1.1-0.8,1.8-0.8
		c0.6,0,1.1,0.2,1.7,0.7c0.6,0.6,0.8,1.2,0.8,1.8c0,0.7-0.2,1.3-0.7,1.8c-0.5,0.5-1.1,0.7-1.8,0.7
		C-2871.6,3298.8-2872.2,3298.6-2872.8,3298.1z"/>
	<path id="XMLID_770_" class="st0" d="M-2872.8,3304.8c-0.6-0.5-0.8-1.1-0.8-1.8c0-0.6,0.2-1.1,0.7-1.7c0.5-0.6,1.1-0.8,1.8-0.8
		c0.6,0,1.1,0.2,1.7,0.7c0.6,0.6,0.8,1.2,0.8,1.8c0,0.7-0.2,1.3-0.7,1.8c-0.5,0.5-1.1,0.7-1.8,0.7
		C-2871.6,3305.6-2872.2,3305.3-2872.8,3304.8z"/>
	<path id="XMLID_769_" class="st0" d="M-2872.8,3311.5c-0.6-0.5-0.8-1.1-0.8-1.8c0-0.6,0.2-1.1,0.7-1.7c0.5-0.6,1.1-0.8,1.8-0.8
		c0.6,0,1.1,0.2,1.7,0.7c0.6,0.6,0.8,1.2,0.8,1.8c0,0.7-0.2,1.3-0.7,1.8c-0.5,0.5-1.1,0.7-1.8,0.7
		C-2871.6,3312.3-2872.2,3312-2872.8,3311.5z"/>
	<path id="XMLID_768_" class="st0" d="M-2872.8,3318.3c-0.6-0.5-0.8-1.1-0.8-1.8c0-0.6,0.2-1.1,0.7-1.7c0.5-0.6,1.1-0.8,1.8-0.8
		c0.6,0,1.1,0.2,1.7,0.7c0.6,0.6,0.8,1.2,0.8,1.8c0,0.7-0.2,1.3-0.7,1.8c-0.5,0.5-1.1,0.7-1.8,0.7
		C-2871.6,3319-2872.2,3318.8-2872.8,3318.3z"/>
	<path id="XMLID_767_" class="st0" d="M-2866,3291.4c-0.6-0.5-0.8-1.1-0.8-1.8c0-0.6,0.2-1.1,0.7-1.7c0.5-0.6,1.1-0.8,1.8-0.8
		c0.6,0,1.1,0.2,1.7,0.7c0.6,0.6,0.8,1.2,0.8,1.8c0,0.7-0.2,1.3-0.7,1.8c-0.5,0.5-1.1,0.7-1.8,0.7
		C-2864.9,3292.1-2865.5,3291.9-2866,3291.4z"/>
	<path id="XMLID_766_" class="st0" d="M-2866,3298.1c-0.6-0.5-0.8-1.1-0.8-1.8c0-0.6,0.2-1.1,0.7-1.7c0.5-0.6,1.1-0.8,1.8-0.8
		c0.6,0,1.1,0.2,1.7,0.7c0.6,0.6,0.8,1.2,0.8,1.8c0,0.7-0.2,1.3-0.7,1.8c-0.5,0.5-1.1,0.7-1.8,0.7
		C-2864.9,3298.8-2865.5,3298.6-2866,3298.1z"/>
	<path id="XMLID_765_" class="st0" d="M-2866,3304.8c-0.6-0.5-0.8-1.1-0.8-1.8c0-0.6,0.2-1.1,0.7-1.7c0.5-0.6,1.1-0.8,1.8-0.8
		c0.6,0,1.1,0.2,1.7,0.7c0.6,0.6,0.8,1.2,0.8,1.8c0,0.7-0.2,1.3-0.7,1.8c-0.5,0.5-1.1,0.7-1.8,0.7
		C-2864.9,3305.6-2865.5,3305.3-2866,3304.8z"/>
	<path id="XMLID_764_" class="st0" d="M-2866,3311.5c-0.6-0.5-0.8-1.1-0.8-1.8c0-0.6,0.2-1.1,0.7-1.7c0.5-0.6,1.1-0.8,1.8-0.8
		c0.6,0,1.1,0.2,1.7,0.7c0.6,0.6,0.8,1.2,0.8,1.8c0,0.7-0.2,1.3-0.7,1.8c-0.5,0.5-1.1,0.7-1.8,0.7
		C-2864.9,3312.3-2865.5,3312-2866,3311.5z"/>
	<path id="XMLID_763_" class="st0" d="M-2866,3318.3c-0.6-0.5-0.8-1.1-0.8-1.8c0-0.6,0.2-1.1,0.7-1.7c0.5-0.6,1.1-0.8,1.8-0.8
		c0.6,0,1.1,0.2,1.7,0.7c0.6,0.6,0.8,1.2,0.8,1.8c0,0.7-0.2,1.3-0.7,1.8c-0.5,0.5-1.1,0.7-1.8,0.7
		C-2864.9,3319-2865.5,3318.8-2866,3318.3z"/>
	<path id="XMLID_762_" class="st0" d="M-2859.3,3291.4c-0.6-0.5-0.8-1.1-0.8-1.8c0-0.6,0.2-1.1,0.7-1.7c0.5-0.6,1.1-0.8,1.8-0.8
		c0.6,0,1.1,0.2,1.7,0.7c0.6,0.6,0.8,1.2,0.8,1.8c0,0.7-0.2,1.3-0.7,1.8c-0.5,0.5-1.1,0.7-1.8,0.7
		C-2858.2,3292.1-2858.7,3291.9-2859.3,3291.4z"/>
	<path id="XMLID_761_" class="st0" d="M-2859.3,3298.1c-0.6-0.5-0.8-1.1-0.8-1.8c0-0.6,0.2-1.1,0.7-1.7c0.5-0.6,1.1-0.8,1.8-0.8
		c0.6,0,1.1,0.2,1.7,0.7c0.6,0.6,0.8,1.2,0.8,1.8c0,0.7-0.2,1.3-0.7,1.8c-0.5,0.5-1.1,0.7-1.8,0.7
		C-2858.2,3298.8-2858.7,3298.6-2859.3,3298.1z"/>
	<path id="XMLID_760_" class="st0" d="M-2859.3,3304.8c-0.6-0.5-0.8-1.1-0.8-1.8c0-0.6,0.2-1.1,0.7-1.7c0.5-0.6,1.1-0.8,1.8-0.8
		c0.6,0,1.1,0.2,1.7,0.7c0.6,0.6,0.8,1.2,0.8,1.8c0,0.7-0.2,1.3-0.7,1.8c-0.5,0.5-1.1,0.7-1.8,0.7
		C-2858.2,3305.6-2858.7,3305.3-2859.3,3304.8z"/>
	<path id="XMLID_759_" class="st0" d="M-2859.3,3311.5c-0.6-0.5-0.8-1.1-0.8-1.8c0-0.6,0.2-1.1,0.7-1.7c0.5-0.6,1.1-0.8,1.8-0.8
		c0.6,0,1.1,0.2,1.7,0.7c0.6,0.6,0.8,1.2,0.8,1.8c0,0.7-0.2,1.3-0.7,1.8c-0.5,0.5-1.1,0.7-1.8,0.7
		C-2858.2,3312.3-2858.7,3312-2859.3,3311.5z"/>
	<path id="XMLID_753_" class="st0" d="M-2859.3,3318.3c-0.6-0.5-0.8-1.1-0.8-1.8c0-0.6,0.2-1.1,0.7-1.7c0.5-0.6,1.1-0.8,1.8-0.8
		c0.6,0,1.1,0.2,1.7,0.7c0.6,0.6,0.8,1.2,0.8,1.8c0,0.7-0.2,1.3-0.7,1.8c-0.5,0.5-1.1,0.7-1.8,0.7
		C-2858.2,3319-2858.7,3318.8-2859.3,3318.3z"/>
</g>
<text id="speed" transform="matrix(1 0 0 1 -2961.3271 3326.3547)" style="fill:#EAC720; font-family:'JD-LCD-Rounded'; font-size:107.5905px;">000</text>
<path id="diro" class="st3" d="M-2603.4,3206.9c-23.5,0-42.5,19-42.5,42.5c0,23.5,19,42.5,42.5,42.5c23.5,0,42.5-19,42.5-42.5
	C-2560.9,3225.9-2579.9,3206.9-2603.4,3206.9z M-2574.7,3258.5c-2.4,7.7-7.7,13.9-14.8,17.6c-4.4,2.3-9.2,3.4-13.8,3.4
	c-10.9,0-21.4-5.9-26.7-16.2c-2.7-5.2-3.8-11.1-3.2-17l9.4,1c-0.4,4,0.3,8,2.2,11.6c5.2,10.1,17.7,14,27.8,8.8
	c4.9-2.5,8.5-6.8,10.2-12.1c1.7-5.3,1.2-10.8-1.4-15.7c-1.5-2.9-3.7-5.4-6.3-7.2l0.1,7.5l-23.9-13.3l23.4-14l0.1,8.9
	c6.4,2.7,11.6,7.5,14.8,13.8C-2573,3242.6-2572.3,3250.8-2574.7,3258.5z"/>
<path id="dirw" class="st3" d="M-3094.6,3208c-23.5,0-42.5,19-42.5,42.5s19,42.5,42.5,42.5s42.5-19,42.5-42.5
	S-3071.1,3208-3094.6,3208z M-3070.6,3268.7c-4.9,6.4-11.9,10.5-19.9,11.6c-1.4,0.2-2.8,0.3-4.1,0.3c-6.5,0-12.8-2.1-18.1-6.1
	c-6.4-4.9-10.5-11.9-11.6-19.9c-1.8-13,5.3-25.8,17-31.3l-0.2-8.9l23.9,13.3l-23.4,14.1l-0.1-7.5c-5.7,4.4-8.8,11.7-7.8,19.1
	c0.7,5.5,3.6,10.3,8,13.6c4.4,3.3,9.8,4.8,15.3,4c5.5-0.7,10.3-3.6,13.6-8c3.3-4.4,4.8-9.8,4-15.3l9.4-1.3
	C-3063.7,3254.4-3065.8,3262.3-3070.6,3268.7z"/>
<g>
	<g>
		<path class="st3" d="M-2830.5,3307.4L-2830.5,3307.4c0.5-0.7,1-1.4,1.4-2l4.2-5.5h5.2l-6.3,7l7.3,10.1h-5.3l-4.9-7.6l-1.5,1.7v5.8
			h-4.3v-25h4.3V3307.4z"/>
		<path class="st3" d="M-2816.4,3305c0-2,0-3.6-0.1-5.1h3.7l0.2,2.5h0.1c0.8-1.3,2.4-2.9,5.3-2.9c2.3,0,4,1.3,4.8,3.2h0.1
			c0.6-0.9,1.3-1.7,2.1-2.1c1-0.7,2-1,3.5-1c2.9,0,5.7,1.9,5.7,7.4v10.1h-4.2v-9.5c0-2.9-1-4.5-3.1-4.5c-1.5,0-2.6,1.1-3,2.3
			c-0.1,0.4-0.2,1-0.2,1.4v10.3h-4.2v-9.9c0-2.4-1-4.1-3-4.1c-1.6,0-2.7,1.3-3.1,2.5c-0.2,0.4-0.2,0.9-0.2,1.4v10.1h-4.2V3305z"/>
		<path class="st3" d="M-2788.6,3318.4l8.6-25.5h3l-8.6,25.5H-2788.6z"/>
		<path class="st3" d="M-2774.7,3292h4.4v10.2h0.1c0.5-0.8,1.2-1.5,2.1-2c0.8-0.5,1.9-0.8,3-0.8c2.9,0,6,1.9,6,7.4v10.1h-4.3v-9.6
			c0-2.5-0.9-4.4-3.3-4.4c-1.7,0-2.9,1.1-3.3,2.4c-0.1,0.4-0.2,0.8-0.2,1.3v10.2h-4.4V3292z"/>
	</g>
</g>
<g id="line">
	<rect id="XMLID_16_" x="-2821.6" y="3185.4" class="st3" width="20.3" height="5.8"/>
	<rect id="XMLID_988_" x="-2821.6" y="3174.9" class="st3" width="20.3" height="5.8"/>
	<path id="XMLID_4_" class="st3" d="M-2903.6,3257.7c0,1.8,1.2,2.6,2.6,2.6c1.8,0,3.2-1.2,3.6-2.5c0.1-0.3,0.1-0.7,0.1-1v-2.5
		C-2900.5,3254.2-2903.6,3254.9-2903.6,3257.7z"/>
	<path id="XMLID_1_" class="st3" d="M-2769.2,3159.1h-173.2c-5,0-9.1,4.1-9.1,9.1v90.5c0,5,4.1,9.1,9.1,9.1h173.2
		c5,0,9.1-4.1,9.1-9.1v-90.5C-2760.1,3163.1-2764.2,3159.1-2769.2,3159.1z M-2826.5,3170.3h11l1.7-7.8l6.1,1.2
		c1.5,0.6,1.5,1.2-0.3,1.7l-2.3,4.9h13.9v25.6h-12.8v3.5c0,1.4,1.1,3.8,3.2,7.3l9-9l4.1,4.6c0.2,1-0.3,1.3-1.5,0.9l-9,7
		c3.1,4.1,7.3,7.7,12.5,11l-3.2,5.8c-6-3.9-11-9.4-15.1-16.6v14.5c0,2.9-1.2,4.4-3.5,4.4h-5.5l-1.2-4.6h4.1c0.8,0,1.2-0.4,1.2-1.2
		v-27.6h-6.4h-6.1V3170.3z M-2929.9,3182.2v-5.5h27.6v-13.1h5.5c1.5,0.2,1.6,0.8,0.3,1.7v11.3h27.9v5.5h-25.8
		c6.6,11.8,16.2,21.6,28.8,29.3l-3.2,6.7c-11.8-7.4-21-16.7-27.6-28.2v18.3h11.9v5.5h-11.9v15.7h-5.8v-15.7h-11.3v-5.5h11.3V3190
		c-5.6,12.4-14.7,22.3-27.3,29.6l-3.2-6.1c13.2-7.2,22.6-17.6,28.2-31.4H-2929.9z M-2915.9,3263.1l-0.5-10.2
		c-0.1-3.2-0.3-7.1-0.3-10.5h-0.1c-0.8,3-1.9,6.4-3,9.6l-3.6,10.9h-3.5l-3.3-10.7c-1-3.2-1.9-6.6-2.5-9.7h-0.1
		c-0.1,3.3-0.3,7.2-0.4,10.7l-0.6,10.1h-4.3l1.7-25.1h6l3.3,10.1c0.9,2.9,1.7,5.9,2.3,8.7h0.1c0.7-2.7,1.5-5.8,2.5-8.7l3.5-10h5.9
		l1.4,25.1H-2915.9z M-2896.7,3263.1l-0.3-2h-0.1c-1.1,1.4-3,2.4-5.4,2.4c-3.6,0-5.7-2.6-5.7-5.4c0-4.6,4.1-6.9,10.7-6.8v-0.3
		c0-1.2-0.5-3.2-3.7-3.2c-1.8,0-3.6,0.6-4.9,1.3l-0.9-3c1.3-0.8,3.7-1.6,6.5-1.6c5.8,0,7.5,3.7,7.5,7.6v6.5c0,1.6,0.1,3.2,0.3,4.3
		H-2896.7z M-2883.4,3263.1h-4.6V3245h4.6V3263.1z M-2885.7,3242.4c-1.5,0-2.5-1.1-2.5-2.5c0-1.4,1-2.5,2.6-2.5
		c1.6,0,2.5,1.1,2.6,2.5C-2883.1,3241.3-2884.1,3242.4-2885.7,3242.4z M-2862.1,3263.1h-4.6v-10.2c0-2.6-1-4.6-3.5-4.6
		c-1.8,0-3.1,1.3-3.6,2.7c-0.1,0.4-0.2,1-0.2,1.5v10.6h-4.6v-12.7c0-2.1,0-3.8-0.1-5.4h4l0.2,2.7h0.1c0.8-1.4,2.8-3.1,5.8-3.1
		c3.2,0,6.4,2,6.4,7.8V3263.1z M-2857.6,3198.2l-0.6-4.4h5.8l4.1-5.5l-9-7.3l2.9-4.4l1.5,0.9c3.9-6,6.6-10.6,8.1-13.9l5.2,2.6
		c0.8,0.8,0.5,1.3-0.9,1.5c-4.1,6.6-6.8,10.8-8.1,12.8l3.8,3.2l7.8-12.2l4.6,3.2c0.8,0.8,0.5,1.3-0.9,1.5
		c-5.2,7.7-9.5,13.6-12.8,17.4l9.6-0.9l-2-4.1l4.4-2.3c2.9,3.7,5,7.7,6.4,11.9l-5.2,2.3l-1.5-3.2l-6.1,0.9v31.9h-5.8v-31.4l-9.6,0.6
		C-2856.8,3200.5-2857.4,3200.1-2857.6,3198.2z M-2830.3,3216.2l-5.5,1.2c-0.2-3.3-1-7.4-2.3-12.2l4.9-1.2
		C-2831.8,3206.9-2830.9,3210.9-2830.3,3216.2z M-2856.7,3221.7c1.5-7.4,2.3-13.2,2.3-17.4l5.2,0.6c1.5,0.4,1.6,0.9,0.3,1.5
		c0,6.4-0.8,12.5-2.3,18.3L-2856.7,3221.7z M-2834.4,3263.1h-14.9v-25.1h4.6v21.2h10.3V3263.1z M-2826.6,3263.1h-4.6V3245h4.6
		V3263.1z M-2828.9,3242.4c-1.5,0-2.5-1.1-2.5-2.5c0-1.4,1-2.5,2.6-2.5c1.6,0,2.5,1.1,2.6,2.5
		C-2826.3,3241.3-2827.3,3242.4-2828.9,3242.4z M-2829.4,3227.8l-3.8-4.4c7-4.3,10.6-9.9,11-16.8h-7.6v-4.6h8.4l0.9-0.9l4.4,2
		l-0.6,1.5C-2816.8,3215.4-2821.1,3223.1-2829.4,3227.8z M-2805.3,3263.1h-4.6v-10.2c0-2.6-1-4.6-3.5-4.6c-1.8,0-3.1,1.3-3.6,2.7
		c-0.1,0.4-0.2,1-0.2,1.5v10.6h-4.6v-12.7c0-2.1,0-3.8-0.1-5.4h4l0.2,2.7h0.1c0.8-1.4,2.8-3.1,5.8-3.1c3.2,0,6.4,2,6.4,7.8V3263.1z
		 M-2785,3255.4h-12.1c0.1,3.3,2.7,4.7,5.6,4.7c2.1,0,3.6-0.3,5-0.8l0.7,3.2c-1.6,0.6-3.7,1.1-6.3,1.1c-5.9,0-9.3-3.6-9.3-9.1
		c0-5,3-9.7,8.8-9.7c5.9,0,7.8,4.8,7.8,8.8C-2784.9,3254.3-2785,3254.9-2785,3255.4z"/>
	<path id="XMLID_1068_" class="st3" d="M-2793,3247.7c-2.8,0-4,2.6-4.2,4.4h8C-2789.2,3250.5-2789.9,3247.7-2793,3247.7z"/>
</g>
</svg>
