<?xml version="1.0" encoding="utf-8"?>
<!-- Generator: Adobe Illustrator 19.0.0, SVG Export Plug-In . SVG Version: 6.00 Build 0)  -->
<svg version="1.1" id="Ebene_1" xmlns="http://www.w3.org/2000/svg" xmlns:xlink="http://www.w3.org/1999/xlink" x="0px" y="0px"
	 viewBox="-249 234 1201.6 364.5" style="enable-background:new -249 234 1201.6 364.5;" xml:space="preserve">
<style type="text/css">
	.st0{fill:#191919;}
	.st1{fill:none;}
	.st2{fill:#E4E4E3;stroke:#212122;stroke-width:5;stroke-miterlimit:10;}
	.st3{fill:#E4E4E4;}
	.st4{fill:#EAC720;}
	.st5{font-family:'JD-LCD-Rounded';}
	.st6{font-size:107.3764px;}
</style>
<polygon id="defaultgln" class="st0" points="449.9,568.6 816.7,568.6 922.1,464.3 922.1,374 817.8,269.9 571.6,269.9 589,254.3 
	824.2,254.3 937.5,367.6 937.5,470.9 823.1,584.3 449.9,584.3 "/>
<polygon id="defaultglmo" class="st0" points="571.6,269.9 450.2,269.9 450.2,254.3 589,254.3 "/>
<rect id="defaultgllm" x="252.9" y="311.2" class="st0" width="201.4" height="15.7"/>
<polygon id="defaultglmw" class="st0" points="445.8,269.9 -117.3,269.9 -158.6,311.2 -180.7,311.2 -123.8,254.3 445.8,254.3 "/>
<polygon id="defaultgllo" class="st0" points="449.9,311.2 525.8,311.2 589,254.3 595.2,269.9 532,326.7 449.8,326.8 "/>
<polygon id="defaultgllw" class="st0" points="252.9,326.8 -177.3,326.9 -177.4,311.2 252.9,311.2 "/>
<rect id="defaultglkm" x="248.5" y="568.6" class="st0" width="201.4" height="15.7"/>
<polygon id="defaultglkw" class="st0" points="248.5,584.3 -122.9,584.3 -237.3,470.9 -237.3,367.7 -180.7,311.2 -158.6,311.2 
	-221.6,374.2 -221.6,464.3 -116.3,568.6 248.5,568.6 "/>
<polygon id="gln" class="st1" points="450.8,568.6 817.6,568.6 923,464.3 923,374 818.7,269.9 572.5,269.9 589.9,254.3 825.1,254.3 
	938.4,367.6 938.4,470.9 824,584.3 450.8,584.3 "/>
<polygon id="glmo" class="st1" points="572.5,269.9 451.1,269.9 451.1,254.3 589.9,254.3 "/>
<rect id="gllm" x="253.8" y="311.2" class="st1" width="201.4" height="15.7"/>
<polygon id="glmw" class="st1" points="446.7,269.9 -116.4,269.9 -157.7,311.2 -179.8,311.2 -122.9,254.3 446.7,254.3 "/>
<polygon id="gllo" class="st1" points="450.8,311.2 526.7,311.2 589.9,254.3 596.1,269.9 532.9,326.7 450.7,326.8 "/>
<polygon id="gllw" class="st1" points="253.8,326.8 -176.4,326.9 -176.5,311.2 253.8,311.2 "/>
<rect id="glkm" x="249.4" y="568.6" class="st1" width="201.4" height="15.7"/>
<polygon id="glkw" class="st1" points="249.4,584.3 -122,584.3 -236.4,470.9 -236.4,367.7 -179.8,311.2 -157.7,311.2 -220.7,374.2 
	-220.7,464.3 -115.4,568.6 249.4,568.6 "/>
<circle id="sig5o" class="st2" cx="520.1" cy="574.2" r="19.3"/>
<circle id="sig5w" class="st2" cx="180.1" cy="574.2" r="19.3"/>
<circle id="sns20" class="st2" cx="250.1" cy="574.2" r="19.3"/>
<circle id="sns21" class="st2" cx="450.1" cy="574.2" r="19.3"/>
<circle id="sns22" class="st2" cx="931.3" cy="419.3" r="19.3"/>
<circle id="sns23" class="st2" cx="452.3" cy="259" r="19.3"/>
<circle id="sns25" class="st2" cx="-229.7" cy="415.7" r="19.3"/>
<circle id="sns26" class="st2" cx="452.3" cy="319.7" r="19.3"/>
<circle id="sns27" class="st2" cx="252.3" cy="319.7" r="19.3"/>
<g>
	<g>
		<path class="st3" d="M368.3,502.2L368.3,502.2c0.5-0.7,1-1.4,1.4-2l4.2-5.5h5.2l-6.3,7l7.3,10.1h-5.3l-4.9-7.6l-1.5,1.7v5.8H364
			v-25h4.3V502.2z"/>
		<path class="st3" d="M382.4,499.8c0-2,0-3.6-0.1-5.1h3.7l0.2,2.5h0.1c0.8-1.3,2.4-2.9,5.3-2.9c2.3,0,4,1.3,4.8,3.2h0.1
			c0.6-1,1.3-1.7,2.1-2.1c1-0.7,2-1,3.5-1c2.9,0,5.7,1.9,5.7,7.4v10.1h-4.2v-9.5c0-2.9-1-4.5-3.1-4.5c-1.5,0-2.6,1.1-3,2.3
			c-0.1,0.4-0.2,1-0.2,1.4v10.3h-4.2v-9.9c0-2.4-1-4.1-3-4.1c-1.6,0-2.7,1.3-3.1,2.5c-0.2,0.4-0.2,0.9-0.2,1.4v10.1h-4.2V499.8z"/>
		<path class="st3" d="M410.2,513.2l8.6-25.5h3l-8.6,25.5H410.2z"/>
		<path class="st3" d="M424.1,486.8h4.4V497h0.1c0.5-0.8,1.2-1.5,2.1-2c0.8-0.5,1.9-0.8,3-0.8c2.9,0,6,1.9,6,7.4v10.1h-4.3v-9.6
			c0-2.5-0.9-4.4-3.3-4.4c-1.7,0-2.9,1.1-3.3,2.4c-0.1,0.4-0.2,0.8-0.2,1.3v10.2h-4.4V486.8z"/>
	</g>
</g>
<g id="XMLID_101_">
	<path id="XMLID_235_" class="st0" d="M239.2,486.1c-0.6-0.5-0.8-1.1-0.8-1.8c0-0.6,0.2-1.1,0.7-1.7c0.5-0.6,1.1-0.8,1.8-0.8
		c0.6,0,1.1,0.2,1.7,0.7c0.6,0.6,0.8,1.2,0.8,1.8c0,0.7-0.2,1.3-0.7,1.8c-0.5,0.5-1.1,0.7-1.8,0.7
		C240.3,486.8,239.7,486.6,239.2,486.1z"/>
	<path id="XMLID_234_" class="st0" d="M239.2,492.8c-0.6-0.5-0.8-1.1-0.8-1.8c0-0.6,0.2-1.1,0.7-1.7c0.5-0.6,1.1-0.8,1.8-0.8
		c0.6,0,1.1,0.2,1.7,0.7c0.6,0.6,0.8,1.2,0.8,1.8c0,0.7-0.2,1.3-0.7,1.8c-0.5,0.5-1.1,0.7-1.8,0.7
		C240.3,493.5,239.7,493.3,239.2,492.8z"/>
	<path id="XMLID_233_" class="st0" d="M239.2,499.5c-0.6-0.5-0.8-1.1-0.8-1.8c0-0.6,0.2-1.1,0.7-1.7c0.5-0.6,1.1-0.8,1.8-0.8
		c0.6,0,1.1,0.2,1.7,0.7c0.6,0.6,0.8,1.2,0.8,1.8c0,0.7-0.2,1.3-0.7,1.8c-0.5,0.5-1.1,0.7-1.8,0.7
		C240.3,500.2,239.7,500,239.2,499.5z"/>
	<path id="XMLID_232_" class="st0" d="M239.2,506.2c-0.6-0.5-0.8-1.1-0.8-1.8c0-0.6,0.2-1.1,0.7-1.7c0.5-0.6,1.1-0.8,1.8-0.8
		c0.6,0,1.1,0.2,1.7,0.7c0.6,0.6,0.8,1.2,0.8,1.8c0,0.7-0.2,1.3-0.7,1.8c-0.5,0.5-1.1,0.7-1.8,0.7
		C240.3,507,239.7,506.7,239.2,506.2z"/>
	<path id="XMLID_231_" class="st0" d="M239.2,512.9c-0.6-0.5-0.8-1.1-0.8-1.8c0-0.6,0.2-1.1,0.7-1.7c0.5-0.6,1.1-0.8,1.8-0.8
		c0.6,0,1.1,0.2,1.7,0.7c0.6,0.6,0.8,1.2,0.8,1.8c0,0.7-0.2,1.3-0.7,1.8c-0.5,0.5-1.1,0.7-1.8,0.7
		C240.3,513.7,239.7,513.4,239.2,512.9z"/>
	<path id="XMLID_230_" class="st0" d="M245.9,479.4c-0.6-0.5-0.8-1.1-0.8-1.8c0-0.6,0.2-1.1,0.7-1.7c0.5-0.6,1.1-0.8,1.8-0.8
		c0.6,0,1.1,0.2,1.7,0.7c0.6,0.6,0.8,1.2,0.8,1.8c0,0.7-0.2,1.3-0.7,1.8c-0.5,0.5-1.1,0.7-1.8,0.7
		C247,480.1,246.4,479.9,245.9,479.4z"/>
	<path id="XMLID_229_" class="st0" d="M245.9,519.6c-0.6-0.5-0.8-1.1-0.8-1.8c0-0.6,0.2-1.1,0.7-1.7c0.5-0.6,1.1-0.8,1.8-0.8
		c0.6,0,1.1,0.2,1.7,0.7c0.6,0.6,0.8,1.2,0.8,1.8c0,0.7-0.2,1.3-0.7,1.8c-0.5,0.5-1.1,0.7-1.8,0.7
		C247,520.4,246.4,520.1,245.9,519.6z"/>
	<path id="XMLID_228_" class="st0" d="M252.6,479.4c-0.6-0.5-0.8-1.1-0.8-1.8c0-0.6,0.2-1.1,0.7-1.7c0.5-0.6,1.1-0.8,1.8-0.8
		c0.6,0,1.1,0.2,1.7,0.7c0.6,0.6,0.8,1.2,0.8,1.8c0,0.7-0.2,1.3-0.7,1.8c-0.5,0.5-1.1,0.7-1.8,0.7
		C253.7,480.1,253.1,479.9,252.6,479.4z"/>
	<path id="XMLID_202_" class="st0" d="M252.6,519.6c-0.6-0.5-0.8-1.1-0.8-1.8c0-0.6,0.2-1.1,0.7-1.7c0.5-0.6,1.1-0.8,1.8-0.8
		c0.6,0,1.1,0.2,1.7,0.7c0.6,0.6,0.8,1.2,0.8,1.8c0,0.7-0.2,1.3-0.7,1.8c-0.5,0.5-1.1,0.7-1.8,0.7
		C253.7,520.4,253.1,520.1,252.6,519.6z"/>
	<path id="XMLID_201_" class="st0" d="M259.3,479.4c-0.6-0.5-0.8-1.1-0.8-1.8c0-0.6,0.2-1.1,0.7-1.7c0.5-0.6,1.1-0.8,1.8-0.8
		c0.6,0,1.1,0.2,1.7,0.7c0.6,0.6,0.8,1.2,0.8,1.8c0,0.7-0.2,1.3-0.7,1.8c-0.5,0.5-1.1,0.7-1.8,0.7
		C260.4,480.1,259.8,479.9,259.3,479.4z"/>
	<path id="XMLID_200_" class="st0" d="M259.3,519.6c-0.6-0.5-0.8-1.1-0.8-1.8c0-0.6,0.2-1.1,0.7-1.7c0.5-0.6,1.1-0.8,1.8-0.8
		c0.6,0,1.1,0.2,1.7,0.7c0.6,0.6,0.8,1.2,0.8,1.8c0,0.7-0.2,1.3-0.7,1.8c-0.5,0.5-1.1,0.7-1.8,0.7
		C260.4,520.4,259.8,520.1,259.3,519.6z"/>
	<path id="XMLID_199_" class="st0" d="M266,486.1c-0.6-0.5-0.8-1.1-0.8-1.8c0-0.6,0.2-1.1,0.7-1.7c0.5-0.6,1.1-0.8,1.8-0.8
		c0.6,0,1.1,0.2,1.7,0.7c0.6,0.6,0.8,1.2,0.8,1.8c0,0.7-0.2,1.3-0.7,1.8c-0.5,0.5-1.1,0.7-1.8,0.7
		C267.1,486.8,266.6,486.6,266,486.1z"/>
	<path id="XMLID_198_" class="st0" d="M266,492.8c-0.6-0.5-0.8-1.1-0.8-1.8c0-0.6,0.2-1.1,0.7-1.7c0.5-0.6,1.1-0.8,1.8-0.8
		c0.6,0,1.1,0.2,1.7,0.7c0.6,0.6,0.8,1.2,0.8,1.8c0,0.7-0.2,1.3-0.7,1.8c-0.5,0.5-1.1,0.7-1.8,0.7
		C267.1,493.5,266.6,493.3,266,492.8z"/>
	<path id="XMLID_197_" class="st0" d="M266,499.5c-0.6-0.5-0.8-1.1-0.8-1.8c0-0.6,0.2-1.1,0.7-1.7c0.5-0.6,1.1-0.8,1.8-0.8
		c0.6,0,1.1,0.2,1.7,0.7c0.6,0.6,0.8,1.2,0.8,1.8c0,0.7-0.2,1.3-0.7,1.8c-0.5,0.5-1.1,0.7-1.8,0.7C267.1,500.2,266.6,500,266,499.5z
		"/>
	<path id="XMLID_196_" class="st0" d="M266,506.2c-0.6-0.5-0.8-1.1-0.8-1.8c0-0.6,0.2-1.1,0.7-1.7c0.5-0.6,1.1-0.8,1.8-0.8
		c0.6,0,1.1,0.2,1.7,0.7c0.6,0.6,0.8,1.2,0.8,1.8c0,0.7-0.2,1.3-0.7,1.8c-0.5,0.5-1.1,0.7-1.8,0.7C267.1,507,266.6,506.7,266,506.2z
		"/>
	<path id="XMLID_195_" class="st0" d="M266,512.9c-0.6-0.5-0.8-1.1-0.8-1.8c0-0.6,0.2-1.1,0.7-1.7c0.5-0.6,1.1-0.8,1.8-0.8
		c0.6,0,1.1,0.2,1.7,0.7c0.6,0.6,0.8,1.2,0.8,1.8c0,0.7-0.2,1.3-0.7,1.8c-0.5,0.5-1.1,0.7-1.8,0.7
		C267.1,513.7,266.6,513.4,266,512.9z"/>
	<path id="XMLID_194_" class="st0" d="M286,479.4c-0.6-0.5-0.8-1.1-0.8-1.8c0-0.6,0.2-1.1,0.7-1.7c0.5-0.6,1.1-0.8,1.8-0.8
		c0.6,0,1.1,0.2,1.7,0.7c0.6,0.6,0.8,1.2,0.8,1.8c0,0.7-0.2,1.3-0.7,1.8c-0.5,0.5-1.1,0.7-1.8,0.7
		C287.1,480.1,286.6,479.9,286,479.4z"/>
	<path id="XMLID_193_" class="st0" d="M326.2,479.4c-0.6-0.5-0.8-1.1-0.8-1.8c0-0.6,0.2-1.1,0.7-1.7c0.5-0.6,1.1-0.8,1.8-0.8
		c0.6,0,1.1,0.2,1.7,0.7c0.6,0.6,0.8,1.2,0.8,1.8c0,0.7-0.2,1.3-0.7,1.8c-0.5,0.5-1.1,0.7-1.8,0.7
		C327.3,480.1,326.8,479.9,326.2,479.4z"/>
	<path id="XMLID_192_" class="st0" d="M239.2,479.4c-0.6-0.5-0.8-1.1-0.8-1.8c0-0.6,0.2-1.1,0.7-1.7c0.5-0.6,1.1-0.8,1.8-0.8
		c0.6,0,1.1,0.2,1.7,0.7c0.6,0.6,0.8,1.2,0.8,1.8c0,0.7-0.2,1.3-0.7,1.8c-0.5,0.5-1.1,0.7-1.8,0.7
		C240.3,480.1,239.7,479.9,239.2,479.4z"/>
	<path id="XMLID_191_" class="st0" d="M266,479.4c-0.6-0.5-0.8-1.1-0.8-1.8c0-0.6,0.2-1.1,0.7-1.7c0.5-0.6,1.1-0.8,1.8-0.8
		c0.6,0,1.1,0.2,1.7,0.7c0.6,0.6,0.8,1.2,0.8,1.8c0,0.7-0.2,1.3-0.7,1.8c-0.5,0.5-1.1,0.7-1.8,0.7
		C267.1,480.1,266.6,479.9,266,479.4z"/>
	<path id="XMLID_190_" class="st0" d="M239.2,519.6c-0.6-0.5-0.8-1.1-0.8-1.8c0-0.6,0.2-1.1,0.7-1.7c0.5-0.6,1.1-0.8,1.8-0.8
		c0.6,0,1.1,0.2,1.7,0.7c0.6,0.6,0.8,1.2,0.8,1.8c0,0.7-0.2,1.3-0.7,1.8c-0.5,0.5-1.1,0.7-1.8,0.7
		C240.3,520.4,239.7,520.1,239.2,519.6z"/>
	<path id="XMLID_189_" class="st0" d="M266,519.6c-0.6-0.5-0.8-1.1-0.8-1.8c0-0.6,0.2-1.1,0.7-1.7c0.5-0.6,1.1-0.8,1.8-0.8
		c0.6,0,1.1,0.2,1.7,0.7c0.6,0.6,0.8,1.2,0.8,1.8c0,0.7-0.2,1.3-0.7,1.8c-0.5,0.5-1.1,0.7-1.8,0.7
		C267.1,520.4,266.6,520.1,266,519.6z"/>
	<path id="XMLID_188_" class="st0" d="M245.9,486.1c-0.6-0.5-0.8-1.1-0.8-1.8c0-0.6,0.2-1.1,0.7-1.7c0.5-0.6,1.1-0.8,1.8-0.8
		c0.6,0,1.1,0.2,1.7,0.7c0.6,0.6,0.8,1.2,0.8,1.8c0,0.7-0.2,1.3-0.7,1.8c-0.5,0.5-1.1,0.7-1.8,0.7
		C247,486.8,246.4,486.6,245.9,486.1z"/>
	<path id="XMLID_187_" class="st0" d="M245.9,492.8c-0.6-0.5-0.8-1.1-0.8-1.8c0-0.6,0.2-1.1,0.7-1.7c0.5-0.6,1.1-0.8,1.8-0.8
		c0.6,0,1.1,0.2,1.7,0.7c0.6,0.6,0.8,1.2,0.8,1.8c0,0.7-0.2,1.3-0.7,1.8c-0.5,0.5-1.1,0.7-1.8,0.7
		C247,493.5,246.4,493.3,245.9,492.8z"/>
	<path id="XMLID_186_" class="st0" d="M245.9,499.5c-0.6-0.5-0.8-1.1-0.8-1.8c0-0.6,0.2-1.1,0.7-1.7c0.5-0.6,1.1-0.8,1.8-0.8
		c0.6,0,1.1,0.2,1.7,0.7c0.6,0.6,0.8,1.2,0.8,1.8c0,0.7-0.2,1.3-0.7,1.8c-0.5,0.5-1.1,0.7-1.8,0.7C247,500.2,246.4,500,245.9,499.5z
		"/>
	<path id="XMLID_185_" class="st0" d="M245.9,506.2c-0.6-0.5-0.8-1.1-0.8-1.8c0-0.6,0.2-1.1,0.7-1.7c0.5-0.6,1.1-0.8,1.8-0.8
		c0.6,0,1.1,0.2,1.7,0.7c0.6,0.6,0.8,1.2,0.8,1.8c0,0.7-0.2,1.3-0.7,1.8c-0.5,0.5-1.1,0.7-1.8,0.7C247,507,246.4,506.7,245.9,506.2z
		"/>
	<path id="XMLID_184_" class="st0" d="M245.9,512.9c-0.6-0.5-0.8-1.1-0.8-1.8c0-0.6,0.2-1.1,0.7-1.7c0.5-0.6,1.1-0.8,1.8-0.8
		c0.6,0,1.1,0.2,1.7,0.7c0.6,0.6,0.8,1.2,0.8,1.8c0,0.7-0.2,1.3-0.7,1.8c-0.5,0.5-1.1,0.7-1.8,0.7
		C247,513.7,246.4,513.4,245.9,512.9z"/>
	<path id="XMLID_183_" class="st0" d="M252.6,486.1c-0.6-0.5-0.8-1.1-0.8-1.8c0-0.6,0.2-1.1,0.7-1.7c0.5-0.6,1.1-0.8,1.8-0.8
		c0.6,0,1.1,0.2,1.7,0.7c0.6,0.6,0.8,1.2,0.8,1.8c0,0.7-0.2,1.3-0.7,1.8c-0.5,0.5-1.1,0.7-1.8,0.7
		C253.7,486.8,253.1,486.6,252.6,486.1z"/>
	<path id="XMLID_182_" class="st0" d="M252.6,492.8c-0.6-0.5-0.8-1.1-0.8-1.8c0-0.6,0.2-1.1,0.7-1.7c0.5-0.6,1.1-0.8,1.8-0.8
		c0.6,0,1.1,0.2,1.7,0.7c0.6,0.6,0.8,1.2,0.8,1.8c0,0.7-0.2,1.3-0.7,1.8c-0.5,0.5-1.1,0.7-1.8,0.7
		C253.7,493.5,253.1,493.3,252.6,492.8z"/>
	<path id="XMLID_181_" class="st0" d="M252.6,499.5c-0.6-0.5-0.8-1.1-0.8-1.8c0-0.6,0.2-1.1,0.7-1.7c0.5-0.6,1.1-0.8,1.8-0.8
		c0.6,0,1.1,0.2,1.7,0.7c0.6,0.6,0.8,1.2,0.8,1.8c0,0.7-0.2,1.3-0.7,1.8c-0.5,0.5-1.1,0.7-1.8,0.7
		C253.7,500.2,253.1,500,252.6,499.5z"/>
	<path id="XMLID_180_" class="st0" d="M252.6,506.2c-0.6-0.5-0.8-1.1-0.8-1.8c0-0.6,0.2-1.1,0.7-1.7c0.5-0.6,1.1-0.8,1.8-0.8
		c0.6,0,1.1,0.2,1.7,0.7c0.6,0.6,0.8,1.2,0.8,1.8c0,0.7-0.2,1.3-0.7,1.8c-0.5,0.5-1.1,0.7-1.8,0.7
		C253.7,507,253.1,506.7,252.6,506.2z"/>
	<path id="XMLID_179_" class="st0" d="M252.6,512.9c-0.6-0.5-0.8-1.1-0.8-1.8c0-0.6,0.2-1.1,0.7-1.7c0.5-0.6,1.1-0.8,1.8-0.8
		c0.6,0,1.1,0.2,1.7,0.7c0.6,0.6,0.8,1.2,0.8,1.8c0,0.7-0.2,1.3-0.7,1.8c-0.5,0.5-1.1,0.7-1.8,0.7
		C253.7,513.7,253.1,513.4,252.6,512.9z"/>
	<path id="XMLID_178_" class="st0" d="M259.3,486.1c-0.6-0.5-0.8-1.1-0.8-1.8c0-0.6,0.2-1.1,0.7-1.7c0.5-0.6,1.1-0.8,1.8-0.8
		c0.6,0,1.1,0.2,1.7,0.7c0.6,0.6,0.8,1.2,0.8,1.8c0,0.7-0.2,1.3-0.7,1.8c-0.5,0.5-1.1,0.7-1.8,0.7
		C260.4,486.8,259.8,486.6,259.3,486.1z"/>
	<path id="XMLID_177_" class="st0" d="M259.3,492.8c-0.6-0.5-0.8-1.1-0.8-1.8c0-0.6,0.2-1.1,0.7-1.7c0.5-0.6,1.1-0.8,1.8-0.8
		c0.6,0,1.1,0.2,1.7,0.7c0.6,0.6,0.8,1.2,0.8,1.8c0,0.7-0.2,1.3-0.7,1.8c-0.5,0.5-1.1,0.7-1.8,0.7
		C260.4,493.5,259.8,493.3,259.3,492.8z"/>
	<path id="XMLID_176_" class="st0" d="M259.3,499.5c-0.6-0.5-0.8-1.1-0.8-1.8c0-0.6,0.2-1.1,0.7-1.7c0.5-0.6,1.1-0.8,1.8-0.8
		c0.6,0,1.1,0.2,1.7,0.7c0.6,0.6,0.8,1.2,0.8,1.8c0,0.7-0.2,1.3-0.7,1.8c-0.5,0.5-1.1,0.7-1.8,0.7
		C260.4,500.2,259.8,500,259.3,499.5z"/>
	<path id="XMLID_175_" class="st0" d="M259.3,506.2c-0.6-0.5-0.8-1.1-0.8-1.8c0-0.6,0.2-1.1,0.7-1.7c0.5-0.6,1.1-0.8,1.8-0.8
		c0.6,0,1.1,0.2,1.7,0.7c0.6,0.6,0.8,1.2,0.8,1.8c0,0.7-0.2,1.3-0.7,1.8c-0.5,0.5-1.1,0.7-1.8,0.7
		C260.4,507,259.8,506.7,259.3,506.2z"/>
	<path id="XMLID_174_" class="st0" d="M259.3,512.9c-0.6-0.5-0.8-1.1-0.8-1.8c0-0.6,0.2-1.1,0.7-1.7c0.5-0.6,1.1-0.8,1.8-0.8
		c0.6,0,1.1,0.2,1.7,0.7c0.6,0.6,0.8,1.2,0.8,1.8c0,0.7-0.2,1.3-0.7,1.8c-0.5,0.5-1.1,0.7-1.8,0.7
		C260.4,513.7,259.8,513.4,259.3,512.9z"/>
	<path id="XMLID_173_" class="st0" d="M279.3,486.1c-0.6-0.5-0.8-1.1-0.8-1.8c0-0.6,0.2-1.1,0.7-1.7c0.5-0.6,1.1-0.8,1.8-0.8
		c0.6,0,1.1,0.2,1.7,0.7c0.6,0.6,0.8,1.2,0.8,1.8c0,0.7-0.2,1.3-0.7,1.8c-0.5,0.5-1.1,0.7-1.8,0.7
		C280.4,486.8,279.9,486.6,279.3,486.1z"/>
	<path id="XMLID_172_" class="st0" d="M279.3,492.8c-0.6-0.5-0.8-1.1-0.8-1.8c0-0.6,0.2-1.1,0.7-1.7c0.5-0.6,1.1-0.8,1.8-0.8
		c0.6,0,1.1,0.2,1.7,0.7c0.6,0.6,0.8,1.2,0.8,1.8c0,0.7-0.2,1.3-0.7,1.8c-0.5,0.5-1.1,0.7-1.8,0.7
		C280.4,493.5,279.9,493.3,279.3,492.8z"/>
	<path id="XMLID_170_" class="st0" d="M279.3,499.5c-0.6-0.5-0.8-1.1-0.8-1.8c0-0.6,0.2-1.1,0.7-1.7c0.5-0.6,1.1-0.8,1.8-0.8
		c0.6,0,1.1,0.2,1.7,0.7c0.6,0.6,0.8,1.2,0.8,1.8c0,0.7-0.2,1.3-0.7,1.8c-0.5,0.5-1.1,0.7-1.8,0.7
		C280.4,500.2,279.9,500,279.3,499.5z"/>
	<path id="XMLID_169_" class="st0" d="M279.3,506.2c-0.6-0.5-0.8-1.1-0.8-1.8c0-0.6,0.2-1.1,0.7-1.7c0.5-0.6,1.1-0.8,1.8-0.8
		c0.6,0,1.1,0.2,1.7,0.7c0.6,0.6,0.8,1.2,0.8,1.8c0,0.7-0.2,1.3-0.7,1.8c-0.5,0.5-1.1,0.7-1.8,0.7
		C280.4,507,279.9,506.7,279.3,506.2z"/>
	<path id="XMLID_167_" class="st0" d="M279.3,512.9c-0.6-0.5-0.8-1.1-0.8-1.8c0-0.6,0.2-1.1,0.7-1.7c0.5-0.6,1.1-0.8,1.8-0.8
		c0.6,0,1.1,0.2,1.7,0.7c0.6,0.6,0.8,1.2,0.8,1.8c0,0.7-0.2,1.3-0.7,1.8c-0.5,0.5-1.1,0.7-1.8,0.7
		C280.4,513.7,279.9,513.4,279.3,512.9z"/>
	<path id="XMLID_166_" class="st0" d="M286,519.6c-0.6-0.5-0.8-1.1-0.8-1.8c0-0.6,0.2-1.1,0.7-1.7c0.5-0.6,1.1-0.8,1.8-0.8
		c0.6,0,1.1,0.2,1.7,0.7c0.6,0.6,0.8,1.2,0.8,1.8c0,0.7-0.2,1.3-0.7,1.8c-0.5,0.5-1.1,0.7-1.8,0.7
		C287.1,520.4,286.6,520.1,286,519.6z"/>
	<path id="XMLID_165_" class="st0" d="M292.7,479.4c-0.6-0.5-0.8-1.1-0.8-1.8c0-0.6,0.2-1.1,0.7-1.7c0.5-0.6,1.1-0.8,1.8-0.8
		c0.6,0,1.1,0.2,1.7,0.7c0.6,0.6,0.8,1.2,0.8,1.8c0,0.7-0.2,1.3-0.7,1.8c-0.5,0.5-1.1,0.7-1.8,0.7
		C293.9,480.1,293.3,479.9,292.7,479.4z"/>
	<path id="XMLID_164_" class="st0" d="M292.7,519.6c-0.6-0.5-0.8-1.1-0.8-1.8c0-0.6,0.2-1.1,0.7-1.7c0.5-0.6,1.1-0.8,1.8-0.8
		c0.6,0,1.1,0.2,1.7,0.7c0.6,0.6,0.8,1.2,0.8,1.8c0,0.7-0.2,1.3-0.7,1.8c-0.5,0.5-1.1,0.7-1.8,0.7
		C293.9,520.4,293.3,520.1,292.7,519.6z"/>
	<path id="XMLID_163_" class="st0" d="M299.5,479.4c-0.6-0.5-0.8-1.1-0.8-1.8c0-0.6,0.2-1.1,0.7-1.7c0.5-0.6,1.1-0.8,1.8-0.8
		c0.6,0,1.1,0.2,1.7,0.7c0.6,0.6,0.8,1.2,0.8,1.8c0,0.7-0.2,1.3-0.7,1.8c-0.5,0.5-1.1,0.7-1.8,0.7
		C300.6,480.1,300,479.9,299.5,479.4z"/>
	<path id="XMLID_162_" class="st0" d="M299.5,519.6c-0.6-0.5-0.8-1.1-0.8-1.8c0-0.6,0.2-1.1,0.7-1.7c0.5-0.6,1.1-0.8,1.8-0.8
		c0.6,0,1.1,0.2,1.7,0.7c0.6,0.6,0.8,1.2,0.8,1.8c0,0.7-0.2,1.3-0.7,1.8c-0.5,0.5-1.1,0.7-1.8,0.7
		C300.6,520.4,300,520.1,299.5,519.6z"/>
	<path id="XMLID_161_" class="st0" d="M306.2,486.1c-0.6-0.5-0.8-1.1-0.8-1.8c0-0.6,0.2-1.1,0.7-1.7c0.5-0.6,1.1-0.8,1.8-0.8
		c0.6,0,1.1,0.2,1.7,0.7c0.6,0.6,0.8,1.2,0.8,1.8c0,0.7-0.2,1.3-0.7,1.8c-0.5,0.5-1.1,0.7-1.8,0.7
		C307.3,486.8,306.7,486.6,306.2,486.1z"/>
	<path id="XMLID_160_" class="st0" d="M306.2,492.8c-0.6-0.5-0.8-1.1-0.8-1.8c0-0.6,0.2-1.1,0.7-1.7c0.5-0.6,1.1-0.8,1.8-0.8
		c0.6,0,1.1,0.2,1.7,0.7c0.6,0.6,0.8,1.2,0.8,1.8c0,0.7-0.2,1.3-0.7,1.8c-0.5,0.5-1.1,0.7-1.8,0.7
		C307.3,493.5,306.7,493.3,306.2,492.8z"/>
	<path id="XMLID_159_" class="st0" d="M306.2,499.5c-0.6-0.5-0.8-1.1-0.8-1.8c0-0.6,0.2-1.1,0.7-1.7c0.5-0.6,1.1-0.8,1.8-0.8
		c0.6,0,1.1,0.2,1.7,0.7c0.6,0.6,0.8,1.2,0.8,1.8c0,0.7-0.2,1.3-0.7,1.8c-0.5,0.5-1.1,0.7-1.8,0.7
		C307.3,500.2,306.7,500,306.2,499.5z"/>
	<path id="XMLID_158_" class="st0" d="M306.2,506.2c-0.6-0.5-0.8-1.1-0.8-1.8c0-0.6,0.2-1.1,0.7-1.7c0.5-0.6,1.1-0.8,1.8-0.8
		c0.6,0,1.1,0.2,1.7,0.7c0.6,0.6,0.8,1.2,0.8,1.8c0,0.7-0.2,1.3-0.7,1.8c-0.5,0.5-1.1,0.7-1.8,0.7
		C307.3,507,306.7,506.7,306.2,506.2z"/>
	<path id="XMLID_157_" class="st0" d="M306.2,512.9c-0.6-0.5-0.8-1.1-0.8-1.8c0-0.6,0.2-1.1,0.7-1.7c0.5-0.6,1.1-0.8,1.8-0.8
		c0.6,0,1.1,0.2,1.7,0.7c0.6,0.6,0.8,1.2,0.8,1.8c0,0.7-0.2,1.3-0.7,1.8c-0.5,0.5-1.1,0.7-1.8,0.7
		C307.3,513.7,306.7,513.4,306.2,512.9z"/>
	<path id="XMLID_156_" class="st0" d="M279.3,479.4c-0.6-0.5-0.8-1.1-0.8-1.8c0-0.6,0.2-1.1,0.7-1.7c0.5-0.6,1.1-0.8,1.8-0.8
		c0.6,0,1.1,0.2,1.7,0.7c0.6,0.6,0.8,1.2,0.8,1.8c0,0.7-0.2,1.3-0.7,1.8c-0.5,0.5-1.1,0.7-1.8,0.7
		C280.4,480.1,279.9,479.9,279.3,479.4z"/>
	<path id="XMLID_155_" class="st0" d="M306.2,479.4c-0.6-0.5-0.8-1.1-0.8-1.8c0-0.6,0.2-1.1,0.7-1.7c0.5-0.6,1.1-0.8,1.8-0.8
		c0.6,0,1.1,0.2,1.7,0.7c0.6,0.6,0.8,1.2,0.8,1.8c0,0.7-0.2,1.3-0.7,1.8c-0.5,0.5-1.1,0.7-1.8,0.7
		C307.3,480.1,306.7,479.9,306.2,479.4z"/>
	<path id="XMLID_154_" class="st0" d="M279.3,519.6c-0.6-0.5-0.8-1.1-0.8-1.8c0-0.6,0.2-1.1,0.7-1.7c0.5-0.6,1.1-0.8,1.8-0.8
		c0.6,0,1.1,0.2,1.7,0.7c0.6,0.6,0.8,1.2,0.8,1.8c0,0.7-0.2,1.3-0.7,1.8c-0.5,0.5-1.1,0.7-1.8,0.7
		C280.4,520.4,279.9,520.1,279.3,519.6z"/>
	<path id="XMLID_153_" class="st0" d="M306.2,519.6c-0.6-0.5-0.8-1.1-0.8-1.8c0-0.6,0.2-1.1,0.7-1.7c0.5-0.6,1.1-0.8,1.8-0.8
		c0.6,0,1.1,0.2,1.7,0.7c0.6,0.6,0.8,1.2,0.8,1.8c0,0.7-0.2,1.3-0.7,1.8c-0.5,0.5-1.1,0.7-1.8,0.7
		C307.3,520.4,306.7,520.1,306.2,519.6z"/>
	<path id="XMLID_152_" class="st0" d="M286,486.1c-0.6-0.5-0.8-1.1-0.8-1.8c0-0.6,0.2-1.1,0.7-1.7c0.5-0.6,1.1-0.8,1.8-0.8
		c0.6,0,1.1,0.2,1.7,0.7c0.6,0.6,0.8,1.2,0.8,1.8c0,0.7-0.2,1.3-0.7,1.8c-0.5,0.5-1.1,0.7-1.8,0.7
		C287.1,486.8,286.6,486.6,286,486.1z"/>
	<path id="XMLID_151_" class="st0" d="M286,492.8c-0.6-0.5-0.8-1.1-0.8-1.8c0-0.6,0.2-1.1,0.7-1.7c0.5-0.6,1.1-0.8,1.8-0.8
		c0.6,0,1.1,0.2,1.7,0.7c0.6,0.6,0.8,1.2,0.8,1.8c0,0.7-0.2,1.3-0.7,1.8c-0.5,0.5-1.1,0.7-1.8,0.7
		C287.1,493.5,286.6,493.3,286,492.8z"/>
	<path id="XMLID_150_" class="st0" d="M286,499.5c-0.6-0.5-0.8-1.1-0.8-1.8c0-0.6,0.2-1.1,0.7-1.7c0.5-0.6,1.1-0.8,1.8-0.8
		c0.6,0,1.1,0.2,1.7,0.7c0.6,0.6,0.8,1.2,0.8,1.8c0,0.7-0.2,1.3-0.7,1.8c-0.5,0.5-1.1,0.7-1.8,0.7C287.1,500.2,286.6,500,286,499.5z
		"/>
	<path id="XMLID_149_" class="st0" d="M286,506.2c-0.6-0.5-0.8-1.1-0.8-1.8c0-0.6,0.2-1.1,0.7-1.7c0.5-0.6,1.1-0.8,1.8-0.8
		c0.6,0,1.1,0.2,1.7,0.7c0.6,0.6,0.8,1.2,0.8,1.8c0,0.7-0.2,1.3-0.7,1.8c-0.5,0.5-1.1,0.7-1.8,0.7C287.1,507,286.6,506.7,286,506.2z
		"/>
	<path id="XMLID_148_" class="st0" d="M286,512.9c-0.6-0.5-0.8-1.1-0.8-1.8c0-0.6,0.2-1.1,0.7-1.7c0.5-0.6,1.1-0.8,1.8-0.8
		c0.6,0,1.1,0.2,1.7,0.7c0.6,0.6,0.8,1.2,0.8,1.8c0,0.7-0.2,1.3-0.7,1.8c-0.5,0.5-1.1,0.7-1.8,0.7
		C287.1,513.7,286.6,513.4,286,512.9z"/>
	<path id="XMLID_146_" class="st0" d="M292.7,486.1c-0.6-0.5-0.8-1.1-0.8-1.8c0-0.6,0.2-1.1,0.7-1.7c0.5-0.6,1.1-0.8,1.8-0.8
		c0.6,0,1.1,0.2,1.7,0.7c0.6,0.6,0.8,1.2,0.8,1.8c0,0.7-0.2,1.3-0.7,1.8c-0.5,0.5-1.1,0.7-1.8,0.7
		C293.9,486.8,293.3,486.6,292.7,486.1z"/>
	<path id="XMLID_145_" class="st0" d="M292.7,492.8c-0.6-0.5-0.8-1.1-0.8-1.8c0-0.6,0.2-1.1,0.7-1.7c0.5-0.6,1.1-0.8,1.8-0.8
		c0.6,0,1.1,0.2,1.7,0.7c0.6,0.6,0.8,1.2,0.8,1.8c0,0.7-0.2,1.3-0.7,1.8c-0.5,0.5-1.1,0.7-1.8,0.7
		C293.9,493.5,293.3,493.3,292.7,492.8z"/>
	<path id="XMLID_144_" class="st0" d="M292.7,499.5c-0.6-0.5-0.8-1.1-0.8-1.8c0-0.6,0.2-1.1,0.7-1.7c0.5-0.6,1.1-0.8,1.8-0.8
		c0.6,0,1.1,0.2,1.7,0.7c0.6,0.6,0.8,1.2,0.8,1.8c0,0.7-0.2,1.3-0.7,1.8c-0.5,0.5-1.1,0.7-1.8,0.7
		C293.9,500.2,293.3,500,292.7,499.5z"/>
	<path id="XMLID_143_" class="st0" d="M292.7,506.2c-0.6-0.5-0.8-1.1-0.8-1.8c0-0.6,0.2-1.1,0.7-1.7c0.5-0.6,1.1-0.8,1.8-0.8
		c0.6,0,1.1,0.2,1.7,0.7c0.6,0.6,0.8,1.2,0.8,1.8c0,0.7-0.2,1.3-0.7,1.8c-0.5,0.5-1.1,0.7-1.8,0.7
		C293.9,507,293.3,506.7,292.7,506.2z"/>
	<path id="XMLID_142_" class="st0" d="M292.7,512.9c-0.6-0.5-0.8-1.1-0.8-1.8c0-0.6,0.2-1.1,0.7-1.7c0.5-0.6,1.1-0.8,1.8-0.8
		c0.6,0,1.1,0.2,1.7,0.7c0.6,0.6,0.8,1.2,0.8,1.8c0,0.7-0.2,1.3-0.7,1.8c-0.5,0.5-1.1,0.7-1.8,0.7
		C293.9,513.7,293.3,513.4,292.7,512.9z"/>
	<path id="XMLID_141_" class="st0" d="M299.5,486.1c-0.6-0.5-0.8-1.1-0.8-1.8c0-0.6,0.2-1.1,0.7-1.7c0.5-0.6,1.1-0.8,1.8-0.8
		c0.6,0,1.1,0.2,1.7,0.7c0.6,0.6,0.8,1.2,0.8,1.8c0,0.7-0.2,1.3-0.7,1.8c-0.5,0.5-1.1,0.7-1.8,0.7
		C300.6,486.8,300,486.6,299.5,486.1z"/>
	<path id="XMLID_140_" class="st0" d="M299.5,492.8c-0.6-0.5-0.8-1.1-0.8-1.8c0-0.6,0.2-1.1,0.7-1.7c0.5-0.6,1.1-0.8,1.8-0.8
		c0.6,0,1.1,0.2,1.7,0.7c0.6,0.6,0.8,1.2,0.8,1.8c0,0.7-0.2,1.3-0.7,1.8c-0.5,0.5-1.1,0.7-1.8,0.7
		C300.6,493.5,300,493.3,299.5,492.8z"/>
	<path id="XMLID_139_" class="st0" d="M299.5,499.5c-0.6-0.5-0.8-1.1-0.8-1.8c0-0.6,0.2-1.1,0.7-1.7c0.5-0.6,1.1-0.8,1.8-0.8
		c0.6,0,1.1,0.2,1.7,0.7c0.6,0.6,0.8,1.2,0.8,1.8c0,0.7-0.2,1.3-0.7,1.8c-0.5,0.5-1.1,0.7-1.8,0.7C300.6,500.2,300,500,299.5,499.5z
		"/>
	<path id="XMLID_138_" class="st0" d="M299.5,506.2c-0.6-0.5-0.8-1.1-0.8-1.8c0-0.6,0.2-1.1,0.7-1.7c0.5-0.6,1.1-0.8,1.8-0.8
		c0.6,0,1.1,0.2,1.7,0.7c0.6,0.6,0.8,1.2,0.8,1.8c0,0.7-0.2,1.3-0.7,1.8c-0.5,0.5-1.1,0.7-1.8,0.7C300.6,507,300,506.7,299.5,506.2z
		"/>
	<path id="XMLID_137_" class="st0" d="M299.5,512.9c-0.6-0.5-0.8-1.1-0.8-1.8c0-0.6,0.2-1.1,0.7-1.7c0.5-0.6,1.1-0.8,1.8-0.8
		c0.6,0,1.1,0.2,1.7,0.7c0.6,0.6,0.8,1.2,0.8,1.8c0,0.7-0.2,1.3-0.7,1.8c-0.5,0.5-1.1,0.7-1.8,0.7
		C300.6,513.7,300,513.4,299.5,512.9z"/>
	<path id="XMLID_136_" class="st0" d="M319.5,486.1c-0.6-0.5-0.8-1.1-0.8-1.8c0-0.6,0.2-1.1,0.7-1.7c0.5-0.6,1.1-0.8,1.8-0.8
		c0.6,0,1.1,0.2,1.7,0.7c0.6,0.6,0.8,1.2,0.8,1.8c0,0.7-0.2,1.3-0.7,1.8c-0.5,0.5-1.1,0.7-1.8,0.7
		C320.6,486.8,320,486.6,319.5,486.1z"/>
	<path id="XMLID_135_" class="st0" d="M319.5,492.8c-0.6-0.5-0.8-1.1-0.8-1.8c0-0.6,0.2-1.1,0.7-1.7c0.5-0.6,1.1-0.8,1.8-0.8
		c0.6,0,1.1,0.2,1.7,0.7c0.6,0.6,0.8,1.2,0.8,1.8c0,0.7-0.2,1.3-0.7,1.8c-0.5,0.5-1.1,0.7-1.8,0.7
		C320.6,493.5,320,493.3,319.5,492.8z"/>
	<path id="XMLID_134_" class="st0" d="M319.5,499.5c-0.6-0.5-0.8-1.1-0.8-1.8c0-0.6,0.2-1.1,0.7-1.7c0.5-0.6,1.1-0.8,1.8-0.8
		c0.6,0,1.1,0.2,1.7,0.7c0.6,0.6,0.8,1.2,0.8,1.8c0,0.7-0.2,1.3-0.7,1.8c-0.5,0.5-1.1,0.7-1.8,0.7C320.6,500.2,320,500,319.5,499.5z
		"/>
	<path id="XMLID_133_" class="st0" d="M319.5,506.2c-0.6-0.5-0.8-1.1-0.8-1.8c0-0.6,0.2-1.1,0.7-1.7c0.5-0.6,1.1-0.8,1.8-0.8
		c0.6,0,1.1,0.2,1.7,0.7c0.6,0.6,0.8,1.2,0.8,1.8c0,0.7-0.2,1.3-0.7,1.8c-0.5,0.5-1.1,0.7-1.8,0.7C320.6,507,320,506.7,319.5,506.2z
		"/>
	<path id="XMLID_132_" class="st0" d="M319.5,512.9c-0.6-0.5-0.8-1.1-0.8-1.8c0-0.6,0.2-1.1,0.7-1.7c0.5-0.6,1.1-0.8,1.8-0.8
		c0.6,0,1.1,0.2,1.7,0.7c0.6,0.6,0.8,1.2,0.8,1.8c0,0.7-0.2,1.3-0.7,1.8c-0.5,0.5-1.1,0.7-1.8,0.7
		C320.6,513.7,320,513.4,319.5,512.9z"/>
	<path id="XMLID_131_" class="st0" d="M326.2,519.6c-0.6-0.5-0.8-1.1-0.8-1.8c0-0.6,0.2-1.1,0.7-1.7c0.5-0.6,1.1-0.8,1.8-0.8
		c0.6,0,1.1,0.2,1.7,0.7c0.6,0.6,0.8,1.2,0.8,1.8c0,0.7-0.2,1.3-0.7,1.8c-0.5,0.5-1.1,0.7-1.8,0.7
		C327.3,520.4,326.7,520.1,326.2,519.6z"/>
	<path id="XMLID_130_" class="st0" d="M332.9,479.4c-0.6-0.5-0.8-1.1-0.8-1.8c0-0.6,0.2-1.1,0.7-1.7c0.5-0.6,1.1-0.8,1.8-0.8
		c0.6,0,1.1,0.2,1.7,0.7c0.6,0.6,0.8,1.2,0.8,1.8c0,0.7-0.2,1.3-0.7,1.8c-0.5,0.5-1.1,0.7-1.8,0.7
		C334,480.1,333.4,479.9,332.9,479.4z"/>
	<path id="XMLID_129_" class="st0" d="M332.9,519.6c-0.6-0.5-0.8-1.1-0.8-1.8c0-0.6,0.2-1.1,0.7-1.7c0.5-0.6,1.1-0.8,1.8-0.8
		c0.6,0,1.1,0.2,1.7,0.7c0.6,0.6,0.8,1.2,0.8,1.8c0,0.7-0.2,1.3-0.7,1.8c-0.5,0.5-1.1,0.7-1.8,0.7
		C334,520.4,333.4,520.1,332.9,519.6z"/>
	<path id="XMLID_128_" class="st0" d="M339.6,479.4c-0.6-0.5-0.8-1.1-0.8-1.8c0-0.6,0.2-1.1,0.7-1.7c0.5-0.6,1.1-0.8,1.8-0.8
		c0.6,0,1.1,0.2,1.7,0.7c0.6,0.6,0.8,1.2,0.8,1.8c0,0.7-0.2,1.3-0.7,1.8c-0.5,0.5-1.1,0.7-1.8,0.7
		C340.7,480.1,340.2,479.9,339.6,479.4z"/>
	<path id="XMLID_127_" class="st0" d="M339.6,519.6c-0.6-0.5-0.8-1.1-0.8-1.8c0-0.6,0.2-1.1,0.7-1.7c0.5-0.6,1.1-0.8,1.8-0.8
		c0.6,0,1.1,0.2,1.7,0.7c0.6,0.6,0.8,1.2,0.8,1.8c0,0.7-0.2,1.3-0.7,1.8c-0.5,0.5-1.1,0.7-1.8,0.7
		C340.7,520.4,340.2,520.1,339.6,519.6z"/>
	<path id="XMLID_126_" class="st0" d="M346.3,486.1c-0.6-0.5-0.8-1.1-0.8-1.8c0-0.6,0.2-1.1,0.7-1.7c0.5-0.6,1.1-0.8,1.8-0.8
		c0.6,0,1.1,0.2,1.7,0.7c0.6,0.6,0.8,1.2,0.8,1.8c0,0.7-0.2,1.3-0.7,1.8c-0.5,0.5-1.1,0.7-1.8,0.7
		C347.4,486.8,346.9,486.6,346.3,486.1z"/>
	<path id="XMLID_125_" class="st0" d="M346.3,492.8c-0.6-0.5-0.8-1.1-0.8-1.8c0-0.6,0.2-1.1,0.7-1.7c0.5-0.6,1.1-0.8,1.8-0.8
		c0.6,0,1.1,0.2,1.7,0.7c0.6,0.6,0.8,1.2,0.8,1.8c0,0.7-0.2,1.3-0.7,1.8c-0.5,0.5-1.1,0.7-1.8,0.7
		C347.4,493.5,346.9,493.3,346.3,492.8z"/>
	<path id="XMLID_124_" class="st0" d="M346.3,499.5c-0.6-0.5-0.8-1.1-0.8-1.8c0-0.6,0.2-1.1,0.7-1.7c0.5-0.6,1.1-0.8,1.8-0.8
		c0.6,0,1.1,0.2,1.7,0.7c0.6,0.6,0.8,1.2,0.8,1.8c0,0.7-0.2,1.3-0.7,1.8c-0.5,0.5-1.1,0.7-1.8,0.7
		C347.4,500.2,346.9,500,346.3,499.5z"/>
	<path id="XMLID_123_" class="st0" d="M346.3,506.2c-0.6-0.5-0.8-1.1-0.8-1.8c0-0.6,0.2-1.1,0.7-1.7c0.5-0.6,1.1-0.8,1.8-0.8
		c0.6,0,1.1,0.2,1.7,0.7c0.6,0.6,0.8,1.2,0.8,1.8c0,0.7-0.2,1.3-0.7,1.8c-0.5,0.5-1.1,0.7-1.8,0.7
		C347.4,507,346.9,506.7,346.3,506.2z"/>
	<path id="XMLID_122_" class="st0" d="M346.3,512.9c-0.6-0.5-0.8-1.1-0.8-1.8c0-0.6,0.2-1.1,0.7-1.7c0.5-0.6,1.1-0.8,1.8-0.8
		c0.6,0,1.1,0.2,1.7,0.7c0.6,0.6,0.8,1.2,0.8,1.8c0,0.7-0.2,1.3-0.7,1.8c-0.5,0.5-1.1,0.7-1.8,0.7
		C347.4,513.7,346.9,513.4,346.3,512.9z"/>
	<path id="XMLID_121_" class="st0" d="M319.5,479.4c-0.6-0.5-0.8-1.1-0.8-1.8c0-0.6,0.2-1.1,0.7-1.7c0.5-0.6,1.1-0.8,1.8-0.8
		c0.6,0,1.1,0.2,1.7,0.7c0.6,0.6,0.8,1.2,0.8,1.8c0,0.7-0.2,1.3-0.7,1.8c-0.5,0.5-1.1,0.7-1.8,0.7
		C320.6,480.1,320,479.9,319.5,479.4z"/>
	<path id="XMLID_120_" class="st0" d="M346.3,479.4c-0.6-0.5-0.8-1.1-0.8-1.8c0-0.6,0.2-1.1,0.7-1.7c0.5-0.6,1.1-0.8,1.8-0.8
		c0.6,0,1.1,0.2,1.7,0.7c0.6,0.6,0.8,1.2,0.8,1.8c0,0.7-0.2,1.3-0.7,1.8c-0.5,0.5-1.1,0.7-1.8,0.7
		C347.4,480.1,346.9,479.9,346.3,479.4z"/>
	<path id="XMLID_119_" class="st0" d="M319.5,519.6c-0.6-0.5-0.8-1.1-0.8-1.8c0-0.6,0.2-1.1,0.7-1.7c0.5-0.6,1.1-0.8,1.8-0.8
		c0.6,0,1.1,0.2,1.7,0.7c0.6,0.6,0.8,1.2,0.8,1.8c0,0.7-0.2,1.3-0.7,1.8c-0.5,0.5-1.1,0.7-1.8,0.7
		C320.6,520.4,320,520.1,319.5,519.6z"/>
	<path id="XMLID_118_" class="st0" d="M346.3,519.6c-0.6-0.5-0.8-1.1-0.8-1.8c0-0.6,0.2-1.1,0.7-1.7c0.5-0.6,1.1-0.8,1.8-0.8
		c0.6,0,1.1,0.2,1.7,0.7c0.6,0.6,0.8,1.2,0.8,1.8c0,0.7-0.2,1.3-0.7,1.8c-0.5,0.5-1.1,0.7-1.8,0.7
		C347.4,520.4,346.9,520.1,346.3,519.6z"/>
	<path id="XMLID_117_" class="st0" d="M326.2,486.1c-0.6-0.5-0.8-1.1-0.8-1.8c0-0.6,0.2-1.1,0.7-1.7c0.5-0.6,1.1-0.8,1.8-0.8
		c0.6,0,1.1,0.2,1.7,0.7c0.6,0.6,0.8,1.2,0.8,1.8c0,0.7-0.2,1.3-0.7,1.8c-0.5,0.5-1.1,0.7-1.8,0.7
		C327.3,486.8,326.7,486.6,326.2,486.1z"/>
	<path id="XMLID_116_" class="st0" d="M326.2,492.8c-0.6-0.5-0.8-1.1-0.8-1.8c0-0.6,0.2-1.1,0.7-1.7c0.5-0.6,1.1-0.8,1.8-0.8
		c0.6,0,1.1,0.2,1.7,0.7c0.6,0.6,0.8,1.2,0.8,1.8c0,0.7-0.2,1.3-0.7,1.8c-0.5,0.5-1.1,0.7-1.8,0.7
		C327.3,493.5,326.7,493.3,326.2,492.8z"/>
	<path id="XMLID_115_" class="st0" d="M326.2,499.5c-0.6-0.5-0.8-1.1-0.8-1.8c0-0.6,0.2-1.1,0.7-1.7c0.5-0.6,1.1-0.8,1.8-0.8
		c0.6,0,1.1,0.2,1.7,0.7c0.6,0.6,0.8,1.2,0.8,1.8c0,0.7-0.2,1.3-0.7,1.8c-0.5,0.5-1.1,0.7-1.8,0.7
		C327.3,500.2,326.7,500,326.2,499.5z"/>
	<path id="XMLID_114_" class="st0" d="M326.2,506.2c-0.6-0.5-0.8-1.1-0.8-1.8c0-0.6,0.2-1.1,0.7-1.7c0.5-0.6,1.1-0.8,1.8-0.8
		c0.6,0,1.1,0.2,1.7,0.7c0.6,0.6,0.8,1.2,0.8,1.8c0,0.7-0.2,1.3-0.7,1.8c-0.5,0.5-1.1,0.7-1.8,0.7
		C327.3,507,326.7,506.7,326.2,506.2z"/>
	<path id="XMLID_113_" class="st0" d="M326.2,512.9c-0.6-0.5-0.8-1.1-0.8-1.8c0-0.6,0.2-1.1,0.7-1.7c0.5-0.6,1.1-0.8,1.8-0.8
		c0.6,0,1.1,0.2,1.7,0.7c0.6,0.6,0.8,1.2,0.8,1.8c0,0.7-0.2,1.3-0.7,1.8c-0.5,0.5-1.1,0.7-1.8,0.7
		C327.3,513.7,326.7,513.4,326.2,512.9z"/>
	<path id="XMLID_111_" class="st0" d="M332.9,486.1c-0.6-0.5-0.8-1.1-0.8-1.8c0-0.6,0.2-1.1,0.7-1.7c0.5-0.6,1.1-0.8,1.8-0.8
		c0.6,0,1.1,0.2,1.7,0.7c0.6,0.6,0.8,1.2,0.8,1.8c0,0.7-0.2,1.3-0.7,1.8c-0.5,0.5-1.1,0.7-1.8,0.7
		C334,486.8,333.4,486.6,332.9,486.1z"/>
	<path id="XMLID_110_" class="st0" d="M332.9,492.8c-0.6-0.5-0.8-1.1-0.8-1.8c0-0.6,0.2-1.1,0.7-1.7c0.5-0.6,1.1-0.8,1.8-0.8
		c0.6,0,1.1,0.2,1.7,0.7c0.6,0.6,0.8,1.2,0.8,1.8c0,0.7-0.2,1.3-0.7,1.8c-0.5,0.5-1.1,0.7-1.8,0.7
		C334,493.5,333.4,493.3,332.9,492.8z"/>
	<path id="XMLID_109_" class="st0" d="M332.9,499.5c-0.6-0.5-0.8-1.1-0.8-1.8c0-0.6,0.2-1.1,0.7-1.7c0.5-0.6,1.1-0.8,1.8-0.8
		c0.6,0,1.1,0.2,1.7,0.7c0.6,0.6,0.8,1.2,0.8,1.8c0,0.7-0.2,1.3-0.7,1.8c-0.5,0.5-1.1,0.7-1.8,0.7C334,500.2,333.4,500,332.9,499.5z
		"/>
	<path id="XMLID_108_" class="st0" d="M332.9,506.2c-0.6-0.5-0.8-1.1-0.8-1.8c0-0.6,0.2-1.1,0.7-1.7c0.5-0.6,1.1-0.8,1.8-0.8
		c0.6,0,1.1,0.2,1.7,0.7c0.6,0.6,0.8,1.2,0.8,1.8c0,0.7-0.2,1.3-0.7,1.8c-0.5,0.5-1.1,0.7-1.8,0.7C334,507,333.4,506.7,332.9,506.2z
		"/>
	<path id="XMLID_107_" class="st0" d="M332.9,512.9c-0.6-0.5-0.8-1.1-0.8-1.8c0-0.6,0.2-1.1,0.7-1.7c0.5-0.6,1.1-0.8,1.8-0.8
		c0.6,0,1.1,0.2,1.7,0.7c0.6,0.6,0.8,1.2,0.8,1.8c0,0.7-0.2,1.3-0.7,1.8c-0.5,0.5-1.1,0.7-1.8,0.7
		C334,513.7,333.4,513.4,332.9,512.9z"/>
	<path id="XMLID_106_" class="st0" d="M339.6,486.1c-0.6-0.5-0.8-1.1-0.8-1.8c0-0.6,0.2-1.1,0.7-1.7c0.5-0.6,1.1-0.8,1.8-0.8
		c0.6,0,1.1,0.2,1.7,0.7c0.6,0.6,0.8,1.2,0.8,1.8c0,0.7-0.2,1.3-0.7,1.8c-0.5,0.5-1.1,0.7-1.8,0.7
		C340.7,486.8,340.2,486.6,339.6,486.1z"/>
	<path id="XMLID_105_" class="st0" d="M339.6,492.8c-0.6-0.5-0.8-1.1-0.8-1.8c0-0.6,0.2-1.1,0.7-1.7c0.5-0.6,1.1-0.8,1.8-0.8
		c0.6,0,1.1,0.2,1.7,0.7c0.6,0.6,0.8,1.2,0.8,1.8c0,0.7-0.2,1.3-0.7,1.8c-0.5,0.5-1.1,0.7-1.8,0.7
		C340.7,493.5,340.2,493.3,339.6,492.8z"/>
	<path id="XMLID_104_" class="st0" d="M339.6,499.5c-0.6-0.5-0.8-1.1-0.8-1.8c0-0.6,0.2-1.1,0.7-1.7c0.5-0.6,1.1-0.8,1.8-0.8
		c0.6,0,1.1,0.2,1.7,0.7c0.6,0.6,0.8,1.2,0.8,1.8c0,0.7-0.2,1.3-0.7,1.8c-0.5,0.5-1.1,0.7-1.8,0.7
		C340.7,500.2,340.2,500,339.6,499.5z"/>
	<path id="XMLID_103_" class="st0" d="M339.6,506.2c-0.6-0.5-0.8-1.1-0.8-1.8c0-0.6,0.2-1.1,0.7-1.7c0.5-0.6,1.1-0.8,1.8-0.8
		c0.6,0,1.1,0.2,1.7,0.7c0.6,0.6,0.8,1.2,0.8,1.8c0,0.7-0.2,1.3-0.7,1.8c-0.5,0.5-1.1,0.7-1.8,0.7
		C340.7,507,340.2,506.7,339.6,506.2z"/>
	<path id="XMLID_102_" class="st0" d="M339.6,512.9c-0.6-0.5-0.8-1.1-0.8-1.8c0-0.6,0.2-1.1,0.7-1.7c0.5-0.6,1.1-0.8,1.8-0.8
		c0.6,0,1.1,0.2,1.7,0.7c0.6,0.6,0.8,1.2,0.8,1.8c0,0.7-0.2,1.3-0.7,1.8c-0.5,0.5-1.1,0.7-1.8,0.7
		C340.7,513.7,340.2,513.4,339.6,512.9z"/>
</g>
<text id="speed" transform="matrix(1 0 0 1 237.6832 521.0041)" class="st4 st5 st6">000</text>
<path id="diro1" class="st3" d="M598.1,395.3c-23.5,0-42.5,19-42.5,42.5c0,23.5,19,42.5,42.5,42.5c23.5,0,42.5-19,42.5-42.5
	C640.6,414.4,621.6,395.3,598.1,395.3z M626.8,446.9c-2.4,7.7-7.7,13.9-14.8,17.6c-4.4,2.3-9.2,3.4-13.8,3.4
	c-10.9,0-21.4-5.9-26.7-16.2c-2.7-5.2-3.8-11.1-3.2-17l9.4,1c-0.4,4,0.3,8,2.2,11.6c5.2,10.1,17.7,14,27.8,8.8
	c4.9-2.5,8.5-6.8,10.2-12.1c1.7-5.3,1.2-10.8-1.4-15.7c-1.5-2.9-3.7-5.4-6.3-7.2l0.1,7.5l-23.9-13.3l23.4-14l0.1,8.9
	c6.4,2.7,11.6,7.5,14.8,13.8C628.5,431.1,629.2,439.2,626.8,446.9z"/>
<path id="dirw1" class="st3" d="M106.9,396.5c-23.5,0-42.5,19-42.5,42.5c0,23.5,19,42.5,42.5,42.5c23.5,0,42.5-19,42.5-42.5
	C149.4,415.5,130.4,396.5,106.9,396.5z M130.9,457.2c-4.9,6.4-11.9,10.5-19.9,11.6c-1.4,0.2-2.8,0.3-4.1,0.3
	c-6.5,0-12.8-2.1-18.1-6.1c-6.4-4.9-10.5-11.9-11.6-19.9c-1.8-13,5.3-25.8,17-31.3l-0.2-8.9l23.9,13.3l-23.4,14.1l-0.1-7.5
	c-5.7,4.4-8.8,11.7-7.8,19.1c0.7,5.5,3.6,10.3,8,13.6c4.4,3.3,9.8,4.8,15.3,4c5.5-0.7,10.3-3.6,13.6-8c3.3-4.4,4.8-9.8,4-15.3
	l9.4-1.3C137.8,442.9,135.7,450.8,130.9,457.2z"/>
<g id="line">
	<path id="XMLID_700_" class="st3" d="M287.5,454.2c0,1.8,1.2,2.6,2.6,2.6c1.8,0,3.2-1.2,3.6-2.5c0.1-0.3,0.1-0.7,0.1-1v-2.5
		C290.6,450.7,287.5,451.4,287.5,454.2z"/>
	<path id="XMLID_701_" class="st3" d="M256.6,448.1h-2.3v8.3c0.6,0.1,1.4,0.1,2.4,0.1c3,0,5.6-1.1,5.6-4.2
		C262.3,449.3,259.8,448.1,256.6,448.1z"/>
	<rect id="XMLID_1009_" x="382.9" y="370.7" class="st3" width="20.5" height="5.9"/>
	<path id="XMLID_1029_" class="st3" d="M261.7,441.1c0-2.4-1.8-3.4-4.7-3.4c-1.4,0-2.1,0.1-2.6,0.2v6.9h2.4
		C259.9,444.8,261.7,443.3,261.7,441.1z"/>
	<path id="XMLID_1030_" class="st3" d="M317.5,390.4h-21.7c2.5,5.9,5.9,10.7,10,14.7C310.5,401.1,314.4,396.2,317.5,390.4z"/>
	<path id="XMLID_1039_" class="st3" d="M427.8,444.2c-2.9,0-4.1,2.6-4.2,4.5h8C431.6,447,430.9,444.2,427.8,444.2z"/>
	<rect id="XMLID_1040_" x="382.9" y="381.3" class="st3" width="20.5" height="5.9"/>
	<path id="XMLID_1043_" class="st3" d="M430.4,354.6H255.5c-5,0-9.1,4.1-9.1,9.1v91.4c0,5,4.1,9.1,9.1,9.1h174.9
		c5,0,9.1-4.1,9.1-9.1v-91.4C439.5,358.6,435.4,354.6,430.4,354.6z M288.8,390.4h-9.1v-5.6h21.4v-10.5H273v-5.6h28.1v-9.4h6.4
		c2,0.4,2.1,1.2,0.3,2.3v7h28.4v5.6h-28.4v10.5h13.5l1.8-1.8l5,4.4l-1.2,0.6c-4.9,9-10.3,16-16.1,21.1c6.4,4.1,15.2,7.1,26.4,9.1
		l-2.3,7.3c-12.9-2.9-22.7-7-29.3-12.3c-8.6,5.5-19,9.7-31.4,12.6l-2.6-6.7c11.5-2.1,21.2-5.5,29-10
		C295.4,403.5,291.5,397.2,288.8,390.4z M264.8,457.6c-1.8,1.6-4.8,2.4-9.4,2.4c-2.6,0-4.5-0.2-5.7-0.3v-24.9
		c1.5-0.3,4.1-0.5,6.7-0.5c3.4,0,5.5,0.4,7.2,1.6c1.6,0.9,2.6,2.6,2.6,4.7c0,2.3-1.5,4.5-4.2,5.5v0.1c2.7,0.7,5.1,2.8,5.1,6.3
		C267.2,454.7,266.2,456.4,264.8,457.6z M281.4,445.5c-0.4-0.1-0.8-0.1-1.4-0.1c-2.2,0-3.7,1.4-4.1,3.5c-0.1,0.4-0.1,0.9-0.1,1.4
		v9.5h-4.6v-12.4c0-2.5,0-4.2-0.2-5.9h4l0.1,3.5h0.1c0.9-2.6,3-3.9,5-3.9c0.5,0,0.7,0,1.1,0.1V445.5z M294.5,459.7l-0.3-2H294
		c-1.1,1.4-3,2.4-5.4,2.4c-3.7,0-5.7-2.7-5.7-5.4c0-4.6,4.1-6.9,10.8-6.9v-0.3c0-1.2-0.5-3.2-3.7-3.2c-1.8,0-3.7,0.6-4.9,1.4l-0.9-3
		c1.4-0.8,3.7-1.6,6.6-1.6c5.9,0,7.5,3.7,7.5,7.7v6.6c0,1.7,0.1,3.3,0.3,4.4H294.5z M319.8,459.7h-4.6v-10.3c0-2.6-1-4.6-3.5-4.6
		c-1.8,0-3.1,1.3-3.6,2.7c-0.1,0.4-0.2,1-0.2,1.5v10.7h-4.7v-12.8c0-2.1,0-3.9-0.2-5.4h4.1l0.2,2.7h0.1c0.8-1.4,2.8-3.2,5.8-3.2
		c3.2,0,6.5,2.1,6.5,7.8V459.7z M333.8,456.5c1.6,0,2.7-0.3,3.6-0.7l0.6,3.4c-1,0.4-2.9,0.9-5.2,0.9c-5.7,0-9.4-3.6-9.4-9.3
		c0-5.5,3.8-9.8,10.2-9.8c1.7,0,3.4,0.4,4.5,0.9l-0.8,3.5c-0.7-0.3-1.8-0.7-3.5-0.7c-3.5,0-5.6,2.6-5.6,5.9
		C328.3,454.3,330.7,456.5,333.8,456.5z M358.1,459.7h-4.6v-10.2c0-2.7-1-4.7-3.5-4.7c-1.8,0-3.1,1.2-3.6,2.6
		c-0.1,0.4-0.2,0.9-0.2,1.4v10.9h-4.7v-26.6h4.7V444h0.1c0.6-0.9,1.3-1.6,2.3-2.1c0.9-0.5,2-0.8,3.2-0.8c3.1,0,6.4,2.1,6.4,7.9
		V459.7z M347.4,417.9c1.6-7.4,2.3-13.3,2.3-17.6l5.3,0.6c1.6,0.4,1.7,0.9,0.3,1.5c0,6.4-0.8,12.6-2.3,18.5L347.4,417.9z
		 M363.8,426.4H358v-31.6l-9.7,0.6c-1,1.2-1.6,0.8-1.8-1.2l-0.6-4.4h5.9l4.1-5.6l-9.1-7.3l2.9-4.4l1.5,0.9
		c3.9-6.1,6.6-10.7,8.2-14.1l5.3,2.6c0.8,0.8,0.5,1.3-0.9,1.5c-4.1,6.6-6.8,10.9-8.2,12.9l3.8,3.2l7.9-12.3l4.7,3.2
		c0.8,0.8,0.5,1.3-0.9,1.5c-5.3,7.8-9.6,13.7-12.9,17.6l9.7-0.9l-2.1-4.1l4.4-2.3c2.9,3.7,5.1,7.7,6.4,12l-5.3,2.3l-1.5-3.2
		l-6.2,0.9V426.4z M374.7,402.7V398h8.5l0.9-0.9l4.4,2.1l-0.6,1.5c-0.2,10.9-4.5,18.8-12.9,23.4l-3.8-4.4c7-4.3,10.7-10,11.1-17
		H374.7z M366.2,401.2l5-1.2c1.4,2.9,2.3,7,2.9,12.3l-5.6,1.2C368.3,410.2,367.5,406.1,366.2,401.2z M385.9,459.7h-15v-25.3h4.6
		v21.4h10.4V459.7z M393.9,459.7h-4.7v-18.3h4.7V459.7z M391.5,438.8c-1.5,0-2.6-1.1-2.6-2.5c0-1.4,1-2.5,2.6-2.5
		c1.6,0,2.6,1.1,2.6,2.5C394.2,437.8,393.1,438.8,391.5,438.8z M395.5,421.1c0,2.9-1.2,4.4-3.5,4.4h-5.6l-1.2-4.7h4.1
		c0.8,0,1.2-0.4,1.2-1.2v-27.8H384h-6.2V366H389l1.8-7.9l6.2,1.2c1.6,0.6,1.5,1.2-0.3,1.8l-2.3,5h14.1v25.8h-12.9v3.5
		c0,1.4,1.1,3.8,3.2,7.3l9.1-9.1l4.1,4.7c0.2,1-0.3,1.3-1.5,0.9l-9.1,7c3.1,4.1,7.3,7.8,12.6,11.1l-3.2,5.9
		c-6.1-3.9-11.1-9.5-15.2-16.7V421.1z M415.4,459.7h-4.6v-10.3c0-2.6-1-4.6-3.5-4.6c-1.8,0-3.1,1.3-3.6,2.7c-0.1,0.4-0.2,1-0.2,1.5
		v10.7h-4.7v-12.8c0-2.1,0-3.9-0.2-5.4h4.1l0.2,2.7h0.1c0.8-1.4,2.8-3.2,5.8-3.2c3.2,0,6.5,2.1,6.5,7.8V459.7z M435.8,451.9h-12.2
		c0.1,3.3,2.7,4.7,5.6,4.7c2.1,0,3.7-0.3,5.1-0.8l0.7,3.2c-1.6,0.6-3.8,1.1-6.4,1.1c-5.9,0-9.4-3.6-9.4-9.2c0-5.1,3.1-9.8,8.9-9.8
		c5.9,0,7.9,4.9,7.9,8.9C435.9,450.8,435.9,451.5,435.8,451.9z"/>
</g>
</svg>
