<?xml version="1.0" encoding="utf-8"?>
<!-- Generator: Adobe Illustrator 19.0.0, SVG Export Plug-In . SVG Version: 6.00 Build 0)  -->
<svg version="1.1" id="Ebene_1" xmlns="http://www.w3.org/2000/svg" xmlns:xlink="http://www.w3.org/1999/xlink" x="0px" y="0px"
	 viewBox="0 0 595.3 841.9" style="enable-background:new 0 0 595.3 841.9;" xml:space="preserve">
<style type="text/css">
	.st0{fill:#020304;}
	.st1{fill:#FFFFFF;stroke:#030405;stroke-width:2;stroke-miterlimit:10;}
	.st2{fill:#FFFFFF;}
	.st3{fill:#009C89;}
</style>
<g id="XMLID_94_">
	<path id="strecke" class="st0" d="M856,461.4l12-11.1V331.6L755,227.3h-914.2l-113.1,104.3v118.9l11.7,10.9h-23.9l-4.7-4.3V325.1
		l123.1-113.4H762l123,113.4v131.7l-5,4.6L856,461.4L856,461.4z"/>
</g>
<polygon id="a" class="st0" points="879.9,461.4 856,461.4 796.9,516.3 820.9,516.3 "/>
<polygon id="b" class="st0" points="820.9,516.3 797,516.3 737.9,571.1 761.9,571.1 "/>
<polygon id="c" class="st0" points="761.7,571.1 737.9,571.1 678.9,626 702.7,626 "/>
<polygon id="gl_x5F_3dbz" class="st0" points="297.3,461.4 856,461.4 867.9,450.4 867.9,445.7 297.3,445.7 "/>
<polygon id="gl_x5F_2dbz" class="st0" points="297.3,516.3 797,516.3 814,500.5 297.3,500.5 "/>
<polygon id="gl_x5F_1dbz" class="st0" points="297.3,571.1 737.9,571.1 755.7,554.7 297.3,554.7 "/>
<polyline id="gl_x5F_0dbz" class="st0" points="297.3,626 678.9,626 695.7,610.3 297.3,610.3 "/>
<polygon id="e" class="st0" points="-225.8,516.3 -201.9,516.3 -142.9,571.1 -166.8,571.1 "/>
<polygon id="d" class="st0" points="-166.8,571.1 -142.9,571.1 -83.8,626 -107.8,626 "/>
<polygon id="gl_x5F_3dfz" class="st0" points="297.3,445.7 -272.6,445.7 -272.6,450.5 -260.9,461.4 297.3,461.4 "/>
<polygon id="gl_x5F_2dfz" class="st0" points="297.3,500.5 -218.9,500.5 -201.9,516.3 297.3,516.3 "/>
<polygon id="gl_x5F_1dfz" class="st0" points="297.3,554.7 -160.7,554.7 -142.9,571.1 297.3,571.1 "/>
<polygon id="f" class="st0" points="-284.9,461.4 -261.1,461.4 -201.9,516.3 -225.9,516.3 "/>
<polyline id="gl_x5F_0dfz" class="st0" points="297.3,610.3 -100.8,610.3 -83.8,626 297.3,626 "/>
<circle id="h04z" class="st1" cx="196.9" cy="452.6" r="19.3"/>
<circle id="h08z" class="st1" cx="396.9" cy="452.6" r="19.3"/>
<circle id="_x33_dfz" class="st1" cx="126.9" cy="452.6" r="19.3"/>
<circle id="_x33_dbz" class="st1" cx="466.9" cy="452.6" r="19.3"/>
<g id="XMLID_24_">
	<g id="XMLID_25_">
		<polygon id="XMLID_27_" class="st0" points="523.5,466.5 537.3,452.6 523.5,438.8 536.6,425.6 563.5,452.6 536.6,479.6 		"/>
		<path id="XMLID_26_" class="st2" d="M536.6,427.6l25,25l-25,25l-11.1-11.1l13.9-13.9l-13.9-13.9L536.6,427.6 M536.6,423.6l-2,2
			l-11.1,11.1l-2,2l2,2l11.9,11.9l-11.9,11.9l-2,2l2,2l11.1,11.1l2,2l2-2l25-25l2-2l-2-2l-25-25L536.6,423.6L536.6,423.6z"/>
	</g>
</g>
<g id="XMLID_20_">
	<g id="XMLID_21_">
		<polygon id="XMLID_23_" class="st0" points="72.3,438.8 58.5,452.6 72.3,466.5 59.2,479.6 32.3,452.6 59.2,425.6 		"/>
		<path id="XMLID_22_" class="st2" d="M59.2,477.6l-25-25l25-25l11.1,11.1l-13.9,13.9l13.9,13.9L59.2,477.6 M59.2,481.6l2-2
			l11.1-11.1l2-2l-2-2l-11.9-11.9l11.9-11.9l2-2l-2-2l-11.1-11.1l-2-2l-2,2l-25,25l-2,2l2,2l25,25L59.2,481.6L59.2,481.6z"/>
	</g>
</g>
<circle id="h03z" class="st1" cx="196.9" cy="506" r="19.3"/>
<circle id="h07z" class="st1" cx="396.9" cy="506" r="19.3"/>
<circle id="_x32_dfz" class="st1" cx="126.9" cy="506" r="19.3"/>
<circle id="_x32_dbz" class="st1" cx="466.9" cy="506" r="19.3"/>
<g id="XMLID_43_">
	<g id="XMLID_44_">
		<polygon id="XMLID_46_" class="st0" points="523.5,519.8 537.3,506 523.5,492.1 536.6,479 563.5,506 536.6,533 		"/>
		<path id="XMLID_45_" class="st2" d="M536.6,481l25,25l-25,25l-11.1-11.1l13.9-13.9l-13.9-13.9L536.6,481 M536.6,477l-2,2
			l-11.1,11.1l-2,2l2,2l11.9,11.9l-11.9,11.9l-2,2l2,2l11.1,11.1l2,2l2-2l25-25l2-2l-2-2l-25-25L536.6,477L536.6,477z"/>
	</g>
</g>
<g id="XMLID_32_">
	<g id="XMLID_36_">
		<polygon id="XMLID_42_" class="st0" points="72.3,492.1 58.5,506 72.3,519.8 59.2,533 32.3,506 59.2,479 		"/>
		<path id="XMLID_37_" class="st2" d="M59.2,531l-25-25l25-25l11.1,11.1L56.5,506l13.9,13.9L59.2,531 M59.2,535l2-2l11.1-11.1l2-2
			l-2-2L60.5,506l11.9-11.9l2-2l-2-2L61.2,479l-2-2l-2,2l-25,25l-2,2l2,2l25,25L59.2,535L59.2,535z"/>
	</g>
</g>
<circle id="h02z" class="st1" cx="196.9" cy="561.6" r="19.3"/>
<circle id="h06z" class="st1" cx="396.9" cy="561.6" r="19.3"/>
<circle id="_x31_dfz" class="st1" cx="126.9" cy="561.6" r="19.3"/>
<circle id="_x31_dbz" class="st1" cx="466.9" cy="561.6" r="19.3"/>
<g id="XMLID_69_">
	<g id="XMLID_70_">
		<polygon id="XMLID_72_" class="st0" points="523.5,575.5 537.3,561.6 523.5,547.8 536.6,534.6 563.5,561.6 536.6,588.6 		"/>
		<path id="XMLID_71_" class="st2" d="M536.6,536.6l25,25l-25,25l-11.1-11.1l13.9-13.9l-13.9-13.9L536.6,536.6 M536.6,532.6l-2,2
			l-11.1,11.1l-2,2l2,2l11.9,11.9l-11.9,11.9l-2,2l2,2l11.1,11.1l2,2l2-2l25-25l2-2l-2-2l-25-25L536.6,532.6L536.6,532.6z"/>
	</g>
</g>
<g id="XMLID_65_">
	<g id="XMLID_66_">
		<polygon id="XMLID_68_" class="st0" points="72.3,547.8 58.5,561.6 72.3,575.5 59.2,588.6 32.3,561.6 59.2,534.6 		"/>
		<path id="XMLID_67_" class="st2" d="M59.2,586.6l-25-25l25-25l11.1,11.1l-13.9,13.9l13.9,13.9L59.2,586.6 M59.2,590.6l2-2
			l11.1-11.1l2-2l-2-2l-11.9-11.9l11.9-11.9l2-2l-2-2l-11.1-11.1l-2-2l-2,2l-25,25l-2,2l2,2l25,25L59.2,590.6L59.2,590.6z"/>
	</g>
</g>
<circle id="h01z" class="st1" cx="196.9" cy="615" r="19.3"/>
<circle id="h05z" class="st1" cx="396.9" cy="615" r="19.3"/>
<circle id="_x30_dfz" class="st1" cx="126.9" cy="615" r="19.3"/>
<circle id="_x30_dbz" class="st1" cx="466.9" cy="615" r="19.3"/>
<g id="XMLID_57_">
	<g id="XMLID_58_">
		<polygon id="XMLID_60_" class="st0" points="523.5,628.8 537.3,615 523.5,601.1 536.6,588 563.5,615 536.6,642 		"/>
		<path id="XMLID_59_" class="st2" d="M536.6,590l25,25l-25,25l-11.1-11.1l13.9-13.9l-13.9-13.9L536.6,590 M536.6,586l-2,2
			l-11.1,11.1l-2,2l2,2l11.9,11.9l-11.9,11.9l-2,2l2,2l11.1,11.1l2,2l2-2l25-25l2-2l-2-2l-25-25L536.6,586L536.6,586z"/>
	</g>
</g>
<g id="XMLID_53_">
	<g id="XMLID_54_">
		<polygon id="XMLID_56_" class="st0" points="72.3,601.1 58.5,615 72.3,628.8 59.2,642 32.3,615 59.2,588 		"/>
		<path id="XMLID_55_" class="st2" d="M59.2,640l-25-25l25-25l11.1,11.1L56.5,615l13.9,13.9L59.2,640 M59.2,644l2-2l11.1-11.1l2-2
			l-2-2L60.5,615l11.9-11.9l2-2l-2-2L61.2,588l-2-2l-2,2l-25,25l-2,2l2,2l25,25L59.2,644L59.2,644z"/>
	</g>
</g>
<circle id="h17z" class="st1" cx="-281.4" cy="387.5" r="19.3"/>
<circle id="h19z" class="st1" cx="877.1" cy="387.5" r="19.3"/>
<circle id="h18z" class="st1" cx="297.9" cy="219.3" r="19.3"/>
<g>
	<path class="st3" d="M100.1,375.3c-12.7,0-22.2-3.7-28.6-11.2c-6.4-7.5-9.6-19-9.6-34.7v-39.2c0-2.9,1.1-5.5,3.2-7.6
		c2.1-2.1,4.6-3.2,7.6-3.2h0.9c2.9,0,5.5,1.1,7.7,3.2c2.1,2.1,3.2,4.6,3.2,7.6v41.6c0,8.7,1.2,15,3.8,18.7s6.4,5.5,11.8,5.5
		s9.3-1.8,11.9-5.7s4-9.9,4-18.5v-41.5c0-2.9,1.1-5.5,3.2-7.6c2.1-2.1,4.6-3.2,7.6-3.2h0.3c2.9,0,5.5,1.1,7.6,3.2
		c2.1,2.1,3.2,4.6,3.2,7.6v39.2c0,15.8-3.1,27.2-9.3,34.7C122.3,371.6,112.8,375.3,100.1,375.3z"/>
	<path class="st3" d="M155.2,373.6c-2.9,0-5.5-1.1-7.6-3.2c-2.1-2.1-3.2-4.6-3.2-7.6v-51.9c0-2.6,0.9-4.7,2.6-6.6
		c1.8-1.8,4-2.8,6.4-2.8h0.9c2.4,0,4.4,0.8,6.3,2.3c1.8,1.5,2.9,3.5,3.2,5.8l0.2,0.6c0,0.2,0.2,0.3,0.3,0.3s0.3,0,0.5-0.2
		c7.2-7,14.8-10.6,22.8-10.6c7.5,0,13.2,2.6,16.8,7.6c3.7,5,5.5,12.2,5.5,21.6v33.7c0,2.9-1.1,5.5-3.2,7.7c-2.1,2.1-4.6,3.2-7.6,3.2
		H198c-2.9,0-5.5-1.1-7.6-3.2c-2.1-2.1-3.2-4.6-3.2-7.7v-30.9c0-4.7-0.6-8.1-2-9.9s-3.5-2.8-6.4-2.8c-2.3,0-4.1,0.5-5.8,1.2
		c-1.7,0.9-3.7,2.3-5.8,4.3c-0.6,0.6-0.9,1.2-0.9,2.1v36c0,2.9-1.1,5.5-3.2,7.7c-2.1,2.1-4.6,3.2-7.6,3.2L155.2,373.6L155.2,373.6z"
		/>
	<path class="st3" d="M243.1,375.3c-8.7,0-15.1-2.4-19.3-7.5c-4.1-5-6.1-11.9-6.1-21v-26.6c0-0.6-0.3-0.9-0.9-0.9h-0.3
		c-2.3,0-4.3-0.8-6-2.4c-1.7-1.7-2.4-3.7-2.4-6c0-2.4,0.8-4.4,2.4-6.1c1.5-1.7,3.7-2.6,6-2.9l1.5-0.2c0.8-0.2,1.2-0.5,1.4-1.2
		l1.1-8.6c0.3-2.6,1.5-4.9,3.5-6.6c2-1.8,4.4-2.6,7-2.6s4.7,0.9,6.6,2.8c1.9,1.9,2.8,4,2.8,6.7v8.3c0,0.8,0.5,1.2,1.2,1.2h6.9
		c2.4,0,4.4,0.9,6.1,2.6s2.6,3.8,2.6,6.3c0,2.4-0.9,4.4-2.6,6.3c-1.7,1.8-3.8,2.6-6.1,2.6h-6.9c-0.8,0-1.2,0.5-1.2,1.2v26.2
		c0,6.7,2.4,10.3,7.5,11c2.4,0.3,4.6,1.1,6.4,2.3c1.8,1.2,2.9,2.8,3.4,4.7c0.2,0.8,0.3,1.4,0.3,2.1c0,1.5-0.5,3.1-1.4,4.4
		c-1.2,2-2.9,3.2-5.2,3.5C248.6,375.1,245.9,375.3,243.1,375.3z"/>
	<path class="st3" d="M290.9,375.3c-10.6,0-19.3-3.4-26.2-10.1c-6.9-6.7-10.3-15.9-10.3-27.5c0-5.7,0.9-10.9,2.9-15.8
		c2-4.7,4.4-8.9,7.6-11.9c3.2-3.2,6.7-5.7,10.9-7.3c4.1-1.8,8.3-2.6,12.7-2.6c9.9,0,17.4,3.1,22.6,9.3c5.4,6.4,8.1,14.5,8.1,24.5
		c0,2.9-1.2,5.4-3.5,7.3c-2.3,2-5,2.9-8.3,2.9h-30.3c-0.3,0-0.6,0.2-0.8,0.5c-0.2,0.3-0.3,0.6-0.2,0.8c2.3,8.4,8.1,12.7,17.6,12.7
		c2.8,0,5.5-0.5,8.3-1.4c0.9-0.3,2-0.5,3.2-0.5c0.9,0,1.8,0.2,2.9,0.3c2,0.6,3.7,1.8,4.7,3.7c0.6,1.4,0.9,2.6,0.9,4.1
		c0,1.4-0.3,2.6-0.9,3.8c-0.8,1.2-1.7,2.1-2.9,2.8C303.6,373.9,297.3,375.3,290.9,375.3z M275.9,328.8c0,0.2,0.2,0.3,0.3,0.6
		c0.2,0.3,0.5,0.3,0.8,0.3h22c0.3,0,0.6-0.2,0.9-0.3c0.2-0.3,0.3-0.5,0.3-0.9c-0.2-3.5-1.2-6.3-3.1-8.3c-1.8-2-4.6-3.1-8.3-3.1
		c-3.1,0-5.8,0.9-8.1,2.9C277.6,322.7,275.9,325.6,275.9,328.8z"/>
	<path class="st3" d="M331.7,373.6c-2.9,0-5.5-1.1-7.7-3.2c-2.1-2.1-3.2-4.6-3.2-7.6v-51.9c0-2.6,0.9-4.7,2.6-6.6
		c1.8-1.8,4-2.8,6.4-2.8h0.9c2.4,0,4.4,0.8,6.3,2.3s2.9,3.5,3.2,5.8l0.2,0.6c0,0.2,0.2,0.3,0.3,0.3s0.3,0,0.5-0.2
		c7.2-7,14.8-10.6,22.8-10.6c7.5,0,13.2,2.6,16.8,7.6c3.7,5,5.5,12.2,5.5,21.6v33.7c0,2.9-1.1,5.5-3.2,7.7c-2.1,2.1-4.6,3.2-7.6,3.2
		h-0.9c-2.9,0-5.5-1.1-7.6-3.2c-2.1-2.1-3.2-4.6-3.2-7.7v-30.9c0-4.7-0.6-8.1-2-9.9s-3.5-2.8-6.4-2.8c-2.3,0-4.1,0.5-5.8,1.2
		c-1.7,0.9-3.7,2.3-5.8,4.3c-0.6,0.6-0.9,1.2-0.9,2.1v36c0,2.9-1.1,5.5-3.2,7.7c-2.1,2.1-4.6,3.2-7.6,3.2L331.7,373.6L331.7,373.6z"
		/>
	<path class="st3" d="M429.2,345.9c0,4.9,0.8,8.4,2.4,10.7c1.5,2.3,4.1,3.5,7.5,3.8c4.3,0,8.9-1.1,13.8-3.2
		c4.7-2.1,11-5.5,18.7-10.3c4.4-3.2,8.4-2.8,11.8,1.5c3.1,4.9,2.4,9.5-2,13.8c-3.8,2.9-7.8,5.7-12.1,8.3c-4.3,2.4-9,4.7-14.4,6.6
		c-5.4,1.8-11,2.9-16.8,3.1c-9.6-0.2-16.5-2.9-20.8-8.4s-6.4-13-6.4-22.8v-62.7c0-6.1,3.1-9.2,9.2-9.2s9.2,3.1,9.2,9.2L429.2,345.9
		L429.2,345.9z"/>
	<path class="st3" d="M495.3,291.6h8.3c0.5-4.4,0.8-6.7,0.8-6.7c0.6-5.4,3.8-8.1,9.5-8c5.4,0.6,7.8,3.2,7.5,8l-0.6,6.7h8.7
		c5.8,0,8.7,2.9,8.7,8.7c0,5.8-2.9,8.7-8.7,8.7h-10.6c-1.8,14.1-3.7,26.3-5.8,36.6c-2,10.3-4,18.8-5.7,26c-1.5,5.2-5.2,7.3-10.9,6.4
		c-6.1-1.2-8.3-4.7-6.4-10.9c1.5-5.2,3.5-13.8,5.8-25.7c2.3-11.9,4.1-22.8,5.5-32.4h-6.1c-5.8,0-8.7-2.9-8.7-8.7
		C486.4,294.5,489.3,291.6,495.3,291.6z M522.1,342.1c2-4.1,5.4-5.7,9.9-4.4c4.9,2.3,6.3,5.2,4.4,8.9c-0.8,1.7-0.9,4.3-0.8,7.6
		c0.3,3.5,4.1,5.4,11.6,5.4c4.6,0,10.1-0.2,16.7-0.5c5.4,0.2,8.1,3.4,8.6,9.6c-0.2,6-3.1,9.2-8.6,9.3c-9,0.3-16.4,0.3-22,0
		c-6-0.3-10.7-1.5-14.2-3.7c-3.5-2.1-5.8-4.9-7.3-8c-1.4-3.2-2.1-6.4-2.1-9.9C518.4,351.6,519.6,346.8,522.1,342.1z M561.8,307.2
		c5,0.2,7.6,2.9,7.6,8.6c-0.2,5.7-2.6,8.4-7.3,8.6c-10.9,0.3-19,0.5-24.2,0.6c-5,0.5-7.5-2.4-7.3-8.4c0.3-5.2,2.3-8.1,6.3-8.6
		C543.3,307.7,551.6,307.4,561.8,307.2z"/>
</g>
</svg>
