<?xml version="1.0" encoding="utf-8"?>
<!-- Generator: Adobe Illustrator 19.0.0, SVG Export Plug-In . SVG Version: 6.00 Build 0)  -->
<svg version="1.1" id="Ebene_1" xmlns="http://www.w3.org/2000/svg" xmlns:xlink="http://www.w3.org/1999/xlink" x="0px" y="0px"
	 viewBox="-250 192.3 1199.1 448.2" style="enable-background:new -250 192.3 1199.1 448.2;" xml:space="preserve">
<style type="text/css">
@font-face {
      	font-family: JD-LCD-Rounded;
      	src: url('/static/fonts/lcd.ttf');
    }
	.st0{fill:#191919;}
	.st1{fill:none;}
	.st2{fill:#E4E4E3;stroke:#212122;stroke-width:5;stroke-miterlimit:10;}
	.st3{fill:#EAC720;}
	.st4{font-family:'JD-LCD-Rounded';}
	.st5{font-size:107.5905px;}
	.st6{fill:#E4E4E4;}
</style>
<polygon id="defaultglco" class="st0" points="906.7,459.4 864.6,498.5 448,498.5 448,514.3 847.6,514.3 847.7,514.3 871.6,514.3 
	930.6,459.4 "/>
<polygon id="defaultglbo" class="st0" points="906.7,459.5 847.6,514.4 847.7,514.4 806.3,552.8 448,552.8 448,569.2 788.6,569.2 
	812.6,569.2 871.6,514.4 930.6,459.5 "/>
<polygon id="defaultglao" class="st0" points="906.7,459.4 847.6,514.3 847.7,514.3 788.6,569.1 746.5,608.3 448,608.3 448,624 
	729.6,624 753.4,624 812.4,569.1 812.6,569.1 871.6,514.3 930.6,459.4 "/>
<polygon id="defaultgldo" class="st0" points="448,459.4 906.7,459.4 918.6,448.4 918.6,443.7 448,443.7 "/>
<polygon id="glco" class="st1" points="906.7,459.4 864.6,498.5 448,498.5 448,514.3 847.6,514.3 847.7,514.3 871.6,514.3 
	930.6,459.4 "/>
<polygon id="glbo" class="st1" points="906.7,459.5 847.6,514.4 847.7,514.4 806.3,552.8 448,552.8 448,569.2 788.6,569.2 
	812.6,569.2 871.6,514.4 930.6,459.5 "/>
<polygon id="glao" class="st1" points="906.7,459.4 847.6,514.3 847.7,514.3 788.6,569.1 746.5,608.3 448,608.3 448,624 729.6,624 
	753.4,624 812.4,569.1 812.6,569.1 871.6,514.3 930.6,459.4 "/>
<polygon id="gldo" class="st1" points="448,459.4 906.7,459.4 918.6,448.4 918.6,443.7 448,443.7 "/>
<polygon id="defaultglcw" class="st0" points="-168.3,498.5 -210.5,459.4 -234.3,459.4 -175.3,514.3 -151.3,514.3 247.9,514.3 
	247.9,498.5 "/>
<polygon id="defaultglbw" class="st0" points="-109.9,552.8 -151.3,514.4 -210.5,459.5 -234.3,459.5 -175.3,514.4 -175.2,514.4 
	-116.2,569.2 -92.3,569.2 247.9,569.2 247.9,552.8 "/>
<polygon id="defaultglaw" class="st0" points="-50.1,608.3 -92.3,569.1 -151.3,514.3 -210.5,459.4 -234.3,459.4 -175.3,514.3 
	-175.2,514.3 -116.2,569.1 -57.2,624 -33.2,624 247.9,624 247.9,608.3 "/>
<polygon id="defaultgldw" class="st0" points="248,443.7 -221.9,443.7 -221.9,448.5 -210.2,459.4 248,459.4 "/>
<polygon id="glcw" class="st1" points="-168.3,498.5 -210.5,459.4 -234.3,459.4 -175.3,514.3 -151.3,514.3 247.9,514.3 247.9,498.5 
	"/>
<polygon id="glbw" class="st1" points="-109.9,552.8 -151.3,514.4 -210.5,459.5 -234.3,459.5 -175.3,514.4 -175.2,514.4 
	-116.2,569.2 -92.3,569.2 247.9,569.2 247.9,552.8 "/>
<polygon id="glaw" class="st1" points="-50.1,608.3 -92.3,569.1 -151.3,514.3 -210.5,459.4 -234.3,459.4 -175.3,514.3 -175.2,514.3 
	-116.2,569.1 -57.2,624 -33.2,624 247.9,624 247.9,608.3 "/>
<polygon id="gldw" class="st1" points="248,443.7 -221.9,443.7 -221.9,448.5 -210.2,459.4 248,459.4 "/>
<path id="glg" class="st0" d="M906.7,459.4l12-11.1V329.6l-113-104.3h-914.2l-113.1,104.3v118.9l11.7,10.9h-23.9l-4.7-4.3v-132
	l123.1-113.4h928.1l123,113.4v131.7l-5,4.6L906.7,459.4L906.7,459.4z"/>
<rect id="defaultgldm" x="248" y="443.7" class="st0" width="200" height="15.7"/>
<rect id="defaultglcm" x="248" y="498.6" class="st0" width="200" height="15.7"/>
<rect id="defaultglbm" x="248" y="553.1" class="st0" width="200" height="15.7"/>
<rect id="defaultglam" x="248" y="608.3" class="st0" width="200" height="15.7"/>
<rect id="gldm" x="248" y="443.7" class="st1" width="200" height="15.7"/>
<rect id="glcm" x="248" y="498.6" class="st1" width="200" height="15.7"/>
<rect id="glbm" x="248" y="553.1" class="st1" width="200" height="15.7"/>
<rect id="glam" x="248" y="608.3" class="st1" width="200" height="15.7"/>
<circle id="sig1o" class="st2" cx="517.6" cy="616.2" r="19.3"/>
<circle id="sig1w" class="st2" cx="177.6" cy="616.2" r="19.3"/>
<circle id="sig2o" class="st2" cx="517.5" cy="561" r="19.3"/>
<circle id="sig2w" class="st2" cx="177.5" cy="561" r="19.3"/>
<circle id="sig3o" class="st2" cx="517.6" cy="505.6" r="19.3"/>
<circle id="sig3w" class="st2" cx="177.6" cy="505.6" r="19.3"/>
<circle id="sig4o" class="st2" cx="517.6" cy="451.6" r="19.3"/>
<circle id="sig4w" class="st2" cx="177.6" cy="451.6" r="19.3"/>
<circle id="sns01" class="st2" cx="247.6" cy="616.2" r="19.3"/>
<circle id="sns02" class="st2" cx="247.5" cy="561" r="19.3"/>
<circle id="sns03" class="st2" cx="247.6" cy="505.6" r="19.3"/>
<circle id="sns04" class="st2" cx="247.6" cy="451.6" r="19.3"/>
<circle id="sns05" class="st2" cx="447.6" cy="616.2" r="19.3"/>
<circle id="sns06" class="st2" cx="447.5" cy="561" r="19.3"/>
<circle id="sns07" class="st2" cx="447.6" cy="505.6" r="19.3"/>
<circle id="sns08" class="st2" cx="447.6" cy="451.6" r="19.3"/>
<circle id="sns17" class="st2" cx="-230.7" cy="385.5" r="19.3"/>
<circle id="sns18" class="st2" cx="348.6" cy="217.3" r="19.3"/>
<circle id="sns19" class="st2" cx="927.8" cy="385.5" r="19.3"/>
<g id="XMLID_150_">
	<path id="XMLID_862_" class="st0" d="M237.1,381.7c-0.6-0.5-0.8-1.1-0.8-1.8c0-0.6,0.2-1.1,0.7-1.7c0.5-0.6,1.1-0.8,1.8-0.8
		c0.6,0,1.1,0.2,1.7,0.7c0.6,0.6,0.8,1.2,0.8,1.8c0,0.7-0.2,1.3-0.7,1.8c-0.5,0.5-1.1,0.7-1.8,0.7
		C238.2,382.5,237.6,382.2,237.1,381.7z"/>
	<path id="XMLID_861_" class="st0" d="M237.1,388.5c-0.6-0.5-0.8-1.1-0.8-1.8c0-0.6,0.2-1.1,0.7-1.7c0.5-0.6,1.1-0.8,1.8-0.8
		c0.6,0,1.1,0.2,1.7,0.7c0.6,0.6,0.8,1.2,0.8,1.8c0,0.7-0.2,1.3-0.7,1.8c-0.5,0.5-1.1,0.7-1.8,0.7
		C238.2,389.2,237.6,389,237.1,388.5z"/>
	<path id="XMLID_860_" class="st0" d="M237.1,395.2c-0.6-0.5-0.8-1.1-0.8-1.8c0-0.6,0.2-1.1,0.7-1.7c0.5-0.6,1.1-0.8,1.8-0.8
		c0.6,0,1.1,0.2,1.7,0.7c0.6,0.6,0.8,1.2,0.8,1.8c0,0.7-0.2,1.3-0.7,1.8c-0.5,0.5-1.1,0.7-1.8,0.7
		C238.2,395.9,237.6,395.7,237.1,395.2z"/>
	<path id="XMLID_859_" class="st0" d="M237.1,401.9c-0.6-0.5-0.8-1.1-0.8-1.8c0-0.6,0.2-1.1,0.7-1.7c0.5-0.6,1.1-0.8,1.8-0.8
		c0.6,0,1.1,0.2,1.7,0.7c0.6,0.6,0.8,1.2,0.8,1.8c0,0.7-0.2,1.3-0.7,1.8c-0.5,0.5-1.1,0.7-1.8,0.7
		C238.2,402.6,237.6,402.4,237.1,401.9z"/>
	<path id="XMLID_858_" class="st0" d="M237.1,408.6c-0.6-0.5-0.8-1.1-0.8-1.8c0-0.6,0.2-1.1,0.7-1.7c0.5-0.6,1.1-0.8,1.8-0.8
		c0.6,0,1.1,0.2,1.7,0.7c0.6,0.6,0.8,1.2,0.8,1.8c0,0.7-0.2,1.3-0.7,1.8c-0.5,0.5-1.1,0.7-1.8,0.7
		C238.2,409.4,237.6,409.1,237.1,408.6z"/>
	<path id="XMLID_857_" class="st0" d="M243.8,375c-0.6-0.5-0.8-1.1-0.8-1.8c0-0.6,0.2-1.1,0.7-1.7c0.5-0.6,1.1-0.8,1.8-0.8
		c0.6,0,1.1,0.2,1.7,0.7c0.6,0.6,0.8,1.2,0.8,1.8c0,0.7-0.2,1.3-0.7,1.8c-0.5,0.5-1.1,0.7-1.8,0.7
		C244.9,375.7,244.3,375.5,243.8,375z"/>
	<path id="XMLID_856_" class="st0" d="M243.8,415.4c-0.6-0.5-0.8-1.1-0.8-1.8c0-0.6,0.2-1.1,0.7-1.7c0.5-0.6,1.1-0.8,1.8-0.8
		c0.6,0,1.1,0.2,1.7,0.7c0.6,0.6,0.8,1.2,0.8,1.8c0,0.7-0.2,1.3-0.7,1.8c-0.5,0.5-1.1,0.7-1.8,0.7
		C244.9,416.1,244.3,415.9,243.8,415.4z"/>
	<path id="XMLID_855_" class="st0" d="M250.5,375c-0.6-0.5-0.8-1.1-0.8-1.8c0-0.6,0.2-1.1,0.7-1.7c0.5-0.6,1.1-0.8,1.8-0.8
		c0.6,0,1.1,0.2,1.7,0.7c0.6,0.6,0.8,1.2,0.8,1.8c0,0.7-0.2,1.3-0.7,1.8c-0.5,0.5-1.1,0.7-1.8,0.7
		C251.6,375.7,251.1,375.5,250.5,375z"/>
	<path id="XMLID_854_" class="st0" d="M250.5,415.4c-0.6-0.5-0.8-1.1-0.8-1.8c0-0.6,0.2-1.1,0.7-1.7c0.5-0.6,1.1-0.8,1.8-0.8
		c0.6,0,1.1,0.2,1.7,0.7c0.6,0.6,0.8,1.2,0.8,1.8c0,0.7-0.2,1.3-0.7,1.8c-0.5,0.5-1.1,0.7-1.8,0.7
		C251.6,416.1,251.1,415.9,250.5,415.4z"/>
	<path id="XMLID_853_" class="st0" d="M257.2,375c-0.6-0.5-0.8-1.1-0.8-1.8c0-0.6,0.2-1.1,0.7-1.7c0.5-0.6,1.1-0.8,1.8-0.8
		c0.6,0,1.1,0.2,1.7,0.7c0.6,0.6,0.8,1.2,0.8,1.8c0,0.7-0.2,1.3-0.7,1.8c-0.5,0.5-1.1,0.7-1.8,0.7
		C258.3,375.7,257.8,375.5,257.2,375z"/>
	<path id="XMLID_852_" class="st0" d="M257.2,415.4c-0.6-0.5-0.8-1.1-0.8-1.8c0-0.6,0.2-1.1,0.7-1.7c0.5-0.6,1.1-0.8,1.8-0.8
		c0.6,0,1.1,0.2,1.7,0.7c0.6,0.6,0.8,1.2,0.8,1.8c0,0.7-0.2,1.3-0.7,1.8c-0.5,0.5-1.1,0.7-1.8,0.7
		C258.3,416.1,257.8,415.9,257.2,415.4z"/>
	<path id="XMLID_851_" class="st0" d="M264,381.7c-0.6-0.5-0.8-1.1-0.8-1.8c0-0.6,0.2-1.1,0.7-1.7c0.5-0.6,1.1-0.8,1.8-0.8
		c0.6,0,1.1,0.2,1.7,0.7c0.6,0.6,0.8,1.2,0.8,1.8c0,0.7-0.2,1.3-0.7,1.8c-0.5,0.5-1.1,0.7-1.8,0.7
		C265.1,382.5,264.5,382.2,264,381.7z"/>
	<path id="XMLID_850_" class="st0" d="M264,388.5c-0.6-0.5-0.8-1.1-0.8-1.8c0-0.6,0.2-1.1,0.7-1.7c0.5-0.6,1.1-0.8,1.8-0.8
		c0.6,0,1.1,0.2,1.7,0.7c0.6,0.6,0.8,1.2,0.8,1.8c0,0.7-0.2,1.3-0.7,1.8c-0.5,0.5-1.1,0.7-1.8,0.7C265.1,389.2,264.5,389,264,388.5z
		"/>
	<path id="XMLID_849_" class="st0" d="M264,395.2c-0.6-0.5-0.8-1.1-0.8-1.8c0-0.6,0.2-1.1,0.7-1.7c0.5-0.6,1.1-0.8,1.8-0.8
		c0.6,0,1.1,0.2,1.7,0.7c0.6,0.6,0.8,1.2,0.8,1.8c0,0.7-0.2,1.3-0.7,1.8c-0.5,0.5-1.1,0.7-1.8,0.7
		C265.1,395.9,264.5,395.7,264,395.2z"/>
	<path id="XMLID_848_" class="st0" d="M264,401.9c-0.6-0.5-0.8-1.1-0.8-1.8c0-0.6,0.2-1.1,0.7-1.7c0.5-0.6,1.1-0.8,1.8-0.8
		c0.6,0,1.1,0.2,1.7,0.7c0.6,0.6,0.8,1.2,0.8,1.8c0,0.7-0.2,1.3-0.7,1.8c-0.5,0.5-1.1,0.7-1.8,0.7
		C265.1,402.6,264.5,402.4,264,401.9z"/>
	<path id="XMLID_847_" class="st0" d="M264,408.6c-0.6-0.5-0.8-1.1-0.8-1.8c0-0.6,0.2-1.1,0.7-1.7c0.5-0.6,1.1-0.8,1.8-0.8
		c0.6,0,1.1,0.2,1.7,0.7c0.6,0.6,0.8,1.2,0.8,1.8c0,0.7-0.2,1.3-0.7,1.8c-0.5,0.5-1.1,0.7-1.8,0.7
		C265.1,409.4,264.5,409.1,264,408.6z"/>
	<path id="XMLID_846_" class="st0" d="M284,375c-0.6-0.5-0.8-1.1-0.8-1.8c0-0.6,0.2-1.1,0.7-1.7c0.5-0.6,1.1-0.8,1.8-0.8
		c0.6,0,1.1,0.2,1.7,0.7c0.6,0.6,0.8,1.2,0.8,1.8c0,0.7-0.2,1.3-0.7,1.8c-0.5,0.5-1.1,0.7-1.8,0.7C285.1,375.7,284.6,375.5,284,375z
		"/>
	<path id="XMLID_845_" class="st0" d="M324.3,375c-0.6-0.5-0.8-1.1-0.8-1.8c0-0.6,0.2-1.1,0.7-1.7c0.5-0.6,1.1-0.8,1.8-0.8
		c0.6,0,1.1,0.2,1.7,0.7c0.6,0.6,0.8,1.2,0.8,1.8c0,0.7-0.2,1.3-0.7,1.8c-0.5,0.5-1.1,0.7-1.8,0.7
		C325.4,375.7,324.8,375.5,324.3,375z"/>
	<path id="XMLID_844_" class="st0" d="M237.1,375c-0.6-0.5-0.8-1.1-0.8-1.8c0-0.6,0.2-1.1,0.7-1.7c0.5-0.6,1.1-0.8,1.8-0.8
		c0.6,0,1.1,0.2,1.7,0.7c0.6,0.6,0.8,1.2,0.8,1.8c0,0.7-0.2,1.3-0.7,1.8c-0.5,0.5-1.1,0.7-1.8,0.7
		C238.2,375.7,237.6,375.5,237.1,375z"/>
	<path id="XMLID_843_" class="st0" d="M264,375c-0.6-0.5-0.8-1.1-0.8-1.8c0-0.6,0.2-1.1,0.7-1.7c0.5-0.6,1.1-0.8,1.8-0.8
		c0.6,0,1.1,0.2,1.7,0.7c0.6,0.6,0.8,1.2,0.8,1.8c0,0.7-0.2,1.3-0.7,1.8c-0.5,0.5-1.1,0.7-1.8,0.7C265.1,375.7,264.5,375.5,264,375z
		"/>
	<path id="XMLID_842_" class="st0" d="M237.1,415.4c-0.6-0.5-0.8-1.1-0.8-1.8c0-0.6,0.2-1.1,0.7-1.7c0.5-0.6,1.1-0.8,1.8-0.8
		c0.6,0,1.1,0.2,1.7,0.7c0.6,0.6,0.8,1.2,0.8,1.8c0,0.7-0.2,1.3-0.7,1.8c-0.5,0.5-1.1,0.7-1.8,0.7
		C238.2,416.1,237.6,415.9,237.1,415.4z"/>
	<path id="XMLID_841_" class="st0" d="M264,415.4c-0.6-0.5-0.8-1.1-0.8-1.8c0-0.6,0.2-1.1,0.7-1.7c0.5-0.6,1.1-0.8,1.8-0.8
		c0.6,0,1.1,0.2,1.7,0.7c0.6,0.6,0.8,1.2,0.8,1.8c0,0.7-0.2,1.3-0.7,1.8c-0.5,0.5-1.1,0.7-1.8,0.7
		C265.1,416.1,264.5,415.9,264,415.4z"/>
	<path id="XMLID_840_" class="st0" d="M243.8,381.7c-0.6-0.5-0.8-1.1-0.8-1.8c0-0.6,0.2-1.1,0.7-1.7c0.5-0.6,1.1-0.8,1.8-0.8
		c0.6,0,1.1,0.2,1.7,0.7c0.6,0.6,0.8,1.2,0.8,1.8c0,0.7-0.2,1.3-0.7,1.8c-0.5,0.5-1.1,0.7-1.8,0.7
		C244.9,382.5,244.3,382.2,243.8,381.7z"/>
	<path id="XMLID_839_" class="st0" d="M243.8,388.5c-0.6-0.5-0.8-1.1-0.8-1.8c0-0.6,0.2-1.1,0.7-1.7c0.5-0.6,1.1-0.8,1.8-0.8
		c0.6,0,1.1,0.2,1.7,0.7c0.6,0.6,0.8,1.2,0.8,1.8c0,0.7-0.2,1.3-0.7,1.8c-0.5,0.5-1.1,0.7-1.8,0.7
		C244.9,389.2,244.3,389,243.8,388.5z"/>
	<path id="XMLID_838_" class="st0" d="M243.8,395.2c-0.6-0.5-0.8-1.1-0.8-1.8c0-0.6,0.2-1.1,0.7-1.7c0.5-0.6,1.1-0.8,1.8-0.8
		c0.6,0,1.1,0.2,1.7,0.7c0.6,0.6,0.8,1.2,0.8,1.8c0,0.7-0.2,1.3-0.7,1.8c-0.5,0.5-1.1,0.7-1.8,0.7
		C244.9,395.9,244.3,395.7,243.8,395.2z"/>
	<path id="XMLID_837_" class="st0" d="M243.8,401.9c-0.6-0.5-0.8-1.1-0.8-1.8c0-0.6,0.2-1.1,0.7-1.7c0.5-0.6,1.1-0.8,1.8-0.8
		c0.6,0,1.1,0.2,1.7,0.7c0.6,0.6,0.8,1.2,0.8,1.8c0,0.7-0.2,1.3-0.7,1.8c-0.5,0.5-1.1,0.7-1.8,0.7
		C244.9,402.6,244.3,402.4,243.8,401.9z"/>
	<path id="XMLID_836_" class="st0" d="M243.8,408.6c-0.6-0.5-0.8-1.1-0.8-1.8c0-0.6,0.2-1.1,0.7-1.7c0.5-0.6,1.1-0.8,1.8-0.8
		c0.6,0,1.1,0.2,1.7,0.7c0.6,0.6,0.8,1.2,0.8,1.8c0,0.7-0.2,1.3-0.7,1.8c-0.5,0.5-1.1,0.7-1.8,0.7
		C244.9,409.4,244.3,409.1,243.8,408.6z"/>
	<path id="XMLID_835_" class="st0" d="M250.5,381.7c-0.6-0.5-0.8-1.1-0.8-1.8c0-0.6,0.2-1.1,0.7-1.7c0.5-0.6,1.1-0.8,1.8-0.8
		c0.6,0,1.1,0.2,1.7,0.7c0.6,0.6,0.8,1.2,0.8,1.8c0,0.7-0.2,1.3-0.7,1.8c-0.5,0.5-1.1,0.7-1.8,0.7
		C251.6,382.5,251.1,382.2,250.5,381.7z"/>
	<path id="XMLID_834_" class="st0" d="M250.5,388.5c-0.6-0.5-0.8-1.1-0.8-1.8c0-0.6,0.2-1.1,0.7-1.7c0.5-0.6,1.1-0.8,1.8-0.8
		c0.6,0,1.1,0.2,1.7,0.7c0.6,0.6,0.8,1.2,0.8,1.8c0,0.7-0.2,1.3-0.7,1.8c-0.5,0.5-1.1,0.7-1.8,0.7
		C251.6,389.2,251.1,389,250.5,388.5z"/>
	<path id="XMLID_833_" class="st0" d="M250.5,395.2c-0.6-0.5-0.8-1.1-0.8-1.8c0-0.6,0.2-1.1,0.7-1.7c0.5-0.6,1.1-0.8,1.8-0.8
		c0.6,0,1.1,0.2,1.7,0.7c0.6,0.6,0.8,1.2,0.8,1.8c0,0.7-0.2,1.3-0.7,1.8c-0.5,0.5-1.1,0.7-1.8,0.7
		C251.6,395.9,251.1,395.7,250.5,395.2z"/>
	<path id="XMLID_832_" class="st0" d="M250.5,401.9c-0.6-0.5-0.8-1.1-0.8-1.8c0-0.6,0.2-1.1,0.7-1.7c0.5-0.6,1.1-0.8,1.8-0.8
		c0.6,0,1.1,0.2,1.7,0.7c0.6,0.6,0.8,1.2,0.8,1.8c0,0.7-0.2,1.3-0.7,1.8c-0.5,0.5-1.1,0.7-1.8,0.7
		C251.6,402.6,251.1,402.4,250.5,401.9z"/>
	<path id="XMLID_831_" class="st0" d="M250.5,408.6c-0.6-0.5-0.8-1.1-0.8-1.8c0-0.6,0.2-1.1,0.7-1.7c0.5-0.6,1.1-0.8,1.8-0.8
		c0.6,0,1.1,0.2,1.7,0.7c0.6,0.6,0.8,1.2,0.8,1.8c0,0.7-0.2,1.3-0.7,1.8c-0.5,0.5-1.1,0.7-1.8,0.7
		C251.6,409.4,251.1,409.1,250.5,408.6z"/>
	<path id="XMLID_830_" class="st0" d="M257.2,381.7c-0.6-0.5-0.8-1.1-0.8-1.8c0-0.6,0.2-1.1,0.7-1.7c0.5-0.6,1.1-0.8,1.8-0.8
		c0.6,0,1.1,0.2,1.7,0.7c0.6,0.6,0.8,1.2,0.8,1.8c0,0.7-0.2,1.3-0.7,1.8c-0.5,0.5-1.1,0.7-1.8,0.7
		C258.3,382.5,257.8,382.2,257.2,381.7z"/>
	<path id="XMLID_829_" class="st0" d="M257.2,388.5c-0.6-0.5-0.8-1.1-0.8-1.8c0-0.6,0.2-1.1,0.7-1.7c0.5-0.6,1.1-0.8,1.8-0.8
		c0.6,0,1.1,0.2,1.7,0.7c0.6,0.6,0.8,1.2,0.8,1.8c0,0.7-0.2,1.3-0.7,1.8c-0.5,0.5-1.1,0.7-1.8,0.7
		C258.3,389.2,257.8,389,257.2,388.5z"/>
	<path id="XMLID_828_" class="st0" d="M257.2,395.2c-0.6-0.5-0.8-1.1-0.8-1.8c0-0.6,0.2-1.1,0.7-1.7c0.5-0.6,1.1-0.8,1.8-0.8
		c0.6,0,1.1,0.2,1.7,0.7c0.6,0.6,0.8,1.2,0.8,1.8c0,0.7-0.2,1.3-0.7,1.8c-0.5,0.5-1.1,0.7-1.8,0.7
		C258.3,395.9,257.8,395.7,257.2,395.2z"/>
	<path id="XMLID_827_" class="st0" d="M257.2,401.9c-0.6-0.5-0.8-1.1-0.8-1.8c0-0.6,0.2-1.1,0.7-1.7c0.5-0.6,1.1-0.8,1.8-0.8
		c0.6,0,1.1,0.2,1.7,0.7c0.6,0.6,0.8,1.2,0.8,1.8c0,0.7-0.2,1.3-0.7,1.8c-0.5,0.5-1.1,0.7-1.8,0.7
		C258.3,402.6,257.8,402.4,257.2,401.9z"/>
	<path id="XMLID_826_" class="st0" d="M257.2,408.6c-0.6-0.5-0.8-1.1-0.8-1.8c0-0.6,0.2-1.1,0.7-1.7c0.5-0.6,1.1-0.8,1.8-0.8
		c0.6,0,1.1,0.2,1.7,0.7c0.6,0.6,0.8,1.2,0.8,1.8c0,0.7-0.2,1.3-0.7,1.8c-0.5,0.5-1.1,0.7-1.8,0.7
		C258.3,409.4,257.8,409.1,257.2,408.6z"/>
	<path id="XMLID_825_" class="st0" d="M277.3,381.7c-0.6-0.5-0.8-1.1-0.8-1.8c0-0.6,0.2-1.1,0.7-1.7c0.5-0.6,1.1-0.8,1.8-0.8
		c0.6,0,1.1,0.2,1.7,0.7c0.6,0.6,0.8,1.2,0.8,1.8c0,0.7-0.2,1.3-0.7,1.8c-0.5,0.5-1.1,0.7-1.8,0.7
		C278.4,382.5,277.9,382.2,277.3,381.7z"/>
	<path id="XMLID_824_" class="st0" d="M277.3,388.5c-0.6-0.5-0.8-1.1-0.8-1.8c0-0.6,0.2-1.1,0.7-1.7c0.5-0.6,1.1-0.8,1.8-0.8
		c0.6,0,1.1,0.2,1.7,0.7c0.6,0.6,0.8,1.2,0.8,1.8c0,0.7-0.2,1.3-0.7,1.8c-0.5,0.5-1.1,0.7-1.8,0.7
		C278.4,389.2,277.9,389,277.3,388.5z"/>
	<path id="XMLID_823_" class="st0" d="M277.3,395.2c-0.6-0.5-0.8-1.1-0.8-1.8c0-0.6,0.2-1.1,0.7-1.7c0.5-0.6,1.1-0.8,1.8-0.8
		c0.6,0,1.1,0.2,1.7,0.7c0.6,0.6,0.8,1.2,0.8,1.8c0,0.7-0.2,1.3-0.7,1.8c-0.5,0.5-1.1,0.7-1.8,0.7
		C278.4,395.9,277.9,395.7,277.3,395.2z"/>
	<path id="XMLID_822_" class="st0" d="M277.3,401.9c-0.6-0.5-0.8-1.1-0.8-1.8c0-0.6,0.2-1.1,0.7-1.7c0.5-0.6,1.1-0.8,1.8-0.8
		c0.6,0,1.1,0.2,1.7,0.7c0.6,0.6,0.8,1.2,0.8,1.8c0,0.7-0.2,1.3-0.7,1.8c-0.5,0.5-1.1,0.7-1.8,0.7
		C278.4,402.6,277.9,402.4,277.3,401.9z"/>
	<path id="XMLID_821_" class="st0" d="M277.3,408.6c-0.6-0.5-0.8-1.1-0.8-1.8c0-0.6,0.2-1.1,0.7-1.7c0.5-0.6,1.1-0.8,1.8-0.8
		c0.6,0,1.1,0.2,1.7,0.7c0.6,0.6,0.8,1.2,0.8,1.8c0,0.7-0.2,1.3-0.7,1.8c-0.5,0.5-1.1,0.7-1.8,0.7
		C278.4,409.4,277.9,409.1,277.3,408.6z"/>
	<path id="XMLID_820_" class="st0" d="M284,415.4c-0.6-0.5-0.8-1.1-0.8-1.8c0-0.6,0.2-1.1,0.7-1.7c0.5-0.6,1.1-0.8,1.8-0.8
		c0.6,0,1.1,0.2,1.7,0.7c0.6,0.6,0.8,1.2,0.8,1.8c0,0.7-0.2,1.3-0.7,1.8c-0.5,0.5-1.1,0.7-1.8,0.7
		C285.1,416.1,284.6,415.9,284,415.4z"/>
	<path id="XMLID_819_" class="st0" d="M290.7,375c-0.6-0.5-0.8-1.1-0.8-1.8c0-0.6,0.2-1.1,0.7-1.7c0.5-0.6,1.1-0.8,1.8-0.8
		c0.6,0,1.1,0.2,1.7,0.7c0.6,0.6,0.8,1.2,0.8,1.8c0,0.7-0.2,1.3-0.7,1.8c-0.5,0.5-1.1,0.7-1.8,0.7
		C291.9,375.7,291.3,375.5,290.7,375z"/>
	<path id="XMLID_818_" class="st0" d="M290.7,415.4c-0.6-0.5-0.8-1.1-0.8-1.8c0-0.6,0.2-1.1,0.7-1.7c0.5-0.6,1.1-0.8,1.8-0.8
		c0.6,0,1.1,0.2,1.7,0.7c0.6,0.6,0.8,1.2,0.8,1.8c0,0.7-0.2,1.3-0.7,1.8c-0.5,0.5-1.1,0.7-1.8,0.7
		C291.9,416.1,291.3,415.9,290.7,415.4z"/>
	<path id="XMLID_817_" class="st0" d="M297.5,375c-0.6-0.5-0.8-1.1-0.8-1.8c0-0.6,0.2-1.1,0.7-1.7c0.5-0.6,1.1-0.8,1.8-0.8
		c0.6,0,1.1,0.2,1.7,0.7c0.6,0.6,0.8,1.2,0.8,1.8c0,0.7-0.2,1.3-0.7,1.8c-0.5,0.5-1.1,0.7-1.8,0.7C298.6,375.7,298,375.5,297.5,375z
		"/>
	<path id="XMLID_816_" class="st0" d="M297.5,415.4c-0.6-0.5-0.8-1.1-0.8-1.8c0-0.6,0.2-1.1,0.7-1.7c0.5-0.6,1.1-0.8,1.8-0.8
		c0.6,0,1.1,0.2,1.7,0.7c0.6,0.6,0.8,1.2,0.8,1.8c0,0.7-0.2,1.3-0.7,1.8c-0.5,0.5-1.1,0.7-1.8,0.7
		C298.6,416.1,298,415.9,297.5,415.4z"/>
	<path id="XMLID_815_" class="st0" d="M304.2,381.7c-0.6-0.5-0.8-1.1-0.8-1.8c0-0.6,0.2-1.1,0.7-1.7c0.5-0.6,1.1-0.8,1.8-0.8
		c0.6,0,1.1,0.2,1.7,0.7c0.6,0.6,0.8,1.2,0.8,1.8c0,0.7-0.2,1.3-0.7,1.8c-0.5,0.5-1.1,0.7-1.8,0.7
		C305.3,382.5,304.8,382.2,304.2,381.7z"/>
	<path id="XMLID_814_" class="st0" d="M304.2,388.5c-0.6-0.5-0.8-1.1-0.8-1.8c0-0.6,0.2-1.1,0.7-1.7c0.5-0.6,1.1-0.8,1.8-0.8
		c0.6,0,1.1,0.2,1.7,0.7c0.6,0.6,0.8,1.2,0.8,1.8c0,0.7-0.2,1.3-0.7,1.8c-0.5,0.5-1.1,0.7-1.8,0.7
		C305.3,389.2,304.8,389,304.2,388.5z"/>
	<path id="XMLID_813_" class="st0" d="M304.2,395.2c-0.6-0.5-0.8-1.1-0.8-1.8c0-0.6,0.2-1.1,0.7-1.7c0.5-0.6,1.1-0.8,1.8-0.8
		c0.6,0,1.1,0.2,1.7,0.7c0.6,0.6,0.8,1.2,0.8,1.8c0,0.7-0.2,1.3-0.7,1.8c-0.5,0.5-1.1,0.7-1.8,0.7
		C305.3,395.9,304.8,395.7,304.2,395.2z"/>
	<path id="XMLID_812_" class="st0" d="M304.2,401.9c-0.6-0.5-0.8-1.1-0.8-1.8c0-0.6,0.2-1.1,0.7-1.7c0.5-0.6,1.1-0.8,1.8-0.8
		c0.6,0,1.1,0.2,1.7,0.7c0.6,0.6,0.8,1.2,0.8,1.8c0,0.7-0.2,1.3-0.7,1.8c-0.5,0.5-1.1,0.7-1.8,0.7
		C305.3,402.6,304.8,402.4,304.2,401.9z"/>
	<path id="XMLID_811_" class="st0" d="M304.2,408.6c-0.6-0.5-0.8-1.1-0.8-1.8c0-0.6,0.2-1.1,0.7-1.7c0.5-0.6,1.1-0.8,1.8-0.8
		c0.6,0,1.1,0.2,1.7,0.7c0.6,0.6,0.8,1.2,0.8,1.8c0,0.7-0.2,1.3-0.7,1.8c-0.5,0.5-1.1,0.7-1.8,0.7
		C305.3,409.4,304.8,409.1,304.2,408.6z"/>
	<path id="XMLID_810_" class="st0" d="M277.3,375c-0.6-0.5-0.8-1.1-0.8-1.8c0-0.6,0.2-1.1,0.7-1.7c0.5-0.6,1.1-0.8,1.8-0.8
		c0.6,0,1.1,0.2,1.7,0.7c0.6,0.6,0.8,1.2,0.8,1.8c0,0.7-0.2,1.3-0.7,1.8c-0.5,0.5-1.1,0.7-1.8,0.7
		C278.4,375.7,277.9,375.5,277.3,375z"/>
	<path id="XMLID_809_" class="st0" d="M304.2,375c-0.6-0.5-0.8-1.1-0.8-1.8c0-0.6,0.2-1.1,0.7-1.7c0.5-0.6,1.1-0.8,1.8-0.8
		c0.6,0,1.1,0.2,1.7,0.7c0.6,0.6,0.8,1.2,0.8,1.8c0,0.7-0.2,1.3-0.7,1.8c-0.5,0.5-1.1,0.7-1.8,0.7
		C305.3,375.7,304.8,375.5,304.2,375z"/>
	<path id="XMLID_808_" class="st0" d="M277.3,415.4c-0.6-0.5-0.8-1.1-0.8-1.8c0-0.6,0.2-1.1,0.7-1.7c0.5-0.6,1.1-0.8,1.8-0.8
		c0.6,0,1.1,0.2,1.7,0.7c0.6,0.6,0.8,1.2,0.8,1.8c0,0.7-0.2,1.3-0.7,1.8c-0.5,0.5-1.1,0.7-1.8,0.7
		C278.4,416.1,277.9,415.9,277.3,415.4z"/>
	<path id="XMLID_807_" class="st0" d="M304.2,415.4c-0.6-0.5-0.8-1.1-0.8-1.8c0-0.6,0.2-1.1,0.7-1.7c0.5-0.6,1.1-0.8,1.8-0.8
		c0.6,0,1.1,0.2,1.7,0.7c0.6,0.6,0.8,1.2,0.8,1.8c0,0.7-0.2,1.3-0.7,1.8c-0.5,0.5-1.1,0.7-1.8,0.7
		C305.3,416.1,304.8,415.9,304.2,415.4z"/>
	<path id="XMLID_806_" class="st0" d="M284,381.7c-0.6-0.5-0.8-1.1-0.8-1.8c0-0.6,0.2-1.1,0.7-1.7c0.5-0.6,1.1-0.8,1.8-0.8
		c0.6,0,1.1,0.2,1.7,0.7c0.6,0.6,0.8,1.2,0.8,1.8c0,0.7-0.2,1.3-0.7,1.8c-0.5,0.5-1.1,0.7-1.8,0.7
		C285.1,382.5,284.6,382.2,284,381.7z"/>
	<path id="XMLID_805_" class="st0" d="M284,388.5c-0.6-0.5-0.8-1.1-0.8-1.8c0-0.6,0.2-1.1,0.7-1.7c0.5-0.6,1.1-0.8,1.8-0.8
		c0.6,0,1.1,0.2,1.7,0.7c0.6,0.6,0.8,1.2,0.8,1.8c0,0.7-0.2,1.3-0.7,1.8c-0.5,0.5-1.1,0.7-1.8,0.7C285.1,389.2,284.6,389,284,388.5z
		"/>
	<path id="XMLID_804_" class="st0" d="M284,395.2c-0.6-0.5-0.8-1.1-0.8-1.8c0-0.6,0.2-1.1,0.7-1.7c0.5-0.6,1.1-0.8,1.8-0.8
		c0.6,0,1.1,0.2,1.7,0.7c0.6,0.6,0.8,1.2,0.8,1.8c0,0.7-0.2,1.3-0.7,1.8c-0.5,0.5-1.1,0.7-1.8,0.7
		C285.1,395.9,284.6,395.7,284,395.2z"/>
	<path id="XMLID_803_" class="st0" d="M284,401.9c-0.6-0.5-0.8-1.1-0.8-1.8c0-0.6,0.2-1.1,0.7-1.7c0.5-0.6,1.1-0.8,1.8-0.8
		c0.6,0,1.1,0.2,1.7,0.7c0.6,0.6,0.8,1.2,0.8,1.8c0,0.7-0.2,1.3-0.7,1.8c-0.5,0.5-1.1,0.7-1.8,0.7
		C285.1,402.6,284.6,402.4,284,401.9z"/>
	<path id="XMLID_802_" class="st0" d="M284,408.6c-0.6-0.5-0.8-1.1-0.8-1.8c0-0.6,0.2-1.1,0.7-1.7c0.5-0.6,1.1-0.8,1.8-0.8
		c0.6,0,1.1,0.2,1.7,0.7c0.6,0.6,0.8,1.2,0.8,1.8c0,0.7-0.2,1.3-0.7,1.8c-0.5,0.5-1.1,0.7-1.8,0.7
		C285.1,409.4,284.6,409.1,284,408.6z"/>
	<path id="XMLID_801_" class="st0" d="M290.7,381.7c-0.6-0.5-0.8-1.1-0.8-1.8c0-0.6,0.2-1.1,0.7-1.7c0.5-0.6,1.1-0.8,1.8-0.8
		c0.6,0,1.1,0.2,1.7,0.7c0.6,0.6,0.8,1.2,0.8,1.8c0,0.7-0.2,1.3-0.7,1.8c-0.5,0.5-1.1,0.7-1.8,0.7
		C291.9,382.5,291.3,382.2,290.7,381.7z"/>
	<path id="XMLID_800_" class="st0" d="M290.7,388.5c-0.6-0.5-0.8-1.1-0.8-1.8c0-0.6,0.2-1.1,0.7-1.7c0.5-0.6,1.1-0.8,1.8-0.8
		c0.6,0,1.1,0.2,1.7,0.7c0.6,0.6,0.8,1.2,0.8,1.8c0,0.7-0.2,1.3-0.7,1.8c-0.5,0.5-1.1,0.7-1.8,0.7
		C291.9,389.2,291.3,389,290.7,388.5z"/>
	<path id="XMLID_799_" class="st0" d="M290.7,395.2c-0.6-0.5-0.8-1.1-0.8-1.8c0-0.6,0.2-1.1,0.7-1.7c0.5-0.6,1.1-0.8,1.8-0.8
		c0.6,0,1.1,0.2,1.7,0.7c0.6,0.6,0.8,1.2,0.8,1.8c0,0.7-0.2,1.3-0.7,1.8c-0.5,0.5-1.1,0.7-1.8,0.7
		C291.9,395.9,291.3,395.7,290.7,395.2z"/>
	<path id="XMLID_798_" class="st0" d="M290.7,401.9c-0.6-0.5-0.8-1.1-0.8-1.8c0-0.6,0.2-1.1,0.7-1.7c0.5-0.6,1.1-0.8,1.8-0.8
		c0.6,0,1.1,0.2,1.7,0.7c0.6,0.6,0.8,1.2,0.8,1.8c0,0.7-0.2,1.3-0.7,1.8c-0.5,0.5-1.1,0.7-1.8,0.7
		C291.9,402.6,291.3,402.4,290.7,401.9z"/>
	<path id="XMLID_797_" class="st0" d="M290.7,408.6c-0.6-0.5-0.8-1.1-0.8-1.8c0-0.6,0.2-1.1,0.7-1.7c0.5-0.6,1.1-0.8,1.8-0.8
		c0.6,0,1.1,0.2,1.7,0.7c0.6,0.6,0.8,1.2,0.8,1.8c0,0.7-0.2,1.3-0.7,1.8c-0.5,0.5-1.1,0.7-1.8,0.7
		C291.9,409.4,291.3,409.1,290.7,408.6z"/>
	<path id="XMLID_796_" class="st0" d="M297.5,381.7c-0.6-0.5-0.8-1.1-0.8-1.8c0-0.6,0.2-1.1,0.7-1.7c0.5-0.6,1.1-0.8,1.8-0.8
		c0.6,0,1.1,0.2,1.7,0.7c0.6,0.6,0.8,1.2,0.8,1.8c0,0.7-0.2,1.3-0.7,1.8c-0.5,0.5-1.1,0.7-1.8,0.7
		C298.6,382.5,298,382.2,297.5,381.7z"/>
	<path id="XMLID_795_" class="st0" d="M297.5,388.5c-0.6-0.5-0.8-1.1-0.8-1.8c0-0.6,0.2-1.1,0.7-1.7c0.5-0.6,1.1-0.8,1.8-0.8
		c0.6,0,1.1,0.2,1.7,0.7c0.6,0.6,0.8,1.2,0.8,1.8c0,0.7-0.2,1.3-0.7,1.8c-0.5,0.5-1.1,0.7-1.8,0.7C298.6,389.2,298,389,297.5,388.5z
		"/>
	<path id="XMLID_794_" class="st0" d="M297.5,395.2c-0.6-0.5-0.8-1.1-0.8-1.8c0-0.6,0.2-1.1,0.7-1.7c0.5-0.6,1.1-0.8,1.8-0.8
		c0.6,0,1.1,0.2,1.7,0.7c0.6,0.6,0.8,1.2,0.8,1.8c0,0.7-0.2,1.3-0.7,1.8c-0.5,0.5-1.1,0.7-1.8,0.7
		C298.6,395.9,298,395.7,297.5,395.2z"/>
	<path id="XMLID_793_" class="st0" d="M297.5,401.9c-0.6-0.5-0.8-1.1-0.8-1.8c0-0.6,0.2-1.1,0.7-1.7c0.5-0.6,1.1-0.8,1.8-0.8
		c0.6,0,1.1,0.2,1.7,0.7c0.6,0.6,0.8,1.2,0.8,1.8c0,0.7-0.2,1.3-0.7,1.8c-0.5,0.5-1.1,0.7-1.8,0.7
		C298.6,402.6,298,402.4,297.5,401.9z"/>
	<path id="XMLID_792_" class="st0" d="M297.5,408.6c-0.6-0.5-0.8-1.1-0.8-1.8c0-0.6,0.2-1.1,0.7-1.7c0.5-0.6,1.1-0.8,1.8-0.8
		c0.6,0,1.1,0.2,1.7,0.7c0.6,0.6,0.8,1.2,0.8,1.8c0,0.7-0.2,1.3-0.7,1.8c-0.5,0.5-1.1,0.7-1.8,0.7
		C298.6,409.4,298,409.1,297.5,408.6z"/>
	<path id="XMLID_791_" class="st0" d="M317.5,381.7c-0.6-0.5-0.8-1.1-0.8-1.8c0-0.6,0.2-1.1,0.7-1.7c0.5-0.6,1.1-0.8,1.8-0.8
		c0.6,0,1.1,0.2,1.7,0.7c0.6,0.6,0.8,1.2,0.8,1.8c0,0.7-0.2,1.3-0.7,1.8c-0.5,0.5-1.1,0.7-1.8,0.7
		C318.6,382.5,318.1,382.2,317.5,381.7z"/>
	<path id="XMLID_790_" class="st0" d="M317.5,388.5c-0.6-0.5-0.8-1.1-0.8-1.8c0-0.6,0.2-1.1,0.7-1.7c0.5-0.6,1.1-0.8,1.8-0.8
		c0.6,0,1.1,0.2,1.7,0.7c0.6,0.6,0.8,1.2,0.8,1.8c0,0.7-0.2,1.3-0.7,1.8c-0.5,0.5-1.1,0.7-1.8,0.7
		C318.6,389.2,318.1,389,317.5,388.5z"/>
	<path id="XMLID_789_" class="st0" d="M317.5,395.2c-0.6-0.5-0.8-1.1-0.8-1.8c0-0.6,0.2-1.1,0.7-1.7c0.5-0.6,1.1-0.8,1.8-0.8
		c0.6,0,1.1,0.2,1.7,0.7c0.6,0.6,0.8,1.2,0.8,1.8c0,0.7-0.2,1.3-0.7,1.8c-0.5,0.5-1.1,0.7-1.8,0.7
		C318.6,395.9,318.1,395.7,317.5,395.2z"/>
	<path id="XMLID_788_" class="st0" d="M317.5,401.9c-0.6-0.5-0.8-1.1-0.8-1.8c0-0.6,0.2-1.1,0.7-1.7c0.5-0.6,1.1-0.8,1.8-0.8
		c0.6,0,1.1,0.2,1.7,0.7c0.6,0.6,0.8,1.2,0.8,1.8c0,0.7-0.2,1.3-0.7,1.8c-0.5,0.5-1.1,0.7-1.8,0.7
		C318.6,402.6,318.1,402.4,317.5,401.9z"/>
	<path id="XMLID_787_" class="st0" d="M317.5,408.6c-0.6-0.5-0.8-1.1-0.8-1.8c0-0.6,0.2-1.1,0.7-1.7c0.5-0.6,1.1-0.8,1.8-0.8
		c0.6,0,1.1,0.2,1.7,0.7c0.6,0.6,0.8,1.2,0.8,1.8c0,0.7-0.2,1.3-0.7,1.8c-0.5,0.5-1.1,0.7-1.8,0.7
		C318.6,409.4,318.1,409.1,317.5,408.6z"/>
	<path id="XMLID_786_" class="st0" d="M324.2,415.4c-0.6-0.5-0.8-1.1-0.8-1.8c0-0.6,0.2-1.1,0.7-1.7c0.5-0.6,1.1-0.8,1.8-0.8
		c0.6,0,1.1,0.2,1.7,0.7c0.6,0.6,0.8,1.2,0.8,1.8c0,0.7-0.2,1.3-0.7,1.8c-0.5,0.5-1.1,0.7-1.8,0.7
		C325.4,416.1,324.8,415.9,324.2,415.4z"/>
	<path id="XMLID_785_" class="st0" d="M331,375c-0.6-0.5-0.8-1.1-0.8-1.8c0-0.6,0.2-1.1,0.7-1.7c0.5-0.6,1.1-0.8,1.8-0.8
		c0.6,0,1.1,0.2,1.7,0.7c0.6,0.6,0.8,1.2,0.8,1.8c0,0.7-0.2,1.3-0.7,1.8c-0.5,0.5-1.1,0.7-1.8,0.7C332.1,375.7,331.5,375.5,331,375z
		"/>
	<path id="XMLID_784_" class="st0" d="M331,415.4c-0.6-0.5-0.8-1.1-0.8-1.8c0-0.6,0.2-1.1,0.7-1.7c0.5-0.6,1.1-0.8,1.8-0.8
		c0.6,0,1.1,0.2,1.7,0.7c0.6,0.6,0.8,1.2,0.8,1.8c0,0.7-0.2,1.3-0.7,1.8c-0.5,0.5-1.1,0.7-1.8,0.7
		C332.1,416.1,331.5,415.9,331,415.4z"/>
	<path id="XMLID_783_" class="st0" d="M337.7,375c-0.6-0.5-0.8-1.1-0.8-1.8c0-0.6,0.2-1.1,0.7-1.7c0.5-0.6,1.1-0.8,1.8-0.8
		c0.6,0,1.1,0.2,1.7,0.7c0.6,0.6,0.8,1.2,0.8,1.8c0,0.7-0.2,1.3-0.7,1.8c-0.5,0.5-1.1,0.7-1.8,0.7
		C338.8,375.7,338.3,375.5,337.7,375z"/>
	<path id="XMLID_782_" class="st0" d="M337.7,415.4c-0.6-0.5-0.8-1.1-0.8-1.8c0-0.6,0.2-1.1,0.7-1.7c0.5-0.6,1.1-0.8,1.8-0.8
		c0.6,0,1.1,0.2,1.7,0.7c0.6,0.6,0.8,1.2,0.8,1.8c0,0.7-0.2,1.3-0.7,1.8c-0.5,0.5-1.1,0.7-1.8,0.7
		C338.8,416.1,338.3,415.9,337.7,415.4z"/>
	<path id="XMLID_781_" class="st0" d="M344.4,381.7c-0.6-0.5-0.8-1.1-0.8-1.8c0-0.6,0.2-1.1,0.7-1.7c0.5-0.6,1.1-0.8,1.8-0.8
		c0.6,0,1.1,0.2,1.7,0.7c0.6,0.6,0.8,1.2,0.8,1.8c0,0.7-0.2,1.3-0.7,1.8c-0.5,0.5-1.1,0.7-1.8,0.7
		C345.5,382.5,345,382.2,344.4,381.7z"/>
	<path id="XMLID_780_" class="st0" d="M344.4,388.5c-0.6-0.5-0.8-1.1-0.8-1.8c0-0.6,0.2-1.1,0.7-1.7c0.5-0.6,1.1-0.8,1.8-0.8
		c0.6,0,1.1,0.2,1.7,0.7c0.6,0.6,0.8,1.2,0.8,1.8c0,0.7-0.2,1.3-0.7,1.8c-0.5,0.5-1.1,0.7-1.8,0.7C345.5,389.2,345,389,344.4,388.5z
		"/>
	<path id="XMLID_779_" class="st0" d="M344.4,395.2c-0.6-0.5-0.8-1.1-0.8-1.8c0-0.6,0.2-1.1,0.7-1.7c0.5-0.6,1.1-0.8,1.8-0.8
		c0.6,0,1.1,0.2,1.7,0.7c0.6,0.6,0.8,1.2,0.8,1.8c0,0.7-0.2,1.3-0.7,1.8c-0.5,0.5-1.1,0.7-1.8,0.7
		C345.5,395.9,345,395.7,344.4,395.2z"/>
	<path id="XMLID_778_" class="st0" d="M344.4,401.9c-0.6-0.5-0.8-1.1-0.8-1.8c0-0.6,0.2-1.1,0.7-1.7c0.5-0.6,1.1-0.8,1.8-0.8
		c0.6,0,1.1,0.2,1.7,0.7c0.6,0.6,0.8,1.2,0.8,1.8c0,0.7-0.2,1.3-0.7,1.8c-0.5,0.5-1.1,0.7-1.8,0.7
		C345.5,402.6,345,402.4,344.4,401.9z"/>
	<path id="XMLID_777_" class="st0" d="M344.4,408.6c-0.6-0.5-0.8-1.1-0.8-1.8c0-0.6,0.2-1.1,0.7-1.7c0.5-0.6,1.1-0.8,1.8-0.8
		c0.6,0,1.1,0.2,1.7,0.7c0.6,0.6,0.8,1.2,0.8,1.8c0,0.7-0.2,1.3-0.7,1.8c-0.5,0.5-1.1,0.7-1.8,0.7
		C345.5,409.4,345,409.1,344.4,408.6z"/>
	<path id="XMLID_776_" class="st0" d="M317.5,375c-0.6-0.5-0.8-1.1-0.8-1.8c0-0.6,0.2-1.1,0.7-1.7c0.5-0.6,1.1-0.8,1.8-0.8
		c0.6,0,1.1,0.2,1.7,0.7c0.6,0.6,0.8,1.2,0.8,1.8c0,0.7-0.2,1.3-0.7,1.8c-0.5,0.5-1.1,0.7-1.8,0.7
		C318.6,375.7,318.1,375.5,317.5,375z"/>
	<path id="XMLID_775_" class="st0" d="M344.4,375c-0.6-0.5-0.8-1.1-0.8-1.8c0-0.6,0.2-1.1,0.7-1.7c0.5-0.6,1.1-0.8,1.8-0.8
		c0.6,0,1.1,0.2,1.7,0.7c0.6,0.6,0.8,1.2,0.8,1.8c0,0.7-0.2,1.3-0.7,1.8c-0.5,0.5-1.1,0.7-1.8,0.7C345.5,375.7,345,375.5,344.4,375z
		"/>
	<path id="XMLID_774_" class="st0" d="M317.5,415.4c-0.6-0.5-0.8-1.1-0.8-1.8c0-0.6,0.2-1.1,0.7-1.7c0.5-0.6,1.1-0.8,1.8-0.8
		c0.6,0,1.1,0.2,1.7,0.7c0.6,0.6,0.8,1.2,0.8,1.8c0,0.7-0.2,1.3-0.7,1.8c-0.5,0.5-1.1,0.7-1.8,0.7
		C318.6,416.1,318.1,415.9,317.5,415.4z"/>
	<path id="XMLID_773_" class="st0" d="M344.4,415.4c-0.6-0.5-0.8-1.1-0.8-1.8c0-0.6,0.2-1.1,0.7-1.7c0.5-0.6,1.1-0.8,1.8-0.8
		c0.6,0,1.1,0.2,1.7,0.7c0.6,0.6,0.8,1.2,0.8,1.8c0,0.7-0.2,1.3-0.7,1.8c-0.5,0.5-1.1,0.7-1.8,0.7
		C345.5,416.1,345,415.9,344.4,415.4z"/>
	<path id="XMLID_772_" class="st0" d="M324.2,381.7c-0.6-0.5-0.8-1.1-0.8-1.8c0-0.6,0.2-1.1,0.7-1.7c0.5-0.6,1.1-0.8,1.8-0.8
		c0.6,0,1.1,0.2,1.7,0.7c0.6,0.6,0.8,1.2,0.8,1.8c0,0.7-0.2,1.3-0.7,1.8c-0.5,0.5-1.1,0.7-1.8,0.7
		C325.4,382.5,324.8,382.2,324.2,381.7z"/>
	<path id="XMLID_771_" class="st0" d="M324.2,388.5c-0.6-0.5-0.8-1.1-0.8-1.8c0-0.6,0.2-1.1,0.7-1.7c0.5-0.6,1.1-0.8,1.8-0.8
		c0.6,0,1.1,0.2,1.7,0.7c0.6,0.6,0.8,1.2,0.8,1.8c0,0.7-0.2,1.3-0.7,1.8c-0.5,0.5-1.1,0.7-1.8,0.7
		C325.4,389.2,324.8,389,324.2,388.5z"/>
	<path id="XMLID_770_" class="st0" d="M324.2,395.2c-0.6-0.5-0.8-1.1-0.8-1.8c0-0.6,0.2-1.1,0.7-1.7c0.5-0.6,1.1-0.8,1.8-0.8
		c0.6,0,1.1,0.2,1.7,0.7c0.6,0.6,0.8,1.2,0.8,1.8c0,0.7-0.2,1.3-0.7,1.8c-0.5,0.5-1.1,0.7-1.8,0.7
		C325.4,395.9,324.8,395.7,324.2,395.2z"/>
	<path id="XMLID_769_" class="st0" d="M324.2,401.9c-0.6-0.5-0.8-1.1-0.8-1.8c0-0.6,0.2-1.1,0.7-1.7c0.5-0.6,1.1-0.8,1.8-0.8
		c0.6,0,1.1,0.2,1.7,0.7c0.6,0.6,0.8,1.2,0.8,1.8c0,0.7-0.2,1.3-0.7,1.8c-0.5,0.5-1.1,0.7-1.8,0.7
		C325.4,402.6,324.8,402.4,324.2,401.9z"/>
	<path id="XMLID_768_" class="st0" d="M324.2,408.6c-0.6-0.5-0.8-1.1-0.8-1.8c0-0.6,0.2-1.1,0.7-1.7c0.5-0.6,1.1-0.8,1.8-0.8
		c0.6,0,1.1,0.2,1.7,0.7c0.6,0.6,0.8,1.2,0.8,1.8c0,0.7-0.2,1.3-0.7,1.8c-0.5,0.5-1.1,0.7-1.8,0.7
		C325.4,409.4,324.8,409.1,324.2,408.6z"/>
	<path id="XMLID_767_" class="st0" d="M331,381.7c-0.6-0.5-0.8-1.1-0.8-1.8c0-0.6,0.2-1.1,0.7-1.7c0.5-0.6,1.1-0.8,1.8-0.8
		c0.6,0,1.1,0.2,1.7,0.7c0.6,0.6,0.8,1.2,0.8,1.8c0,0.7-0.2,1.3-0.7,1.8c-0.5,0.5-1.1,0.7-1.8,0.7
		C332.1,382.5,331.5,382.2,331,381.7z"/>
	<path id="XMLID_766_" class="st0" d="M331,388.5c-0.6-0.5-0.8-1.1-0.8-1.8c0-0.6,0.2-1.1,0.7-1.7c0.5-0.6,1.1-0.8,1.8-0.8
		c0.6,0,1.1,0.2,1.7,0.7c0.6,0.6,0.8,1.2,0.8,1.8c0,0.7-0.2,1.3-0.7,1.8c-0.5,0.5-1.1,0.7-1.8,0.7C332.1,389.2,331.5,389,331,388.5z
		"/>
	<path id="XMLID_765_" class="st0" d="M331,395.2c-0.6-0.5-0.8-1.1-0.8-1.8c0-0.6,0.2-1.1,0.7-1.7c0.5-0.6,1.1-0.8,1.8-0.8
		c0.6,0,1.1,0.2,1.7,0.7c0.6,0.6,0.8,1.2,0.8,1.8c0,0.7-0.2,1.3-0.7,1.8c-0.5,0.5-1.1,0.7-1.8,0.7
		C332.1,395.9,331.5,395.7,331,395.2z"/>
	<path id="XMLID_764_" class="st0" d="M331,401.9c-0.6-0.5-0.8-1.1-0.8-1.8c0-0.6,0.2-1.1,0.7-1.7c0.5-0.6,1.1-0.8,1.8-0.8
		c0.6,0,1.1,0.2,1.7,0.7c0.6,0.6,0.8,1.2,0.8,1.8c0,0.7-0.2,1.3-0.7,1.8c-0.5,0.5-1.1,0.7-1.8,0.7
		C332.1,402.6,331.5,402.4,331,401.9z"/>
	<path id="XMLID_763_" class="st0" d="M331,408.6c-0.6-0.5-0.8-1.1-0.8-1.8c0-0.6,0.2-1.1,0.7-1.7c0.5-0.6,1.1-0.8,1.8-0.8
		c0.6,0,1.1,0.2,1.7,0.7c0.6,0.6,0.8,1.2,0.8,1.8c0,0.7-0.2,1.3-0.7,1.8c-0.5,0.5-1.1,0.7-1.8,0.7
		C332.1,409.4,331.5,409.1,331,408.6z"/>
	<path id="XMLID_762_" class="st0" d="M337.7,381.7c-0.6-0.5-0.8-1.1-0.8-1.8c0-0.6,0.2-1.1,0.7-1.7c0.5-0.6,1.1-0.8,1.8-0.8
		c0.6,0,1.1,0.2,1.7,0.7c0.6,0.6,0.8,1.2,0.8,1.8c0,0.7-0.2,1.3-0.7,1.8c-0.5,0.5-1.1,0.7-1.8,0.7
		C338.8,382.5,338.3,382.2,337.7,381.7z"/>
	<path id="XMLID_761_" class="st0" d="M337.7,388.5c-0.6-0.5-0.8-1.1-0.8-1.8c0-0.6,0.2-1.1,0.7-1.7c0.5-0.6,1.1-0.8,1.8-0.8
		c0.6,0,1.1,0.2,1.7,0.7c0.6,0.6,0.8,1.2,0.8,1.8c0,0.7-0.2,1.3-0.7,1.8c-0.5,0.5-1.1,0.7-1.8,0.7
		C338.8,389.2,338.3,389,337.7,388.5z"/>
	<path id="XMLID_760_" class="st0" d="M337.7,395.2c-0.6-0.5-0.8-1.1-0.8-1.8c0-0.6,0.2-1.1,0.7-1.7c0.5-0.6,1.1-0.8,1.8-0.8
		c0.6,0,1.1,0.2,1.7,0.7c0.6,0.6,0.8,1.2,0.8,1.8c0,0.7-0.2,1.3-0.7,1.8c-0.5,0.5-1.1,0.7-1.8,0.7
		C338.8,395.9,338.3,395.7,337.7,395.2z"/>
	<path id="XMLID_759_" class="st0" d="M337.7,401.9c-0.6-0.5-0.8-1.1-0.8-1.8c0-0.6,0.2-1.1,0.7-1.7c0.5-0.6,1.1-0.8,1.8-0.8
		c0.6,0,1.1,0.2,1.7,0.7c0.6,0.6,0.8,1.2,0.8,1.8c0,0.7-0.2,1.3-0.7,1.8c-0.5,0.5-1.1,0.7-1.8,0.7
		C338.8,402.6,338.3,402.4,337.7,401.9z"/>
	<path id="XMLID_753_" class="st0" d="M337.7,408.6c-0.6-0.5-0.8-1.1-0.8-1.8c0-0.6,0.2-1.1,0.7-1.7c0.5-0.6,1.1-0.8,1.8-0.8
		c0.6,0,1.1,0.2,1.7,0.7c0.6,0.6,0.8,1.2,0.8,1.8c0,0.7-0.2,1.3-0.7,1.8c-0.5,0.5-1.1,0.7-1.8,0.7
		C338.8,409.4,338.3,409.1,337.7,408.6z"/>
</g>
<text id="speed" transform="matrix(1 0 0 1 235.5793 416.7125)" class="st3 st4 st5" text-anchor="end">000</text>
<path id="diro" class="st6" d="M593.6,297.2c-23.5,0-42.5,19-42.5,42.5s19,42.5,42.5,42.5s42.5-19,42.5-42.5
	S617.1,297.2,593.6,297.2z M622.3,348.8c-2.4,7.7-7.7,13.9-14.8,17.6c-4.4,2.3-9.2,3.4-13.8,3.4c-10.9,0-21.4-5.9-26.7-16.2
	c-2.7-5.2-3.8-11.1-3.2-17l9.4,1c-0.4,4,0.3,8,2.2,11.6c5.2,10.1,17.7,14,27.8,8.8c4.9-2.5,8.5-6.8,10.2-12.1
	c1.7-5.3,1.2-10.8-1.4-15.7c-1.5-2.9-3.7-5.4-6.3-7.2l0.1,7.5l-23.9-13.3l23.4-14l0.1,8.9c6.4,2.7,11.6,7.5,14.8,13.8
	C624,333,624.7,341.2,622.3,348.8z"/>
<path id="dirw" class="st6" d="M102.4,298.4c-23.5,0-42.5,19-42.5,42.5c0,23.5,19,42.5,42.5,42.5c23.5,0,42.5-19,42.5-42.5
	C144.9,317.4,125.9,298.4,102.4,298.4z M126.4,359.1c-4.9,6.4-11.9,10.5-19.9,11.6c-1.4,0.2-2.8,0.3-4.1,0.3
	c-6.5,0-12.8-2.1-18.1-6.1c-6.4-4.9-10.5-11.9-11.6-19.9c-1.8-13,5.3-25.8,17-31.3l-0.2-8.9l23.9,13.3l-23.4,14.1l-0.1-7.5
	c-5.7,4.4-8.8,11.7-7.8,19.1c0.7,5.5,3.6,10.3,8,13.6c4.4,3.3,9.8,4.8,15.3,4c5.5-0.7,10.3-3.6,13.6-8c3.3-4.4,4.8-9.8,4-15.3
	l9.4-1.3C133.3,344.8,131.2,352.7,126.4,359.1z"/>
<g>
	<g>
		<path class="st6" d="M366.5,397.8L366.5,397.8c0.5-0.7,1-1.4,1.4-2l4.2-5.5h5.2l-6.3,7l7.3,10.1h-5.3l-4.9-7.6l-1.5,1.7v5.8h-4.3
			v-25h4.3V397.8z"/>
		<path class="st6" d="M380.6,395.3c0-2,0-3.6-0.1-5.1h3.7l0.2,2.5h0.1c0.8-1.3,2.4-2.9,5.3-2.9c2.3,0,4,1.3,4.8,3.2h0.1
			c0.6-0.9,1.3-1.7,2.1-2.1c1-0.7,2-1,3.5-1c2.9,0,5.7,1.9,5.7,7.4v10.1h-4.2v-9.5c0-2.9-1-4.5-3.1-4.5c-1.5,0-2.6,1.1-3,2.3
			c-0.1,0.4-0.2,1-0.2,1.4v10.3h-4.2v-9.9c0-2.4-1-4.1-3-4.1c-1.6,0-2.7,1.3-3.1,2.5c-0.2,0.4-0.2,0.9-0.2,1.4v10.1h-4.2V395.3z"/>
		<path class="st6" d="M408.4,408.8l8.6-25.5h3l-8.6,25.5H408.4z"/>
		<path class="st6" d="M422.3,382.4h4.4v10.2h0.1c0.5-0.8,1.2-1.5,2.1-2c0.8-0.5,1.9-0.8,3-0.8c2.9,0,6,1.9,6,7.4v10.1h-4.3v-9.6
			c0-2.5-0.9-4.4-3.3-4.4c-1.7,0-2.9,1.1-3.3,2.4c-0.1,0.4-0.2,0.8-0.2,1.3v10.2h-4.4V382.4z"/>
	</g>
</g>
<g id="line">
	<rect id="XMLID_16_" x="375.4" y="275.7" class="st6" width="20.3" height="5.8"/>
	<rect id="XMLID_988_" x="375.4" y="265.3" class="st6" width="20.3" height="5.8"/>
	<path id="XMLID_4_" class="st6" d="M293.4,348c0,1.8,1.2,2.6,2.6,2.6c1.8,0,3.2-1.2,3.6-2.5c0.1-0.3,0.1-0.7,0.1-1v-2.5
		C296.5,344.6,293.4,345.3,293.4,348z"/>
	<path id="XMLID_1_" class="st6" d="M427.8,249.4H254.6c-5,0-9.1,4.1-9.1,9.1V349c0,5,4.1,9.1,9.1,9.1h173.2c5,0,9.1-4.1,9.1-9.1
		v-90.5C436.9,253.5,432.8,249.4,427.8,249.4z M370.5,260.6h11l1.7-7.8l6.1,1.2c1.5,0.6,1.5,1.2-0.3,1.7l-2.3,4.9h13.9v25.6h-12.8
		v3.5c0,1.4,1.1,3.8,3.2,7.3l9-9l4.1,4.6c0.2,1-0.3,1.3-1.5,0.9l-9,7c3.1,4.1,7.3,7.7,12.5,11l-3.2,5.8c-6-3.9-11-9.4-15.1-16.6
		v14.5c0,2.9-1.2,4.4-3.5,4.4h-5.5l-1.2-4.6h4.1c0.8,0,1.2-0.4,1.2-1.2v-27.6h-6.4h-6.1V260.6z M267.1,272.5V267h27.6V254h5.5
		c1.5,0.2,1.6,0.8,0.3,1.7V267h27.9v5.5h-25.8c6.6,11.8,16.2,21.6,28.8,29.3l-3.2,6.7c-11.8-7.4-21-16.7-27.6-28.2v18.3h11.9v5.5
		h-11.9v15.7h-5.8v-15.7h-11.3v-5.5h11.3v-18.3c-5.6,12.4-14.7,22.3-27.3,29.6l-3.2-6.1c13.2-7.2,22.6-17.6,28.2-31.4H267.1z
		 M281.1,353.5l-0.5-10.2c-0.1-3.2-0.3-7.1-0.3-10.5h-0.1c-0.8,3-1.9,6.4-3,9.6l-3.6,10.9H270l-3.3-10.7c-1-3.2-1.9-6.6-2.5-9.7
		h-0.1c-0.1,3.3-0.3,7.2-0.4,10.7l-0.6,10.1h-4.3l1.7-25.1h6l3.3,10.1c0.9,2.9,1.7,5.9,2.3,8.7h0.1c0.7-2.7,1.5-5.8,2.5-8.7l3.5-10
		h5.9l1.4,25.1H281.1z M300.3,353.5l-0.3-2h-0.1c-1.1,1.4-3,2.4-5.4,2.4c-3.6,0-5.7-2.6-5.7-5.4c0-4.6,4.1-6.9,10.7-6.8v-0.3
		c0-1.2-0.5-3.2-3.7-3.2c-1.8,0-3.6,0.6-4.9,1.3l-0.9-3c1.3-0.8,3.7-1.6,6.5-1.6c5.8,0,7.5,3.7,7.5,7.6v6.5c0,1.6,0.1,3.2,0.3,4.3
		H300.3z M313.6,353.5H309v-18.1h4.6V353.5z M311.3,332.8c-1.5,0-2.5-1.1-2.5-2.5c0-1.4,1-2.5,2.6-2.5c1.6,0,2.5,1.1,2.6,2.5
		C313.9,331.7,312.9,332.8,311.3,332.8z M334.9,353.5h-4.6v-10.2c0-2.6-1-4.6-3.5-4.6c-1.8,0-3.1,1.3-3.6,2.7
		c-0.1,0.4-0.2,1-0.2,1.5v10.6h-4.6v-12.7c0-2.1,0-3.8-0.1-5.4h4l0.2,2.7h0.1c0.8-1.4,2.8-3.1,5.8-3.1c3.2,0,6.4,2,6.4,7.8V353.5z
		 M339.4,288.5l-0.6-4.4h5.8l4.1-5.5l-9-7.3l2.9-4.4l1.5,0.9c3.9-6,6.6-10.6,8.1-13.9l5.2,2.6c0.8,0.8,0.5,1.3-0.9,1.5
		c-4.1,6.6-6.8,10.8-8.1,12.8l3.8,3.2l7.8-12.2l4.6,3.2c0.8,0.8,0.5,1.3-0.9,1.5c-5.2,7.7-9.5,13.6-12.8,17.4l9.6-0.9l-2-4.1
		l4.4-2.3c2.9,3.7,5,7.7,6.4,11.9l-5.2,2.3l-1.5-3.2l-6.1,0.9v31.9h-5.8v-31.4l-9.6,0.6C340.2,290.8,339.6,290.5,339.4,288.5z
		 M366.7,306.5l-5.5,1.2c-0.2-3.3-1-7.4-2.3-12.2l4.9-1.2C365.2,297.2,366.1,301.3,366.7,306.5z M340.3,312
		c1.5-7.4,2.3-13.2,2.3-17.4l5.2,0.6c1.5,0.4,1.6,0.9,0.3,1.5c0,6.4-0.8,12.5-2.3,18.3L340.3,312z M362.6,353.5h-14.9v-25.1h4.6
		v21.2h10.3V353.5z M370.4,353.5h-4.6v-18.1h4.6V353.5z M368.1,332.8c-1.5,0-2.5-1.1-2.5-2.5c0-1.4,1-2.5,2.6-2.5
		c1.6,0,2.5,1.1,2.6,2.5C370.7,331.7,369.7,332.8,368.1,332.8z M367.6,318.1l-3.8-4.4c7-4.3,10.6-9.9,11-16.8h-7.6v-4.6h8.4l0.9-0.9
		l4.4,2l-0.6,1.5C380.2,305.8,375.9,313.5,367.6,318.1z M391.7,353.5h-4.6v-10.2c0-2.6-1-4.6-3.5-4.6c-1.8,0-3.1,1.3-3.6,2.7
		c-0.1,0.4-0.2,1-0.2,1.5v10.6h-4.6v-12.7c0-2.1,0-3.8-0.1-5.4h4l0.2,2.7h0.1c0.8-1.4,2.8-3.1,5.8-3.1c3.2,0,6.4,2,6.4,7.8V353.5z
		 M412,345.7h-12.1c0.1,3.3,2.7,4.7,5.6,4.7c2.1,0,3.6-0.3,5-0.8l0.7,3.2c-1.6,0.6-3.7,1.1-6.3,1.1c-5.9,0-9.3-3.6-9.3-9.1
		c0-5,3-9.7,8.8-9.7c5.9,0,7.8,4.8,7.8,8.8C412.1,344.6,412,345.3,412,345.7z"/>
	<path id="XMLID_1068_" class="st6" d="M404,338.1c-2.8,0-4,2.6-4.2,4.4h8C407.8,340.8,407.1,338.1,404,338.1z"/>
</g>
</svg>
