<?xml version="1.0" encoding="utf-8"?>
<!-- Generator: Adobe Illustrator 19.0.0, SVG Export Plug-In . SVG Version: 6.00 Build 0)  -->
<svg version="1.1" id="Ebene_1" xmlns="http://www.w3.org/2000/svg" xmlns:xlink="http://www.w3.org/1999/xlink" x="0px" y="0px"
	 viewBox="-249 234 1201.6 364.5" style="enable-background:new -249 234 1201.6 364.5;" xml:space="preserve">
<style type="text/css">
	@font-face {
      	font-family: Corporate-Logo-Rounded;
      	src: url('/static/fonts/lcd.ttf');
    }
	.st0{fill:#191919;}
	.st1{fill:none;}
	.st2{fill:#E4E4E3;stroke:#212122;stroke-width:5;stroke-miterlimit:10;}
	.st3{fill:#E4E4E4;}
</style>
<polygon id="defaultgln" class="st0" points="-81.1,1091.2 285.7,1091.2 391.1,986.8 391.1,896.5 286.8,792.5 40.6,792.5 58,776.8 
	293.2,776.8 406.5,890.1 406.5,993.5 292.1,1106.8 -81.1,1106.8 "/>
<polygon id="defaultglmo" class="st0" points="40.6,792.5 -80.8,792.5 -80.8,776.8 58,776.8 "/>
<rect id="defaultgllm" x="-278.1" y="833.8" class="st0" width="201.4" height="15.7"/>
<polygon id="defaultglmw" class="st0" points="-85.2,792.5 -648.3,792.5 -689.6,833.8 -711.7,833.8 -654.8,776.8 -85.2,776.8 "/>
<polygon id="defaultgllo" class="st0" points="-81.1,833.8 -5.2,833.8 58,776.8 64.2,792.5 1,849.3 -81.2,849.3 "/>
<polygon id="defaultgllw" class="st0" points="-278.1,849.3 -708.3,849.5 -708.4,833.8 -278.1,833.8 "/>
<rect id="defaultglkm" x="-282.5" y="1091.2" class="st0" width="201.4" height="15.7"/>
<polygon id="defaultglkw" class="st0" points="-282.5,1106.8 -653.9,1106.8 -768.3,993.5 -768.3,890.3 -711.7,833.8 -689.6,833.8 
	-752.6,896.8 -752.6,986.8 -647.3,1091.2 -282.5,1091.2 "/>
<polygon id="gln" class="st1" points="-80.2,1091.2 286.6,1091.2 392,986.8 392,896.5 287.7,792.5 41.5,792.5 58.9,776.8 
	294.1,776.8 407.4,890.1 407.4,993.5 293,1106.8 -80.2,1106.8 "/>
<polygon id="glmo" class="st1" points="41.5,792.5 -79.9,792.5 -79.9,776.8 58.9,776.8 "/>
<rect id="gllm" x="-277.2" y="833.8" class="st1" width="201.4" height="15.7"/>
<polygon id="glmw" class="st1" points="-84.3,792.5 -647.4,792.5 -688.7,833.8 -710.8,833.8 -653.9,776.8 -84.3,776.8 "/>
<polygon id="gllo" class="st1" points="-80.2,833.8 -4.3,833.8 58.9,776.8 65.1,792.5 1.9,849.3 -80.3,849.3 "/>
<polygon id="gllw" class="st1" points="-277.2,849.3 -707.4,849.5 -707.5,833.8 -277.2,833.8 "/>
<rect id="glkm" x="-281.6" y="1091.2" class="st1" width="201.4" height="15.7"/>
<polygon id="glkw" class="st1" points="-281.6,1106.8 -653,1106.8 -767.4,993.5 -767.4,890.3 -710.8,833.8 -688.7,833.8 
	-751.7,896.8 -751.7,986.8 -646.4,1091.2 -281.6,1091.2 "/>
<circle id="sig5o" class="st2" cx="-10.9" cy="1096.8" r="19.3"/>
<circle id="sig5w" class="st2" cx="-350.9" cy="1096.8" r="19.3"/>
<circle id="sns20" class="st2" cx="-280.9" cy="1096.8" r="19.3"/>
<circle id="sns21" class="st2" cx="-80.9" cy="1096.8" r="19.3"/>
<circle id="sns22" class="st2" cx="400.3" cy="941.8" r="19.3"/>
<circle id="sns23" class="st2" cx="-78.7" cy="781.5" r="19.3"/>
<circle id="sns25" class="st2" cx="-760.7" cy="938.3" r="19.3"/>
<circle id="sns26" class="st2" cx="-78.7" cy="842.3" r="19.3"/>
<circle id="sns27" class="st2" cx="-278.7" cy="842.3" r="19.3"/>
<g>
	<g>
		<path class="st3" d="M-162.7,1024.7L-162.7,1024.7c0.5-0.7,1-1.4,1.4-2l4.2-5.5h5.2l-6.3,7l7.3,10.1h-5.3l-4.9-7.6l-1.5,1.7v5.8
			h-4.3v-25h4.3V1024.7z"/>
		<path class="st3" d="M-148.6,1022.3c0-2,0-3.6-0.1-5.1h3.7l0.2,2.5h0.1c0.8-1.3,2.4-2.9,5.3-2.9c2.3,0,4,1.3,4.8,3.2h0.1
			c0.6-1,1.3-1.7,2.1-2.1c1-0.7,2-1,3.5-1c2.9,0,5.7,1.9,5.7,7.4v10.1h-4.2v-9.5c0-2.9-1-4.5-3.1-4.5c-1.5,0-2.6,1.1-3,2.3
			c-0.1,0.4-0.2,1-0.2,1.4v10.3h-4.2v-9.9c0-2.4-1-4.1-3-4.1c-1.6,0-2.7,1.3-3.1,2.5c-0.2,0.4-0.2,0.9-0.2,1.4v10.1h-4.2V1022.3z"/>
		<path class="st3" d="M-120.8,1035.7l8.6-25.5h3l-8.6,25.5H-120.8z"/>
		<path class="st3" d="M-106.9,1009.3h4.4v10.2h0.1c0.5-0.8,1.2-1.5,2.1-2c0.8-0.5,1.9-0.8,3-0.8c2.9,0,6,1.9,6,7.4v10.1h-4.3v-9.6
			c0-2.5-0.9-4.4-3.3-4.4c-1.7,0-2.9,1.1-3.3,2.4c-0.1,0.4-0.2,0.8-0.2,1.3v10.2h-4.4V1009.3z"/>
	</g>
</g>
<g id="XMLID_101_">
	<path id="XMLID_235_" class="st0" d="M-291.8,1008.6c-0.6-0.5-0.8-1.1-0.8-1.8c0-0.6,0.2-1.1,0.7-1.7c0.5-0.6,1.1-0.8,1.8-0.8
		c0.6,0,1.1,0.2,1.7,0.7c0.6,0.6,0.8,1.2,0.8,1.8c0,0.7-0.2,1.3-0.7,1.8c-0.5,0.5-1.1,0.7-1.8,0.7
		C-290.7,1009.4-291.3,1009.1-291.8,1008.6z"/>
	<path id="XMLID_234_" class="st0" d="M-291.8,1015.3c-0.6-0.5-0.8-1.1-0.8-1.8c0-0.6,0.2-1.1,0.7-1.7c0.5-0.6,1.1-0.8,1.8-0.8
		c0.6,0,1.1,0.2,1.7,0.7c0.6,0.6,0.8,1.2,0.8,1.8c0,0.7-0.2,1.3-0.7,1.8c-0.5,0.5-1.1,0.7-1.8,0.7
		C-290.7,1016.1-291.3,1015.8-291.8,1015.3z"/>
	<path id="XMLID_233_" class="st0" d="M-291.8,1022c-0.6-0.5-0.8-1.1-0.8-1.8c0-0.6,0.2-1.1,0.7-1.7c0.5-0.6,1.1-0.8,1.8-0.8
		c0.6,0,1.1,0.2,1.7,0.7c0.6,0.6,0.8,1.2,0.8,1.8c0,0.7-0.2,1.3-0.7,1.8c-0.5,0.5-1.1,0.7-1.8,0.7
		C-290.7,1022.8-291.3,1022.5-291.8,1022z"/>
	<path id="XMLID_232_" class="st0" d="M-291.8,1028.7c-0.6-0.5-0.8-1.1-0.8-1.8c0-0.6,0.2-1.1,0.7-1.7c0.5-0.6,1.1-0.8,1.8-0.8
		c0.6,0,1.1,0.2,1.7,0.7c0.6,0.6,0.8,1.2,0.8,1.8c0,0.7-0.2,1.3-0.7,1.8c-0.5,0.5-1.1,0.7-1.8,0.7
		C-290.7,1029.5-291.3,1029.2-291.8,1028.7z"/>
	<path id="XMLID_231_" class="st0" d="M-291.8,1035.5c-0.6-0.5-0.8-1.1-0.8-1.8c0-0.6,0.2-1.1,0.7-1.7c0.5-0.6,1.1-0.8,1.8-0.8
		c0.6,0,1.1,0.2,1.7,0.7c0.6,0.6,0.8,1.2,0.8,1.8c0,0.7-0.2,1.3-0.7,1.8c-0.5,0.5-1.1,0.7-1.8,0.7
		C-290.7,1036.2-291.3,1036-291.8,1035.5z"/>
	<path id="XMLID_230_" class="st0" d="M-285.1,1001.9c-0.6-0.5-0.8-1.1-0.8-1.8c0-0.6,0.2-1.1,0.7-1.7c0.5-0.6,1.1-0.8,1.8-0.8
		c0.6,0,1.1,0.2,1.7,0.7c0.6,0.6,0.8,1.2,0.8,1.8c0,0.7-0.2,1.3-0.7,1.8c-0.5,0.5-1.1,0.7-1.8,0.7
		C-284,1002.6-284.6,1002.4-285.1,1001.9z"/>
	<path id="XMLID_229_" class="st0" d="M-285.1,1042.2c-0.6-0.5-0.8-1.1-0.8-1.8c0-0.6,0.2-1.1,0.7-1.7c0.5-0.6,1.1-0.8,1.8-0.8
		c0.6,0,1.1,0.2,1.7,0.7c0.6,0.6,0.8,1.2,0.8,1.8c0,0.7-0.2,1.3-0.7,1.8c-0.5,0.5-1.1,0.7-1.8,0.7
		C-284,1042.9-284.6,1042.7-285.1,1042.2z"/>
	<path id="XMLID_228_" class="st0" d="M-278.4,1001.9c-0.6-0.5-0.8-1.1-0.8-1.8c0-0.6,0.2-1.1,0.7-1.7c0.5-0.6,1.1-0.8,1.8-0.8
		c0.6,0,1.1,0.2,1.7,0.7c0.6,0.6,0.8,1.2,0.8,1.8c0,0.7-0.2,1.3-0.7,1.8c-0.5,0.5-1.1,0.7-1.8,0.7
		C-277.3,1002.6-277.9,1002.4-278.4,1001.9z"/>
	<path id="XMLID_202_" class="st0" d="M-278.4,1042.2c-0.6-0.5-0.8-1.1-0.8-1.8c0-0.6,0.2-1.1,0.7-1.7c0.5-0.6,1.1-0.8,1.8-0.8
		c0.6,0,1.1,0.2,1.7,0.7c0.6,0.6,0.8,1.2,0.8,1.8c0,0.7-0.2,1.3-0.7,1.8c-0.5,0.5-1.1,0.7-1.8,0.7
		C-277.3,1042.9-277.9,1042.7-278.4,1042.2z"/>
	<path id="XMLID_201_" class="st0" d="M-271.7,1001.9c-0.6-0.5-0.8-1.1-0.8-1.8c0-0.6,0.2-1.1,0.7-1.7c0.5-0.6,1.1-0.8,1.8-0.8
		c0.6,0,1.1,0.2,1.7,0.7c0.6,0.6,0.8,1.2,0.8,1.8c0,0.7-0.2,1.3-0.7,1.8c-0.5,0.5-1.1,0.7-1.8,0.7
		C-270.6,1002.6-271.2,1002.4-271.7,1001.9z"/>
	<path id="XMLID_200_" class="st0" d="M-271.7,1042.2c-0.6-0.5-0.8-1.1-0.8-1.8c0-0.6,0.2-1.1,0.7-1.7c0.5-0.6,1.1-0.8,1.8-0.8
		c0.6,0,1.1,0.2,1.7,0.7c0.6,0.6,0.8,1.2,0.8,1.8c0,0.7-0.2,1.3-0.7,1.8c-0.5,0.5-1.1,0.7-1.8,0.7
		C-270.6,1042.9-271.2,1042.7-271.7,1042.2z"/>
	<path id="XMLID_199_" class="st0" d="M-265,1008.6c-0.6-0.5-0.8-1.1-0.8-1.8c0-0.6,0.2-1.1,0.7-1.7c0.5-0.6,1.1-0.8,1.8-0.8
		c0.6,0,1.1,0.2,1.7,0.7c0.6,0.6,0.8,1.2,0.8,1.8c0,0.7-0.2,1.3-0.7,1.8c-0.5,0.5-1.1,0.7-1.8,0.7
		C-263.9,1009.4-264.4,1009.1-265,1008.6z"/>
	<path id="XMLID_198_" class="st0" d="M-265,1015.3c-0.6-0.5-0.8-1.1-0.8-1.8c0-0.6,0.2-1.1,0.7-1.7c0.5-0.6,1.1-0.8,1.8-0.8
		c0.6,0,1.1,0.2,1.7,0.7c0.6,0.6,0.8,1.2,0.8,1.8c0,0.7-0.2,1.3-0.7,1.8c-0.5,0.5-1.1,0.7-1.8,0.7
		C-263.9,1016.1-264.4,1015.8-265,1015.3z"/>
	<path id="XMLID_197_" class="st0" d="M-265,1022c-0.6-0.5-0.8-1.1-0.8-1.8c0-0.6,0.2-1.1,0.7-1.7c0.5-0.6,1.1-0.8,1.8-0.8
		c0.6,0,1.1,0.2,1.7,0.7c0.6,0.6,0.8,1.2,0.8,1.8c0,0.7-0.2,1.3-0.7,1.8c-0.5,0.5-1.1,0.7-1.8,0.7
		C-263.9,1022.8-264.4,1022.5-265,1022z"/>
	<path id="XMLID_196_" class="st0" d="M-265,1028.7c-0.6-0.5-0.8-1.1-0.8-1.8c0-0.6,0.2-1.1,0.7-1.7c0.5-0.6,1.1-0.8,1.8-0.8
		c0.6,0,1.1,0.2,1.7,0.7c0.6,0.6,0.8,1.2,0.8,1.8c0,0.7-0.2,1.3-0.7,1.8c-0.5,0.5-1.1,0.7-1.8,0.7
		C-263.9,1029.5-264.4,1029.2-265,1028.7z"/>
	<path id="XMLID_195_" class="st0" d="M-265,1035.5c-0.6-0.5-0.8-1.1-0.8-1.8c0-0.6,0.2-1.1,0.7-1.7c0.5-0.6,1.1-0.8,1.8-0.8
		c0.6,0,1.1,0.2,1.7,0.7c0.6,0.6,0.8,1.2,0.8,1.8c0,0.7-0.2,1.3-0.7,1.8c-0.5,0.5-1.1,0.7-1.8,0.7
		C-263.9,1036.2-264.4,1036-265,1035.5z"/>
	<path id="XMLID_194_" class="st0" d="M-245,1001.9c-0.6-0.5-0.8-1.1-0.8-1.8c0-0.6,0.2-1.1,0.7-1.7c0.5-0.6,1.1-0.8,1.8-0.8
		c0.6,0,1.1,0.2,1.7,0.7c0.6,0.6,0.8,1.2,0.8,1.8c0,0.7-0.2,1.3-0.7,1.8c-0.5,0.5-1.1,0.7-1.8,0.7
		C-243.9,1002.6-244.4,1002.4-245,1001.9z"/>
	<path id="XMLID_193_" class="st0" d="M-204.8,1001.9c-0.6-0.5-0.8-1.1-0.8-1.8c0-0.6,0.2-1.1,0.7-1.7c0.5-0.6,1.1-0.8,1.8-0.8
		c0.6,0,1.1,0.2,1.7,0.7c0.6,0.6,0.8,1.2,0.8,1.8c0,0.7-0.2,1.3-0.7,1.8c-0.5,0.5-1.1,0.7-1.8,0.7
		C-203.7,1002.6-204.2,1002.4-204.8,1001.9z"/>
	<path id="XMLID_192_" class="st0" d="M-291.8,1001.9c-0.6-0.5-0.8-1.1-0.8-1.8c0-0.6,0.2-1.1,0.7-1.7c0.5-0.6,1.1-0.8,1.8-0.8
		c0.6,0,1.1,0.2,1.7,0.7c0.6,0.6,0.8,1.2,0.8,1.8c0,0.7-0.2,1.3-0.7,1.8c-0.5,0.5-1.1,0.7-1.8,0.7
		C-290.7,1002.6-291.3,1002.4-291.8,1001.9z"/>
	<path id="XMLID_191_" class="st0" d="M-265,1001.9c-0.6-0.5-0.8-1.1-0.8-1.8c0-0.6,0.2-1.1,0.7-1.7c0.5-0.6,1.1-0.8,1.8-0.8
		c0.6,0,1.1,0.2,1.7,0.7c0.6,0.6,0.8,1.2,0.8,1.8c0,0.7-0.2,1.3-0.7,1.8c-0.5,0.5-1.1,0.7-1.8,0.7
		C-263.9,1002.6-264.4,1002.4-265,1001.9z"/>
	<path id="XMLID_190_" class="st0" d="M-291.8,1042.2c-0.6-0.5-0.8-1.1-0.8-1.8c0-0.6,0.2-1.1,0.7-1.7c0.5-0.6,1.1-0.8,1.8-0.8
		c0.6,0,1.1,0.2,1.7,0.7c0.6,0.6,0.8,1.2,0.8,1.8c0,0.7-0.2,1.3-0.7,1.8c-0.5,0.5-1.1,0.7-1.8,0.7
		C-290.7,1042.9-291.3,1042.7-291.8,1042.2z"/>
	<path id="XMLID_189_" class="st0" d="M-265,1042.2c-0.6-0.5-0.8-1.1-0.8-1.8c0-0.6,0.2-1.1,0.7-1.7c0.5-0.6,1.1-0.8,1.8-0.8
		c0.6,0,1.1,0.2,1.7,0.7c0.6,0.6,0.8,1.2,0.8,1.8c0,0.7-0.2,1.3-0.7,1.8c-0.5,0.5-1.1,0.7-1.8,0.7
		C-263.9,1042.9-264.4,1042.7-265,1042.2z"/>
	<path id="XMLID_188_" class="st0" d="M-285.1,1008.6c-0.6-0.5-0.8-1.1-0.8-1.8c0-0.6,0.2-1.1,0.7-1.7c0.5-0.6,1.1-0.8,1.8-0.8
		c0.6,0,1.1,0.2,1.7,0.7c0.6,0.6,0.8,1.2,0.8,1.8c0,0.7-0.2,1.3-0.7,1.8c-0.5,0.5-1.1,0.7-1.8,0.7
		C-284,1009.4-284.6,1009.1-285.1,1008.6z"/>
	<path id="XMLID_187_" class="st0" d="M-285.1,1015.3c-0.6-0.5-0.8-1.1-0.8-1.8c0-0.6,0.2-1.1,0.7-1.7c0.5-0.6,1.1-0.8,1.8-0.8
		c0.6,0,1.1,0.2,1.7,0.7c0.6,0.6,0.8,1.2,0.8,1.8c0,0.7-0.2,1.3-0.7,1.8c-0.5,0.5-1.1,0.7-1.8,0.7
		C-284,1016.1-284.6,1015.8-285.1,1015.3z"/>
	<path id="XMLID_186_" class="st0" d="M-285.1,1022c-0.6-0.5-0.8-1.1-0.8-1.8c0-0.6,0.2-1.1,0.7-1.7c0.5-0.6,1.1-0.8,1.8-0.8
		c0.6,0,1.1,0.2,1.7,0.7c0.6,0.6,0.8,1.2,0.8,1.8c0,0.7-0.2,1.3-0.7,1.8c-0.5,0.5-1.1,0.7-1.8,0.7
		C-284,1022.8-284.6,1022.5-285.1,1022z"/>
	<path id="XMLID_185_" class="st0" d="M-285.1,1028.7c-0.6-0.5-0.8-1.1-0.8-1.8c0-0.6,0.2-1.1,0.7-1.7c0.5-0.6,1.1-0.8,1.8-0.8
		c0.6,0,1.1,0.2,1.7,0.7c0.6,0.6,0.8,1.2,0.8,1.8c0,0.7-0.2,1.3-0.7,1.8c-0.5,0.5-1.1,0.7-1.8,0.7
		C-284,1029.5-284.6,1029.2-285.1,1028.7z"/>
	<path id="XMLID_184_" class="st0" d="M-285.1,1035.5c-0.6-0.5-0.8-1.1-0.8-1.8c0-0.6,0.2-1.1,0.7-1.7c0.5-0.6,1.1-0.8,1.8-0.8
		c0.6,0,1.1,0.2,1.7,0.7c0.6,0.6,0.8,1.2,0.8,1.8c0,0.7-0.2,1.3-0.7,1.8c-0.5,0.5-1.1,0.7-1.8,0.7
		C-284,1036.2-284.6,1036-285.1,1035.5z"/>
	<path id="XMLID_183_" class="st0" d="M-278.4,1008.6c-0.6-0.5-0.8-1.1-0.8-1.8c0-0.6,0.2-1.1,0.7-1.7c0.5-0.6,1.1-0.8,1.8-0.8
		c0.6,0,1.1,0.2,1.7,0.7c0.6,0.6,0.8,1.2,0.8,1.8c0,0.7-0.2,1.3-0.7,1.8c-0.5,0.5-1.1,0.7-1.8,0.7
		C-277.3,1009.4-277.9,1009.1-278.4,1008.6z"/>
	<path id="XMLID_182_" class="st0" d="M-278.4,1015.3c-0.6-0.5-0.8-1.1-0.8-1.8c0-0.6,0.2-1.1,0.7-1.7c0.5-0.6,1.1-0.8,1.8-0.8
		c0.6,0,1.1,0.2,1.7,0.7c0.6,0.6,0.8,1.2,0.8,1.8c0,0.7-0.2,1.3-0.7,1.8c-0.5,0.5-1.1,0.7-1.8,0.7
		C-277.3,1016.1-277.9,1015.8-278.4,1015.3z"/>
	<path id="XMLID_181_" class="st0" d="M-278.4,1022c-0.6-0.5-0.8-1.1-0.8-1.8c0-0.6,0.2-1.1,0.7-1.7c0.5-0.6,1.1-0.8,1.8-0.8
		c0.6,0,1.1,0.2,1.7,0.7c0.6,0.6,0.8,1.2,0.8,1.8c0,0.7-0.2,1.3-0.7,1.8c-0.5,0.5-1.1,0.7-1.8,0.7
		C-277.3,1022.8-277.9,1022.5-278.4,1022z"/>
	<path id="XMLID_180_" class="st0" d="M-278.4,1028.7c-0.6-0.5-0.8-1.1-0.8-1.8c0-0.6,0.2-1.1,0.7-1.7c0.5-0.6,1.1-0.8,1.8-0.8
		c0.6,0,1.1,0.2,1.7,0.7c0.6,0.6,0.8,1.2,0.8,1.8c0,0.7-0.2,1.3-0.7,1.8c-0.5,0.5-1.1,0.7-1.8,0.7
		C-277.3,1029.5-277.9,1029.2-278.4,1028.7z"/>
	<path id="XMLID_179_" class="st0" d="M-278.4,1035.5c-0.6-0.5-0.8-1.1-0.8-1.8c0-0.6,0.2-1.1,0.7-1.7c0.5-0.6,1.1-0.8,1.8-0.8
		c0.6,0,1.1,0.2,1.7,0.7c0.6,0.6,0.8,1.2,0.8,1.8c0,0.7-0.2,1.3-0.7,1.8c-0.5,0.5-1.1,0.7-1.8,0.7
		C-277.3,1036.2-277.9,1036-278.4,1035.5z"/>
	<path id="XMLID_178_" class="st0" d="M-271.7,1008.6c-0.6-0.5-0.8-1.1-0.8-1.8c0-0.6,0.2-1.1,0.7-1.7c0.5-0.6,1.1-0.8,1.8-0.8
		c0.6,0,1.1,0.2,1.7,0.7c0.6,0.6,0.8,1.2,0.8,1.8c0,0.7-0.2,1.3-0.7,1.8c-0.5,0.5-1.1,0.7-1.8,0.7
		C-270.6,1009.4-271.2,1009.1-271.7,1008.6z"/>
	<path id="XMLID_177_" class="st0" d="M-271.7,1015.3c-0.6-0.5-0.8-1.1-0.8-1.8c0-0.6,0.2-1.1,0.7-1.7c0.5-0.6,1.1-0.8,1.8-0.8
		c0.6,0,1.1,0.2,1.7,0.7c0.6,0.6,0.8,1.2,0.8,1.8c0,0.7-0.2,1.3-0.7,1.8c-0.5,0.5-1.1,0.7-1.8,0.7
		C-270.6,1016.1-271.2,1015.8-271.7,1015.3z"/>
	<path id="XMLID_176_" class="st0" d="M-271.7,1022c-0.6-0.5-0.8-1.1-0.8-1.8c0-0.6,0.2-1.1,0.7-1.7c0.5-0.6,1.1-0.8,1.8-0.8
		c0.6,0,1.1,0.2,1.7,0.7c0.6,0.6,0.8,1.2,0.8,1.8c0,0.7-0.2,1.3-0.7,1.8c-0.5,0.5-1.1,0.7-1.8,0.7
		C-270.6,1022.8-271.2,1022.5-271.7,1022z"/>
	<path id="XMLID_175_" class="st0" d="M-271.7,1028.7c-0.6-0.5-0.8-1.1-0.8-1.8c0-0.6,0.2-1.1,0.7-1.7c0.5-0.6,1.1-0.8,1.8-0.8
		c0.6,0,1.1,0.2,1.7,0.7c0.6,0.6,0.8,1.2,0.8,1.8c0,0.7-0.2,1.3-0.7,1.8c-0.5,0.5-1.1,0.7-1.8,0.7
		C-270.6,1029.5-271.2,1029.2-271.7,1028.7z"/>
	<path id="XMLID_174_" class="st0" d="M-271.7,1035.5c-0.6-0.5-0.8-1.1-0.8-1.8c0-0.6,0.2-1.1,0.7-1.7c0.5-0.6,1.1-0.8,1.8-0.8
		c0.6,0,1.1,0.2,1.7,0.7c0.6,0.6,0.8,1.2,0.8,1.8c0,0.7-0.2,1.3-0.7,1.8c-0.5,0.5-1.1,0.7-1.8,0.7
		C-270.6,1036.2-271.2,1036-271.7,1035.5z"/>
	<path id="XMLID_173_" class="st0" d="M-251.7,1008.6c-0.6-0.5-0.8-1.1-0.8-1.8c0-0.6,0.2-1.1,0.7-1.7c0.5-0.6,1.1-0.8,1.8-0.8
		c0.6,0,1.1,0.2,1.7,0.7c0.6,0.6,0.8,1.2,0.8,1.8c0,0.7-0.2,1.3-0.7,1.8c-0.5,0.5-1.1,0.7-1.8,0.7
		C-250.6,1009.4-251.1,1009.1-251.7,1008.6z"/>
	<path id="XMLID_172_" class="st0" d="M-251.7,1015.3c-0.6-0.5-0.8-1.1-0.8-1.8c0-0.6,0.2-1.1,0.7-1.7c0.5-0.6,1.1-0.8,1.8-0.8
		c0.6,0,1.1,0.2,1.7,0.7c0.6,0.6,0.8,1.2,0.8,1.8c0,0.7-0.2,1.3-0.7,1.8c-0.5,0.5-1.1,0.7-1.8,0.7
		C-250.6,1016.1-251.1,1015.8-251.7,1015.3z"/>
	<path id="XMLID_170_" class="st0" d="M-251.7,1022c-0.6-0.5-0.8-1.1-0.8-1.8c0-0.6,0.2-1.1,0.7-1.7c0.5-0.6,1.1-0.8,1.8-0.8
		c0.6,0,1.1,0.2,1.7,0.7c0.6,0.6,0.8,1.2,0.8,1.8c0,0.7-0.2,1.3-0.7,1.8c-0.5,0.5-1.1,0.7-1.8,0.7
		C-250.6,1022.8-251.1,1022.5-251.7,1022z"/>
	<path id="XMLID_169_" class="st0" d="M-251.7,1028.7c-0.6-0.5-0.8-1.1-0.8-1.8c0-0.6,0.2-1.1,0.7-1.7c0.5-0.6,1.1-0.8,1.8-0.8
		c0.6,0,1.1,0.2,1.7,0.7c0.6,0.6,0.8,1.2,0.8,1.8c0,0.7-0.2,1.3-0.7,1.8c-0.5,0.5-1.1,0.7-1.8,0.7
		C-250.6,1029.5-251.1,1029.2-251.7,1028.7z"/>
	<path id="XMLID_167_" class="st0" d="M-251.7,1035.5c-0.6-0.5-0.8-1.1-0.8-1.8c0-0.6,0.2-1.1,0.7-1.7c0.5-0.6,1.1-0.8,1.8-0.8
		c0.6,0,1.1,0.2,1.7,0.7c0.6,0.6,0.8,1.2,0.8,1.8c0,0.7-0.2,1.3-0.7,1.8c-0.5,0.5-1.1,0.7-1.8,0.7
		C-250.6,1036.2-251.1,1036-251.7,1035.5z"/>
	<path id="XMLID_166_" class="st0" d="M-245,1042.2c-0.6-0.5-0.8-1.1-0.8-1.8c0-0.6,0.2-1.1,0.7-1.7c0.5-0.6,1.1-0.8,1.8-0.8
		c0.6,0,1.1,0.2,1.7,0.7c0.6,0.6,0.8,1.2,0.8,1.8c0,0.7-0.2,1.3-0.7,1.8c-0.5,0.5-1.1,0.7-1.8,0.7
		C-243.9,1042.9-244.4,1042.7-245,1042.2z"/>
	<path id="XMLID_165_" class="st0" d="M-238.3,1001.9c-0.6-0.5-0.8-1.1-0.8-1.8c0-0.6,0.2-1.1,0.7-1.7c0.5-0.6,1.1-0.8,1.8-0.8
		c0.6,0,1.1,0.2,1.7,0.7c0.6,0.6,0.8,1.2,0.8,1.8c0,0.7-0.2,1.3-0.7,1.8c-0.5,0.5-1.1,0.7-1.8,0.7
		C-237.1,1002.6-237.7,1002.4-238.3,1001.9z"/>
	<path id="XMLID_164_" class="st0" d="M-238.3,1042.2c-0.6-0.5-0.8-1.1-0.8-1.8c0-0.6,0.2-1.1,0.7-1.7c0.5-0.6,1.1-0.8,1.8-0.8
		c0.6,0,1.1,0.2,1.7,0.7c0.6,0.6,0.8,1.2,0.8,1.8c0,0.7-0.2,1.3-0.7,1.8c-0.5,0.5-1.1,0.7-1.8,0.7
		C-237.1,1042.9-237.7,1042.7-238.3,1042.2z"/>
	<path id="XMLID_163_" class="st0" d="M-231.5,1001.9c-0.6-0.5-0.8-1.1-0.8-1.8c0-0.6,0.2-1.1,0.7-1.7c0.5-0.6,1.1-0.8,1.8-0.8
		c0.6,0,1.1,0.2,1.7,0.7c0.6,0.6,0.8,1.2,0.8,1.8c0,0.7-0.2,1.3-0.7,1.8c-0.5,0.5-1.1,0.7-1.8,0.7
		C-230.4,1002.6-231,1002.4-231.5,1001.9z"/>
	<path id="XMLID_162_" class="st0" d="M-231.5,1042.2c-0.6-0.5-0.8-1.1-0.8-1.8c0-0.6,0.2-1.1,0.7-1.7c0.5-0.6,1.1-0.8,1.8-0.8
		c0.6,0,1.1,0.2,1.7,0.7c0.6,0.6,0.8,1.2,0.8,1.8c0,0.7-0.2,1.3-0.7,1.8c-0.5,0.5-1.1,0.7-1.8,0.7
		C-230.4,1042.9-231,1042.7-231.5,1042.2z"/>
	<path id="XMLID_161_" class="st0" d="M-224.8,1008.6c-0.6-0.5-0.8-1.1-0.8-1.8c0-0.6,0.2-1.1,0.7-1.7c0.5-0.6,1.1-0.8,1.8-0.8
		c0.6,0,1.1,0.2,1.7,0.7c0.6,0.6,0.8,1.2,0.8,1.8c0,0.7-0.2,1.3-0.7,1.8c-0.5,0.5-1.1,0.7-1.8,0.7
		C-223.7,1009.4-224.3,1009.1-224.8,1008.6z"/>
	<path id="XMLID_160_" class="st0" d="M-224.8,1015.3c-0.6-0.5-0.8-1.1-0.8-1.8c0-0.6,0.2-1.1,0.7-1.7c0.5-0.6,1.1-0.8,1.8-0.8
		c0.6,0,1.1,0.2,1.7,0.7c0.6,0.6,0.8,1.2,0.8,1.8c0,0.7-0.2,1.3-0.7,1.8c-0.5,0.5-1.1,0.7-1.8,0.7
		C-223.7,1016.1-224.3,1015.8-224.8,1015.3z"/>
	<path id="XMLID_159_" class="st0" d="M-224.8,1022c-0.6-0.5-0.8-1.1-0.8-1.8c0-0.6,0.2-1.1,0.7-1.7c0.5-0.6,1.1-0.8,1.8-0.8
		c0.6,0,1.1,0.2,1.7,0.7c0.6,0.6,0.8,1.2,0.8,1.8c0,0.7-0.2,1.3-0.7,1.8c-0.5,0.5-1.1,0.7-1.8,0.7
		C-223.7,1022.8-224.3,1022.5-224.8,1022z"/>
	<path id="XMLID_158_" class="st0" d="M-224.8,1028.7c-0.6-0.5-0.8-1.1-0.8-1.8c0-0.6,0.2-1.1,0.7-1.7c0.5-0.6,1.1-0.8,1.8-0.8
		c0.6,0,1.1,0.2,1.7,0.7c0.6,0.6,0.8,1.2,0.8,1.8c0,0.7-0.2,1.3-0.7,1.8c-0.5,0.5-1.1,0.7-1.8,0.7
		C-223.7,1029.5-224.3,1029.2-224.8,1028.7z"/>
	<path id="XMLID_157_" class="st0" d="M-224.8,1035.5c-0.6-0.5-0.8-1.1-0.8-1.8c0-0.6,0.2-1.1,0.7-1.7c0.5-0.6,1.1-0.8,1.8-0.8
		c0.6,0,1.1,0.2,1.7,0.7c0.6,0.6,0.8,1.2,0.8,1.8c0,0.7-0.2,1.3-0.7,1.8c-0.5,0.5-1.1,0.7-1.8,0.7
		C-223.7,1036.2-224.3,1036-224.8,1035.5z"/>
	<path id="XMLID_156_" class="st0" d="M-251.7,1001.9c-0.6-0.5-0.8-1.1-0.8-1.8c0-0.6,0.2-1.1,0.7-1.7c0.5-0.6,1.1-0.8,1.8-0.8
		c0.6,0,1.1,0.2,1.7,0.7c0.6,0.6,0.8,1.2,0.8,1.8c0,0.7-0.2,1.3-0.7,1.8c-0.5,0.5-1.1,0.7-1.8,0.7
		C-250.6,1002.6-251.1,1002.4-251.7,1001.9z"/>
	<path id="XMLID_155_" class="st0" d="M-224.8,1001.9c-0.6-0.5-0.8-1.1-0.8-1.8c0-0.6,0.2-1.1,0.7-1.7c0.5-0.6,1.1-0.8,1.8-0.8
		c0.6,0,1.1,0.2,1.7,0.7c0.6,0.6,0.8,1.2,0.8,1.8c0,0.7-0.2,1.3-0.7,1.8c-0.5,0.5-1.1,0.7-1.8,0.7
		C-223.7,1002.6-224.3,1002.4-224.8,1001.9z"/>
	<path id="XMLID_154_" class="st0" d="M-251.7,1042.2c-0.6-0.5-0.8-1.1-0.8-1.8c0-0.6,0.2-1.1,0.7-1.7c0.5-0.6,1.1-0.8,1.8-0.8
		c0.6,0,1.1,0.2,1.7,0.7c0.6,0.6,0.8,1.2,0.8,1.8c0,0.7-0.2,1.3-0.7,1.8c-0.5,0.5-1.1,0.7-1.8,0.7
		C-250.6,1042.9-251.1,1042.7-251.7,1042.2z"/>
	<path id="XMLID_153_" class="st0" d="M-224.8,1042.2c-0.6-0.5-0.8-1.1-0.8-1.8c0-0.6,0.2-1.1,0.7-1.7c0.5-0.6,1.1-0.8,1.8-0.8
		c0.6,0,1.1,0.2,1.7,0.7c0.6,0.6,0.8,1.2,0.8,1.8c0,0.7-0.2,1.3-0.7,1.8c-0.5,0.5-1.1,0.7-1.8,0.7
		C-223.7,1042.9-224.3,1042.7-224.8,1042.2z"/>
	<path id="XMLID_152_" class="st0" d="M-245,1008.6c-0.6-0.5-0.8-1.1-0.8-1.8c0-0.6,0.2-1.1,0.7-1.7c0.5-0.6,1.1-0.8,1.8-0.8
		c0.6,0,1.1,0.2,1.7,0.7c0.6,0.6,0.8,1.2,0.8,1.8c0,0.7-0.2,1.3-0.7,1.8c-0.5,0.5-1.1,0.7-1.8,0.7
		C-243.9,1009.4-244.4,1009.1-245,1008.6z"/>
	<path id="XMLID_151_" class="st0" d="M-245,1015.3c-0.6-0.5-0.8-1.1-0.8-1.8c0-0.6,0.2-1.1,0.7-1.7c0.5-0.6,1.1-0.8,1.8-0.8
		c0.6,0,1.1,0.2,1.7,0.7c0.6,0.6,0.8,1.2,0.8,1.8c0,0.7-0.2,1.3-0.7,1.8c-0.5,0.5-1.1,0.7-1.8,0.7
		C-243.9,1016.1-244.4,1015.8-245,1015.3z"/>
	<path id="XMLID_150_" class="st0" d="M-245,1022c-0.6-0.5-0.8-1.1-0.8-1.8c0-0.6,0.2-1.1,0.7-1.7c0.5-0.6,1.1-0.8,1.8-0.8
		c0.6,0,1.1,0.2,1.7,0.7c0.6,0.6,0.8,1.2,0.8,1.8c0,0.7-0.2,1.3-0.7,1.8c-0.5,0.5-1.1,0.7-1.8,0.7
		C-243.9,1022.8-244.4,1022.5-245,1022z"/>
	<path id="XMLID_149_" class="st0" d="M-245,1028.7c-0.6-0.5-0.8-1.1-0.8-1.8c0-0.6,0.2-1.1,0.7-1.7c0.5-0.6,1.1-0.8,1.8-0.8
		c0.6,0,1.1,0.2,1.7,0.7c0.6,0.6,0.8,1.2,0.8,1.8c0,0.7-0.2,1.3-0.7,1.8c-0.5,0.5-1.1,0.7-1.8,0.7
		C-243.9,1029.5-244.4,1029.2-245,1028.7z"/>
	<path id="XMLID_148_" class="st0" d="M-245,1035.5c-0.6-0.5-0.8-1.1-0.8-1.8c0-0.6,0.2-1.1,0.7-1.7c0.5-0.6,1.1-0.8,1.8-0.8
		c0.6,0,1.1,0.2,1.7,0.7c0.6,0.6,0.8,1.2,0.8,1.8c0,0.7-0.2,1.3-0.7,1.8c-0.5,0.5-1.1,0.7-1.8,0.7
		C-243.9,1036.2-244.4,1036-245,1035.5z"/>
	<path id="XMLID_146_" class="st0" d="M-238.3,1008.6c-0.6-0.5-0.8-1.1-0.8-1.8c0-0.6,0.2-1.1,0.7-1.7c0.5-0.6,1.1-0.8,1.8-0.8
		c0.6,0,1.1,0.2,1.7,0.7c0.6,0.6,0.8,1.2,0.8,1.8c0,0.7-0.2,1.3-0.7,1.8c-0.5,0.5-1.1,0.7-1.8,0.7
		C-237.1,1009.4-237.7,1009.1-238.3,1008.6z"/>
	<path id="XMLID_145_" class="st0" d="M-238.3,1015.3c-0.6-0.5-0.8-1.1-0.8-1.8c0-0.6,0.2-1.1,0.7-1.7c0.5-0.6,1.1-0.8,1.8-0.8
		c0.6,0,1.1,0.2,1.7,0.7c0.6,0.6,0.8,1.2,0.8,1.8c0,0.7-0.2,1.3-0.7,1.8c-0.5,0.5-1.1,0.7-1.8,0.7
		C-237.1,1016.1-237.7,1015.8-238.3,1015.3z"/>
	<path id="XMLID_144_" class="st0" d="M-238.3,1022c-0.6-0.5-0.8-1.1-0.8-1.8c0-0.6,0.2-1.1,0.7-1.7c0.5-0.6,1.1-0.8,1.8-0.8
		c0.6,0,1.1,0.2,1.7,0.7c0.6,0.6,0.8,1.2,0.8,1.8c0,0.7-0.2,1.3-0.7,1.8c-0.5,0.5-1.1,0.7-1.8,0.7
		C-237.1,1022.8-237.7,1022.5-238.3,1022z"/>
	<path id="XMLID_143_" class="st0" d="M-238.3,1028.7c-0.6-0.5-0.8-1.1-0.8-1.8c0-0.6,0.2-1.1,0.7-1.7c0.5-0.6,1.1-0.8,1.8-0.8
		c0.6,0,1.1,0.2,1.7,0.7c0.6,0.6,0.8,1.2,0.8,1.8c0,0.7-0.2,1.3-0.7,1.8c-0.5,0.5-1.1,0.7-1.8,0.7
		C-237.1,1029.5-237.7,1029.2-238.3,1028.7z"/>
	<path id="XMLID_142_" class="st0" d="M-238.3,1035.5c-0.6-0.5-0.8-1.1-0.8-1.8c0-0.6,0.2-1.1,0.7-1.7c0.5-0.6,1.1-0.8,1.8-0.8
		c0.6,0,1.1,0.2,1.7,0.7c0.6,0.6,0.8,1.2,0.8,1.8c0,0.7-0.2,1.3-0.7,1.8c-0.5,0.5-1.1,0.7-1.8,0.7
		C-237.1,1036.2-237.7,1036-238.3,1035.5z"/>
	<path id="XMLID_141_" class="st0" d="M-231.5,1008.6c-0.6-0.5-0.8-1.1-0.8-1.8c0-0.6,0.2-1.1,0.7-1.7c0.5-0.6,1.1-0.8,1.8-0.8
		c0.6,0,1.1,0.2,1.7,0.7c0.6,0.6,0.8,1.2,0.8,1.8c0,0.7-0.2,1.3-0.7,1.8c-0.5,0.5-1.1,0.7-1.8,0.7
		C-230.4,1009.4-231,1009.1-231.5,1008.6z"/>
	<path id="XMLID_140_" class="st0" d="M-231.5,1015.3c-0.6-0.5-0.8-1.1-0.8-1.8c0-0.6,0.2-1.1,0.7-1.7c0.5-0.6,1.1-0.8,1.8-0.8
		c0.6,0,1.1,0.2,1.7,0.7c0.6,0.6,0.8,1.2,0.8,1.8c0,0.7-0.2,1.3-0.7,1.8c-0.5,0.5-1.1,0.7-1.8,0.7
		C-230.4,1016.1-231,1015.8-231.5,1015.3z"/>
	<path id="XMLID_139_" class="st0" d="M-231.5,1022c-0.6-0.5-0.8-1.1-0.8-1.8c0-0.6,0.2-1.1,0.7-1.7c0.5-0.6,1.1-0.8,1.8-0.8
		c0.6,0,1.1,0.2,1.7,0.7c0.6,0.6,0.8,1.2,0.8,1.8c0,0.7-0.2,1.3-0.7,1.8c-0.5,0.5-1.1,0.7-1.8,0.7
		C-230.4,1022.8-231,1022.5-231.5,1022z"/>
	<path id="XMLID_138_" class="st0" d="M-231.5,1028.7c-0.6-0.5-0.8-1.1-0.8-1.8c0-0.6,0.2-1.1,0.7-1.7c0.5-0.6,1.1-0.8,1.8-0.8
		c0.6,0,1.1,0.2,1.7,0.7c0.6,0.6,0.8,1.2,0.8,1.8c0,0.7-0.2,1.3-0.7,1.8c-0.5,0.5-1.1,0.7-1.8,0.7
		C-230.4,1029.5-231,1029.2-231.5,1028.7z"/>
	<path id="XMLID_137_" class="st0" d="M-231.5,1035.5c-0.6-0.5-0.8-1.1-0.8-1.8c0-0.6,0.2-1.1,0.7-1.7c0.5-0.6,1.1-0.8,1.8-0.8
		c0.6,0,1.1,0.2,1.7,0.7c0.6,0.6,0.8,1.2,0.8,1.8c0,0.7-0.2,1.3-0.7,1.8c-0.5,0.5-1.1,0.7-1.8,0.7
		C-230.4,1036.2-231,1036-231.5,1035.5z"/>
	<path id="XMLID_136_" class="st0" d="M-211.5,1008.6c-0.6-0.5-0.8-1.1-0.8-1.8c0-0.6,0.2-1.1,0.7-1.7c0.5-0.6,1.1-0.8,1.8-0.8
		c0.6,0,1.1,0.2,1.7,0.7c0.6,0.6,0.8,1.2,0.8,1.8c0,0.7-0.2,1.3-0.7,1.8c-0.5,0.5-1.1,0.7-1.8,0.7
		C-210.4,1009.4-211,1009.1-211.5,1008.6z"/>
	<path id="XMLID_135_" class="st0" d="M-211.5,1015.3c-0.6-0.5-0.8-1.1-0.8-1.8c0-0.6,0.2-1.1,0.7-1.7c0.5-0.6,1.1-0.8,1.8-0.8
		c0.6,0,1.1,0.2,1.7,0.7c0.6,0.6,0.8,1.2,0.8,1.8c0,0.7-0.2,1.3-0.7,1.8c-0.5,0.5-1.1,0.7-1.8,0.7
		C-210.4,1016.1-211,1015.8-211.5,1015.3z"/>
	<path id="XMLID_134_" class="st0" d="M-211.5,1022c-0.6-0.5-0.8-1.1-0.8-1.8c0-0.6,0.2-1.1,0.7-1.7c0.5-0.6,1.1-0.8,1.8-0.8
		c0.6,0,1.1,0.2,1.7,0.7c0.6,0.6,0.8,1.2,0.8,1.8c0,0.7-0.2,1.3-0.7,1.8c-0.5,0.5-1.1,0.7-1.8,0.7
		C-210.4,1022.8-211,1022.5-211.5,1022z"/>
	<path id="XMLID_133_" class="st0" d="M-211.5,1028.7c-0.6-0.5-0.8-1.1-0.8-1.8c0-0.6,0.2-1.1,0.7-1.7c0.5-0.6,1.1-0.8,1.8-0.8
		c0.6,0,1.1,0.2,1.7,0.7c0.6,0.6,0.8,1.2,0.8,1.8c0,0.7-0.2,1.3-0.7,1.8c-0.5,0.5-1.1,0.7-1.8,0.7
		C-210.4,1029.5-211,1029.2-211.5,1028.7z"/>
	<path id="XMLID_132_" class="st0" d="M-211.5,1035.5c-0.6-0.5-0.8-1.1-0.8-1.8c0-0.6,0.2-1.1,0.7-1.7c0.5-0.6,1.1-0.8,1.8-0.8
		c0.6,0,1.1,0.2,1.7,0.7c0.6,0.6,0.8,1.2,0.8,1.8c0,0.7-0.2,1.3-0.7,1.8c-0.5,0.5-1.1,0.7-1.8,0.7
		C-210.4,1036.2-211,1036-211.5,1035.5z"/>
	<path id="XMLID_131_" class="st0" d="M-204.8,1042.2c-0.6-0.5-0.8-1.1-0.8-1.8c0-0.6,0.2-1.1,0.7-1.7c0.5-0.6,1.1-0.8,1.8-0.8
		c0.6,0,1.1,0.2,1.7,0.7c0.6,0.6,0.8,1.2,0.8,1.8c0,0.7-0.2,1.3-0.7,1.8c-0.5,0.5-1.1,0.7-1.8,0.7
		C-203.7,1042.9-204.3,1042.7-204.8,1042.2z"/>
	<path id="XMLID_130_" class="st0" d="M-198.1,1001.9c-0.6-0.5-0.8-1.1-0.8-1.8c0-0.6,0.2-1.1,0.7-1.7c0.5-0.6,1.1-0.8,1.8-0.8
		c0.6,0,1.1,0.2,1.7,0.7c0.6,0.6,0.8,1.2,0.8,1.8c0,0.7-0.2,1.3-0.7,1.8c-0.5,0.5-1.1,0.7-1.8,0.7
		C-197,1002.6-197.6,1002.4-198.1,1001.9z"/>
	<path id="XMLID_129_" class="st0" d="M-198.1,1042.2c-0.6-0.5-0.8-1.1-0.8-1.8c0-0.6,0.2-1.1,0.7-1.7c0.5-0.6,1.1-0.8,1.8-0.8
		c0.6,0,1.1,0.2,1.7,0.7c0.6,0.6,0.8,1.2,0.8,1.8c0,0.7-0.2,1.3-0.7,1.8c-0.5,0.5-1.1,0.7-1.8,0.7
		C-197,1042.9-197.6,1042.7-198.1,1042.2z"/>
	<path id="XMLID_128_" class="st0" d="M-191.4,1001.9c-0.6-0.5-0.8-1.1-0.8-1.8c0-0.6,0.2-1.1,0.7-1.7c0.5-0.6,1.1-0.8,1.8-0.8
		c0.6,0,1.1,0.2,1.7,0.7c0.6,0.6,0.8,1.2,0.8,1.8c0,0.7-0.2,1.3-0.7,1.8c-0.5,0.5-1.1,0.7-1.8,0.7
		C-190.3,1002.6-190.8,1002.4-191.4,1001.9z"/>
	<path id="XMLID_127_" class="st0" d="M-191.4,1042.2c-0.6-0.5-0.8-1.1-0.8-1.8c0-0.6,0.2-1.1,0.7-1.7c0.5-0.6,1.1-0.8,1.8-0.8
		c0.6,0,1.1,0.2,1.7,0.7c0.6,0.6,0.8,1.2,0.8,1.8c0,0.7-0.2,1.3-0.7,1.8c-0.5,0.5-1.1,0.7-1.8,0.7
		C-190.3,1042.9-190.8,1042.7-191.4,1042.2z"/>
	<path id="XMLID_126_" class="st0" d="M-184.7,1008.6c-0.6-0.5-0.8-1.1-0.8-1.8c0-0.6,0.2-1.1,0.7-1.7c0.5-0.6,1.1-0.8,1.8-0.8
		c0.6,0,1.1,0.2,1.7,0.7c0.6,0.6,0.8,1.2,0.8,1.8c0,0.7-0.2,1.3-0.7,1.8c-0.5,0.5-1.1,0.7-1.8,0.7
		C-183.6,1009.4-184.1,1009.1-184.7,1008.6z"/>
	<path id="XMLID_125_" class="st0" d="M-184.7,1015.3c-0.6-0.5-0.8-1.1-0.8-1.8c0-0.6,0.2-1.1,0.7-1.7c0.5-0.6,1.1-0.8,1.8-0.8
		c0.6,0,1.1,0.2,1.7,0.7c0.6,0.6,0.8,1.2,0.8,1.8c0,0.7-0.2,1.3-0.7,1.8c-0.5,0.5-1.1,0.7-1.8,0.7
		C-183.6,1016.1-184.1,1015.8-184.7,1015.3z"/>
	<path id="XMLID_124_" class="st0" d="M-184.7,1022c-0.6-0.5-0.8-1.1-0.8-1.8c0-0.6,0.2-1.1,0.7-1.7c0.5-0.6,1.1-0.8,1.8-0.8
		c0.6,0,1.1,0.2,1.7,0.7c0.6,0.6,0.8,1.2,0.8,1.8c0,0.7-0.2,1.3-0.7,1.8c-0.5,0.5-1.1,0.7-1.8,0.7
		C-183.6,1022.8-184.1,1022.5-184.7,1022z"/>
	<path id="XMLID_123_" class="st0" d="M-184.7,1028.7c-0.6-0.5-0.8-1.1-0.8-1.8c0-0.6,0.2-1.1,0.7-1.7c0.5-0.6,1.1-0.8,1.8-0.8
		c0.6,0,1.1,0.2,1.7,0.7c0.6,0.6,0.8,1.2,0.8,1.8c0,0.7-0.2,1.3-0.7,1.8c-0.5,0.5-1.1,0.7-1.8,0.7
		C-183.6,1029.5-184.1,1029.2-184.7,1028.7z"/>
	<path id="XMLID_122_" class="st0" d="M-184.7,1035.5c-0.6-0.5-0.8-1.1-0.8-1.8c0-0.6,0.2-1.1,0.7-1.7c0.5-0.6,1.1-0.8,1.8-0.8
		c0.6,0,1.1,0.2,1.7,0.7c0.6,0.6,0.8,1.2,0.8,1.8c0,0.7-0.2,1.3-0.7,1.8c-0.5,0.5-1.1,0.7-1.8,0.7
		C-183.6,1036.2-184.1,1036-184.7,1035.5z"/>
	<path id="XMLID_121_" class="st0" d="M-211.5,1001.9c-0.6-0.5-0.8-1.1-0.8-1.8c0-0.6,0.2-1.1,0.7-1.7c0.5-0.6,1.1-0.8,1.8-0.8
		c0.6,0,1.1,0.2,1.7,0.7c0.6,0.6,0.8,1.2,0.8,1.8c0,0.7-0.2,1.3-0.7,1.8c-0.5,0.5-1.1,0.7-1.8,0.7
		C-210.4,1002.6-211,1002.4-211.5,1001.9z"/>
	<path id="XMLID_120_" class="st0" d="M-184.7,1001.9c-0.6-0.5-0.8-1.1-0.8-1.8c0-0.6,0.2-1.1,0.7-1.7c0.5-0.6,1.1-0.8,1.8-0.8
		c0.6,0,1.1,0.2,1.7,0.7c0.6,0.6,0.8,1.2,0.8,1.8c0,0.7-0.2,1.3-0.7,1.8c-0.5,0.5-1.1,0.7-1.8,0.7
		C-183.6,1002.6-184.1,1002.4-184.7,1001.9z"/>
	<path id="XMLID_119_" class="st0" d="M-211.5,1042.2c-0.6-0.5-0.8-1.1-0.8-1.8c0-0.6,0.2-1.1,0.7-1.7c0.5-0.6,1.1-0.8,1.8-0.8
		c0.6,0,1.1,0.2,1.7,0.7c0.6,0.6,0.8,1.2,0.8,1.8c0,0.7-0.2,1.3-0.7,1.8c-0.5,0.5-1.1,0.7-1.8,0.7
		C-210.4,1042.9-211,1042.7-211.5,1042.2z"/>
	<path id="XMLID_118_" class="st0" d="M-184.7,1042.2c-0.6-0.5-0.8-1.1-0.8-1.8c0-0.6,0.2-1.1,0.7-1.7c0.5-0.6,1.1-0.8,1.8-0.8
		c0.6,0,1.1,0.2,1.7,0.7c0.6,0.6,0.8,1.2,0.8,1.8c0,0.7-0.2,1.3-0.7,1.8c-0.5,0.5-1.1,0.7-1.8,0.7
		C-183.6,1042.9-184.1,1042.7-184.7,1042.2z"/>
	<path id="XMLID_117_" class="st0" d="M-204.8,1008.6c-0.6-0.5-0.8-1.1-0.8-1.8c0-0.6,0.2-1.1,0.7-1.7c0.5-0.6,1.1-0.8,1.8-0.8
		c0.6,0,1.1,0.2,1.7,0.7c0.6,0.6,0.8,1.2,0.8,1.8c0,0.7-0.2,1.3-0.7,1.8c-0.5,0.5-1.1,0.7-1.8,0.7
		C-203.7,1009.4-204.3,1009.1-204.8,1008.6z"/>
	<path id="XMLID_116_" class="st0" d="M-204.8,1015.3c-0.6-0.5-0.8-1.1-0.8-1.8c0-0.6,0.2-1.1,0.7-1.7c0.5-0.6,1.1-0.8,1.8-0.8
		c0.6,0,1.1,0.2,1.7,0.7c0.6,0.6,0.8,1.2,0.8,1.8c0,0.7-0.2,1.3-0.7,1.8c-0.5,0.5-1.1,0.7-1.8,0.7
		C-203.7,1016.1-204.3,1015.8-204.8,1015.3z"/>
	<path id="XMLID_115_" class="st0" d="M-204.8,1022c-0.6-0.5-0.8-1.1-0.8-1.8c0-0.6,0.2-1.1,0.7-1.7c0.5-0.6,1.1-0.8,1.8-0.8
		c0.6,0,1.1,0.2,1.7,0.7c0.6,0.6,0.8,1.2,0.8,1.8c0,0.7-0.2,1.3-0.7,1.8c-0.5,0.5-1.1,0.7-1.8,0.7
		C-203.7,1022.8-204.3,1022.5-204.8,1022z"/>
	<path id="XMLID_114_" class="st0" d="M-204.8,1028.7c-0.6-0.5-0.8-1.1-0.8-1.8c0-0.6,0.2-1.1,0.7-1.7c0.5-0.6,1.1-0.8,1.8-0.8
		c0.6,0,1.1,0.2,1.7,0.7c0.6,0.6,0.8,1.2,0.8,1.8c0,0.7-0.2,1.3-0.7,1.8c-0.5,0.5-1.1,0.7-1.8,0.7
		C-203.7,1029.5-204.3,1029.2-204.8,1028.7z"/>
	<path id="XMLID_113_" class="st0" d="M-204.8,1035.5c-0.6-0.5-0.8-1.1-0.8-1.8c0-0.6,0.2-1.1,0.7-1.7c0.5-0.6,1.1-0.8,1.8-0.8
		c0.6,0,1.1,0.2,1.7,0.7c0.6,0.6,0.8,1.2,0.8,1.8c0,0.7-0.2,1.3-0.7,1.8c-0.5,0.5-1.1,0.7-1.8,0.7
		C-203.7,1036.2-204.3,1036-204.8,1035.5z"/>
	<path id="XMLID_111_" class="st0" d="M-198.1,1008.6c-0.6-0.5-0.8-1.1-0.8-1.8c0-0.6,0.2-1.1,0.7-1.7c0.5-0.6,1.1-0.8,1.8-0.8
		c0.6,0,1.1,0.2,1.7,0.7c0.6,0.6,0.8,1.2,0.8,1.8c0,0.7-0.2,1.3-0.7,1.8c-0.5,0.5-1.1,0.7-1.8,0.7
		C-197,1009.4-197.6,1009.1-198.1,1008.6z"/>
	<path id="XMLID_110_" class="st0" d="M-198.1,1015.3c-0.6-0.5-0.8-1.1-0.8-1.8c0-0.6,0.2-1.1,0.7-1.7c0.5-0.6,1.1-0.8,1.8-0.8
		c0.6,0,1.1,0.2,1.7,0.7c0.6,0.6,0.8,1.2,0.8,1.8c0,0.7-0.2,1.3-0.7,1.8c-0.5,0.5-1.1,0.7-1.8,0.7
		C-197,1016.1-197.6,1015.8-198.1,1015.3z"/>
	<path id="XMLID_109_" class="st0" d="M-198.1,1022c-0.6-0.5-0.8-1.1-0.8-1.8c0-0.6,0.2-1.1,0.7-1.7c0.5-0.6,1.1-0.8,1.8-0.8
		c0.6,0,1.1,0.2,1.7,0.7c0.6,0.6,0.8,1.2,0.8,1.8c0,0.7-0.2,1.3-0.7,1.8c-0.5,0.5-1.1,0.7-1.8,0.7
		C-197,1022.8-197.6,1022.5-198.1,1022z"/>
	<path id="XMLID_108_" class="st0" d="M-198.1,1028.7c-0.6-0.5-0.8-1.1-0.8-1.8c0-0.6,0.2-1.1,0.7-1.7c0.5-0.6,1.1-0.8,1.8-0.8
		c0.6,0,1.1,0.2,1.7,0.7c0.6,0.6,0.8,1.2,0.8,1.8c0,0.7-0.2,1.3-0.7,1.8c-0.5,0.5-1.1,0.7-1.8,0.7
		C-197,1029.5-197.6,1029.2-198.1,1028.7z"/>
	<path id="XMLID_107_" class="st0" d="M-198.1,1035.5c-0.6-0.5-0.8-1.1-0.8-1.8c0-0.6,0.2-1.1,0.7-1.7c0.5-0.6,1.1-0.8,1.8-0.8
		c0.6,0,1.1,0.2,1.7,0.7c0.6,0.6,0.8,1.2,0.8,1.8c0,0.7-0.2,1.3-0.7,1.8c-0.5,0.5-1.1,0.7-1.8,0.7
		C-197,1036.2-197.6,1036-198.1,1035.5z"/>
	<path id="XMLID_106_" class="st0" d="M-191.4,1008.6c-0.6-0.5-0.8-1.1-0.8-1.8c0-0.6,0.2-1.1,0.7-1.7c0.5-0.6,1.1-0.8,1.8-0.8
		c0.6,0,1.1,0.2,1.7,0.7c0.6,0.6,0.8,1.2,0.8,1.8c0,0.7-0.2,1.3-0.7,1.8c-0.5,0.5-1.1,0.7-1.8,0.7
		C-190.3,1009.4-190.8,1009.1-191.4,1008.6z"/>
	<path id="XMLID_105_" class="st0" d="M-191.4,1015.3c-0.6-0.5-0.8-1.1-0.8-1.8c0-0.6,0.2-1.1,0.7-1.7c0.5-0.6,1.1-0.8,1.8-0.8
		c0.6,0,1.1,0.2,1.7,0.7c0.6,0.6,0.8,1.2,0.8,1.8c0,0.7-0.2,1.3-0.7,1.8c-0.5,0.5-1.1,0.7-1.8,0.7
		C-190.3,1016.1-190.8,1015.8-191.4,1015.3z"/>
	<path id="XMLID_104_" class="st0" d="M-191.4,1022c-0.6-0.5-0.8-1.1-0.8-1.8c0-0.6,0.2-1.1,0.7-1.7c0.5-0.6,1.1-0.8,1.8-0.8
		c0.6,0,1.1,0.2,1.7,0.7c0.6,0.6,0.8,1.2,0.8,1.8c0,0.7-0.2,1.3-0.7,1.8c-0.5,0.5-1.1,0.7-1.8,0.7
		C-190.3,1022.8-190.8,1022.5-191.4,1022z"/>
	<path id="XMLID_103_" class="st0" d="M-191.4,1028.7c-0.6-0.5-0.8-1.1-0.8-1.8c0-0.6,0.2-1.1,0.7-1.7c0.5-0.6,1.1-0.8,1.8-0.8
		c0.6,0,1.1,0.2,1.7,0.7c0.6,0.6,0.8,1.2,0.8,1.8c0,0.7-0.2,1.3-0.7,1.8c-0.5,0.5-1.1,0.7-1.8,0.7
		C-190.3,1029.5-190.8,1029.2-191.4,1028.7z"/>
	<path id="XMLID_102_" class="st0" d="M-191.4,1035.5c-0.6-0.5-0.8-1.1-0.8-1.8c0-0.6,0.2-1.1,0.7-1.7c0.5-0.6,1.1-0.8,1.8-0.8
		c0.6,0,1.1,0.2,1.7,0.7c0.6,0.6,0.8,1.2,0.8,1.8c0,0.7-0.2,1.3-0.7,1.8c-0.5,0.5-1.1,0.7-1.8,0.7
		C-190.3,1036.2-190.8,1036-191.4,1035.5z"/>
</g>
<text id="speed" transform="matrix(1 0 0 1 -293.3168 1043.5348)" style="fill:#EAC720; font-family:'JD-LCD-Rounded'; font-size:107.3764px;">000</text>
<path id="diro1" class="st3" d="M67.1,917.9c-23.5,0-42.5,19-42.5,42.5s19,42.5,42.5,42.5c23.5,0,42.5-19,42.5-42.5
	S90.6,917.9,67.1,917.9z M95.8,969.4c-2.4,7.7-7.7,13.9-14.8,17.6c-4.4,2.3-9.2,3.4-13.8,3.4c-10.9,0-21.4-5.9-26.7-16.2
	c-2.7-5.2-3.8-11.1-3.2-17l9.4,1c-0.4,4,0.3,8,2.2,11.6c5.2,10.1,17.7,14,27.8,8.8c4.9-2.5,8.5-6.8,10.2-12.1
	c1.7-5.3,1.2-10.8-1.4-15.7c-1.5-2.9-3.7-5.4-6.3-7.2l0.1,7.5l-23.9-13.3l23.4-14l0.1,8.9c6.4,2.7,11.6,7.5,14.8,13.8
	C97.5,953.6,98.2,961.8,95.8,969.4z"/>
<path id="dirw1" class="st3" d="M-424.1,919c-23.5,0-42.5,19-42.5,42.5s19,42.5,42.5,42.5c23.5,0,42.5-19,42.5-42.5
	S-400.6,919-424.1,919z M-400.1,979.7c-4.9,6.4-11.9,10.5-19.9,11.6c-1.4,0.2-2.8,0.3-4.1,0.3c-6.5,0-12.8-2.1-18.1-6.1
	c-6.4-4.9-10.5-11.9-11.6-19.9c-1.8-13,5.3-25.8,17-31.3l-0.2-8.9l23.9,13.3l-23.4,14.1l-0.1-7.5c-5.7,4.4-8.8,11.7-7.8,19.1
	c0.7,5.5,3.6,10.3,8,13.6c4.4,3.3,9.8,4.8,15.3,4c5.5-0.7,10.3-3.6,13.6-8c3.3-4.4,4.8-9.8,4-15.3l9.4-1.3
	C-393.2,965.4-395.3,973.3-400.1,979.7z"/>
<g id="line">
	<path id="XMLID_700_" class="st3" d="M-243.5,976.7c0,1.8,1.2,2.6,2.6,2.6c1.8,0,3.2-1.2,3.6-2.5c0.1-0.3,0.1-0.7,0.1-1v-2.5
		C-240.4,973.3-243.5,974-243.5,976.7z"/>
	<path id="XMLID_701_" class="st3" d="M-274.4,970.7h-2.3v8.3c0.6,0.1,1.4,0.1,2.4,0.1c3,0,5.6-1.1,5.6-4.2
		C-268.7,971.9-271.2,970.7-274.4,970.7z"/>
	<rect id="XMLID_1009_" x="-148.1" y="893.3" class="st3" width="20.5" height="5.9"/>
	<path id="XMLID_1029_" class="st3" d="M-269.3,963.7c0-2.4-1.8-3.4-4.7-3.4c-1.4,0-2.1,0.1-2.6,0.2v6.9h2.4
		C-271.1,967.3-269.3,965.8-269.3,963.7z"/>
	<path id="XMLID_1030_" class="st3" d="M-213.5,912.9h-21.7c2.5,5.9,5.9,10.7,10,14.7C-220.5,923.6-216.6,918.8-213.5,912.9z"/>
	<path id="XMLID_1039_" class="st3" d="M-103.2,966.7c-2.9,0-4.1,2.6-4.2,4.5h8C-99.4,969.5-100.1,966.7-103.2,966.7z"/>
	<rect id="XMLID_1040_" x="-148.1" y="903.8" class="st3" width="20.5" height="5.9"/>
	<path id="XMLID_1043_" class="st3" d="M-100.6,877.1h-174.9c-5,0-9.1,4.1-9.1,9.1v91.4c0,5,4.1,9.1,9.1,9.1h174.9
		c5,0,9.1-4.1,9.1-9.1v-91.4C-91.5,881.2-95.6,877.1-100.6,877.1z M-242.2,912.9h-9.1v-5.6h21.4v-10.5H-258v-5.6h28.1v-9.4h6.4
		c2,0.4,2.1,1.2,0.3,2.3v7h28.4v5.6h-28.4v10.5h13.5l1.8-1.8l5,4.4l-1.2,0.6c-4.9,9-10.3,16-16.1,21.1c6.4,4.1,15.2,7.1,26.4,9.1
		l-2.3,7.3c-12.9-2.9-22.7-7-29.3-12.3c-8.6,5.5-19,9.7-31.4,12.6l-2.6-6.7c11.5-2.1,21.2-5.5,29-10
		C-235.6,926-239.5,919.7-242.2,912.9z M-266.2,980.2c-1.8,1.6-4.8,2.4-9.4,2.4c-2.6,0-4.5-0.2-5.7-0.3v-24.9
		c1.5-0.3,4.1-0.5,6.7-0.5c3.4,0,5.5,0.4,7.2,1.6c1.6,0.9,2.6,2.6,2.6,4.7c0,2.3-1.5,4.5-4.2,5.5v0.1c2.7,0.7,5.1,2.8,5.1,6.3
		C-263.8,977.2-264.8,979-266.2,980.2z M-249.6,968c-0.4-0.1-0.8-0.1-1.4-0.1c-2.2,0-3.7,1.4-4.1,3.5c-0.1,0.4-0.1,0.9-0.1,1.4v9.5
		h-4.6v-12.4c0-2.5,0-4.2-0.2-5.9h4l0.1,3.5h0.1c0.9-2.6,3-3.9,5-3.9c0.5,0,0.7,0,1.1,0.1V968z M-236.5,982.3l-0.3-2h-0.1
		c-1.1,1.4-3,2.4-5.4,2.4c-3.7,0-5.7-2.7-5.7-5.4c0-4.6,4.1-6.9,10.8-6.9V970c0-1.2-0.5-3.2-3.7-3.2c-1.8,0-3.7,0.6-4.9,1.4l-0.9-3
		c1.4-0.8,3.7-1.6,6.6-1.6c5.9,0,7.5,3.7,7.5,7.7v6.6c0,1.7,0.1,3.3,0.3,4.4H-236.5z M-211.2,982.3h-4.6v-10.3c0-2.6-1-4.6-3.5-4.6
		c-1.8,0-3.1,1.3-3.6,2.7c-0.1,0.4-0.2,1-0.2,1.5v10.7h-4.7v-12.8c0-2.1,0-3.9-0.2-5.4h4.1l0.2,2.7h0.1c0.8-1.4,2.8-3.2,5.8-3.2
		c3.2,0,6.5,2.1,6.5,7.8V982.3z M-197.2,979c1.6,0,2.7-0.3,3.6-0.7l0.6,3.4c-1,0.4-2.9,0.9-5.2,0.9c-5.7,0-9.4-3.6-9.4-9.3
		c0-5.5,3.8-9.8,10.2-9.8c1.7,0,3.4,0.4,4.5,0.9l-0.8,3.5c-0.7-0.3-1.8-0.7-3.5-0.7c-3.5,0-5.6,2.6-5.6,5.9
		C-202.7,976.9-200.3,979-197.2,979z M-172.9,982.3h-4.6V972c0-2.7-1-4.7-3.5-4.7c-1.8,0-3.1,1.2-3.6,2.6c-0.1,0.4-0.2,0.9-0.2,1.4
		v10.9h-4.7v-26.6h4.7v10.9h0.1c0.6-0.9,1.3-1.6,2.3-2.1c0.9-0.5,2-0.8,3.2-0.8c3.1,0,6.4,2.1,6.4,7.9V982.3z M-183.6,940.4
		c1.6-7.4,2.3-13.3,2.3-17.6l5.3,0.6c1.6,0.4,1.7,0.9,0.3,1.5c0,6.4-0.8,12.6-2.3,18.5L-183.6,940.4z M-167.2,948.9h-5.9v-31.6
		l-9.7,0.6c-1,1.2-1.6,0.8-1.8-1.2l-0.6-4.4h5.9l4.1-5.6l-9.1-7.3l2.9-4.4l1.5,0.9c3.9-6.1,6.6-10.7,8.2-14.1l5.3,2.6
		c0.8,0.8,0.5,1.3-0.9,1.5c-4.1,6.6-6.8,10.9-8.2,12.9l3.8,3.2l7.9-12.3l4.7,3.2c0.8,0.8,0.5,1.3-0.9,1.5
		c-5.3,7.8-9.6,13.7-12.9,17.6l9.7-0.9l-2.1-4.1l4.4-2.3c2.9,3.7,5.1,7.7,6.4,12l-5.3,2.3l-1.5-3.2l-6.2,0.9V948.9z M-156.3,925.2
		v-4.7h8.5l0.9-0.9l4.4,2.1l-0.6,1.5c-0.2,10.9-4.5,18.8-12.9,23.4l-3.8-4.4c7-4.3,10.7-10,11.1-17H-156.3z M-164.8,923.7l5-1.2
		c1.4,2.9,2.3,7,2.9,12.3l-5.6,1.2C-162.7,932.7-163.5,928.6-164.8,923.7z M-145.1,982.3h-15V957h4.6v21.4h10.4V982.3z
		 M-137.1,982.3h-4.7V964h4.7V982.3z M-139.5,961.4c-1.5,0-2.6-1.1-2.6-2.5c0-1.4,1-2.5,2.6-2.5c1.6,0,2.6,1.1,2.6,2.5
		C-136.8,960.3-137.9,961.4-139.5,961.4z M-135.5,943.7c0,2.9-1.2,4.4-3.5,4.4h-5.6l-1.2-4.7h4.1c0.8,0,1.2-0.4,1.2-1.2v-27.8h-6.4
		h-6.2v-25.8h11.1l1.8-7.9l6.2,1.2c1.6,0.6,1.5,1.2-0.3,1.8l-2.3,5h14.1v25.8h-12.9v3.5c0,1.4,1.1,3.8,3.2,7.3l9.1-9.1l4.1,4.7
		c0.2,1-0.3,1.3-1.5,0.9l-9.1,7c3.1,4.1,7.3,7.8,12.6,11.1l-3.2,5.9c-6.1-3.9-11.1-9.5-15.2-16.7V943.7z M-115.6,982.3h-4.6v-10.3
		c0-2.6-1-4.6-3.5-4.6c-1.8,0-3.1,1.3-3.6,2.7c-0.1,0.4-0.2,1-0.2,1.5v10.7h-4.7v-12.8c0-2.1,0-3.9-0.2-5.4h4.1l0.2,2.7h0.1
		c0.8-1.4,2.8-3.2,5.8-3.2c3.2,0,6.5,2.1,6.5,7.8V982.3z M-95.2,974.4h-12.2c0.1,3.3,2.7,4.7,5.6,4.7c2.1,0,3.7-0.3,5.1-0.8l0.7,3.2
		c-1.6,0.6-3.8,1.1-6.4,1.1c-5.9,0-9.4-3.6-9.4-9.2c0-5.1,3.1-9.8,8.9-9.8c5.9,0,7.9,4.9,7.9,8.9C-95.1,973.3-95.1,974-95.2,974.4z"
		/>
</g>
</svg>
