<?xml version="1.0" encoding="utf-8"?>
<!-- Generator: Adobe Illustrator 19.0.0, SVG Export Plug-In . SVG Version: 6.00 Build 0)  -->
<svg version="1.1" id="Ebene_1" xmlns="http://www.w3.org/2000/svg" xmlns:xlink="http://www.w3.org/1999/xlink" x="0px" y="0px"
	 viewBox="-835 288.4 595.3 841.9" style="enable-background:new -835 288.4 595.3 841.9;" xml:space="preserve">
<style type="text/css">
	.st0{fill:#020304;}
	.st1{fill:#FFFFFF;}
	.st2{fill:#00B3E3;}
	.st3{fill:#BDBCBC;}
	.st4{fill:#FFFFFF;stroke:#030405;stroke-width:2;stroke-miterlimit:10;}
</style>
<polygon id="gln" class="st0" points="-1272.4,1146 -905.6,1146 -800.2,1041.7 -800.2,951.4 -904.5,847.3 -1150.7,847.3 
	-1133.3,831.7 -898.1,831.7 -784.8,945 -784.8,1048.3 -899.2,1161.7 -1272.4,1161.7 "/>
<polygon id="glmo" class="st0" points="-1150.7,847.3 -1272.1,847.3 -1272.1,831.7 -1133.3,831.7 "/>
<rect id="gllm" x="-1469.4" y="888.6" class="st0" width="201.4" height="15.7"/>
<polygon id="glmw" class="st0" points="-1276.5,847.3 -1839.6,847.3 -1880.9,888.6 -1903,888.6 -1846.1,831.7 -1276.5,831.7 "/>
<polygon id="gllo" class="st0" points="-1272.4,888.6 -1196.5,888.6 -1133.3,831.7 -1127.1,847.3 -1190.3,904.1 -1272.5,904.2 "/>
<polygon id="gllw" class="st0" points="-1469.4,904.2 -1899.6,904.3 -1899.7,888.6 -1469.4,888.6 "/>
<rect id="glkm" x="-1473.8" y="1146" class="st0" width="201.4" height="15.7"/>
<polygon id="glkw" class="st0" points="-1473.8,1161.7 -1845.2,1161.7 -1959.6,1048.3 -1959.6,945.1 -1903,888.6 -1880.9,888.6 
	-1943.9,951.6 -1943.9,1041.7 -1838.6,1146 -1473.8,1146 "/>
<g id="offko">
	<g id="XMLID_49_">
		<polygon id="XMLID_11_" class="st0" points="-1146.5,1165.4 -1132.7,1151.6 -1146.5,1137.7 -1133.4,1124.6 -1106.5,1151.6 
			-1133.4,1178.6 		"/>
		<path id="XMLID_10_" class="st1" d="M-1133.4,1126.6l25,25l-25,25l-11.1-11.1l13.9-13.9l-13.9-13.9L-1133.4,1126.6
			 M-1133.4,1122.6l-2,2l-11.1,11.1l-2,2l2,2l11.9,11.9l-11.9,11.9l-2,2l2,2l11.1,11.1l2,2l2-2l25-25l2-2l-2-2l-25-25
			L-1133.4,1122.6L-1133.4,1122.6z"/>
	</g>
</g>
<g id="offkw">
	<g id="XMLID_13_">
		<polygon id="XMLID_15_" class="st0" points="-1597.7,1137.7 -1611.5,1151.5 -1597.7,1165.4 -1610.8,1178.5 -1637.7,1151.5 
			-1610.8,1124.6 		"/>
		<path id="XMLID_14_" class="st1" d="M-1610.8,1176.5l-25-25l25-25l11.1,11.1l-13.9,13.9l13.9,13.9L-1610.8,1176.5 M-1610.8,1180.5
			l2-2l11.1-11.1l2-2l-2-2l-11.9-11.9l11.9-11.9l2-2l-2-2l-11.1-11.1l-2-2l-2,2l-25,25l-2,2l2,2l25,25L-1610.8,1180.5
			L-1610.8,1180.5z"/>
	</g>
</g>
<g id="labeloben">
	<path class="st2" d="M-1547.6,985.3c0-11.3,3-20.2,8.8-26.6c5.9-6.5,13.8-9.5,23.6-9.5c9.8,0,17.5,3.2,23.5,9.5
		c5.8,6.5,8.8,15.3,8.8,26.6s-3,20.4-8.8,27c-6,6.7-13.8,9.9-23.4,9.9c-9.8,0-17.5-3.3-23.4-9.9
		C-1544.6,1005.7-1547.6,996.7-1547.6,985.3z M-1500.2,985.3c0-6.8-1.4-12.1-4.1-16c-2.6-3.9-6.3-5.7-11-5.7c-4.7,0-8.3,2-11,5.7
		c-2.6,3.9-4,9.2-4,16c0,6.9,1.4,12.4,4,16.4c2.6,4,6.3,6,11,6c4.7,0,8.4-2.1,11-6.1C-1501.6,997.6-1500.2,992.1-1500.2,985.3z"/>
	<path class="st2" d="M-1451.9,1022.1c-5,0-9.7-2.3-13.8-6.9c-0.2-0.2-0.2-0.2-0.4-0.2c-0.2,0-0.2,0.2-0.2,0.2l-0.1,0.4
		c-0.4,1.5-1.1,2.8-2.4,3.8c-1.1,0.9-2.5,1.5-4.1,1.5h-1.3c-1.8,0-3.4-0.7-4.7-2s-2-2.8-2-4.6v-61c0-2.2,0.8-4.1,2.4-5.7
		s3.5-2.4,5.7-2.4h0.7c2.2,0,4.1,0.8,5.7,2.4c1.6,1.6,2.4,3.5,2.4,5.7v10.1l-0.4,7.1c0,0.2,0.2,0.4,0.2,0.5c0.1,0.1,0.4,0.1,0.4,0
		c4.1-3.5,8.5-5.2,13.2-5.2c6.5,0,11.6,2.6,15.5,7.4c3.8,4.9,5.7,11.6,5.7,19.9c0,4.5-0.7,8.6-2,12.4s-3,6.9-5,9.3
		c-2.2,2.4-4.6,4.3-7.2,5.6C-1446.3,1021.6-1449,1022.1-1451.9,1022.1z M-1455.9,1008.4c2.8,0,5-1.3,6.7-3.7
		c1.7-2.4,2.5-6.3,2.5-11.3c0-4.7-0.7-8.3-2.2-10.6c-1.4-2.3-3.5-3.4-6.5-3.4c-2.8,0-5.4,1.3-8,3.9c-0.5,0.5-0.7,1-0.7,1.7v19.4
		c0,0.6,0.2,1.1,0.7,1.5C-1461.1,1007.6-1458.6,1008.4-1455.9,1008.4z"/>
	<path class="st2" d="M-1403.6,1022.1c-8,0-14.5-2.5-19.6-7.6c-5.2-5-7.7-11.9-7.7-20.6c0-4.3,0.7-8.2,2.2-11.8
		c1.5-3.5,3.3-6.7,5.7-8.9c2.4-2.4,5-4.3,8.2-5.5c3.1-1.3,6.2-1.9,9.5-1.9c7.4,0,13,2.3,17,7c4,4.8,6.1,10.9,6.1,18.4
		c0,2.2-0.9,4-2.6,5.5s-3.8,2.2-6.2,2.2h-22.7c-0.2,0-0.5,0.2-0.6,0.4s-0.2,0.5-0.2,0.6c1.7,6.3,6.1,9.5,13.2,9.5
		c2.1,0,4.1-0.4,6.2-1c0.7-0.2,1.5-0.4,2.4-0.4c0.7,0,1.3,0.2,2.2,0.2c1.5,0.5,2.8,1.4,3.5,2.8c0.5,1,0.7,2,0.7,3.1
		c0,1-0.2,2-0.7,2.8c-0.6,0.9-1.3,1.6-2.2,2.1C-1394,1021.1-1398.8,1022.1-1403.6,1022.1z M-1414.7,987.3c0,0.2,0.1,0.2,0.2,0.5
		c0.1,0.2,0.4,0.2,0.6,0.2h16.4c0.2,0,0.5-0.2,0.7-0.2c0.2-0.2,0.2-0.4,0.2-0.7c-0.2-2.6-0.9-4.7-2.3-6.2c-1.4-1.5-3.5-2.3-6.2-2.3
		c-2.3,0-4.3,0.7-6.1,2.2C-1413.6,982.7-1414.7,984.9-1414.7,987.3z"/>
	<path class="st2" d="M-1373,1020.9c-2.2,0-4.1-0.8-5.7-2.4c-1.6-1.6-2.4-3.4-2.4-5.7v-38.9c0-1.9,0.7-3.5,2-4.9
		c1.3-1.4,3-2.1,4.8-2.1h0.7c1.8,0,3.3,0.6,4.7,1.7c1.3,1.1,2.2,2.6,2.4,4.3l0.2,0.5c0,0.1,0.1,0.2,0.2,0.2c0.2,0,0.2,0,0.4-0.2
		c5.4-5.3,11.1-8,17.1-8c5.6,0,9.9,2,12.6,5.7c2.7,3.7,4.1,9.2,4.1,16.2v25.3c0,2.2-0.8,4.1-2.4,5.7c-1.6,1.6-3.4,2.4-5.7,2.4h-0.7
		c-2.2,0-4.1-0.8-5.7-2.4c-1.6-1.6-2.4-3.5-2.4-5.7v-23.2c0-3.5-0.5-6.1-1.5-7.4s-2.6-2.1-4.8-2.1c-1.7,0-3.1,0.4-4.4,0.9
		c-1.3,0.7-2.8,1.7-4.3,3.2c-0.5,0.5-0.7,0.9-0.7,1.6v27c0,2.2-0.8,4.1-2.4,5.7c-1.6,1.6-3.5,2.4-5.7,2.4L-1373,1020.9L-1373,1020.9
		z"/>
	<path class="st2" d="M-1313.1,976.8c2.6-1.3,6.2-2.4,10.6-3.3c4.4-1,9.1-1.6,14-1.6c5,0,9.7,0.7,13.9,2.2c4.3,1.5,7.7,3.9,10.1,7.3
		c2.5,3.5,3.8,7.4,3.8,12.1c-0.2,6.2-1.8,11.7-5,16.5c-3.2,4.8-8.6,8.5-16,10.9c-7.4,2.4-14,3.7-20.1,3.7c-3.8,0-5.8-2.2-5.8-6.5
		c0.1-4.3,2.1-6.7,6.1-6.9c4.7,0,9.5-0.8,14.3-2.5c4.8-1.7,8.2-3.8,9.9-6.5c1.7-2.6,2.4-5.6,2.3-9.1c0-2.5-0.9-4.5-2.8-6
		c-1.8-1.5-5.5-2.2-11-2.3c-3,0.1-6.1,0.4-9.4,1.3c-3.3,0.8-7.4,1.8-12.5,3.3c-3.5,1.4-5.7-0.1-7-4.5
		C-1318.3,981.3-1316.8,978.6-1313.1,976.8z M-1305,951.9c6.1-0.2,11.1-0.4,15-0.2s9.1,0.5,15.5,1c4.5,0.6,6.8,3.1,6.9,7.4
		c-0.2,4.6-2.4,6.5-6.9,5.5c-6.5-0.7-11.6-1.1-15.5-1.3c-6.1,0-10.1,0-11.9,0.1c-1.8,0.2-2.8,0.2-2.8,0.2c-3.9,0.1-6-2-6-6.5
		C-1310.5,954.3-1308.6,952.2-1305,951.9z"/>
	<path class="st2" d="M-1217.6,969.8c4.4,0,7.1,1.7,8.3,5.3c1.1,3.5,0.2,6.5-3.3,9.2l-6.9,6.9c2.2,0.7,3.5,2,3.9,3.5
		c0.4,1.6,0.6,3.2,0.4,4.8c0,1.3,0,2.6,0,4.1s0.2,2.8,0.8,4.3c0.6,1.4,1.6,2.1,3.3,2.2c1.6,0.1,3.5-0.2,5.7-0.7
		c4.1-0.9,6.4,0.9,7,5.2c0.6,4.5-1.3,7.3-5.5,8.5c-2.3,0.7-5.4,1-9.3,1c-4.5-0.2-8.2-1.3-11-4c-2.8-2.6-4.1-6.3-4.1-11.1
		c0-2.4,0-4.3,0-5.3c0-1.1,0-1.6,0-1.6c0-0.2,0-0.4,0-0.7c0-0.5-0.2-0.8-0.4-1.1c-0.2-0.4-0.5-0.4-0.9,0l-17.7,16.5
		c-4.1,3.7-7.7,3.7-10.8,0c-2.3-3.7-2.2-7,0.7-10l27.4-24.2h-19.9c-4.3,0-6.5-2.2-6.5-6.5s2.2-6.5,6.5-6.5h32.2L-1217.6,969.8
		L-1217.6,969.8z M-1244.1,951.1c6.1-0.2,11.1-0.4,15-0.2s8.4,0.5,13.3,1c4.5,0.6,6.8,3.1,6.9,7.4c-0.1,4.3-2.4,6.1-6.9,5.2
		c-4.9-0.5-9.9-0.8-14.9-0.8c-5-0.1-8.5-0.1-10.2-0.2c-1.8-0.2-2.8-0.2-2.8,0c-3.9,0.2-6-1.8-6-6
		C-1249.6,953.7-1247.7,951.5-1244.1,951.1z"/>
	<path class="st2" d="M-1462.2,1086.3c-1.5,0-2.9-0.5-4.2-1.4s-2.1-2.1-2.6-3.6l-10.8-36c-0.1-0.4-0.2-0.8-0.2-1.1
		c0-0.8,0.3-1.6,0.8-2.3c0.8-1,1.8-1.6,3.1-1.6h1.2c1.5,0,2.9,0.5,4.1,1.4s2,2.2,2.4,3.7l4,15.8c0.4,1.7,1,4.2,1.8,7.4
		c0.7,3.2,1.3,5.6,1.7,7.3c0,0.1,0.1,0.1,0.2,0.1c0.1,0,0.2,0,0.2-0.1c0.4-1.6,1-4,1.7-7.3c0.7-3.2,1.3-5.7,1.8-7.4l4-15.8
		c0.4-1.5,1.1-2.8,2.4-3.7c1.2-0.9,2.6-1.4,4.1-1.4h0.8c1.3,0,2.3,0.5,3.1,1.6c0.5,0.7,0.8,1.5,0.8,2.3c0,0.4-0.1,0.7-0.2,1.1
		l-10.8,36c-0.5,1.5-1.4,2.7-2.6,3.6c-1.2,0.9-2.7,1.4-4.2,1.4H-1462.2z"/>
	<path class="st2" d="M-1441.2,1083.5c-1.1,0-2-0.3-2.7-0.9s-1-1.4-1-2.4s0.3-1.8,1-2.4s1.6-0.9,2.7-0.9c1.1,0,1.9,0.3,2.6,0.9
		c0.7,0.6,1,1.4,1,2.4s-0.3,1.8-1,2.4C-1439.3,1083.2-1440.2,1083.5-1441.2,1083.5z M-1441.4,1106.9c-0.8,0-1.6-0.3-2.2-0.9
		c-0.6-0.6-0.9-1.3-0.9-2.2v-14.4c0-0.8,0.3-1.6,0.9-2.2c0.6-0.6,1.3-0.9,2.2-0.9h0.2c0.8,0,1.6,0.3,2.2,0.9
		c0.6,0.6,0.9,1.3,0.9,2.2v14.4c0,0.8-0.3,1.6-0.9,2.2c-0.6,0.6-1.3,0.9-2.2,0.9H-1441.4L-1441.4,1106.9z"/>
	<path class="st2" d="M-1430.4,1107.4c-2,0-3.9-0.5-5.9-1.5c-0.6-0.3-1-0.8-1.1-1.5c0-0.1,0-0.3,0-0.4c0-0.5,0.2-1,0.5-1.4
		c0.4-0.5,0.9-0.9,1.6-1c0.2,0,0.4,0,0.5,0c0.5,0,1,0.1,1.4,0.3c1.1,0.6,2.1,0.8,3.1,0.8c1.6,0,2.4-0.5,2.4-1.6c0-0.2,0-0.3-0.1-0.5
		c-0.1-0.2-0.2-0.3-0.4-0.4s-0.3-0.3-0.5-0.4c-0.1-0.1-0.4-0.2-0.7-0.4c-0.3-0.1-0.5-0.2-0.7-0.3s-0.5-0.2-0.9-0.4
		c-0.4-0.2-0.7-0.3-0.9-0.3c-0.7-0.3-1.3-0.6-1.9-0.9s-1.1-0.7-1.7-1.2c-0.6-0.5-1-1-1.3-1.7c-0.3-0.7-0.5-1.4-0.5-2.2
		c0-2,0.7-3.5,2.2-4.7c1.5-1.2,3.4-1.8,5.8-1.8c1.9,0,3.6,0.4,5.3,1.3c0.6,0.3,0.9,0.8,1,1.4c0,0.1,0,0.3,0,0.4c0,0.5-0.2,1-0.5,1.4
		c-0.4,0.5-0.9,0.8-1.6,1c-0.2,0-0.4,0.1-0.6,0.1c-0.4,0-0.9-0.1-1.3-0.3c-0.8-0.4-1.5-0.5-2.2-0.5c-1.5,0-2.2,0.5-2.2,1.5
		c0,0.1,0,0.3,0.1,0.4c0,0.1,0.1,0.2,0.2,0.3c0.1,0.1,0.2,0.2,0.3,0.3s0.2,0.2,0.4,0.3s0.3,0.2,0.5,0.2s0.3,0.2,0.6,0.2
		c0.2,0.1,0.5,0.2,0.6,0.2c0.2,0.1,0.4,0.1,0.7,0.2c0.3,0.1,0.5,0.2,0.7,0.2c0.8,0.3,1.4,0.6,2,0.9s1.1,0.7,1.7,1.2
		c0.6,0.5,1,1.1,1.3,1.8c0.3,0.7,0.4,1.5,0.4,2.4c0,2-0.7,3.6-2.2,4.8C-1425.6,1106.8-1427.7,1107.4-1430.4,1107.4z"/>
	<path class="st2" d="M-1413.6,1107.4c-2.5,0-4.3-0.7-5.5-2.1c-1.2-1.4-1.8-3.4-1.8-6v-7.6c0-0.2-0.1-0.3-0.3-0.3h-0.1
		c-0.7,0-1.2-0.2-1.7-0.7s-0.7-1-0.7-1.7c0-0.7,0.2-1.3,0.7-1.8s1-0.8,1.7-0.8h0.4c0.2,0,0.4-0.1,0.4-0.4l0.3-2.4
		c0.1-0.8,0.4-1.4,1-1.9c0.6-0.5,1.3-0.8,2-0.8c0.7,0,1.4,0.3,1.9,0.8s0.8,1.2,0.8,1.9v2.4c0,0.2,0.1,0.4,0.4,0.4h2
		c0.7,0,1.3,0.2,1.8,0.7s0.7,1.1,0.7,1.8c0,0.7-0.2,1.3-0.7,1.8s-1.1,0.7-1.8,0.7h-2c-0.2,0-0.4,0.1-0.4,0.4v7.5
		c0,1.9,0.7,3,2.2,3.1c0.7,0.1,1.3,0.3,1.9,0.6c0.5,0.3,0.9,0.8,1,1.3c0,0.2,0.1,0.4,0.1,0.6c0,0.4-0.1,0.9-0.4,1.3
		c-0.3,0.6-0.8,0.9-1.5,1C-1412,1107.4-1412.8,1107.4-1413.6,1107.4z"/>
	<path class="st2" d="M-1398.5,1063.9c-0.9,0-1.6-0.3-2.2-0.9c-0.6-0.6-0.9-1.3-0.9-2.2s0.3-1.6,0.9-2.2c0.6-0.6,1.3-0.9,2.2-0.9
		h20.2c0.8,0,1.6,0.3,2.2,0.9c0.6,0.6,0.9,1.4,0.9,2.2c0,0.9-0.3,1.6-0.9,2.2c-0.6,0.6-1.3,0.9-2.2,0.9H-1398.5z M-1398.5,1077.4
		c-0.9,0-1.6-0.3-2.2-0.9c-0.6-0.6-0.9-1.4-0.9-2.2c0-0.9,0.3-1.6,0.9-2.2c0.6-0.6,1.3-0.9,2.2-0.9h20.2c0.8,0,1.6,0.3,2.2,0.9
		c0.6,0.6,0.9,1.3,0.9,2.2s-0.3,1.6-0.9,2.2c-0.6,0.6-1.3,0.9-2.2,0.9H-1398.5z"/>
</g>
<g id="diro1">
	<path class="st3" d="M-1093.5,986.4c0,17.4-14.1,31.5-31.5,31.5s-31.5-14.1-31.5-31.5c0-17.4,14.1-31.5,31.5-31.5
		S-1093.5,969.1-1093.5,986.4z M-1097.5,986.5c0-15.2-12.4-27.5-27.5-27.5s-27.5,12.2-27.5,27.4c0,15.2,12.4,27.5,27.5,27.5
		S-1097.5,1001.7-1097.5,986.5z"/>
	<polygon id="XMLID_7_" points="-1102.8,986.4 -1129.2,1012.9 -1141,1001.1 -1126.4,986.4 -1141,971.8 -1129.2,960.1 	"/>
</g>
<g id="dirw1">
	<g id="XMLID_21_">
		<path class="st3" d="M-1616.7,955.9c17.4,0,31.5,14.1,31.5,31.5c0,17.4-14.1,31.5-31.5,31.5c-17.4,0-31.5-14.1-31.5-31.5
			C-1648.2,970-1634.1,955.9-1616.7,955.9z M-1616.7,1014.9c15.1,0,27.5-12.3,27.5-27.5c0-15.1-12.3-27.5-27.5-27.5
			c-15.1,0-27.5,12.3-27.5,27.5C-1644.2,1002.5-1631.8,1014.9-1616.7,1014.9z"/>
	</g>
	<g id="XMLID_4_">
		<g id="XMLID_5_">
			<polygon id="XMLID_20_" points="-1612.5,961.1 -1600.7,972.7 -1615.3,987.4 -1600.7,1002.1 -1612.5,1013.8 -1638.9,987.4 			"/>
		</g>
	</g>
</g>
<circle id="sig5o" class="st4" cx="-1203.1" cy="1151.6" r="19.3"/>
<circle id="sig5w" class="st4" cx="-1543.1" cy="1151.6" r="19.3"/>
<circle id="sns20" class="st4" cx="-1473.1" cy="1151.6" r="19.3"/>
<circle id="sns21" class="st4" cx="-1273.1" cy="1151.6" r="19.3"/>
<circle id="sns22" class="st4" cx="-791.9" cy="996.7" r="19.3"/>
<circle id="sns23" class="st4" cx="-1270.9" cy="836.4" r="19.3"/>
<circle id="sns25" class="st4" cx="-1952.9" cy="993.1" r="19.3"/>
<circle id="sns26" class="st4" cx="-1270.9" cy="897.1" r="19.3"/>
<circle id="sns27" class="st4" cx="-1470.9" cy="897.1" r="19.3"/>
</svg>
