<?xml version="1.0" encoding="utf-8"?>
<!-- Generator: Adobe Illustrator 19.0.0, SVG Export Plug-In . SVG Version: 6.00 Build 0)  -->
<svg version="1.1" id="Ebene_1" xmlns="http://www.w3.org/2000/svg" xmlns:xlink="http://www.w3.org/1999/xlink" x="0px" y="0px"
	 viewBox="-533 486.3 1199.1 445" style="enable-background:new -533 486.3 1199.1 445;" xml:space="preserve">
<style type="text/css">
	.st0{fill:#020304;}
	.st1{fill:#FFFFFF;}
	.st2{fill:#00B3E3;}
	.st3{fill:#BDBCBC;}
	.st4{fill:#FFFFFF;stroke:#030405;stroke-width:2;stroke-miterlimit:10;}
</style>
<path id="glg" class="st0" d="M624.7,748.7l12-11.1V618.9l-113-104.3h-914.2l-113.1,104.3v118.9l11.7,10.9h-23.9l-4.7-4.3v-132
	L-397.4,499h928.1l123,113.4v131.7l-5,4.6H624.7L624.7,748.7z"/>
<polygon id="swa" class="st0" points="648.6,748.7 624.7,748.7 565.6,803.6 589.6,803.6 "/>
<polygon id="swb" class="st0" points="589.6,803.6 565.7,803.6 506.6,858.4 530.6,858.4 "/>
<polygon id="swc" class="st0" points="530.4,858.4 506.6,858.4 447.6,913.3 471.4,913.3 "/>
<polygon id="swe" class="st0" points="-457.1,803.6 -433.2,803.6 -374.2,858.4 -398.1,858.4 "/>
<polygon id="swd" class="st0" points="-398.1,858.4 -374.2,858.4 -315.1,913.3 -339.1,913.3 "/>
<polygon id="swf" class="st0" points="-516.2,748.7 -492.4,748.7 -433.2,803.6 -457.2,803.6 "/>
<polygon id="gldo" class="st0" points="166,748.7 624.7,748.7 636.6,737.7 636.6,733 166,733 "/>
<polygon id="glco" class="st0" points="166,803.6 565.7,803.6 582.7,787.8 166,787.8 "/>
<polygon id="glbo" class="st0" points="166,858.4 506.6,858.4 524.4,842 166,842 "/>
<polyline id="glao" class="st0" points="166,913.3 447.6,913.3 464.4,897.6 166,897.6 "/>
<rect id="gldm" x="-34" y="733" class="st0" width="200" height="15.7"/>
<rect id="glcm" x="-34" y="787.9" class="st0" width="200" height="15.7"/>
<rect id="glbm" x="-34" y="842.4" class="st0" width="200" height="15.7"/>
<rect id="glam" x="-34" y="897.6" class="st0" width="200" height="15.7"/>
<polygon id="gldw" class="st0" points="-34,733 -503.9,733 -503.9,737.8 -492.2,748.7 -34,748.7 "/>
<polygon id="glcw" class="st0" points="-34,787.8 -450.2,787.8 -433.2,803.6 -34,803.6 "/>
<polygon id="glbw" class="st0" points="-34,842 -392,842 -374.2,858.4 -34,858.4 "/>
<polyline id="glaw" class="st0" points="-34,897.6 -332.1,897.6 -315.1,913.3 -34,913.3 "/>
<g id="offdo">
	<g id="XMLID_28_">
		<polygon id="XMLID_30_" class="st0" points="292.2,753.8 306,739.9 292.2,726.1 305.3,712.9 332.2,739.9 305.3,766.9 		"/>
		<path id="XMLID_29_" class="st1" d="M305.3,714.9l25,25l-25,25l-11.1-11.1l13.9-13.9L294.2,726L305.3,714.9 M305.3,710.9l-2,2
			L292.2,724l-2,2l2,2l11.9,11.9l-11.9,11.9l-2,2l2,2l11.1,11.1l2,2l2-2l25-25l2-2l-2-2l-25-25L305.3,710.9L305.3,710.9z"/>
	</g>
</g>
<g id="offdw">
	<polygon id="XMLID_24_" class="st0" points="-159,726.1 -172.8,739.9 -159,753.8 -172.1,766.9 -199,739.9 -172.1,712.9 	"/>
	<path id="XMLID_21_" class="st1" d="M-172.1,764.9l-25-25l25-25L-161,726l-13.9,13.9l13.9,13.9L-172.1,764.9 M-172.1,768.9l2-2
		l11.1-11.1l2-2l-2-2l-11.9-11.9L-159,728l2-2l-2-2l-11.1-11.1l-2-2l-2,2l-25,25l-2,2l2,2l25,25L-172.1,768.9L-172.1,768.9z"/>
</g>
<g id="offco">
	<g id="XMLID_18_">
		<polygon id="XMLID_20_" class="st0" points="292.2,807.1 306,793.3 292.2,779.4 305.3,766.3 332.2,793.3 305.3,820.3 		"/>
		<path id="XMLID_19_" class="st1" d="M305.3,768.3l25,25l-25,25l-11.1-11.1l13.9-13.9l-13.9-13.9L305.3,768.3 M305.3,764.3l-2,2
			l-11.1,11.1l-2,2l2,2l11.9,11.9l-11.9,11.9l-2,2l2,2l11.1,11.1l2,2l2-2l25-25l2-2l-2-2l-25-25L305.3,764.3L305.3,764.3z"/>
	</g>
</g>
<g id="offcw">
	<polygon id="XMLID_17_" class="st0" points="-159,779.4 -172.8,793.3 -159,807.1 -172.1,820.3 -199,793.3 -172.1,766.3 	"/>
	<path id="XMLID_15_" class="st1" d="M-172.1,818.3l-25-25l25-25l11.1,11.1l-13.8,13.9l13.9,13.9L-172.1,818.3 M-172.1,822.3l2-2
		l11.1-11.1l2-2l-2-2l-11.8-11.9l11.9-11.9l2-2l-2-2l-11.2-11.1l-2-2l-2,2l-25,25l-2,2l2,2l25,25L-172.1,822.3L-172.1,822.3z"/>
</g>
<g id="offao_3_">
	<g id="XMLID_12_">
		<polygon id="XMLID_14_" class="st0" points="292.2,862.8 306,848.9 292.2,835.1 305.3,821.9 332.2,848.9 305.3,875.9 		"/>
		<path id="XMLID_13_" class="st1" d="M305.3,823.9l25,25l-25,25l-11.1-11.1l13.9-13.9L294.2,835L305.3,823.9 M305.3,819.9l-2,2
			L292.2,833l-2,2l2,2l11.9,11.9l-11.9,11.9l-2,2l2,2l11.1,11.1l2,2l2-2l25-25l2-2l-2-2l-25-25L305.3,819.9L305.3,819.9z"/>
	</g>
</g>
<g id="offbw">
	<polygon id="XMLID_11_" class="st0" points="-159,835.1 -172.8,848.9 -159,862.8 -172.1,875.9 -199,848.9 -172.1,821.9 	"/>
	<path id="XMLID_10_" class="st1" d="M-172.1,873.9l-25-25l25-25L-161,835l-13.9,13.9l13.9,13.9L-172.1,873.9 M-172.1,877.9l2-2
		l11.1-11.1l2-2l-2-2l-11.9-11.9L-159,837l2-2l-2-2l-11.1-11.1l-2-2l-2,2l-25,25l-2,2l2,2l25,25L-172.1,877.9L-172.1,877.9z"/>
</g>
<g id="offao_2_">
	<g id="XMLID_7_">
		<polygon id="XMLID_9_" class="st0" points="292.2,916.1 306,902.3 292.2,888.4 305.3,875.3 332.2,902.3 305.3,929.3 		"/>
		<path id="XMLID_8_" class="st1" d="M305.3,877.3l25,25l-25,25l-11.1-11.1l13.9-13.9l-13.9-13.9L305.3,877.3 M305.3,873.3l-2,2
			l-11.1,11.1l-2,2l2,2l11.9,11.9l-11.9,11.9l-2,2l2,2l11.1,11.1l2,2l2-2l25-25l2-2l-2-2l-25-25L305.3,873.3L305.3,873.3z"/>
	</g>
</g>
<g id="offaw">
	<polygon id="XMLID_6_" class="st0" points="-159,888.4 -172.8,902.3 -159,916.1 -172.1,929.3 -199,902.3 -172.1,875.3 	"/>
	<path id="XMLID_5_" class="st1" d="M-172.1,927.3l-25-25l25-25l11.1,11.1l-13.8,13.9l13.9,13.9L-172.1,927.3 M-172.1,931.3l2-2
		l11.1-11.1l2-2l-2-2l-11.8-11.9l11.9-11.9l2-2l-2-2l-11.2-11.1l-2-2l-2,2l-25,25l-2,2l2,2l25,25L-172.1,931.3L-172.1,931.3z"/>
</g>
<g id="labelunten">
	<path class="st2" d="M-96.9,630.9c-9.5,0-16.7-2.8-21.4-8.4c-4.8-5.6-7.2-14.3-7.2-26v-29.4c0-2.2,0.8-4.1,2.4-5.7
		c1.6-1.6,3.4-2.4,5.7-2.4h0.7c2.2,0,4.1,0.8,5.8,2.4c1.6,1.6,2.4,3.4,2.4,5.7v31.2c0,6.5,0.9,11.3,2.9,14s4.8,4.1,8.9,4.1
		s7-1.3,8.9-4.3c2-2.9,3-7.4,3-13.9v-31.1c0-2.2,0.8-4.1,2.4-5.7c1.6-1.6,3.5-2.4,5.7-2.4h0.2c2.2,0,4.1,0.8,5.7,2.4
		c1.6,1.6,2.4,3.5,2.4,5.7v29.4c0,11.8-2.3,20.4-7,26C-80.3,628.1-87.4,630.9-96.9,630.9z"/>
	<path class="st2" d="M-55.6,629.6c-2.2,0-4.1-0.8-5.7-2.4c-1.6-1.6-2.4-3.5-2.4-5.7v-38.9c0-2,0.7-3.5,2-5c1.4-1.3,3-2.1,4.8-2.1
		h0.6c1.8,0,3.3,0.6,4.7,1.7c1.4,1.1,2.2,2.6,2.4,4.3l0.1,0.5c0,0.2,0.1,0.2,0.2,0.2s0.2,0,0.4-0.2c5.4-5.3,11.1-8,17.1-8
		c5.6,0,9.9,2,12.6,5.7c2.8,3.8,4.1,9.2,4.1,16.2v25.3c0,2.2-0.8,4.1-2.4,5.8c-1.6,1.6-3.5,2.4-5.7,2.4h-0.8c-2.2,0-4.1-0.8-5.7-2.4
		c-1.6-1.6-2.4-3.4-2.4-5.8V598c0-3.5-0.5-6.1-1.5-7.4c-1-1.3-2.6-2.1-4.8-2.1c-1.7,0-3.1,0.4-4.3,0.9c-1.3,0.7-2.8,1.7-4.4,3.2
		c-0.5,0.5-0.7,0.9-0.7,1.6v27c0,2.2-0.8,4.1-2.4,5.8c-1.6,1.6-3.5,2.4-5.7,2.4L-55.6,629.6L-55.6,629.6z"/>
	<path class="st2" d="M10.3,630.9c-6.5,0-11.3-1.8-14.5-5.6c-3.1-3.8-4.6-8.9-4.6-15.8v-19.9c0-0.5-0.2-0.7-0.7-0.7h-0.2
		c-1.7,0-3.2-0.6-4.5-1.8c-1.3-1.3-1.8-2.8-1.8-4.5c0-1.8,0.6-3.3,1.8-4.6c1.1-1.3,2.8-1.9,4.5-2.2l1.1-0.2c0.6-0.2,0.9-0.4,1-0.9
		l0.8-6.5c0.2-1.9,1.1-3.7,2.6-4.9c1.5-1.3,3.3-2,5.3-2s3.5,0.7,5,2.1c1.4,1.4,2.1,3,2.1,5v6.2c0,0.6,0.4,0.9,0.9,0.9h5.2
		c1.8,0,3.3,0.7,4.6,2c1.3,1.3,2,2.8,2,4.7c0,1.8-0.7,3.3-2,4.7c-1.3,1.3-2.8,1.9-4.6,1.9H9.1c-0.6,0-0.9,0.4-0.9,0.9v19.7
		c0,5,1.8,7.7,5.6,8.3c1.8,0.2,3.5,0.8,4.8,1.7c1.3,0.9,2.2,2.1,2.6,3.5c0.2,0.6,0.2,1.1,0.2,1.6c0,1.1-0.4,2.3-1.1,3.3
		c-0.9,1.5-2.2,2.4-3.9,2.6C14.5,630.7,12.4,630.9,10.3,630.9z"/>
	<path class="st2" d="M61.3,581.6c-3.9-4.7-9.5-7-16.9-7c-3.3,0-6.4,0.6-9.5,1.9c-3.2,1.2-5.8,3.1-8.2,5.5c-2.4,2.2-4.2,5.4-5.7,8.9
		c-1.5,3.6-2.2,7.5-2.2,11.8c0,8.7,2.5,15.6,7.7,20.6c5.2,5.1,11.8,7.6,19.7,7.6c4.8,0,9.5-1.1,14.2-3.1c0.9-0.5,1.6-1.2,2.2-2.1
		c0.5-0.8,0.7-1.7,0.7-2.8c0-1.2-0.3-2.1-0.7-3.1c-0.7-1.5-2-2.4-3.5-2.8c-0.9,0-1.5-0.2-2.2-0.2c-0.9,0-1.7,0.2-2.4,0.4
		c-2.1,0.6-4.1,1-6.2,1c-7.1,0-11.5-3.2-13.2-9.5c0-0.1,0-0.4,0.2-0.6c0.1-0.2,0.4-0.4,0.6-0.4h22.7c2.4,0,4.5-0.7,6.2-2.2
		s2.6-3.3,2.6-5.5C67.4,592.5,65.4,586.4,61.3,581.6z M52.9,596.5c-0.2,0-0.5,0.2-0.7,0.2H35.7c-0.2,0-0.4,0-0.6-0.2
		c0-0.3-0.2-0.3-0.2-0.5c0-2.4,1.3-4.6,3.6-6.5c1.8-1.5,3.8-2.2,6.1-2.2c2.8,0,4.9,0.8,6.2,2.3c1.4,1.5,2.1,3.6,2.3,6.2
		C53.1,596.1,53.1,596.3,52.9,596.5z"/>
	<path class="st2" d="M76.8,629.6c-2.2,0-4.1-0.8-5.8-2.4c-1.6-1.6-2.4-3.5-2.4-5.7v-38.9c0-2,0.7-3.5,1.9-5c1.3-1.3,3-2.1,4.8-2.1
		H76c1.8,0,3.3,0.6,4.7,1.7c1.4,1.1,2.2,2.6,2.4,4.3l0.2,0.5c0,0.2,0.2,0.2,0.2,0.2s0.2,0,0.4-0.2c5.4-5.3,11.1-8,17.1-8
		c5.6,0,9.9,2,12.6,5.7c2.8,3.8,4.1,9.2,4.1,16.2v25.3c0,2.2-0.8,4.1-2.4,5.8c-1.6,1.6-3.4,2.4-5.7,2.4h-0.7c-2.2,0-4.1-0.8-5.7-2.4
		c-1.6-1.6-2.4-3.4-2.4-5.8V598c0-3.5-0.5-6.1-1.5-7.4c-1.1-1.3-2.6-2.1-4.8-2.1c-1.7,0-3.1,0.4-4.3,0.9c-1.3,0.7-2.8,1.7-4.3,3.2
		c-0.4,0.5-0.7,0.9-0.7,1.6v27c0,2.2-0.8,4.1-2.4,5.8c-1.6,1.6-3.5,2.4-5.7,2.4L76.8,629.6L76.8,629.6z"/>
	<path class="st2" d="M149.9,608.8c0,3.7,0.6,6.3,1.8,8c1.1,1.7,3.1,2.6,5.6,2.8c3.2,0,6.7-0.8,10.4-2.4c3.5-1.6,8.3-4.1,14-7.7
		c3.3-2.4,6.3-2.1,8.9,1.1c2.3,3.7,1.8,7.1-1.5,10.3c-2.9,2.2-5.9,4.3-9.1,6.2c-3.2,1.8-6.8,3.5-10.8,4.9c-4.1,1.3-8.3,2.2-12.6,2.3
		c-7.2-0.2-12.4-2.2-15.6-6.3c-3.2-4.1-4.8-9.8-4.8-17.1v-47c0-4.6,2.3-6.9,6.9-6.9s6.9,2.3,6.9,6.9L149.9,608.8L149.9,608.8z"/>
	<path class="st2" d="M199.5,568.1h6.2c0.4-3.3,0.6-5,0.6-5c0.5-4.1,2.8-6.1,7.1-6c4.1,0.4,5.8,2.4,5.6,6l-0.4,5h6.5
		c4.4,0,6.5,2.2,6.5,6.5s-2.2,6.5-6.5,6.5h-7.9c-1.3,10.6-2.8,19.7-4.3,27.4s-3,14.1-4.3,19.5c-1.1,3.9-3.9,5.5-8.2,4.8
		c-4.6-0.9-6.2-3.5-4.8-8.2c1.1-3.9,2.6-10.3,4.3-19.3c1.7-8.9,3.1-17.1,4.1-24.3h-4.6c-4.4,0-6.5-2.2-6.5-6.5
		C192.8,570.3,195,568.1,199.5,568.1z"/>
	<path class="st2" d="M219.6,606c1.5-3.1,4.1-4.3,7.4-3.3c3.7,1.7,4.7,3.9,3.3,6.7c-0.6,1.3-0.7,3.2-0.6,5.7
		c0.2,2.6,3.1,4.1,8.7,4.1c3.4,0,7.6-0.2,12.5-0.4c4.1,0.2,6.1,2.5,6.4,7.2c-0.1,4.5-2.3,6.9-6.4,7c-6.8,0.2-12.3,0.2-16.5,0
		c-4.5-0.2-8-1.1-10.6-2.8c-2.6-1.6-4.4-3.7-5.5-6c-1.1-2.4-1.6-4.8-1.6-7.4C216.8,613.1,217.7,609.5,219.6,606z"/>
	<path class="st2" d="M249.3,579.8c3.8,0.2,5.7,2.2,5.7,6.5c-0.2,4.3-1.9,6.3-5.5,6.4c-8.2,0.2-14.3,0.4-18.1,0.5
		c-3.8,0.4-5.6-1.8-5.5-6.3c0.2-3.9,1.7-6.1,4.7-6.4C235.5,580.2,241.7,580,249.3,579.8z"/>
	<path class="st2" d="M-16.6,689.9c-1.5,0-2.9-0.5-4.2-1.4c-1.3-0.9-2.1-2.1-2.6-3.6l-10.8-36c-0.1-0.4-0.2-0.8-0.2-1.1
		c0-0.8,0.3-1.6,0.8-2.3c0.8-1,1.8-1.6,3.1-1.6h1.2c1.5,0,2.9,0.5,4.1,1.4c1.2,0.9,2,2.2,2.4,3.7l4,15.8c0.4,1.7,1,4.2,1.8,7.4
		c0.7,3.2,1.3,5.6,1.7,7.3c0,0.1,0.1,0.1,0.2,0.1c0.1,0,0.2,0,0.2-0.1c0.4-1.6,1-4,1.7-7.3c0.7-3.2,1.3-5.7,1.8-7.4l4-15.8
		c0.4-1.5,1.1-2.8,2.4-3.7c1.2-0.9,2.6-1.4,4.1-1.4h0.8c1.3,0,2.3,0.5,3.1,1.6c0.5,0.7,0.8,1.5,0.8,2.3c0,0.4-0.1,0.7-0.2,1.1
		l-10.8,36c-0.5,1.5-1.4,2.7-2.6,3.6c-1.2,0.9-2.7,1.4-4.2,1.4H-16.6z"/>
	<path class="st2" d="M4.3,687.1c-1.1,0-2-0.3-2.7-0.9c-0.7-0.6-1-1.4-1-2.4s0.3-1.8,1-2.4c0.7-0.6,1.6-0.9,2.7-0.9
		c1.1,0,1.9,0.3,2.6,0.9c0.7,0.6,1,1.4,1,2.4s-0.3,1.8-1,2.4C6.2,686.8,5.4,687.1,4.3,687.1z M4.2,710.5c-0.8,0-1.6-0.3-2.2-0.9
		c-0.6-0.6-0.9-1.3-0.9-2.2V693c0-0.8,0.3-1.6,0.9-2.2c0.6-0.6,1.3-0.9,2.2-0.9h0.2c0.8,0,1.6,0.3,2.2,0.9s0.9,1.3,0.9,2.2v14.4
		c0,0.8-0.3,1.6-0.9,2.2s-1.3,0.9-2.2,0.9H4.2z"/>
	<path class="st2" d="M15.2,711c-2,0-3.9-0.5-5.9-1.5c-0.6-0.3-1-0.8-1.1-1.5c0-0.1,0-0.3,0-0.4c0-0.5,0.2-1,0.5-1.4
		c0.4-0.5,0.9-0.9,1.6-1c0.2,0,0.4,0,0.5,0c0.5,0,1,0.1,1.4,0.3c1.1,0.6,2.1,0.8,3.1,0.8c1.6,0,2.4-0.5,2.4-1.6c0-0.2,0-0.3-0.1-0.5
		c-0.1-0.2-0.2-0.3-0.4-0.4s-0.3-0.3-0.5-0.4c-0.1-0.1-0.4-0.2-0.7-0.4c-0.3-0.1-0.5-0.2-0.7-0.3c-0.2-0.1-0.5-0.2-0.9-0.4
		c-0.4-0.2-0.7-0.3-0.9-0.3c-0.7-0.3-1.3-0.6-1.9-0.9s-1.1-0.7-1.7-1.2c-0.6-0.5-1-1-1.3-1.7s-0.5-1.4-0.5-2.2c0-2,0.7-3.5,2.2-4.7
		c1.5-1.2,3.4-1.8,5.8-1.8c1.9,0,3.6,0.4,5.3,1.3c0.6,0.3,0.9,0.8,1,1.4c0,0.1,0,0.3,0,0.4c0,0.5-0.2,1-0.5,1.4
		c-0.4,0.5-0.9,0.8-1.6,1c-0.2,0-0.4,0.1-0.6,0.1c-0.4,0-0.9-0.1-1.3-0.3c-0.8-0.4-1.5-0.5-2.2-0.5c-1.5,0-2.2,0.5-2.2,1.5
		c0,0.1,0,0.3,0.1,0.4c0,0.1,0.1,0.2,0.2,0.3c0.1,0.1,0.2,0.2,0.3,0.3c0.1,0.1,0.2,0.2,0.4,0.3c0.2,0.1,0.3,0.2,0.5,0.2
		s0.3,0.2,0.6,0.2c0.2,0.1,0.5,0.2,0.6,0.2c0.2,0.1,0.4,0.1,0.7,0.2c0.3,0.1,0.5,0.2,0.7,0.2c0.8,0.3,1.4,0.6,2,0.9s1.1,0.7,1.7,1.2
		c0.6,0.5,1,1.1,1.3,1.8s0.4,1.5,0.4,2.4c0,2-0.7,3.6-2.2,4.8C20,710.4,17.9,711,15.2,711z"/>
	<path class="st2" d="M31.9,711c-2.5,0-4.3-0.7-5.5-2.1s-1.8-3.4-1.8-6v-7.6c0-0.2-0.1-0.3-0.3-0.3h-0.1c-0.7,0-1.2-0.2-1.7-0.7
		s-0.7-1-0.7-1.7s0.2-1.3,0.7-1.8s1-0.8,1.7-0.8h0.4c0.2,0,0.4-0.1,0.4-0.4l0.3-2.4c0.1-0.8,0.4-1.4,1-1.9s1.3-0.8,2-0.8
		s1.4,0.3,1.9,0.8s0.8,1.2,0.8,1.9v2.4c0,0.2,0.1,0.4,0.4,0.4h2c0.7,0,1.3,0.2,1.8,0.7s0.7,1.1,0.7,1.8c0,0.7-0.2,1.3-0.7,1.8
		s-1.1,0.7-1.8,0.7h-2c-0.2,0-0.4,0.1-0.4,0.4v7.5c0,1.9,0.7,3,2.2,3.1c0.7,0.1,1.3,0.3,1.9,0.6c0.5,0.3,0.9,0.8,1,1.3
		c0,0.2,0.1,0.4,0.1,0.6c0,0.4-0.1,0.9-0.4,1.3c-0.3,0.6-0.8,0.9-1.5,1C33.5,711,32.7,711,31.9,711z"/>
	<path class="st2" d="M47.1,667.5c-0.9,0-1.6-0.3-2.2-0.9c-0.6-0.6-0.9-1.3-0.9-2.2c0-0.9,0.3-1.6,0.9-2.2c0.6-0.6,1.3-0.9,2.2-0.9
		h20.2c0.8,0,1.6,0.3,2.2,0.9c0.6,0.6,0.9,1.4,0.9,2.2c0,0.9-0.3,1.6-0.9,2.2c-0.6,0.6-1.3,0.9-2.2,0.9H47.1z M47.1,681
		c-0.9,0-1.6-0.3-2.2-0.9c-0.6-0.6-0.9-1.4-0.9-2.2c0-0.9,0.3-1.6,0.9-2.2c0.6-0.6,1.3-0.9,2.2-0.9h20.2c0.8,0,1.6,0.3,2.2,0.9
		c0.6,0.6,0.9,1.3,0.9,2.2c0,0.9-0.3,1.6-0.9,2.2c-0.6,0.6-1.3,0.9-2.2,0.9H47.1z"/>
</g>
<g id="diro">
	<path class="st3" d="M343.8,600c0,17.4-14.1,31.5-31.5,31.5s-31.5-14.1-31.5-31.5c0-17.4,14.1-31.5,31.5-31.5
		S343.8,582.7,343.8,600z M339.8,600.1c0-15.2-12.4-27.5-27.5-27.5s-27.5,12.2-27.5,27.4c0,15.2,12.4,27.5,27.5,27.5
		S339.8,615.3,339.8,600.1z"/>
	<polygon id="XMLID_1_" points="334.5,600 308,626.5 296.3,614.7 310.9,600 296.3,585.4 308,573.7 	"/>
</g>
<g id="dirw">
	<path class="st3" d="M-179,569.3c17.4,0,31.5,14.1,31.5,31.5c0,17.4-14.1,31.5-31.5,31.5s-31.5-14.1-31.5-31.5
		C-210.5,583.5-196.4,569.3-179,569.3z M-179,628.3c15.1,0,27.5-12.3,27.5-27.5s-12.4-27.4-27.5-27.4s-27.5,12.3-27.5,27.5
		C-206.5,616.1-194.1,628.3-179,628.3z"/>
	<polygon id="XMLID_4_" points="-174.8,574.5 -163,586.2 -177.6,600.8 -163,615.5 -174.8,627.3 -201.2,600.8 	"/>
</g>
<circle id="sig1o" class="st4" cx="235.6" cy="902.3" r="19.3"/>
<circle id="sig1w" class="st4" cx="-104.4" cy="902.3" r="19.3"/>
<circle id="sig2o" class="st4" cx="235.6" cy="848.9" r="19.3"/>
<circle id="sig2w" class="st4" cx="-104.4" cy="848.9" r="19.3"/>
<circle id="sig3o" class="st4" cx="235.6" cy="793.3" r="19.3"/>
<circle id="sig3w" class="st4" cx="-104.4" cy="793.3" r="19.3"/>
<circle id="sig4o" class="st4" cx="235.6" cy="739.9" r="19.3"/>
<circle id="sig4w" class="st4" cx="-104.4" cy="739.9" r="19.3"/>
<circle id="sns01" class="st4" cx="-34.4" cy="902.3" r="19.3"/>
<circle id="sns02" class="st4" cx="-34.4" cy="848.9" r="19.3"/>
<circle id="sns03" class="st4" cx="-34.4" cy="793.3" r="19.3"/>
<circle id="sns04" class="st4" cx="-34.4" cy="739.9" r="19.3"/>
<circle id="sns05" class="st4" cx="165.6" cy="902.3" r="19.3"/>
<circle id="sns06" class="st4" cx="165.6" cy="848.9" r="19.3"/>
<circle id="sns07" class="st4" cx="165.6" cy="793.3" r="19.3"/>
<circle id="sns08" class="st4" cx="165.6" cy="739.9" r="19.3"/>
<circle id="sns17" class="st4" cx="-512.7" cy="674.8" r="19.3"/>
<circle id="sns18" class="st4" cx="66.6" cy="506.6" r="19.3"/>
<circle id="sns19" class="st4" cx="645.8" cy="674.8" r="19.3"/>
</svg>
