<?xml version="1.0" encoding="utf-8"?>
<!-- Generator: Adobe Illustrator 19.0.0, SVG Export Plug-In . SVG Version: 6.00 Build 0)  -->
<svg version="1.1" id="Ebene_1" xmlns="http://www.w3.org/2000/svg" xmlns:xlink="http://www.w3.org/1999/xlink" x="0px" y="0px"
	 viewBox="0 0 839.1 313" style="enable-background:new 0 0 839.1 313;" xml:space="preserve">
<style type="text/css">
	.st0{fill:none;stroke:#010202;stroke-miterlimit:10;}
	.st1{fill:#010202;}
	.st2{fill:#FFFFFF;stroke:#010202;stroke-width:2;stroke-miterlimit:10;}
	.st3{fill:#FFFFFF;}
</style>
<g id="XMLID_37_">
	<polygon id="XMLID_54_" class="st0" points="97.2,14.5 742,14.5 824.6,90.7 824.6,178.3 742.7,254.5 96.3,254.5 14.5,178.4 
		14.5,90.7 	"/>
	<path id="XMLID_41_" class="st1" d="M745.2,260H93.9L8.5,180.7V88.4L94.7,9h649.7l86.1,79.4v92.2L745.2,260z M98.8,249h641.5
		l78.4-73V93l-79.1-73h-640L20.4,93v83.2L98.8,249z"/>
</g>
<g id="XMLID_36_">
	<polygon id="XMLID_40_" points="52.9,222.2 52.8,211.2 785.3,209.2 785.4,220.2 	"/>
</g>
<g id="XMLID_35_">
	<polygon id="XMLID_39_" points="137.3,298.2 134.9,298.2 92,258.4 100.3,250.7 139.7,287.2 699.1,287.2 738.3,250.7 746.6,258.4 
		704,298.2 	"/>
</g>
<g id="XMLID_33_">
	<rect id="XMLID_34_" x="11.8" y="172.8" width="812.8" height="11"/>
</g>
<circle id="XMLID_12_" class="st2" cx="515.3" cy="178.3" r="13.5"/>
<circle id="XMLID_16_" class="st2" cx="515.3" cy="215.7" r="13.5"/>
<circle id="XMLID_17_" class="st2" cx="515.3" cy="292.7" r="13.5"/>
<circle id="XMLID_19_" class="st2" cx="373.6" cy="178.3" r="13.5"/>
<circle id="XMLID_20_" class="st2" cx="373.6" cy="215.7" r="13.5"/>
<circle id="XMLID_21_" class="st2" cx="373.6" cy="254.5" r="13.5"/>
<circle id="XMLID_26_" class="st2" cx="463.4" cy="178.3" r="13.5"/>
<circle id="XMLID_25_" class="st2" cx="463.4" cy="215.7" r="13.5"/>
<circle id="XMLID_23_" class="st2" cx="463.4" cy="292.7" r="13.5"/>
<g id="XMLID_27_">
	<g id="XMLID_11_">
		<polygon id="XMLID_114_" points="554.5,225.4 564.2,215.7 554.5,206 563.7,196.8 582.6,215.7 563.7,234.6 		"/>
		<path id="XMLID_111_" class="st3" d="M563.7,198.2l17.5,17.5l-17.5,17.5l-7.8-7.8l9.7-9.7l-9.7-9.7L563.7,198.2 M563.7,195.4
			l-1.4,1.4l-7.8,7.8l-1.4,1.4l1.4,1.4l8.3,8.3l-8.3,8.3l-1.4,1.4l1.4,1.4l7.8,7.8l1.4,1.4l1.4-1.4l17.5-17.5l1.4-1.4l-1.4-1.4
			l-17.5-17.5L563.7,195.4L563.7,195.4z"/>
	</g>
</g>
<g id="XMLID_48_">
	<g id="XMLID_49_">
		<polygon id="XMLID_109_" points="554.5,187.7 564.2,178 554.5,168.3 563.7,159.1 582.6,178 563.7,196.9 		"/>
		<path id="XMLID_106_" class="st3" d="M563.7,160.5l17.5,17.5l-17.5,17.5l-7.8-7.8l9.7-9.7l-9.7-9.7L563.7,160.5 M563.7,157.7
			l-1.4,1.4l-7.8,7.8l-1.4,1.4l1.4,1.4l8.3,8.3l-8.3,8.3l-1.4,1.4l1.4,1.4l7.8,7.8l1.4,1.4l1.4-1.4l17.5-17.5l1.4-1.4l-1.4-1.4
			l-17.5-17.5L563.7,157.7L563.7,157.7z"/>
	</g>
</g>
<g id="XMLID_50_">
	<g id="XMLID_51_">
		<polygon id="XMLID_104_" points="554.5,302.4 564.2,292.7 554.5,283 563.7,273.8 582.6,292.7 563.7,311.5 		"/>
		<path id="XMLID_101_" class="st3" d="M563.7,275.2l17.5,17.5l-17.5,17.5l-7.8-7.8l9.7-9.7l-9.7-9.7L563.7,275.2 M563.7,272.4
			l-1.4,1.4l-7.8,7.8l-1.4,1.4l1.4,1.4l8.3,8.3l-8.3,8.3l-1.4,1.4l1.4,1.4l7.8,7.8l1.4,1.4l1.4-1.4l17.5-17.5l1.4-1.4l-1.4-1.4
			l-17.5-17.5L563.7,272.4L563.7,272.4z"/>
	</g>
</g>
<circle id="XMLID_67_" class="st2" cx="321.7" cy="176" r="13.5"/>
<circle id="XMLID_57_" class="st2" cx="321.7" cy="213.4" r="13.5"/>
<circle id="XMLID_53_" class="st2" cx="321.7" cy="252.2" r="13.5"/>
<circle id="XMLID_18_" class="st2" cx="515.3" cy="254.5" r="13.5"/>
<circle id="XMLID_22_" class="st2" cx="373.6" cy="292.7" r="13.5"/>
<circle id="XMLID_10_" class="st2" cx="463.4" cy="254.5" r="13.5"/>
<g id="XMLID_46_">
	<g id="XMLID_47_">
		<polygon id="XMLID_99_" points="554.5,264.2 564.2,254.5 554.5,244.9 563.7,235.7 582.6,254.5 563.7,273.4 		"/>
		<path id="XMLID_96_" class="st3" d="M563.7,237.1l17.5,17.5L563.7,272l-7.8-7.8l9.7-9.7l-9.7-9.7L563.7,237.1 M563.7,234.2
			l-1.4,1.4l-7.8,7.8l-1.4,1.4l1.4,1.4l8.3,8.3l-8.3,8.3l-1.4,1.4l1.4,1.4l7.8,7.8l1.4,1.4l1.4-1.4l17.5-17.5l1.4-1.4l-1.4-1.4
			l-17.5-17.5L563.7,234.2L563.7,234.2z"/>
	</g>
</g>
<circle id="XMLID_56_" class="st2" cx="321.7" cy="290.4" r="13.5"/>
<circle id="XMLID_9_" class="st2" cx="373.6" cy="14.5" r="13.5"/>
<circle id="XMLID_7_" class="st2" cx="14.5" cy="130.7" r="13.5"/>
<g id="XMLID_66_">
	<g id="XMLID_71_">
		<polygon id="XMLID_94_" points="254.6,215.6 273.5,196.7 282.7,205.9 273,215.6 282.7,225.3 273.5,234.5 		"/>
		<path id="XMLID_91_" class="st3" d="M273.5,198.1l7.8,7.8l-9.7,9.7l9.7,9.7l-7.8,7.8L256,215.6L273.5,198.1 M273.5,195.3l-1.4,1.4
			l-17.5,17.5l-1.4,1.4l1.4,1.4l17.5,17.5l1.4,1.4l1.4-1.4l7.8-7.8l1.4-1.4l-1.4-1.4l-8.3-8.3l8.3-8.3l1.4-1.4l-1.4-1.4l-7.8-7.8
			L273.5,195.3L273.5,195.3z"/>
	</g>
</g>
<g id="XMLID_64_">
	<g id="XMLID_65_">
		<polygon id="XMLID_89_" points="254.6,177.9 273.5,159 282.7,168.2 273,177.9 282.7,187.6 273.5,196.8 		"/>
		<path id="XMLID_86_" class="st3" d="M273.5,160.5l7.8,7.8l-9.7,9.7l9.7,9.7l-7.8,7.8L256,177.9L273.5,160.5 M273.5,157.6l-1.4,1.4
			l-17.5,17.5l-1.4,1.4l1.4,1.4l17.5,17.5l1.4,1.4l1.4-1.4l7.8-7.8l1.4-1.4l-1.4-1.4l-8.3-8.3l8.3-8.3l1.4-1.4l-1.4-1.4l-7.8-7.8
			L273.5,157.6L273.5,157.6z"/>
	</g>
</g>
<g id="XMLID_55_">
	<g id="XMLID_63_">
		<polygon id="XMLID_84_" points="254.6,292.6 273.5,273.7 282.7,282.9 273,292.6 282.7,302.3 273.5,311.5 		"/>
		<path id="XMLID_81_" class="st3" d="M273.5,275.1l7.8,7.8l-9.7,9.7l9.7,9.7l-7.8,7.8L256,292.6L273.5,275.1 M273.5,272.3l-1.4,1.4
			l-17.5,17.5l-1.4,1.4l1.4,1.4l17.5,17.5l1.4,1.4l1.4-1.4l7.8-7.8l1.4-1.4l-1.4-1.4l-8.3-8.3l8.3-8.3l1.4-1.4l-1.4-1.4l-7.8-7.8
			L273.5,272.3L273.5,272.3z"/>
	</g>
</g>
<g id="XMLID_6_">
	<g id="XMLID_45_">
		<polygon id="XMLID_79_" points="254.6,254.5 273.5,235.6 282.7,244.8 273,254.5 282.7,264.2 273.5,273.3 		"/>
		<path id="XMLID_76_" class="st3" d="M273.5,237l7.8,7.8l-9.7,9.7l9.7,9.7l-7.8,7.8L256,254.5L273.5,237 M273.5,234.2l-1.4,1.4
			L254.6,253l-1.4,1.4l1.4,1.4l17.5,17.5l1.4,1.4l1.4-1.4l7.8-7.8l1.4-1.4l-1.4-1.4l-8.3-8.3l8.3-8.3l1.4-1.4l-1.4-1.4l-7.8-7.8
			L273.5,234.2L273.5,234.2z"/>
	</g>
</g>
<g id="XMLID_2_">
	<circle id="XMLID_32_" class="st3" cx="824.6" cy="134.5" r="13.5"/>
	<path id="XMLID_28_" class="st1" d="M824.6,149c-8,0-14.5-6.5-14.5-14.5c0-8,6.5-14.5,14.5-14.5c8,0,14.5,6.5,14.5,14.5
		C839.1,142.5,832.6,149,824.6,149z M824.6,122c-6.9,0-12.5,5.6-12.5,12.5s5.6,12.5,12.5,12.5s12.5-5.6,12.5-12.5
		S831.5,122,824.6,122z"/>
</g>
</svg>
