<?xml version="1.0" encoding="utf-8"?>
<!-- Generator: Adobe Illustrator 19.0.0, SVG Export Plug-In . SVG Version: 6.00 Build 0)  -->
<svg version="1.1" id="Ebene_1" xmlns="http://www.w3.org/2000/svg" xmlns:xlink="http://www.w3.org/1999/xlink" x="0px" y="0px"
	 viewBox="0 0 841.9 595.3" style="enable-background:new 0 0 841.9 595.3;" xml:space="preserve">
<style type="text/css">
	.st0{fill:#010202;}
</style>
<g id="XMLID_5_">
	<polygon id="XMLID_39_" class="st0" points="138.1,441.8 135.7,441.8 92.8,402.1 101.2,394.3 140.6,430.8 699.9,430.8 739.1,394.3 
		747.5,402.1 704.8,441.8 	"/>
</g>
<g id="XMLID_3_">
	<rect id="XMLID_38_" x="12.6" y="316.5" class="st0" width="812.8" height="11"/>
</g>
<g id="XMLID_55_">
	<path id="XMLID_63_" class="st0" d="M811.3,327.4l8.4-7.8v-83.1l-79.1-73h-640l-79.2,73v83.2l8.2,7.6l-16.7,0l-3.3-3V232l86.2-79.4
		h649.7l86.1,79.4v92.2l-3.5,3.2L811.3,327.4z"/>
</g>
<polygon id="XMLID_64_" class="st0" points="12.6,327.4 29.3,327.4 70.7,365.8 53.9,365.8 "/>
<polygon id="XMLID_81_" class="st0" points="54,365.8 70.7,365.8 112,404.2 95.3,404.2 "/>
<polygon id="XMLID_82_" class="st0" points="95.3,404.2 112,404.2 153.4,442.6 136.6,442.6 "/>
<polygon id="XMLID_80_" class="st0" points="828,327.4 811.3,327.4 769.9,365.8 786.7,365.8 "/>
<polygon id="XMLID_85_" class="st0" points="786.7,365.8 770,365.8 728.6,404.2 745.4,404.2 "/>
<polygon id="XMLID_87_" class="st0" points="745.3,404.2 728.6,404.2 687.3,442.6 704,442.6 "/>
<polygon id="XMLID_100_" class="st0" points="21.2,316.4 21.2,319.8 29.4,327.4 811.3,327.4 819.6,319.7 819.6,316.4 "/>
<polygon id="XMLID_104_" class="st0" points="58.8,354.8 70.7,365.8 770,365.8 781.9,354.8 "/>
<polygon id="XMLID_105_" class="st0" points="99.6,392.7 112,404.2 728.6,404.2 741.1,392.7 "/>
<polygon id="XMLID_106_" class="st0" points="141.5,431.6 153.4,442.6 687.3,442.6 699.1,431.6 "/>
</svg>
