<?xml version="1.0" encoding="utf-8"?>
<!-- Generator: Adobe Illustrator 16.0.3, SVG Export Plug-In . SVG Version: 6.00 Build 0)  -->
<!DOCTYPE svg PUBLIC "-//W3C//DTD SVG 1.1//EN" "http://www.w3.org/Graphics/SVG/1.1/DTD/svg11.dtd">
<svg version="1.1" id="Ebene_1" xmlns="http://www.w3.org/2000/svg" xmlns:xlink="http://www.w3.org/1999/xlink" x="0px" y="0px"
	 width="217.198px" height="827.164px" viewBox="19.766 8.145 217.198 827.164"
	 enable-background="new 19.766 8.145 217.198 827.164" xml:space="preserve">
<g id="XMLID_4_" enable-background="new    ">
	<path d="M118.248,658.028c0,14.08-6.307,21.34-16.646,21.34c-10.414,0-16.721-7.26-16.721-21.34s6.307-21.341,16.721-21.341
		C111.942,636.688,118.248,643.948,118.248,658.028z M92.581,658.028c0,9.68,2.787,14.3,9.021,14.3c6.16,0,8.946-4.62,8.946-14.3
		c0-9.754-2.786-14.301-8.946-14.301C95.368,643.728,92.581,648.274,92.581,658.028z"/>
</g>
<g id="XMLID_10_" enable-background="new    ">
	<path d="M30.4,25.378c0-3.227,0.366-7.553,0.293-7.553h-0.146c-0.073,0-1.907,2.273-2.86,3.08l-3.446,3.446l-4.474-5.5
		l11.146-9.899H38.1v41.066h-7.7V25.378z"/>
	<path d="M79.604,29.485c0,14.08-6.307,21.34-16.646,21.34c-10.414,0-16.721-7.26-16.721-21.34S52.543,8.145,62.957,8.145
		C73.297,8.145,79.604,15.405,79.604,29.485z M53.937,29.485c0,9.68,2.787,14.3,9.021,14.3c6.16,0,8.946-4.62,8.946-14.3
		c0-9.754-2.786-14.301-8.946-14.301C56.724,15.185,53.937,19.731,53.937,29.485z"/>
	<path d="M118.614,29.485c0,14.08-6.307,21.34-16.646,21.34c-10.414,0-16.721-7.26-16.721-21.34s6.307-21.341,16.721-21.341
		C112.307,8.145,118.614,15.405,118.614,29.485z M92.947,29.485c0,9.68,2.787,14.3,9.021,14.3c6.16,0,8.946-4.62,8.946-14.3
		c0-9.754-2.786-14.301-8.946-14.301C95.734,15.185,92.947,19.731,92.947,29.485z"/>
</g>
<g id="XMLID_15_">
	<polygon id="XMLID_16_" points="136.6,654.685 185.74,654.685 185.74,661.97 136.6,661.97 	"/>
</g>
<g id="XMLID_1_">
	<polygon id="XMLID_2_" points="136.6,25.856 185.74,25.999 185.74,33.284 136.6,33.142 	"/>
</g>
<g id="XMLID_17_">
	<rect id="XMLID_18_" x="136.539" y="813.345" width="100.425" height="7.285"/>
</g>
<g id="XMLID_19_" enable-background="new    ">
	<path d="M40.85,800.39c10.199,0,17.879,7.32,17.879,17.46c0,10.199-7.68,17.459-17.879,17.459c-10.14,0-17.76-7.26-17.76-17.459
		C23.09,807.71,30.71,800.39,40.85,800.39z M40.85,829.549c6.6,0,11.459-4.74,11.459-11.699c0-6.96-4.859-11.7-11.459-11.7
		s-11.4,4.74-11.4,11.7C29.449,824.809,34.25,829.549,40.85,829.549z"/>
	<path d="M71.268,806.93v9.239h12.779v5.88H71.268v12.6h-6.3V801.05h23.64v5.88H71.268z"/>
	<path d="M101.326,806.93v9.239h12.779v5.88h-12.779v12.6h-6.301V801.05h23.64v5.88H101.326z"/>
</g>
</svg>
