<?xml version="1.0" encoding="utf-8"?>
<!-- Generator: Adobe Illustrator 16.0.3, SVG Export Plug-In . SVG Version: 6.00 Build 0)  -->
<!DOCTYPE svg PUBLIC "-//W3C//DTD SVG 1.1//EN" "http://www.w3.org/Graphics/SVG/1.1/DTD/svg11.dtd">
<svg version="1.1" id="Ebene_1" xmlns="http://www.w3.org/2000/svg" xmlns:xlink="http://www.w3.org/1999/xlink" x="0px" y="0px"
	 width="217.198px" height="827.164px" viewBox="671.492 8.145 217.198 827.164"
	 enable-background="new 671.492 8.145 217.198 827.164" xml:space="preserve">
<g id="XMLID_3_">
	
		<rect id="XMLID_38_" x="441.14" y="416.111" transform="matrix(1.277486e-004 -1 1 1.277486e-004 415.1192 1261.8217)" width="794.821" height="14.428"/>
</g>
<g id="XMLID_4_" enable-background="new    ">
	<path d="M769.975,658.028c0,14.08-6.307,21.34-16.646,21.34c-10.414,0-16.721-7.26-16.721-21.34s6.307-21.341,16.721-21.341
		C763.668,636.688,769.975,643.948,769.975,658.028z M744.308,658.028c0,9.68,2.787,14.3,9.021,14.3c6.16,0,8.946-4.62,8.946-14.3
		c0-9.754-2.786-14.301-8.946-14.301C747.095,643.728,744.308,648.274,744.308,658.028z"/>
</g>
<g id="XMLID_10_" enable-background="new    ">
	<path d="M682.126,25.378c0-3.227,0.366-7.553,0.293-7.553h-0.146c-0.073,0-1.907,2.273-2.86,3.08l-3.446,3.446l-4.474-5.5
		l11.146-9.899h7.188v41.066h-7.7V25.378z"/>
	<path d="M731.33,29.485c0,14.08-6.307,21.34-16.646,21.34c-10.414,0-16.721-7.26-16.721-21.34s6.307-21.341,16.721-21.341
		C725.024,8.145,731.33,15.405,731.33,29.485z M705.663,29.485c0,9.68,2.787,14.3,9.021,14.3c6.16,0,8.946-4.62,8.946-14.3
		c0-9.754-2.786-14.301-8.946-14.301C708.45,15.185,705.663,19.731,705.663,29.485z"/>
	<path d="M770.34,29.485c0,14.08-6.307,21.34-16.646,21.34c-10.414,0-16.721-7.26-16.721-21.34s6.307-21.341,16.721-21.341
		C764.033,8.145,770.34,15.405,770.34,29.485z M744.673,29.485c0,9.68,2.787,14.3,9.021,14.3c6.16,0,8.946-4.62,8.946-14.3
		c0-9.754-2.786-14.301-8.946-14.301C747.46,15.185,744.673,19.731,744.673,29.485z"/>
</g>
<g id="XMLID_15_">
	<polygon id="XMLID_16_" points="788.326,654.685 837.467,654.685 837.467,661.97 788.326,661.97 	"/>
</g>
<g id="XMLID_1_">
	<polygon id="XMLID_2_" points="788.326,25.856 837.467,25.999 837.467,33.284 788.326,33.142 	"/>
</g>
<g id="XMLID_17_">
	<rect id="XMLID_18_" x="788.266" y="813.345" width="100.425" height="7.285"/>
</g>
<g id="XMLID_19_" enable-background="new    ">
	<path d="M692.576,800.39c10.199,0,17.879,7.32,17.879,17.46c0,10.199-7.68,17.459-17.879,17.459c-10.14,0-17.76-7.26-17.76-17.459
		C674.817,807.71,682.437,800.39,692.576,800.39z M692.576,829.549c6.6,0,11.459-4.74,11.459-11.699c0-6.96-4.859-11.7-11.459-11.7
		s-11.4,4.74-11.4,11.7C681.176,824.809,685.977,829.549,692.576,829.549z"/>
	<path d="M722.994,806.93v9.239h12.779v5.88h-12.779v12.6h-6.3V801.05h23.64v5.88H722.994z"/>
	<path d="M753.053,806.93v9.239h12.779v5.88h-12.779v12.6h-6.301V801.05h23.64v5.88H753.053z"/>
</g>
</svg>
