<?xml version="1.0" encoding="utf-8"?>
<!-- Generator: Adobe Illustrator 16.0.3, SVG Export Plug-In . SVG Version: 6.00 Build 0)  -->
<!DOCTYPE svg PUBLIC "-//W3C//DTD SVG 1.1//EN" "http://www.w3.org/Graphics/SVG/1.1/DTD/svg11.dtd">
<svg version="1.1" id="Ebene_1" xmlns="http://www.w3.org/2000/svg" xmlns:xlink="http://www.w3.org/1999/xlink" x="0px" y="0px"
	 width="446.298px" height="739.16px" viewBox="631.749 54.715 446.298 739.16"
	 enable-background="new 631.749 54.715 446.298 739.16" xml:space="preserve">
<g id="XMLID_14_">
	<g id="XMLID_6_">
		<path fill="#FFFFFF" d="M895.706,781.375h-81.619c-93.621,0-169.838-76.817-169.838-169.838V237.053
			c0-93.621,76.817-169.838,169.838-169.838h81.619c93.621,0,169.838,76.817,169.838,169.838v374.484
			C1066.143,704.558,989.327,781.375,895.706,781.375z"/>
		<path fill="#010202" d="M895.706,793.875h-81.619c-48.557,0-94.327-19.074-128.876-53.708
			c-34.475-34.56-53.461-80.241-53.461-128.63V237.053c0-48.557,19.074-94.327,53.708-128.876
			c34.56-34.476,80.241-53.462,128.63-53.462h81.619c48.558,0,94.326,19.074,128.877,53.708
			c34.475,34.559,53.461,80.241,53.461,128.63v374.484c0.31,48.056-18.451,93.62-52.827,128.219
			C990.542,774.655,944.547,793.875,895.706,793.875z M814.087,79.715c-86.756,0-157.338,70.582-157.338,157.338v374.484
			c0,86.757,70.582,157.338,157.338,157.338h81.619c42.133,0,81.829-16.6,111.776-46.739c29.648-29.84,45.829-69.09,45.562-110.518
			V237.053c0-86.757-70.581-157.338-157.338-157.338H814.087z"/>
	</g>
	<g id="XMLID_8_">
		<rect x="698.261" y="410.595" fill="#010202" width="304.869" height="25"/>
	</g>
	<g id="XMLID_7_">
		<path fill="#010202" d="M855.497,330.571c-115.827,0-160.266-18.214-162.101-18.99l4.866-11.517l4.804-11.537
			c0.416,0.17,42.797,17.043,152.431,17.043c108.406,0,141.345-16.313,141.647-16.478l11.971,21.947
			C1005.45,313.04,970.003,330.571,855.497,330.571z"/>
	</g>
	<g id="XMLID_11_">
		<path fill="#010202" d="M1003.125,557.661c-0.415-0.17-42.797-17.043-152.429-17.043c-108.061,0-141.48,16.396-141.805,16.562
			l0.157-0.084l-11.971-21.947c3.665-1.999,39.112-19.53,153.619-19.53c115.827,0,160.265,18.214,162.1,18.989l-4.866,11.518
			L1003.125,557.661z"/>
	</g>
</g>
</svg>
