<?xml version="1.0" encoding="utf-8"?>
<!-- Generator: Adobe Illustrator 16.0.3, SVG Export Plug-In . SVG Version: 6.00 Build 0)  -->
<!DOCTYPE svg PUBLIC "-//W3C//DTD SVG 1.1//EN" "http://www.w3.org/Graphics/SVG/1.1/DTD/svg11.dtd">
<svg version="1.1" id="Ebene_1" xmlns="http://www.w3.org/2000/svg" xmlns:xlink="http://www.w3.org/1999/xlink" x="0px" y="0px"
	 width="210.14px" height="1025.733px" viewBox="-49.449 -102.681 210.14 1025.733"
	 enable-background="new -49.449 -102.681 210.14 1025.733" xml:space="preserve">
<g id="XMLID_15_">
	<polygon id="XMLID_16_" points="60,703.442 109.14,703.442 109.14,710.728 60,710.728 	"/>
</g>
<g id="XMLID_12_">
	
		<rect id="XMLID_13_" x="-386.211" y="406.119" transform="matrix(-1.022061e-004 1 -1 -1.022061e-004 523.8951 302.8235)" width="993.525" height="14.428"/>
</g>
<g id="XMLID_9_">
	<polygon id="XMLID_11_" points="61.993,-83.432 111.134,-83.432 111.134,-76.146 61.993,-76.146 	"/>
</g>
<g id="XMLID_7_">
	<rect id="XMLID_8_" x="60.265" y="902.812" width="100.426" height="7.285"/>
</g>
<g id="XMLID_14_" enable-background="new    ">
	<path d="M49.031,707.771c0,14.08-6.307,21.34-16.645,21.34c-10.414,0-16.721-7.26-16.721-21.34s6.307-21.341,16.721-21.341
		C42.725,686.431,49.031,693.691,49.031,707.771z M23.365,707.771c0,9.68,2.787,14.3,9.021,14.3c6.16,0,8.945-4.62,8.945-14.3
		c0-9.754-2.785-14.302-8.945-14.302C26.152,693.472,23.365,698.018,23.365,707.771z"/>
</g>
<g id="XMLID_6_" enable-background="new    ">
	<path d="M-38.816-85.447c0-3.228,0.365-7.553,0.293-7.553h-0.146c-0.072,0-1.906,2.272-2.859,3.08l-3.447,3.446l-4.473-5.5
		l11.145-9.899h7.189v41.065h-7.701V-85.447L-38.816-85.447z"/>
	<path d="M10.387-81.341C10.387-67.261,4.08-60-6.26-60c-10.412,0-16.721-7.261-16.721-21.341c0-14.079,6.309-21.34,16.721-21.34
		C4.082-102.681,10.387-95.42,10.387-81.341z M-15.279-81.341c0,9.681,2.787,14.301,9.02,14.301c6.16,0,8.947-4.62,8.947-14.301
		c0-9.754-2.787-14.301-8.947-14.301C-12.492-95.64-15.279-91.095-15.279-81.341z"/>
	<path d="M49.396-81.341C49.396-67.261,43.09-60,32.752-60c-10.414,0-16.723-7.261-16.723-21.341c0-14.079,6.309-21.34,16.723-21.34
		C43.09-102.681,49.396-95.42,49.396-81.341z M23.73-81.341c0,9.681,2.787,14.301,9.021,14.301c6.158,0,8.945-4.62,8.945-14.301
		c0-9.754-2.787-14.301-8.945-14.301C26.518-95.64,23.73-91.095,23.73-81.341z"/>
</g>
<g id="XMLID_5_" enable-background="new    ">
	<path d="M-28.367,888.133c10.199,0,17.879,7.32,17.879,17.46c0,10.199-7.68,17.459-17.879,17.459
		c-10.141,0-17.76-7.26-17.76-17.459C-46.125,895.453-38.506,888.133-28.367,888.133z M-28.367,917.292
		c6.6,0,11.459-4.74,11.459-11.699c0-6.96-4.859-11.699-11.459-11.699s-11.4,4.739-11.4,11.699
		C-39.768,912.552-34.967,917.292-28.367,917.292z"/>
	<path d="M2.051,894.673v9.239H14.83v5.88H2.051v12.601h-6.299v-33.6h23.639v5.88H2.051z"/>
	<path d="M32.109,894.673v9.239h12.779v5.88H32.109v12.601h-6.301v-33.6h23.641v5.88H32.109z"/>
</g>
</svg>
