<?xml version="1.0" encoding="utf-8"?>
<!-- Generator: Adobe Illustrator 19.0.0, SVG Export Plug-In . SVG Version: 6.00 Build 0)  -->
<svg version="1.1" id="Ebene_1" xmlns="http://www.w3.org/2000/svg" xmlns:xlink="http://www.w3.org/1999/xlink" x="0px" y="0px"
	 viewBox="0 0 141.7 141.7" style="enable-background:new 0 0 141.7 141.7;" xml:space="preserve">
<style type="text/css">
	.st0{fill:#FFFFFF;stroke:#010202;stroke-width:2;stroke-miterlimit:10;}
	.st1{fill:none;stroke:#010202;stroke-width:3;stroke-miterlimit:10;}
</style>
<g id="XMLID_14_">
	<path id="XMLID_6_" class="st0" d="M78.4,130.2H64.8c-15.6,0-28.3-12.8-28.3-28.3V39.5c0-15.6,12.8-28.3,28.3-28.3h13.6
		c15.6,0,28.3,12.8,28.3,28.3v62.4C106.8,117.4,94,130.2,78.4,130.2z"/>
	<line id="XMLID_8_" class="st1" x1="45.5" y1="70.5" x2="96.3" y2="70.5"/>
	<path id="XMLID_7_" class="st1" d="M45.5,50c0,0,7.1,3,26.2,3s24.6-3,24.6-3"/>
	<path id="XMLID_11_" class="st1" d="M97.1,91c0,0-7.1-3-26.2-3s-24.6,3-24.6,3"/>
</g>
</svg>
